<svg preserveAspectRatio="xMidYMin slice" viewBox="0 0 120 200" xmlns="http://www.w3.org/2000/svg"><g transform="translate(10 10)"><defs><mask id="a"><path clip-rule="evenodd" d="M0 0h100v120H0z" fill-rule="evenodd" fill="#fff"/></mask></defs><g mask="url(#a)"><path d="M0 0h100v120H0z" fill-rule="evenodd" fill="#f0f0f0"/><path fill="#f6f6f6" style="cursor:pointer" d="M-1000-1000h2000v2000h-2000z"/><defs><mask id="b"><path clip-rule="evenodd" d="M59.491 25.254v9.492H40.51v-9.492z" fill-rule="evenodd" fill="#fff"/><path d="M59.491 25.254v9.492H40.51v-9.492z" fill="none" stroke-width=".1" stroke="#fff"/></mask></defs><g mask="url(#b)"><path fill="#0c6793" style="cursor:pointer" d="M-1000-1000h2000v2000h-2000z"/></g><path d="M59.491 25.254v9.492H40.51v-9.492z" fill="none" stroke-linecap="round" stroke-linejoin="round" stroke-width=".5" stroke="#333"/><defs><mask id="c"><path clip-rule="evenodd" d="m83.083 45.757-7.42 5.918-11.836-14.841 7.42-5.918z" fill-rule="evenodd" fill="#fff"/><path d="m83.083 45.757-7.42 5.918-11.836-14.841 7.42-5.918z" fill="none" stroke-width=".1" stroke="#fff"/></mask></defs><g mask="url(#c)"><path fill="#0c6793" style="cursor:pointer" d="M-1000-1000h2000v2000h-2000z"/></g><path d="m83.083 45.757-7.42 5.918-11.836-14.841 7.42-5.918z" fill="none" stroke-linecap="round" stroke-linejoin="round" stroke-width=".5" stroke="#333"/><defs><mask id="d"><path clip-rule="evenodd" d="m81.762 76.985-9.253-2.112 4.224-18.507 9.253 2.112z" fill-rule="evenodd" fill="#fff"/><path d="m81.762 76.985-9.253-2.112 4.224-18.507 9.253 2.112z" fill="none" stroke-width=".1" stroke="#fff"/></mask></defs><g mask="url(#d)"><path fill="#0c6793" style="cursor:pointer" d="M-1000-1000h2000v2000h-2000z"/></g><path d="m81.762 76.985-9.253-2.112 4.224-18.507 9.253 2.112z" fill="none" stroke-linecap="round" stroke-linejoin="round" stroke-width=".5" stroke="#333"/><defs><mask id="e"><path clip-rule="evenodd" d="m56.524 95.423-4.118-8.551 17.103-8.237 4.118 8.552z" fill-rule="evenodd" fill="#fff"/><path d="m56.524 95.423-4.118-8.551 17.103-8.237 4.118 8.552z" fill="none" stroke-width=".1" stroke="#fff"/></mask></defs><g mask="url(#e)"><path fill="#0c6793" style="cursor:pointer" d="M-1000-1000h2000v2000h-2000z"/></g><path d="m56.524 95.423-4.118-8.551 17.103-8.237 4.118 8.552z" fill="none" stroke-linecap="round" stroke-linejoin="round" stroke-width=".5" stroke="#333"/><defs><mask id="f"><path clip-rule="evenodd" d="m26.373 87.187 4.118-8.552 17.103 8.237-4.118 8.55z" fill-rule="evenodd" fill="#fff"/><path d="m26.373 87.187 4.118-8.552 17.103 8.237-4.118 8.55z" fill="none" stroke-width=".1" stroke="#fff"/></mask></defs><g mask="url(#f)"><path fill="#0c6793" style="cursor:pointer" d="M-1000-1000h2000v2000h-2000z"/></g><path d="m26.373 87.187 4.118-8.552 17.103 8.237-4.118 8.55z" fill="none" stroke-linecap="round" stroke-linejoin="round" stroke-width=".5" stroke="#333"/><defs><mask id="g"><path clip-rule="evenodd" d="m14.014 58.478 9.253-2.112 4.224 18.507-9.253 2.112z" fill-rule="evenodd" fill="#fff"/><path d="m14.014 58.478 9.253-2.112 4.224 18.507-9.253 2.112z" fill="none" stroke-width=".1" stroke="#fff"/></mask></defs><g mask="url(#g)"><path fill="#0c6793" style="cursor:pointer" d="M-1000-1000h2000v2000h-2000z"/></g><path d="m14.014 58.478 9.253-2.112 4.224 18.507-9.253 2.112z" fill="none" stroke-linecap="round" stroke-linejoin="round" stroke-width=".5" stroke="#333"/><defs><mask id="h"><path clip-rule="evenodd" d="m28.752 30.916 7.421 5.918-11.835 14.84-7.42-5.917z" fill-rule="evenodd" fill="#fff"/><path d="m28.752 30.916 7.421 5.918-11.835 14.84-7.42-5.917z" fill="none" stroke-width=".1" stroke="#fff"/></mask></defs><g mask="url(#h)"><path fill="#0c6793" style="cursor:pointer" d="M-1000-1000h2000v2000h-2000z"/></g><path d="m28.752 30.916 7.421 5.918-11.835 14.84-7.42-5.917z" fill="none" stroke-linecap="round" stroke-linejoin="round" stroke-width=".5" stroke="#333"/></g><path d="M0 0h100v120H0z" fill="none" stroke-linecap="round" stroke-linejoin="round" stroke-width=".5" stroke="#333"/></g></svg>