<?xml version="1.0" encoding="UTF-8" standalone="no"?>
<svg xmlns="http://www.w3.org/2000/svg" viewBox="-10 -10 120 140" preserveAspectRatio="xMidYMin slice"><defs><mask id="a"><path d="M0 0h100v120H0z" clip-rule="evenodd" fill-rule="evenodd" fill="#fff"/></mask></defs><g mask="url(#a)"><path d="M0 0h100v120H0z" fill-rule="evenodd" fill="#f0f0f0"/><path fill="#f6f6f6" d="M-1000-1000h2000v2000h-2000z"/><defs><mask id="b"><path d="M40.564 84.749c0-8.457-6.856-15.313-15.313-15.313S9.94 76.292 9.94 84.75s6.855 15.312 15.312 15.312c8.457 0 15.313-6.855 15.313-15.312z" clip-rule="evenodd" fill-rule="evenodd" fill="#fff"/></mask></defs><g mask="url(#b)"><path fill="#0c6793" d="M-1000-1000h2000v2000h-2000z"/></g><path d="M40.564 84.749c0-8.457-6.856-15.313-15.313-15.313S9.94 76.292 9.94 84.75s6.855 15.312 15.312 15.312c8.457 0 15.313-6.855 15.313-15.312z" stroke="#333" stroke-width=".5" fill="none" stroke-linecap="round" stroke-linejoin="round"/><defs><mask id="c"><path d="M65.313 60c0-8.457-6.856-15.313-15.313-15.313S34.687 51.544 34.687 60 41.544 75.313 50 75.313 65.313 68.457 65.313 60z" clip-rule="evenodd" fill-rule="evenodd" fill="#fff"/></mask></defs><g mask="url(#c)"><path fill="#0c6793" d="M-1000-1000h2000v2000h-2000z"/></g><path d="M65.313 60c0-8.457-6.856-15.313-15.313-15.313S34.687 51.544 34.687 60 41.544 75.313 50 75.313 65.313 68.457 65.313 60z" stroke="#333" stroke-width=".5" fill="none" stroke-linecap="round" stroke-linejoin="round"/><defs><mask id="d"><path d="M90.061 35.251c0-8.457-6.855-15.312-15.312-15.312-8.457 0-15.313 6.855-15.313 15.312 0 8.457 6.856 15.313 15.313 15.313S90.06 43.708 90.06 35.25z" clip-rule="evenodd" fill-rule="evenodd" fill="#fff"/></mask></defs><g mask="url(#d)"><path fill="#0c6793" d="M-1000-1000h2000v2000h-2000z"/></g><path d="M90.061 35.251c0-8.457-6.855-15.312-15.312-15.312-8.457 0-15.313 6.855-15.313 15.312 0 8.457 6.856 15.313 15.313 15.313S90.06 43.708 90.06 35.25z" stroke="#333" stroke-width=".5" fill="none" stroke-linecap="round" stroke-linejoin="round"/></g><path d="M0 0h100v120H0z" stroke="#333" stroke-width=".5" fill="none" stroke-linecap="round" stroke-linejoin="round"/></svg>