<svg preserveAspectRatio="xMidYMin slice" viewBox="0 0 120 200" xmlns="http://www.w3.org/2000/svg"><g filter="url(#a)" transform="translate(10 10)"><defs><filter height="200%" id="a" width="200%" x="-20%" y="-20%"><feOffset dx=".2" dy=".2" in="SourceAlpha" result="offsetOut"/><feGaussianBlur in="offsetOut" result="blurOut"/><feBlend in2="blurOut" in="SourceGraphic"/></filter></defs><defs><clipPath id="b"><path d="M0 0h100v120H0z" fill="#fff"/></clipPath></defs><g clip-path="url(#b)"><path d="M0 0h100v120H0z" fill="#f0f0f0"/><g style="pointer-events:visiblePainted;cursor:pointer"><path fill="#f6f6f6" d="M-500-500H600V600H-500z"/><defs><mask id="c"><path d="M22.519 29.4a7.852 7.852 0 0 0-15.704 0 7.852 7.852 0 0 0 15.704 0z" fill="#fff"/><path d="M22.519 29.4a7.852 7.852 0 0 0-15.704 0 7.852 7.852 0 0 0 15.704 0z" fill="none" stroke-width=".1" stroke="#fff"/></mask></defs><g mask="url(#c)"><path fill="#0c6793" d="M-500-500H600V600H-500z" style="pointer-events:visiblePainted;cursor:pointer"/></g><path d="M22.519 29.4a7.852 7.852 0 0 0-15.704 0 7.852 7.852 0 0 0 15.704 0z" fill="none" stroke-linecap="round" stroke-linejoin="round" stroke-width=".5" stroke="#333"/><defs><mask id="d"><path d="M22.519 49.8a7.852 7.852 0 0 0-15.704 0 7.852 7.852 0 0 0 15.704 0z" fill="#fff"/><path d="M22.519 49.8a7.852 7.852 0 0 0-15.704 0 7.852 7.852 0 0 0 15.704 0z" fill="none" stroke-width=".1" stroke="#fff"/></mask></defs><g mask="url(#d)"><path fill="#0c6793" d="M-500-500H600V600H-500z" style="pointer-events:visiblePainted;cursor:pointer"/></g><path d="M22.519 49.8a7.852 7.852 0 0 0-15.704 0 7.852 7.852 0 0 0 15.704 0z" fill="none" stroke-linecap="round" stroke-linejoin="round" stroke-width=".5" stroke="#333"/><defs><mask id="e"><path d="M22.519 70.2a7.852 7.852 0 0 0-15.704 0 7.852 7.852 0 0 0 15.704 0z" fill="#fff"/><path d="M22.519 70.2a7.852 7.852 0 0 0-15.704 0 7.852 7.852 0 0 0 15.704 0z" fill="none" stroke-width=".1" stroke="#fff"/></mask></defs><g mask="url(#e)"><path fill="#0c6793" d="M-500-500H600V600H-500z" style="pointer-events:visiblePainted;cursor:pointer"/></g><path d="M22.519 70.2a7.852 7.852 0 0 0-15.704 0 7.852 7.852 0 0 0 15.704 0z" fill="none" stroke-linecap="round" stroke-linejoin="round" stroke-width=".5" stroke="#333"/><defs><mask id="f"><path d="M22.519 90.6a7.852 7.852 0 0 0-15.704 0 7.852 7.852 0 0 0 15.704 0z" fill="#fff"/><path d="M22.519 90.6a7.852 7.852 0 0 0-15.704 0 7.852 7.852 0 0 0 15.704 0z" fill="none" stroke-width=".1" stroke="#fff"/></mask></defs><g mask="url(#f)"><path fill="#0c6793" d="M-500-500H600V600H-500z" style="pointer-events:visiblePainted;cursor:pointer"/></g><path d="M22.519 90.6a7.852 7.852 0 0 0-15.704 0 7.852 7.852 0 0 0 15.704 0z" fill="none" stroke-linecap="round" stroke-linejoin="round" stroke-width=".5" stroke="#333"/><defs><mask id="g"><path d="M40.185 39.6a7.852 7.852 0 0 0-15.703 0 7.852 7.852 0 0 0 15.703 0z" fill="#fff"/><path d="M40.185 39.6a7.852 7.852 0 0 0-15.703 0 7.852 7.852 0 0 0 15.703 0z" fill="none" stroke-width=".1" stroke="#fff"/></mask></defs><g mask="url(#g)"><path fill="#0c6793" d="M-500-500H600V600H-500z" style="pointer-events:visiblePainted;cursor:pointer"/></g><path d="M40.185 39.6a7.852 7.852 0 0 0-15.703 0 7.852 7.852 0 0 0 15.703 0z" fill="none" stroke-linecap="round" stroke-linejoin="round" stroke-width=".5" stroke="#333"/><defs><mask id="h"><path d="M40.185 60a7.852 7.852 0 0 0-15.703 0 7.852 7.852 0 0 0 15.703 0z" fill="#fff"/><path d="M40.185 60a7.852 7.852 0 0 0-15.703 0 7.852 7.852 0 0 0 15.703 0z" fill="none" stroke-width=".1" stroke="#fff"/></mask></defs><g mask="url(#h)"><path fill="#0c6793" d="M-500-500H600V600H-500z" style="pointer-events:visiblePainted;cursor:pointer"/></g><path d="M40.185 60a7.852 7.852 0 0 0-15.703 0 7.852 7.852 0 0 0 15.703 0z" fill="none" stroke-linecap="round" stroke-linejoin="round" stroke-width=".5" stroke="#333"/><defs><mask id="i"><path d="M40.185 80.4a7.852 7.852 0 0 0-15.703 0 7.852 7.852 0 0 0 15.703 0z" fill="#fff"/><path d="M40.185 80.4a7.852 7.852 0 0 0-15.703 0 7.852 7.852 0 0 0 15.703 0z" fill="none" stroke-width=".1" stroke="#fff"/></mask></defs><g mask="url(#i)"><path fill="#0c6793" d="M-500-500H600V600H-500z" style="pointer-events:visiblePainted;cursor:pointer"/></g><path d="M40.185 80.4a7.852 7.852 0 0 0-15.703 0 7.852 7.852 0 0 0 15.703 0z" fill="none" stroke-linecap="round" stroke-linejoin="round" stroke-width=".5" stroke="#333"/><defs><mask id="j"><path d="M57.852 29.4a7.852 7.852 0 0 0-15.704 0 7.852 7.852 0 0 0 15.704 0z" fill="#fff"/><path d="M57.852 29.4a7.852 7.852 0 0 0-15.704 0 7.852 7.852 0 0 0 15.704 0z" fill="none" stroke-width=".1" stroke="#fff"/></mask></defs><g mask="url(#j)"><path fill="#0c6793" d="M-500-500H600V600H-500z" style="pointer-events:visiblePainted;cursor:pointer"/></g><path d="M57.852 29.4a7.852 7.852 0 0 0-15.704 0 7.852 7.852 0 0 0 15.704 0z" fill="none" stroke-linecap="round" stroke-linejoin="round" stroke-width=".5" stroke="#333"/><defs><mask id="k"><path d="M57.852 49.8a7.852 7.852 0 0 0-15.704 0 7.852 7.852 0 0 0 15.704 0z" fill="#fff"/><path d="M57.852 49.8a7.852 7.852 0 0 0-15.704 0 7.852 7.852 0 0 0 15.704 0z" fill="none" stroke-width=".1" stroke="#fff"/></mask></defs><g mask="url(#k)"><path fill="#0c6793" d="M-500-500H600V600H-500z" style="pointer-events:visiblePainted;cursor:pointer"/></g><path d="M57.852 49.8a7.852 7.852 0 0 0-15.704 0 7.852 7.852 0 0 0 15.704 0z" fill="none" stroke-linecap="round" stroke-linejoin="round" stroke-width=".5" stroke="#333"/><defs><mask id="l"><path d="M57.852 70.2a7.852 7.852 0 0 0-15.704 0 7.852 7.852 0 0 0 15.704 0z" fill="#fff"/><path d="M57.852 70.2a7.852 7.852 0 0 0-15.704 0 7.852 7.852 0 0 0 15.704 0z" fill="none" stroke-width=".1" stroke="#fff"/></mask></defs><g mask="url(#l)"><path fill="#0c6793" d="M-500-500H600V600H-500z" style="pointer-events:visiblePainted;cursor:pointer"/></g><path d="M57.852 70.2a7.852 7.852 0 0 0-15.704 0 7.852 7.852 0 0 0 15.704 0z" fill="none" stroke-linecap="round" stroke-linejoin="round" stroke-width=".5" stroke="#333"/><defs><mask id="m"><path d="M57.852 90.6a7.852 7.852 0 0 0-15.704 0 7.852 7.852 0 0 0 15.704 0z" fill="#fff"/><path d="M57.852 90.6a7.852 7.852 0 0 0-15.704 0 7.852 7.852 0 0 0 15.704 0z" fill="none" stroke-width=".1" stroke="#fff"/></mask></defs><g mask="url(#m)"><path fill="#0c6793" d="M-500-500H600V600H-500z" style="pointer-events:visiblePainted;cursor:pointer"/></g><path d="M57.852 90.6a7.852 7.852 0 0 0-15.704 0 7.852 7.852 0 0 0 15.704 0z" fill="none" stroke-linecap="round" stroke-linejoin="round" stroke-width=".5" stroke="#333"/><defs><mask id="n"><path d="M75.518 39.6a7.852 7.852 0 0 0-15.703 0 7.852 7.852 0 0 0 15.703 0z" fill="#fff"/><path d="M75.518 39.6a7.852 7.852 0 0 0-15.703 0 7.852 7.852 0 0 0 15.703 0z" fill="none" stroke-width=".1" stroke="#fff"/></mask></defs><g mask="url(#n)"><path fill="#0c6793" d="M-500-500H600V600H-500z" style="pointer-events:visiblePainted;cursor:pointer"/></g><path d="M75.518 39.6a7.852 7.852 0 0 0-15.703 0 7.852 7.852 0 0 0 15.703 0z" fill="none" stroke-linecap="round" stroke-linejoin="round" stroke-width=".5" stroke="#333"/><defs><mask id="o"><path d="M75.518 60a7.852 7.852 0 0 0-15.703 0 7.852 7.852 0 0 0 15.703 0z" fill="#fff"/><path d="M75.518 60a7.852 7.852 0 0 0-15.703 0 7.852 7.852 0 0 0 15.703 0z" fill="none" stroke-width=".1" stroke="#fff"/></mask></defs><g mask="url(#o)"><path fill="#0c6793" d="M-500-500H600V600H-500z" style="pointer-events:visiblePainted;cursor:pointer"/></g><path d="M75.518 60a7.852 7.852 0 0 0-15.703 0 7.852 7.852 0 0 0 15.703 0z" fill="none" stroke-linecap="round" stroke-linejoin="round" stroke-width=".5" stroke="#333"/><defs><mask id="p"><path d="M75.518 80.4a7.852 7.852 0 0 0-15.703 0 7.852 7.852 0 0 0 15.703 0z" fill="#fff"/><path d="M75.518 80.4a7.852 7.852 0 0 0-15.703 0 7.852 7.852 0 0 0 15.703 0z" fill="none" stroke-width=".1" stroke="#fff"/></mask></defs><g mask="url(#p)"><path fill="#0c6793" d="M-500-500H600V600H-500z" style="pointer-events:visiblePainted;cursor:pointer"/></g><path d="M75.518 80.4a7.852 7.852 0 0 0-15.703 0 7.852 7.852 0 0 0 15.703 0z" fill="none" stroke-linecap="round" stroke-linejoin="round" stroke-width=".5" stroke="#333"/><defs><mask id="q"><path d="M93.185 29.4a7.852 7.852 0 0 0-15.704 0 7.852 7.852 0 0 0 15.704 0z" fill="#fff"/><path d="M93.185 29.4a7.852 7.852 0 0 0-15.704 0 7.852 7.852 0 0 0 15.704 0z" fill="none" stroke-width=".1" stroke="#fff"/></mask></defs><g mask="url(#q)"><path fill="#0c6793" d="M-500-500H600V600H-500z" style="pointer-events:visiblePainted;cursor:pointer"/></g><path d="M93.185 29.4a7.852 7.852 0 0 0-15.704 0 7.852 7.852 0 0 0 15.704 0z" fill="none" stroke-linecap="round" stroke-linejoin="round" stroke-width=".5" stroke="#333"/><defs><mask id="r"><path d="M93.185 49.8a7.852 7.852 0 0 0-15.704 0 7.852 7.852 0 0 0 15.704 0z" fill="#fff"/><path d="M93.185 49.8a7.852 7.852 0 0 0-15.704 0 7.852 7.852 0 0 0 15.704 0z" fill="none" stroke-width=".1" stroke="#fff"/></mask></defs><g mask="url(#r)"><path fill="#0c6793" d="M-500-500H600V600H-500z" style="pointer-events:visiblePainted;cursor:pointer"/></g><path d="M93.185 49.8a7.852 7.852 0 0 0-15.704 0 7.852 7.852 0 0 0 15.704 0z" fill="none" stroke-linecap="round" stroke-linejoin="round" stroke-width=".5" stroke="#333"/><defs><mask id="s"><path d="M93.185 70.2a7.852 7.852 0 0 0-15.704 0 7.852 7.852 0 0 0 15.704 0z" fill="#fff"/><path d="M93.185 70.2a7.852 7.852 0 0 0-15.704 0 7.852 7.852 0 0 0 15.704 0z" fill="none" stroke-width=".1" stroke="#fff"/></mask></defs><g mask="url(#s)"><path fill="#0c6793" d="M-500-500H600V600H-500z" style="pointer-events:visiblePainted;cursor:pointer"/></g><path d="M93.185 70.2a7.852 7.852 0 0 0-15.704 0 7.852 7.852 0 0 0 15.704 0z" fill="none" stroke-linecap="round" stroke-linejoin="round" stroke-width=".5" stroke="#333"/><defs><mask id="t"><path d="M93.185 90.6a7.852 7.852 0 0 0-15.704 0 7.852 7.852 0 0 0 15.704 0z" fill="#fff"/><path d="M93.185 90.6a7.852 7.852 0 0 0-15.704 0 7.852 7.852 0 0 0 15.704 0z" fill="none" stroke-width=".1" stroke="#fff"/></mask></defs><g mask="url(#t)"><path fill="#0c6793" d="M-500-500H600V600H-500z" style="pointer-events:visiblePainted;cursor:pointer"/></g><path d="M93.185 90.6a7.852 7.852 0 0 0-15.704 0 7.852 7.852 0 0 0 15.704 0z" fill="none" stroke-linecap="round" stroke-linejoin="round" stroke-width=".5" stroke="#333"/></g></g><path d="M0 0h100v120H0z" fill="none" stroke-linecap="round" stroke-linejoin="round" stroke-width=".5" stroke="#333"/></g></svg>