<?xml version="1.0" encoding="UTF-8" standalone="no"?>
<svg xmlns="http://www.w3.org/2000/svg" preserveAspectRatio="xMidYMin slice" viewBox="-10 -10 120 140"><defs><mask id="a"><path fill="#fff" fill-rule="evenodd" d="M0 0h100v120H0z" clip-rule="evenodd"/></mask></defs><g mask="url(#a)"><path fill="#f0f0f0" fill-rule="evenodd" d="M0 0h100v120H0z"/><path fill="#f6f6f6" d="M-1000-1000h2000v2000h-2000z"/><defs><mask id="b"><path fill="#fff" fill-rule="evenodd" d="M59.491 25.254v9.492H40.51v-9.492z" clip-rule="evenodd"/></mask></defs><g mask="url(#b)"><path fill="#0c6793" d="M-1000-1000h2000v2000h-2000z"/></g><path fill="none" stroke="#333" stroke-linecap="round" stroke-linejoin="round" stroke-width=".5" d="M59.491 25.254v9.492H40.51v-9.492z"/><defs><mask id="c"><path fill="#fff" fill-rule="evenodd" d="m83.083 45.757-7.42 5.918-11.836-14.841 7.42-5.918z" clip-rule="evenodd"/></mask></defs><g mask="url(#c)"><path fill="#0c6793" d="M-1000-1000h2000v2000h-2000z"/></g><path fill="none" stroke="#333" stroke-linecap="round" stroke-linejoin="round" stroke-width=".5" d="m83.083 45.757-7.42 5.918-11.836-14.841 7.42-5.918z"/><defs><mask id="d"><path fill="#fff" fill-rule="evenodd" d="m81.762 76.985-9.253-2.112 4.224-18.507 9.253 2.112z" clip-rule="evenodd"/></mask></defs><g mask="url(#d)"><path fill="#0c6793" d="M-1000-1000h2000v2000h-2000z"/></g><path fill="none" stroke="#333" stroke-linecap="round" stroke-linejoin="round" stroke-width=".5" d="m81.762 76.985-9.253-2.112 4.224-18.507 9.253 2.112z"/><defs><mask id="e"><path fill="#fff" fill-rule="evenodd" d="m56.524 95.423-4.118-8.551 17.103-8.237 4.118 8.552z" clip-rule="evenodd"/></mask></defs><g mask="url(#e)"><path fill="#0c6793" d="M-1000-1000h2000v2000h-2000z"/></g><path fill="none" stroke="#333" stroke-linecap="round" stroke-linejoin="round" stroke-width=".5" d="m56.524 95.423-4.118-8.551 17.103-8.237 4.118 8.552z"/><defs><mask id="f"><path fill="#fff" fill-rule="evenodd" d="m26.373 87.187 4.118-8.552 17.103 8.237-4.118 8.55z" clip-rule="evenodd"/></mask></defs><g mask="url(#f)"><path fill="#0c6793" d="M-1000-1000h2000v2000h-2000z"/></g><path fill="none" stroke="#333" stroke-linecap="round" stroke-linejoin="round" stroke-width=".5" d="m26.373 87.187 4.118-8.552 17.103 8.237-4.118 8.55z"/><defs><mask id="g"><path fill="#fff" fill-rule="evenodd" d="m14.014 58.478 9.253-2.112 4.224 18.507-9.253 2.112z" clip-rule="evenodd"/></mask></defs><g mask="url(#g)"><path fill="#0c6793" d="M-1000-1000h2000v2000h-2000z"/></g><path fill="none" stroke="#333" stroke-linecap="round" stroke-linejoin="round" stroke-width=".5" d="m14.014 58.478 9.253-2.112 4.224 18.507-9.253 2.112z"/><defs><mask id="h"><path fill="#fff" fill-rule="evenodd" d="m28.752 30.916 7.421 5.918-11.835 14.84-7.42-5.917z" clip-rule="evenodd"/></mask></defs><g mask="url(#h)"><path fill="#0c6793" d="M-1000-1000h2000v2000h-2000z"/></g><path fill="none" stroke="#333" stroke-linecap="round" stroke-linejoin="round" stroke-width=".5" d="m28.752 30.916 7.421 5.918-11.835 14.84-7.42-5.917z"/></g><path fill="none" stroke="#333" stroke-linecap="round" stroke-linejoin="round" stroke-width=".5" d="M0 0h100v120H0z"/></svg>