<?xml version="1.0" encoding="UTF-8" standalone="no"?>
<svg xmlns="http://www.w3.org/2000/svg" viewBox="-10 -10 120 140" preserveAspectRatio="xMidYMin slice"><defs><mask id="a"><path d="M0 0h100v120H0z" clip-rule="evenodd" fill-rule="evenodd" fill="#fff"/></mask></defs><g mask="url(#a)"><path d="M0 0h100v120H0z" fill-rule="evenodd" fill="#f0f0f0"/><path fill="#f6f6f6" style="cursor:pointer" d="M-1000-1000h2000v2000h-2000z"/><defs><mask id="b"><path d="M87.034 31.716a8.75 8.75 0 1 0-17.5 0 8.75 8.75 0 0 0 17.5 0z" clip-rule="evenodd" fill-rule="evenodd" fill="#fff"/></mask></defs><g mask="url(#b)"><path fill="#0c6793" style="cursor:pointer" d="M-1000-1000h2000v2000h-2000z"/></g><path d="M87.034 31.716a8.75 8.75 0 1 0-17.5 0 8.75 8.75 0 0 0 17.5 0z" stroke="#333" stroke-width=".5" fill="none" stroke-linecap="round" stroke-linejoin="round"/><defs><mask id="c"><path d="M72.892 45.858a8.75 8.75 0 1 0-17.5 0 8.75 8.75 0 0 0 17.5 0z" clip-rule="evenodd" fill-rule="evenodd" fill="#fff"/></mask></defs><g mask="url(#c)"><path fill="#0c6793" style="cursor:pointer" d="M-1000-1000h2000v2000h-2000z"/></g><path d="M72.892 45.858a8.75 8.75 0 1 0-17.5 0 8.75 8.75 0 0 0 17.5 0z" stroke="#333" stroke-width=".5" fill="none" stroke-linecap="round" stroke-linejoin="round"/><defs><mask id="d"><path d="M30.466 31.716a8.75 8.75 0 1 0-17.5 0 8.75 8.75 0 0 0 17.5 0z" clip-rule="evenodd" fill-rule="evenodd" fill="#fff"/></mask></defs><g mask="url(#d)"><path fill="#0c6793" style="cursor:pointer" d="M-1000-1000h2000v2000h-2000z"/></g><path d="M30.466 31.716a8.75 8.75 0 1 0-17.5 0 8.75 8.75 0 0 0 17.5 0z" stroke="#333" stroke-width=".5" fill="none" stroke-linecap="round" stroke-linejoin="round"/><defs><mask id="e"><path d="M44.608 45.858a8.75 8.75 0 1 0-17.5 0 8.75 8.75 0 0 0 17.5 0z" clip-rule="evenodd" fill-rule="evenodd" fill="#fff"/></mask></defs><g mask="url(#e)"><path fill="#0c6793" style="cursor:pointer" d="M-1000-1000h2000v2000h-2000z"/></g><path d="M44.608 45.858a8.75 8.75 0 1 0-17.5 0 8.75 8.75 0 0 0 17.5 0z" stroke="#333" stroke-width=".5" fill="none" stroke-linecap="round" stroke-linejoin="round"/><defs><mask id="f"><path d="M58.75 60a8.75 8.75 0 1 0-17.5 0 8.75 8.75 0 0 0 17.5 0z" clip-rule="evenodd" fill-rule="evenodd" fill="#fff"/></mask></defs><g mask="url(#f)"><path fill="#0c6793" style="cursor:pointer" d="M-1000-1000h2000v2000h-2000z"/></g><path d="M58.75 60a8.75 8.75 0 1 0-17.5 0 8.75 8.75 0 0 0 17.5 0z" stroke="#333" stroke-width=".5" fill="none" stroke-linecap="round" stroke-linejoin="round"/><defs><mask id="g"><path d="M72.892 74.142a8.75 8.75 0 1 0-17.5 0 8.75 8.75 0 0 0 17.5 0z" clip-rule="evenodd" fill-rule="evenodd" fill="#fff"/></mask></defs><g mask="url(#g)"><path fill="#0c6793" style="cursor:pointer" d="M-1000-1000h2000v2000h-2000z"/></g><path d="M72.892 74.142a8.75 8.75 0 1 0-17.5 0 8.75 8.75 0 0 0 17.5 0z" stroke="#333" stroke-width=".5" fill="none" stroke-linecap="round" stroke-linejoin="round"/><defs><mask id="h"><path d="M87.034 88.284a8.75 8.75 0 1 0-17.5 0 8.75 8.75 0 0 0 17.5 0z" clip-rule="evenodd" fill-rule="evenodd" fill="#fff"/></mask></defs><g mask="url(#h)"><path fill="#0c6793" style="cursor:pointer" d="M-1000-1000h2000v2000h-2000z"/></g><path d="M87.034 88.284a8.75 8.75 0 1 0-17.5 0 8.75 8.75 0 0 0 17.5 0z" stroke="#333" stroke-width=".5" fill="none" stroke-linecap="round" stroke-linejoin="round"/><defs><mask id="i"><path d="M44.608 74.142a8.75 8.75 0 1 0-17.5 0 8.75 8.75 0 0 0 17.5 0z" clip-rule="evenodd" fill-rule="evenodd" fill="#fff"/></mask></defs><g mask="url(#i)"><path fill="#0c6793" style="cursor:pointer" d="M-1000-1000h2000v2000h-2000z"/></g><path d="M44.608 74.142a8.75 8.75 0 1 0-17.5 0 8.75 8.75 0 0 0 17.5 0z" stroke="#333" stroke-width=".5" fill="none" stroke-linecap="round" stroke-linejoin="round"/><defs><mask id="j"><path d="M30.466 88.284a8.75 8.75 0 1 0-17.5 0 8.75 8.75 0 0 0 17.5 0z" clip-rule="evenodd" fill-rule="evenodd" fill="#fff"/></mask></defs><g mask="url(#j)"><path fill="#0c6793" style="cursor:pointer" d="M-1000-1000h2000v2000h-2000z"/></g><path d="M30.466 88.284a8.75 8.75 0 1 0-17.5 0 8.75 8.75 0 0 0 17.5 0z" stroke="#333" stroke-width=".5" fill="none" stroke-linecap="round" stroke-linejoin="round"/></g><path d="M0 0h100v120H0z" stroke="#333" stroke-width=".5" fill="none" stroke-linecap="round" stroke-linejoin="round"/></svg>