<svg preserveAspectRatio="xMidYMin slice" viewBox="0 0 120 200" xmlns="http://www.w3.org/2000/svg"><g transform="translate(10 10)"><defs><mask id="a"><path clip-rule="evenodd" d="M0 0h100v120H0z" fill-rule="evenodd" fill="#fff"/></mask></defs><g mask="url(#a)"><path d="M0 0h100v120H0z" fill-rule="evenodd" fill="#f0f0f0"/><path fill="#f6f6f6" style="cursor:pointer" d="M-1000-1000h2000v2000h-2000z"/><defs><mask id="b"><path clip-rule="evenodd" d="M76.516 33.483c14.645 14.645 14.645 38.389 0 53.034-14.644 14.644-38.388 14.644-53.033 0-14.644-14.645-14.644-38.389 0-53.033a28.125 28.125 0 1 0 53.034 0z" fill-rule="evenodd" fill="#fff"/><path d="M76.516 33.483c14.645 14.645 14.645 38.389 0 53.034-14.644 14.644-38.388 14.644-53.033 0-14.644-14.645-14.644-38.389 0-53.033a28.125 28.125 0 1 0 53.034 0z" fill="none" stroke-width=".1" stroke="#fff"/></mask></defs><g mask="url(#b)"><path fill="#0c6793" style="cursor:pointer" d="M-1000-1000h2000v2000h-2000z"/></g><path d="M76.516 33.483c14.645 14.645 14.645 38.389 0 53.034-14.644 14.644-38.388 14.644-53.033 0-14.644-14.645-14.644-38.389 0-53.033a28.125 28.125 0 1 0 53.034 0z" fill="none" stroke-linecap="round" stroke-linejoin="round" stroke-width=".5" stroke="#333"/></g><path d="M0 0h100v120H0z" fill="none" stroke-linecap="round" stroke-linejoin="round" stroke-width=".5" stroke="#333"/></g></svg>