<svg preserveAspectRatio="xMidYMin slice" viewBox="0 0 120 200" xmlns="http://www.w3.org/2000/svg"><g filter="url(#a)" transform="translate(10 10)"><defs><filter height="200%" id="a" width="200%" x="-20%" y="-20%"><feOffset dx=".2" dy=".2" in="SourceAlpha" result="offsetOut"/><feGaussianBlur in="offsetOut" result="blurOut"/><feBlend in2="blurOut" in="SourceGraphic"/></filter></defs><defs><clipPath id="b"><path d="M0 0h100v120H0z" fill="#fff"/></clipPath></defs><g clip-path="url(#b)"><path d="M0 0h100v120H0z" fill="#f0f0f0"/><g style="pointer-events:visiblePainted;cursor:pointer"><path fill="#f6f6f6" d="M-500-500H600V600H-500z"/><defs><mask id="c"><path d="M27.578 25.36a7.577 7.577 0 0 0-15.155 0 7.577 7.577 0 0 0 15.155 0z" fill="#fff"/><path d="M27.578 25.36a7.577 7.577 0 0 0-15.155 0 7.577 7.577 0 0 0 15.155 0z" fill="none" stroke-width=".1" stroke="#fff"/></mask></defs><g mask="url(#c)"><path fill="#0c6793" d="M-500-500H600V600H-500z" style="pointer-events:visiblePainted;cursor:pointer"/></g><path d="M27.578 25.36a7.577 7.577 0 0 0-15.155 0 7.577 7.577 0 0 0 15.155 0z" fill="none" stroke-linecap="round" stroke-linejoin="round" stroke-width=".5" stroke="#333"/><defs><mask id="d"><path d="M47.578 25.36a7.577 7.577 0 0 0-15.155 0 7.577 7.577 0 0 0 15.154 0z" fill="#fff"/><path d="M47.578 25.36a7.577 7.577 0 0 0-15.155 0 7.577 7.577 0 0 0 15.154 0z" fill="none" stroke-width=".1" stroke="#fff"/></mask></defs><g mask="url(#d)"><path fill="#0c6793" d="M-500-500H600V600H-500z" style="pointer-events:visiblePainted;cursor:pointer"/></g><path d="M47.578 25.36a7.577 7.577 0 0 0-15.155 0 7.577 7.577 0 0 0 15.154 0z" fill="none" stroke-linecap="round" stroke-linejoin="round" stroke-width=".5" stroke="#333"/><defs><mask id="e"><path d="M67.578 25.36a7.577 7.577 0 0 0-15.155 0 7.577 7.577 0 0 0 15.154 0z" fill="#fff"/><path d="M67.578 25.36a7.577 7.577 0 0 0-15.155 0 7.577 7.577 0 0 0 15.154 0z" fill="none" stroke-width=".1" stroke="#fff"/></mask></defs><g mask="url(#e)"><path fill="#0c6793" d="M-500-500H600V600H-500z" style="pointer-events:visiblePainted;cursor:pointer"/></g><path d="M67.578 25.36a7.577 7.577 0 0 0-15.155 0 7.577 7.577 0 0 0 15.154 0z" fill="none" stroke-linecap="round" stroke-linejoin="round" stroke-width=".5" stroke="#333"/><defs><mask id="f"><path d="M87.578 25.36a7.577 7.577 0 0 0-15.155 0 7.577 7.577 0 0 0 15.154 0z" fill="#fff"/><path d="M87.578 25.36a7.577 7.577 0 0 0-15.155 0 7.577 7.577 0 0 0 15.154 0z" fill="none" stroke-width=".1" stroke="#fff"/></mask></defs><g mask="url(#f)"><path fill="#0c6793" d="M-500-500H600V600H-500z" style="pointer-events:visiblePainted;cursor:pointer"/></g><path d="M87.578 25.36a7.577 7.577 0 0 0-15.155 0 7.577 7.577 0 0 0 15.154 0z" fill="none" stroke-linecap="round" stroke-linejoin="round" stroke-width=".5" stroke="#333"/><defs><mask id="g"><path d="M37.578 42.68a7.577 7.577 0 0 0-15.155 0 7.577 7.577 0 0 0 15.155 0z" fill="#fff"/><path d="M37.578 42.68a7.577 7.577 0 0 0-15.155 0 7.577 7.577 0 0 0 15.155 0z" fill="none" stroke-width=".1" stroke="#fff"/></mask></defs><g mask="url(#g)"><path fill="#0c6793" d="M-500-500H600V600H-500z" style="pointer-events:visiblePainted;cursor:pointer"/></g><path d="M37.578 42.68a7.577 7.577 0 0 0-15.155 0 7.577 7.577 0 0 0 15.155 0z" fill="none" stroke-linecap="round" stroke-linejoin="round" stroke-width=".5" stroke="#333"/><defs><mask id="h"><path d="M57.578 42.68a7.577 7.577 0 0 0-15.155 0 7.577 7.577 0 0 0 15.154 0z" fill="#fff"/><path d="M57.578 42.68a7.577 7.577 0 0 0-15.155 0 7.577 7.577 0 0 0 15.154 0z" fill="none" stroke-width=".1" stroke="#fff"/></mask></defs><g mask="url(#h)"><path fill="#0c6793" d="M-500-500H600V600H-500z" style="pointer-events:visiblePainted;cursor:pointer"/></g><path d="M57.578 42.68a7.577 7.577 0 0 0-15.155 0 7.577 7.577 0 0 0 15.154 0z" fill="none" stroke-linecap="round" stroke-linejoin="round" stroke-width=".5" stroke="#333"/><defs><mask id="i"><path d="M77.578 42.68a7.577 7.577 0 0 0-15.155 0 7.577 7.577 0 0 0 15.154 0z" fill="#fff"/><path d="M77.578 42.68a7.577 7.577 0 0 0-15.155 0 7.577 7.577 0 0 0 15.154 0z" fill="none" stroke-width=".1" stroke="#fff"/></mask></defs><g mask="url(#i)"><path fill="#0c6793" d="M-500-500H600V600H-500z" style="pointer-events:visiblePainted;cursor:pointer"/></g><path d="M77.578 42.68a7.577 7.577 0 0 0-15.155 0 7.577 7.577 0 0 0 15.154 0z" fill="none" stroke-linecap="round" stroke-linejoin="round" stroke-width=".5" stroke="#333"/><defs><mask id="j"><path d="M27.578 60a7.577 7.577 0 0 0-15.155 0 7.577 7.577 0 0 0 15.155 0z" fill="#fff"/><path d="M27.578 60a7.577 7.577 0 0 0-15.155 0 7.577 7.577 0 0 0 15.155 0z" fill="none" stroke-width=".1" stroke="#fff"/></mask></defs><g mask="url(#j)"><path fill="#0c6793" d="M-500-500H600V600H-500z" style="pointer-events:visiblePainted;cursor:pointer"/></g><path d="M27.578 60a7.577 7.577 0 0 0-15.155 0 7.577 7.577 0 0 0 15.155 0z" fill="none" stroke-linecap="round" stroke-linejoin="round" stroke-width=".5" stroke="#333"/><defs><mask id="k"><path d="M47.578 60a7.577 7.577 0 0 0-15.155 0 7.577 7.577 0 0 0 15.154 0z" fill="#fff"/><path d="M47.578 60a7.577 7.577 0 0 0-15.155 0 7.577 7.577 0 0 0 15.154 0z" fill="none" stroke-width=".1" stroke="#fff"/></mask></defs><g mask="url(#k)"><path fill="#0c6793" d="M-500-500H600V600H-500z" style="pointer-events:visiblePainted;cursor:pointer"/></g><path d="M47.578 60a7.577 7.577 0 0 0-15.155 0 7.577 7.577 0 0 0 15.154 0z" fill="none" stroke-linecap="round" stroke-linejoin="round" stroke-width=".5" stroke="#333"/><defs><mask id="l"><path d="M67.578 60a7.577 7.577 0 0 0-15.155 0 7.577 7.577 0 0 0 15.154 0z" fill="#fff"/><path d="M67.578 60a7.577 7.577 0 0 0-15.155 0 7.577 7.577 0 0 0 15.154 0z" fill="none" stroke-width=".1" stroke="#fff"/></mask></defs><g mask="url(#l)"><path fill="#0c6793" d="M-500-500H600V600H-500z" style="pointer-events:visiblePainted;cursor:pointer"/></g><path d="M67.578 60a7.577 7.577 0 0 0-15.155 0 7.577 7.577 0 0 0 15.154 0z" fill="none" stroke-linecap="round" stroke-linejoin="round" stroke-width=".5" stroke="#333"/><defs><mask id="m"><path d="M87.578 60a7.577 7.577 0 0 0-15.155 0 7.577 7.577 0 0 0 15.154 0z" fill="#fff"/><path d="M87.578 60a7.577 7.577 0 0 0-15.155 0 7.577 7.577 0 0 0 15.154 0z" fill="none" stroke-width=".1" stroke="#fff"/></mask></defs><g mask="url(#m)"><path fill="#0c6793" d="M-500-500H600V600H-500z" style="pointer-events:visiblePainted;cursor:pointer"/></g><path d="M87.578 60a7.577 7.577 0 0 0-15.155 0 7.577 7.577 0 0 0 15.154 0z" fill="none" stroke-linecap="round" stroke-linejoin="round" stroke-width=".5" stroke="#333"/><defs><mask id="n"><path d="M37.578 77.32a7.577 7.577 0 0 0-15.155 0 7.577 7.577 0 0 0 15.155 0z" fill="#fff"/><path d="M37.578 77.32a7.577 7.577 0 0 0-15.155 0 7.577 7.577 0 0 0 15.155 0z" fill="none" stroke-width=".1" stroke="#fff"/></mask></defs><g mask="url(#n)"><path fill="#0c6793" d="M-500-500H600V600H-500z" style="pointer-events:visiblePainted;cursor:pointer"/></g><path d="M37.578 77.32a7.577 7.577 0 0 0-15.155 0 7.577 7.577 0 0 0 15.155 0z" fill="none" stroke-linecap="round" stroke-linejoin="round" stroke-width=".5" stroke="#333"/><defs><mask id="o"><path d="M57.578 77.32a7.577 7.577 0 0 0-15.155 0 7.577 7.577 0 0 0 15.154 0z" fill="#fff"/><path d="M57.578 77.32a7.577 7.577 0 0 0-15.155 0 7.577 7.577 0 0 0 15.154 0z" fill="none" stroke-width=".1" stroke="#fff"/></mask></defs><g mask="url(#o)"><path fill="#0c6793" d="M-500-500H600V600H-500z" style="pointer-events:visiblePainted;cursor:pointer"/></g><path d="M57.578 77.32a7.577 7.577 0 0 0-15.155 0 7.577 7.577 0 0 0 15.154 0z" fill="none" stroke-linecap="round" stroke-linejoin="round" stroke-width=".5" stroke="#333"/><defs><mask id="p"><path d="M77.578 77.32a7.577 7.577 0 0 0-15.155 0 7.577 7.577 0 0 0 15.154 0z" fill="#fff"/><path d="M77.578 77.32a7.577 7.577 0 0 0-15.155 0 7.577 7.577 0 0 0 15.154 0z" fill="none" stroke-width=".1" stroke="#fff"/></mask></defs><g mask="url(#p)"><path fill="#0c6793" d="M-500-500H600V600H-500z" style="pointer-events:visiblePainted;cursor:pointer"/></g><path d="M77.578 77.32a7.577 7.577 0 0 0-15.155 0 7.577 7.577 0 0 0 15.154 0z" fill="none" stroke-linecap="round" stroke-linejoin="round" stroke-width=".5" stroke="#333"/><defs><mask id="q"><path d="M27.578 94.64a7.577 7.577 0 0 0-15.155 0 7.577 7.577 0 0 0 15.155 0z" fill="#fff"/><path d="M27.578 94.64a7.577 7.577 0 0 0-15.155 0 7.577 7.577 0 0 0 15.155 0z" fill="none" stroke-width=".1" stroke="#fff"/></mask></defs><g mask="url(#q)"><path fill="#0c6793" d="M-500-500H600V600H-500z" style="pointer-events:visiblePainted;cursor:pointer"/></g><path d="M27.578 94.64a7.577 7.577 0 0 0-15.155 0 7.577 7.577 0 0 0 15.155 0z" fill="none" stroke-linecap="round" stroke-linejoin="round" stroke-width=".5" stroke="#333"/><defs><mask id="r"><path d="M47.578 94.64a7.577 7.577 0 0 0-15.155 0 7.577 7.577 0 0 0 15.154 0z" fill="#fff"/><path d="M47.578 94.64a7.577 7.577 0 0 0-15.155 0 7.577 7.577 0 0 0 15.154 0z" fill="none" stroke-width=".1" stroke="#fff"/></mask></defs><g mask="url(#r)"><path fill="#0c6793" d="M-500-500H600V600H-500z" style="pointer-events:visiblePainted;cursor:pointer"/></g><path d="M47.578 94.64a7.577 7.577 0 0 0-15.155 0 7.577 7.577 0 0 0 15.154 0z" fill="none" stroke-linecap="round" stroke-linejoin="round" stroke-width=".5" stroke="#333"/><defs><mask id="s"><path d="M67.578 94.64a7.577 7.577 0 0 0-15.155 0 7.577 7.577 0 0 0 15.154 0z" fill="#fff"/><path d="M67.578 94.64a7.577 7.577 0 0 0-15.155 0 7.577 7.577 0 0 0 15.154 0z" fill="none" stroke-width=".1" stroke="#fff"/></mask></defs><g mask="url(#s)"><path fill="#0c6793" d="M-500-500H600V600H-500z" style="pointer-events:visiblePainted;cursor:pointer"/></g><path d="M67.578 94.64a7.577 7.577 0 0 0-15.155 0 7.577 7.577 0 0 0 15.154 0z" fill="none" stroke-linecap="round" stroke-linejoin="round" stroke-width=".5" stroke="#333"/><defs><mask id="t"><path d="M87.578 94.64a7.577 7.577 0 0 0-15.155 0 7.577 7.577 0 0 0 15.154 0z" fill="#fff"/><path d="M87.578 94.64a7.577 7.577 0 0 0-15.155 0 7.577 7.577 0 0 0 15.154 0z" fill="none" stroke-width=".1" stroke="#fff"/></mask></defs><g mask="url(#t)"><path fill="#0c6793" d="M-500-500H600V600H-500z" style="pointer-events:visiblePainted;cursor:pointer"/></g><path d="M87.578 94.64a7.577 7.577 0 0 0-15.155 0 7.577 7.577 0 0 0 15.154 0z" fill="none" stroke-linecap="round" stroke-linejoin="round" stroke-width=".5" stroke="#333"/></g></g><path d="M0 0h100v120H0z" fill="none" stroke-linecap="round" stroke-linejoin="round" stroke-width=".5" stroke="#333"/></g></svg>