<svg preserveAspectRatio="xMidYMin slice" viewBox="0 0 120 200" xmlns="http://www.w3.org/2000/svg"><g transform="translate(10 10)"><defs><mask id="a"><path clip-rule="evenodd" d="M0 0h100v120H0z" fill-rule="evenodd" fill="#fff"/></mask></defs><g mask="url(#a)"><path d="M0 0h100v120H0z" fill-rule="evenodd" fill="#f0f0f0"/><path fill="#f6f6f6" style="cursor:pointer" d="M-1000-1000h2000v2000h-2000z"/><defs><mask id="b"><path clip-rule="evenodd" d="M54.746 39.491h-9.492V20.51h9.492z" fill-rule="evenodd" fill="#fff"/><path d="M54.746 39.491h-9.492V20.51h9.492z" fill="none" stroke-width=".1" stroke="#fff"/></mask></defs><g mask="url(#b)"><path fill="#0c6793" style="cursor:pointer" d="M-1000-1000h2000v2000h-2000z"/></g><path d="M54.746 39.491h-9.492V20.51h9.492z" fill="none" stroke-linecap="round" stroke-linejoin="round" stroke-width=".5" stroke="#333"/><defs><mask id="c"><path clip-rule="evenodd" d="m68.993 50.923-5.917-7.42 14.84-11.836 5.918 7.42z" fill-rule="evenodd" fill="#fff"/><path d="m68.993 50.923-5.917-7.42 14.84-11.836 5.918 7.42z" fill="none" stroke-width=".1" stroke="#fff"/></mask></defs><g mask="url(#c)"><path fill="#0c6793" style="cursor:pointer" d="M-1000-1000h2000v2000h-2000z"/></g><path d="m68.993 50.923-5.917-7.42 14.84-11.836 5.918 7.42z" fill="none" stroke-linecap="round" stroke-linejoin="round" stroke-width=".5" stroke="#333"/><defs><mask id="d"><path clip-rule="evenodd" d="m68.939 69.19 2.112-9.253 18.506 4.224-2.112 9.253z" fill-rule="evenodd" fill="#fff"/><path d="m68.939 69.19 2.112-9.253 18.506 4.224-2.112 9.253z" fill="none" stroke-width=".1" stroke="#fff"/></mask></defs><g mask="url(#d)"><path fill="#0c6793" style="cursor:pointer" d="M-1000-1000h2000v2000h-2000z"/></g><path d="m68.939 69.19 2.112-9.253 18.506 4.224-2.112 9.253z" fill="none" stroke-linecap="round" stroke-linejoin="round" stroke-width=".5" stroke="#333"/><defs><mask id="e"><path clip-rule="evenodd" d="m54.623 80.537 8.551-4.118L71.41 93.52l-8.55 4.12z" fill-rule="evenodd" fill="#fff"/><path d="m54.623 80.537 8.551-4.118L71.41 93.52l-8.55 4.12z" fill="none" stroke-width=".1" stroke="#fff"/></mask></defs><g mask="url(#e)"><path fill="#0c6793" style="cursor:pointer" d="M-1000-1000h2000v2000h-2000z"/></g><path d="m54.623 80.537 8.551-4.118L71.41 93.52l-8.55 4.12z" fill="none" stroke-linecap="round" stroke-linejoin="round" stroke-width=".5" stroke="#333"/><defs><mask id="f"><path clip-rule="evenodd" d="m36.826 76.419 8.551 4.118-8.236 17.102-8.551-4.118z" fill-rule="evenodd" fill="#fff"/><path d="m36.826 76.419 8.551 4.118-8.236 17.102-8.551-4.118z" fill="none" stroke-width=".1" stroke="#fff"/></mask></defs><g mask="url(#f)"><path fill="#0c6793" style="cursor:pointer" d="M-1000-1000h2000v2000h-2000z"/></g><path d="m36.826 76.419 8.551 4.118-8.236 17.102-8.551-4.118z" fill="none" stroke-linecap="round" stroke-linejoin="round" stroke-width=".5" stroke="#333"/><defs><mask id="g"><path clip-rule="evenodd" d="m28.95 59.937 2.111 9.253-18.506 4.224-2.112-9.253z" fill-rule="evenodd" fill="#fff"/><path d="m28.95 59.937 2.111 9.253-18.506 4.224-2.112-9.253z" fill="none" stroke-width=".1" stroke="#fff"/></mask></defs><g mask="url(#g)"><path fill="#0c6793" style="cursor:pointer" d="M-1000-1000h2000v2000h-2000z"/></g><path d="m28.95 59.937 2.111 9.253-18.506 4.224-2.112-9.253z" fill="none" stroke-linecap="round" stroke-linejoin="round" stroke-width=".5" stroke="#333"/><defs><mask id="h"><path clip-rule="evenodd" d="m36.924 43.503-5.917 7.42-14.841-11.835 5.917-7.42z" fill-rule="evenodd" fill="#fff"/><path d="m36.924 43.503-5.917 7.42-14.841-11.835 5.917-7.42z" fill="none" stroke-width=".1" stroke="#fff"/></mask></defs><g mask="url(#h)"><path fill="#0c6793" style="cursor:pointer" d="M-1000-1000h2000v2000h-2000z"/></g><path d="m36.924 43.503-5.917 7.42-14.841-11.835 5.917-7.42z" fill="none" stroke-linecap="round" stroke-linejoin="round" stroke-width=".5" stroke="#333"/></g><path d="M0 0h100v120H0z" fill="none" stroke-linecap="round" stroke-linejoin="round" stroke-width=".5" stroke="#333"/></g></svg>