<?xml version="1.0" encoding="UTF-8" standalone="no"?>
<svg xmlns="http://www.w3.org/2000/svg" preserveAspectRatio="xMidYMin slice" viewBox="-10 -10 120 140"><defs><mask id="a"><path fill="#fff" fill-rule="evenodd" d="M0 0h100v120H0z" clip-rule="evenodd"/></mask></defs><g mask="url(#a)"><path fill="#f0f0f0" fill-rule="evenodd" d="M0 0h100v120H0z"/><path fill="#f6f6f6" d="M-1000-1000h2000v2000h-2000z"/><defs><mask id="b"><path fill="#fff" fill-rule="evenodd" d="M47.626 37.019c0-5.523-4.478-10-10-10-5.523 0-10 4.477-10 10s4.477 10 10 10c5.522 0 10-4.477 10-10z" clip-rule="evenodd"/></mask></defs><g mask="url(#b)"><path fill="#0c6793" d="M-1000-1000h2000v2000h-2000z"/></g><path fill="none" stroke="#333" stroke-linecap="round" stroke-linejoin="round" stroke-width=".5" d="M47.626 37.019c0-5.523-4.478-10-10-10-5.523 0-10 4.477-10 10s4.477 10 10 10c5.522 0 10-4.477 10-10z"/><defs><mask id="c"><path fill="#fff" fill-rule="evenodd" d="M82.981 72.374c0-5.522-4.477-10-10-10s-10 4.478-10 10c0 5.523 4.477 10 10 10s10-4.477 10-10z" clip-rule="evenodd"/></mask></defs><g mask="url(#c)"><path fill="#0c6793" d="M-1000-1000h2000v2000h-2000z"/></g><path fill="none" stroke="#333" stroke-linecap="round" stroke-linejoin="round" stroke-width=".5" d="M82.981 72.374c0-5.522-4.477-10-10-10s-10 4.478-10 10c0 5.523 4.477 10 10 10s10-4.477 10-10z"/><defs><mask id="d"><path fill="#fff" fill-rule="evenodd" d="M54.697 65.303c0-5.523-4.477-10-10-10s-10 4.477-10 10 4.477 10 10 10 10-4.477 10-10z" clip-rule="evenodd"/></mask></defs><g mask="url(#d)"><path fill="#0c6793" d="M-1000-1000h2000v2000h-2000z"/></g><path fill="none" stroke="#333" stroke-linecap="round" stroke-linejoin="round" stroke-width=".5" d="M54.697 65.303c0-5.523-4.477-10-10-10s-10 4.477-10 10 4.477 10 10 10 10-4.477 10-10z"/></g><path fill="none" stroke="#333" stroke-linecap="round" stroke-linejoin="round" stroke-width=".5" d="M0 0h100v120H0z"/></svg>