<svg preserveAspectRatio="xMidYMin slice" viewBox="0 0 120 200" xmlns="http://www.w3.org/2000/svg"><g transform="translate(10 10)"><defs><mask id="a"><path clip-rule="evenodd" d="M0 0h100v120H0z" fill-rule="evenodd" fill="#fff"/></mask></defs><g mask="url(#a)"><path d="M0 0h100v120H0z" fill-rule="evenodd" fill="#f0f0f0"/><path fill="#f6f6f6" style="cursor:pointer" d="M-1000-1000h2000v2000h-2000z"/><defs><mask id="b"><path clip-rule="evenodd" d="M23.438 26a7.437 7.437 0 0 0-14.875 0 7.437 7.437 0 0 0 14.874 0z" fill-rule="evenodd" fill="#fff"/><path d="M23.438 26a7.437 7.437 0 0 0-14.875 0 7.437 7.437 0 0 0 14.874 0z" fill="none" stroke-width=".1" stroke="#fff"/></mask></defs><g mask="url(#b)"><path fill="#0c6793" style="cursor:pointer" d="M-1000-1000h2000v2000h-2000z"/></g><path d="M23.438 26a7.437 7.437 0 0 0-14.875 0 7.437 7.437 0 0 0 14.874 0z" fill="none" stroke-linecap="round" stroke-linejoin="round" stroke-width=".5" stroke="#333"/><defs><mask id="c"><path clip-rule="evenodd" d="M40.438 26a7.437 7.437 0 0 0-14.876 0 7.437 7.437 0 0 0 14.875 0z" fill-rule="evenodd" fill="#fff"/><path d="M40.438 26a7.437 7.437 0 0 0-14.876 0 7.437 7.437 0 0 0 14.875 0z" fill="none" stroke-width=".1" stroke="#fff"/></mask></defs><g mask="url(#c)"><path fill="#0c6793" style="cursor:pointer" d="M-1000-1000h2000v2000h-2000z"/></g><path d="M40.438 26a7.437 7.437 0 0 0-14.876 0 7.437 7.437 0 0 0 14.875 0z" fill="none" stroke-linecap="round" stroke-linejoin="round" stroke-width=".5" stroke="#333"/><defs><mask id="d"><path clip-rule="evenodd" d="M57.438 26a7.437 7.437 0 0 0-14.876 0 7.437 7.437 0 0 0 14.876 0z" fill-rule="evenodd" fill="#fff"/><path d="M57.438 26a7.437 7.437 0 0 0-14.876 0 7.437 7.437 0 0 0 14.876 0z" fill="none" stroke-width=".1" stroke="#fff"/></mask></defs><g mask="url(#d)"><path fill="#0c6793" style="cursor:pointer" d="M-1000-1000h2000v2000h-2000z"/></g><path d="M57.438 26a7.437 7.437 0 0 0-14.876 0 7.437 7.437 0 0 0 14.876 0z" fill="none" stroke-linecap="round" stroke-linejoin="round" stroke-width=".5" stroke="#333"/><defs><mask id="e"><path clip-rule="evenodd" d="M74.438 26a7.437 7.437 0 0 0-14.876 0 7.437 7.437 0 0 0 14.876 0z" fill-rule="evenodd" fill="#fff"/><path d="M74.438 26a7.437 7.437 0 0 0-14.876 0 7.437 7.437 0 0 0 14.876 0z" fill="none" stroke-width=".1" stroke="#fff"/></mask></defs><g mask="url(#e)"><path fill="#0c6793" style="cursor:pointer" d="M-1000-1000h2000v2000h-2000z"/></g><path d="M74.438 26a7.437 7.437 0 0 0-14.876 0 7.437 7.437 0 0 0 14.876 0z" fill="none" stroke-linecap="round" stroke-linejoin="round" stroke-width=".5" stroke="#333"/><defs><mask id="f"><path clip-rule="evenodd" d="M91.438 26a7.437 7.437 0 0 0-14.876 0 7.437 7.437 0 0 0 14.876 0z" fill-rule="evenodd" fill="#fff"/><path d="M91.438 26a7.437 7.437 0 0 0-14.876 0 7.437 7.437 0 0 0 14.876 0z" fill="none" stroke-width=".1" stroke="#fff"/></mask></defs><g mask="url(#f)"><path fill="#0c6793" style="cursor:pointer" d="M-1000-1000h2000v2000h-2000z"/></g><path d="M91.438 26a7.437 7.437 0 0 0-14.876 0 7.437 7.437 0 0 0 14.876 0z" fill="none" stroke-linecap="round" stroke-linejoin="round" stroke-width=".5" stroke="#333"/><defs><mask id="g"><path clip-rule="evenodd" d="M23.438 43a7.437 7.437 0 0 0-14.875 0 7.437 7.437 0 0 0 14.874 0z" fill-rule="evenodd" fill="#fff"/><path d="M23.438 43a7.437 7.437 0 0 0-14.875 0 7.437 7.437 0 0 0 14.874 0z" fill="none" stroke-width=".1" stroke="#fff"/></mask></defs><g mask="url(#g)"><path fill="#0c6793" style="cursor:pointer" d="M-1000-1000h2000v2000h-2000z"/></g><path d="M23.438 43a7.437 7.437 0 0 0-14.875 0 7.437 7.437 0 0 0 14.874 0z" fill="none" stroke-linecap="round" stroke-linejoin="round" stroke-width=".5" stroke="#333"/><defs><mask id="h"><path clip-rule="evenodd" d="M91.438 43a7.437 7.437 0 0 0-14.876 0 7.437 7.437 0 0 0 14.876 0z" fill-rule="evenodd" fill="#fff"/><path d="M91.438 43a7.437 7.437 0 0 0-14.876 0 7.437 7.437 0 0 0 14.876 0z" fill="none" stroke-width=".1" stroke="#fff"/></mask></defs><g mask="url(#h)"><path fill="#0c6793" style="cursor:pointer" d="M-1000-1000h2000v2000h-2000z"/></g><path d="M91.438 43a7.437 7.437 0 0 0-14.876 0 7.437 7.437 0 0 0 14.876 0z" fill="none" stroke-linecap="round" stroke-linejoin="round" stroke-width=".5" stroke="#333"/><defs><mask id="i"><path clip-rule="evenodd" d="M23.438 60a7.437 7.437 0 0 0-14.875 0 7.437 7.437 0 0 0 14.874 0z" fill-rule="evenodd" fill="#fff"/><path d="M23.438 60a7.437 7.437 0 0 0-14.875 0 7.437 7.437 0 0 0 14.874 0z" fill="none" stroke-width=".1" stroke="#fff"/></mask></defs><g mask="url(#i)"><path fill="#0c6793" style="cursor:pointer" d="M-1000-1000h2000v2000h-2000z"/></g><path d="M23.438 60a7.437 7.437 0 0 0-14.875 0 7.437 7.437 0 0 0 14.874 0z" fill="none" stroke-linecap="round" stroke-linejoin="round" stroke-width=".5" stroke="#333"/><defs><mask id="j"><path clip-rule="evenodd" d="M91.438 60a7.437 7.437 0 0 0-14.876 0 7.437 7.437 0 0 0 14.876 0z" fill-rule="evenodd" fill="#fff"/><path d="M91.438 60a7.437 7.437 0 0 0-14.876 0 7.437 7.437 0 0 0 14.876 0z" fill="none" stroke-width=".1" stroke="#fff"/></mask></defs><g mask="url(#j)"><path fill="#0c6793" style="cursor:pointer" d="M-1000-1000h2000v2000h-2000z"/></g><path d="M91.438 60a7.437 7.437 0 0 0-14.876 0 7.437 7.437 0 0 0 14.876 0z" fill="none" stroke-linecap="round" stroke-linejoin="round" stroke-width=".5" stroke="#333"/><defs><mask id="k"><path clip-rule="evenodd" d="M23.438 77a7.437 7.437 0 0 0-14.875 0 7.437 7.437 0 0 0 14.874 0z" fill-rule="evenodd" fill="#fff"/><path d="M23.438 77a7.437 7.437 0 0 0-14.875 0 7.437 7.437 0 0 0 14.874 0z" fill="none" stroke-width=".1" stroke="#fff"/></mask></defs><g mask="url(#k)"><path fill="#0c6793" style="cursor:pointer" d="M-1000-1000h2000v2000h-2000z"/></g><path d="M23.438 77a7.437 7.437 0 0 0-14.875 0 7.437 7.437 0 0 0 14.874 0z" fill="none" stroke-linecap="round" stroke-linejoin="round" stroke-width=".5" stroke="#333"/><defs><mask id="l"><path clip-rule="evenodd" d="M91.438 77a7.437 7.437 0 0 0-14.876 0 7.437 7.437 0 0 0 14.876 0z" fill-rule="evenodd" fill="#fff"/><path d="M91.438 77a7.437 7.437 0 0 0-14.876 0 7.437 7.437 0 0 0 14.876 0z" fill="none" stroke-width=".1" stroke="#fff"/></mask></defs><g mask="url(#l)"><path fill="#0c6793" style="cursor:pointer" d="M-1000-1000h2000v2000h-2000z"/></g><path d="M91.438 77a7.437 7.437 0 0 0-14.876 0 7.437 7.437 0 0 0 14.876 0z" fill="none" stroke-linecap="round" stroke-linejoin="round" stroke-width=".5" stroke="#333"/><defs><mask id="m"><path clip-rule="evenodd" d="M23.438 94a7.437 7.437 0 0 0-14.875 0 7.437 7.437 0 0 0 14.874 0z" fill-rule="evenodd" fill="#fff"/><path d="M23.438 94a7.437 7.437 0 0 0-14.875 0 7.437 7.437 0 0 0 14.874 0z" fill="none" stroke-width=".1" stroke="#fff"/></mask></defs><g mask="url(#m)"><path fill="#0c6793" style="cursor:pointer" d="M-1000-1000h2000v2000h-2000z"/></g><path d="M23.438 94a7.437 7.437 0 0 0-14.875 0 7.437 7.437 0 0 0 14.874 0z" fill="none" stroke-linecap="round" stroke-linejoin="round" stroke-width=".5" stroke="#333"/><defs><mask id="n"><path clip-rule="evenodd" d="M40.438 94a7.437 7.437 0 0 0-14.876 0 7.437 7.437 0 0 0 14.875 0z" fill-rule="evenodd" fill="#fff"/><path d="M40.438 94a7.437 7.437 0 0 0-14.876 0 7.437 7.437 0 0 0 14.875 0z" fill="none" stroke-width=".1" stroke="#fff"/></mask></defs><g mask="url(#n)"><path fill="#0c6793" style="cursor:pointer" d="M-1000-1000h2000v2000h-2000z"/></g><path d="M40.438 94a7.437 7.437 0 0 0-14.876 0 7.437 7.437 0 0 0 14.875 0z" fill="none" stroke-linecap="round" stroke-linejoin="round" stroke-width=".5" stroke="#333"/><defs><mask id="o"><path clip-rule="evenodd" d="M57.438 94a7.437 7.437 0 0 0-14.876 0 7.437 7.437 0 0 0 14.876 0z" fill-rule="evenodd" fill="#fff"/><path d="M57.438 94a7.437 7.437 0 0 0-14.876 0 7.437 7.437 0 0 0 14.876 0z" fill="none" stroke-width=".1" stroke="#fff"/></mask></defs><g mask="url(#o)"><path fill="#0c6793" style="cursor:pointer" d="M-1000-1000h2000v2000h-2000z"/></g><path d="M57.438 94a7.437 7.437 0 0 0-14.876 0 7.437 7.437 0 0 0 14.876 0z" fill="none" stroke-linecap="round" stroke-linejoin="round" stroke-width=".5" stroke="#333"/><defs><mask id="p"><path clip-rule="evenodd" d="M74.438 94a7.437 7.437 0 0 0-14.876 0 7.437 7.437 0 0 0 14.876 0z" fill-rule="evenodd" fill="#fff"/><path d="M74.438 94a7.437 7.437 0 0 0-14.876 0 7.437 7.437 0 0 0 14.876 0z" fill="none" stroke-width=".1" stroke="#fff"/></mask></defs><g mask="url(#p)"><path fill="#0c6793" style="cursor:pointer" d="M-1000-1000h2000v2000h-2000z"/></g><path d="M74.438 94a7.437 7.437 0 0 0-14.876 0 7.437 7.437 0 0 0 14.876 0z" fill="none" stroke-linecap="round" stroke-linejoin="round" stroke-width=".5" stroke="#333"/><defs><mask id="q"><path clip-rule="evenodd" d="M91.438 94a7.437 7.437 0 0 0-14.876 0 7.437 7.437 0 0 0 14.876 0z" fill-rule="evenodd" fill="#fff"/><path d="M91.438 94a7.437 7.437 0 0 0-14.876 0 7.437 7.437 0 0 0 14.876 0z" fill="none" stroke-width=".1" stroke="#fff"/></mask></defs><g mask="url(#q)"><path fill="#0c6793" style="cursor:pointer" d="M-1000-1000h2000v2000h-2000z"/></g><path d="M91.438 94a7.437 7.437 0 0 0-14.876 0 7.437 7.437 0 0 0 14.876 0z" fill="none" stroke-linecap="round" stroke-linejoin="round" stroke-width=".5" stroke="#333"/></g><path d="M0 0h100v120H0z" fill="none" stroke-linecap="round" stroke-linejoin="round" stroke-width=".5" stroke="#333"/></g></svg>