<svg preserveAspectRatio="xMidYMin slice" viewBox="0 0 120 200" xmlns="http://www.w3.org/2000/svg"><g transform="translate(10 10)"><defs><mask id="a"><path clip-rule="evenodd" d="M0 0h100v120H0z" fill-rule="evenodd" fill="#fff"/></mask></defs><g mask="url(#a)"><path d="M0 0h100v120H0z" fill-rule="evenodd" fill="#f0f0f0"/><path fill="#f6f6f6" style="cursor:pointer" d="M-1000-1000h2000v2000h-2000z"/><defs><mask id="b"><path clip-rule="evenodd" d="M60.938 24.645c0-6.041-4.897-10.938-10.938-10.938-6.04 0-10.938 4.897-10.938 10.938 0 6.04 4.897 10.937 10.938 10.937 6.04 0 10.938-4.897 10.938-10.937z" fill-rule="evenodd" fill="#fff"/><path d="M60.938 24.645c0-6.041-4.897-10.938-10.938-10.938-6.04 0-10.938 4.897-10.938 10.938 0 6.04 4.897 10.937 10.938 10.937 6.04 0 10.938-4.897 10.938-10.937z" fill="none" stroke-width=".1" stroke="#fff"/></mask></defs><g mask="url(#b)"><path fill="#0c6793" style="cursor:pointer" d="M-1000-1000h2000v2000h-2000z"/></g><path d="M60.938 24.645c0-6.041-4.897-10.938-10.938-10.938-6.04 0-10.938 4.897-10.938 10.938 0 6.04 4.897 10.937 10.938 10.937 6.04 0 10.938-4.897 10.938-10.937z" fill="none" stroke-linecap="round" stroke-linejoin="round" stroke-width=".5" stroke="#333"/><defs><mask id="c"><path clip-rule="evenodd" d="M78.615 42.322c0-6.04-4.897-10.937-10.937-10.937-6.04 0-10.938 4.897-10.938 10.937 0 6.04 4.897 10.938 10.938 10.938 6.04 0 10.937-4.897 10.937-10.938z" fill-rule="evenodd" fill="#fff"/><path d="M78.615 42.322c0-6.04-4.897-10.937-10.937-10.937-6.04 0-10.938 4.897-10.938 10.937 0 6.04 4.897 10.938 10.938 10.938 6.04 0 10.937-4.897 10.937-10.938z" fill="none" stroke-width=".1" stroke="#fff"/></mask></defs><g mask="url(#c)"><path fill="#0c6793" style="cursor:pointer" d="M-1000-1000h2000v2000h-2000z"/></g><path d="M78.615 42.322c0-6.04-4.897-10.937-10.937-10.937-6.04 0-10.938 4.897-10.938 10.937 0 6.04 4.897 10.938 10.938 10.938 6.04 0 10.937-4.897 10.937-10.938z" fill="none" stroke-linecap="round" stroke-linejoin="round" stroke-width=".5" stroke="#333"/><defs><mask id="d"><path clip-rule="evenodd" d="M96.293 60c0-6.04-4.897-10.938-10.938-10.938-6.04 0-10.937 4.897-10.937 10.938 0 6.04 4.897 10.938 10.937 10.938 6.04 0 10.938-4.897 10.938-10.938z" fill-rule="evenodd" fill="#fff"/><path d="M96.293 60c0-6.04-4.897-10.938-10.938-10.938-6.04 0-10.937 4.897-10.937 10.938 0 6.04 4.897 10.938 10.937 10.938 6.04 0 10.938-4.897 10.938-10.938z" fill="none" stroke-width=".1" stroke="#fff"/></mask></defs><g mask="url(#d)"><path fill="#0c6793" style="cursor:pointer" d="M-1000-1000h2000v2000h-2000z"/></g><path d="M96.293 60c0-6.04-4.897-10.938-10.938-10.938-6.04 0-10.937 4.897-10.937 10.938 0 6.04 4.897 10.938 10.937 10.938 6.04 0 10.938-4.897 10.938-10.938z" fill="none" stroke-linecap="round" stroke-linejoin="round" stroke-width=".5" stroke="#333"/><defs><mask id="e"><path clip-rule="evenodd" d="M43.26 42.322c0-6.04-4.897-10.937-10.938-10.937-6.04 0-10.937 4.897-10.937 10.937 0 6.04 4.897 10.938 10.937 10.938 6.04 0 10.938-4.897 10.938-10.938z" fill-rule="evenodd" fill="#fff"/><path d="M43.26 42.322c0-6.04-4.897-10.937-10.938-10.937-6.04 0-10.937 4.897-10.937 10.937 0 6.04 4.897 10.938 10.937 10.938 6.04 0 10.938-4.897 10.938-10.938z" fill="none" stroke-width=".1" stroke="#fff"/></mask></defs><g mask="url(#e)"><path fill="#0c6793" style="cursor:pointer" d="M-1000-1000h2000v2000h-2000z"/></g><path d="M43.26 42.322c0-6.04-4.897-10.937-10.938-10.937-6.04 0-10.937 4.897-10.937 10.937 0 6.04 4.897 10.938 10.937 10.938 6.04 0 10.938-4.897 10.938-10.938z" fill="none" stroke-linecap="round" stroke-linejoin="round" stroke-width=".5" stroke="#333"/><defs><mask id="f"><path clip-rule="evenodd" d="M60.938 60c0-6.04-4.897-10.938-10.938-10.938-6.04 0-10.938 4.897-10.938 10.938 0 6.04 4.897 10.938 10.938 10.938 6.04 0 10.938-4.897 10.938-10.938z" fill-rule="evenodd" fill="#fff"/><path d="M60.938 60c0-6.04-4.897-10.938-10.938-10.938-6.04 0-10.938 4.897-10.938 10.938 0 6.04 4.897 10.938 10.938 10.938 6.04 0 10.938-4.897 10.938-10.938z" fill="none" stroke-width=".1" stroke="#fff"/></mask></defs><g mask="url(#f)"><path fill="#0c6793" style="cursor:pointer" d="M-1000-1000h2000v2000h-2000z"/></g><path d="M60.938 60c0-6.04-4.897-10.938-10.938-10.938-6.04 0-10.938 4.897-10.938 10.938 0 6.04 4.897 10.938 10.938 10.938 6.04 0 10.938-4.897 10.938-10.938z" fill="none" stroke-linecap="round" stroke-linejoin="round" stroke-width=".5" stroke="#333"/><defs><mask id="g"><path clip-rule="evenodd" d="M78.615 77.678c0-6.04-4.897-10.938-10.937-10.938-6.04 0-10.938 4.897-10.938 10.938 0 6.04 4.897 10.937 10.938 10.937 6.04 0 10.937-4.897 10.937-10.937z" fill-rule="evenodd" fill="#fff"/><path d="M78.615 77.678c0-6.04-4.897-10.938-10.937-10.938-6.04 0-10.938 4.897-10.938 10.938 0 6.04 4.897 10.937 10.938 10.937 6.04 0 10.937-4.897 10.937-10.937z" fill="none" stroke-width=".1" stroke="#fff"/></mask></defs><g mask="url(#g)"><path fill="#0c6793" style="cursor:pointer" d="M-1000-1000h2000v2000h-2000z"/></g><path d="M78.615 77.678c0-6.04-4.897-10.938-10.937-10.938-6.04 0-10.938 4.897-10.938 10.938 0 6.04 4.897 10.937 10.938 10.937 6.04 0 10.937-4.897 10.937-10.937z" fill="none" stroke-linecap="round" stroke-linejoin="round" stroke-width=".5" stroke="#333"/><defs><mask id="h"><path clip-rule="evenodd" d="M25.582 60c0-6.04-4.897-10.938-10.937-10.938C8.604 49.063 3.707 53.96 3.707 60c0 6.04 4.897 10.938 10.938 10.938 6.04 0 10.937-4.897 10.937-10.938z" fill-rule="evenodd" fill="#fff"/><path d="M25.582 60c0-6.04-4.897-10.938-10.937-10.938C8.604 49.063 3.707 53.96 3.707 60c0 6.04 4.897 10.938 10.938 10.938 6.04 0 10.937-4.897 10.937-10.938z" fill="none" stroke-width=".1" stroke="#fff"/></mask></defs><g mask="url(#h)"><path fill="#0c6793" style="cursor:pointer" d="M-1000-1000h2000v2000h-2000z"/></g><path d="M25.582 60c0-6.04-4.897-10.938-10.937-10.938C8.604 49.063 3.707 53.96 3.707 60c0 6.04 4.897 10.938 10.938 10.938 6.04 0 10.937-4.897 10.937-10.938z" fill="none" stroke-linecap="round" stroke-linejoin="round" stroke-width=".5" stroke="#333"/><defs><mask id="i"><path clip-rule="evenodd" d="M43.26 77.678c0-6.04-4.897-10.938-10.938-10.938-6.04 0-10.937 4.897-10.937 10.938 0 6.04 4.897 10.937 10.937 10.937 6.04 0 10.938-4.897 10.938-10.937z" fill-rule="evenodd" fill="#fff"/><path d="M43.26 77.678c0-6.04-4.897-10.938-10.938-10.938-6.04 0-10.937 4.897-10.937 10.938 0 6.04 4.897 10.937 10.937 10.937 6.04 0 10.938-4.897 10.938-10.937z" fill="none" stroke-width=".1" stroke="#fff"/></mask></defs><g mask="url(#i)"><path fill="#0c6793" style="cursor:pointer" d="M-1000-1000h2000v2000h-2000z"/></g><path d="M43.26 77.678c0-6.04-4.897-10.938-10.938-10.938-6.04 0-10.937 4.897-10.937 10.938 0 6.04 4.897 10.937 10.937 10.937 6.04 0 10.938-4.897 10.938-10.937z" fill="none" stroke-linecap="round" stroke-linejoin="round" stroke-width=".5" stroke="#333"/><defs><mask id="j"><path clip-rule="evenodd" d="M60.938 95.355c0-6.04-4.897-10.937-10.938-10.937-6.04 0-10.938 4.897-10.938 10.937 0 6.04 4.897 10.938 10.938 10.938 6.04 0 10.938-4.897 10.938-10.938z" fill-rule="evenodd" fill="#fff"/><path d="M60.938 95.355c0-6.04-4.897-10.937-10.938-10.937-6.04 0-10.938 4.897-10.938 10.937 0 6.04 4.897 10.938 10.938 10.938 6.04 0 10.938-4.897 10.938-10.938z" fill="none" stroke-width=".1" stroke="#fff"/></mask></defs><g mask="url(#j)"><path fill="#0c6793" style="cursor:pointer" d="M-1000-1000h2000v2000h-2000z"/></g><path d="M60.938 95.355c0-6.04-4.897-10.937-10.938-10.937-6.04 0-10.938 4.897-10.938 10.937 0 6.04 4.897 10.938 10.938 10.938 6.04 0 10.938-4.897 10.938-10.938z" fill="none" stroke-linecap="round" stroke-linejoin="round" stroke-width=".5" stroke="#333"/></g><path d="M0 0h100v120H0z" fill="none" stroke-linecap="round" stroke-linejoin="round" stroke-width=".5" stroke="#333"/></g></svg>