<?xml version="1.0" encoding="UTF-8" standalone="no"?>
<svg xmlns="http://www.w3.org/2000/svg" preserveAspectRatio="xMidYMin slice" viewBox="-10 -10 120 140"><defs><mask id="a"><path fill="#fff" fill-rule="evenodd" d="M0 0h100v120H0z" clip-rule="evenodd"/></mask></defs><g mask="url(#a)"><path fill="#f0f0f0" fill-rule="evenodd" d="M0 0h100v120H0z"/><path fill="#f6f6f6" d="M-1000-1000h2000v2000h-2000z"/><defs><mask id="b"><path fill="#fff" fill-rule="evenodd" d="m50 15 34.615 45L50 105 15.385 60zm17.308 45c0-9.559-7.75-17.308-17.308-17.308S32.692 50.442 32.692 60 40.442 77.308 50 77.308 67.308 69.558 67.308 60" clip-rule="evenodd"/></mask></defs><g mask="url(#b)"><path fill="#f2bc51" d="M-1000-1000h2000v2000h-2000z"/></g><g fill="none" stroke="#333" stroke-linecap="round" stroke-linejoin="round" stroke-width=".5"><path d="m50 15 34.615 45L50 105 15.385 60z"/><path d="M67.308 60c0-9.559-7.75-17.308-17.308-17.308S32.692 50.442 32.692 60 40.442 77.308 50 77.308 67.308 69.558 67.308 60"/></g></g><path fill="none" stroke="#333" stroke-linecap="round" stroke-linejoin="round" stroke-width=".5" d="M0 0h100v120H0z"/></svg>