<svg preserveAspectRatio="xMidYMin slice" viewBox="0 0 120 200" xmlns="http://www.w3.org/2000/svg"><g transform="translate(10 10)"><defs><mask id="a"><path clip-rule="evenodd" d="M0 0h100v120H0z" fill-rule="evenodd" fill="#fff"/></mask></defs><g mask="url(#a)"><path d="M0 0h100v120H0z" fill-rule="evenodd" fill="#f0f0f0"/><path fill="#f6f6f6" style="cursor:pointer" d="M-1000-1000h2000v2000h-2000z"/><defs><mask id="b"><path clip-rule="evenodd" d="m25.251 42.322 7.071-7.07L74.75 77.677l-7.071 7.07z" fill-rule="evenodd" fill="#fff"/><path d="m25.251 42.322 7.071-7.07L74.75 77.677l-7.071 7.07z" fill="none" stroke-width=".1" stroke="#fff"/></mask></defs><g mask="url(#b)"><path fill="#0c6793" style="cursor:pointer" d="M-1000-1000h2000v2000h-2000z"/></g><path d="m25.251 42.322 7.071-7.07L74.75 77.677l-7.071 7.07z" fill="none" stroke-linecap="round" stroke-linejoin="round" stroke-width=".5" stroke="#333"/><defs><mask id="c"><path clip-rule="evenodd" d="M45 30h10v60H45z" fill-rule="evenodd" fill="#fff"/><path d="M45 30h10v60H45z" fill="none" stroke-width=".1" stroke="#fff"/></mask></defs><g mask="url(#c)"><path fill="#0c6793" style="cursor:pointer" d="M-1000-1000h2000v2000h-2000z"/></g><path d="M45 30h10v60H45z" fill="none" stroke-linecap="round" stroke-linejoin="round" stroke-width=".5" stroke="#333"/><defs><mask id="d"><path clip-rule="evenodd" d="m67.678 35.251 7.07 7.071L32.323 84.75l-7.07-7.071z" fill-rule="evenodd" fill="#fff"/><path d="m67.678 35.251 7.07 7.071L32.323 84.75l-7.07-7.071z" fill="none" stroke-width=".1" stroke="#fff"/></mask></defs><g mask="url(#d)"><path fill="#0c6793" style="cursor:pointer" d="M-1000-1000h2000v2000h-2000z"/></g><path d="m67.678 35.251 7.07 7.071L32.323 84.75l-7.07-7.071z" fill="none" stroke-linecap="round" stroke-linejoin="round" stroke-width=".5" stroke="#333"/></g><path d="M0 0h100v120H0z" fill="none" stroke-linecap="round" stroke-linejoin="round" stroke-width=".5" stroke="#333"/></g></svg>