<?xml version="1.0" encoding="UTF-8" standalone="no"?>
<svg xmlns="http://www.w3.org/2000/svg" preserveAspectRatio="xMidYMin slice" viewBox="-10 -10 120 140"><defs><mask id="a"><path fill="#fff" fill-rule="evenodd" d="M0 0h100v120H0z" clip-rule="evenodd"/></mask></defs><g mask="url(#a)"><path fill="#f0f0f0" fill-rule="evenodd" d="M0 0h100v120H0z"/><path fill="#f6f6f6" d="M-1000-1000h2000v2000h-2000z"/><defs><mask id="b"><path fill="#fff" fill-rule="evenodd" d="M87.034 31.716a8.75 8.75 0 1 0-17.5 0 8.75 8.75 0 0 0 17.5 0" clip-rule="evenodd"/></mask></defs><g mask="url(#b)"><path fill="#0c6793" d="M-1000-1000h2000v2000h-2000z"/></g><path fill="none" stroke="#333" stroke-linecap="round" stroke-linejoin="round" stroke-width=".5" d="M87.034 31.716a8.75 8.75 0 1 0-17.5 0 8.75 8.75 0 0 0 17.5 0"/><defs><mask id="c"><path fill="#fff" fill-rule="evenodd" d="M72.892 45.858a8.75 8.75 0 1 0-17.5 0 8.75 8.75 0 0 0 17.5 0" clip-rule="evenodd"/></mask></defs><g mask="url(#c)"><path fill="#0c6793" d="M-1000-1000h2000v2000h-2000z"/></g><path fill="none" stroke="#333" stroke-linecap="round" stroke-linejoin="round" stroke-width=".5" d="M72.892 45.858a8.75 8.75 0 1 0-17.5 0 8.75 8.75 0 0 0 17.5 0"/><defs><mask id="d"><path fill="#fff" fill-rule="evenodd" d="M30.466 31.716a8.75 8.75 0 1 0-17.5 0 8.75 8.75 0 0 0 17.5 0" clip-rule="evenodd"/></mask></defs><g mask="url(#d)"><path fill="#0c6793" d="M-1000-1000h2000v2000h-2000z"/></g><path fill="none" stroke="#333" stroke-linecap="round" stroke-linejoin="round" stroke-width=".5" d="M30.466 31.716a8.75 8.75 0 1 0-17.5 0 8.75 8.75 0 0 0 17.5 0"/><defs><mask id="e"><path fill="#fff" fill-rule="evenodd" d="M44.608 45.858a8.75 8.75 0 1 0-17.5 0 8.75 8.75 0 0 0 17.5 0" clip-rule="evenodd"/></mask></defs><g mask="url(#e)"><path fill="#0c6793" d="M-1000-1000h2000v2000h-2000z"/></g><path fill="none" stroke="#333" stroke-linecap="round" stroke-linejoin="round" stroke-width=".5" d="M44.608 45.858a8.75 8.75 0 1 0-17.5 0 8.75 8.75 0 0 0 17.5 0"/><defs><mask id="f"><path fill="#fff" fill-rule="evenodd" d="M58.75 60a8.75 8.75 0 1 0-17.5 0 8.75 8.75 0 0 0 17.5 0" clip-rule="evenodd"/></mask></defs><g mask="url(#f)"><path fill="#0c6793" d="M-1000-1000h2000v2000h-2000z"/></g><path fill="none" stroke="#333" stroke-linecap="round" stroke-linejoin="round" stroke-width=".5" d="M58.75 60a8.75 8.75 0 1 0-17.5 0 8.75 8.75 0 0 0 17.5 0"/><defs><mask id="g"><path fill="#fff" fill-rule="evenodd" d="M72.892 74.142a8.75 8.75 0 1 0-17.5 0 8.75 8.75 0 0 0 17.5 0" clip-rule="evenodd"/></mask></defs><g mask="url(#g)"><path fill="#0c6793" d="M-1000-1000h2000v2000h-2000z"/></g><path fill="none" stroke="#333" stroke-linecap="round" stroke-linejoin="round" stroke-width=".5" d="M72.892 74.142a8.75 8.75 0 1 0-17.5 0 8.75 8.75 0 0 0 17.5 0"/><defs><mask id="h"><path fill="#fff" fill-rule="evenodd" d="M87.034 88.284a8.75 8.75 0 1 0-17.5 0 8.75 8.75 0 0 0 17.5 0" clip-rule="evenodd"/></mask></defs><g mask="url(#h)"><path fill="#0c6793" d="M-1000-1000h2000v2000h-2000z"/></g><path fill="none" stroke="#333" stroke-linecap="round" stroke-linejoin="round" stroke-width=".5" d="M87.034 88.284a8.75 8.75 0 1 0-17.5 0 8.75 8.75 0 0 0 17.5 0"/><defs><mask id="i"><path fill="#fff" fill-rule="evenodd" d="M44.608 74.142a8.75 8.75 0 1 0-17.5 0 8.75 8.75 0 0 0 17.5 0" clip-rule="evenodd"/></mask></defs><g mask="url(#i)"><path fill="#0c6793" d="M-1000-1000h2000v2000h-2000z"/></g><path fill="none" stroke="#333" stroke-linecap="round" stroke-linejoin="round" stroke-width=".5" d="M44.608 74.142a8.75 8.75 0 1 0-17.5 0 8.75 8.75 0 0 0 17.5 0"/><defs><mask id="j"><path fill="#fff" fill-rule="evenodd" d="M30.466 88.284a8.75 8.75 0 1 0-17.5 0 8.75 8.75 0 0 0 17.5 0" clip-rule="evenodd"/></mask></defs><g mask="url(#j)"><path fill="#0c6793" d="M-1000-1000h2000v2000h-2000z"/></g><path fill="none" stroke="#333" stroke-linecap="round" stroke-linejoin="round" stroke-width=".5" d="M30.466 88.284a8.75 8.75 0 1 0-17.5 0 8.75 8.75 0 0 0 17.5 0"/></g><path fill="none" stroke="#333" stroke-linecap="round" stroke-linejoin="round" stroke-width=".5" d="M0 0h100v120H0z"/></svg>