<svg preserveAspectRatio="xMidYMin slice" viewBox="0 0 120 200" xmlns="http://www.w3.org/2000/svg"><g filter="url(#a)" transform="translate(10 10)"><defs><filter height="200%" id="a" width="200%" x="-20%" y="-20%"><feOffset dx=".2" dy=".2" in="SourceAlpha" result="offsetOut"/><feGaussianBlur in="offsetOut" result="blurOut"/><feBlend in2="blurOut" in="SourceGraphic"/></filter></defs><defs><clipPath id="b"><path d="M0 0h100v120H0z" fill="#fff"/></clipPath></defs><g clip-path="url(#b)"><path d="M0 0h100v120H0z" fill="#f0f0f0"/><g style="pointer-events:visiblePainted;cursor:pointer"><path fill="#f6f6f6" d="M-500-500H600V600H-500z"/><defs><mask id="c"><path d="m50 15 34.615 45L50 105 15.385 60z" fill="#fff"/><path d="m50 15 34.615 45L50 105 15.385 60z" fill="none" stroke-width=".1" stroke="#fff"/></mask><mask id="d"><path d="m50 15 34.615 45L50 105 15.385 60z" fill="#fff"/><path d="M67.308 60a17.308 17.308 0 0 0-34.616 0 17.308 17.308 0 0 0 34.616 0z"/></mask></defs><g mask="url(#c)"><g mask="url(#d)"><path fill="#0c6793" d="M-500-500H600V600H-500z" style="pointer-events:visiblePainted;cursor:pointer"/></g></g><g fill="none" stroke-linecap="round" stroke-linejoin="round" stroke-width=".5" stroke="#333"><path d="m50 15 34.615 45L50 105 15.385 60z"/><path d="M67.308 60a17.308 17.308 0 0 0-34.616 0 17.308 17.308 0 0 0 34.616 0z"/></g></g></g><path d="M0 0h100v120H0z" fill="none" stroke-linecap="round" stroke-linejoin="round" stroke-width=".5" stroke="#333"/></g></svg>