<svg preserveAspectRatio="xMidYMin slice" viewBox="0 0 120 200" xmlns="http://www.w3.org/2000/svg"><g transform="translate(10 10)"><defs><mask id="a"><path clip-rule="evenodd" d="M0 0h100v120H0z" fill-rule="evenodd" fill="#fff"/></mask></defs><g mask="url(#a)"><path d="M0 0h100v120H0z" fill-rule="evenodd" fill="#f0f0f0"/><path fill="#f6f6f6" style="cursor:pointer" d="M-1000-1000h2000v2000h-2000z"/><defs><mask id="b"><path clip-rule="evenodd" d="M27.578 25.36a7.577 7.577 0 1 0-15.155 0 7.577 7.577 0 0 0 15.155 0z" fill-rule="evenodd" fill="#fff"/><path d="M27.578 25.36a7.577 7.577 0 1 0-15.155 0 7.577 7.577 0 0 0 15.155 0z" fill="none" stroke-width=".1" stroke="#fff"/></mask></defs><g mask="url(#b)"><path fill="#0c6793" style="cursor:pointer" d="M-1000-1000h2000v2000h-2000z"/></g><path d="M27.578 25.36a7.577 7.577 0 1 0-15.155 0 7.577 7.577 0 0 0 15.155 0z" fill="none" stroke-linecap="round" stroke-linejoin="round" stroke-width=".5" stroke="#333"/><defs><mask id="c"><path clip-rule="evenodd" d="M47.578 25.36a7.577 7.577 0 1 0-15.155 0 7.577 7.577 0 0 0 15.154 0z" fill-rule="evenodd" fill="#fff"/><path d="M47.578 25.36a7.577 7.577 0 1 0-15.155 0 7.577 7.577 0 0 0 15.154 0z" fill="none" stroke-width=".1" stroke="#fff"/></mask></defs><g mask="url(#c)"><path fill="#0c6793" style="cursor:pointer" d="M-1000-1000h2000v2000h-2000z"/></g><path d="M47.578 25.36a7.577 7.577 0 1 0-15.155 0 7.577 7.577 0 0 0 15.154 0z" fill="none" stroke-linecap="round" stroke-linejoin="round" stroke-width=".5" stroke="#333"/><defs><mask id="d"><path clip-rule="evenodd" d="M67.578 25.36a7.577 7.577 0 1 0-15.155 0 7.577 7.577 0 0 0 15.154 0z" fill-rule="evenodd" fill="#fff"/><path d="M67.578 25.36a7.577 7.577 0 1 0-15.155 0 7.577 7.577 0 0 0 15.154 0z" fill="none" stroke-width=".1" stroke="#fff"/></mask></defs><g mask="url(#d)"><path fill="#0c6793" style="cursor:pointer" d="M-1000-1000h2000v2000h-2000z"/></g><path d="M67.578 25.36a7.577 7.577 0 1 0-15.155 0 7.577 7.577 0 0 0 15.154 0z" fill="none" stroke-linecap="round" stroke-linejoin="round" stroke-width=".5" stroke="#333"/><defs><mask id="e"><path clip-rule="evenodd" d="M87.578 25.36a7.577 7.577 0 1 0-15.155 0 7.577 7.577 0 0 0 15.154 0z" fill-rule="evenodd" fill="#fff"/><path d="M87.578 25.36a7.577 7.577 0 1 0-15.155 0 7.577 7.577 0 0 0 15.154 0z" fill="none" stroke-width=".1" stroke="#fff"/></mask></defs><g mask="url(#e)"><path fill="#0c6793" style="cursor:pointer" d="M-1000-1000h2000v2000h-2000z"/></g><path d="M87.578 25.36a7.577 7.577 0 1 0-15.155 0 7.577 7.577 0 0 0 15.154 0z" fill="none" stroke-linecap="round" stroke-linejoin="round" stroke-width=".5" stroke="#333"/><defs><mask id="f"><path clip-rule="evenodd" d="M37.578 42.68a7.577 7.577 0 1 0-15.155 0 7.577 7.577 0 0 0 15.155 0z" fill-rule="evenodd" fill="#fff"/><path d="M37.578 42.68a7.577 7.577 0 1 0-15.155 0 7.577 7.577 0 0 0 15.155 0z" fill="none" stroke-width=".1" stroke="#fff"/></mask></defs><g mask="url(#f)"><path fill="#0c6793" style="cursor:pointer" d="M-1000-1000h2000v2000h-2000z"/></g><path d="M37.578 42.68a7.577 7.577 0 1 0-15.155 0 7.577 7.577 0 0 0 15.155 0z" fill="none" stroke-linecap="round" stroke-linejoin="round" stroke-width=".5" stroke="#333"/><defs><mask id="g"><path clip-rule="evenodd" d="M57.578 42.68a7.577 7.577 0 1 0-15.155 0 7.577 7.577 0 0 0 15.154 0z" fill-rule="evenodd" fill="#fff"/><path d="M57.578 42.68a7.577 7.577 0 1 0-15.155 0 7.577 7.577 0 0 0 15.154 0z" fill="none" stroke-width=".1" stroke="#fff"/></mask></defs><g mask="url(#g)"><path fill="#0c6793" style="cursor:pointer" d="M-1000-1000h2000v2000h-2000z"/></g><path d="M57.578 42.68a7.577 7.577 0 1 0-15.155 0 7.577 7.577 0 0 0 15.154 0z" fill="none" stroke-linecap="round" stroke-linejoin="round" stroke-width=".5" stroke="#333"/><defs><mask id="h"><path clip-rule="evenodd" d="M77.578 42.68a7.577 7.577 0 1 0-15.155 0 7.577 7.577 0 0 0 15.154 0z" fill-rule="evenodd" fill="#fff"/><path d="M77.578 42.68a7.577 7.577 0 1 0-15.155 0 7.577 7.577 0 0 0 15.154 0z" fill="none" stroke-width=".1" stroke="#fff"/></mask></defs><g mask="url(#h)"><path fill="#0c6793" style="cursor:pointer" d="M-1000-1000h2000v2000h-2000z"/></g><path d="M77.578 42.68a7.577 7.577 0 1 0-15.155 0 7.577 7.577 0 0 0 15.154 0z" fill="none" stroke-linecap="round" stroke-linejoin="round" stroke-width=".5" stroke="#333"/><defs><mask id="i"><path clip-rule="evenodd" d="M27.578 60a7.577 7.577 0 1 0-15.155 0 7.577 7.577 0 0 0 15.155 0z" fill-rule="evenodd" fill="#fff"/><path d="M27.578 60a7.577 7.577 0 1 0-15.155 0 7.577 7.577 0 0 0 15.155 0z" fill="none" stroke-width=".1" stroke="#fff"/></mask></defs><g mask="url(#i)"><path fill="#0c6793" style="cursor:pointer" d="M-1000-1000h2000v2000h-2000z"/></g><path d="M27.578 60a7.577 7.577 0 1 0-15.155 0 7.577 7.577 0 0 0 15.155 0z" fill="none" stroke-linecap="round" stroke-linejoin="round" stroke-width=".5" stroke="#333"/><defs><mask id="j"><path clip-rule="evenodd" d="M47.578 60a7.577 7.577 0 1 0-15.155 0 7.577 7.577 0 0 0 15.154 0z" fill-rule="evenodd" fill="#fff"/><path d="M47.578 60a7.577 7.577 0 1 0-15.155 0 7.577 7.577 0 0 0 15.154 0z" fill="none" stroke-width=".1" stroke="#fff"/></mask></defs><g mask="url(#j)"><path fill="#0c6793" style="cursor:pointer" d="M-1000-1000h2000v2000h-2000z"/></g><path d="M47.578 60a7.577 7.577 0 1 0-15.155 0 7.577 7.577 0 0 0 15.154 0z" fill="none" stroke-linecap="round" stroke-linejoin="round" stroke-width=".5" stroke="#333"/><defs><mask id="k"><path clip-rule="evenodd" d="M67.578 60a7.577 7.577 0 1 0-15.155 0 7.577 7.577 0 0 0 15.154 0z" fill-rule="evenodd" fill="#fff"/><path d="M67.578 60a7.577 7.577 0 1 0-15.155 0 7.577 7.577 0 0 0 15.154 0z" fill="none" stroke-width=".1" stroke="#fff"/></mask></defs><g mask="url(#k)"><path fill="#0c6793" style="cursor:pointer" d="M-1000-1000h2000v2000h-2000z"/></g><path d="M67.578 60a7.577 7.577 0 1 0-15.155 0 7.577 7.577 0 0 0 15.154 0z" fill="none" stroke-linecap="round" stroke-linejoin="round" stroke-width=".5" stroke="#333"/><defs><mask id="l"><path clip-rule="evenodd" d="M87.578 60a7.577 7.577 0 1 0-15.155 0 7.577 7.577 0 0 0 15.154 0z" fill-rule="evenodd" fill="#fff"/><path d="M87.578 60a7.577 7.577 0 1 0-15.155 0 7.577 7.577 0 0 0 15.154 0z" fill="none" stroke-width=".1" stroke="#fff"/></mask></defs><g mask="url(#l)"><path fill="#0c6793" style="cursor:pointer" d="M-1000-1000h2000v2000h-2000z"/></g><path d="M87.578 60a7.577 7.577 0 1 0-15.155 0 7.577 7.577 0 0 0 15.154 0z" fill="none" stroke-linecap="round" stroke-linejoin="round" stroke-width=".5" stroke="#333"/><defs><mask id="m"><path clip-rule="evenodd" d="M37.578 77.32a7.577 7.577 0 1 0-15.155 0 7.577 7.577 0 0 0 15.155 0z" fill-rule="evenodd" fill="#fff"/><path d="M37.578 77.32a7.577 7.577 0 1 0-15.155 0 7.577 7.577 0 0 0 15.155 0z" fill="none" stroke-width=".1" stroke="#fff"/></mask></defs><g mask="url(#m)"><path fill="#0c6793" style="cursor:pointer" d="M-1000-1000h2000v2000h-2000z"/></g><path d="M37.578 77.32a7.577 7.577 0 1 0-15.155 0 7.577 7.577 0 0 0 15.155 0z" fill="none" stroke-linecap="round" stroke-linejoin="round" stroke-width=".5" stroke="#333"/><defs><mask id="n"><path clip-rule="evenodd" d="M57.578 77.32a7.577 7.577 0 1 0-15.155 0 7.577 7.577 0 0 0 15.154 0z" fill-rule="evenodd" fill="#fff"/><path d="M57.578 77.32a7.577 7.577 0 1 0-15.155 0 7.577 7.577 0 0 0 15.154 0z" fill="none" stroke-width=".1" stroke="#fff"/></mask></defs><g mask="url(#n)"><path fill="#0c6793" style="cursor:pointer" d="M-1000-1000h2000v2000h-2000z"/></g><path d="M57.578 77.32a7.577 7.577 0 1 0-15.155 0 7.577 7.577 0 0 0 15.154 0z" fill="none" stroke-linecap="round" stroke-linejoin="round" stroke-width=".5" stroke="#333"/><defs><mask id="o"><path clip-rule="evenodd" d="M77.578 77.32a7.577 7.577 0 1 0-15.155 0 7.577 7.577 0 0 0 15.154 0z" fill-rule="evenodd" fill="#fff"/><path d="M77.578 77.32a7.577 7.577 0 1 0-15.155 0 7.577 7.577 0 0 0 15.154 0z" fill="none" stroke-width=".1" stroke="#fff"/></mask></defs><g mask="url(#o)"><path fill="#0c6793" style="cursor:pointer" d="M-1000-1000h2000v2000h-2000z"/></g><path d="M77.578 77.32a7.577 7.577 0 1 0-15.155 0 7.577 7.577 0 0 0 15.154 0z" fill="none" stroke-linecap="round" stroke-linejoin="round" stroke-width=".5" stroke="#333"/><defs><mask id="p"><path clip-rule="evenodd" d="M27.578 94.64a7.577 7.577 0 1 0-15.155 0 7.577 7.577 0 0 0 15.155 0z" fill-rule="evenodd" fill="#fff"/><path d="M27.578 94.64a7.577 7.577 0 1 0-15.155 0 7.577 7.577 0 0 0 15.155 0z" fill="none" stroke-width=".1" stroke="#fff"/></mask></defs><g mask="url(#p)"><path fill="#0c6793" style="cursor:pointer" d="M-1000-1000h2000v2000h-2000z"/></g><path d="M27.578 94.64a7.577 7.577 0 1 0-15.155 0 7.577 7.577 0 0 0 15.155 0z" fill="none" stroke-linecap="round" stroke-linejoin="round" stroke-width=".5" stroke="#333"/><defs><mask id="q"><path clip-rule="evenodd" d="M47.578 94.64a7.577 7.577 0 1 0-15.155 0 7.577 7.577 0 0 0 15.154 0z" fill-rule="evenodd" fill="#fff"/><path d="M47.578 94.64a7.577 7.577 0 1 0-15.155 0 7.577 7.577 0 0 0 15.154 0z" fill="none" stroke-width=".1" stroke="#fff"/></mask></defs><g mask="url(#q)"><path fill="#0c6793" style="cursor:pointer" d="M-1000-1000h2000v2000h-2000z"/></g><path d="M47.578 94.64a7.577 7.577 0 1 0-15.155 0 7.577 7.577 0 0 0 15.154 0z" fill="none" stroke-linecap="round" stroke-linejoin="round" stroke-width=".5" stroke="#333"/><defs><mask id="r"><path clip-rule="evenodd" d="M67.578 94.64a7.577 7.577 0 1 0-15.155 0 7.577 7.577 0 0 0 15.154 0z" fill-rule="evenodd" fill="#fff"/><path d="M67.578 94.64a7.577 7.577 0 1 0-15.155 0 7.577 7.577 0 0 0 15.154 0z" fill="none" stroke-width=".1" stroke="#fff"/></mask></defs><g mask="url(#r)"><path fill="#0c6793" style="cursor:pointer" d="M-1000-1000h2000v2000h-2000z"/></g><path d="M67.578 94.64a7.577 7.577 0 1 0-15.155 0 7.577 7.577 0 0 0 15.154 0z" fill="none" stroke-linecap="round" stroke-linejoin="round" stroke-width=".5" stroke="#333"/><defs><mask id="s"><path clip-rule="evenodd" d="M87.578 94.64a7.577 7.577 0 1 0-15.155 0 7.577 7.577 0 0 0 15.154 0z" fill-rule="evenodd" fill="#fff"/><path d="M87.578 94.64a7.577 7.577 0 1 0-15.155 0 7.577 7.577 0 0 0 15.154 0z" fill="none" stroke-width=".1" stroke="#fff"/></mask></defs><g mask="url(#s)"><path fill="#0c6793" style="cursor:pointer" d="M-1000-1000h2000v2000h-2000z"/></g><path d="M87.578 94.64a7.577 7.577 0 1 0-15.155 0 7.577 7.577 0 0 0 15.154 0z" fill="none" stroke-linecap="round" stroke-linejoin="round" stroke-width=".5" stroke="#333"/></g><path d="M0 0h100v120H0z" fill="none" stroke-linecap="round" stroke-linejoin="round" stroke-width=".5" stroke="#333"/></g></svg>