<svg preserveAspectRatio="xMidYMin slice" viewBox="0 0 120 200" xmlns="http://www.w3.org/2000/svg"><g filter="url(#a)" transform="translate(10 10)"><defs><filter height="200%" id="a" width="200%" x="-20%" y="-20%"><feOffset dx=".2" dy=".2" in="SourceAlpha" result="offsetOut"/><feGaussianBlur in="offsetOut" result="blurOut"/><feBlend in2="blurOut" in="SourceGraphic"/></filter></defs><defs><mask id="b"><path d="M0 0h100v120H0z" fill="#fff"/></mask></defs><g mask="url(#b)"><path d="M0 0h100v120H0z" fill="#f0f0f0"/><g style="pointer-events:visiblePainted;cursor:pointer"><path fill="#f6f6f6" d="M-500-500H600V600H-500z"/><defs><mask id="c"><path d="M40.509 34.746v-9.492H59.49v9.492z" fill="#fff"/><path d="M40.509 34.746v-9.492H59.49v9.492z" fill="none" stroke-width=".1" stroke="#fff"/></mask></defs><g mask="url(#c)"><path fill="#0c6793" d="M-500-500H600V600H-500z" style="pointer-events:visiblePainted;cursor:pointer"/></g><path d="M40.509 34.746v-9.492H59.49v9.492z" fill="none" stroke-linecap="round" stroke-linejoin="round" stroke-width=".5" stroke="#333"/><defs><mask id="d"><path d="m63.827 36.834 7.42-5.918 11.836 14.841-7.42 5.918z" fill="#fff"/><path d="m63.827 36.834 7.42-5.918 11.836 14.841-7.42 5.918z" fill="none" stroke-width=".1" stroke="#fff"/></mask></defs><g mask="url(#d)"><path fill="#0c6793" d="M-500-500H600V600H-500z" style="pointer-events:visiblePainted;cursor:pointer"/></g><path d="m63.827 36.834 7.42-5.918 11.836 14.841-7.42 5.918z" fill="none" stroke-linecap="round" stroke-linejoin="round" stroke-width=".5" stroke="#333"/><defs><mask id="e"><path d="m76.733 56.366 9.253 2.112-4.224 18.507-9.253-2.112z" fill="#fff"/><path d="m76.733 56.366 9.253 2.112-4.224 18.507-9.253-2.112z" fill="none" stroke-width=".1" stroke="#fff"/></mask></defs><g mask="url(#e)"><path fill="#0c6793" d="M-500-500H600V600H-500z" style="pointer-events:visiblePainted;cursor:pointer"/></g><path d="m76.733 56.366 9.253 2.112-4.224 18.507-9.253-2.112z" fill="none" stroke-linecap="round" stroke-linejoin="round" stroke-width=".5" stroke="#333"/><defs><mask id="f"><path d="m69.509 78.635 4.118 8.552-17.103 8.236-4.118-8.551z" fill="#fff"/><path d="m69.509 78.635 4.118 8.552-17.103 8.236-4.118-8.551z" fill="none" stroke-width=".1" stroke="#fff"/></mask></defs><g mask="url(#f)"><path fill="#0c6793" d="M-500-500H600V600H-500z" style="pointer-events:visiblePainted;cursor:pointer"/></g><path d="m69.509 78.635 4.118 8.552-17.103 8.236-4.118-8.551z" fill="none" stroke-linecap="round" stroke-linejoin="round" stroke-width=".5" stroke="#333"/><defs><mask id="g"><path d="m47.594 86.872-4.118 8.55-17.103-8.235 4.118-8.552z" fill="#fff"/><path d="m47.594 86.872-4.118 8.55-17.103-8.235 4.118-8.552z" fill="none" stroke-width=".1" stroke="#fff"/></mask></defs><g mask="url(#g)"><path fill="#0c6793" d="M-500-500H600V600H-500z" style="pointer-events:visiblePainted;cursor:pointer"/></g><path d="m47.594 86.872-4.118 8.55-17.103-8.235 4.118-8.552z" fill="none" stroke-linecap="round" stroke-linejoin="round" stroke-width=".5" stroke="#333"/><defs><mask id="h"><path d="m27.49 74.873-9.252 2.112-4.224-18.507 9.253-2.112z" fill="#fff"/><path d="m27.49 74.873-9.252 2.112-4.224-18.507 9.253-2.112z" fill="none" stroke-width=".1" stroke="#fff"/></mask></defs><g mask="url(#h)"><path fill="#0c6793" d="M-500-500H600V600H-500z" style="pointer-events:visiblePainted;cursor:pointer"/></g><path d="m27.49 74.873-9.252 2.112-4.224-18.507 9.253-2.112z" fill="none" stroke-linecap="round" stroke-linejoin="round" stroke-width=".5" stroke="#333"/><defs><mask id="i"><path d="m24.338 51.675-7.42-5.918 11.834-14.841 7.421 5.918z" fill="#fff"/><path d="m24.338 51.675-7.42-5.918 11.834-14.841 7.421 5.918z" fill="none" stroke-width=".1" stroke="#fff"/></mask></defs><g mask="url(#i)"><path fill="#0c6793" d="M-500-500H600V600H-500z" style="pointer-events:visiblePainted;cursor:pointer"/></g><path d="m24.338 51.675-7.42-5.918 11.834-14.841 7.421 5.918z" fill="none" stroke-linecap="round" stroke-linejoin="round" stroke-width=".5" stroke="#333"/></g></g><path d="M0 0h100v120H0z" fill="none" stroke-linecap="round" stroke-linejoin="round" stroke-width=".5" stroke="#333"/></g></svg>