<svg preserveAspectRatio="xMidYMin slice" viewBox="-10 -10 120 140" xmlns="http://www.w3.org/2000/svg"><defs><mask id="a"><path clip-rule="evenodd" d="M0 0h100v120H0z" fill-rule="evenodd" fill="#fff"/></mask></defs><g mask="url(#a)"><path d="M0 0h100v120H0z" fill-rule="evenodd" fill="#f0f0f0"/><path fill="#f6f6f6" style="cursor:pointer" d="M-1000-1000h2000v2000h-2000z"/><defs><mask id="b"><path clip-rule="evenodd" d="M33.125 60c0-7.249-5.876-13.125-13.125-13.125S6.875 52.751 6.875 60 12.751 73.125 20 73.125 33.125 67.249 33.125 60z" fill-rule="evenodd" fill="#fff"/></mask></defs><g mask="url(#b)"><path fill="#0c6793" style="cursor:pointer" d="M-1000-1000h2000v2000h-2000z"/></g><path d="M33.125 60c0-7.249-5.876-13.125-13.125-13.125S6.875 52.751 6.875 60 12.751 73.125 20 73.125 33.125 67.249 33.125 60z" fill="none" stroke-linecap="round" stroke-linejoin="round" stroke-width=".5" stroke="#333"/><defs><mask id="c"><path clip-rule="evenodd" d="M63.125 60c0-7.249-5.876-13.125-13.125-13.125S36.875 52.751 36.875 60 42.751 73.125 50 73.125 63.125 67.249 63.125 60z" fill-rule="evenodd" fill="#fff"/></mask></defs><g mask="url(#c)"><path fill="#0c6793" style="cursor:pointer" d="M-1000-1000h2000v2000h-2000z"/></g><path d="M63.125 60c0-7.249-5.876-13.125-13.125-13.125S36.875 52.751 36.875 60 42.751 73.125 50 73.125 63.125 67.249 63.125 60z" fill="none" stroke-linecap="round" stroke-linejoin="round" stroke-width=".5" stroke="#333"/><defs><mask id="d"><path clip-rule="evenodd" d="M93.125 60c0-7.249-5.876-13.125-13.125-13.125S66.875 52.751 66.875 60 72.751 73.125 80 73.125 93.125 67.249 93.125 60z" fill-rule="evenodd" fill="#fff"/></mask></defs><g mask="url(#d)"><path fill="#0c6793" style="cursor:pointer" d="M-1000-1000h2000v2000h-2000z"/></g><path d="M93.125 60c0-7.249-5.876-13.125-13.125-13.125S66.875 52.751 66.875 60 72.751 73.125 80 73.125 93.125 67.249 93.125 60z" fill="none" stroke-linecap="round" stroke-linejoin="round" stroke-width=".5" stroke="#333"/></g><path d="M0 0h100v120H0z" fill="none" stroke-linecap="round" stroke-linejoin="round" stroke-width=".5" stroke="#333"/></svg>