<?xml version="1.0" encoding="UTF-8" standalone="no"?>
<svg xmlns="http://www.w3.org/2000/svg" preserveAspectRatio="xMidYMin slice" viewBox="-10 -10 120 140"><defs><mask id="a"><path fill="#fff" fill-rule="evenodd" d="M0 0h100v120H0z" clip-rule="evenodd"/></mask></defs><g mask="url(#a)"><path fill="#f0f0f0" fill-rule="evenodd" d="M0 0h100v120H0z"/><path fill="#f6f6f6" d="M-1000-1000h2000v2000h-2000z"/><defs><mask id="b"><path fill="#fff" fill-rule="evenodd" d="M76.516 33.483c14.645 14.645 14.645 38.389 0 53.034-14.644 14.644-38.388 14.644-53.033 0-14.644-14.645-14.644-38.389 0-53.033a28.125 28.125 0 1 0 53.034 0z" clip-rule="evenodd"/></mask></defs><g mask="url(#b)"><path fill="#f2bc51" d="M-1000-1000h2000v2000h-2000z"/></g><path fill="none" stroke="#333" stroke-linecap="round" stroke-linejoin="round" stroke-width=".5" d="M76.516 33.483c14.645 14.645 14.645 38.389 0 53.034-14.644 14.644-38.388 14.644-53.033 0-14.644-14.645-14.644-38.389 0-53.033a28.125 28.125 0 1 0 53.034 0z"/></g><path fill="none" stroke="#333" stroke-linecap="round" stroke-linejoin="round" stroke-width=".5" d="M0 0h100v120H0z"/></svg>