<?xml version="1.0" encoding="UTF-8" standalone="no"?>
<svg xmlns="http://www.w3.org/2000/svg" viewBox="-10 -10 120 140" preserveAspectRatio="xMidYMin slice"><defs><mask id="a"><path d="M0 0h100v120H0z" clip-rule="evenodd" fill-rule="evenodd" fill="#fff"/></mask></defs><g mask="url(#a)"><path d="M0 0h100v120H0z" fill-rule="evenodd" fill="#f0f0f0"/><path fill="#f6f6f6" style="cursor:pointer" d="M-1000-1000h2000v2000h-2000z"/><defs><mask id="b"><path d="M45.155 42.68c0-8.37-6.785-15.155-15.155-15.155S14.845 34.31 14.845 42.68 21.63 57.835 30 57.835 45.155 51.05 45.155 42.68z" clip-rule="evenodd" fill-rule="evenodd" fill="#fff"/></mask></defs><g mask="url(#b)"><path fill="#f2bc51" style="cursor:pointer" d="M-1000-1000h2000v2000h-2000z"/></g><path d="M45.155 42.68c0-8.37-6.785-15.155-15.155-15.155S14.845 34.31 14.845 42.68 21.63 57.835 30 57.835 45.155 51.05 45.155 42.68z" stroke="#333" stroke-width=".5" fill="none" stroke-linecap="round" stroke-linejoin="round"/><defs><mask id="c"><path d="M85.155 42.68c0-8.37-6.785-15.155-15.155-15.155S54.845 34.31 54.845 42.68 61.63 57.835 70 57.835 85.155 51.05 85.155 42.68z" clip-rule="evenodd" fill-rule="evenodd" fill="#fff"/></mask></defs><g mask="url(#c)"><path fill="#f2bc51" style="cursor:pointer" d="M-1000-1000h2000v2000h-2000z"/></g><path d="M85.155 42.68c0-8.37-6.785-15.155-15.155-15.155S54.845 34.31 54.845 42.68 61.63 57.835 70 57.835 85.155 51.05 85.155 42.68z" stroke="#333" stroke-width=".5" fill="none" stroke-linecap="round" stroke-linejoin="round"/><defs><mask id="d"><path d="M65.155 77.32c0-8.37-6.785-15.155-15.155-15.155S34.845 68.95 34.845 77.32 41.63 92.475 50 92.475 65.155 85.69 65.155 77.32z" clip-rule="evenodd" fill-rule="evenodd" fill="#fff"/></mask></defs><g mask="url(#d)"><path fill="#f2bc51" style="cursor:pointer" d="M-1000-1000h2000v2000h-2000z"/></g><path d="M65.155 77.32c0-8.37-6.785-15.155-15.155-15.155S34.845 68.95 34.845 77.32 41.63 92.475 50 92.475 65.155 85.69 65.155 77.32z" stroke="#333" stroke-width=".5" fill="none" stroke-linecap="round" stroke-linejoin="round"/></g><path d="M0 0h100v120H0z" stroke="#333" stroke-width=".5" fill="none" stroke-linecap="round" stroke-linejoin="round"/></svg>