<?xml version="1.0" encoding="UTF-8" standalone="no"?>
<svg xmlns="http://www.w3.org/2000/svg" viewBox="-10 -10 120 140" preserveAspectRatio="xMidYMin slice"><defs><mask id="a"><path d="M0 0h100v120H0z" clip-rule="evenodd" fill-rule="evenodd" fill="#fff"/></mask></defs><g mask="url(#a)"><path d="M0 0h100v120H0z" fill-rule="evenodd" fill="#f0f0f0"/><path fill="#f6f6f6" style="cursor:pointer" d="M-1000-1000h2000v2000h-2000z"/><defs><mask id="b"><path d="M22.519 29.4a7.852 7.852 0 1 0-15.704 0 7.852 7.852 0 0 0 15.704 0z" clip-rule="evenodd" fill-rule="evenodd" fill="#fff"/></mask></defs><g mask="url(#b)"><path fill="#0c6793" style="cursor:pointer" d="M-1000-1000h2000v2000h-2000z"/></g><path d="M22.519 29.4a7.852 7.852 0 1 0-15.704 0 7.852 7.852 0 0 0 15.704 0z" stroke="#333" stroke-width=".5" fill="none" stroke-linecap="round" stroke-linejoin="round"/><defs><mask id="c"><path d="M22.519 49.8a7.852 7.852 0 1 0-15.704 0 7.852 7.852 0 0 0 15.704 0z" clip-rule="evenodd" fill-rule="evenodd" fill="#fff"/></mask></defs><g mask="url(#c)"><path fill="#0c6793" style="cursor:pointer" d="M-1000-1000h2000v2000h-2000z"/></g><path d="M22.519 49.8a7.852 7.852 0 1 0-15.704 0 7.852 7.852 0 0 0 15.704 0z" stroke="#333" stroke-width=".5" fill="none" stroke-linecap="round" stroke-linejoin="round"/><defs><mask id="d"><path d="M22.519 70.2a7.852 7.852 0 1 0-15.704 0 7.852 7.852 0 0 0 15.704 0z" clip-rule="evenodd" fill-rule="evenodd" fill="#fff"/></mask></defs><g mask="url(#d)"><path fill="#0c6793" style="cursor:pointer" d="M-1000-1000h2000v2000h-2000z"/></g><path d="M22.519 70.2a7.852 7.852 0 1 0-15.704 0 7.852 7.852 0 0 0 15.704 0z" stroke="#333" stroke-width=".5" fill="none" stroke-linecap="round" stroke-linejoin="round"/><defs><mask id="e"><path d="M22.519 90.6a7.852 7.852 0 1 0-15.704 0 7.852 7.852 0 0 0 15.704 0z" clip-rule="evenodd" fill-rule="evenodd" fill="#fff"/></mask></defs><g mask="url(#e)"><path fill="#0c6793" style="cursor:pointer" d="M-1000-1000h2000v2000h-2000z"/></g><path d="M22.519 90.6a7.852 7.852 0 1 0-15.704 0 7.852 7.852 0 0 0 15.704 0z" stroke="#333" stroke-width=".5" fill="none" stroke-linecap="round" stroke-linejoin="round"/><defs><mask id="f"><path d="M40.185 39.6a7.852 7.852 0 1 0-15.703 0 7.852 7.852 0 0 0 15.703 0z" clip-rule="evenodd" fill-rule="evenodd" fill="#fff"/></mask></defs><g mask="url(#f)"><path fill="#0c6793" style="cursor:pointer" d="M-1000-1000h2000v2000h-2000z"/></g><path d="M40.185 39.6a7.852 7.852 0 1 0-15.703 0 7.852 7.852 0 0 0 15.703 0z" stroke="#333" stroke-width=".5" fill="none" stroke-linecap="round" stroke-linejoin="round"/><defs><mask id="g"><path d="M40.185 60a7.852 7.852 0 1 0-15.703 0 7.852 7.852 0 0 0 15.703 0z" clip-rule="evenodd" fill-rule="evenodd" fill="#fff"/></mask></defs><g mask="url(#g)"><path fill="#0c6793" style="cursor:pointer" d="M-1000-1000h2000v2000h-2000z"/></g><path d="M40.185 60a7.852 7.852 0 1 0-15.703 0 7.852 7.852 0 0 0 15.703 0z" stroke="#333" stroke-width=".5" fill="none" stroke-linecap="round" stroke-linejoin="round"/><defs><mask id="h"><path d="M40.185 80.4a7.852 7.852 0 1 0-15.703 0 7.852 7.852 0 0 0 15.703 0z" clip-rule="evenodd" fill-rule="evenodd" fill="#fff"/></mask></defs><g mask="url(#h)"><path fill="#0c6793" style="cursor:pointer" d="M-1000-1000h2000v2000h-2000z"/></g><path d="M40.185 80.4a7.852 7.852 0 1 0-15.703 0 7.852 7.852 0 0 0 15.703 0z" stroke="#333" stroke-width=".5" fill="none" stroke-linecap="round" stroke-linejoin="round"/><defs><mask id="i"><path d="M57.852 29.4a7.852 7.852 0 1 0-15.704 0 7.852 7.852 0 0 0 15.704 0z" clip-rule="evenodd" fill-rule="evenodd" fill="#fff"/></mask></defs><g mask="url(#i)"><path fill="#0c6793" style="cursor:pointer" d="M-1000-1000h2000v2000h-2000z"/></g><path d="M57.852 29.4a7.852 7.852 0 1 0-15.704 0 7.852 7.852 0 0 0 15.704 0z" stroke="#333" stroke-width=".5" fill="none" stroke-linecap="round" stroke-linejoin="round"/><defs><mask id="j"><path d="M57.852 49.8a7.852 7.852 0 1 0-15.704 0 7.852 7.852 0 0 0 15.704 0z" clip-rule="evenodd" fill-rule="evenodd" fill="#fff"/></mask></defs><g mask="url(#j)"><path fill="#0c6793" style="cursor:pointer" d="M-1000-1000h2000v2000h-2000z"/></g><path d="M57.852 49.8a7.852 7.852 0 1 0-15.704 0 7.852 7.852 0 0 0 15.704 0z" stroke="#333" stroke-width=".5" fill="none" stroke-linecap="round" stroke-linejoin="round"/><defs><mask id="k"><path d="M57.852 70.2a7.852 7.852 0 1 0-15.704 0 7.852 7.852 0 0 0 15.704 0z" clip-rule="evenodd" fill-rule="evenodd" fill="#fff"/></mask></defs><g mask="url(#k)"><path fill="#0c6793" style="cursor:pointer" d="M-1000-1000h2000v2000h-2000z"/></g><path d="M57.852 70.2a7.852 7.852 0 1 0-15.704 0 7.852 7.852 0 0 0 15.704 0z" stroke="#333" stroke-width=".5" fill="none" stroke-linecap="round" stroke-linejoin="round"/><defs><mask id="l"><path d="M57.852 90.6a7.852 7.852 0 1 0-15.704 0 7.852 7.852 0 0 0 15.704 0z" clip-rule="evenodd" fill-rule="evenodd" fill="#fff"/></mask></defs><g mask="url(#l)"><path fill="#0c6793" style="cursor:pointer" d="M-1000-1000h2000v2000h-2000z"/></g><path d="M57.852 90.6a7.852 7.852 0 1 0-15.704 0 7.852 7.852 0 0 0 15.704 0z" stroke="#333" stroke-width=".5" fill="none" stroke-linecap="round" stroke-linejoin="round"/><defs><mask id="m"><path d="M75.518 39.6a7.852 7.852 0 1 0-15.703 0 7.852 7.852 0 0 0 15.703 0z" clip-rule="evenodd" fill-rule="evenodd" fill="#fff"/></mask></defs><g mask="url(#m)"><path fill="#0c6793" style="cursor:pointer" d="M-1000-1000h2000v2000h-2000z"/></g><path d="M75.518 39.6a7.852 7.852 0 1 0-15.703 0 7.852 7.852 0 0 0 15.703 0z" stroke="#333" stroke-width=".5" fill="none" stroke-linecap="round" stroke-linejoin="round"/><defs><mask id="n"><path d="M75.518 60a7.852 7.852 0 1 0-15.703 0 7.852 7.852 0 0 0 15.703 0z" clip-rule="evenodd" fill-rule="evenodd" fill="#fff"/></mask></defs><g mask="url(#n)"><path fill="#0c6793" style="cursor:pointer" d="M-1000-1000h2000v2000h-2000z"/></g><path d="M75.518 60a7.852 7.852 0 1 0-15.703 0 7.852 7.852 0 0 0 15.703 0z" stroke="#333" stroke-width=".5" fill="none" stroke-linecap="round" stroke-linejoin="round"/><defs><mask id="o"><path d="M75.518 80.4a7.852 7.852 0 1 0-15.703 0 7.852 7.852 0 0 0 15.703 0z" clip-rule="evenodd" fill-rule="evenodd" fill="#fff"/></mask></defs><g mask="url(#o)"><path fill="#0c6793" style="cursor:pointer" d="M-1000-1000h2000v2000h-2000z"/></g><path d="M75.518 80.4a7.852 7.852 0 1 0-15.703 0 7.852 7.852 0 0 0 15.703 0z" stroke="#333" stroke-width=".5" fill="none" stroke-linecap="round" stroke-linejoin="round"/><defs><mask id="p"><path d="M93.185 29.4a7.852 7.852 0 1 0-15.704 0 7.852 7.852 0 0 0 15.704 0z" clip-rule="evenodd" fill-rule="evenodd" fill="#fff"/></mask></defs><g mask="url(#p)"><path fill="#0c6793" style="cursor:pointer" d="M-1000-1000h2000v2000h-2000z"/></g><path d="M93.185 29.4a7.852 7.852 0 1 0-15.704 0 7.852 7.852 0 0 0 15.704 0z" stroke="#333" stroke-width=".5" fill="none" stroke-linecap="round" stroke-linejoin="round"/><defs><mask id="q"><path d="M93.185 49.8a7.852 7.852 0 1 0-15.704 0 7.852 7.852 0 0 0 15.704 0z" clip-rule="evenodd" fill-rule="evenodd" fill="#fff"/></mask></defs><g mask="url(#q)"><path fill="#0c6793" style="cursor:pointer" d="M-1000-1000h2000v2000h-2000z"/></g><path d="M93.185 49.8a7.852 7.852 0 1 0-15.704 0 7.852 7.852 0 0 0 15.704 0z" stroke="#333" stroke-width=".5" fill="none" stroke-linecap="round" stroke-linejoin="round"/><defs><mask id="r"><path d="M93.185 70.2a7.852 7.852 0 1 0-15.704 0 7.852 7.852 0 0 0 15.704 0z" clip-rule="evenodd" fill-rule="evenodd" fill="#fff"/></mask></defs><g mask="url(#r)"><path fill="#0c6793" style="cursor:pointer" d="M-1000-1000h2000v2000h-2000z"/></g><path d="M93.185 70.2a7.852 7.852 0 1 0-15.704 0 7.852 7.852 0 0 0 15.704 0z" stroke="#333" stroke-width=".5" fill="none" stroke-linecap="round" stroke-linejoin="round"/><defs><mask id="s"><path d="M93.185 90.6a7.852 7.852 0 1 0-15.704 0 7.852 7.852 0 0 0 15.704 0z" clip-rule="evenodd" fill-rule="evenodd" fill="#fff"/></mask></defs><g mask="url(#s)"><path fill="#0c6793" style="cursor:pointer" d="M-1000-1000h2000v2000h-2000z"/></g><path d="M93.185 90.6a7.852 7.852 0 1 0-15.704 0 7.852 7.852 0 0 0 15.704 0z" stroke="#333" stroke-width=".5" fill="none" stroke-linecap="round" stroke-linejoin="round"/></g><path d="M0 0h100v120H0z" stroke="#333" stroke-width=".5" fill="none" stroke-linecap="round" stroke-linejoin="round"/></svg>