<svg preserveAspectRatio="xMidYMin slice" viewBox="-10 -10 120 140" xmlns="http://www.w3.org/2000/svg"><defs><mask id="a"><path clip-rule="evenodd" d="M0 0h100v120H0z" fill-rule="evenodd" fill="#fff"/></mask></defs><g mask="url(#a)"><path d="M0 0h100v120H0z" fill-rule="evenodd" fill="#f0f0f0"/><path fill="#f6f6f6" style="cursor:pointer" d="M-1000-1000h2000v2000h-2000z"/><defs><mask id="b"><path clip-rule="evenodd" d="M40.564 35.251c0-8.457-6.856-15.312-15.313-15.312S9.94 26.794 9.94 35.25c0 8.457 6.855 15.313 15.312 15.313 8.457 0 15.313-6.856 15.313-15.313z" fill-rule="evenodd" fill="#fff"/></mask></defs><g mask="url(#b)"><path fill="#0c6793" style="cursor:pointer" d="M-1000-1000h2000v2000h-2000z"/></g><path d="M40.564 35.251c0-8.457-6.856-15.312-15.313-15.312S9.94 26.794 9.94 35.25c0 8.457 6.855 15.313 15.312 15.313 8.457 0 15.313-6.856 15.313-15.313z" fill="none" stroke-linecap="round" stroke-linejoin="round" stroke-width=".5" stroke="#333"/><defs><mask id="c"><path clip-rule="evenodd" d="M65.313 60c0-8.457-6.856-15.313-15.313-15.313S34.687 51.544 34.687 60 41.544 75.313 50 75.313 65.313 68.457 65.313 60z" fill-rule="evenodd" fill="#fff"/></mask></defs><g mask="url(#c)"><path fill="#0c6793" style="cursor:pointer" d="M-1000-1000h2000v2000h-2000z"/></g><path d="M65.313 60c0-8.457-6.856-15.313-15.313-15.313S34.687 51.544 34.687 60 41.544 75.313 50 75.313 65.313 68.457 65.313 60z" fill="none" stroke-linecap="round" stroke-linejoin="round" stroke-width=".5" stroke="#333"/><defs><mask id="d"><path clip-rule="evenodd" d="M90.061 84.749c0-8.457-6.855-15.313-15.312-15.313-8.457 0-15.313 6.856-15.313 15.313s6.856 15.312 15.313 15.312S90.06 93.206 90.06 84.75z" fill-rule="evenodd" fill="#fff"/></mask></defs><g mask="url(#d)"><path fill="#0c6793" style="cursor:pointer" d="M-1000-1000h2000v2000h-2000z"/></g><path d="M90.061 84.749c0-8.457-6.855-15.313-15.312-15.313-8.457 0-15.313 6.856-15.313 15.313s6.856 15.312 15.313 15.312S90.06 93.206 90.06 84.75z" fill="none" stroke-linecap="round" stroke-linejoin="round" stroke-width=".5" stroke="#333"/></g><path d="M0 0h100v120H0z" fill="none" stroke-linecap="round" stroke-linejoin="round" stroke-width=".5" stroke="#333"/></svg>