<?xml version="1.0" encoding="UTF-8" standalone="no"?>
<svg xmlns="http://www.w3.org/2000/svg" preserveAspectRatio="xMidYMin slice" viewBox="-10 -10 120 140"><defs><mask id="a"><path fill="#fff" fill-rule="evenodd" d="M0 0h100v120H0z" clip-rule="evenodd"/></mask></defs><g mask="url(#a)"><path fill="#f0f0f0" fill-rule="evenodd" d="M0 0h100v120H0z"/><path fill="#f6f6f6" d="M-1000-1000h2000v2000h-2000z"/><defs><mask id="b"><path fill="#fff" fill-rule="evenodd" d="M27.578 25.36a7.577 7.577 0 1 0-15.155 0 7.577 7.577 0 0 0 15.155 0z" clip-rule="evenodd"/></mask></defs><g mask="url(#b)"><path fill="#0c6793" d="M-1000-1000h2000v2000h-2000z"/></g><path fill="none" stroke="#333" stroke-linecap="round" stroke-linejoin="round" stroke-width=".5" d="M27.578 25.36a7.577 7.577 0 1 0-15.155 0 7.577 7.577 0 0 0 15.155 0z"/><defs><mask id="c"><path fill="#fff" fill-rule="evenodd" d="M47.578 25.36a7.577 7.577 0 1 0-15.155 0 7.577 7.577 0 0 0 15.154 0z" clip-rule="evenodd"/></mask></defs><g mask="url(#c)"><path fill="#0c6793" d="M-1000-1000h2000v2000h-2000z"/></g><path fill="none" stroke="#333" stroke-linecap="round" stroke-linejoin="round" stroke-width=".5" d="M47.578 25.36a7.577 7.577 0 1 0-15.155 0 7.577 7.577 0 0 0 15.154 0z"/><defs><mask id="d"><path fill="#fff" fill-rule="evenodd" d="M67.578 25.36a7.577 7.577 0 1 0-15.155 0 7.577 7.577 0 0 0 15.154 0z" clip-rule="evenodd"/></mask></defs><g mask="url(#d)"><path fill="#0c6793" d="M-1000-1000h2000v2000h-2000z"/></g><path fill="none" stroke="#333" stroke-linecap="round" stroke-linejoin="round" stroke-width=".5" d="M67.578 25.36a7.577 7.577 0 1 0-15.155 0 7.577 7.577 0 0 0 15.154 0z"/><defs><mask id="e"><path fill="#fff" fill-rule="evenodd" d="M87.578 25.36a7.577 7.577 0 1 0-15.155 0 7.577 7.577 0 0 0 15.154 0z" clip-rule="evenodd"/></mask></defs><g mask="url(#e)"><path fill="#0c6793" d="M-1000-1000h2000v2000h-2000z"/></g><path fill="none" stroke="#333" stroke-linecap="round" stroke-linejoin="round" stroke-width=".5" d="M87.578 25.36a7.577 7.577 0 1 0-15.155 0 7.577 7.577 0 0 0 15.154 0z"/><defs><mask id="f"><path fill="#fff" fill-rule="evenodd" d="M37.578 42.68a7.577 7.577 0 1 0-15.155 0 7.577 7.577 0 0 0 15.155 0z" clip-rule="evenodd"/></mask></defs><g mask="url(#f)"><path fill="#0c6793" d="M-1000-1000h2000v2000h-2000z"/></g><path fill="none" stroke="#333" stroke-linecap="round" stroke-linejoin="round" stroke-width=".5" d="M37.578 42.68a7.577 7.577 0 1 0-15.155 0 7.577 7.577 0 0 0 15.155 0z"/><defs><mask id="g"><path fill="#fff" fill-rule="evenodd" d="M57.578 42.68a7.577 7.577 0 1 0-15.155 0 7.577 7.577 0 0 0 15.154 0z" clip-rule="evenodd"/></mask></defs><g mask="url(#g)"><path fill="#0c6793" d="M-1000-1000h2000v2000h-2000z"/></g><path fill="none" stroke="#333" stroke-linecap="round" stroke-linejoin="round" stroke-width=".5" d="M57.578 42.68a7.577 7.577 0 1 0-15.155 0 7.577 7.577 0 0 0 15.154 0z"/><defs><mask id="h"><path fill="#fff" fill-rule="evenodd" d="M77.578 42.68a7.577 7.577 0 1 0-15.155 0 7.577 7.577 0 0 0 15.154 0z" clip-rule="evenodd"/></mask></defs><g mask="url(#h)"><path fill="#0c6793" d="M-1000-1000h2000v2000h-2000z"/></g><path fill="none" stroke="#333" stroke-linecap="round" stroke-linejoin="round" stroke-width=".5" d="M77.578 42.68a7.577 7.577 0 1 0-15.155 0 7.577 7.577 0 0 0 15.154 0z"/><defs><mask id="i"><path fill="#fff" fill-rule="evenodd" d="M27.578 60a7.577 7.577 0 1 0-15.155 0 7.577 7.577 0 0 0 15.155 0z" clip-rule="evenodd"/></mask></defs><g mask="url(#i)"><path fill="#0c6793" d="M-1000-1000h2000v2000h-2000z"/></g><path fill="none" stroke="#333" stroke-linecap="round" stroke-linejoin="round" stroke-width=".5" d="M27.578 60a7.577 7.577 0 1 0-15.155 0 7.577 7.577 0 0 0 15.155 0z"/><defs><mask id="j"><path fill="#fff" fill-rule="evenodd" d="M47.578 60a7.577 7.577 0 1 0-15.155 0 7.577 7.577 0 0 0 15.154 0z" clip-rule="evenodd"/></mask></defs><g mask="url(#j)"><path fill="#0c6793" d="M-1000-1000h2000v2000h-2000z"/></g><path fill="none" stroke="#333" stroke-linecap="round" stroke-linejoin="round" stroke-width=".5" d="M47.578 60a7.577 7.577 0 1 0-15.155 0 7.577 7.577 0 0 0 15.154 0z"/><defs><mask id="k"><path fill="#fff" fill-rule="evenodd" d="M67.578 60a7.577 7.577 0 1 0-15.155 0 7.577 7.577 0 0 0 15.154 0z" clip-rule="evenodd"/></mask></defs><g mask="url(#k)"><path fill="#0c6793" d="M-1000-1000h2000v2000h-2000z"/></g><path fill="none" stroke="#333" stroke-linecap="round" stroke-linejoin="round" stroke-width=".5" d="M67.578 60a7.577 7.577 0 1 0-15.155 0 7.577 7.577 0 0 0 15.154 0z"/><defs><mask id="l"><path fill="#fff" fill-rule="evenodd" d="M87.578 60a7.577 7.577 0 1 0-15.155 0 7.577 7.577 0 0 0 15.154 0z" clip-rule="evenodd"/></mask></defs><g mask="url(#l)"><path fill="#0c6793" d="M-1000-1000h2000v2000h-2000z"/></g><path fill="none" stroke="#333" stroke-linecap="round" stroke-linejoin="round" stroke-width=".5" d="M87.578 60a7.577 7.577 0 1 0-15.155 0 7.577 7.577 0 0 0 15.154 0z"/><defs><mask id="m"><path fill="#fff" fill-rule="evenodd" d="M37.578 77.32a7.577 7.577 0 1 0-15.155 0 7.577 7.577 0 0 0 15.155 0z" clip-rule="evenodd"/></mask></defs><g mask="url(#m)"><path fill="#0c6793" d="M-1000-1000h2000v2000h-2000z"/></g><path fill="none" stroke="#333" stroke-linecap="round" stroke-linejoin="round" stroke-width=".5" d="M37.578 77.32a7.577 7.577 0 1 0-15.155 0 7.577 7.577 0 0 0 15.155 0z"/><defs><mask id="n"><path fill="#fff" fill-rule="evenodd" d="M57.578 77.32a7.577 7.577 0 1 0-15.155 0 7.577 7.577 0 0 0 15.154 0z" clip-rule="evenodd"/></mask></defs><g mask="url(#n)"><path fill="#0c6793" d="M-1000-1000h2000v2000h-2000z"/></g><path fill="none" stroke="#333" stroke-linecap="round" stroke-linejoin="round" stroke-width=".5" d="M57.578 77.32a7.577 7.577 0 1 0-15.155 0 7.577 7.577 0 0 0 15.154 0z"/><defs><mask id="o"><path fill="#fff" fill-rule="evenodd" d="M77.578 77.32a7.577 7.577 0 1 0-15.155 0 7.577 7.577 0 0 0 15.154 0z" clip-rule="evenodd"/></mask></defs><g mask="url(#o)"><path fill="#0c6793" d="M-1000-1000h2000v2000h-2000z"/></g><path fill="none" stroke="#333" stroke-linecap="round" stroke-linejoin="round" stroke-width=".5" d="M77.578 77.32a7.577 7.577 0 1 0-15.155 0 7.577 7.577 0 0 0 15.154 0z"/><defs><mask id="p"><path fill="#fff" fill-rule="evenodd" d="M27.578 94.64a7.577 7.577 0 1 0-15.155 0 7.577 7.577 0 0 0 15.155 0z" clip-rule="evenodd"/></mask></defs><g mask="url(#p)"><path fill="#0c6793" d="M-1000-1000h2000v2000h-2000z"/></g><path fill="none" stroke="#333" stroke-linecap="round" stroke-linejoin="round" stroke-width=".5" d="M27.578 94.64a7.577 7.577 0 1 0-15.155 0 7.577 7.577 0 0 0 15.155 0z"/><defs><mask id="q"><path fill="#fff" fill-rule="evenodd" d="M47.578 94.64a7.577 7.577 0 1 0-15.155 0 7.577 7.577 0 0 0 15.154 0z" clip-rule="evenodd"/></mask></defs><g mask="url(#q)"><path fill="#0c6793" d="M-1000-1000h2000v2000h-2000z"/></g><path fill="none" stroke="#333" stroke-linecap="round" stroke-linejoin="round" stroke-width=".5" d="M47.578 94.64a7.577 7.577 0 1 0-15.155 0 7.577 7.577 0 0 0 15.154 0z"/><defs><mask id="r"><path fill="#fff" fill-rule="evenodd" d="M67.578 94.64a7.577 7.577 0 1 0-15.155 0 7.577 7.577 0 0 0 15.154 0z" clip-rule="evenodd"/></mask></defs><g mask="url(#r)"><path fill="#0c6793" d="M-1000-1000h2000v2000h-2000z"/></g><path fill="none" stroke="#333" stroke-linecap="round" stroke-linejoin="round" stroke-width=".5" d="M67.578 94.64a7.577 7.577 0 1 0-15.155 0 7.577 7.577 0 0 0 15.154 0z"/><defs><mask id="s"><path fill="#fff" fill-rule="evenodd" d="M87.578 94.64a7.577 7.577 0 1 0-15.155 0 7.577 7.577 0 0 0 15.154 0z" clip-rule="evenodd"/></mask></defs><g mask="url(#s)"><path fill="#0c6793" d="M-1000-1000h2000v2000h-2000z"/></g><path fill="none" stroke="#333" stroke-linecap="round" stroke-linejoin="round" stroke-width=".5" d="M87.578 94.64a7.577 7.577 0 1 0-15.155 0 7.577 7.577 0 0 0 15.154 0z"/></g><path fill="none" stroke="#333" stroke-linecap="round" stroke-linejoin="round" stroke-width=".5" d="M0 0h100v120H0z"/></svg>