<svg preserveAspectRatio="xMidYMin slice" viewBox="0 0 120 200" xmlns="http://www.w3.org/2000/svg"><g transform="translate(10 10)"><defs><mask id="a"><path clip-rule="evenodd" d="M0 0h100v120H0z" fill-rule="evenodd" fill="#fff"/></mask></defs><g mask="url(#a)"><path d="M0 0h100v120H0z" fill-rule="evenodd" fill="#f0f0f0"/><path fill="#f6f6f6" style="cursor:pointer" d="M-1000-1000h2000v2000h-2000z"/><defs><mask id="b"><path clip-rule="evenodd" d="M65.75 24c0-8.698-7.052-15.75-15.75-15.75S34.25 15.302 34.25 24 41.302 39.75 50 39.75 65.75 32.698 65.75 24z" fill-rule="evenodd" fill="#fff"/><path d="M65.75 24c0-8.698-7.052-15.75-15.75-15.75S34.25 15.302 34.25 24 41.302 39.75 50 39.75 65.75 32.698 65.75 24z" fill="none" stroke-width=".1" stroke="#fff"/></mask></defs><g mask="url(#b)"><path fill="#0c6793" style="cursor:pointer" d="M-1000-1000h2000v2000h-2000z"/></g><path d="M65.75 24c0-8.698-7.052-15.75-15.75-15.75S34.25 15.302 34.25 24 41.302 39.75 50 39.75 65.75 32.698 65.75 24z" fill="none" stroke-linecap="round" stroke-linejoin="round" stroke-width=".5" stroke="#333"/><defs><mask id="c"><path clip-rule="evenodd" d="M65.75 60c0-8.698-7.052-15.75-15.75-15.75S34.25 51.302 34.25 60 41.302 75.75 50 75.75 65.75 68.698 65.75 60z" fill-rule="evenodd" fill="#fff"/><path d="M65.75 60c0-8.698-7.052-15.75-15.75-15.75S34.25 51.302 34.25 60 41.302 75.75 50 75.75 65.75 68.698 65.75 60z" fill="none" stroke-width=".1" stroke="#fff"/></mask></defs><g mask="url(#c)"><path fill="#0c6793" style="cursor:pointer" d="M-1000-1000h2000v2000h-2000z"/></g><path d="M65.75 60c0-8.698-7.052-15.75-15.75-15.75S34.25 51.302 34.25 60 41.302 75.75 50 75.75 65.75 68.698 65.75 60z" fill="none" stroke-linecap="round" stroke-linejoin="round" stroke-width=".5" stroke="#333"/><defs><mask id="d"><path clip-rule="evenodd" d="M65.75 96c0-8.698-7.052-15.75-15.75-15.75S34.25 87.302 34.25 96s7.052 15.75 15.75 15.75S65.75 104.698 65.75 96z" fill-rule="evenodd" fill="#fff"/><path d="M65.75 96c0-8.698-7.052-15.75-15.75-15.75S34.25 87.302 34.25 96s7.052 15.75 15.75 15.75S65.75 104.698 65.75 96z" fill="none" stroke-width=".1" stroke="#fff"/></mask></defs><g mask="url(#d)"><path fill="#0c6793" style="cursor:pointer" d="M-1000-1000h2000v2000h-2000z"/></g><path d="M65.75 96c0-8.698-7.052-15.75-15.75-15.75S34.25 87.302 34.25 96s7.052 15.75 15.75 15.75S65.75 104.698 65.75 96z" fill="none" stroke-linecap="round" stroke-linejoin="round" stroke-width=".5" stroke="#333"/></g><path d="M0 0h100v120H0z" fill="none" stroke-linecap="round" stroke-linejoin="round" stroke-width=".5" stroke="#333"/></g></svg>