<svg preserveAspectRatio="xMidYMin slice" viewBox="0 0 120 200" xmlns="http://www.w3.org/2000/svg"><g filter="url(#a)" transform="translate(10 10)"><defs><filter height="200%" id="a" width="200%" x="-20%" y="-20%"><feOffset dx=".2" dy=".2" in="SourceAlpha" result="offsetOut"/><feGaussianBlur in="offsetOut" result="blurOut"/><feBlend in2="blurOut" in="SourceGraphic"/></filter></defs><defs><clipPath id="b"><path d="M0 0h100v120H0z" fill="#fff"/></clipPath></defs><g clip-path="url(#b)"><path d="M0 0h100v120H0z" fill="#f0f0f0"/><g style="pointer-events:visiblePainted;cursor:pointer"><path fill="#f6f6f6" d="M-500-500H600V600H-500z"/><defs><mask id="c"><path d="M87.034 31.716a8.75 8.75 0 0 0-17.5 0 8.75 8.75 0 0 0 17.5 0z" fill="#fff"/><path d="M87.034 31.716a8.75 8.75 0 0 0-17.5 0 8.75 8.75 0 0 0 17.5 0z" fill="none" stroke-width=".1" stroke="#fff"/></mask></defs><g mask="url(#c)"><path fill="#0c6793" d="M-500-500H600V600H-500z" style="pointer-events:visiblePainted;cursor:pointer"/></g><path d="M87.034 31.716a8.75 8.75 0 0 0-17.5 0 8.75 8.75 0 0 0 17.5 0z" fill="none" stroke-linecap="round" stroke-linejoin="round" stroke-width=".5" stroke="#333"/><defs><mask id="d"><path d="M72.892 45.858a8.75 8.75 0 0 0-17.5 0 8.75 8.75 0 0 0 17.5 0z" fill="#fff"/><path d="M72.892 45.858a8.75 8.75 0 0 0-17.5 0 8.75 8.75 0 0 0 17.5 0z" fill="none" stroke-width=".1" stroke="#fff"/></mask></defs><g mask="url(#d)"><path fill="#0c6793" d="M-500-500H600V600H-500z" style="pointer-events:visiblePainted;cursor:pointer"/></g><path d="M72.892 45.858a8.75 8.75 0 0 0-17.5 0 8.75 8.75 0 0 0 17.5 0z" fill="none" stroke-linecap="round" stroke-linejoin="round" stroke-width=".5" stroke="#333"/><defs><mask id="e"><path d="M30.466 31.716a8.75 8.75 0 0 0-17.5 0 8.75 8.75 0 0 0 17.5 0z" fill="#fff"/><path d="M30.466 31.716a8.75 8.75 0 0 0-17.5 0 8.75 8.75 0 0 0 17.5 0z" fill="none" stroke-width=".1" stroke="#fff"/></mask></defs><g mask="url(#e)"><path fill="#0c6793" d="M-500-500H600V600H-500z" style="pointer-events:visiblePainted;cursor:pointer"/></g><path d="M30.466 31.716a8.75 8.75 0 0 0-17.5 0 8.75 8.75 0 0 0 17.5 0z" fill="none" stroke-linecap="round" stroke-linejoin="round" stroke-width=".5" stroke="#333"/><defs><mask id="f"><path d="M44.608 45.858a8.75 8.75 0 0 0-17.5 0 8.75 8.75 0 0 0 17.5 0z" fill="#fff"/><path d="M44.608 45.858a8.75 8.75 0 0 0-17.5 0 8.75 8.75 0 0 0 17.5 0z" fill="none" stroke-width=".1" stroke="#fff"/></mask></defs><g mask="url(#f)"><path fill="#0c6793" d="M-500-500H600V600H-500z" style="pointer-events:visiblePainted;cursor:pointer"/></g><path d="M44.608 45.858a8.75 8.75 0 0 0-17.5 0 8.75 8.75 0 0 0 17.5 0z" fill="none" stroke-linecap="round" stroke-linejoin="round" stroke-width=".5" stroke="#333"/><defs><mask id="g"><path d="M58.75 60a8.75 8.75 0 0 0-17.5 0 8.75 8.75 0 0 0 17.5 0z" fill="#fff"/><path d="M58.75 60a8.75 8.75 0 0 0-17.5 0 8.75 8.75 0 0 0 17.5 0z" fill="none" stroke-width=".1" stroke="#fff"/></mask></defs><g mask="url(#g)"><path fill="#0c6793" d="M-500-500H600V600H-500z" style="pointer-events:visiblePainted;cursor:pointer"/></g><path d="M58.75 60a8.75 8.75 0 0 0-17.5 0 8.75 8.75 0 0 0 17.5 0z" fill="none" stroke-linecap="round" stroke-linejoin="round" stroke-width=".5" stroke="#333"/><defs><mask id="h"><path d="M72.892 74.142a8.75 8.75 0 0 0-17.5 0 8.75 8.75 0 0 0 17.5 0z" fill="#fff"/><path d="M72.892 74.142a8.75 8.75 0 0 0-17.5 0 8.75 8.75 0 0 0 17.5 0z" fill="none" stroke-width=".1" stroke="#fff"/></mask></defs><g mask="url(#h)"><path fill="#0c6793" d="M-500-500H600V600H-500z" style="pointer-events:visiblePainted;cursor:pointer"/></g><path d="M72.892 74.142a8.75 8.75 0 0 0-17.5 0 8.75 8.75 0 0 0 17.5 0z" fill="none" stroke-linecap="round" stroke-linejoin="round" stroke-width=".5" stroke="#333"/><defs><mask id="i"><path d="M87.034 88.284a8.75 8.75 0 0 0-17.5 0 8.75 8.75 0 0 0 17.5 0z" fill="#fff"/><path d="M87.034 88.284a8.75 8.75 0 0 0-17.5 0 8.75 8.75 0 0 0 17.5 0z" fill="none" stroke-width=".1" stroke="#fff"/></mask></defs><g mask="url(#i)"><path fill="#0c6793" d="M-500-500H600V600H-500z" style="pointer-events:visiblePainted;cursor:pointer"/></g><path d="M87.034 88.284a8.75 8.75 0 0 0-17.5 0 8.75 8.75 0 0 0 17.5 0z" fill="none" stroke-linecap="round" stroke-linejoin="round" stroke-width=".5" stroke="#333"/><defs><mask id="j"><path d="M44.608 74.142a8.75 8.75 0 0 0-17.5 0 8.75 8.75 0 0 0 17.5 0z" fill="#fff"/><path d="M44.608 74.142a8.75 8.75 0 0 0-17.5 0 8.75 8.75 0 0 0 17.5 0z" fill="none" stroke-width=".1" stroke="#fff"/></mask></defs><g mask="url(#j)"><path fill="#0c6793" d="M-500-500H600V600H-500z" style="pointer-events:visiblePainted;cursor:pointer"/></g><path d="M44.608 74.142a8.75 8.75 0 0 0-17.5 0 8.75 8.75 0 0 0 17.5 0z" fill="none" stroke-linecap="round" stroke-linejoin="round" stroke-width=".5" stroke="#333"/><defs><mask id="k"><path d="M30.466 88.284a8.75 8.75 0 0 0-17.5 0 8.75 8.75 0 0 0 17.5 0z" fill="#fff"/><path d="M30.466 88.284a8.75 8.75 0 0 0-17.5 0 8.75 8.75 0 0 0 17.5 0z" fill="none" stroke-width=".1" stroke="#fff"/></mask></defs><g mask="url(#k)"><path fill="#0c6793" d="M-500-500H600V600H-500z" style="pointer-events:visiblePainted;cursor:pointer"/></g><path d="M30.466 88.284a8.75 8.75 0 0 0-17.5 0 8.75 8.75 0 0 0 17.5 0z" fill="none" stroke-linecap="round" stroke-linejoin="round" stroke-width=".5" stroke="#333"/></g></g><path d="M0 0h100v120H0z" fill="none" stroke-linecap="round" stroke-linejoin="round" stroke-width=".5" stroke="#333"/></g></svg>