<?xml version="1.0" encoding="UTF-8" standalone="no"?>
<svg xmlns="http://www.w3.org/2000/svg" preserveAspectRatio="xMidYMin slice" viewBox="-10 -10 120 140"><defs><mask id="a"><path fill="#fff" fill-rule="evenodd" d="M0 0h100v120H0z" clip-rule="evenodd"/></mask></defs><g mask="url(#a)"><path fill="#f0f0f0" fill-rule="evenodd" d="M0 0h100v120H0z"/><path fill="#f6f6f6" d="M-1000-1000h2000v2000h-2000z"/><defs><mask id="b"><path fill="#fff" fill-rule="evenodd" d="M63.58 30.456a8.371 8.371 0 1 0-16.742 0 8.371 8.371 0 0 0 16.743 0z" clip-rule="evenodd"/></mask></defs><g mask="url(#b)"><path fill="#0c6793" d="M-1000-1000h2000v2000h-2000z"/></g><path fill="none" stroke="#333" stroke-linecap="round" stroke-linejoin="round" stroke-width=".5" d="M63.58 30.456a8.371 8.371 0 1 0-16.742 0 8.371 8.371 0 0 0 16.743 0z"/><defs><mask id="c"><path fill="#fff" fill-rule="evenodd" d="M82.946 42.793a8.371 8.371 0 1 0-16.743 0 8.371 8.371 0 0 0 16.743 0z" clip-rule="evenodd"/></mask></defs><g mask="url(#c)"><path fill="#0c6793" d="M-1000-1000h2000v2000h-2000z"/></g><path fill="none" stroke="#333" stroke-linecap="round" stroke-linejoin="round" stroke-width=".5" d="M82.946 42.793a8.371 8.371 0 1 0-16.743 0 8.371 8.371 0 0 0 16.743 0z"/><defs><mask id="d"><path fill="#fff" fill-rule="evenodd" d="M87.915 65.21a8.371 8.371 0 1 0-16.742 0 8.371 8.371 0 0 0 16.742 0z" clip-rule="evenodd"/></mask></defs><g mask="url(#d)"><path fill="#0c6793" d="M-1000-1000h2000v2000h-2000z"/></g><path fill="none" stroke="#333" stroke-linecap="round" stroke-linejoin="round" stroke-width=".5" d="M87.915 65.21a8.371 8.371 0 1 0-16.742 0 8.371 8.371 0 0 0 16.742 0z"/><defs><mask id="e"><path fill="#fff" fill-rule="evenodd" d="M75.578 84.575a8.371 8.371 0 1 0-16.742 0 8.371 8.371 0 0 0 16.742 0z" clip-rule="evenodd"/></mask></defs><g mask="url(#e)"><path fill="#0c6793" d="M-1000-1000h2000v2000h-2000z"/></g><path fill="none" stroke="#333" stroke-linecap="round" stroke-linejoin="round" stroke-width=".5" d="M75.578 84.575a8.371 8.371 0 1 0-16.742 0 8.371 8.371 0 0 0 16.742 0z"/><defs><mask id="f"><path fill="#fff" fill-rule="evenodd" d="M53.162 89.544a8.371 8.371 0 1 0-16.743 0 8.371 8.371 0 0 0 16.743 0z" clip-rule="evenodd"/></mask></defs><g mask="url(#f)"><path fill="#0c6793" d="M-1000-1000h2000v2000h-2000z"/></g><path fill="none" stroke="#333" stroke-linecap="round" stroke-linejoin="round" stroke-width=".5" d="M53.162 89.544a8.371 8.371 0 1 0-16.743 0 8.371 8.371 0 0 0 16.743 0z"/></g><path fill="none" stroke="#333" stroke-linecap="round" stroke-linejoin="round" stroke-width=".5" d="M0 0h100v120H0z"/></svg>