<svg preserveAspectRatio="xMidYMin slice" viewBox="0 0 120 200" xmlns="http://www.w3.org/2000/svg"><g filter="url(#a)" transform="translate(10 10)"><defs><filter height="200%" id="a" width="200%" x="-20%" y="-20%"><feOffset dx=".2" dy=".2" in="SourceAlpha" result="offsetOut"/><feGaussianBlur in="offsetOut" result="blurOut"/><feBlend in2="blurOut" in="SourceGraphic"/></filter></defs><defs><clipPath id="b"><path clip-rule="evenodd" d="M0 0h100v120H0z" fill-rule="evenodd" fill="#fff"/></clipPath></defs><g clip-path="url(#b)"><path d="M0 0h100v120H0z" fill-rule="evenodd" fill="#f0f0f0"/><g style="pointer-events:visiblePainted;cursor:pointer"><path fill="#f6f6f6" style="cursor:pointer" d="M-500-500H600V600H-500z"/><defs><clipPath id="c"><path clip-rule="evenodd" d="M45.254 20.509h9.492V39.49h-9.492z" fill-rule="evenodd" fill="#fff"/></clipPath></defs><g style="pointer-events:visiblePainted;cursor:pointer" clip-path="url(#c)"><path fill="#0c6793" style="cursor:pointer" d="M-500-500H600V600H-500z"/></g><path d="M45.254 20.509h9.492V39.49h-9.492z" fill="none" stroke-linecap="round" stroke-linejoin="round" stroke-width=".5" stroke="#333"/><defs><clipPath id="d"><path clip-rule="evenodd" d="m77.917 31.667 5.917 7.42-14.84 11.836-5.918-7.42z" fill-rule="evenodd" fill="#fff"/></clipPath></defs><g style="pointer-events:visiblePainted;cursor:pointer" clip-path="url(#d)"><path fill="#0c6793" style="cursor:pointer" d="M-500-500H600V600H-500z"/></g><path d="m77.917 31.667 5.917 7.42-14.84 11.836-5.918-7.42z" fill="none" stroke-linecap="round" stroke-linejoin="round" stroke-width=".5" stroke="#333"/><defs><clipPath id="e"><path clip-rule="evenodd" d="m89.557 64.161-2.112 9.253L68.94 69.19l2.112-9.253z" fill-rule="evenodd" fill="#fff"/></clipPath></defs><g style="pointer-events:visiblePainted;cursor:pointer" clip-path="url(#e)"><path fill="#0c6793" style="cursor:pointer" d="M-500-500H600V600H-500z"/></g><path d="m89.557 64.161-2.112 9.253L68.94 69.19l2.112-9.253z" fill="none" stroke-linecap="round" stroke-linejoin="round" stroke-width=".5" stroke="#333"/><defs><clipPath id="f"><path clip-rule="evenodd" d="m71.41 93.521-8.55 4.119-8.236-17.102 8.551-4.118z" fill-rule="evenodd" fill="#fff"/></clipPath></defs><g style="pointer-events:visiblePainted;cursor:pointer" clip-path="url(#f)"><path fill="#0c6793" style="cursor:pointer" d="M-500-500H600V600H-500z"/></g><path d="m71.41 93.521-8.55 4.119-8.236-17.102 8.551-4.118z" fill="none" stroke-linecap="round" stroke-linejoin="round" stroke-width=".5" stroke="#333"/><defs><clipPath id="g"><path clip-rule="evenodd" d="m37.141 97.64-8.551-4.12 8.236-17.102 8.551 4.118z" fill-rule="evenodd" fill="#fff"/></clipPath></defs><g style="pointer-events:visiblePainted;cursor:pointer" clip-path="url(#g)"><path fill="#0c6793" style="cursor:pointer" d="M-500-500H600V600H-500z"/></g><path d="m37.141 97.64-8.551-4.12 8.236-17.102 8.551 4.118z" fill="none" stroke-linecap="round" stroke-linejoin="round" stroke-width=".5" stroke="#333"/><defs><clipPath id="h"><path clip-rule="evenodd" d="m12.555 73.414-2.112-9.253 18.506-4.224 2.112 9.253z" fill-rule="evenodd" fill="#fff"/></clipPath></defs><g style="pointer-events:visiblePainted;cursor:pointer" clip-path="url(#h)"><path fill="#0c6793" style="cursor:pointer" d="M-500-500H600V600H-500z"/></g><path d="m12.555 73.414-2.112-9.253 18.506-4.224 2.112 9.253z" fill="none" stroke-linecap="round" stroke-linejoin="round" stroke-width=".5" stroke="#333"/><defs><clipPath id="i"><path clip-rule="evenodd" d="m16.166 39.088 5.917-7.42 14.841 11.835-5.917 7.42z" fill-rule="evenodd" fill="#fff"/></clipPath></defs><g style="pointer-events:visiblePainted;cursor:pointer" clip-path="url(#i)"><path fill="#0c6793" style="cursor:pointer" d="M-500-500H600V600H-500z"/></g><path d="m16.166 39.088 5.917-7.42 14.841 11.835-5.917 7.42z" fill="none" stroke-linecap="round" stroke-linejoin="round" stroke-width=".5" stroke="#333"/></g></g><path d="M0 0h100v120H0z" fill="none" stroke-linecap="round" stroke-linejoin="round" stroke-width=".5" stroke="#333"/></g></svg>