<?xml version="1.0" encoding="UTF-8" standalone="no"?>
<svg xmlns="http://www.w3.org/2000/svg" preserveAspectRatio="xMidYMin slice" viewBox="-10 -10 120 140"><defs><mask id="a"><path fill="#fff" fill-rule="evenodd" d="M0 0h100v120H0z" clip-rule="evenodd"/></mask></defs><g mask="url(#a)"><path fill="#f0f0f0" fill-rule="evenodd" d="M0 0h100v120H0z"/><path fill="#f6f6f6" d="M-1000-1000h2000v2000h-2000z"/><defs><mask id="b"><path fill="#fff" fill-rule="evenodd" d="M87.5 60c0-20.71-16.79-37.5-37.5-37.5S12.5 39.29 12.5 60 29.29 97.5 50 97.5 87.5 80.71 87.5 60zm-15 0c0-12.426-10.074-22.5-22.5-22.5S27.5 47.574 27.5 60 37.574 82.5 50 82.5 72.5 72.426 72.5 60z" clip-rule="evenodd"/></mask></defs><g mask="url(#b)"><path fill="#f2bc51" d="M-1000-1000h2000v2000h-2000z"/></g><g fill="none" stroke="#333" stroke-linecap="round" stroke-linejoin="round" stroke-width=".5"><path d="M87.5 60c0-20.71-16.79-37.5-37.5-37.5S12.5 39.29 12.5 60 29.29 97.5 50 97.5 87.5 80.71 87.5 60z"/><path d="M72.5 60c0-12.426-10.074-22.5-22.5-22.5S27.5 47.574 27.5 60 37.574 82.5 50 82.5 72.5 72.426 72.5 60z"/></g></g><path fill="none" stroke="#333" stroke-linecap="round" stroke-linejoin="round" stroke-width=".5" d="M0 0h100v120H0z"/></svg>