<svg preserveAspectRatio="xMidYMin slice" viewBox="-10 -10 120 140" xmlns="http://www.w3.org/2000/svg"><defs><mask id="a"><path clip-rule="evenodd" d="M0 0h100v120H0z" fill-rule="evenodd" fill="#fff"/></mask></defs><g mask="url(#a)"><path d="M0 0h100v120H0z" fill-rule="evenodd" fill="#f0f0f0"/><path fill="#f6f6f6" style="cursor:pointer" d="M-1000-1000h2000v2000h-2000z"/><defs><mask id="b"><path clip-rule="evenodd" d="m50 15 34.615 45L50 105 15.385 60zm17.308 45c0-9.559-7.75-17.308-17.308-17.308-9.559 0-17.308 7.75-17.308 17.308 0 9.559 7.75 17.308 17.308 17.308 9.559 0 17.308-7.75 17.308-17.308z" fill-rule="evenodd" fill="#fff"/></mask></defs><g mask="url(#b)"><path fill="#0c6793" style="cursor:pointer" d="M-1000-1000h2000v2000h-2000z"/></g><g fill="none" stroke-linecap="round" stroke-linejoin="round" stroke-width=".5" stroke="#333"><path d="m50 15 34.615 45L50 105 15.385 60z"/><path d="M67.308 60c0-9.559-7.75-17.308-17.308-17.308-9.559 0-17.308 7.75-17.308 17.308 0 9.559 7.75 17.308 17.308 17.308 9.559 0 17.308-7.75 17.308-17.308z"/></g></g><path d="M0 0h100v120H0z" fill="none" stroke-linecap="round" stroke-linejoin="round" stroke-width=".5" stroke="#333"/></svg>