<?xml version="1.0" encoding="UTF-8" standalone="no"?>
<svg xmlns="http://www.w3.org/2000/svg" preserveAspectRatio="xMidYMin slice" viewBox="-10 -10 120 140"><defs><mask id="a"><path fill="#fff" fill-rule="evenodd" d="M0 0h100v120H0z" clip-rule="evenodd"/></mask></defs><g mask="url(#a)"><path fill="#f0f0f0" fill-rule="evenodd" d="M0 0h100v120H0z"/><path fill="#f6f6f6" d="M-1000-1000h2000v2000h-2000z"/><defs><mask id="b"><path fill="#fff" fill-rule="evenodd" d="M65.75 24c0-8.698-7.052-15.75-15.75-15.75S34.25 15.302 34.25 24 41.302 39.75 50 39.75 65.75 32.698 65.75 24z" clip-rule="evenodd"/></mask></defs><g mask="url(#b)"><path fill="#0c6793" d="M-1000-1000h2000v2000h-2000z"/></g><path fill="none" stroke="#333" stroke-linecap="round" stroke-linejoin="round" stroke-width=".5" d="M65.75 24c0-8.698-7.052-15.75-15.75-15.75S34.25 15.302 34.25 24 41.302 39.75 50 39.75 65.75 32.698 65.75 24z"/><defs><mask id="c"><path fill="#fff" fill-rule="evenodd" d="M65.75 60c0-8.698-7.052-15.75-15.75-15.75S34.25 51.302 34.25 60 41.302 75.75 50 75.75 65.75 68.698 65.75 60z" clip-rule="evenodd"/></mask></defs><g mask="url(#c)"><path fill="#0c6793" d="M-1000-1000h2000v2000h-2000z"/></g><path fill="none" stroke="#333" stroke-linecap="round" stroke-linejoin="round" stroke-width=".5" d="M65.75 60c0-8.698-7.052-15.75-15.75-15.75S34.25 51.302 34.25 60 41.302 75.75 50 75.75 65.75 68.698 65.75 60z"/><defs><mask id="d"><path fill="#fff" fill-rule="evenodd" d="M65.75 96c0-8.698-7.052-15.75-15.75-15.75S34.25 87.302 34.25 96s7.052 15.75 15.75 15.75S65.75 104.698 65.75 96z" clip-rule="evenodd"/></mask></defs><g mask="url(#d)"><path fill="#0c6793" d="M-1000-1000h2000v2000h-2000z"/></g><path fill="none" stroke="#333" stroke-linecap="round" stroke-linejoin="round" stroke-width=".5" d="M65.75 96c0-8.698-7.052-15.75-15.75-15.75S34.25 87.302 34.25 96s7.052 15.75 15.75 15.75S65.75 104.698 65.75 96z"/></g><path fill="none" stroke="#333" stroke-linecap="round" stroke-linejoin="round" stroke-width=".5" d="M0 0h100v120H0z"/></svg>