<svg preserveAspectRatio="xMidYMin slice" viewBox="0 0 120 200" xmlns="http://www.w3.org/2000/svg"><g filter="url(#a)" transform="translate(10 10)"><defs><filter height="200%" id="a" width="200%" x="-20%" y="-20%"><feOffset dx=".2" dy=".2" in="SourceAlpha" result="offsetOut"/><feGaussianBlur in="offsetOut" result="blurOut"/><feBlend in2="blurOut" in="SourceGraphic"/></filter></defs><defs><clipPath id="b"><path clip-rule="evenodd" d="M0 0h100v120H0z" fill-rule="evenodd" fill="#fff"/></clipPath></defs><g clip-path="url(#b)"><path d="M0 0h100v120H0z" fill-rule="evenodd" fill="#f0f0f0"/><g style="pointer-events:visiblePainted;cursor:pointer"><path fill="#f6f6f6" style="cursor:pointer" d="M-500-500H600V600H-500z"/><defs><clipPath id="c"><path clip-rule="evenodd" d="M27.578 25.36a7.577 7.577 0 0 0-15.155 0 7.577 7.577 0 0 0 15.155 0z" fill-rule="evenodd" fill="#fff"/></clipPath></defs><g style="pointer-events:visiblePainted;cursor:pointer" clip-path="url(#c)"><path fill="#0c6793" style="cursor:pointer" d="M-500-500H600V600H-500z"/></g><path d="M27.578 25.36a7.577 7.577 0 0 0-15.155 0 7.577 7.577 0 0 0 15.155 0z" fill="none" stroke-linecap="round" stroke-linejoin="round" stroke-width=".5" stroke="#333"/><defs><clipPath id="d"><path clip-rule="evenodd" d="M47.578 25.36a7.577 7.577 0 0 0-15.155 0 7.577 7.577 0 0 0 15.154 0z" fill-rule="evenodd" fill="#fff"/></clipPath></defs><g style="pointer-events:visiblePainted;cursor:pointer" clip-path="url(#d)"><path fill="#0c6793" style="cursor:pointer" d="M-500-500H600V600H-500z"/></g><path d="M47.578 25.36a7.577 7.577 0 0 0-15.155 0 7.577 7.577 0 0 0 15.154 0z" fill="none" stroke-linecap="round" stroke-linejoin="round" stroke-width=".5" stroke="#333"/><defs><clipPath id="e"><path clip-rule="evenodd" d="M67.578 25.36a7.577 7.577 0 0 0-15.155 0 7.577 7.577 0 0 0 15.154 0z" fill-rule="evenodd" fill="#fff"/></clipPath></defs><g style="pointer-events:visiblePainted;cursor:pointer" clip-path="url(#e)"><path fill="#0c6793" style="cursor:pointer" d="M-500-500H600V600H-500z"/></g><path d="M67.578 25.36a7.577 7.577 0 0 0-15.155 0 7.577 7.577 0 0 0 15.154 0z" fill="none" stroke-linecap="round" stroke-linejoin="round" stroke-width=".5" stroke="#333"/><defs><clipPath id="f"><path clip-rule="evenodd" d="M87.578 25.36a7.577 7.577 0 0 0-15.155 0 7.577 7.577 0 0 0 15.154 0z" fill-rule="evenodd" fill="#fff"/></clipPath></defs><g style="pointer-events:visiblePainted;cursor:pointer" clip-path="url(#f)"><path fill="#0c6793" style="cursor:pointer" d="M-500-500H600V600H-500z"/></g><path d="M87.578 25.36a7.577 7.577 0 0 0-15.155 0 7.577 7.577 0 0 0 15.154 0z" fill="none" stroke-linecap="round" stroke-linejoin="round" stroke-width=".5" stroke="#333"/><defs><clipPath id="g"><path clip-rule="evenodd" d="M37.578 42.68a7.577 7.577 0 0 0-15.155 0 7.577 7.577 0 0 0 15.155 0z" fill-rule="evenodd" fill="#fff"/></clipPath></defs><g style="pointer-events:visiblePainted;cursor:pointer" clip-path="url(#g)"><path fill="#0c6793" style="cursor:pointer" d="M-500-500H600V600H-500z"/></g><path d="M37.578 42.68a7.577 7.577 0 0 0-15.155 0 7.577 7.577 0 0 0 15.155 0z" fill="none" stroke-linecap="round" stroke-linejoin="round" stroke-width=".5" stroke="#333"/><defs><clipPath id="h"><path clip-rule="evenodd" d="M57.578 42.68a7.577 7.577 0 0 0-15.155 0 7.577 7.577 0 0 0 15.154 0z" fill-rule="evenodd" fill="#fff"/></clipPath></defs><g style="pointer-events:visiblePainted;cursor:pointer" clip-path="url(#h)"><path fill="#0c6793" style="cursor:pointer" d="M-500-500H600V600H-500z"/></g><path d="M57.578 42.68a7.577 7.577 0 0 0-15.155 0 7.577 7.577 0 0 0 15.154 0z" fill="none" stroke-linecap="round" stroke-linejoin="round" stroke-width=".5" stroke="#333"/><defs><clipPath id="i"><path clip-rule="evenodd" d="M77.578 42.68a7.577 7.577 0 0 0-15.155 0 7.577 7.577 0 0 0 15.154 0z" fill-rule="evenodd" fill="#fff"/></clipPath></defs><g style="pointer-events:visiblePainted;cursor:pointer" clip-path="url(#i)"><path fill="#0c6793" style="cursor:pointer" d="M-500-500H600V600H-500z"/></g><path d="M77.578 42.68a7.577 7.577 0 0 0-15.155 0 7.577 7.577 0 0 0 15.154 0z" fill="none" stroke-linecap="round" stroke-linejoin="round" stroke-width=".5" stroke="#333"/><defs><clipPath id="j"><path clip-rule="evenodd" d="M27.578 60a7.577 7.577 0 0 0-15.155 0 7.577 7.577 0 0 0 15.155 0z" fill-rule="evenodd" fill="#fff"/></clipPath></defs><g style="pointer-events:visiblePainted;cursor:pointer" clip-path="url(#j)"><path fill="#0c6793" style="cursor:pointer" d="M-500-500H600V600H-500z"/></g><path d="M27.578 60a7.577 7.577 0 0 0-15.155 0 7.577 7.577 0 0 0 15.155 0z" fill="none" stroke-linecap="round" stroke-linejoin="round" stroke-width=".5" stroke="#333"/><defs><clipPath id="k"><path clip-rule="evenodd" d="M47.578 60a7.577 7.577 0 0 0-15.155 0 7.577 7.577 0 0 0 15.154 0z" fill-rule="evenodd" fill="#fff"/></clipPath></defs><g style="pointer-events:visiblePainted;cursor:pointer" clip-path="url(#k)"><path fill="#0c6793" style="cursor:pointer" d="M-500-500H600V600H-500z"/></g><path d="M47.578 60a7.577 7.577 0 0 0-15.155 0 7.577 7.577 0 0 0 15.154 0z" fill="none" stroke-linecap="round" stroke-linejoin="round" stroke-width=".5" stroke="#333"/><defs><clipPath id="l"><path clip-rule="evenodd" d="M67.578 60a7.577 7.577 0 0 0-15.155 0 7.577 7.577 0 0 0 15.154 0z" fill-rule="evenodd" fill="#fff"/></clipPath></defs><g style="pointer-events:visiblePainted;cursor:pointer" clip-path="url(#l)"><path fill="#0c6793" style="cursor:pointer" d="M-500-500H600V600H-500z"/></g><path d="M67.578 60a7.577 7.577 0 0 0-15.155 0 7.577 7.577 0 0 0 15.154 0z" fill="none" stroke-linecap="round" stroke-linejoin="round" stroke-width=".5" stroke="#333"/><defs><clipPath id="m"><path clip-rule="evenodd" d="M87.578 60a7.577 7.577 0 0 0-15.155 0 7.577 7.577 0 0 0 15.154 0z" fill-rule="evenodd" fill="#fff"/></clipPath></defs><g style="pointer-events:visiblePainted;cursor:pointer" clip-path="url(#m)"><path fill="#0c6793" style="cursor:pointer" d="M-500-500H600V600H-500z"/></g><path d="M87.578 60a7.577 7.577 0 0 0-15.155 0 7.577 7.577 0 0 0 15.154 0z" fill="none" stroke-linecap="round" stroke-linejoin="round" stroke-width=".5" stroke="#333"/><defs><clipPath id="n"><path clip-rule="evenodd" d="M37.578 77.32a7.577 7.577 0 0 0-15.155 0 7.577 7.577 0 0 0 15.155 0z" fill-rule="evenodd" fill="#fff"/></clipPath></defs><g style="pointer-events:visiblePainted;cursor:pointer" clip-path="url(#n)"><path fill="#0c6793" style="cursor:pointer" d="M-500-500H600V600H-500z"/></g><path d="M37.578 77.32a7.577 7.577 0 0 0-15.155 0 7.577 7.577 0 0 0 15.155 0z" fill="none" stroke-linecap="round" stroke-linejoin="round" stroke-width=".5" stroke="#333"/><defs><clipPath id="o"><path clip-rule="evenodd" d="M57.578 77.32a7.577 7.577 0 0 0-15.155 0 7.577 7.577 0 0 0 15.154 0z" fill-rule="evenodd" fill="#fff"/></clipPath></defs><g style="pointer-events:visiblePainted;cursor:pointer" clip-path="url(#o)"><path fill="#0c6793" style="cursor:pointer" d="M-500-500H600V600H-500z"/></g><path d="M57.578 77.32a7.577 7.577 0 0 0-15.155 0 7.577 7.577 0 0 0 15.154 0z" fill="none" stroke-linecap="round" stroke-linejoin="round" stroke-width=".5" stroke="#333"/><defs><clipPath id="p"><path clip-rule="evenodd" d="M77.578 77.32a7.577 7.577 0 0 0-15.155 0 7.577 7.577 0 0 0 15.154 0z" fill-rule="evenodd" fill="#fff"/></clipPath></defs><g style="pointer-events:visiblePainted;cursor:pointer" clip-path="url(#p)"><path fill="#0c6793" style="cursor:pointer" d="M-500-500H600V600H-500z"/></g><path d="M77.578 77.32a7.577 7.577 0 0 0-15.155 0 7.577 7.577 0 0 0 15.154 0z" fill="none" stroke-linecap="round" stroke-linejoin="round" stroke-width=".5" stroke="#333"/><defs><clipPath id="q"><path clip-rule="evenodd" d="M27.578 94.64a7.577 7.577 0 0 0-15.155 0 7.577 7.577 0 0 0 15.155 0z" fill-rule="evenodd" fill="#fff"/></clipPath></defs><g style="pointer-events:visiblePainted;cursor:pointer" clip-path="url(#q)"><path fill="#0c6793" style="cursor:pointer" d="M-500-500H600V600H-500z"/></g><path d="M27.578 94.64a7.577 7.577 0 0 0-15.155 0 7.577 7.577 0 0 0 15.155 0z" fill="none" stroke-linecap="round" stroke-linejoin="round" stroke-width=".5" stroke="#333"/><defs><clipPath id="r"><path clip-rule="evenodd" d="M47.578 94.64a7.577 7.577 0 0 0-15.155 0 7.577 7.577 0 0 0 15.154 0z" fill-rule="evenodd" fill="#fff"/></clipPath></defs><g style="pointer-events:visiblePainted;cursor:pointer" clip-path="url(#r)"><path fill="#0c6793" style="cursor:pointer" d="M-500-500H600V600H-500z"/></g><path d="M47.578 94.64a7.577 7.577 0 0 0-15.155 0 7.577 7.577 0 0 0 15.154 0z" fill="none" stroke-linecap="round" stroke-linejoin="round" stroke-width=".5" stroke="#333"/><defs><clipPath id="s"><path clip-rule="evenodd" d="M67.578 94.64a7.577 7.577 0 0 0-15.155 0 7.577 7.577 0 0 0 15.154 0z" fill-rule="evenodd" fill="#fff"/></clipPath></defs><g style="pointer-events:visiblePainted;cursor:pointer" clip-path="url(#s)"><path fill="#0c6793" style="cursor:pointer" d="M-500-500H600V600H-500z"/></g><path d="M67.578 94.64a7.577 7.577 0 0 0-15.155 0 7.577 7.577 0 0 0 15.154 0z" fill="none" stroke-linecap="round" stroke-linejoin="round" stroke-width=".5" stroke="#333"/><defs><clipPath id="t"><path clip-rule="evenodd" d="M87.578 94.64a7.577 7.577 0 0 0-15.155 0 7.577 7.577 0 0 0 15.154 0z" fill-rule="evenodd" fill="#fff"/></clipPath></defs><g style="pointer-events:visiblePainted;cursor:pointer" clip-path="url(#t)"><path fill="#0c6793" style="cursor:pointer" d="M-500-500H600V600H-500z"/></g><path d="M87.578 94.64a7.577 7.577 0 0 0-15.155 0 7.577 7.577 0 0 0 15.154 0z" fill="none" stroke-linecap="round" stroke-linejoin="round" stroke-width=".5" stroke="#333"/></g></g><path d="M0 0h100v120H0z" fill="none" stroke-linecap="round" stroke-linejoin="round" stroke-width=".5" stroke="#333"/></g></svg>