<?xml version="1.0" encoding="UTF-8" standalone="no"?>
<svg xmlns="http://www.w3.org/2000/svg" viewBox="-10 -10 120 140" preserveAspectRatio="xMidYMin slice"><defs><mask id="a"><path d="M0 0h100v120H0z" clip-rule="evenodd" fill-rule="evenodd" fill="#fff"/></mask></defs><g mask="url(#a)"><path d="M0 0h100v120H0z" fill-rule="evenodd" fill="#f0f0f0"/><path fill="#f6f6f6" style="cursor:pointer" d="M-1000-1000h2000v2000h-2000z"/><defs><mask id="b"><path d="M23.438 26a7.437 7.437 0 1 0-14.875 0 7.437 7.437 0 0 0 14.874 0z" clip-rule="evenodd" fill-rule="evenodd" fill="#fff"/></mask></defs><g mask="url(#b)"><path fill="#0c6793" style="cursor:pointer" d="M-1000-1000h2000v2000h-2000z"/></g><path d="M23.438 26a7.437 7.437 0 1 0-14.875 0 7.437 7.437 0 0 0 14.874 0z" stroke="#333" stroke-width=".5" fill="none" stroke-linecap="round" stroke-linejoin="round"/><defs><mask id="c"><path d="M40.438 26a7.437 7.437 0 1 0-14.875 0 7.437 7.437 0 0 0 14.875 0z" clip-rule="evenodd" fill-rule="evenodd" fill="#fff"/></mask></defs><g mask="url(#c)"><path fill="#0c6793" style="cursor:pointer" d="M-1000-1000h2000v2000h-2000z"/></g><path d="M40.438 26a7.437 7.437 0 1 0-14.875 0 7.437 7.437 0 0 0 14.875 0z" stroke="#333" stroke-width=".5" fill="none" stroke-linecap="round" stroke-linejoin="round"/><defs><mask id="d"><path d="M57.438 26a7.437 7.437 0 1 0-14.875 0 7.437 7.437 0 0 0 14.874 0z" clip-rule="evenodd" fill-rule="evenodd" fill="#fff"/></mask></defs><g mask="url(#d)"><path fill="#0c6793" style="cursor:pointer" d="M-1000-1000h2000v2000h-2000z"/></g><path d="M57.438 26a7.437 7.437 0 1 0-14.875 0 7.437 7.437 0 0 0 14.874 0z" stroke="#333" stroke-width=".5" fill="none" stroke-linecap="round" stroke-linejoin="round"/><defs><mask id="e"><path d="M74.438 26a7.437 7.437 0 1 0-14.875 0 7.437 7.437 0 0 0 14.874 0z" clip-rule="evenodd" fill-rule="evenodd" fill="#fff"/></mask></defs><g mask="url(#e)"><path fill="#0c6793" style="cursor:pointer" d="M-1000-1000h2000v2000h-2000z"/></g><path d="M74.438 26a7.437 7.437 0 1 0-14.875 0 7.437 7.437 0 0 0 14.874 0z" stroke="#333" stroke-width=".5" fill="none" stroke-linecap="round" stroke-linejoin="round"/><defs><mask id="f"><path d="M91.438 26a7.437 7.437 0 1 0-14.875 0 7.437 7.437 0 0 0 14.874 0z" clip-rule="evenodd" fill-rule="evenodd" fill="#fff"/></mask></defs><g mask="url(#f)"><path fill="#0c6793" style="cursor:pointer" d="M-1000-1000h2000v2000h-2000z"/></g><path d="M91.438 26a7.437 7.437 0 1 0-14.875 0 7.437 7.437 0 0 0 14.874 0z" stroke="#333" stroke-width=".5" fill="none" stroke-linecap="round" stroke-linejoin="round"/><defs><mask id="g"><path d="M23.438 43a7.437 7.437 0 1 0-14.875 0 7.437 7.437 0 0 0 14.874 0z" clip-rule="evenodd" fill-rule="evenodd" fill="#fff"/></mask></defs><g mask="url(#g)"><path fill="#0c6793" style="cursor:pointer" d="M-1000-1000h2000v2000h-2000z"/></g><path d="M23.438 43a7.437 7.437 0 1 0-14.875 0 7.437 7.437 0 0 0 14.874 0z" stroke="#333" stroke-width=".5" fill="none" stroke-linecap="round" stroke-linejoin="round"/><defs><mask id="h"><path d="M91.438 43a7.437 7.437 0 1 0-14.875 0 7.437 7.437 0 0 0 14.874 0z" clip-rule="evenodd" fill-rule="evenodd" fill="#fff"/></mask></defs><g mask="url(#h)"><path fill="#0c6793" style="cursor:pointer" d="M-1000-1000h2000v2000h-2000z"/></g><path d="M91.438 43a7.437 7.437 0 1 0-14.875 0 7.437 7.437 0 0 0 14.874 0z" stroke="#333" stroke-width=".5" fill="none" stroke-linecap="round" stroke-linejoin="round"/><defs><mask id="i"><path d="M23.438 60a7.437 7.437 0 1 0-14.875 0 7.437 7.437 0 0 0 14.874 0z" clip-rule="evenodd" fill-rule="evenodd" fill="#fff"/></mask></defs><g mask="url(#i)"><path fill="#0c6793" style="cursor:pointer" d="M-1000-1000h2000v2000h-2000z"/></g><path d="M23.438 60a7.437 7.437 0 1 0-14.875 0 7.437 7.437 0 0 0 14.874 0z" stroke="#333" stroke-width=".5" fill="none" stroke-linecap="round" stroke-linejoin="round"/><defs><mask id="j"><path d="M91.438 60a7.437 7.437 0 1 0-14.875 0 7.437 7.437 0 0 0 14.874 0z" clip-rule="evenodd" fill-rule="evenodd" fill="#fff"/></mask></defs><g mask="url(#j)"><path fill="#0c6793" style="cursor:pointer" d="M-1000-1000h2000v2000h-2000z"/></g><path d="M91.438 60a7.437 7.437 0 1 0-14.875 0 7.437 7.437 0 0 0 14.874 0z" stroke="#333" stroke-width=".5" fill="none" stroke-linecap="round" stroke-linejoin="round"/><defs><mask id="k"><path d="M23.438 77a7.437 7.437 0 1 0-14.875 0 7.437 7.437 0 0 0 14.874 0z" clip-rule="evenodd" fill-rule="evenodd" fill="#fff"/></mask></defs><g mask="url(#k)"><path fill="#0c6793" style="cursor:pointer" d="M-1000-1000h2000v2000h-2000z"/></g><path d="M23.438 77a7.437 7.437 0 1 0-14.875 0 7.437 7.437 0 0 0 14.874 0z" stroke="#333" stroke-width=".5" fill="none" stroke-linecap="round" stroke-linejoin="round"/><defs><mask id="l"><path d="M91.438 77a7.437 7.437 0 1 0-14.875 0 7.437 7.437 0 0 0 14.874 0z" clip-rule="evenodd" fill-rule="evenodd" fill="#fff"/></mask></defs><g mask="url(#l)"><path fill="#0c6793" style="cursor:pointer" d="M-1000-1000h2000v2000h-2000z"/></g><path d="M91.438 77a7.437 7.437 0 1 0-14.875 0 7.437 7.437 0 0 0 14.874 0z" stroke="#333" stroke-width=".5" fill="none" stroke-linecap="round" stroke-linejoin="round"/><defs><mask id="m"><path d="M23.438 94a7.437 7.437 0 1 0-14.875 0 7.437 7.437 0 0 0 14.874 0z" clip-rule="evenodd" fill-rule="evenodd" fill="#fff"/></mask></defs><g mask="url(#m)"><path fill="#0c6793" style="cursor:pointer" d="M-1000-1000h2000v2000h-2000z"/></g><path d="M23.438 94a7.437 7.437 0 1 0-14.875 0 7.437 7.437 0 0 0 14.874 0z" stroke="#333" stroke-width=".5" fill="none" stroke-linecap="round" stroke-linejoin="round"/><defs><mask id="n"><path d="M40.438 94a7.437 7.437 0 1 0-14.875 0 7.437 7.437 0 0 0 14.875 0z" clip-rule="evenodd" fill-rule="evenodd" fill="#fff"/></mask></defs><g mask="url(#n)"><path fill="#0c6793" style="cursor:pointer" d="M-1000-1000h2000v2000h-2000z"/></g><path d="M40.438 94a7.437 7.437 0 1 0-14.875 0 7.437 7.437 0 0 0 14.875 0z" stroke="#333" stroke-width=".5" fill="none" stroke-linecap="round" stroke-linejoin="round"/><defs><mask id="o"><path d="M57.438 94a7.437 7.437 0 1 0-14.875 0 7.437 7.437 0 0 0 14.874 0z" clip-rule="evenodd" fill-rule="evenodd" fill="#fff"/></mask></defs><g mask="url(#o)"><path fill="#0c6793" style="cursor:pointer" d="M-1000-1000h2000v2000h-2000z"/></g><path d="M57.438 94a7.437 7.437 0 1 0-14.875 0 7.437 7.437 0 0 0 14.874 0z" stroke="#333" stroke-width=".5" fill="none" stroke-linecap="round" stroke-linejoin="round"/><defs><mask id="p"><path d="M74.438 94a7.437 7.437 0 1 0-14.875 0 7.437 7.437 0 0 0 14.874 0z" clip-rule="evenodd" fill-rule="evenodd" fill="#fff"/></mask></defs><g mask="url(#p)"><path fill="#0c6793" style="cursor:pointer" d="M-1000-1000h2000v2000h-2000z"/></g><path d="M74.438 94a7.437 7.437 0 1 0-14.875 0 7.437 7.437 0 0 0 14.874 0z" stroke="#333" stroke-width=".5" fill="none" stroke-linecap="round" stroke-linejoin="round"/><defs><mask id="q"><path d="M91.438 94a7.437 7.437 0 1 0-14.875 0 7.437 7.437 0 0 0 14.874 0z" clip-rule="evenodd" fill-rule="evenodd" fill="#fff"/></mask></defs><g mask="url(#q)"><path fill="#0c6793" style="cursor:pointer" d="M-1000-1000h2000v2000h-2000z"/></g><path d="M91.438 94a7.437 7.437 0 1 0-14.875 0 7.437 7.437 0 0 0 14.874 0z" stroke="#333" stroke-width=".5" fill="none" stroke-linecap="round" stroke-linejoin="round"/></g><path d="M0 0h100v120H0z" stroke="#333" stroke-width=".5" fill="none" stroke-linecap="round" stroke-linejoin="round"/></svg>