<?xml version="1.0" encoding="UTF-8" standalone="no"?>
<svg xmlns="http://www.w3.org/2000/svg" preserveAspectRatio="xMidYMin slice" viewBox="-10 -10 120 140"><defs><mask id="a"><path fill="#fff" fill-rule="evenodd" d="M0 0h100v120H0z" clip-rule="evenodd"/></mask></defs><g mask="url(#a)"><path fill="#f0f0f0" fill-rule="evenodd" d="M0 0h100v120H0z"/><path fill="#f6f6f6" d="M-1000-1000h2000v2000h-2000z"/><defs><mask id="b"><path fill="#fff" fill-rule="evenodd" d="M40.564 35.251c0-8.457-6.856-15.312-15.313-15.312S9.94 26.794 9.94 35.25s6.855 15.313 15.312 15.313 15.313-6.856 15.313-15.313" clip-rule="evenodd"/></mask></defs><g mask="url(#b)"><path fill="#0c6793" d="M-1000-1000h2000v2000h-2000z"/></g><path fill="none" stroke="#333" stroke-linecap="round" stroke-linejoin="round" stroke-width=".5" d="M40.564 35.251c0-8.457-6.856-15.312-15.313-15.312S9.94 26.794 9.94 35.25s6.855 15.313 15.312 15.313 15.313-6.856 15.313-15.313"/><defs><mask id="c"><path fill="#fff" fill-rule="evenodd" d="M65.313 60c0-8.457-6.856-15.312-15.313-15.312S34.688 51.543 34.688 60 41.543 75.313 50 75.313 65.313 68.457 65.313 60" clip-rule="evenodd"/></mask></defs><g mask="url(#c)"><path fill="#0c6793" d="M-1000-1000h2000v2000h-2000z"/></g><path fill="none" stroke="#333" stroke-linecap="round" stroke-linejoin="round" stroke-width=".5" d="M65.313 60c0-8.457-6.856-15.312-15.313-15.312S34.688 51.543 34.688 60 41.543 75.313 50 75.313 65.313 68.457 65.313 60"/><defs><mask id="d"><path fill="#fff" fill-rule="evenodd" d="M90.061 84.749c0-8.457-6.855-15.313-15.312-15.313S59.436 76.292 59.436 84.75s6.856 15.312 15.313 15.312S90.06 93.206 90.06 84.75" clip-rule="evenodd"/></mask></defs><g mask="url(#d)"><path fill="#0c6793" d="M-1000-1000h2000v2000h-2000z"/></g><path fill="none" stroke="#333" stroke-linecap="round" stroke-linejoin="round" stroke-width=".5" d="M90.061 84.749c0-8.457-6.855-15.313-15.312-15.313S59.436 76.292 59.436 84.75s6.856 15.312 15.313 15.312S90.06 93.206 90.06 84.75"/></g><path fill="none" stroke="#333" stroke-linecap="round" stroke-linejoin="round" stroke-width=".5" d="M0 0h100v120H0z"/></svg>