<?xml version="1.0" encoding="UTF-8" standalone="no"?>
<svg xmlns="http://www.w3.org/2000/svg" viewBox="-10 -10 120 140" preserveAspectRatio="xMidYMin slice"><defs><mask id="a"><path d="M0 0h100v120H0z" clip-rule="evenodd" fill-rule="evenodd" fill="#fff"/></mask></defs><g mask="url(#a)"><path d="M0 0h100v120H0z" fill-rule="evenodd" fill="#f0f0f0"/><path fill="#f6f6f6" style="cursor:pointer" d="M-1000-1000h2000v2000h-2000z"/><defs><mask id="b"><path d="M48.268 60c0-7.652-6.204-13.856-13.856-13.856S20.556 52.348 20.556 60s6.204 13.856 13.856 13.856S48.268 67.652 48.268 60z" clip-rule="evenodd" fill-rule="evenodd" fill="#fff"/></mask></defs><g mask="url(#b)"><path fill="#0c6793" style="cursor:pointer" d="M-1000-1000h2000v2000h-2000z"/></g><path d="M48.268 60c0-7.652-6.204-13.856-13.856-13.856S20.556 52.348 20.556 60s6.204 13.856 13.856 13.856S48.268 67.652 48.268 60z" stroke="#333" stroke-width=".5" fill="none" stroke-linecap="round" stroke-linejoin="round"/><defs><mask id="c"><path d="M79.444 42c0-7.652-6.204-13.856-13.856-13.856S51.732 34.348 51.732 42s6.204 13.856 13.856 13.856S79.444 49.652 79.444 42z" clip-rule="evenodd" fill-rule="evenodd" fill="#fff"/></mask></defs><g mask="url(#c)"><path fill="#0c6793" style="cursor:pointer" d="M-1000-1000h2000v2000h-2000z"/></g><path d="M79.444 42c0-7.652-6.204-13.856-13.856-13.856S51.732 34.348 51.732 42s6.204 13.856 13.856 13.856S79.444 49.652 79.444 42z" stroke="#333" stroke-width=".5" fill="none" stroke-linecap="round" stroke-linejoin="round"/><defs><mask id="d"><path d="M79.444 78c0-7.652-6.204-13.856-13.856-13.856S51.732 70.348 51.732 78s6.204 13.856 13.856 13.856S79.444 85.652 79.444 78z" clip-rule="evenodd" fill-rule="evenodd" fill="#fff"/></mask></defs><g mask="url(#d)"><path fill="#0c6793" style="cursor:pointer" d="M-1000-1000h2000v2000h-2000z"/></g><path d="M79.444 78c0-7.652-6.204-13.856-13.856-13.856S51.732 70.348 51.732 78s6.204 13.856 13.856 13.856S79.444 85.652 79.444 78z" stroke="#333" stroke-width=".5" fill="none" stroke-linecap="round" stroke-linejoin="round"/></g><path d="M0 0h100v120H0z" stroke="#333" stroke-width=".5" fill="none" stroke-linecap="round" stroke-linejoin="round"/></svg>