<?xml version="1.0" encoding="UTF-8" standalone="no"?>
<svg xmlns="http://www.w3.org/2000/svg" preserveAspectRatio="xMidYMin slice" viewBox="-10 -10 120 140"><defs><mask id="a"><path fill="#fff" fill-rule="evenodd" d="M0 0h100v120H0z" clip-rule="evenodd"/></mask></defs><g mask="url(#a)"><path fill="#f0f0f0" fill-rule="evenodd" d="M0 0h100v120H0z"/><path fill="#f6f6f6" d="M-1000-1000h2000v2000h-2000z"/><defs><mask id="b"><path fill="#fff" fill-rule="evenodd" d="M31.366 34.02c0-6.277-5.089-11.366-11.366-11.366-6.277 0-11.366 5.089-11.366 11.366 0 6.277 5.089 11.366 11.366 11.366 6.277 0 11.366-5.089 11.366-11.366z" clip-rule="evenodd"/></mask></defs><g mask="url(#b)"><path fill="#0c6793" d="M-1000-1000h2000v2000h-2000z"/></g><path fill="none" stroke="#333" stroke-linecap="round" stroke-linejoin="round" stroke-width=".5" d="M31.366 34.02c0-6.277-5.089-11.366-11.366-11.366-6.277 0-11.366 5.089-11.366 11.366 0 6.277 5.089 11.366 11.366 11.366 6.277 0 11.366-5.089 11.366-11.366z"/><defs><mask id="c"><path fill="#fff" fill-rule="evenodd" d="M61.366 34.02c0-6.277-5.089-11.366-11.366-11.366-6.277 0-11.366 5.089-11.366 11.366 0 6.277 5.089 11.366 11.366 11.366 6.277 0 11.366-5.089 11.366-11.366z" clip-rule="evenodd"/></mask></defs><g mask="url(#c)"><path fill="#0c6793" d="M-1000-1000h2000v2000h-2000z"/></g><path fill="none" stroke="#333" stroke-linecap="round" stroke-linejoin="round" stroke-width=".5" d="M61.366 34.02c0-6.277-5.089-11.366-11.366-11.366-6.277 0-11.366 5.089-11.366 11.366 0 6.277 5.089 11.366 11.366 11.366 6.277 0 11.366-5.089 11.366-11.366z"/><defs><mask id="d"><path fill="#fff" fill-rule="evenodd" d="M91.366 34.02c0-6.277-5.089-11.366-11.366-11.366-6.277 0-11.366 5.089-11.366 11.366 0 6.277 5.089 11.366 11.366 11.366 6.277 0 11.366-5.089 11.366-11.366z" clip-rule="evenodd"/></mask></defs><g mask="url(#d)"><path fill="#0c6793" d="M-1000-1000h2000v2000h-2000z"/></g><path fill="none" stroke="#333" stroke-linecap="round" stroke-linejoin="round" stroke-width=".5" d="M91.366 34.02c0-6.277-5.089-11.366-11.366-11.366-6.277 0-11.366 5.089-11.366 11.366 0 6.277 5.089 11.366 11.366 11.366 6.277 0 11.366-5.089 11.366-11.366z"/><defs><mask id="e"><path fill="#fff" fill-rule="evenodd" d="M46.366 60c0-6.277-5.089-11.366-11.366-11.366-6.277 0-11.366 5.089-11.366 11.366 0 6.277 5.089 11.366 11.366 11.366 6.277 0 11.366-5.089 11.366-11.366z" clip-rule="evenodd"/></mask></defs><g mask="url(#e)"><path fill="#0c6793" d="M-1000-1000h2000v2000h-2000z"/></g><path fill="none" stroke="#333" stroke-linecap="round" stroke-linejoin="round" stroke-width=".5" d="M46.366 60c0-6.277-5.089-11.366-11.366-11.366-6.277 0-11.366 5.089-11.366 11.366 0 6.277 5.089 11.366 11.366 11.366 6.277 0 11.366-5.089 11.366-11.366z"/><defs><mask id="f"><path fill="#fff" fill-rule="evenodd" d="M76.366 60c0-6.277-5.089-11.366-11.366-11.366-6.277 0-11.366 5.089-11.366 11.366 0 6.277 5.089 11.366 11.366 11.366 6.277 0 11.366-5.089 11.366-11.366z" clip-rule="evenodd"/></mask></defs><g mask="url(#f)"><path fill="#0c6793" d="M-1000-1000h2000v2000h-2000z"/></g><path fill="none" stroke="#333" stroke-linecap="round" stroke-linejoin="round" stroke-width=".5" d="M76.366 60c0-6.277-5.089-11.366-11.366-11.366-6.277 0-11.366 5.089-11.366 11.366 0 6.277 5.089 11.366 11.366 11.366 6.277 0 11.366-5.089 11.366-11.366z"/><defs><mask id="g"><path fill="#fff" fill-rule="evenodd" d="M61.366 85.98c0-6.277-5.089-11.366-11.366-11.366-6.277 0-11.366 5.089-11.366 11.366 0 6.277 5.089 11.366 11.366 11.366 6.277 0 11.366-5.089 11.366-11.366z" clip-rule="evenodd"/></mask></defs><g mask="url(#g)"><path fill="#0c6793" d="M-1000-1000h2000v2000h-2000z"/></g><path fill="none" stroke="#333" stroke-linecap="round" stroke-linejoin="round" stroke-width=".5" d="M61.366 85.98c0-6.277-5.089-11.366-11.366-11.366-6.277 0-11.366 5.089-11.366 11.366 0 6.277 5.089 11.366 11.366 11.366 6.277 0 11.366-5.089 11.366-11.366z"/></g><path fill="none" stroke="#333" stroke-linecap="round" stroke-linejoin="round" stroke-width=".5" d="M0 0h100v120H0z"/></svg>