<svg preserveAspectRatio="xMidYMin slice" viewBox="0 0 120 200" xmlns="http://www.w3.org/2000/svg"><g transform="translate(10 10)"><defs><mask id="a"><path clip-rule="evenodd" d="M0 0h100v120H0z" fill-rule="evenodd" fill="#fff"/></mask></defs><g mask="url(#a)"><path d="M0 0h100v120H0z" fill-rule="evenodd" fill="#f0f0f0"/><path fill="#f6f6f6" style="cursor:pointer" d="M-1000-1000h2000v2000h-2000z"/><defs><mask id="b"><path clip-rule="evenodd" d="M48.268 60a13.856 13.856 0 0 0-27.712 0 13.856 13.856 0 0 0 27.712 0z" fill-rule="evenodd" fill="#fff"/><path d="M48.268 60a13.856 13.856 0 0 0-27.712 0 13.856 13.856 0 0 0 27.712 0z" fill="none" stroke-width=".1" stroke="#fff"/></mask></defs><g mask="url(#b)"><path fill="#0c6793" style="cursor:pointer" d="M-1000-1000h2000v2000h-2000z"/></g><path d="M48.268 60a13.856 13.856 0 0 0-27.712 0 13.856 13.856 0 0 0 27.712 0z" fill="none" stroke-linecap="round" stroke-linejoin="round" stroke-width=".5" stroke="#333"/><defs><mask id="c"><path clip-rule="evenodd" d="M79.444 42a13.856 13.856 0 0 0-27.712 0 13.856 13.856 0 0 0 27.712 0z" fill-rule="evenodd" fill="#fff"/><path d="M79.444 42a13.856 13.856 0 0 0-27.712 0 13.856 13.856 0 0 0 27.712 0z" fill="none" stroke-width=".1" stroke="#fff"/></mask></defs><g mask="url(#c)"><path fill="#0c6793" style="cursor:pointer" d="M-1000-1000h2000v2000h-2000z"/></g><path d="M79.444 42a13.856 13.856 0 0 0-27.712 0 13.856 13.856 0 0 0 27.712 0z" fill="none" stroke-linecap="round" stroke-linejoin="round" stroke-width=".5" stroke="#333"/><defs><mask id="d"><path clip-rule="evenodd" d="M79.444 78a13.856 13.856 0 0 0-27.712 0 13.856 13.856 0 0 0 27.712 0z" fill-rule="evenodd" fill="#fff"/><path d="M79.444 78a13.856 13.856 0 0 0-27.712 0 13.856 13.856 0 0 0 27.712 0z" fill="none" stroke-width=".1" stroke="#fff"/></mask></defs><g mask="url(#d)"><path fill="#0c6793" style="cursor:pointer" d="M-1000-1000h2000v2000h-2000z"/></g><path d="M79.444 78a13.856 13.856 0 0 0-27.712 0 13.856 13.856 0 0 0 27.712 0z" fill="none" stroke-linecap="round" stroke-linejoin="round" stroke-width=".5" stroke="#333"/></g><path d="M0 0h100v120H0z" fill="none" stroke-linecap="round" stroke-linejoin="round" stroke-width=".5" stroke="#333"/></g></svg>