<svg preserveAspectRatio="xMidYMin slice" viewBox="0 0 120 200" xmlns="http://www.w3.org/2000/svg"><g transform="translate(10 10)"><defs><mask id="a"><path clip-rule="evenodd" d="M0 0h100v120H0z" fill-rule="evenodd" fill="#fff"/></mask></defs><g mask="url(#a)"><path d="M0 0h100v120H0z" fill-rule="evenodd" fill="#f0f0f0"/><path fill="#f6f6f6" style="cursor:pointer" d="M-1000-1000h2000v2000h-2000z"/><defs><mask id="b"><path clip-rule="evenodd" d="M63.58 30.456a8.371 8.371 0 0 0-16.742 0 8.371 8.371 0 0 0 16.743 0z" fill-rule="evenodd" fill="#fff"/><path d="M63.58 30.456a8.371 8.371 0 0 0-16.742 0 8.371 8.371 0 0 0 16.743 0z" fill="none" stroke-width=".1" stroke="#fff"/></mask></defs><g mask="url(#b)"><path fill="#0c6793" style="cursor:pointer" d="M-1000-1000h2000v2000h-2000z"/></g><path d="M63.58 30.456a8.371 8.371 0 0 0-16.742 0 8.371 8.371 0 0 0 16.743 0z" fill="none" stroke-linecap="round" stroke-linejoin="round" stroke-width=".5" stroke="#333"/><defs><mask id="c"><path clip-rule="evenodd" d="M82.946 42.793a8.371 8.371 0 0 0-16.743 0 8.371 8.371 0 0 0 16.743 0z" fill-rule="evenodd" fill="#fff"/><path d="M82.946 42.793a8.371 8.371 0 0 0-16.743 0 8.371 8.371 0 0 0 16.743 0z" fill="none" stroke-width=".1" stroke="#fff"/></mask></defs><g mask="url(#c)"><path fill="#0c6793" style="cursor:pointer" d="M-1000-1000h2000v2000h-2000z"/></g><path d="M82.946 42.793a8.371 8.371 0 0 0-16.743 0 8.371 8.371 0 0 0 16.743 0z" fill="none" stroke-linecap="round" stroke-linejoin="round" stroke-width=".5" stroke="#333"/><defs><mask id="d"><path clip-rule="evenodd" d="M87.915 65.21a8.371 8.371 0 0 0-16.742 0 8.371 8.371 0 0 0 16.742 0z" fill-rule="evenodd" fill="#fff"/><path d="M87.915 65.21a8.371 8.371 0 0 0-16.742 0 8.371 8.371 0 0 0 16.742 0z" fill="none" stroke-width=".1" stroke="#fff"/></mask></defs><g mask="url(#d)"><path fill="#0c6793" style="cursor:pointer" d="M-1000-1000h2000v2000h-2000z"/></g><path d="M87.915 65.21a8.371 8.371 0 0 0-16.742 0 8.371 8.371 0 0 0 16.742 0z" fill="none" stroke-linecap="round" stroke-linejoin="round" stroke-width=".5" stroke="#333"/><defs><mask id="e"><path clip-rule="evenodd" d="M75.578 84.575a8.371 8.371 0 0 0-16.742 0 8.371 8.371 0 0 0 16.742 0z" fill-rule="evenodd" fill="#fff"/><path d="M75.578 84.575a8.371 8.371 0 0 0-16.742 0 8.371 8.371 0 0 0 16.742 0z" fill="none" stroke-width=".1" stroke="#fff"/></mask></defs><g mask="url(#e)"><path fill="#0c6793" style="cursor:pointer" d="M-1000-1000h2000v2000h-2000z"/></g><path d="M75.578 84.575a8.371 8.371 0 0 0-16.742 0 8.371 8.371 0 0 0 16.742 0z" fill="none" stroke-linecap="round" stroke-linejoin="round" stroke-width=".5" stroke="#333"/><defs><mask id="f"><path clip-rule="evenodd" d="M53.162 89.544a8.371 8.371 0 0 0-16.743 0 8.371 8.371 0 0 0 16.743 0z" fill-rule="evenodd" fill="#fff"/><path d="M53.162 89.544a8.371 8.371 0 0 0-16.743 0 8.371 8.371 0 0 0 16.743 0z" fill="none" stroke-width=".1" stroke="#fff"/></mask></defs><g mask="url(#f)"><path fill="#0c6793" style="cursor:pointer" d="M-1000-1000h2000v2000h-2000z"/></g><path d="M53.162 89.544a8.371 8.371 0 0 0-16.743 0 8.371 8.371 0 0 0 16.743 0z" fill="none" stroke-linecap="round" stroke-linejoin="round" stroke-width=".5" stroke="#333"/></g><path d="M0 0h100v120H0z" fill="none" stroke-linecap="round" stroke-linejoin="round" stroke-width=".5" stroke="#333"/></g></svg>