<?xml version="1.0" encoding="UTF-8" standalone="no"?>
<svg xmlns="http://www.w3.org/2000/svg" preserveAspectRatio="xMidYMin slice" viewBox="-10 -10 120 140"><defs><mask id="a"><path fill="#fff" fill-rule="evenodd" d="M0 0h100v120H0z" clip-rule="evenodd"/></mask></defs><g mask="url(#a)"><path fill="#f0f0f0" fill-rule="evenodd" d="M0 0h100v120H0z"/><path fill="#f6f6f6" d="M-1000-1000h2000v2000h-2000z"/><defs><mask id="b"><path fill="#fff" fill-rule="evenodd" d="M35.938 35c0-6.04-4.897-10.938-10.938-10.938-6.04 0-10.938 4.897-10.938 10.938 0 6.04 4.897 10.938 10.938 10.938 6.04 0 10.938-4.897 10.938-10.938z" clip-rule="evenodd"/></mask></defs><g mask="url(#b)"><path fill="#0c6793" d="M-1000-1000h2000v2000h-2000z"/></g><path fill="none" stroke="#333" stroke-linecap="round" stroke-linejoin="round" stroke-width=".5" d="M35.938 35c0-6.04-4.897-10.938-10.938-10.938-6.04 0-10.938 4.897-10.938 10.938 0 6.04 4.897 10.938 10.938 10.938 6.04 0 10.938-4.897 10.938-10.938z"/><defs><mask id="c"><path fill="#fff" fill-rule="evenodd" d="M60.938 35c0-6.04-4.897-10.938-10.938-10.938-6.04 0-10.938 4.897-10.938 10.938 0 6.04 4.897 10.938 10.938 10.938 6.04 0 10.938-4.897 10.938-10.938z" clip-rule="evenodd"/></mask></defs><g mask="url(#c)"><path fill="#0c6793" d="M-1000-1000h2000v2000h-2000z"/></g><path fill="none" stroke="#333" stroke-linecap="round" stroke-linejoin="round" stroke-width=".5" d="M60.938 35c0-6.04-4.897-10.938-10.938-10.938-6.04 0-10.938 4.897-10.938 10.938 0 6.04 4.897 10.938 10.938 10.938 6.04 0 10.938-4.897 10.938-10.938z"/><defs><mask id="d"><path fill="#fff" fill-rule="evenodd" d="M85.938 35c0-6.04-4.897-10.938-10.938-10.938-6.04 0-10.938 4.897-10.938 10.938 0 6.04 4.897 10.938 10.938 10.938 6.04 0 10.938-4.897 10.938-10.938z" clip-rule="evenodd"/></mask></defs><g mask="url(#d)"><path fill="#0c6793" d="M-1000-1000h2000v2000h-2000z"/></g><path fill="none" stroke="#333" stroke-linecap="round" stroke-linejoin="round" stroke-width=".5" d="M85.938 35c0-6.04-4.897-10.938-10.938-10.938-6.04 0-10.938 4.897-10.938 10.938 0 6.04 4.897 10.938 10.938 10.938 6.04 0 10.938-4.897 10.938-10.938z"/><defs><mask id="e"><path fill="#fff" fill-rule="evenodd" d="M35.938 60c0-6.04-4.897-10.938-10.938-10.938-6.04 0-10.938 4.897-10.938 10.938 0 6.04 4.897 10.938 10.938 10.938 6.04 0 10.938-4.897 10.938-10.938z" clip-rule="evenodd"/></mask></defs><g mask="url(#e)"><path fill="#0c6793" d="M-1000-1000h2000v2000h-2000z"/></g><path fill="none" stroke="#333" stroke-linecap="round" stroke-linejoin="round" stroke-width=".5" d="M35.938 60c0-6.04-4.897-10.938-10.938-10.938-6.04 0-10.938 4.897-10.938 10.938 0 6.04 4.897 10.938 10.938 10.938 6.04 0 10.938-4.897 10.938-10.938z"/><defs><mask id="f"><path fill="#fff" fill-rule="evenodd" d="M60.938 60c0-6.04-4.897-10.938-10.938-10.938-6.04 0-10.938 4.897-10.938 10.938 0 6.04 4.897 10.938 10.938 10.938 6.04 0 10.938-4.897 10.938-10.938z" clip-rule="evenodd"/></mask></defs><g mask="url(#f)"><path fill="#0c6793" d="M-1000-1000h2000v2000h-2000z"/></g><path fill="none" stroke="#333" stroke-linecap="round" stroke-linejoin="round" stroke-width=".5" d="M60.938 60c0-6.04-4.897-10.938-10.938-10.938-6.04 0-10.938 4.897-10.938 10.938 0 6.04 4.897 10.938 10.938 10.938 6.04 0 10.938-4.897 10.938-10.938z"/><defs><mask id="g"><path fill="#fff" fill-rule="evenodd" d="M85.938 60c0-6.04-4.897-10.938-10.938-10.938-6.04 0-10.938 4.897-10.938 10.938 0 6.04 4.897 10.938 10.938 10.938 6.04 0 10.938-4.897 10.938-10.938z" clip-rule="evenodd"/></mask></defs><g mask="url(#g)"><path fill="#0c6793" d="M-1000-1000h2000v2000h-2000z"/></g><path fill="none" stroke="#333" stroke-linecap="round" stroke-linejoin="round" stroke-width=".5" d="M85.938 60c0-6.04-4.897-10.938-10.938-10.938-6.04 0-10.938 4.897-10.938 10.938 0 6.04 4.897 10.938 10.938 10.938 6.04 0 10.938-4.897 10.938-10.938z"/><defs><mask id="h"><path fill="#fff" fill-rule="evenodd" d="M35.938 85c0-6.04-4.897-10.938-10.938-10.938-6.04 0-10.938 4.897-10.938 10.938 0 6.04 4.897 10.938 10.938 10.938 6.04 0 10.938-4.897 10.938-10.938z" clip-rule="evenodd"/></mask></defs><g mask="url(#h)"><path fill="#0c6793" d="M-1000-1000h2000v2000h-2000z"/></g><path fill="none" stroke="#333" stroke-linecap="round" stroke-linejoin="round" stroke-width=".5" d="M35.938 85c0-6.04-4.897-10.938-10.938-10.938-6.04 0-10.938 4.897-10.938 10.938 0 6.04 4.897 10.938 10.938 10.938 6.04 0 10.938-4.897 10.938-10.938z"/><defs><mask id="i"><path fill="#fff" fill-rule="evenodd" d="M60.938 85c0-6.04-4.897-10.938-10.938-10.938-6.04 0-10.938 4.897-10.938 10.938 0 6.04 4.897 10.938 10.938 10.938 6.04 0 10.938-4.897 10.938-10.938z" clip-rule="evenodd"/></mask></defs><g mask="url(#i)"><path fill="#0c6793" d="M-1000-1000h2000v2000h-2000z"/></g><path fill="none" stroke="#333" stroke-linecap="round" stroke-linejoin="round" stroke-width=".5" d="M60.938 85c0-6.04-4.897-10.938-10.938-10.938-6.04 0-10.938 4.897-10.938 10.938 0 6.04 4.897 10.938 10.938 10.938 6.04 0 10.938-4.897 10.938-10.938z"/><defs><mask id="j"><path fill="#fff" fill-rule="evenodd" d="M85.938 85c0-6.04-4.897-10.938-10.938-10.938-6.04 0-10.938 4.897-10.938 10.938 0 6.04 4.897 10.938 10.938 10.938 6.04 0 10.938-4.897 10.938-10.938z" clip-rule="evenodd"/></mask></defs><g mask="url(#j)"><path fill="#0c6793" d="M-1000-1000h2000v2000h-2000z"/></g><path fill="none" stroke="#333" stroke-linecap="round" stroke-linejoin="round" stroke-width=".5" d="M85.938 85c0-6.04-4.897-10.938-10.938-10.938-6.04 0-10.938 4.897-10.938 10.938 0 6.04 4.897 10.938 10.938 10.938 6.04 0 10.938-4.897 10.938-10.938z"/></g><path fill="none" stroke="#333" stroke-linecap="round" stroke-linejoin="round" stroke-width=".5" d="M0 0h100v120H0z"/></svg>