<svg preserveAspectRatio="xMidYMin slice" viewBox="0 0 120 200" xmlns="http://www.w3.org/2000/svg"><g filter="url(#a)" transform="translate(10 10)"><defs><filter height="200%" id="a" width="200%" x="-20%" y="-20%"><feOffset dx=".2" dy=".2" in="SourceAlpha" result="offsetOut"/><feGaussianBlur in="offsetOut" result="blurOut"/><feBlend in2="blurOut" in="SourceGraphic"/></filter></defs><defs><clipPath id="b"><path d="M0 0h100v120H0z" fill="#fff"/></clipPath></defs><g clip-path="url(#b)"><path d="M0 0h100v120H0z" fill="#f0f0f0"/><g style="pointer-events:visiblePainted;cursor:pointer"><path fill="#f6f6f6" d="M-500-500H600V600H-500z"/><defs><mask id="c"><path d="M59.491 30a9.491 9.491 0 0 0-18.982 0 9.491 9.491 0 0 0 18.982 0z" fill="#fff"/><path d="M59.491 30a9.491 9.491 0 0 0-18.982 0 9.491 9.491 0 0 0 18.982 0z" fill="none" stroke-width=".1" stroke="#fff"/></mask></defs><g mask="url(#c)"><path fill="#0c6793" d="M-500-500H600V600H-500z" style="pointer-events:visiblePainted;cursor:pointer"/></g><path d="M59.491 30a9.491 9.491 0 0 0-18.982 0 9.491 9.491 0 0 0 18.982 0z" fill="none" stroke-linecap="round" stroke-linejoin="round" stroke-width=".5" stroke="#333"/><defs><mask id="d"><path d="M82.946 41.295a9.491 9.491 0 0 0-18.982 0 9.491 9.491 0 0 0 18.982 0z" fill="#fff"/><path d="M82.946 41.295a9.491 9.491 0 0 0-18.982 0 9.491 9.491 0 0 0 18.982 0z" fill="none" stroke-width=".1" stroke="#fff"/></mask></defs><g mask="url(#d)"><path fill="#0c6793" d="M-500-500H600V600H-500z" style="pointer-events:visiblePainted;cursor:pointer"/></g><path d="M82.946 41.295a9.491 9.491 0 0 0-18.982 0 9.491 9.491 0 0 0 18.982 0z" fill="none" stroke-linecap="round" stroke-linejoin="round" stroke-width=".5" stroke="#333"/><defs><mask id="e"><path d="M88.739 66.676a9.491 9.491 0 0 0-18.982 0 9.491 9.491 0 0 0 18.982 0z" fill="#fff"/><path d="M88.739 66.676a9.491 9.491 0 0 0-18.982 0 9.491 9.491 0 0 0 18.982 0z" fill="none" stroke-width=".1" stroke="#fff"/></mask></defs><g mask="url(#e)"><path fill="#0c6793" d="M-500-500H600V600H-500z" style="pointer-events:visiblePainted;cursor:pointer"/></g><path d="M88.739 66.676a9.491 9.491 0 0 0-18.982 0 9.491 9.491 0 0 0 18.982 0z" fill="none" stroke-linecap="round" stroke-linejoin="round" stroke-width=".5" stroke="#333"/><defs><mask id="f"><path d="M72.508 87.03a9.491 9.491 0 0 0-18.983 0 9.491 9.491 0 0 0 18.983 0z" fill="#fff"/><path d="M72.508 87.03a9.491 9.491 0 0 0-18.983 0 9.491 9.491 0 0 0 18.983 0z" fill="none" stroke-width=".1" stroke="#fff"/></mask></defs><g mask="url(#f)"><path fill="#0c6793" d="M-500-500H600V600H-500z" style="pointer-events:visiblePainted;cursor:pointer"/></g><path d="M72.508 87.03a9.491 9.491 0 0 0-18.983 0 9.491 9.491 0 0 0 18.983 0z" fill="none" stroke-linecap="round" stroke-linejoin="round" stroke-width=".5" stroke="#333"/><defs><mask id="g"><path d="M46.475 87.03a9.491 9.491 0 0 0-18.983 0 9.491 9.491 0 0 0 18.983 0z" fill="#fff"/><path d="M46.475 87.03a9.491 9.491 0 0 0-18.983 0 9.491 9.491 0 0 0 18.983 0z" fill="none" stroke-width=".1" stroke="#fff"/></mask></defs><g mask="url(#g)"><path fill="#0c6793" d="M-500-500H600V600H-500z" style="pointer-events:visiblePainted;cursor:pointer"/></g><path d="M46.475 87.03a9.491 9.491 0 0 0-18.983 0 9.491 9.491 0 0 0 18.983 0z" fill="none" stroke-linecap="round" stroke-linejoin="round" stroke-width=".5" stroke="#333"/><defs><mask id="h"><path d="M30.243 66.676a9.491 9.491 0 0 0-18.982 0 9.491 9.491 0 0 0 18.982 0z" fill="#fff"/><path d="M30.243 66.676a9.491 9.491 0 0 0-18.982 0 9.491 9.491 0 0 0 18.982 0z" fill="none" stroke-width=".1" stroke="#fff"/></mask></defs><g mask="url(#h)"><path fill="#0c6793" d="M-500-500H600V600H-500z" style="pointer-events:visiblePainted;cursor:pointer"/></g><path d="M30.243 66.676a9.491 9.491 0 0 0-18.982 0 9.491 9.491 0 0 0 18.982 0z" fill="none" stroke-linecap="round" stroke-linejoin="round" stroke-width=".5" stroke="#333"/><defs><mask id="i"><path d="M36.036 41.295a9.491 9.491 0 0 0-18.982 0 9.491 9.491 0 0 0 18.982 0z" fill="#fff"/><path d="M36.036 41.295a9.491 9.491 0 0 0-18.982 0 9.491 9.491 0 0 0 18.982 0z" fill="none" stroke-width=".1" stroke="#fff"/></mask></defs><g mask="url(#i)"><path fill="#0c6793" d="M-500-500H600V600H-500z" style="pointer-events:visiblePainted;cursor:pointer"/></g><path d="M36.036 41.295a9.491 9.491 0 0 0-18.982 0 9.491 9.491 0 0 0 18.982 0z" fill="none" stroke-linecap="round" stroke-linejoin="round" stroke-width=".5" stroke="#333"/></g></g><path d="M0 0h100v120H0z" fill="none" stroke-linecap="round" stroke-linejoin="round" stroke-width=".5" stroke="#333"/></g></svg>