<?xml version="1.0" encoding="UTF-8" standalone="no"?>
<svg xmlns="http://www.w3.org/2000/svg" viewBox="-10 -10 120 140" preserveAspectRatio="xMidYMin slice"><defs><mask id="a"><path d="M0 0h100v120H0z" clip-rule="evenodd" fill-rule="evenodd" fill="#fff"/></mask></defs><g mask="url(#a)"><path d="M0 0h100v120H0z" fill-rule="evenodd" fill="#f0f0f0"/><path fill="#f6f6f6" style="cursor:pointer" d="M-1000-1000h2000v2000h-2000z"/><defs><mask id="b"><path d="M57.875 42a7.875 7.875 0 1 0-15.75 0 7.875 7.875 0 0 0 15.75 0z" clip-rule="evenodd" fill-rule="evenodd" fill="#fff"/></mask></defs><g mask="url(#b)"><path fill="#0c6793" style="cursor:pointer" d="M-1000-1000h2000v2000h-2000z"/></g><path d="M57.875 42a7.875 7.875 0 1 0-15.75 0 7.875 7.875 0 0 0 15.75 0z" stroke="#333" stroke-width=".5" fill="none" stroke-linecap="round" stroke-linejoin="round"/><defs><mask id="c"><path d="M42.875 60a7.875 7.875 0 1 0-15.75 0 7.875 7.875 0 0 0 15.75 0z" clip-rule="evenodd" fill-rule="evenodd" fill="#fff"/></mask></defs><g mask="url(#c)"><path fill="#0c6793" style="cursor:pointer" d="M-1000-1000h2000v2000h-2000z"/></g><path d="M42.875 60a7.875 7.875 0 1 0-15.75 0 7.875 7.875 0 0 0 15.75 0z" stroke="#333" stroke-width=".5" fill="none" stroke-linecap="round" stroke-linejoin="round"/><defs><mask id="d"><path d="M72.875 60a7.875 7.875 0 1 0-15.75 0 7.875 7.875 0 0 0 15.75 0z" clip-rule="evenodd" fill-rule="evenodd" fill="#fff"/></mask></defs><g mask="url(#d)"><path fill="#0c6793" style="cursor:pointer" d="M-1000-1000h2000v2000h-2000z"/></g><path d="M72.875 60a7.875 7.875 0 1 0-15.75 0 7.875 7.875 0 0 0 15.75 0z" stroke="#333" stroke-width=".5" fill="none" stroke-linecap="round" stroke-linejoin="round"/><defs><mask id="e"><path d="M27.875 78a7.875 7.875 0 1 0-15.75 0 7.875 7.875 0 0 0 15.75 0z" clip-rule="evenodd" fill-rule="evenodd" fill="#fff"/></mask></defs><g mask="url(#e)"><path fill="#0c6793" style="cursor:pointer" d="M-1000-1000h2000v2000h-2000z"/></g><path d="M27.875 78a7.875 7.875 0 1 0-15.75 0 7.875 7.875 0 0 0 15.75 0z" stroke="#333" stroke-width=".5" fill="none" stroke-linecap="round" stroke-linejoin="round"/><defs><mask id="f"><path d="M87.875 78a7.875 7.875 0 1 0-15.75 0 7.875 7.875 0 0 0 15.75 0z" clip-rule="evenodd" fill-rule="evenodd" fill="#fff"/></mask></defs><g mask="url(#f)"><path fill="#0c6793" style="cursor:pointer" d="M-1000-1000h2000v2000h-2000z"/></g><path d="M87.875 78a7.875 7.875 0 1 0-15.75 0 7.875 7.875 0 0 0 15.75 0z" stroke="#333" stroke-width=".5" fill="none" stroke-linecap="round" stroke-linejoin="round"/></g><path d="M0 0h100v120H0z" stroke="#333" stroke-width=".5" fill="none" stroke-linecap="round" stroke-linejoin="round"/></svg>