<?xml version="1.0" encoding="UTF-8" standalone="no"?>
<svg xmlns="http://www.w3.org/2000/svg" preserveAspectRatio="xMidYMin slice" viewBox="-10 -10 120 140"><defs><mask id="a"><path fill="#fff" fill-rule="evenodd" d="M0 0h100v120H0z" clip-rule="evenodd"/></mask></defs><g mask="url(#a)"><path fill="#f0f0f0" fill-rule="evenodd" d="M0 0h100v120H0z"/><path fill="#f6f6f6" d="M-1000-1000h2000v2000h-2000z"/><defs><mask id="b"><path fill="#fff" fill-rule="evenodd" d="M54.746 39.491h-9.492V20.51h9.492z" clip-rule="evenodd"/></mask></defs><g mask="url(#b)"><path fill="#0c6793" d="M-1000-1000h2000v2000h-2000z"/></g><path fill="none" stroke="#333" stroke-linecap="round" stroke-linejoin="round" stroke-width=".5" d="M54.746 39.491h-9.492V20.51h9.492z"/><defs><mask id="c"><path fill="#fff" fill-rule="evenodd" d="m68.993 50.923-5.917-7.42 14.84-11.836 5.918 7.42z" clip-rule="evenodd"/></mask></defs><g mask="url(#c)"><path fill="#0c6793" d="M-1000-1000h2000v2000h-2000z"/></g><path fill="none" stroke="#333" stroke-linecap="round" stroke-linejoin="round" stroke-width=".5" d="m68.993 50.923-5.917-7.42 14.84-11.836 5.918 7.42z"/><defs><mask id="d"><path fill="#fff" fill-rule="evenodd" d="m68.939 69.19 2.112-9.253 18.506 4.224-2.112 9.253z" clip-rule="evenodd"/></mask></defs><g mask="url(#d)"><path fill="#0c6793" d="M-1000-1000h2000v2000h-2000z"/></g><path fill="none" stroke="#333" stroke-linecap="round" stroke-linejoin="round" stroke-width=".5" d="m68.939 69.19 2.112-9.253 18.506 4.224-2.112 9.253z"/><defs><mask id="e"><path fill="#fff" fill-rule="evenodd" d="m54.623 80.537 8.551-4.118L71.41 93.52l-8.55 4.12z" clip-rule="evenodd"/></mask></defs><g mask="url(#e)"><path fill="#0c6793" d="M-1000-1000h2000v2000h-2000z"/></g><path fill="none" stroke="#333" stroke-linecap="round" stroke-linejoin="round" stroke-width=".5" d="m54.623 80.537 8.551-4.118L71.41 93.52l-8.55 4.12z"/><defs><mask id="f"><path fill="#fff" fill-rule="evenodd" d="m36.826 76.419 8.551 4.118-8.236 17.102-8.551-4.118z" clip-rule="evenodd"/></mask></defs><g mask="url(#f)"><path fill="#0c6793" d="M-1000-1000h2000v2000h-2000z"/></g><path fill="none" stroke="#333" stroke-linecap="round" stroke-linejoin="round" stroke-width=".5" d="m36.826 76.419 8.551 4.118-8.236 17.102-8.551-4.118z"/><defs><mask id="g"><path fill="#fff" fill-rule="evenodd" d="m28.95 59.937 2.111 9.253-18.506 4.224-2.112-9.253z" clip-rule="evenodd"/></mask></defs><g mask="url(#g)"><path fill="#0c6793" d="M-1000-1000h2000v2000h-2000z"/></g><path fill="none" stroke="#333" stroke-linecap="round" stroke-linejoin="round" stroke-width=".5" d="m28.95 59.937 2.111 9.253-18.506 4.224-2.112-9.253z"/><defs><mask id="h"><path fill="#fff" fill-rule="evenodd" d="m36.924 43.503-5.917 7.42-14.841-11.835 5.917-7.42z" clip-rule="evenodd"/></mask></defs><g mask="url(#h)"><path fill="#0c6793" d="M-1000-1000h2000v2000h-2000z"/></g><path fill="none" stroke="#333" stroke-linecap="round" stroke-linejoin="round" stroke-width=".5" d="m36.924 43.503-5.917 7.42-14.841-11.835 5.917-7.42z"/></g><path fill="none" stroke="#333" stroke-linecap="round" stroke-linejoin="round" stroke-width=".5" d="M0 0h100v120H0z"/></svg>