<?xml version="1.0" encoding="UTF-8" standalone="no"?>
<svg xmlns="http://www.w3.org/2000/svg" preserveAspectRatio="xMidYMin slice" viewBox="-10 -10 120 140"><defs><mask id="a"><path fill="#fff" fill-rule="evenodd" d="M0 0h100v120H0z" clip-rule="evenodd"/></mask></defs><g mask="url(#a)"><path fill="#f0f0f0" fill-rule="evenodd" d="M0 0h100v120H0z"/><path fill="#f6f6f6" d="M-1000-1000h2000v2000h-2000z"/><defs><mask id="b"><path fill="#fff" fill-rule="evenodd" d="M23.438 26a7.437 7.437 0 1 0-14.875 0 7.437 7.437 0 0 0 14.875 0" clip-rule="evenodd"/></mask></defs><g mask="url(#b)"><path fill="#0c6793" d="M-1000-1000h2000v2000h-2000z"/></g><path fill="none" stroke="#333" stroke-linecap="round" stroke-linejoin="round" stroke-width=".5" d="M23.438 26a7.437 7.437 0 1 0-14.875 0 7.437 7.437 0 0 0 14.875 0"/><defs><mask id="c"><path fill="#fff" fill-rule="evenodd" d="M40.438 26a7.437 7.437 0 1 0-14.875 0 7.437 7.437 0 0 0 14.875 0" clip-rule="evenodd"/></mask></defs><g mask="url(#c)"><path fill="#0c6793" d="M-1000-1000h2000v2000h-2000z"/></g><path fill="none" stroke="#333" stroke-linecap="round" stroke-linejoin="round" stroke-width=".5" d="M40.438 26a7.437 7.437 0 1 0-14.875 0 7.437 7.437 0 0 0 14.875 0"/><defs><mask id="d"><path fill="#fff" fill-rule="evenodd" d="M57.438 26a7.437 7.437 0 1 0-14.875 0 7.437 7.437 0 0 0 14.874 0" clip-rule="evenodd"/></mask></defs><g mask="url(#d)"><path fill="#0c6793" d="M-1000-1000h2000v2000h-2000z"/></g><path fill="none" stroke="#333" stroke-linecap="round" stroke-linejoin="round" stroke-width=".5" d="M57.438 26a7.437 7.437 0 1 0-14.875 0 7.437 7.437 0 0 0 14.874 0"/><defs><mask id="e"><path fill="#fff" fill-rule="evenodd" d="M74.438 26a7.437 7.437 0 1 0-14.875 0 7.437 7.437 0 0 0 14.874 0" clip-rule="evenodd"/></mask></defs><g mask="url(#e)"><path fill="#0c6793" d="M-1000-1000h2000v2000h-2000z"/></g><path fill="none" stroke="#333" stroke-linecap="round" stroke-linejoin="round" stroke-width=".5" d="M74.438 26a7.437 7.437 0 1 0-14.875 0 7.437 7.437 0 0 0 14.874 0"/><defs><mask id="f"><path fill="#fff" fill-rule="evenodd" d="M91.438 26a7.437 7.437 0 1 0-14.875 0 7.437 7.437 0 0 0 14.874 0" clip-rule="evenodd"/></mask></defs><g mask="url(#f)"><path fill="#0c6793" d="M-1000-1000h2000v2000h-2000z"/></g><path fill="none" stroke="#333" stroke-linecap="round" stroke-linejoin="round" stroke-width=".5" d="M91.438 26a7.437 7.437 0 1 0-14.875 0 7.437 7.437 0 0 0 14.874 0"/><defs><mask id="g"><path fill="#fff" fill-rule="evenodd" d="M23.438 43a7.437 7.437 0 1 0-14.875 0 7.437 7.437 0 0 0 14.875 0" clip-rule="evenodd"/></mask></defs><g mask="url(#g)"><path fill="#0c6793" d="M-1000-1000h2000v2000h-2000z"/></g><path fill="none" stroke="#333" stroke-linecap="round" stroke-linejoin="round" stroke-width=".5" d="M23.438 43a7.437 7.437 0 1 0-14.875 0 7.437 7.437 0 0 0 14.875 0"/><defs><mask id="h"><path fill="#fff" fill-rule="evenodd" d="M91.438 43a7.437 7.437 0 1 0-14.875 0 7.437 7.437 0 0 0 14.874 0" clip-rule="evenodd"/></mask></defs><g mask="url(#h)"><path fill="#0c6793" d="M-1000-1000h2000v2000h-2000z"/></g><path fill="none" stroke="#333" stroke-linecap="round" stroke-linejoin="round" stroke-width=".5" d="M91.438 43a7.437 7.437 0 1 0-14.875 0 7.437 7.437 0 0 0 14.874 0"/><defs><mask id="i"><path fill="#fff" fill-rule="evenodd" d="M23.438 60a7.437 7.437 0 1 0-14.875 0 7.437 7.437 0 0 0 14.875 0" clip-rule="evenodd"/></mask></defs><g mask="url(#i)"><path fill="#0c6793" d="M-1000-1000h2000v2000h-2000z"/></g><path fill="none" stroke="#333" stroke-linecap="round" stroke-linejoin="round" stroke-width=".5" d="M23.438 60a7.437 7.437 0 1 0-14.875 0 7.437 7.437 0 0 0 14.875 0"/><defs><mask id="j"><path fill="#fff" fill-rule="evenodd" d="M91.438 60a7.437 7.437 0 1 0-14.875 0 7.437 7.437 0 0 0 14.874 0" clip-rule="evenodd"/></mask></defs><g mask="url(#j)"><path fill="#0c6793" d="M-1000-1000h2000v2000h-2000z"/></g><path fill="none" stroke="#333" stroke-linecap="round" stroke-linejoin="round" stroke-width=".5" d="M91.438 60a7.437 7.437 0 1 0-14.875 0 7.437 7.437 0 0 0 14.874 0"/><defs><mask id="k"><path fill="#fff" fill-rule="evenodd" d="M23.438 77a7.437 7.437 0 1 0-14.875 0 7.437 7.437 0 0 0 14.875 0" clip-rule="evenodd"/></mask></defs><g mask="url(#k)"><path fill="#0c6793" d="M-1000-1000h2000v2000h-2000z"/></g><path fill="none" stroke="#333" stroke-linecap="round" stroke-linejoin="round" stroke-width=".5" d="M23.438 77a7.437 7.437 0 1 0-14.875 0 7.437 7.437 0 0 0 14.875 0"/><defs><mask id="l"><path fill="#fff" fill-rule="evenodd" d="M91.438 77a7.437 7.437 0 1 0-14.875 0 7.437 7.437 0 0 0 14.874 0" clip-rule="evenodd"/></mask></defs><g mask="url(#l)"><path fill="#0c6793" d="M-1000-1000h2000v2000h-2000z"/></g><path fill="none" stroke="#333" stroke-linecap="round" stroke-linejoin="round" stroke-width=".5" d="M91.438 77a7.437 7.437 0 1 0-14.875 0 7.437 7.437 0 0 0 14.874 0"/><defs><mask id="m"><path fill="#fff" fill-rule="evenodd" d="M23.438 94a7.437 7.437 0 1 0-14.875 0 7.437 7.437 0 0 0 14.875 0" clip-rule="evenodd"/></mask></defs><g mask="url(#m)"><path fill="#0c6793" d="M-1000-1000h2000v2000h-2000z"/></g><path fill="none" stroke="#333" stroke-linecap="round" stroke-linejoin="round" stroke-width=".5" d="M23.438 94a7.437 7.437 0 1 0-14.875 0 7.437 7.437 0 0 0 14.875 0"/><defs><mask id="n"><path fill="#fff" fill-rule="evenodd" d="M40.438 94a7.437 7.437 0 1 0-14.875 0 7.437 7.437 0 0 0 14.875 0" clip-rule="evenodd"/></mask></defs><g mask="url(#n)"><path fill="#0c6793" d="M-1000-1000h2000v2000h-2000z"/></g><path fill="none" stroke="#333" stroke-linecap="round" stroke-linejoin="round" stroke-width=".5" d="M40.438 94a7.437 7.437 0 1 0-14.875 0 7.437 7.437 0 0 0 14.875 0"/><defs><mask id="o"><path fill="#fff" fill-rule="evenodd" d="M57.438 94a7.437 7.437 0 1 0-14.875 0 7.437 7.437 0 0 0 14.874 0" clip-rule="evenodd"/></mask></defs><g mask="url(#o)"><path fill="#0c6793" d="M-1000-1000h2000v2000h-2000z"/></g><path fill="none" stroke="#333" stroke-linecap="round" stroke-linejoin="round" stroke-width=".5" d="M57.438 94a7.437 7.437 0 1 0-14.875 0 7.437 7.437 0 0 0 14.874 0"/><defs><mask id="p"><path fill="#fff" fill-rule="evenodd" d="M74.438 94a7.437 7.437 0 1 0-14.875 0 7.437 7.437 0 0 0 14.874 0" clip-rule="evenodd"/></mask></defs><g mask="url(#p)"><path fill="#0c6793" d="M-1000-1000h2000v2000h-2000z"/></g><path fill="none" stroke="#333" stroke-linecap="round" stroke-linejoin="round" stroke-width=".5" d="M74.438 94a7.437 7.437 0 1 0-14.875 0 7.437 7.437 0 0 0 14.874 0"/><defs><mask id="q"><path fill="#fff" fill-rule="evenodd" d="M91.438 94a7.437 7.437 0 1 0-14.875 0 7.437 7.437 0 0 0 14.874 0" clip-rule="evenodd"/></mask></defs><g mask="url(#q)"><path fill="#0c6793" d="M-1000-1000h2000v2000h-2000z"/></g><path fill="none" stroke="#333" stroke-linecap="round" stroke-linejoin="round" stroke-width=".5" d="M91.438 94a7.437 7.437 0 1 0-14.875 0 7.437 7.437 0 0 0 14.874 0"/></g><path fill="none" stroke="#333" stroke-linecap="round" stroke-linejoin="round" stroke-width=".5" d="M0 0h100v120H0z"/></svg>