<?xml version="1.0" encoding="UTF-8" standalone="no"?>
<svg xmlns="http://www.w3.org/2000/svg" viewBox="-10 -10 120 140" preserveAspectRatio="xMidYMin slice"><defs><mask id="a"><path d="M0 0h100v120H0z" clip-rule="evenodd" fill-rule="evenodd" fill="#fff"/></mask></defs><g mask="url(#a)"><path d="M0 0h100v120H0z" fill-rule="evenodd" fill="#f0f0f0"/><path fill="#f6f6f6" d="M-1000-1000h2000v2000h-2000z"/><defs><mask id="b"><path d="M31.366 34.02c0-6.277-5.089-11.366-11.366-11.366-6.277 0-11.366 5.089-11.366 11.366 0 6.277 5.089 11.366 11.366 11.366 6.277 0 11.366-5.089 11.366-11.366z" clip-rule="evenodd" fill-rule="evenodd" fill="#fff"/></mask></defs><g mask="url(#b)"><path fill="#0c6793" d="M-1000-1000h2000v2000h-2000z"/></g><path d="M31.366 34.02c0-6.277-5.089-11.366-11.366-11.366-6.277 0-11.366 5.089-11.366 11.366 0 6.277 5.089 11.366 11.366 11.366 6.277 0 11.366-5.089 11.366-11.366z" stroke="#333" stroke-width=".5" fill="none" stroke-linecap="round" stroke-linejoin="round"/><defs><mask id="c"><path d="M61.366 34.02c0-6.277-5.089-11.366-11.366-11.366-6.277 0-11.366 5.089-11.366 11.366 0 6.277 5.089 11.366 11.366 11.366 6.277 0 11.366-5.089 11.366-11.366z" clip-rule="evenodd" fill-rule="evenodd" fill="#fff"/></mask></defs><g mask="url(#c)"><path fill="#0c6793" d="M-1000-1000h2000v2000h-2000z"/></g><path d="M61.366 34.02c0-6.277-5.089-11.366-11.366-11.366-6.277 0-11.366 5.089-11.366 11.366 0 6.277 5.089 11.366 11.366 11.366 6.277 0 11.366-5.089 11.366-11.366z" stroke="#333" stroke-width=".5" fill="none" stroke-linecap="round" stroke-linejoin="round"/><defs><mask id="d"><path d="M91.366 34.02c0-6.277-5.089-11.366-11.366-11.366-6.277 0-11.366 5.089-11.366 11.366 0 6.277 5.089 11.366 11.366 11.366 6.277 0 11.366-5.089 11.366-11.366z" clip-rule="evenodd" fill-rule="evenodd" fill="#fff"/></mask></defs><g mask="url(#d)"><path fill="#0c6793" d="M-1000-1000h2000v2000h-2000z"/></g><path d="M91.366 34.02c0-6.277-5.089-11.366-11.366-11.366-6.277 0-11.366 5.089-11.366 11.366 0 6.277 5.089 11.366 11.366 11.366 6.277 0 11.366-5.089 11.366-11.366z" stroke="#333" stroke-width=".5" fill="none" stroke-linecap="round" stroke-linejoin="round"/><defs><mask id="e"><path d="M46.366 60c0-6.277-5.089-11.366-11.366-11.366-6.277 0-11.366 5.089-11.366 11.366 0 6.277 5.089 11.366 11.366 11.366 6.277 0 11.366-5.089 11.366-11.366z" clip-rule="evenodd" fill-rule="evenodd" fill="#fff"/></mask></defs><g mask="url(#e)"><path fill="#0c6793" d="M-1000-1000h2000v2000h-2000z"/></g><path d="M46.366 60c0-6.277-5.089-11.366-11.366-11.366-6.277 0-11.366 5.089-11.366 11.366 0 6.277 5.089 11.366 11.366 11.366 6.277 0 11.366-5.089 11.366-11.366z" stroke="#333" stroke-width=".5" fill="none" stroke-linecap="round" stroke-linejoin="round"/><defs><mask id="f"><path d="M76.366 60c0-6.277-5.089-11.366-11.366-11.366-6.277 0-11.366 5.089-11.366 11.366 0 6.277 5.089 11.366 11.366 11.366 6.277 0 11.366-5.089 11.366-11.366z" clip-rule="evenodd" fill-rule="evenodd" fill="#fff"/></mask></defs><g mask="url(#f)"><path fill="#0c6793" d="M-1000-1000h2000v2000h-2000z"/></g><path d="M76.366 60c0-6.277-5.089-11.366-11.366-11.366-6.277 0-11.366 5.089-11.366 11.366 0 6.277 5.089 11.366 11.366 11.366 6.277 0 11.366-5.089 11.366-11.366z" stroke="#333" stroke-width=".5" fill="none" stroke-linecap="round" stroke-linejoin="round"/><defs><mask id="g"><path d="M61.366 85.98c0-6.277-5.089-11.366-11.366-11.366-6.277 0-11.366 5.089-11.366 11.366 0 6.277 5.089 11.366 11.366 11.366 6.277 0 11.366-5.089 11.366-11.366z" clip-rule="evenodd" fill-rule="evenodd" fill="#fff"/></mask></defs><g mask="url(#g)"><path fill="#0c6793" d="M-1000-1000h2000v2000h-2000z"/></g><path d="M61.366 85.98c0-6.277-5.089-11.366-11.366-11.366-6.277 0-11.366 5.089-11.366 11.366 0 6.277 5.089 11.366 11.366 11.366 6.277 0 11.366-5.089 11.366-11.366z" stroke="#333" stroke-width=".5" fill="none" stroke-linecap="round" stroke-linejoin="round"/></g><path d="M0 0h100v120H0z" stroke="#333" stroke-width=".5" fill="none" stroke-linecap="round" stroke-linejoin="round"/></svg>