<?xml version="1.0" encoding="UTF-8" standalone="no"?>
<svg xmlns="http://www.w3.org/2000/svg" preserveAspectRatio="xMidYMin slice" viewBox="-10 -10 120 140"><defs><mask id="a"><path fill="#fff" fill-rule="evenodd" d="M0 0h100v120H0z" clip-rule="evenodd"/></mask></defs><g mask="url(#a)"><path fill="#f0f0f0" fill-rule="evenodd" d="M0 0h100v120H0z"/><path fill="#f6f6f6" d="M-1000-1000h2000v2000h-2000z"/><defs><mask id="b"><path fill="#fff" fill-rule="evenodd" d="M76.517 33.484c14.644 14.644 14.644 38.388 0 53.033-14.645 14.644-38.389 14.644-53.034 0s-14.644-38.389 0-53.033a28.125 28.125 0 1 0 53.034 0" clip-rule="evenodd"/></mask></defs><g mask="url(#b)"><path fill="#0c6793" d="M-1000-1000h2000v2000h-2000z"/></g><path fill="none" stroke="#333" stroke-linecap="round" stroke-linejoin="round" stroke-width=".5" d="M76.517 33.484c14.644 14.644 14.644 38.388 0 53.033-14.645 14.644-38.389 14.644-53.034 0s-14.644-38.389 0-53.033a28.125 28.125 0 1 0 53.034 0"/></g><path fill="none" stroke="#333" stroke-linecap="round" stroke-linejoin="round" stroke-width=".5" d="M0 0h100v120H0z"/></svg>