<?xml version="1.0" encoding="UTF-8" standalone="no"?>
<svg xmlns="http://www.w3.org/2000/svg" preserveAspectRatio="xMidYMin slice" viewBox="-10 -10 120 140"><defs><mask id="a"><path fill="#fff" fill-rule="evenodd" d="M0 0h100v120H0z" clip-rule="evenodd"/></mask></defs><g mask="url(#a)"><path fill="#f0f0f0" fill-rule="evenodd" d="M0 0h100v120H0z"/><path fill="#f6f6f6" d="M-1000-1000h2000v2000h-2000z"/><defs><mask id="b"><path fill="#fff" fill-rule="evenodd" d="M59.491 30a9.491 9.491 0 1 0-18.982 0 9.491 9.491 0 0 0 18.982 0z" clip-rule="evenodd"/></mask></defs><g mask="url(#b)"><path fill="#0c6793" d="M-1000-1000h2000v2000h-2000z"/></g><path fill="none" stroke="#333" stroke-linecap="round" stroke-linejoin="round" stroke-width=".5" d="M59.491 30a9.491 9.491 0 1 0-18.982 0 9.491 9.491 0 0 0 18.982 0z"/><defs><mask id="c"><path fill="#fff" fill-rule="evenodd" d="M82.946 41.295a9.491 9.491 0 1 0-18.982 0 9.491 9.491 0 0 0 18.982 0z" clip-rule="evenodd"/></mask></defs><g mask="url(#c)"><path fill="#0c6793" d="M-1000-1000h2000v2000h-2000z"/></g><path fill="none" stroke="#333" stroke-linecap="round" stroke-linejoin="round" stroke-width=".5" d="M82.946 41.295a9.491 9.491 0 1 0-18.982 0 9.491 9.491 0 0 0 18.982 0z"/><defs><mask id="d"><path fill="#fff" fill-rule="evenodd" d="M88.739 66.676a9.491 9.491 0 1 0-18.982 0 9.491 9.491 0 0 0 18.982 0z" clip-rule="evenodd"/></mask></defs><g mask="url(#d)"><path fill="#0c6793" d="M-1000-1000h2000v2000h-2000z"/></g><path fill="none" stroke="#333" stroke-linecap="round" stroke-linejoin="round" stroke-width=".5" d="M88.739 66.676a9.491 9.491 0 1 0-18.982 0 9.491 9.491 0 0 0 18.982 0z"/><defs><mask id="e"><path fill="#fff" fill-rule="evenodd" d="M72.508 87.03a9.491 9.491 0 1 0-18.983 0 9.491 9.491 0 0 0 18.983 0z" clip-rule="evenodd"/></mask></defs><g mask="url(#e)"><path fill="#0c6793" d="M-1000-1000h2000v2000h-2000z"/></g><path fill="none" stroke="#333" stroke-linecap="round" stroke-linejoin="round" stroke-width=".5" d="M72.508 87.03a9.491 9.491 0 1 0-18.983 0 9.491 9.491 0 0 0 18.983 0z"/><defs><mask id="f"><path fill="#fff" fill-rule="evenodd" d="M46.475 87.03a9.491 9.491 0 1 0-18.983 0 9.491 9.491 0 0 0 18.983 0z" clip-rule="evenodd"/></mask></defs><g mask="url(#f)"><path fill="#0c6793" d="M-1000-1000h2000v2000h-2000z"/></g><path fill="none" stroke="#333" stroke-linecap="round" stroke-linejoin="round" stroke-width=".5" d="M46.475 87.03a9.491 9.491 0 1 0-18.983 0 9.491 9.491 0 0 0 18.983 0z"/><defs><mask id="g"><path fill="#fff" fill-rule="evenodd" d="M30.243 66.676a9.491 9.491 0 1 0-18.982 0 9.491 9.491 0 0 0 18.982 0z" clip-rule="evenodd"/></mask></defs><g mask="url(#g)"><path fill="#0c6793" d="M-1000-1000h2000v2000h-2000z"/></g><path fill="none" stroke="#333" stroke-linecap="round" stroke-linejoin="round" stroke-width=".5" d="M30.243 66.676a9.491 9.491 0 1 0-18.982 0 9.491 9.491 0 0 0 18.982 0z"/><defs><mask id="h"><path fill="#fff" fill-rule="evenodd" d="M36.036 41.295a9.491 9.491 0 1 0-18.982 0 9.491 9.491 0 0 0 18.982 0z" clip-rule="evenodd"/></mask></defs><g mask="url(#h)"><path fill="#0c6793" d="M-1000-1000h2000v2000h-2000z"/></g><path fill="none" stroke="#333" stroke-linecap="round" stroke-linejoin="round" stroke-width=".5" d="M36.036 41.295a9.491 9.491 0 1 0-18.982 0 9.491 9.491 0 0 0 18.982 0z"/></g><path fill="none" stroke="#333" stroke-linecap="round" stroke-linejoin="round" stroke-width=".5" d="M0 0h100v120H0z"/></svg>