<?xml version="1.0" encoding="UTF-8" standalone="no"?>
<svg xmlns="http://www.w3.org/2000/svg" preserveAspectRatio="xMidYMin slice" viewBox="-10 -10 120 140"><defs><mask id="a"><path fill="#fff" fill-rule="evenodd" d="M0 0h100v120H0z" clip-rule="evenodd"/></mask></defs><g mask="url(#a)"><path fill="#f0f0f0" fill-rule="evenodd" d="M0 0h100v120H0z"/><path fill="#f6f6f6" d="M-1000-1000h2000v2000h-2000z"/><defs><mask id="b"><path fill="#fff" fill-rule="evenodd" d="M33.125 60c0-7.249-5.876-13.125-13.125-13.125S6.875 52.751 6.875 60 12.751 73.125 20 73.125 33.125 67.249 33.125 60z" clip-rule="evenodd"/></mask></defs><g mask="url(#b)"><path fill="#0c6793" d="M-1000-1000h2000v2000h-2000z"/></g><path fill="none" stroke="#333" stroke-linecap="round" stroke-linejoin="round" stroke-width=".5" d="M33.125 60c0-7.249-5.876-13.125-13.125-13.125S6.875 52.751 6.875 60 12.751 73.125 20 73.125 33.125 67.249 33.125 60z"/><defs><mask id="c"><path fill="#fff" fill-rule="evenodd" d="M63.125 60c0-7.249-5.876-13.125-13.125-13.125S36.875 52.751 36.875 60 42.751 73.125 50 73.125 63.125 67.249 63.125 60z" clip-rule="evenodd"/></mask></defs><g mask="url(#c)"><path fill="#0c6793" d="M-1000-1000h2000v2000h-2000z"/></g><path fill="none" stroke="#333" stroke-linecap="round" stroke-linejoin="round" stroke-width=".5" d="M63.125 60c0-7.249-5.876-13.125-13.125-13.125S36.875 52.751 36.875 60 42.751 73.125 50 73.125 63.125 67.249 63.125 60z"/><defs><mask id="d"><path fill="#fff" fill-rule="evenodd" d="M93.125 60c0-7.249-5.876-13.125-13.125-13.125S66.875 52.751 66.875 60 72.751 73.125 80 73.125 93.125 67.249 93.125 60z" clip-rule="evenodd"/></mask></defs><g mask="url(#d)"><path fill="#0c6793" d="M-1000-1000h2000v2000h-2000z"/></g><path fill="none" stroke="#333" stroke-linecap="round" stroke-linejoin="round" stroke-width=".5" d="M93.125 60c0-7.249-5.876-13.125-13.125-13.125S66.875 52.751 66.875 60 72.751 73.125 80 73.125 93.125 67.249 93.125 60z"/></g><path fill="none" stroke="#333" stroke-linecap="round" stroke-linejoin="round" stroke-width=".5" d="M0 0h100v120H0z"/></svg>