<?xml version="1.0" encoding="UTF-8" standalone="no"?>
<svg xmlns="http://www.w3.org/2000/svg" preserveAspectRatio="xMidYMin slice" viewBox="-10 -10 120 140"><defs><mask id="a"><path fill="#fff" fill-rule="evenodd" d="M0 0h100v120H0z" clip-rule="evenodd"/></mask></defs><g mask="url(#a)"><path fill="#f0f0f0" fill-rule="evenodd" d="M0 0h100v120H0z"/><path fill="#f6f6f6" d="M-1000-1000h2000v2000h-2000z"/><defs><mask id="b"><path fill="#fff" fill-rule="evenodd" d="M48.268 42c0-7.652-6.204-13.856-13.856-13.856S20.556 34.348 20.556 42s6.204 13.856 13.856 13.856S48.268 49.652 48.268 42" clip-rule="evenodd"/></mask></defs><g mask="url(#b)"><path fill="#0c6793" d="M-1000-1000h2000v2000h-2000z"/></g><path fill="none" stroke="#333" stroke-linecap="round" stroke-linejoin="round" stroke-width=".5" d="M48.268 42c0-7.652-6.204-13.856-13.856-13.856S20.556 34.348 20.556 42s6.204 13.856 13.856 13.856S48.268 49.652 48.268 42"/><defs><mask id="c"><path fill="#fff" fill-rule="evenodd" d="M48.268 78c0-7.652-6.204-13.856-13.856-13.856S20.556 70.348 20.556 78s6.204 13.856 13.856 13.856S48.268 85.652 48.268 78" clip-rule="evenodd"/></mask></defs><g mask="url(#c)"><path fill="#0c6793" d="M-1000-1000h2000v2000h-2000z"/></g><path fill="none" stroke="#333" stroke-linecap="round" stroke-linejoin="round" stroke-width=".5" d="M48.268 78c0-7.652-6.204-13.856-13.856-13.856S20.556 70.348 20.556 78s6.204 13.856 13.856 13.856S48.268 85.652 48.268 78"/><defs><mask id="d"><path fill="#fff" fill-rule="evenodd" d="M79.444 60c0-7.652-6.204-13.856-13.856-13.856S51.732 52.348 51.732 60s6.204 13.856 13.856 13.856S79.444 67.652 79.444 60" clip-rule="evenodd"/></mask></defs><g mask="url(#d)"><path fill="#0c6793" d="M-1000-1000h2000v2000h-2000z"/></g><path fill="none" stroke="#333" stroke-linecap="round" stroke-linejoin="round" stroke-width=".5" d="M79.444 60c0-7.652-6.204-13.856-13.856-13.856S51.732 52.348 51.732 60s6.204 13.856 13.856 13.856S79.444 67.652 79.444 60"/></g><path fill="none" stroke="#333" stroke-linecap="round" stroke-linejoin="round" stroke-width=".5" d="M0 0h100v120H0z"/></svg>