<svg preserveAspectRatio="xMidYMin slice" viewBox="0 0 120 200" xmlns="http://www.w3.org/2000/svg"><g transform="translate(10 10)"><defs><mask id="a"><path clip-rule="evenodd" d="M0 0h100v120H0z" fill-rule="evenodd" fill="#fff"/></mask></defs><g mask="url(#a)"><path d="M0 0h100v120H0z" fill-rule="evenodd" fill="#f0f0f0"/><path fill="#f6f6f6" style="cursor:pointer" d="M-1000-1000h2000v2000h-2000z"/><defs><mask id="b"><path clip-rule="evenodd" d="M58.75 20a8.75 8.75 0 0 0-17.5 0 8.75 8.75 0 0 0 17.5 0z" fill-rule="evenodd" fill="#fff"/><path d="M58.75 20a8.75 8.75 0 0 0-17.5 0 8.75 8.75 0 0 0 17.5 0z" fill="none" stroke-width=".1" stroke="#fff"/></mask></defs><g mask="url(#b)"><path fill="#0c6793" style="cursor:pointer" d="M-1000-1000h2000v2000h-2000z"/></g><path d="M58.75 20a8.75 8.75 0 0 0-17.5 0 8.75 8.75 0 0 0 17.5 0z" fill="none" stroke-linecap="round" stroke-linejoin="round" stroke-width=".5" stroke="#333"/><defs><mask id="c"><path clip-rule="evenodd" d="M58.75 40a8.75 8.75 0 0 0-17.5 0 8.75 8.75 0 0 0 17.5 0z" fill-rule="evenodd" fill="#fff"/><path d="M58.75 40a8.75 8.75 0 0 0-17.5 0 8.75 8.75 0 0 0 17.5 0z" fill="none" stroke-width=".1" stroke="#fff"/></mask></defs><g mask="url(#c)"><path fill="#0c6793" style="cursor:pointer" d="M-1000-1000h2000v2000h-2000z"/></g><path d="M58.75 40a8.75 8.75 0 0 0-17.5 0 8.75 8.75 0 0 0 17.5 0z" fill="none" stroke-linecap="round" stroke-linejoin="round" stroke-width=".5" stroke="#333"/><defs><mask id="d"><path clip-rule="evenodd" d="M18.75 60a8.75 8.75 0 0 0-17.5 0 8.75 8.75 0 0 0 17.5 0z" fill-rule="evenodd" fill="#fff"/><path d="M18.75 60a8.75 8.75 0 0 0-17.5 0 8.75 8.75 0 0 0 17.5 0z" fill="none" stroke-width=".1" stroke="#fff"/></mask></defs><g mask="url(#d)"><path fill="#0c6793" style="cursor:pointer" d="M-1000-1000h2000v2000h-2000z"/></g><path d="M18.75 60a8.75 8.75 0 0 0-17.5 0 8.75 8.75 0 0 0 17.5 0z" fill="none" stroke-linecap="round" stroke-linejoin="round" stroke-width=".5" stroke="#333"/><defs><mask id="e"><path clip-rule="evenodd" d="M38.75 60a8.75 8.75 0 0 0-17.5 0 8.75 8.75 0 0 0 17.5 0z" fill-rule="evenodd" fill="#fff"/><path d="M38.75 60a8.75 8.75 0 0 0-17.5 0 8.75 8.75 0 0 0 17.5 0z" fill="none" stroke-width=".1" stroke="#fff"/></mask></defs><g mask="url(#e)"><path fill="#0c6793" style="cursor:pointer" d="M-1000-1000h2000v2000h-2000z"/></g><path d="M38.75 60a8.75 8.75 0 0 0-17.5 0 8.75 8.75 0 0 0 17.5 0z" fill="none" stroke-linecap="round" stroke-linejoin="round" stroke-width=".5" stroke="#333"/><defs><mask id="f"><path clip-rule="evenodd" d="M58.75 60a8.75 8.75 0 0 0-17.5 0 8.75 8.75 0 0 0 17.5 0z" fill-rule="evenodd" fill="#fff"/><path d="M58.75 60a8.75 8.75 0 0 0-17.5 0 8.75 8.75 0 0 0 17.5 0z" fill="none" stroke-width=".1" stroke="#fff"/></mask></defs><g mask="url(#f)"><path fill="#0c6793" style="cursor:pointer" d="M-1000-1000h2000v2000h-2000z"/></g><path d="M58.75 60a8.75 8.75 0 0 0-17.5 0 8.75 8.75 0 0 0 17.5 0z" fill="none" stroke-linecap="round" stroke-linejoin="round" stroke-width=".5" stroke="#333"/><defs><mask id="g"><path clip-rule="evenodd" d="M78.75 60a8.75 8.75 0 0 0-17.5 0 8.75 8.75 0 0 0 17.5 0z" fill-rule="evenodd" fill="#fff"/><path d="M78.75 60a8.75 8.75 0 0 0-17.5 0 8.75 8.75 0 0 0 17.5 0z" fill="none" stroke-width=".1" stroke="#fff"/></mask></defs><g mask="url(#g)"><path fill="#0c6793" style="cursor:pointer" d="M-1000-1000h2000v2000h-2000z"/></g><path d="M78.75 60a8.75 8.75 0 0 0-17.5 0 8.75 8.75 0 0 0 17.5 0z" fill="none" stroke-linecap="round" stroke-linejoin="round" stroke-width=".5" stroke="#333"/><defs><mask id="h"><path clip-rule="evenodd" d="M98.75 60a8.75 8.75 0 0 0-17.5 0 8.75 8.75 0 0 0 17.5 0z" fill-rule="evenodd" fill="#fff"/><path d="M98.75 60a8.75 8.75 0 0 0-17.5 0 8.75 8.75 0 0 0 17.5 0z" fill="none" stroke-width=".1" stroke="#fff"/></mask></defs><g mask="url(#h)"><path fill="#0c6793" style="cursor:pointer" d="M-1000-1000h2000v2000h-2000z"/></g><path d="M98.75 60a8.75 8.75 0 0 0-17.5 0 8.75 8.75 0 0 0 17.5 0z" fill="none" stroke-linecap="round" stroke-linejoin="round" stroke-width=".5" stroke="#333"/><defs><mask id="i"><path clip-rule="evenodd" d="M58.75 80a8.75 8.75 0 0 0-17.5 0 8.75 8.75 0 0 0 17.5 0z" fill-rule="evenodd" fill="#fff"/><path d="M58.75 80a8.75 8.75 0 0 0-17.5 0 8.75 8.75 0 0 0 17.5 0z" fill="none" stroke-width=".1" stroke="#fff"/></mask></defs><g mask="url(#i)"><path fill="#0c6793" style="cursor:pointer" d="M-1000-1000h2000v2000h-2000z"/></g><path d="M58.75 80a8.75 8.75 0 0 0-17.5 0 8.75 8.75 0 0 0 17.5 0z" fill="none" stroke-linecap="round" stroke-linejoin="round" stroke-width=".5" stroke="#333"/><defs><mask id="j"><path clip-rule="evenodd" d="M58.75 100a8.75 8.75 0 0 0-17.5 0 8.75 8.75 0 0 0 17.5 0z" fill-rule="evenodd" fill="#fff"/><path d="M58.75 100a8.75 8.75 0 0 0-17.5 0 8.75 8.75 0 0 0 17.5 0z" fill="none" stroke-width=".1" stroke="#fff"/></mask></defs><g mask="url(#j)"><path fill="#0c6793" style="cursor:pointer" d="M-1000-1000h2000v2000h-2000z"/></g><path d="M58.75 100a8.75 8.75 0 0 0-17.5 0 8.75 8.75 0 0 0 17.5 0z" fill="none" stroke-linecap="round" stroke-linejoin="round" stroke-width=".5" stroke="#333"/></g><path d="M0 0h100v120H0z" fill="none" stroke-linecap="round" stroke-linejoin="round" stroke-width=".5" stroke="#333"/></g></svg>