<svg preserveAspectRatio="xMidYMin slice" viewBox="0 0 120 200" xmlns="http://www.w3.org/2000/svg"><g transform="translate(10 10)"><defs><mask id="a"><path clip-rule="evenodd" d="M0 0h100v120H0z" fill-rule="evenodd" fill="#fff"/></mask></defs><g mask="url(#a)"><path d="M0 0h100v120H0z" fill-rule="evenodd" fill="#f0f0f0"/><path fill="#f6f6f6" style="cursor:pointer" d="M-1000-1000h2000v2000h-2000z"/><defs><mask id="b"><path clip-rule="evenodd" d="m50 15 10.103 31.094h32.695l-26.45 19.218L76.45 96.406 50 77.188 23.55 96.406l10.103-31.094-26.45-19.218h32.694z" fill-rule="evenodd" fill="#fff"/><path d="m50 15 10.103 31.094h32.695l-26.45 19.218L76.45 96.406 50 77.188 23.55 96.406l10.103-31.094-26.45-19.218h32.694z" fill="none" stroke-width=".1" stroke="#fff"/></mask></defs><g mask="url(#b)"><path fill="#f2bc51" style="cursor:pointer" d="M-1000-1000h2000v2000h-2000z"/></g><path d="m50 15 10.103 31.094h32.695l-26.45 19.218L76.45 96.406 50 77.188 23.55 96.406l10.103-31.094-26.45-19.218h32.694z" fill="none" stroke-linecap="round" stroke-linejoin="round" stroke-width=".5" stroke="#333"/></g><path d="M0 0h100v120H0z" fill="none" stroke-linecap="round" stroke-linejoin="round" stroke-width=".5" stroke="#333"/></g></svg>