<svg preserveAspectRatio="xMidYMin slice" viewBox="0 0 120 200" xmlns="http://www.w3.org/2000/svg"><g transform="translate(10 10)"><defs><mask id="a"><path clip-rule="evenodd" d="M0 0h100v120H0z" fill-rule="evenodd" fill="#fff"/></mask></defs><g mask="url(#a)"><path d="M0 0h100v120H0z" fill-rule="evenodd" fill="#f0f0f0"/><path fill="#f6f6f6" style="cursor:pointer" d="M-1000-1000h2000v2000h-2000z"/><defs><mask id="b"><path clip-rule="evenodd" d="M47.626 37.019c0-5.523-4.478-10-10-10-5.523 0-10 4.477-10 10s4.477 10 10 10c5.522 0 10-4.477 10-10z" fill-rule="evenodd" fill="#fff"/><path d="M47.626 37.019c0-5.523-4.478-10-10-10-5.523 0-10 4.477-10 10s4.477 10 10 10c5.522 0 10-4.477 10-10z" fill="none" stroke-width=".1" stroke="#fff"/></mask></defs><g mask="url(#b)"><path fill="#0c6793" style="cursor:pointer" d="M-1000-1000h2000v2000h-2000z"/></g><path d="M47.626 37.019c0-5.523-4.478-10-10-10-5.523 0-10 4.477-10 10s4.477 10 10 10c5.522 0 10-4.477 10-10z" fill="none" stroke-linecap="round" stroke-linejoin="round" stroke-width=".5" stroke="#333"/><defs><mask id="c"><path clip-rule="evenodd" d="M82.981 72.374c0-5.522-4.477-10-10-10s-10 4.478-10 10c0 5.523 4.477 10 10 10s10-4.477 10-10z" fill-rule="evenodd" fill="#fff"/><path d="M82.981 72.374c0-5.522-4.477-10-10-10s-10 4.478-10 10c0 5.523 4.477 10 10 10s10-4.477 10-10z" fill="none" stroke-width=".1" stroke="#fff"/></mask></defs><g mask="url(#c)"><path fill="#0c6793" style="cursor:pointer" d="M-1000-1000h2000v2000h-2000z"/></g><path d="M82.981 72.374c0-5.522-4.477-10-10-10s-10 4.478-10 10c0 5.523 4.477 10 10 10s10-4.477 10-10z" fill="none" stroke-linecap="round" stroke-linejoin="round" stroke-width=".5" stroke="#333"/><defs><mask id="d"><path clip-rule="evenodd" d="M54.697 65.303c0-5.523-4.477-10-10-10s-10 4.477-10 10 4.477 10 10 10 10-4.477 10-10z" fill-rule="evenodd" fill="#fff"/><path d="M54.697 65.303c0-5.523-4.477-10-10-10s-10 4.477-10 10 4.477 10 10 10 10-4.477 10-10z" fill="none" stroke-width=".1" stroke="#fff"/></mask></defs><g mask="url(#d)"><path fill="#0c6793" style="cursor:pointer" d="M-1000-1000h2000v2000h-2000z"/></g><path d="M54.697 65.303c0-5.523-4.477-10-10-10s-10 4.477-10 10 4.477 10 10 10 10-4.477 10-10z" fill="none" stroke-linecap="round" stroke-linejoin="round" stroke-width=".5" stroke="#333"/></g><path d="M0 0h100v120H0z" fill="none" stroke-linecap="round" stroke-linejoin="round" stroke-width=".5" stroke="#333"/></g></svg>