<svg preserveAspectRatio="xMidYMin slice" viewBox="0 0 120 200" xmlns="http://www.w3.org/2000/svg"><g filter="url(#a)" transform="translate(10 10)"><defs><filter height="200%" id="a" width="200%" x="-20%" y="-20%"><feOffset dx=".2" dy=".2" in="SourceAlpha" result="offsetOut"/><feGaussianBlur in="offsetOut" result="blurOut"/><feBlend in2="blurOut" in="SourceGraphic"/></filter></defs><defs><clipPath id="b"><path d="M0 0h100v120H0z" fill="#fff"/></clipPath></defs><g clip-path="url(#b)"><path d="M0 0h100v120H0z" fill="#f0f0f0"/><g style="pointer-events:visiblePainted;cursor:pointer"><path fill="#f6f6f6" d="M-500-500H600V600H-500z"/><defs><clipPath id="c"><path d="M60.938 24.645a10.938 10.938 0 0 0-21.876 0 10.938 10.938 0 0 0 21.876 0z" fill="#fff"/><path d="M60.938 24.645a10.938 10.938 0 0 0-21.876 0 10.938 10.938 0 0 0 21.876 0z" fill="none" stroke-width=".1" stroke="#fff"/></clipPath></defs><g clip-path="url(#c)"><path fill="#0c6793" d="M-500-500H600V600H-500z" style="pointer-events:visiblePainted;cursor:pointer"/></g><path d="M60.938 24.645a10.938 10.938 0 0 0-21.876 0 10.938 10.938 0 0 0 21.876 0z" fill="none" stroke-linecap="round" stroke-linejoin="round" stroke-width=".5" stroke="#333"/><defs><clipPath id="d"><path d="M78.615 42.322a10.938 10.938 0 0 0-21.875 0 10.938 10.938 0 0 0 21.875 0z" fill="#fff"/><path d="M78.615 42.322a10.938 10.938 0 0 0-21.875 0 10.938 10.938 0 0 0 21.875 0z" fill="none" stroke-width=".1" stroke="#fff"/></clipPath></defs><g clip-path="url(#d)"><path fill="#0c6793" d="M-500-500H600V600H-500z" style="pointer-events:visiblePainted;cursor:pointer"/></g><path d="M78.615 42.322a10.938 10.938 0 0 0-21.875 0 10.938 10.938 0 0 0 21.875 0z" fill="none" stroke-linecap="round" stroke-linejoin="round" stroke-width=".5" stroke="#333"/><defs><clipPath id="e"><path d="M96.293 60a10.938 10.938 0 0 0-21.875 0 10.938 10.938 0 0 0 21.875 0z" fill="#fff"/><path d="M96.293 60a10.938 10.938 0 0 0-21.875 0 10.938 10.938 0 0 0 21.875 0z" fill="none" stroke-width=".1" stroke="#fff"/></clipPath></defs><g clip-path="url(#e)"><path fill="#0c6793" d="M-500-500H600V600H-500z" style="pointer-events:visiblePainted;cursor:pointer"/></g><path d="M96.293 60a10.938 10.938 0 0 0-21.875 0 10.938 10.938 0 0 0 21.875 0z" fill="none" stroke-linecap="round" stroke-linejoin="round" stroke-width=".5" stroke="#333"/><defs><clipPath id="f"><path d="M43.26 42.322a10.938 10.938 0 0 0-21.875 0 10.938 10.938 0 0 0 21.875 0z" fill="#fff"/><path d="M43.26 42.322a10.938 10.938 0 0 0-21.875 0 10.938 10.938 0 0 0 21.875 0z" fill="none" stroke-width=".1" stroke="#fff"/></clipPath></defs><g clip-path="url(#f)"><path fill="#0c6793" d="M-500-500H600V600H-500z" style="pointer-events:visiblePainted;cursor:pointer"/></g><path d="M43.26 42.322a10.938 10.938 0 0 0-21.875 0 10.938 10.938 0 0 0 21.875 0z" fill="none" stroke-linecap="round" stroke-linejoin="round" stroke-width=".5" stroke="#333"/><defs><clipPath id="g"><path d="M60.938 60a10.938 10.938 0 0 0-21.876 0 10.938 10.938 0 0 0 21.876 0z" fill="#fff"/><path d="M60.938 60a10.938 10.938 0 0 0-21.876 0 10.938 10.938 0 0 0 21.876 0z" fill="none" stroke-width=".1" stroke="#fff"/></clipPath></defs><g clip-path="url(#g)"><path fill="#0c6793" d="M-500-500H600V600H-500z" style="pointer-events:visiblePainted;cursor:pointer"/></g><path d="M60.938 60a10.938 10.938 0 0 0-21.876 0 10.938 10.938 0 0 0 21.876 0z" fill="none" stroke-linecap="round" stroke-linejoin="round" stroke-width=".5" stroke="#333"/><defs><clipPath id="h"><path d="M78.615 77.678a10.938 10.938 0 0 0-21.875 0 10.938 10.938 0 0 0 21.875 0z" fill="#fff"/><path d="M78.615 77.678a10.938 10.938 0 0 0-21.875 0 10.938 10.938 0 0 0 21.875 0z" fill="none" stroke-width=".1" stroke="#fff"/></clipPath></defs><g clip-path="url(#h)"><path fill="#0c6793" d="M-500-500H600V600H-500z" style="pointer-events:visiblePainted;cursor:pointer"/></g><path d="M78.615 77.678a10.938 10.938 0 0 0-21.875 0 10.938 10.938 0 0 0 21.875 0z" fill="none" stroke-linecap="round" stroke-linejoin="round" stroke-width=".5" stroke="#333"/><defs><clipPath id="i"><path d="M25.582 60a10.938 10.938 0 0 0-21.875 0 10.938 10.938 0 0 0 21.875 0z" fill="#fff"/><path d="M25.582 60a10.938 10.938 0 0 0-21.875 0 10.938 10.938 0 0 0 21.875 0z" fill="none" stroke-width=".1" stroke="#fff"/></clipPath></defs><g clip-path="url(#i)"><path fill="#0c6793" d="M-500-500H600V600H-500z" style="pointer-events:visiblePainted;cursor:pointer"/></g><path d="M25.582 60a10.938 10.938 0 0 0-21.875 0 10.938 10.938 0 0 0 21.875 0z" fill="none" stroke-linecap="round" stroke-linejoin="round" stroke-width=".5" stroke="#333"/><defs><clipPath id="j"><path d="M43.26 77.678a10.938 10.938 0 0 0-21.875 0 10.938 10.938 0 0 0 21.875 0z" fill="#fff"/><path d="M43.26 77.678a10.938 10.938 0 0 0-21.875 0 10.938 10.938 0 0 0 21.875 0z" fill="none" stroke-width=".1" stroke="#fff"/></clipPath></defs><g clip-path="url(#j)"><path fill="#0c6793" d="M-500-500H600V600H-500z" style="pointer-events:visiblePainted;cursor:pointer"/></g><path d="M43.26 77.678a10.938 10.938 0 0 0-21.875 0 10.938 10.938 0 0 0 21.875 0z" fill="none" stroke-linecap="round" stroke-linejoin="round" stroke-width=".5" stroke="#333"/><defs><clipPath id="k"><path d="M60.938 95.355a10.938 10.938 0 0 0-21.876 0 10.938 10.938 0 0 0 21.876 0z" fill="#fff"/><path d="M60.938 95.355a10.938 10.938 0 0 0-21.876 0 10.938 10.938 0 0 0 21.876 0z" fill="none" stroke-width=".1" stroke="#fff"/></clipPath></defs><g clip-path="url(#k)"><path fill="#0c6793" d="M-500-500H600V600H-500z" style="pointer-events:visiblePainted;cursor:pointer"/></g><path d="M60.938 95.355a10.938 10.938 0 0 0-21.876 0 10.938 10.938 0 0 0 21.876 0z" fill="none" stroke-linecap="round" stroke-linejoin="round" stroke-width=".5" stroke="#333"/></g></g><path d="M0 0h100v120H0z" fill="none" stroke-linecap="round" stroke-linejoin="round" stroke-width=".5" stroke="#333"/></g></svg>