<?xml version="1.0" encoding="UTF-8" standalone="no"?>
<svg xmlns="http://www.w3.org/2000/svg" preserveAspectRatio="xMidYMin slice" viewBox="-4 -4 48 54"><defs><mask id="a"><path fill="#fff" fill-rule="evenodd" d="m40 0-.373 26.436v.025a19.48 19.48 0 0 1-5.75 13.81A19.6 19.6 0 0 1 20.003 46 19.58 19.58 0 0 1 6.13 40.27 19.47 19.47 0 0 1 .38 26.442L0 0z" clip-rule="evenodd"/></mask></defs><g mask="url(#a)"><path fill="#f0f0f0" fill-rule="evenodd" d="m40 0-.373 26.436v.025a19.48 19.48 0 0 1-5.75 13.81A19.6 19.6 0 0 1 20.003 46 19.58 19.58 0 0 1 6.13 40.27 19.47 19.47 0 0 1 .38 26.442L0 0z"/><path fill="#f2bc51" d="M-1000-1000h2000v2000h-2000z"/></g><path fill="none" stroke="#333" stroke-linecap="round" stroke-linejoin="round" stroke-width=".5" d="m40 0-.373 26.436v.025a19.48 19.48 0 0 1-5.75 13.81A19.6 19.6 0 0 1 20.003 46 19.58 19.58 0 0 1 6.13 40.27 19.47 19.47 0 0 1 .38 26.442L0 0z"/></svg>