<?xml version="1.0" encoding="UTF-8" standalone="no"?>
<svg xmlns="http://www.w3.org/2000/svg" preserveAspectRatio="xMidYMin slice" viewBox="-4 -4 48 50.305"><defs><mask id="a"><path fill="#fff" fill-rule="evenodd" d="M0 0c2.311 6.736 2.03 13.516 0 20.398 4.452 21.953 20 21.907 20 21.907s15.548.046 20-21.907C37.97 13.516 37.689 6.736 40 0 26.284.944 12.728.955 0 0" clip-rule="evenodd"/></mask></defs><g mask="url(#a)"><path fill="#f0f0f0" fill-rule="evenodd" d="M0 0c2.311 6.736 2.03 13.516 0 20.398 4.452 21.953 20 21.907 20 21.907s15.548.046 20-21.907C37.97 13.516 37.689 6.736 40 0 26.284.944 12.728.955 0 0"/><path fill="#f2bc51" d="M-1000-1000h2000v2000h-2000z"/></g><path fill="none" stroke="#333" stroke-linecap="round" stroke-linejoin="round" stroke-width=".5" d="M0 0c2.311 6.736 2.03 13.516 0 20.398 4.452 21.953 20 21.907 20 21.907s15.548.046 20-21.907C37.97 13.516 37.689 6.736 40 0 26.284.944 12.728.955 0 0"/></svg>