<svg preserveAspectRatio="xMidYMin slice" viewBox="0 0 48 52" xmlns="http://www.w3.org/2000/svg"><g transform="translate(4 4)"><defs><mask id="a"><path clip-rule="evenodd" d="M.66 35.124c1.126-1.011 2.174-2.22 2.166-4.5l-.063-17.186c-.014-3.7-.909-4.584-2.763-6.55 1.74-1.643 3.176-3.52 4.62-5.518C8.504 4.392 16.038 3.83 20 0c3.963 3.83 11.497 4.392 15.38 1.37 1.443 1.998 2.88 3.875 4.62 5.518-1.854 1.966-2.75 2.85-2.763 6.55l-.063 17.185c-.008 2.282 1.04 3.49 2.167 4.501C35.006 43.413 24.569 38.26 19.999 44 15.43 38.26 4.993 43.413.658 35.124z" fill-rule="evenodd" fill="#fff"/></mask></defs><g mask="url(#a)"><path d="M.66 35.124c1.126-1.011 2.174-2.22 2.166-4.5l-.063-17.186c-.014-3.7-.909-4.584-2.763-6.55 1.74-1.643 3.176-3.52 4.62-5.518C8.504 4.392 16.038 3.83 20 0c3.963 3.83 11.497 4.392 15.38 1.37 1.443 1.998 2.88 3.875 4.62 5.518-1.854 1.966-2.75 2.85-2.763 6.55l-.063 17.185c-.008 2.282 1.04 3.49 2.167 4.501C35.006 43.413 24.569 38.26 19.999 44 15.43 38.26 4.993 43.413.658 35.124z" fill-rule="evenodd" fill="#f0f0f0"/><path fill="#f2bc51" style="cursor:pointer" d="M-1000-1000h2000v2000h-2000z"/></g><path d="M.66 35.124c1.126-1.011 2.174-2.22 2.166-4.5l-.063-17.186c-.014-3.7-.909-4.584-2.763-6.55 1.74-1.643 3.176-3.52 4.62-5.518C8.504 4.392 16.038 3.83 20 0c3.963 3.83 11.497 4.392 15.38 1.37 1.443 1.998 2.88 3.875 4.62 5.518-1.854 1.966-2.75 2.85-2.763 6.55l-.063 17.185c-.008 2.282 1.04 3.49 2.167 4.501C35.006 43.413 24.569 38.26 19.999 44 15.43 38.26 4.993 43.413.658 35.124z" fill="none" stroke-linecap="round" stroke-linejoin="round" stroke-width=".5" stroke="#333"/></g></svg>