<?xml version="1.0" encoding="UTF-8" standalone="no"?>
<svg xmlns="http://www.w3.org/2000/svg" preserveAspectRatio="xMidYMin slice" viewBox="-4 -4 61.333 72"><defs><mask id="a"><path fill="#fff" fill-rule="evenodd" d="M10.667 64C10.667 24 0 16 0 16 18.667 21.333 13.333 2.667 13.333 2.667S24 5.333 26.667 0c0 0 0 8 26.666 5.333 0 0-8 5.334-5.333 42.667 0 0-8-2.667-10.667 5.333 0 0-2.666-5.333-13.333-5.333S10.667 64 10.667 64" clip-rule="evenodd"/></mask></defs><g mask="url(#a)"><path fill="#f0f0f0" fill-rule="evenodd" d="M10.667 64C10.667 24 0 16 0 16 18.667 21.333 13.333 2.667 13.333 2.667S24 5.333 26.667 0c0 0 0 8 26.666 5.333 0 0-8 5.334-5.333 42.667 0 0-8-2.667-10.667 5.333 0 0-2.666-5.333-13.333-5.333S10.667 64 10.667 64"/><path fill="#0c6793" d="M-1000-1000h2000v2000h-2000z"/></g><path fill="none" stroke="#333" stroke-linecap="round" stroke-linejoin="round" stroke-width=".5" d="M10.667 64C10.667 24 0 16 0 16 18.667 21.333 13.333 2.667 13.333 2.667S24 5.333 26.667 0c0 0 0 8 26.666 5.333 0 0-8 5.334-5.333 42.667 0 0-8-2.667-10.667 5.333 0 0-2.666-5.333-13.333-5.333S10.667 64 10.667 64"/></svg>