<?xml version="1.0" encoding="UTF-8" standalone="no"?>
<svg xmlns="http://www.w3.org/2000/svg" preserveAspectRatio="xMidYMin slice" viewBox="-4 -4 48 72"><defs><mask id="a"><path fill="#fff" fill-rule="evenodd" d="M0 0h40v56c0 2-2 4-6 4s-6-2-6-2c0 2-2 6-8 6s-8-4-8-6c0 0-2 2-6 2s-6-2-6-4z" clip-rule="evenodd"/></mask></defs><g mask="url(#a)"><path fill="#f0f0f0" fill-rule="evenodd" d="M0 0h40v56c0 2-2 4-6 4s-6-2-6-2c0 2-2 6-8 6s-8-4-8-6c0 0-2 2-6 2s-6-2-6-4z"/><path fill="#0c6793" d="M-1000-1000h2000v2000h-2000z"/></g><path fill="none" stroke="#333" stroke-linecap="round" stroke-linejoin="round" stroke-width=".5" d="M0 0h40v56c0 2-2 4-6 4s-6-2-6-2c0 2-2 6-8 6s-8-4-8-6c0 0-2 2-6 2s-6-2-6-4z"/></svg>