<svg preserveAspectRatio="xMidYMin slice" viewBox="0 0 120 139.936" xmlns="http://www.w3.org/2000/svg"><g transform="translate(10 10)"><defs><mask id="a"><path clip-rule="evenodd" d="M50 0h33.333c0 6.904 7.462 12.5 16.667 12.5a133.333 133.333 0 0 1-50 107.436A133.333 133.333 0 0 1 0 12.5c9.205 0 16.667-5.596 16.667-12.5z" fill-rule="evenodd" fill="#fff"/></mask></defs><g mask="url(#a)"><path d="M50 0h33.333c0 6.904 7.462 12.5 16.667 12.5a133.333 133.333 0 0 1-50 107.436A133.333 133.333 0 0 1 0 12.5c9.205 0 16.667-5.596 16.667-12.5z" fill-rule="evenodd" fill="#f0f0f0"/><path fill="#0c6793" style="cursor:pointer" d="M-1000-1000h2000v2000h-2000z"/></g><path d="M50 0h33.333c0 6.904 7.462 12.5 16.667 12.5a133.333 133.333 0 0 1-50 107.436A133.333 133.333 0 0 1 0 12.5c9.205 0 16.667-5.596 16.667-12.5z" fill="none" stroke-linecap="round" stroke-linejoin="round" stroke-width=".5" stroke="#333"/></g></svg>