<?xml version="1.0" encoding="UTF-8" standalone="no"?>
<svg xmlns="http://www.w3.org/2000/svg" viewBox="-4 -4 48 48" preserveAspectRatio="xMidYMin slice"><defs><mask id="a"><path d="M11.01 34.31C3.508 35.64.47 31.435.55 27.707.7 20.84 6.67 12.629 0 7.089l2.36-2.517C5.448 4.83 6.265.8 11.043 3.79 13.493-.596 17.778 1.245 20 0c2.222 1.245 6.507-.596 8.958 3.79 4.778-2.99 5.595 1.04 8.681.782L40 7.089c-6.67 5.54-.7 13.752-.55 20.618.08 3.728-2.958 7.933-10.46 6.603-.545 4.12-7.369 3.581-8.99 5.69-1.621-2.109-8.445-1.57-8.99-5.69z" clip-rule="evenodd" fill-rule="evenodd" fill="#fff"/></mask></defs><g mask="url(#a)"><path d="M11.01 34.31C3.508 35.64.47 31.435.55 27.707.7 20.84 6.67 12.629 0 7.089l2.36-2.517C5.448 4.83 6.265.8 11.043 3.79 13.493-.596 17.778 1.245 20 0c2.222 1.245 6.507-.596 8.958 3.79 4.778-2.99 5.595 1.04 8.681.782L40 7.089c-6.67 5.54-.7 13.752-.55 20.618.08 3.728-2.958 7.933-10.46 6.603-.545 4.12-7.369 3.581-8.99 5.69-1.621-2.109-8.445-1.57-8.99-5.69z" fill-rule="evenodd" fill="#f0f0f0"/><path fill="#f2bc51" d="M-1000-1000h2000v2000h-2000z"/></g><path d="M11.01 34.31C3.508 35.64.47 31.435.55 27.707.7 20.84 6.67 12.629 0 7.089l2.36-2.517C5.448 4.83 6.265.8 11.043 3.79 13.493-.596 17.778 1.245 20 0c2.222 1.245 6.507-.596 8.958 3.79 4.778-2.99 5.595 1.04 8.681.782L40 7.089c-6.67 5.54-.7 13.752-.55 20.618.08 3.728-2.958 7.933-10.46 6.603-.545 4.12-7.369 3.581-8.99 5.69-1.621-2.109-8.445-1.57-8.99-5.69z" stroke="#333" stroke-width=".5" fill="none" stroke-linecap="round" stroke-linejoin="round"/></svg>