<?xml version="1.0" encoding="UTF-8" standalone="no"?>
<svg xmlns="http://www.w3.org/2000/svg" viewBox="-4 -4 48 48" preserveAspectRatio="xMidYMin slice"><defs><mask id="a"><path d="M19.2 0C35.2 0 38 3.2 38 3.2c2.001 4 2 6.8 2 10.8 0 14.15-9.551 22.784-19.2 26C8.8 36 0 29.828 0 16c0-4 0-8 2-12 0 0 5.2-4 17.2-4z" clip-rule="evenodd" fill-rule="evenodd" fill="#fff"/></mask></defs><g mask="url(#a)"><path d="M19.2 0C35.2 0 38 3.2 38 3.2c2.001 4 2 6.8 2 10.8 0 14.15-9.551 22.784-19.2 26C8.8 36 0 29.828 0 16c0-4 0-8 2-12 0 0 5.2-4 17.2-4z" fill-rule="evenodd" fill="#f0f0f0"/><path fill="#0c6793" d="M-1000-1000h2000v2000h-2000z"/></g><path d="M19.2 0C35.2 0 38 3.2 38 3.2c2.001 4 2 6.8 2 10.8 0 14.15-9.551 22.784-19.2 26C8.8 36 0 29.828 0 16c0-4 0-8 2-12 0 0 5.2-4 17.2-4z" stroke="#333" stroke-width=".5" fill="none" stroke-linecap="round" stroke-linejoin="round"/></svg>