<?xml version="1.0" encoding="UTF-8" standalone="no"?>
<svg xmlns="http://www.w3.org/2000/svg" preserveAspectRatio="xMidYMin slice" viewBox="-4 -4 48 68"><defs><mask id="a"><path fill="#fff" fill-rule="evenodd" d="M4.212 60H36c.8 0 1.917 0 2-2l2-48c0-1.2-1.2-1.6-2-2L22.4.8C21.6.4 20.8 0 20 0c-.8 0-1.603.416-2.4.8L2 8c-.8.4-2 .8-2 2l2 48c.083 2 1.2 2 2.212 2z" clip-rule="evenodd"/></mask></defs><g mask="url(#a)"><path fill="#f0f0f0" fill-rule="evenodd" d="M4.212 60H36c.8 0 1.917 0 2-2l2-48c0-1.2-1.2-1.6-2-2L22.4.8C21.6.4 20.8 0 20 0c-.8 0-1.603.416-2.4.8L2 8c-.8.4-2 .8-2 2l2 48c.083 2 1.2 2 2.212 2z"/><path fill="#f2bc51" d="M-1000-1000h2000v2000h-2000z"/></g><path fill="none" stroke="#333" stroke-linecap="round" stroke-linejoin="round" stroke-width=".5" d="M4.212 60H36c.8 0 1.917 0 2-2l2-48c0-1.2-1.2-1.6-2-2L22.4.8C21.6.4 20.8 0 20 0c-.8 0-1.603.416-2.4.8L2 8c-.8.4-2 .8-2 2l2 48c.083 2 1.2 2 2.212 2z"/></svg>