<svg preserveAspectRatio="xMidYMin slice" viewBox="-4 -4 48 50.5" xmlns="http://www.w3.org/2000/svg"><defs><mask id="a"><path clip-rule="evenodd" d="M20 0h20a2.5 2.5 0 0 0-2.5 2.5v35A2.5 2.5 0 0 1 35 40H22.5a2.5 2.5 0 0 0-2.5 2.5 2.5 2.5 0 0 0-2.5-2.5H5a2.5 2.5 0 0 1-2.5-2.5v-35A2.5 2.5 0 0 0 0 0z" fill-rule="evenodd" fill="#fff"/></mask></defs><g mask="url(#a)"><path d="M20 0h20a2.5 2.5 0 0 0-2.5 2.5v35A2.5 2.5 0 0 1 35 40H22.5a2.5 2.5 0 0 0-2.5 2.5 2.5 2.5 0 0 0-2.5-2.5H5a2.5 2.5 0 0 1-2.5-2.5v-35A2.5 2.5 0 0 0 0 0z" fill-rule="evenodd" fill="#f0f0f0"/><path fill="#f2bc51" style="cursor:pointer" d="M-1000-1000h2000v2000h-2000z"/></g><path d="M20 0h20a2.5 2.5 0 0 0-2.5 2.5v35A2.5 2.5 0 0 1 35 40H22.5a2.5 2.5 0 0 0-2.5 2.5 2.5 2.5 0 0 0-2.5-2.5H5a2.5 2.5 0 0 1-2.5-2.5v-35A2.5 2.5 0 0 0 0 0z" fill="none" stroke-linecap="round" stroke-linejoin="round" stroke-width=".5" stroke="#333"/></svg>