<?xml version="1.0" encoding="UTF-8" standalone="no"?>
<svg xmlns="http://www.w3.org/2000/svg" preserveAspectRatio="xMidYMin slice" viewBox="-4 -4 48 62"><defs><mask id="a"><path fill="#fff" fill-rule="evenodd" d="M20 0c4 0 8 0 16 2 2 12 4 20.8 4 28 0 12-10 18-20 24C10 48 0 42 0 30c0-7.2 2-16 4-28 8-2 12-2 16-2z" clip-rule="evenodd"/></mask></defs><g mask="url(#a)"><path fill="#f0f0f0" fill-rule="evenodd" d="M20 0c4 0 8 0 16 2 2 12 4 20.8 4 28 0 12-10 18-20 24C10 48 0 42 0 30c0-7.2 2-16 4-28 8-2 12-2 16-2z"/><path fill="#0c6793" d="M-1000-1000h2000v2000h-2000z"/></g><path fill="none" stroke="#333" stroke-linecap="round" stroke-linejoin="round" stroke-width=".5" d="M20 0c4 0 8 0 16 2 2 12 4 20.8 4 28 0 12-10 18-20 24C10 48 0 42 0 30c0-7.2 2-16 4-28 8-2 12-2 16-2z"/></svg>