<svg preserveAspectRatio="xMidYMin slice" viewBox="0 0 120 126.25" xmlns="http://www.w3.org/2000/svg"><g filter="url(#a)" transform="translate(10 10)"><defs><filter height="200%" id="a" width="200%" x="-20%" y="-20%"><feOffset dx=".2" dy=".2" in="SourceAlpha" result="offsetOut"/><feGaussianBlur in="offsetOut" result="blurOut"/><feBlend in2="blurOut" in="SourceGraphic"/></filter></defs><defs><clipPath id="b"><path clip-rule="evenodd" d="M50 0h50a6.25 6.25 0 0 0-6.25 6.25v87.5A6.25 6.25 0 0 1 87.5 100H56.25a6.25 6.25 0 0 0-6.25 6.25 6.25 6.25 0 0 0-6.25-6.25H12.5a6.25 6.25 0 0 1-6.25-6.25V6.25A6.25 6.25 0 0 0 0 0h50z" fill-rule="evenodd" fill="#fff"/></clipPath></defs><g clip-path="url(#b)"><path d="M50 0h50a6.25 6.25 0 0 0-6.25 6.25v87.5A6.25 6.25 0 0 1 87.5 100H56.25a6.25 6.25 0 0 0-6.25 6.25 6.25 6.25 0 0 0-6.25-6.25H12.5a6.25 6.25 0 0 1-6.25-6.25V6.25A6.25 6.25 0 0 0 0 0h50z" fill-rule="evenodd" fill="#f0f0f0"/><g style="pointer-events:visiblePainted;cursor:pointer"><path fill="#0c6793" style="cursor:pointer" d="M-500-500H600V600H-500z"/></g></g><path d="M50 0h50a6.25 6.25 0 0 0-6.25 6.25v87.5A6.25 6.25 0 0 1 87.5 100H56.25a6.25 6.25 0 0 0-6.25 6.25 6.25 6.25 0 0 0-6.25-6.25H12.5a6.25 6.25 0 0 1-6.25-6.25V6.25A6.25 6.25 0 0 0 0 0h50z" fill="none" stroke-linecap="round" stroke-linejoin="round" stroke-width=".5" stroke="#333"/></g></svg>