<?xml version="1.0" encoding="UTF-8" standalone="no"?>
<svg xmlns="http://www.w3.org/2000/svg" preserveAspectRatio="xMidYMin slice" viewBox="-4 -4 48 58"><defs><mask id="a"><path fill="#fff" fill-rule="evenodd" d="M40 22c0-12-4-22-4-22C4 0 2 4 2 4s-2 6-2 18c0 18 8 24 10 28 2-4 30-6 30-28" clip-rule="evenodd"/></mask></defs><g mask="url(#a)"><path fill="#f0f0f0" fill-rule="evenodd" d="M40 22c0-12-4-22-4-22C4 0 2 4 2 4s-2 6-2 18c0 18 8 24 10 28 2-4 30-6 30-28"/><path fill="#f2bc51" d="M-1000-1000h2000v2000h-2000z"/></g><path fill="none" stroke="#333" stroke-linecap="round" stroke-linejoin="round" stroke-width=".5" d="M40 22c0-12-4-22-4-22C4 0 2 4 2 4s-2 6-2 18c0 18 8 24 10 28 2-4 30-6 30-28"/></svg>