<?xml version="1.0" encoding="UTF-8" standalone="no"?>
<svg xmlns="http://www.w3.org/2000/svg" preserveAspectRatio="xMidYMin slice" viewBox="-4 -4 48 72"><defs><mask id="a"><path fill="#fff" fill-rule="evenodd" d="M0 6v52c0 4 12 6 20 6s20-2 20-6V6c0-4-13.3-6-20-6C12 0 0 2 0 6" clip-rule="evenodd"/></mask></defs><g mask="url(#a)"><path fill="#f0f0f0" fill-rule="evenodd" d="M0 6v52c0 4 12 6 20 6s20-2 20-6V6c0-4-13.3-6-20-6C12 0 0 2 0 6"/><path fill="#f2bc51" d="M-1000-1000h2000v2000h-2000z"/></g><path fill="none" stroke="#333" stroke-linecap="round" stroke-linejoin="round" stroke-width=".5" d="M0 6v52c0 4 12 6 20 6s20-2 20-6V6c0-4-13.3-6-20-6C12 0 0 2 0 6"/></svg>