<?xml version="1.0" encoding="UTF-8" standalone="no"?>
<svg xmlns="http://www.w3.org/2000/svg" preserveAspectRatio="xMidYMin slice" viewBox="-4 -4 48 54.8"><defs><mask id="a"><path fill="#fff" fill-rule="evenodd" d="M17.469 44.943C8.03 42.886.49 38.647 0 25.105 3.99 22.92 5.334 11.122 1.232 5.18l2.393-3.736C11.587 2.759 14.283-1.818 20 .852c5.717-2.67 8.413 1.907 16.375.592l2.393 3.736C34.666 11.122 36.01 22.92 40 25.105c-.49 13.542-8.03 17.78-17.469 19.838-1.888.412-1.858.945-2.531 1.857-.673-.912-.643-1.445-2.531-1.857" clip-rule="evenodd"/></mask></defs><g mask="url(#a)"><path fill="#f0f0f0" fill-rule="evenodd" d="M17.469 44.943C8.03 42.886.49 38.647 0 25.105 3.99 22.92 5.334 11.122 1.232 5.18l2.393-3.736C11.587 2.759 14.283-1.818 20 .852c5.717-2.67 8.413 1.907 16.375.592l2.393 3.736C34.666 11.122 36.01 22.92 40 25.105c-.49 13.542-8.03 17.78-17.469 19.838-1.888.412-1.858.945-2.531 1.857-.673-.912-.643-1.445-2.531-1.857"/><path fill="#0c6793" d="M-1000-1000h2000v2000h-2000z"/></g><path fill="none" stroke="#333" stroke-linecap="round" stroke-linejoin="round" stroke-width=".5" d="M17.469 44.943C8.03 42.886.49 38.647 0 25.105 3.99 22.92 5.334 11.122 1.232 5.18l2.393-3.736C11.587 2.759 14.283-1.818 20 .852c5.717-2.67 8.413 1.907 16.375.592l2.393 3.736C34.666 11.122 36.01 22.92 40 25.105c-.49 13.542-8.03 17.78-17.469 19.838-1.888.412-1.858.945-2.531 1.857-.673-.912-.643-1.445-2.531-1.857"/></svg>