<?xml version="1.0" encoding="UTF-8" standalone="no"?>
<svg xmlns="http://www.w3.org/2000/svg" viewBox="-4 -4 48 58" preserveAspectRatio="xMidYMin slice"><defs><mask id="a"><path d="M20 0c12 0 20 2 20 2v13.6c0 14.29-7.624 27.255-20 34.4C7.624 42.855 0 29.89 0 15.6V2s8-2 20-2z" clip-rule="evenodd" fill-rule="evenodd" fill="#fff"/></mask></defs><g mask="url(#a)"><path d="M20 0c12 0 20 2 20 2v13.6c0 14.29-7.624 27.255-20 34.4C7.624 42.855 0 29.89 0 15.6V2s8-2 20-2z" fill-rule="evenodd" fill="#f0f0f0"/><path fill="#f2bc51" d="M-1000-1000h2000v2000h-2000z"/></g><path d="M20 0c12 0 20 2 20 2v13.6c0 14.29-7.624 27.255-20 34.4C7.624 42.855 0 29.89 0 15.6V2s8-2 20-2z" stroke="#333" stroke-width=".5" fill="none" stroke-linecap="round" stroke-linejoin="round"/></svg>