<?xml version="1.0" encoding="UTF-8" standalone="no"?>
<svg xmlns="http://www.w3.org/2000/svg" viewBox="-4 -4 48 56" preserveAspectRatio="xMidYMin slice"><defs><mask id="a"><path d="M0 14.586c6.667 9.281 9.333 17.237 8 26.519 5.333 0 9.333 2.652 12 6.895 2.667-4.243 8-6.895 12-6.895-1.333-9.282 1.333-17.238 8-26.52A23.059 23.059 0 0 1 30.667 0C24 .796 16 .796 9.333 0 8 5.304 6.667 9.282 0 14.586z" clip-rule="evenodd" fill-rule="evenodd" fill="#fff"/></mask></defs><g mask="url(#a)"><path d="M0 14.586c6.667 9.281 9.333 17.237 8 26.519 5.333 0 9.333 2.652 12 6.895 2.667-4.243 8-6.895 12-6.895-1.333-9.282 1.333-17.238 8-26.52A23.059 23.059 0 0 1 30.667 0C24 .796 16 .796 9.333 0 8 5.304 6.667 9.282 0 14.586z" fill-rule="evenodd" fill="#f0f0f0"/><path fill="#f2bc51" d="M-1000-1000h2000v2000h-2000z"/></g><path d="M0 14.586c6.667 9.281 9.333 17.237 8 26.519 5.333 0 9.333 2.652 12 6.895 2.667-4.243 8-6.895 12-6.895-1.333-9.282 1.333-17.238 8-26.52A23.059 23.059 0 0 1 30.667 0C24 .796 16 .796 9.333 0 8 5.304 6.667 9.282 0 14.586z" stroke="#333" stroke-width=".5" fill="none" stroke-linecap="round" stroke-linejoin="round"/></svg>