<?xml version="1.0" encoding="UTF-8" standalone="no"?>
<svg xmlns="http://www.w3.org/2000/svg" preserveAspectRatio="xMidYMin slice" viewBox="-4 -4 52.444 61.333"><defs><mask id="a"><path fill="#fff" fill-rule="evenodd" d="M22.222 0c-4.444 6.667-8.889 6.667-11.11 4.444C8.888 6.667 6.666 8.89 0 4.444 6.667 13.334 4.444 20 2.222 22.222c2.222 2.222 6.667 8.89 2.222 15.556 6.667 0 6.667 4.444 6.667 6.666 2.34.197 6.278.056 8.889 8.89 0-2.223 0-4.445 2.222-6.667 2.222 2.222 2.222 4.444 2.222 6.666 2.612-8.833 6.55-8.692 8.89-8.889 0-2.222 0-6.666 6.666-6.666-4.444-6.667 0-13.334 2.222-15.556C40 20 37.778 13.333 44.444 4.444c-6.666 4.445-8.888 2.223-11.11 0C31.11 6.667 26.666 6.667 22.221 0z" clip-rule="evenodd"/></mask></defs><g mask="url(#a)"><path fill="#f0f0f0" fill-rule="evenodd" d="M22.222 0c-4.444 6.667-8.889 6.667-11.11 4.444C8.888 6.667 6.666 8.89 0 4.444 6.667 13.334 4.444 20 2.222 22.222c2.222 2.222 6.667 8.89 2.222 15.556 6.667 0 6.667 4.444 6.667 6.666 2.34.197 6.278.056 8.889 8.89 0-2.223 0-4.445 2.222-6.667 2.222 2.222 2.222 4.444 2.222 6.666 2.612-8.833 6.55-8.692 8.89-8.889 0-2.222 0-6.666 6.666-6.666-4.444-6.667 0-13.334 2.222-15.556C40 20 37.778 13.333 44.444 4.444c-6.666 4.445-8.888 2.223-11.11 0C31.11 6.667 26.666 6.667 22.221 0z"/><path fill="#0c6793" d="M-1000-1000h2000v2000h-2000z"/></g><path fill="none" stroke="#333" stroke-linecap="round" stroke-linejoin="round" stroke-width=".5" d="M22.222 0c-4.444 6.667-8.889 6.667-11.11 4.444C8.888 6.667 6.666 8.89 0 4.444 6.667 13.334 4.444 20 2.222 22.222c2.222 2.222 6.667 8.89 2.222 15.556 6.667 0 6.667 4.444 6.667 6.666 2.34.197 6.278.056 8.889 8.89 0-2.223 0-4.445 2.222-6.667 2.222 2.222 2.222 4.444 2.222 6.666 2.612-8.833 6.55-8.692 8.89-8.889 0-2.222 0-6.666 6.666-6.666-4.444-6.667 0-13.334 2.222-15.556C40 20 37.778 13.333 44.444 4.444c-6.666 4.445-8.888 2.223-11.11 0C31.11 6.667 26.666 6.667 22.221 0z"/></svg>