<svg preserveAspectRatio="xMidYMin slice" viewBox="0 0 120 126.25" xmlns="http://www.w3.org/2000/svg"><g transform="translate(10 10)"><defs><mask id="a"><path clip-rule="evenodd" d="M50 0h50a6.25 6.25 0 0 0-6.25 6.25v87.5A6.25 6.25 0 0 1 87.5 100H56.25a6.25 6.25 0 0 0-6.25 6.25 6.25 6.25 0 0 0-6.25-6.25H12.5a6.25 6.25 0 0 1-6.25-6.25V6.25A6.25 6.25 0 0 0 0 0h50z" fill-rule="evenodd" fill="#fff"/></mask></defs><g mask="url(#a)"><path d="M50 0h50a6.25 6.25 0 0 0-6.25 6.25v87.5A6.25 6.25 0 0 1 87.5 100H56.25a6.25 6.25 0 0 0-6.25 6.25 6.25 6.25 0 0 0-6.25-6.25H12.5a6.25 6.25 0 0 1-6.25-6.25V6.25A6.25 6.25 0 0 0 0 0h50z" fill-rule="evenodd" fill="#f0f0f0"/><path fill="#0c6793" style="cursor:pointer" d="M-1000-1000h2000v2000h-2000z"/></g><path d="M50 0h50a6.25 6.25 0 0 0-6.25 6.25v87.5A6.25 6.25 0 0 1 87.5 100H56.25a6.25 6.25 0 0 0-6.25 6.25 6.25 6.25 0 0 0-6.25-6.25H12.5a6.25 6.25 0 0 1-6.25-6.25V6.25A6.25 6.25 0 0 0 0 0h50z" fill="none" stroke-linecap="round" stroke-linejoin="round" stroke-width=".5" stroke="#333"/></g></svg>