<?xml version="1.0" encoding="UTF-8" standalone="no"?>
<svg xmlns="http://www.w3.org/2000/svg" viewBox="-4 -4 48 55.935" preserveAspectRatio="xMidYMin slice"><defs><mask id="a"><path d="M20 0h13.322c0 2.76 2.983 4.996 6.661 4.996A53.29 53.29 0 0 1 20 47.935 53.29 53.29 0 0 1 .017 4.995c3.678 0 6.66-2.236 6.66-4.995z" clip-rule="evenodd" fill-rule="evenodd" fill="#fff"/></mask></defs><g mask="url(#a)"><path d="M20 0h13.322c0 2.76 2.983 4.996 6.661 4.996A53.29 53.29 0 0 1 20 47.935 53.29 53.29 0 0 1 .017 4.995c3.678 0 6.66-2.236 6.66-4.995z" fill-rule="evenodd" fill="#f0f0f0"/><path fill="#0c6793" style="cursor:pointer" d="M-1000-1000h2000v2000h-2000z"/></g><path d="M20 0h13.322c0 2.76 2.983 4.996 6.661 4.996A53.29 53.29 0 0 1 20 47.935 53.29 53.29 0 0 1 .017 4.995c3.678 0 6.66-2.236 6.66-4.995z" stroke="#333" stroke-width=".5" fill="none" stroke-linecap="round" stroke-linejoin="round"/></svg>