<?xml version="1.0" encoding="UTF-8" standalone="no"?>
<svg xmlns="http://www.w3.org/2000/svg" preserveAspectRatio="xMidYMin slice" viewBox="-4 -4 48 56.571"><defs><mask id="a"><path fill="#fff" fill-rule="evenodd" d="M20 0h20v42.857a2.857 2.857 0 0 1-2.857 2.857H22.857A2.857 2.857 0 0 0 20 48.571a2.857 2.857 0 0 0-2.857-2.857H2.857A2.857 2.857 0 0 1 0 42.857V0z" clip-rule="evenodd"/></mask></defs><g mask="url(#a)"><path fill="#f0f0f0" fill-rule="evenodd" d="M20 0h20v42.857a2.857 2.857 0 0 1-2.857 2.857H22.857A2.857 2.857 0 0 0 20 48.571a2.857 2.857 0 0 0-2.857-2.857H2.857A2.857 2.857 0 0 1 0 42.857V0z"/><path fill="#f2bc51" d="M-1000-1000h2000v2000h-2000z"/></g><path fill="none" stroke="#333" stroke-linecap="round" stroke-linejoin="round" stroke-width=".5" d="M20 0h20v42.857a2.857 2.857 0 0 1-2.857 2.857H22.857A2.857 2.857 0 0 0 20 48.571a2.857 2.857 0 0 0-2.857-2.857H2.857A2.857 2.857 0 0 1 0 42.857V0z"/></svg>