<svg preserveAspectRatio="xMidYMin slice" viewBox="0 0 120 140" xmlns="http://www.w3.org/2000/svg"><g transform="translate(10 10)"><defs><mask id="a"><path clip-rule="evenodd" d="M50 0c30 0 50 10 50 10 0 50-20 80-50 110C20 90 0 60.036 0 10 0 10 20 0 50 0z" fill-rule="evenodd" fill="#fff"/></mask></defs><g mask="url(#a)"><path d="M50 0c30 0 50 10 50 10 0 50-20 80-50 110C20 90 0 60.036 0 10 0 10 20 0 50 0z" fill-rule="evenodd" fill="#f0f0f0"/><path fill="#0c6793" style="cursor:pointer" d="M-1000-1000h2000v2000h-2000z"/></g><path d="M50 0c30 0 50 10 50 10 0 50-20 80-50 110C20 90 0 60.036 0 10 0 10 20 0 50 0z" fill="none" stroke-linecap="round" stroke-linejoin="round" stroke-width=".5" stroke="#333"/></g></svg>