<?xml version="1.0" encoding="UTF-8" standalone="no"?>
<svg xmlns="http://www.w3.org/2000/svg" viewBox="-4 -4 55.601 144.179" preserveAspectRatio="xMidYMin slice"><defs><mask id="a"><path d="m25.849 125.21 6.328 10.226c.712 1.15 10.21 1.088 9.662-1.06-2.948-11.556 1.284-39.464 1.915-62.082.63-22.619-1.236-58.502 3.847-67.985L43.287 0l-6.832 6.265c9.518 17.305-17.734 17.056-7.897-.31L23.8 1.208l-4.758 4.745c9.838 17.367-17.414 17.616-7.896.31L4.314 0 0 4.309c5.083 9.483 3.216 45.365 3.847 67.985.63 22.62 4.863 50.527 1.915 62.083-.548 2.147 8.95 2.21 9.662 1.059l6.328-10.227c.23-.37 1.281-.965 2.049-.965.767 0 1.82.595 2.048.965z" clip-rule="evenodd" fill-rule="evenodd" fill="#fff"/></mask></defs><g mask="url(#a)"><path d="m25.849 125.21 6.328 10.226c.712 1.15 10.21 1.088 9.662-1.06-2.948-11.556 1.284-39.464 1.915-62.082.63-22.619-1.236-58.502 3.847-67.985L43.287 0l-6.832 6.265c9.518 17.305-17.734 17.056-7.897-.31L23.8 1.208l-4.758 4.745c9.838 17.367-17.414 17.616-7.896.31L4.314 0 0 4.309c5.083 9.483 3.216 45.365 3.847 67.985.63 22.62 4.863 50.527 1.915 62.083-.548 2.147 8.95 2.21 9.662 1.059l6.328-10.227c.23-.37 1.281-.965 2.049-.965.767 0 1.82.595 2.048.965z" fill-rule="evenodd" fill="#f0f0f0"/><path fill="#f2bc51" style="cursor:pointer" d="M-1000-1000h2000v2000h-2000z"/></g><path d="m25.849 125.21 6.328 10.226c.712 1.15 10.21 1.088 9.662-1.06-2.948-11.556 1.284-39.464 1.915-62.082.63-22.619-1.236-58.502 3.847-67.985L43.287 0l-6.832 6.265c9.518 17.305-17.734 17.056-7.897-.31L23.8 1.208l-4.758 4.745c9.838 17.367-17.414 17.616-7.896.31L4.314 0 0 4.309c5.083 9.483 3.216 45.365 3.847 67.985.63 22.62 4.863 50.527 1.915 62.083-.548 2.147 8.95 2.21 9.662 1.059l6.328-10.227c.23-.37 1.281-.965 2.049-.965.767 0 1.82.595 2.048.965z" stroke="#333" stroke-width=".5" fill="none" stroke-linecap="round" stroke-linejoin="round"/></svg>