<?xml version="1.0" encoding="UTF-8" standalone="no"?>
<svg xmlns="http://www.w3.org/2000/svg" viewBox="-4 -4 49.667 60.083" preserveAspectRatio="xMidYMin slice"><defs><mask id="a"><path d="M4.167 2.917C2.083 2.917 0 2.083 0 2.083S.833 4.167.833 6.25v27.083c0 6.25 5.417 10.417 9.584 12.5 8.333 4.167 10.416 6.25 10.416 6.25S22.917 50 31.25 45.833c4.167-2.083 9.583-6.25 9.583-12.5V6.25c0-2.083.834-4.167.834-4.167s-2.084.834-4.167.834C33.333 2.917 29.167 0 25 0s-4.167 2.083-4.167 2.083S20.833 0 16.667 0C12.5 0 8.333 2.917 4.167 2.917z" clip-rule="evenodd" fill-rule="evenodd" fill="#fff"/></mask></defs><g mask="url(#a)"><path d="M4.167 2.917C2.083 2.917 0 2.083 0 2.083S.833 4.167.833 6.25v27.083c0 6.25 5.417 10.417 9.584 12.5 8.333 4.167 10.416 6.25 10.416 6.25S22.917 50 31.25 45.833c4.167-2.083 9.583-6.25 9.583-12.5V6.25c0-2.083.834-4.167.834-4.167s-2.084.834-4.167.834C33.333 2.917 29.167 0 25 0s-4.167 2.083-4.167 2.083S20.833 0 16.667 0C12.5 0 8.333 2.917 4.167 2.917z" fill-rule="evenodd" fill="#f0f0f0"/><path fill="#0c6793" style="cursor:pointer" d="M-1000-1000h2000v2000h-2000z"/></g><path d="M4.167 2.917C2.083 2.917 0 2.083 0 2.083S.833 4.167.833 6.25v27.083c0 6.25 5.417 10.417 9.584 12.5 8.333 4.167 10.416 6.25 10.416 6.25S22.917 50 31.25 45.833c4.167-2.083 9.583-6.25 9.583-12.5V6.25c0-2.083.834-4.167.834-4.167s-2.084.834-4.167.834C33.333 2.917 29.167 0 25 0s-4.167 2.083-4.167 2.083S20.833 0 16.667 0C12.5 0 8.333 2.917 4.167 2.917z" stroke="#333" stroke-width=".5" fill="none" stroke-linecap="round" stroke-linejoin="round"/></svg>