<svg preserveAspectRatio="xMidYMin slice" viewBox="0 0 48 72" xmlns="http://www.w3.org/2000/svg"><g transform="translate(4 4)"><defs><mask id="a"><path clip-rule="evenodd" d="M0 6v52c0 4 12 6 20 6s20-2 20-6V6c0-4-13.3-6-20-6C12 0 0 2 0 6z" fill-rule="evenodd" fill="#fff"/></mask></defs><g mask="url(#a)"><path d="M0 6v52c0 4 12 6 20 6s20-2 20-6V6c0-4-13.3-6-20-6C12 0 0 2 0 6z" fill-rule="evenodd" fill="#f0f0f0"/><path fill="#0c6793" style="cursor:pointer" d="M-1000-1000h2000v2000h-2000z"/></g><path d="M0 6v52c0 4 12 6 20 6s20-2 20-6V6c0-4-13.3-6-20-6C12 0 0 2 0 6z" fill="none" stroke-linecap="round" stroke-linejoin="round" stroke-width=".5" stroke="#333"/></g></svg>