<?xml version="1.0" encoding="UTF-8" standalone="no"?>
<svg xmlns="http://www.w3.org/2000/svg" viewBox="-4 -4 48 58" preserveAspectRatio="xMidYMin slice"><defs><mask id="a"><path d="M0 0v28c0 4 .15 11.6 10 16 8 4 10 6 10 6s2-2 10-6c10-4 10-12 10-16V0z" clip-rule="evenodd" fill-rule="evenodd" fill="#fff"/></mask></defs><g mask="url(#a)"><path d="M0 0v28c0 4 .15 11.6 10 16 8 4 10 6 10 6s2-2 10-6c10-4 10-12 10-16V0z" fill-rule="evenodd" fill="#f0f0f0"/><path fill="#0c6793" style="cursor:pointer" d="M-1000-1000h2000v2000h-2000z"/></g><path d="M0 0v28c0 4 .15 11.6 10 16 8 4 10 6 10 6s2-2 10-6c10-4 10-12 10-16V0z" stroke="#333" stroke-width=".5" fill="none" stroke-linecap="round" stroke-linejoin="round"/></svg>