<svg preserveAspectRatio="xMidYMin slice" viewBox="0 0 48 55.974" xmlns="http://www.w3.org/2000/svg"><g transform="translate(4 4)"><defs><mask id="a"><path clip-rule="evenodd" d="M20 0a40 40 0 0 0 20 0v13.333a40 40 0 0 1-20 34.641 40 40 0 0 1-20-34.64V0a40 40 0 0 0 20 0z" fill-rule="evenodd" fill="#fff"/></mask></defs><g mask="url(#a)"><path d="M20 0a40 40 0 0 0 20 0v13.333a40 40 0 0 1-20 34.641 40 40 0 0 1-20-34.64V0a40 40 0 0 0 20 0z" fill-rule="evenodd" fill="#f0f0f0"/><path fill="#f2bc51" style="cursor:pointer" d="M-1000-1000h2000v2000h-2000z"/></g><path d="M20 0a40 40 0 0 0 20 0v13.333a40 40 0 0 1-20 34.641 40 40 0 0 1-20-34.64V0a40 40 0 0 0 20 0z" fill="none" stroke-linecap="round" stroke-linejoin="round" stroke-width=".5" stroke="#333"/></g></svg>