<svg preserveAspectRatio="xMidYMin slice" viewBox="-4 -4 48 56.571" xmlns="http://www.w3.org/2000/svg"><defs><mask id="a"><path clip-rule="evenodd" d="M20 0h20v42.857a2.857 2.857 0 0 1-2.857 2.857H22.857A2.857 2.857 0 0 0 20 48.571a2.857 2.857 0 0 0-2.857-2.857H2.857A2.857 2.857 0 0 1 0 42.857V0z" fill-rule="evenodd" fill="#fff"/></mask></defs><g mask="url(#a)"><path d="M20 0h20v42.857a2.857 2.857 0 0 1-2.857 2.857H22.857A2.857 2.857 0 0 0 20 48.571a2.857 2.857 0 0 0-2.857-2.857H2.857A2.857 2.857 0 0 1 0 42.857V0z" fill-rule="evenodd" fill="#f0f0f0"/><path fill="#0c6793" style="cursor:pointer" d="M-1000-1000h2000v2000h-2000z"/></g><path d="M20 0h20v42.857a2.857 2.857 0 0 1-2.857 2.857H22.857A2.857 2.857 0 0 0 20 48.571a2.857 2.857 0 0 0-2.857-2.857H2.857A2.857 2.857 0 0 1 0 42.857V0z" fill="none" stroke-linecap="round" stroke-linejoin="round" stroke-width=".5" stroke="#333"/></svg>