<svg preserveAspectRatio="xMidYMin slice" viewBox="0 0 48 58" xmlns="http://www.w3.org/2000/svg"><g transform="translate(4 4)"><defs><mask id="a"><path clip-rule="evenodd" d="M20 0c12 2 20 2 20 2l.087 13.6c0 14.29-7.71 27.255-20.087 34.4C7.624 42.855 0 29.89 0 15.6V2s8 0 20-2z" fill-rule="evenodd" fill="#fff"/></mask></defs><g mask="url(#a)"><path d="M20 0c12 2 20 2 20 2l.087 13.6c0 14.29-7.71 27.255-20.087 34.4C7.624 42.855 0 29.89 0 15.6V2s8 0 20-2z" fill-rule="evenodd" fill="#f0f0f0"/><path fill="#0c6793" style="cursor:pointer" d="M-1000-1000h2000v2000h-2000z"/></g><path d="M20 0c12 2 20 2 20 2l.087 13.6c0 14.29-7.71 27.255-20.087 34.4C7.624 42.855 0 29.89 0 15.6V2s8 0 20-2z" fill="none" stroke-linecap="round" stroke-linejoin="round" stroke-width=".5" stroke="#333"/></g></svg>