<svg preserveAspectRatio="xMidYMin slice" viewBox="0 0 120 150" xmlns="http://www.w3.org/2000/svg"><g transform="translate(10 10)"><defs><mask id="a"><path clip-rule="evenodd" d="M43.402 0C34.74 0 29.338 7.322 15.868 9.38c.01 7.938-3.322 15.746-7.765 20.889 0 0 8.655 4.036 8.655 12.967 0 13.485-14.34 13.509-14.34 13.509S0 61.707 0 71.755c0 22.996 15.724 40.377 27.662 45.737 11.939 5.36 18.81 7.639 22.36 12.508 3.549-4.87 10.377-7.148 22.316-12.508C84.276 112.132 100 94.749 100 71.754c0-10.047-2.418-15.01-2.418-15.01s-14.34-.023-14.34-13.508c0-8.931 8.655-12.967 8.655-12.967-4.444-5.145-7.775-12.951-7.765-20.888C70.662 7.32 65.26 0 56.598 0c-4.94 0-6.577 2.502-6.577 2.502S48.341 0 43.402 0z" fill-rule="evenodd" fill="#fff"/></mask></defs><g mask="url(#a)"><path d="M43.402 0C34.74 0 29.338 7.322 15.868 9.38c.01 7.938-3.322 15.746-7.765 20.889 0 0 8.655 4.036 8.655 12.967 0 13.485-14.34 13.509-14.34 13.509S0 61.707 0 71.755c0 22.996 15.724 40.377 27.662 45.737 11.939 5.36 18.81 7.639 22.36 12.508 3.549-4.87 10.377-7.148 22.316-12.508C84.276 112.132 100 94.749 100 71.754c0-10.047-2.418-15.01-2.418-15.01s-14.34-.023-14.34-13.508c0-8.931 8.655-12.967 8.655-12.967-4.444-5.145-7.775-12.951-7.765-20.888C70.662 7.32 65.26 0 56.598 0c-4.94 0-6.577 2.502-6.577 2.502S48.341 0 43.402 0z" fill-rule="evenodd" fill="#f0f0f0"/><path fill="#0c6793" style="cursor:pointer" d="M-1000-1000h2000v2000h-2000z"/></g><path d="M43.402 0C34.74 0 29.338 7.322 15.868 9.38c.01 7.938-3.322 15.746-7.765 20.889 0 0 8.655 4.036 8.655 12.967 0 13.485-14.34 13.509-14.34 13.509S0 61.707 0 71.755c0 22.996 15.724 40.377 27.662 45.737 11.939 5.36 18.81 7.639 22.36 12.508 3.549-4.87 10.377-7.148 22.316-12.508C84.276 112.132 100 94.749 100 71.754c0-10.047-2.418-15.01-2.418-15.01s-14.34-.023-14.34-13.508c0-8.931 8.655-12.967 8.655-12.967-4.444-5.145-7.775-12.951-7.765-20.888C70.662 7.32 65.26 0 56.598 0c-4.94 0-6.577 2.502-6.577 2.502S48.341 0 43.402 0z" fill="none" stroke-linecap="round" stroke-linejoin="round" stroke-width=".5" stroke="#333"/></g></svg>