<?xml version="1.0" encoding="UTF-8" standalone="no"?>
<svg xmlns="http://www.w3.org/2000/svg" viewBox="-4 -4 48 122.434" preserveAspectRatio="xMidYMin slice"><defs><mask id="a"><path d="m21.721 105.216 5.318 8.593c.598.967 8.58.915 8.12-.89-2.478-9.711 1.079-33.163 1.608-52.169.53-19.007-1.038-49.16 3.233-57.13L36.375 0l-5.741 5.264c7.998 14.542-14.902 14.333-6.636-.26L20 1.016l-3.998 3.988c8.266 14.593-14.634 14.802-6.636.26L3.626 0 0 3.62c4.271 7.97 2.703 38.122 3.233 57.13.53 19.007 4.086 42.459 1.609 52.17-.46 1.804 7.521 1.856 8.12.89l5.317-8.594c.192-.311 1.076-.811 1.721-.811s1.529.5 1.722.811z" clip-rule="evenodd" fill-rule="evenodd" fill="#fff"/></mask></defs><g mask="url(#a)"><path d="m21.721 105.216 5.318 8.593c.598.967 8.58.915 8.12-.89-2.478-9.711 1.079-33.163 1.608-52.169.53-19.007-1.038-49.16 3.233-57.13L36.375 0l-5.741 5.264c7.998 14.542-14.902 14.333-6.636-.26L20 1.016l-3.998 3.988c8.266 14.593-14.634 14.802-6.636.26L3.626 0 0 3.62c4.271 7.97 2.703 38.122 3.233 57.13.53 19.007 4.086 42.459 1.609 52.17-.46 1.804 7.521 1.856 8.12.89l5.317-8.594c.192-.311 1.076-.811 1.721-.811s1.529.5 1.722.811z" fill-rule="evenodd" fill="#f0f0f0"/><path fill="#0c6793" style="cursor:pointer" d="M-1000-1000h2000v2000h-2000z"/></g><path d="m21.721 105.216 5.318 8.593c.598.967 8.58.915 8.12-.89-2.478-9.711 1.079-33.163 1.608-52.169.53-19.007-1.038-49.16 3.233-57.13L36.375 0l-5.741 5.264c7.998 14.542-14.902 14.333-6.636-.26L20 1.016l-3.998 3.988c8.266 14.593-14.634 14.802-6.636.26L3.626 0 0 3.62c4.271 7.97 2.703 38.122 3.233 57.13.53 19.007 4.086 42.459 1.609 52.17-.46 1.804 7.521 1.856 8.12.89l5.317-8.594c.192-.311 1.076-.811 1.721-.811s1.529.5 1.722.811z" stroke="#333" stroke-width=".5" fill="none" stroke-linecap="round" stroke-linejoin="round"/></svg>