<?xml version="1.0" encoding="UTF-8" standalone="no"?>
<svg xmlns="http://www.w3.org/2000/svg" viewBox="-4 -4 48 56" preserveAspectRatio="xMidYMin slice"><defs><mask id="a"><path d="M9.334 0C8 5.304 6.667 9.282 0 14.586c6.667 9.282 9.333 17.237 8 26.519 5.333 0 9.333 2.652 12 6.895 2.667-4.243 6.667-6.895 12-6.895-1.333-9.282 1.333-17.237 8-26.52C33.333 9.283 32 5.305 30.666 0 21.72.62 14.988.683 9.334 0z" clip-rule="evenodd" fill-rule="evenodd" fill="#fff"/></mask></defs><g mask="url(#a)"><path d="M9.334 0C8 5.304 6.667 9.282 0 14.586c6.667 9.282 9.333 17.237 8 26.519 5.333 0 9.333 2.652 12 6.895 2.667-4.243 6.667-6.895 12-6.895-1.333-9.282 1.333-17.237 8-26.52C33.333 9.283 32 5.305 30.666 0 21.72.62 14.988.683 9.334 0z" fill-rule="evenodd" fill="#f0f0f0"/><path fill="#f2bc51" d="M-1000-1000h2000v2000h-2000z"/></g><path d="M9.334 0C8 5.304 6.667 9.282 0 14.586c6.667 9.282 9.333 17.237 8 26.519 5.333 0 9.333 2.652 12 6.895 2.667-4.243 6.667-6.895 12-6.895-1.333-9.282 1.333-17.237 8-26.52C33.333 9.283 32 5.305 30.666 0 21.72.62 14.988.683 9.334 0z" stroke="#333" stroke-width=".5" fill="none" stroke-linecap="round" stroke-linejoin="round"/></svg>