<svg preserveAspectRatio="xMidYMin slice" viewBox="0 0 120 306.085" xmlns="http://www.w3.org/2000/svg"><g transform="translate(10 10)"><defs><mask id="a"><path clip-rule="evenodd" d="m54.303 263.04 13.294 21.484c1.495 2.416 21.45 2.285 20.299-2.225-6.193-24.28 2.698-82.908 4.022-130.423C93.242 104.358 89.322 28.974 100 9.052L90.937 0 76.584 13.16c19.996 36.357-37.254 35.835-16.588-.65L50 2.541l-9.996 9.968c20.667 36.485-36.584 37.007-16.588.652L9.063 0 0 9.052c10.678 19.922 6.757 95.303 8.082 142.824 1.324 47.517 10.215 106.147 4.022 130.423-1.15 4.51 18.803 4.641 20.299 2.225l13.294-21.484c.482-.779 2.691-2.029 4.304-2.029 1.612 0 3.822 1.25 4.303 2.029z" fill-rule="evenodd" fill="#fff"/></mask></defs><g mask="url(#a)"><path d="m54.303 263.04 13.294 21.484c1.495 2.416 21.45 2.285 20.299-2.225-6.193-24.28 2.698-82.908 4.022-130.423C93.242 104.358 89.322 28.974 100 9.052L90.937 0 76.584 13.16c19.996 36.357-37.254 35.835-16.588-.65L50 2.541l-9.996 9.968c20.667 36.485-36.584 37.007-16.588.652L9.063 0 0 9.052c10.678 19.922 6.757 95.303 8.082 142.824 1.324 47.517 10.215 106.147 4.022 130.423-1.15 4.51 18.803 4.641 20.299 2.225l13.294-21.484c.482-.779 2.691-2.029 4.304-2.029 1.612 0 3.822 1.25 4.303 2.029z" fill-rule="evenodd" fill="#f0f0f0"/><path fill="#f2bc51" style="cursor:pointer" d="M-1000-1000h2000v2000h-2000z"/></g><path d="m54.303 263.04 13.294 21.484c1.495 2.416 21.45 2.285 20.299-2.225-6.193-24.28 2.698-82.908 4.022-130.423C93.242 104.358 89.322 28.974 100 9.052L90.937 0 76.584 13.16c19.996 36.357-37.254 35.835-16.588-.65L50 2.541l-9.996 9.968c20.667 36.485-36.584 37.007-16.588.652L9.063 0 0 9.052c10.678 19.922 6.757 95.303 8.082 142.824 1.324 47.517 10.215 106.147 4.022 130.423-1.15 4.51 18.803 4.641 20.299 2.225l13.294-21.484c.482-.779 2.691-2.029 4.304-2.029 1.612 0 3.822 1.25 4.303 2.029z" fill="none" stroke-linecap="round" stroke-linejoin="round" stroke-width=".5" stroke="#333"/></g></svg>