<?xml version="1.0" encoding="UTF-8" standalone="no"?>
<svg xmlns="http://www.w3.org/2000/svg" preserveAspectRatio="xMidYMin slice" viewBox="-4 -4 48 63.509"><defs><mask id="a"><path fill="#fff" fill-rule="evenodd" d="m15.6 0-1.178 4.231h-3.653l-.382-2.884-6.924-.195-1.204 14.77c1.92.423 3.314 1.7 3.314 3.21 0 1.645-1.656 3.016-3.844 3.305L0 43.649h.005Q0 43.792 0 43.936c0 6.388 8.995 11.573 20 11.573s20-5.185 20-11.573q.001-.144-.005-.287H40l-1.729-21.212c-2.188-.29-3.844-1.66-3.844-3.306 0-1.51 1.394-2.786 3.314-3.21l-1.204-14.77-6.924.196-.382 2.884h-3.653L24.4 0H20z" clip-rule="evenodd"/></mask></defs><g mask="url(#a)"><path fill="#f0f0f0" fill-rule="evenodd" d="m15.6 0-1.178 4.231h-3.653l-.382-2.884-6.924-.195-1.204 14.77c1.92.423 3.314 1.7 3.314 3.21 0 1.645-1.656 3.016-3.844 3.305L0 43.649h.005Q0 43.792 0 43.936c0 6.388 8.995 11.573 20 11.573s20-5.185 20-11.573q.001-.144-.005-.287H40l-1.729-21.212c-2.188-.29-3.844-1.66-3.844-3.306 0-1.51 1.394-2.786 3.314-3.21l-1.204-14.77-6.924.196-.382 2.884h-3.653L24.4 0H20z"/><path fill="#0c6793" d="M-1000-1000h2000v2000h-2000z"/></g><path fill="none" stroke="#333" stroke-linecap="round" stroke-linejoin="round" stroke-width=".5" d="m15.6 0-1.178 4.231h-3.653l-.382-2.884-6.924-.195-1.204 14.77c1.92.423 3.314 1.7 3.314 3.21 0 1.645-1.656 3.016-3.844 3.305L0 43.649h.005Q0 43.792 0 43.936c0 6.388 8.995 11.573 20 11.573s20-5.185 20-11.573q.001-.144-.005-.287H40l-1.729-21.212c-2.188-.29-3.844-1.66-3.844-3.306 0-1.51 1.394-2.786 3.314-3.21l-1.204-14.77-6.924.196-.382 2.884h-3.653L24.4 0H20z"/></svg>