<svg preserveAspectRatio="xMidYMin slice" viewBox="0 0 48 55.974" xmlns="http://www.w3.org/2000/svg"><g transform="translate(4 4)"><defs><mask id="a"><path clip-rule="evenodd" d="M20 0h13.333c0 2.761 2.985 5 6.667 5a53.333 53.333 0 0 1-20 42.974A53.333 53.333 0 0 1 0 5c3.682 0 6.667-2.239 6.667-5z" fill-rule="evenodd" fill="#fff"/></mask></defs><g mask="url(#a)"><path d="M20 0h13.333c0 2.761 2.985 5 6.667 5a53.333 53.333 0 0 1-20 42.974A53.333 53.333 0 0 1 0 5c3.682 0 6.667-2.239 6.667-5z" fill-rule="evenodd" fill="#f0f0f0"/><path fill="#f2bc51" style="cursor:pointer" d="M-1000-1000h2000v2000h-2000z"/></g><path d="M20 0h13.333c0 2.761 2.985 5 6.667 5a53.333 53.333 0 0 1-20 42.974A53.333 53.333 0 0 1 0 5c3.682 0 6.667-2.239 6.667-5z" fill="none" stroke-linecap="round" stroke-linejoin="round" stroke-width=".5" stroke="#333"/></g></svg>