<?xml version="1.0" encoding="UTF-8" standalone="no"?>
<svg xmlns="http://www.w3.org/2000/svg" viewBox="-4 -4 48 58" preserveAspectRatio="xMidYMin slice"><defs><mask id="a"><path d="M4 2.8C2 2.8 0 2 0 2s.8 2 .8 4v26C.8 38 6 42 10 44c8 4 10 6 10 6s2-2 10-6c4-2 9.2-6 9.2-12V6c0-2 .8-4 .8-4s-2 .8-4 .8C32 2.8 28 0 24 0s-4 2-4 2 0-2-4-2S8 2.8 4 2.8z" clip-rule="evenodd" fill-rule="evenodd" fill="#fff"/></mask></defs><g mask="url(#a)"><path d="M4 2.8C2 2.8 0 2 0 2s.8 2 .8 4v26C.8 38 6 42 10 44c8 4 10 6 10 6s2-2 10-6c4-2 9.2-6 9.2-12V6c0-2 .8-4 .8-4s-2 .8-4 .8C32 2.8 28 0 24 0s-4 2-4 2 0-2-4-2S8 2.8 4 2.8z" fill-rule="evenodd" fill="#f0f0f0"/><path fill="#0c6793" style="cursor:pointer" d="M-1000-1000h2000v2000h-2000z"/></g><path d="M4 2.8C2 2.8 0 2 0 2s.8 2 .8 4v26C.8 38 6 42 10 44c8 4 10 6 10 6s2-2 10-6c4-2 9.2-6 9.2-12V6c0-2 .8-4 .8-4s-2 .8-4 .8C32 2.8 28 0 24 0s-4 2-4 2 0-2-4-2S8 2.8 4 2.8z" stroke="#333" stroke-width=".5" fill="none" stroke-linecap="round" stroke-linejoin="round"/></svg>