<?xml version="1.0" encoding="UTF-8" standalone="no"?>
<svg xmlns="http://www.w3.org/2000/svg" viewBox="-4 -4 48 56" preserveAspectRatio="xMidYMin slice"><defs><mask id="a"><path d="M20 0c12 0 20 4 20 4 0 20-8 32-20 44C8 36 0 24.014 0 4c0 0 8-4 20-4z" clip-rule="evenodd" fill-rule="evenodd" fill="#fff"/></mask></defs><g mask="url(#a)"><path d="M20 0c12 0 20 4 20 4 0 20-8 32-20 44C8 36 0 24.014 0 4c0 0 8-4 20-4z" fill-rule="evenodd" fill="#f0f0f0"/><path fill="#f2bc51" style="cursor:pointer" d="M-1000-1000h2000v2000h-2000z"/></g><path d="M20 0c12 0 20 4 20 4 0 20-8 32-20 44C8 36 0 24.014 0 4c0 0 8-4 20-4z" stroke="#333" stroke-width=".5" fill="none" stroke-linecap="round" stroke-linejoin="round"/></svg>