<?xml version="1.0" encoding="UTF-8" standalone="no"?>
<svg xmlns="http://www.w3.org/2000/svg" preserveAspectRatio="xMidYMin slice" viewBox="-4 -4 52.444 56.889"><defs><mask id="a"><path fill="#fff" fill-rule="evenodd" d="M40 0c0 8.889 4.444 11.111 4.444 26.667 0 15.555-17.777 20-17.777 20s-2.223.444-4.445 2.222c-2.222-1.778-4.444-2.222-4.444-2.222S0 42.222 0 26.667C0 11.11 4.444 8.889 4.444 0c0 0 6.667 4.444 17.778 4.444C33.333 4.444 40 0 40 0z" clip-rule="evenodd"/></mask></defs><g mask="url(#a)"><path fill="#f0f0f0" fill-rule="evenodd" d="M40 0c0 8.889 4.444 11.111 4.444 26.667 0 15.555-17.777 20-17.777 20s-2.223.444-4.445 2.222c-2.222-1.778-4.444-2.222-4.444-2.222S0 42.222 0 26.667C0 11.11 4.444 8.889 4.444 0c0 0 6.667 4.444 17.778 4.444C33.333 4.444 40 0 40 0z"/><path fill="#f2bc51" d="M-1000-1000h2000v2000h-2000z"/></g><path fill="none" stroke="#333" stroke-linecap="round" stroke-linejoin="round" stroke-width=".5" d="M40 0c0 8.889 4.444 11.111 4.444 26.667 0 15.555-17.777 20-17.777 20s-2.223.444-4.445 2.222c-2.222-1.778-4.444-2.222-4.444-2.222S0 42.222 0 26.667C0 11.11 4.444 8.889 4.444 0c0 0 6.667 4.444 17.778 4.444C33.333 4.444 40 0 40 0z"/></svg>