<svg preserveAspectRatio="xMidYMin slice" viewBox="0 0 120 220" xmlns="http://www.w3.org/2000/svg"><g transform="translate(10 10)"><defs><mask id="a"><path clip-rule="evenodd" d="M50 0a50 50 0 0 1 49 59.95A500 500 0 0 1 50 200 500 500 0 0 1 1 59.95 50 50 0 0 1 50 0z" fill-rule="evenodd" fill="#fff"/></mask></defs><g mask="url(#a)"><path d="M50 0a50 50 0 0 1 49 59.95A500 500 0 0 1 50 200 500 500 0 0 1 1 59.95 50 50 0 0 1 50 0z" fill-rule="evenodd" fill="#f0f0f0"/><path fill="#0c6793" style="cursor:pointer" d="M-1000-1000h2000v2000h-2000z"/></g><path d="M50 0a50 50 0 0 1 49 59.95A500 500 0 0 1 50 200 500 500 0 0 1 1 59.95 50 50 0 0 1 50 0z" fill="none" stroke-linecap="round" stroke-linejoin="round" stroke-width=".5" stroke="#333"/></g></svg>