<svg preserveAspectRatio="xMidYMin slice" viewBox="0 0 120 155" xmlns="http://www.w3.org/2000/svg"><g transform="translate(10 10)"><defs><mask id="a"><path clip-rule="evenodd" d="M50 0c10 0 20 0 40 5 5 30 10 50 10 70 0 30-25 45-50 60-25-15-50-30-50-60-.15-18.25 5-40 10-70 20-5 30-5 40-5z" fill-rule="evenodd" fill="#fff"/></mask></defs><g mask="url(#a)"><path d="M50 0c10 0 20 0 40 5 5 30 10 50 10 70 0 30-25 45-50 60-25-15-50-30-50-60-.15-18.25 5-40 10-70 20-5 30-5 40-5z" fill-rule="evenodd" fill="#f0f0f0"/><path fill="#0c6793" style="cursor:pointer" d="M-1000-1000h2000v2000h-2000z"/></g><path d="M50 0c10 0 20 0 40 5 5 30 10 50 10 70 0 30-25 45-50 60-25-15-50-30-50-60-.15-18.25 5-40 10-70 20-5 30-5 40-5z" fill="none" stroke-linecap="round" stroke-linejoin="round" stroke-width=".5" stroke="#333"/></g></svg>