<?xml version="1.0" encoding="UTF-8" standalone="no"?>
<svg xmlns="http://www.w3.org/2000/svg" preserveAspectRatio="xMidYMin slice" viewBox="-4 -4 48 76"><defs><mask id="a"><path fill="#fff" fill-rule="evenodd" d="M16 68c-4 0-10-.8-10-.8L0 4s4-2.4 8-2.8c0 0 0 4.8 4 8.8 4-4 4-9.6 4-9.6s2-.4 4-.4 4 .4 4 .4S24 6 28 10c4-4 4-8.8 4-8.8 4 .4 8 2.8 8 2.8l-6 63.2s-6 .8-10 .8c0 0 0-4-4-8-4 4-4 8-4 8" clip-rule="evenodd"/></mask></defs><g mask="url(#a)"><path fill="#f0f0f0" fill-rule="evenodd" d="M16 68c-4 0-10-.8-10-.8L0 4s4-2.4 8-2.8c0 0 0 4.8 4 8.8 4-4 4-9.6 4-9.6s2-.4 4-.4 4 .4 4 .4S24 6 28 10c4-4 4-8.8 4-8.8 4 .4 8 2.8 8 2.8l-6 63.2s-6 .8-10 .8c0 0 0-4-4-8-4 4-4 8-4 8"/><path fill="#f2bc51" d="M-1000-1000h2000v2000h-2000z"/></g><path fill="none" stroke="#333" stroke-linecap="round" stroke-linejoin="round" stroke-width=".5" d="M16 68c-4 0-10-.8-10-.8L0 4s4-2.4 8-2.8c0 0 0 4.8 4 8.8 4-4 4-9.6 4-9.6s2-.4 4-.4 4 .4 4 .4S24 6 28 10c4-4 4-8.8 4-8.8 4 .4 8 2.8 8 2.8l-6 63.2s-6 .8-10 .8c0 0 0-4-4-8-4 4-4 8-4 8"/></svg>