<?xml version="1.0" encoding="UTF-8" standalone="no"?>
<svg xmlns="http://www.w3.org/2000/svg" preserveAspectRatio="xMidYMin slice" viewBox="-4 -4 48 45.352"><defs><mask id="a"><path fill="#fff" fill-rule="evenodd" d="M38.414 8.255c-3.927 4.583-2.08 8.684-.771 10.649 6.545 10.15-1.935 16.156-8.48 16.156l-6.545.327c-1.309 0-2.29.983-2.618 1.965-.327-.982-1.309-1.965-2.618-1.965l-6.545-.327c-6.545 0-15.025-6.006-8.48-16.156 1.31-1.965 3.156-6.066-.771-10.65C3.549 6.29 5.82 3.93 7.457 0 10.563.818 15.28 1.31 20 1.31c4.73 0 9.43-.49 12.543-1.31 1.636 3.929 3.908 6.29 5.872 8.255" clip-rule="evenodd"/></mask></defs><g mask="url(#a)"><path fill="#f0f0f0" fill-rule="evenodd" d="M38.414 8.255c-3.927 4.583-2.08 8.684-.771 10.649 6.545 10.15-1.935 16.156-8.48 16.156l-6.545.327c-1.309 0-2.29.983-2.618 1.965-.327-.982-1.309-1.965-2.618-1.965l-6.545-.327c-6.545 0-15.025-6.006-8.48-16.156 1.31-1.965 3.156-6.066-.771-10.65C3.549 6.29 5.82 3.93 7.457 0 10.563.818 15.28 1.31 20 1.31c4.73 0 9.43-.49 12.543-1.31 1.636 3.929 3.908 6.29 5.872 8.255"/><path fill="#0c6793" d="M-1000-1000h2000v2000h-2000z"/></g><path fill="none" stroke="#333" stroke-linecap="round" stroke-linejoin="round" stroke-width=".5" d="M38.414 8.255c-3.927 4.583-2.08 8.684-.771 10.649 6.545 10.15-1.935 16.156-8.48 16.156l-6.545.327c-1.309 0-2.29.983-2.618 1.965-.327-.982-1.309-1.965-2.618-1.965l-6.545-.327c-6.545 0-15.025-6.006-8.48-16.156 1.31-1.965 3.156-6.066-.771-10.65C3.549 6.29 5.82 3.93 7.457 0 10.563.818 15.28 1.31 20 1.31c4.73 0 9.43-.49 12.543-1.31 1.636 3.929 3.908 6.29 5.872 8.255"/></svg>