<?xml version="1.0" encoding="UTF-8" standalone="no"?>
<svg xmlns="http://www.w3.org/2000/svg" preserveAspectRatio="xMidYMin slice" viewBox="-4 -4 48 52.8"><defs><mask id="a"><path fill="#fff" fill-rule="evenodd" d="M20 0C17.45 3.161 6.324 5.65 1.741 5.65a9 9 0 0 1-1.7-.164S-1.849 28.85 20 44.8C41.849 28.85 39.959 5.486 39.959 5.486a9 9 0 0 1-1.7.163C33.676 5.65 22.549 3.161 20 0" clip-rule="evenodd"/></mask></defs><g mask="url(#a)"><path fill="#f0f0f0" fill-rule="evenodd" d="M20 0C17.45 3.161 6.324 5.65 1.741 5.65a9 9 0 0 1-1.7-.164S-1.849 28.85 20 44.8C41.849 28.85 39.959 5.486 39.959 5.486a9 9 0 0 1-1.7.163C33.676 5.65 22.549 3.161 20 0"/><path fill="#0c6793" d="M-1000-1000h2000v2000h-2000z"/></g><path fill="none" stroke="#333" stroke-linecap="round" stroke-linejoin="round" stroke-width=".5" d="M20 0C17.45 3.161 6.324 5.65 1.741 5.65a9 9 0 0 1-1.7-.164S-1.849 28.85 20 44.8C41.849 28.85 39.959 5.486 39.959 5.486a9 9 0 0 1-1.7.163C33.676 5.65 22.549 3.161 20 0"/></svg>