<?xml version="1.0" encoding="UTF-8" standalone="no"?>
<svg xmlns="http://www.w3.org/2000/svg" preserveAspectRatio="xMidYMin slice" viewBox="-4 -4 48 63.21"><defs><mask id="a"><path fill="#fff" fill-rule="evenodd" d="M0 0v40c0 5.536 3.573 9.77 8.84 10 5.267.16 8.32.696 11.122 5.21 2.802-4.514 5.854-5.05 11.121-5.21C36.389 50 40 45.536 40 40V0z" clip-rule="evenodd"/></mask></defs><g mask="url(#a)"><path fill="#f0f0f0" fill-rule="evenodd" d="M0 0v40c0 5.536 3.573 9.77 8.84 10 5.267.16 8.32.696 11.122 5.21 2.802-4.514 5.854-5.05 11.121-5.21C36.389 50 40 45.536 40 40V0z"/><path fill="#0c6793" d="M-1000-1000h2000v2000h-2000z"/></g><path fill="none" stroke="#333" stroke-linecap="round" stroke-linejoin="round" stroke-width=".5" d="M0 0v40c0 5.536 3.573 9.77 8.84 10 5.267.16 8.32.696 11.122 5.21 2.802-4.514 5.854-5.05 11.121-5.21C36.389 50 40 45.536 40 40V0z"/></svg>