<?xml version="1.0" encoding="UTF-8" standalone="no"?>
<svg xmlns="http://www.w3.org/2000/svg" preserveAspectRatio="xMidYMin slice" viewBox="-4 -4 48 56.8"><defs><mask id="a"><path fill="#fff" fill-rule="evenodd" d="M36.404.19C26.686-.665.324 1.183 0 9.5c10.213-7.618 11.883 4.695 2.122 2.859 1.502.878 1.044 3.487.398 8.844C.397 38.801 17.966 41.006 19.56 48.8c5.204-8.83 19.884-9.648 20.424-27.663.205-6.852-1.722-16.401-3.58-20.947" clip-rule="evenodd"/></mask></defs><g mask="url(#a)"><path fill="#f0f0f0" fill-rule="evenodd" d="M36.404.19C26.686-.665.324 1.183 0 9.5c10.213-7.618 11.883 4.695 2.122 2.859 1.502.878 1.044 3.487.398 8.844C.397 38.801 17.966 41.006 19.56 48.8c5.204-8.83 19.884-9.648 20.424-27.663.205-6.852-1.722-16.401-3.58-20.947"/><path fill="#0c6793" d="M-1000-1000h2000v2000h-2000z"/></g><path fill="none" stroke="#333" stroke-linecap="round" stroke-linejoin="round" stroke-width=".5" d="M36.404.19C26.686-.665.324 1.183 0 9.5c10.213-7.618 11.883 4.695 2.122 2.859 1.502.878 1.044 3.487.398 8.844C.397 38.801 17.966 41.006 19.56 48.8c5.204-8.83 19.884-9.648 20.424-27.663.205-6.852-1.722-16.401-3.58-20.947"/></svg>