<svg preserveAspectRatio="xMidYMin slice" viewBox="0 0 120 180" xmlns="http://www.w3.org/2000/svg"><g transform="translate(10 10)"><defs><mask id="a"><path clip-rule="evenodd" d="M0 15v130c0 10 30 15 50 15s50-5 50-15V15C100 5 66.75 0 50 0 30 0 0 5 0 15z" fill-rule="evenodd" fill="#fff"/></mask></defs><g mask="url(#a)"><path d="M0 15v130c0 10 30 15 50 15s50-5 50-15V15C100 5 66.75 0 50 0 30 0 0 5 0 15z" fill-rule="evenodd" fill="#f0f0f0"/><path fill="#f2bc51" style="cursor:pointer" d="M-1000-1000h2000v2000h-2000z"/></g><path d="M0 15v130c0 10 30 15 50 15s50-5 50-15V15C100 5 66.75 0 50 0 30 0 0 5 0 15z" fill="none" stroke-linecap="round" stroke-linejoin="round" stroke-width=".5" stroke="#333"/></g></svg>