<?xml version="1.0" encoding="UTF-8" standalone="no"?>
<svg xmlns="http://www.w3.org/2000/svg" preserveAspectRatio="xMidYMin slice" viewBox="-4 -4 48 55.935"><defs><mask id="a"><path fill="#fff" fill-rule="evenodd" d="M20 0h13.322c0 2.76 2.983 4.996 6.661 4.996A53.29 53.29 0 0 1 20 47.935 53.29 53.29 0 0 1 .017 4.995c3.678 0 6.66-2.236 6.66-4.995z" clip-rule="evenodd"/></mask></defs><g mask="url(#a)"><path fill="#f0f0f0" fill-rule="evenodd" d="M20 0h13.322c0 2.76 2.983 4.996 6.661 4.996A53.29 53.29 0 0 1 20 47.935 53.29 53.29 0 0 1 .017 4.995c3.678 0 6.66-2.236 6.66-4.995z"/><path fill="#0c6793" d="M-1000-1000h2000v2000h-2000z"/></g><path fill="none" stroke="#333" stroke-linecap="round" stroke-linejoin="round" stroke-width=".5" d="M20 0h13.322c0 2.76 2.983 4.996 6.661 4.996A53.29 53.29 0 0 1 20 47.935 53.29 53.29 0 0 1 .017 4.995c3.678 0 6.66-2.236 6.66-4.995z"/></svg>