<?xml version="1.0" encoding="UTF-8" standalone="no"?>
<svg xmlns="http://www.w3.org/2000/svg" preserveAspectRatio="xMidYMin slice" viewBox="-4 -4 48 72"><defs><mask id="a"><path fill="#fff" fill-rule="evenodd" d="M12 60s-2-22-6-26-6-2-6-2 2-4 0-8c0 0 2-4 0-8 0 0 2-4 0-8 0 0 2 2 6-2 0 0 4-4 14-6 10 2 14 6 14 6 4 4 6 2 6 2-2 4 0 8 0 8-2 4 0 8 0 8-2 4 0 8 0 8s-2-2-6 2-6 26-6 26c-4 0-8 4-8 4s-4-4-8-4z" clip-rule="evenodd"/></mask></defs><g mask="url(#a)"><path fill="#f0f0f0" fill-rule="evenodd" d="M12 60s-2-22-6-26-6-2-6-2 2-4 0-8c0 0 2-4 0-8 0 0 2-4 0-8 0 0 2 2 6-2 0 0 4-4 14-6 10 2 14 6 14 6 4 4 6 2 6 2-2 4 0 8 0 8-2 4 0 8 0 8-2 4 0 8 0 8s-2-2-6 2-6 26-6 26c-4 0-8 4-8 4s-4-4-8-4z"/><path fill="#f2bc51" d="M-1000-1000h2000v2000h-2000z"/></g><path fill="none" stroke="#333" stroke-linecap="round" stroke-linejoin="round" stroke-width=".5" d="M12 60s-2-22-6-26-6-2-6-2 2-4 0-8c0 0 2-4 0-8 0 0 2-4 0-8 0 0 2 2 6-2 0 0 4-4 14-6 10 2 14 6 14 6 4 4 6 2 6 2-2 4 0 8 0 8-2 4 0 8 0 8-2 4 0 8 0 8s-2-2-6 2-6 26-6 26c-4 0-8 4-8 4s-4-4-8-4z"/></svg>