<?xml version="1.0" encoding="UTF-8" standalone="no"?>
<svg xmlns="http://www.w3.org/2000/svg" viewBox="-4 -4 48 71.997" preserveAspectRatio="xMidYMin slice"><defs><mask id="a"><path d="M11.201 0c-1.218.034-1.6 1.2-2 2l-8.4 18c-.4.799-.833 1.603-.8 1.999 0 .4 0 .4.4 2l8.8 37.998c.4 1.6.8 2 1.6 2h18.4c.8 0 1.2-.4 1.6-2L39.6 24c.4-1.6.4-1.6.4-2 0-.4-.4-1.2-.8-2L30.8 2c-.4-.8-.8-2-2-2z" clip-rule="evenodd" fill-rule="evenodd" fill="#fff"/></mask></defs><g mask="url(#a)"><path d="M11.201 0c-1.218.034-1.6 1.2-2 2l-8.4 18c-.4.799-.833 1.603-.8 1.999 0 .4 0 .4.4 2l8.8 37.998c.4 1.6.8 2 1.6 2h18.4c.8 0 1.2-.4 1.6-2L39.6 24c.4-1.6.4-1.6.4-2 0-.4-.4-1.2-.8-2L30.8 2c-.4-.8-.8-2-2-2z" fill-rule="evenodd" fill="#f0f0f0"/><path fill="#f2bc51" d="M-1000-1000h2000v2000h-2000z"/></g><path d="M11.201 0c-1.218.034-1.6 1.2-2 2l-8.4 18c-.4.799-.833 1.603-.8 1.999 0 .4 0 .4.4 2l8.8 37.998c.4 1.6.8 2 1.6 2h18.4c.8 0 1.2-.4 1.6-2L39.6 24c.4-1.6.4-1.6.4-2 0-.4-.4-1.2-.8-2L30.8 2c-.4-.8-.8-2-2-2z" stroke="#333" stroke-width=".5" fill="none" stroke-linecap="round" stroke-linejoin="round"/></svg>