<?xml version="1.0" encoding="UTF-8" standalone="no"?>
<svg xmlns="http://www.w3.org/2000/svg" viewBox="-4 -4 51.011 55.312" preserveAspectRatio="xMidYMin slice"><defs><mask id="a"><path d="M.709 37.768c1.212-1.088 2.338-2.387 2.33-4.84L2.97 14.45C2.956 10.472 1.994 9.52 0 7.406 1.87 5.64 3.415 3.621 4.968 1.473 9.143 4.723 17.244 4.118 21.505 0c4.262 4.118 12.363 4.723 16.537 1.473 1.554 2.148 3.099 4.167 4.969 5.933-1.994 2.114-2.957 3.066-2.971 7.044l-.068 18.478c-.009 2.453 1.118 3.752 2.33 4.84-4.662 8.912-15.884 3.371-20.798 9.544C16.592 41.139 5.37 46.68.707 37.768z" clip-rule="evenodd" fill-rule="evenodd" fill="#fff"/></mask></defs><g mask="url(#a)"><path d="M.709 37.768c1.212-1.088 2.338-2.387 2.33-4.84L2.97 14.45C2.956 10.472 1.994 9.52 0 7.406 1.87 5.64 3.415 3.621 4.968 1.473 9.143 4.723 17.244 4.118 21.505 0c4.262 4.118 12.363 4.723 16.537 1.473 1.554 2.148 3.099 4.167 4.969 5.933-1.994 2.114-2.957 3.066-2.971 7.044l-.068 18.478c-.009 2.453 1.118 3.752 2.33 4.84-4.662 8.912-15.884 3.371-20.798 9.544C16.592 41.139 5.37 46.68.707 37.768z" fill-rule="evenodd" fill="#f0f0f0"/><path fill="#0c6793" d="M-1000-1000h2000v2000h-2000z"/></g><path d="M.709 37.768c1.212-1.088 2.338-2.387 2.33-4.84L2.97 14.45C2.956 10.472 1.994 9.52 0 7.406 1.87 5.64 3.415 3.621 4.968 1.473 9.143 4.723 17.244 4.118 21.505 0c4.262 4.118 12.363 4.723 16.537 1.473 1.554 2.148 3.099 4.167 4.969 5.933-1.994 2.114-2.957 3.066-2.971 7.044l-.068 18.478c-.009 2.453 1.118 3.752 2.33 4.84-4.662 8.912-15.884 3.371-20.798 9.544C16.592 41.139 5.37 46.68.707 37.768z" stroke="#333" stroke-width=".5" fill="none" stroke-linecap="round" stroke-linejoin="round"/></svg>