<svg preserveAspectRatio="xMidYMin slice" viewBox="0 0 48 58" xmlns="http://www.w3.org/2000/svg"><g transform="translate(4 4)"><defs><mask id="a"><path clip-rule="evenodd" d="M6 0 0 6s4 2 4 6c0 6-4 10-4 20 0 6 2 12 10 14 6 1.2 10 4 10 4s4-2.8 10-4c8-2 10-8 10-14 0-10-4-14-4-20 0-4 4-6 4-6l-6-6s-2 2-6 2c-6 0-8-2-8-2s-2 2-8 2C8 2 6 0 6 0z" fill-rule="evenodd" fill="#fff"/></mask></defs><g mask="url(#a)"><path d="M6 0 0 6s4 2 4 6c0 6-4 10-4 20 0 6 2 12 10 14 6 1.2 10 4 10 4s4-2.8 10-4c8-2 10-8 10-14 0-10-4-14-4-20 0-4 4-6 4-6l-6-6s-2 2-6 2c-6 0-8-2-8-2s-2 2-8 2C8 2 6 0 6 0z" fill-rule="evenodd" fill="#f0f0f0"/><path fill="#0c6793" style="cursor:pointer" d="M-1000-1000h2000v2000h-2000z"/></g><path d="M6 0 0 6s4 2 4 6c0 6-4 10-4 20 0 6 2 12 10 14 6 1.2 10 4 10 4s4-2.8 10-4c8-2 10-8 10-14 0-10-4-14-4-20 0-4 4-6 4-6l-6-6s-2 2-6 2c-6 0-8-2-8-2s-2 2-8 2C8 2 6 0 6 0z" fill="none" stroke-linecap="round" stroke-linejoin="round" stroke-width=".5" stroke="#333"/></g></svg>