<?xml version="1.0" encoding="UTF-8" standalone="no"?>
<svg xmlns="http://www.w3.org/2000/svg" preserveAspectRatio="xMidYMin slice" viewBox="-4 -4 48 87.999"><defs><mask id="a"><path fill="#fff" fill-rule="evenodd" d="M20 0a20 20 0 0 1 19.6 23.98A199.998 199.998 0 0 1 20 80 199.998 199.998 0 0 1 .4 23.98 20 20 0 0 1 20 0z" clip-rule="evenodd"/></mask></defs><g mask="url(#a)"><path fill="#f0f0f0" fill-rule="evenodd" d="M20 0a20 20 0 0 1 19.6 23.98A199.998 199.998 0 0 1 20 80 199.998 199.998 0 0 1 .4 23.98 20 20 0 0 1 20 0z"/><path fill="#0c6793" d="M-1000-1000h2000v2000h-2000z"/></g><path fill="none" stroke="#333" stroke-linecap="round" stroke-linejoin="round" stroke-width=".5" d="M20 0a20 20 0 0 1 19.6 23.98A199.998 199.998 0 0 1 20 80 199.998 199.998 0 0 1 .4 23.98 20 20 0 0 1 20 0z"/></svg>