<?xml version="1.0" encoding="UTF-8" standalone="no"?>
<svg xmlns="http://www.w3.org/2000/svg" preserveAspectRatio="xMidYMin slice" viewBox="-4 -4 48 56"><defs><mask id="a"><path fill="#fff" fill-rule="evenodd" d="M20 0c12 0 20 4 20 4 0 20-8 32-20 44C8 36 0 24.014 0 4c0 0 8-4 20-4" clip-rule="evenodd"/></mask></defs><g mask="url(#a)"><path fill="#f0f0f0" fill-rule="evenodd" d="M20 0c12 0 20 4 20 4 0 20-8 32-20 44C8 36 0 24.014 0 4c0 0 8-4 20-4"/><path fill="#f2bc51" d="M-1000-1000h2000v2000h-2000z"/></g><path fill="none" stroke="#333" stroke-linecap="round" stroke-linejoin="round" stroke-width=".5" d="M20 0c12 0 20 4 20 4 0 20-8 32-20 44C8 36 0 24.014 0 4c0 0 8-4 20-4"/></svg>