<?xml version="1.0" encoding="UTF-8" standalone="no"?>
<svg xmlns="http://www.w3.org/2000/svg" preserveAspectRatio="xMidYMin slice" viewBox="-4 -4 48 61.333"><defs><mask id="a"><path fill="#fff" fill-rule="evenodd" d="m40 26.667-.017 2.902-.054 1.926-.089 1.669-.124 1.515-.159 1.404-.194 1.317-.23 1.243-.265 1.177-.3 1.119L38.233 42l-.369 1.01-.404.96-.439.912-.473.862-.507.816-.542.77-.578.724-.612.677-.648.63-.682.585-.72.54-.759.492-.796.445-.839.4-.882.353-.932.307-.988.259-1.054.213-1.136.165-1.252.118-1.445.07-2.176.024-2.176-.024-1.445-.07-1.252-.118-1.136-.165-1.054-.213-.988-.259-.932-.307-.882-.353-.839-.4-.796-.445-.759-.492-.72-.54-.682-.584-.648-.631-.612-.677-.578-.724-.542-.77-.507-.816-.473-.862-.439-.912-.404-.96-.37-1.01-.334-1.062-.3-1.119-.265-1.177-.23-1.243-.194-1.317-.159-1.404-.124-1.515-.09-1.67-.053-1.925L0 26.667l.017-2.903.054-1.925.089-1.67.124-1.514.159-1.404.194-1.318.23-1.242.265-1.178.3-1.118.335-1.063.369-1.01.404-.96.439-.911.473-.863.507-.816.542-.77.578-.723.612-.678.648-.63.682-.584.72-.54.759-.492.796-.446.839-.4.882-.353.932-.307.988-.258 1.054-.214 1.136-.165 1.252-.117 1.445-.071L20 0l2.176.024 1.445.07 1.252.118 1.136.165 1.054.214.988.258.932.307.882.353.839.4.796.446.759.492.72.54.682.584.648.63.612.678.578.724.542.769.507.816.473.863.439.912.404.96.37 1.009.334 1.063.3 1.118.265 1.178.23 1.242.194 1.318.159 1.404.124 1.514.09 1.67.053 1.925z" clip-rule="evenodd"/></mask></defs><g mask="url(#a)"><path fill="#f0f0f0" fill-rule="evenodd" d="m40 26.667-.017 2.902-.054 1.926-.089 1.669-.124 1.515-.159 1.404-.194 1.317-.23 1.243-.265 1.177-.3 1.119L38.233 42l-.369 1.01-.404.96-.439.912-.473.862-.507.816-.542.77-.578.724-.612.677-.648.63-.682.585-.72.54-.759.492-.796.445-.839.4-.882.353-.932.307-.988.259-1.054.213-1.136.165-1.252.118-1.445.07-2.176.024-2.176-.024-1.445-.07-1.252-.118-1.136-.165-1.054-.213-.988-.259-.932-.307-.882-.353-.839-.4-.796-.445-.759-.492-.72-.54-.682-.584-.648-.631-.612-.677-.578-.724-.542-.77-.507-.816-.473-.862-.439-.912-.404-.96-.37-1.01-.334-1.062-.3-1.119-.265-1.177-.23-1.243-.194-1.317-.159-1.404-.124-1.515-.09-1.67-.053-1.925L0 26.667l.017-2.903.054-1.925.089-1.67.124-1.514.159-1.404.194-1.318.23-1.242.265-1.178.3-1.118.335-1.063.369-1.01.404-.96.439-.911.473-.863.507-.816.542-.77.578-.723.612-.678.648-.63.682-.584.72-.54.759-.492.796-.446.839-.4.882-.353.932-.307.988-.258 1.054-.214 1.136-.165 1.252-.117 1.445-.071L20 0l2.176.024 1.445.07 1.252.118 1.136.165 1.054.214.988.258.932.307.882.353.839.4.796.446.759.492.72.54.682.584.648.63.612.678.578.724.542.769.507.816.473.863.439.912.404.96.37 1.009.334 1.063.3 1.118.265 1.178.23 1.242.194 1.318.159 1.404.124 1.514.09 1.67.053 1.925z"/><path fill="#0c6793" d="M-1000-1000h2000v2000h-2000z"/></g><path fill="none" stroke="#333" stroke-linecap="round" stroke-linejoin="round" stroke-width=".5" d="m40 26.667-.017 2.902-.054 1.926-.089 1.669-.124 1.515-.159 1.404-.194 1.317-.23 1.243-.265 1.177-.3 1.119L38.233 42l-.369 1.01-.404.96-.439.912-.473.862-.507.816-.542.77-.578.724-.612.677-.648.63-.682.585-.72.54-.759.492-.796.445-.839.4-.882.353-.932.307-.988.259-1.054.213-1.136.165-1.252.118-1.445.07-2.176.024-2.176-.024-1.445-.07-1.252-.118-1.136-.165-1.054-.213-.988-.259-.932-.307-.882-.353-.839-.4-.796-.445-.759-.492-.72-.54-.682-.584-.648-.631-.612-.677-.578-.724-.542-.77-.507-.816-.473-.862-.439-.912-.404-.96-.37-1.01-.334-1.062-.3-1.119-.265-1.177-.23-1.243-.194-1.317-.159-1.404-.124-1.515-.09-1.67-.053-1.925L0 26.667l.017-2.903.054-1.925.089-1.67.124-1.514.159-1.404.194-1.318.23-1.242.265-1.178.3-1.118.335-1.063.369-1.01.404-.96.439-.911.473-.863.507-.816.542-.77.578-.723.612-.678.648-.63.682-.584.72-.54.759-.492.796-.446.839-.4.882-.353.932-.307.988-.258 1.054-.214 1.136-.165 1.252-.117 1.445-.071L20 0l2.176.024 1.445.07 1.252.118 1.136.165 1.054.214.988.258.932.307.882.353.839.4.796.446.759.492.72.54.682.584.648.63.612.678.578.724.542.769.507.816.473.863.439.912.404.96.37 1.009.334 1.063.3 1.118.265 1.178.23 1.242.194 1.318.159 1.404.124 1.514.09 1.67.053 1.925z"/></svg>