<svg preserveAspectRatio="xMidYMin slice" viewBox="-4 -4 48 52" xmlns="http://www.w3.org/2000/svg"><defs><mask id="a"><path clip-rule="evenodd" d="M20 0s-3.798 5.057-8.99 4.395c0 0-1.907 4.16-11.01 2.662 0 0 5.679 14.032 1.517 28.574 0 0 6.432.558 9.449 6.422 0 0 5.126-1.262 9.034 1.947 3.908-3.209 9.034-1.947 9.034-1.947 3.017-5.864 9.449-6.422 9.449-6.422C34.32 21.089 40 7.057 40 7.057c-9.103 1.499-11.01-2.662-11.01-2.662C23.797 5.057 20 0 20 0z" fill-rule="evenodd" fill="#fff"/></mask></defs><g mask="url(#a)"><path d="M20 0s-3.798 5.057-8.99 4.395c0 0-1.907 4.16-11.01 2.662 0 0 5.679 14.032 1.517 28.574 0 0 6.432.558 9.449 6.422 0 0 5.126-1.262 9.034 1.947 3.908-3.209 9.034-1.947 9.034-1.947 3.017-5.864 9.449-6.422 9.449-6.422C34.32 21.089 40 7.057 40 7.057c-9.103 1.499-11.01-2.662-11.01-2.662C23.797 5.057 20 0 20 0z" fill-rule="evenodd" fill="#f0f0f0"/><path fill="#0c6793" style="cursor:pointer" d="M-1000-1000h2000v2000h-2000z"/></g><path d="M20 0s-3.798 5.057-8.99 4.395c0 0-1.907 4.16-11.01 2.662 0 0 5.679 14.032 1.517 28.574 0 0 6.432.558 9.449 6.422 0 0 5.126-1.262 9.034 1.947 3.908-3.209 9.034-1.947 9.034-1.947 3.017-5.864 9.449-6.422 9.449-6.422C34.32 21.089 40 7.057 40 7.057c-9.103 1.499-11.01-2.662-11.01-2.662C23.797 5.057 20 0 20 0z" fill="none" stroke-linecap="round" stroke-linejoin="round" stroke-width=".5" stroke="#333"/></svg>