<?xml version="1.0" encoding="UTF-8" standalone="no"?>
<svg xmlns="http://www.w3.org/2000/svg" preserveAspectRatio="xMidYMin slice" viewBox="-4 -4 48 56"><defs><mask id="a"><path fill="#fff" fill-rule="evenodd" d="M20 0c-3.374.031-7.267.392-11.738 1.137-2.499.37-5.032 1.07-6.98 2.693-.26.218-1.25 1.418-1.28 1.865-.034.473.548 1.642 1.1 2.209.87.894 1.954 4.951 2.138 6.397.399 3.137.956 8.022-1.424 9.623-1.294-.09-2.156 3.04-1.576 5.724.914 4.306 1.917 7.448 5.997 10.009.647.386 2.887 2.125 2.814 3.587-.046.924 1.098.657 1.611-.376.474-.955.49-.957 1.197-.095 2.395 2.92 5.099 3.336 5.924 3.676.784.323 1.704 1.2 1.869 1.399q.136.135.348.152a.54.54 0 0 0 .348-.152c.165-.2 1.085-1.076 1.869-1.399.825-.34 3.529-.755 5.924-3.676.707-.862.723-.86 1.197.095.513 1.033 1.657 1.3 1.611.376-.073-1.462 2.167-3.201 2.814-3.587 4.08-2.56 5.083-5.703 5.997-10.009.58-2.685-.282-5.815-1.576-5.724-2.38-1.601-1.823-6.486-1.424-9.623.184-1.446 1.268-5.503 2.139-6.397.551-.567 1.133-1.736 1.1-2.21-.032-.446-1.02-1.646-1.281-1.864-1.948-1.623-4.481-2.323-6.98-2.693C27.268.392 23.374.031 20 0" clip-rule="evenodd"/></mask></defs><g mask="url(#a)"><path fill="#f0f0f0" fill-rule="evenodd" d="M20 0c-3.374.031-7.267.392-11.738 1.137-2.499.37-5.032 1.07-6.98 2.693-.26.218-1.25 1.418-1.28 1.865-.034.473.548 1.642 1.1 2.209.87.894 1.954 4.951 2.138 6.397.399 3.137.956 8.022-1.424 9.623-1.294-.09-2.156 3.04-1.576 5.724.914 4.306 1.917 7.448 5.997 10.009.647.386 2.887 2.125 2.814 3.587-.046.924 1.098.657 1.611-.376.474-.955.49-.957 1.197-.095 2.395 2.92 5.099 3.336 5.924 3.676.784.323 1.704 1.2 1.869 1.399q.136.135.348.152a.54.54 0 0 0 .348-.152c.165-.2 1.085-1.076 1.869-1.399.825-.34 3.529-.755 5.924-3.676.707-.862.723-.86 1.197.095.513 1.033 1.657 1.3 1.611.376-.073-1.462 2.167-3.201 2.814-3.587 4.08-2.56 5.083-5.703 5.997-10.009.58-2.685-.282-5.815-1.576-5.724-2.38-1.601-1.823-6.486-1.424-9.623.184-1.446 1.268-5.503 2.139-6.397.551-.567 1.133-1.736 1.1-2.21-.032-.446-1.02-1.646-1.281-1.864-1.948-1.623-4.481-2.323-6.98-2.693C27.268.392 23.374.031 20 0"/><path fill="#0c6793" d="M-1000-1000h2000v2000h-2000z"/></g><path fill="none" stroke="#333" stroke-linecap="round" stroke-linejoin="round" stroke-width=".5" d="M20 0c-3.374.031-7.267.392-11.738 1.137-2.499.37-5.032 1.07-6.98 2.693-.26.218-1.25 1.418-1.28 1.865-.034.473.548 1.642 1.1 2.209.87.894 1.954 4.951 2.138 6.397.399 3.137.956 8.022-1.424 9.623-1.294-.09-2.156 3.04-1.576 5.724.914 4.306 1.917 7.448 5.997 10.009.647.386 2.887 2.125 2.814 3.587-.046.924 1.098.657 1.611-.376.474-.955.49-.957 1.197-.095 2.395 2.92 5.099 3.336 5.924 3.676.784.323 1.704 1.2 1.869 1.399q.136.135.348.152h0a.54.54 0 0 0 .348-.152c.165-.2 1.085-1.076 1.869-1.399.825-.34 3.529-.755 5.924-3.676.707-.862.723-.86 1.197.095.513 1.033 1.657 1.3 1.611.376-.073-1.462 2.167-3.201 2.814-3.587 4.08-2.56 5.083-5.703 5.997-10.009.58-2.685-.282-5.815-1.576-5.724-2.38-1.601-1.823-6.486-1.424-9.623.184-1.446 1.268-5.503 2.139-6.397.551-.567 1.133-1.736 1.1-2.21-.032-.446-1.02-1.646-1.281-1.864-1.948-1.623-4.481-2.323-6.98-2.693C27.268.392 23.374.031 20 0"/></svg>