<svg preserveAspectRatio="xMidYMin slice" viewBox="0 0 48 56" xmlns="http://www.w3.org/2000/svg"><g transform="translate(4 4)"><defs><mask id="a"><path clip-rule="evenodd" d="M0 0a20 20 0 0 0 20 0 20 20 0 0 0 20 0v28c0 11.046-8.954 20-20 20S0 39.046 0 28z" fill-rule="evenodd" fill="#fff"/></mask></defs><g mask="url(#a)"><path d="M0 0a20 20 0 0 0 20 0 20 20 0 0 0 20 0v28c0 11.046-8.954 20-20 20S0 39.046 0 28z" fill-rule="evenodd" fill="#f0f0f0"/><path fill="#0c6793" style="cursor:pointer" d="M-1000-1000h2000v2000h-2000z"/></g><path d="M0 0a20 20 0 0 0 20 0 20 20 0 0 0 20 0v28c0 11.046-8.954 20-20 20S0 39.046 0 28z" fill="none" stroke-linecap="round" stroke-linejoin="round" stroke-width=".5" stroke="#333"/></g></svg>