<?xml version="1.0" encoding="UTF-8" standalone="no"?>
<svg xmlns="http://www.w3.org/2000/svg" preserveAspectRatio="xMidYMin slice" viewBox="-4 -4 53.714 56.571"><defs><mask id="a"><path fill="#fff" fill-rule="evenodd" d="M22.857 0h22.857a2.857 2.857 0 0 0-2.857 2.857v40A2.857 2.857 0 0 1 40 45.714H25.714a2.857 2.857 0 0 0-2.857 2.857A2.857 2.857 0 0 0 20 45.714H5.714a2.857 2.857 0 0 1-2.857-2.857v-40A2.857 2.857 0 0 0 0 0z" clip-rule="evenodd"/></mask></defs><g mask="url(#a)"><path fill="#f0f0f0" fill-rule="evenodd" d="M22.857 0h22.857a2.857 2.857 0 0 0-2.857 2.857v40A2.857 2.857 0 0 1 40 45.714H25.714a2.857 2.857 0 0 0-2.857 2.857A2.857 2.857 0 0 0 20 45.714H5.714a2.857 2.857 0 0 1-2.857-2.857v-40A2.857 2.857 0 0 0 0 0z"/><path fill="#f2bc51" d="M-1000-1000h2000v2000h-2000z"/></g><path fill="none" stroke="#333" stroke-linecap="round" stroke-linejoin="round" stroke-width=".5" d="M22.857 0h22.857a2.857 2.857 0 0 0-2.857 2.857v40A2.857 2.857 0 0 1 40 45.714H25.714a2.857 2.857 0 0 0-2.857 2.857A2.857 2.857 0 0 0 20 45.714H5.714a2.857 2.857 0 0 1-2.857-2.857v-40A2.857 2.857 0 0 0 0 0z"/></svg>