<?xml version="1.0" encoding="UTF-8" standalone="no"?>
<svg xmlns="http://www.w3.org/2000/svg" viewBox="-4 -4 48 79.111" preserveAspectRatio="xMidYMin slice"><defs><mask id="a"><path d="M20 0S0 6.667 0 35.556C0 64.444 20 71.11 20 71.11s20-6.667 20-35.555C40 6.666 20 0 20 0z" clip-rule="evenodd" fill-rule="evenodd" fill="#fff"/></mask></defs><g mask="url(#a)"><path d="M20 0S0 6.667 0 35.556C0 64.444 20 71.11 20 71.11s20-6.667 20-35.555C40 6.666 20 0 20 0z" fill-rule="evenodd" fill="#f0f0f0"/><path fill="#f2bc51" d="M-1000-1000h2000v2000h-2000z"/></g><path d="M20 0S0 6.667 0 35.556C0 64.444 20 71.11 20 71.11s20-6.667 20-35.555C40 6.666 20 0 20 0z" stroke="#333" stroke-width=".5" fill="none" stroke-linecap="round" stroke-linejoin="round"/></svg>