<?xml version="1.0" encoding="UTF-8" standalone="no"?>
<svg xmlns="http://www.w3.org/2000/svg" preserveAspectRatio="xMidYMin slice" viewBox="-4 -4 48 72"><defs><mask id="a"><path fill="#fff" fill-rule="evenodd" d="M20 0a49.008 49.008 0 0 1 20 4.267A99.202 99.202 0 0 1 20 64 99.202 99.202 0 0 1 0 4.267 49.008 49.008 0 0 1 20 0z" clip-rule="evenodd"/></mask></defs><g mask="url(#a)"><path fill="#f0f0f0" fill-rule="evenodd" d="M20 0a49.008 49.008 0 0 1 20 4.267A99.202 99.202 0 0 1 20 64 99.202 99.202 0 0 1 0 4.267 49.008 49.008 0 0 1 20 0z"/><path fill="#f2bc51" d="M-1000-1000h2000v2000h-2000z"/></g><path fill="none" stroke="#333" stroke-linecap="round" stroke-linejoin="round" stroke-width=".5" d="M20 0a49.008 49.008 0 0 1 20 4.267A99.202 99.202 0 0 1 20 64 99.202 99.202 0 0 1 0 4.267 49.008 49.008 0 0 1 20 0z"/></svg>