<?xml version="1.0" encoding="UTF-8" standalone="no"?>
<svg xmlns="http://www.w3.org/2000/svg" preserveAspectRatio="xMidYMin slice" viewBox="-4 -4 48 68"><defs><mask id="a"><path fill="#fff" fill-rule="evenodd" d="M40 12s0 28-20 48C0 40 0 12 0 12 14 10 20 0 20 0s6 10 20 12" clip-rule="evenodd"/></mask></defs><g mask="url(#a)"><path fill="#f0f0f0" fill-rule="evenodd" d="M40 12s0 28-20 48C0 40 0 12 0 12 14 10 20 0 20 0s6 10 20 12"/><path fill="#f2bc51" d="M-1000-1000h2000v2000h-2000z"/></g><path fill="none" stroke="#333" stroke-linecap="round" stroke-linejoin="round" stroke-width=".5" d="M40 12s0 28-20 48C0 40 0 12 0 12 14 10 20 0 20 0s6 10 20 12"/></svg>