<svg preserveAspectRatio="xMidYMin slice" viewBox="0 0 120 145" xmlns="http://www.w3.org/2000/svg"><g transform="translate(10 10)"><defs><mask id="a"><path clip-rule="evenodd" d="M15 0 0 15s10 5 10 15C10 45 0 55 0 80c0 15 5 30 25 35 15 3 25 10 25 10s10-7 25-10c20-5 25-20 25-35 0-25-10-35-10-50 0-10 10-15 10-15L85 0s-5 5-15 5C55 5 50 0 50 0s-5 5-20 5C20 5 15 0 15 0z" fill-rule="evenodd" fill="#fff"/></mask></defs><g mask="url(#a)"><path d="M15 0 0 15s10 5 10 15C10 45 0 55 0 80c0 15 5 30 25 35 15 3 25 10 25 10s10-7 25-10c20-5 25-20 25-35 0-25-10-35-10-50 0-10 10-15 10-15L85 0s-5 5-15 5C55 5 50 0 50 0s-5 5-20 5C20 5 15 0 15 0z" fill-rule="evenodd" fill="#f0f0f0"/><path fill="#0c6793" style="cursor:pointer" d="M-1000-1000h2000v2000h-2000z"/></g><path d="M15 0 0 15s10 5 10 15C10 45 0 55 0 80c0 15 5 30 25 35 15 3 25 10 25 10s10-7 25-10c20-5 25-20 25-35 0-25-10-35-10-50 0-10 10-15 10-15L85 0s-5 5-15 5C55 5 50 0 50 0s-5 5-20 5C20 5 15 0 15 0z" fill="none" stroke-linecap="round" stroke-linejoin="round" stroke-width=".5" stroke="#333"/></g></svg>