<?xml version="1.0" encoding="UTF-8" standalone="no"?>
<svg xmlns="http://www.w3.org/2000/svg" preserveAspectRatio="xMidYMin slice" viewBox="-4 -4 52.444 63.556"><defs><mask id="a"><path fill="#fff" fill-rule="evenodd" d="M22.222 2.222c13.334 0 20-2.222 20-2.222s2.222 4.444 2.222 17.778c0 13.333-8.888 28.889-22.222 37.778C8.89 46.666 0 31.11 0 17.778 0 4.444 2.222 0 2.222 0s6.667 2.222 20 2.222z" clip-rule="evenodd"/></mask></defs><g mask="url(#a)"><path fill="#f0f0f0" fill-rule="evenodd" d="M22.222 2.222c13.334 0 20-2.222 20-2.222s2.222 4.444 2.222 17.778c0 13.333-8.888 28.889-22.222 37.778C8.89 46.666 0 31.11 0 17.778 0 4.444 2.222 0 2.222 0s6.667 2.222 20 2.222z"/><path fill="#f2bc51" d="M-1000-1000h2000v2000h-2000z"/></g><path fill="none" stroke="#333" stroke-linecap="round" stroke-linejoin="round" stroke-width=".5" d="M22.222 2.222c13.334 0 20-2.222 20-2.222s2.222 4.444 2.222 17.778c0 13.333-8.888 28.889-22.222 37.778C8.89 46.666 0 31.11 0 17.778 0 4.444 2.222 0 2.222 0s6.667 2.222 20 2.222z"/></svg>