<?xml version="1.0" encoding="UTF-8" standalone="no"?>
<svg xmlns="http://www.w3.org/2000/svg" preserveAspectRatio="xMidYMin slice" viewBox="-4 -4 48 68"><defs><mask id="a"><path fill="#fff" fill-rule="evenodd" d="M20 0c-6 0-10 4-10 4C6 8 0 8 0 8c0 22 2 25.6 4 28s6 8 6 12c0 12 10 12 10 12s10 0 10-12c0-4 4-9.6 6-12s4-6 4-28c0 0-6 0-10-4 0 0-4-4-10-4" clip-rule="evenodd"/></mask></defs><g mask="url(#a)"><path fill="#f0f0f0" fill-rule="evenodd" d="M20 0c-6 0-10 4-10 4C6 8 0 8 0 8c0 22 2 25.6 4 28s6 8 6 12c0 12 10 12 10 12s10 0 10-12c0-4 4-9.6 6-12s4-6 4-28c0 0-6 0-10-4 0 0-4-4-10-4"/><path fill="#f2bc51" d="M-1000-1000h2000v2000h-2000z"/></g><path fill="none" stroke="#333" stroke-linecap="round" stroke-linejoin="round" stroke-width=".5" d="M20 0c-6 0-10 4-10 4C6 8 0 8 0 8c0 22 2 25.6 4 28s6 8 6 12c0 12 10 12 10 12s10 0 10-12c0-4 4-9.6 6-12s4-6 4-28c0 0-6 0-10-4 0 0-4-4-10-4"/></svg>