<?xml version="1.0" encoding="UTF-8" standalone="no"?>
<svg xmlns="http://www.w3.org/2000/svg" viewBox="-4 -4 48 72" preserveAspectRatio="xMidYMin slice"><defs><mask id="a"><path d="M20 0c-6 0-10 4-10 4C6 8 0 8 0 8c0 24 6 28 6 28s6 6 6 14c0 14 8 14 8 14s8 0 8-14c0-8 6-14 6-14s6-4 6-28c0 0-6 0-10-4 0 0-4-4-10-4z" clip-rule="evenodd" fill-rule="evenodd" fill="#fff"/></mask></defs><g mask="url(#a)"><path d="M20 0c-6 0-10 4-10 4C6 8 0 8 0 8c0 24 6 28 6 28s6 6 6 14c0 14 8 14 8 14s8 0 8-14c0-8 6-14 6-14s6-4 6-28c0 0-6 0-10-4 0 0-4-4-10-4z" fill-rule="evenodd" fill="#f0f0f0"/><path fill="#0c6793" style="cursor:pointer" d="M-1000-1000h2000v2000h-2000z"/></g><path d="M20 0c-6 0-10 4-10 4C6 8 0 8 0 8c0 24 6 28 6 28s6 6 6 14c0 14 8 14 8 14s8 0 8-14c0-8 6-14 6-14s6-4 6-28c0 0-6 0-10-4 0 0-4-4-10-4z" stroke="#333" stroke-width=".5" fill="none" stroke-linecap="round" stroke-linejoin="round"/></svg>