<?xml version="1.0" encoding="UTF-8" standalone="no"?>
<svg xmlns="http://www.w3.org/2000/svg" preserveAspectRatio="xMidYMin slice" viewBox="-4 -4 48 60"><defs><mask id="a"><path fill="#fff" fill-rule="evenodd" d="M20 0c10.71-.014 19.528 11.448 20 26-.472 14.552-9.29 26.014-20 26C9.29 52.014.473 40.552 0 26 .473 11.448 9.29-.014 20 0" clip-rule="evenodd"/></mask></defs><g mask="url(#a)"><path fill="#f0f0f0" fill-rule="evenodd" d="M20 0c10.71-.014 19.528 11.448 20 26-.472 14.552-9.29 26.014-20 26C9.29 52.014.473 40.552 0 26 .473 11.448 9.29-.014 20 0"/><path fill="#0c6793" d="M-1000-1000h2000v2000h-2000z"/></g><path fill="none" stroke="#333" stroke-linecap="round" stroke-linejoin="round" stroke-width=".5" d="M20 0c10.71-.014 19.528 11.448 20 26-.472 14.552-9.29 26.014-20 26C9.29 52.014.473 40.552 0 26 .473 11.448 9.29-.014 20 0"/></svg>