<svg preserveAspectRatio="xMidYMin slice" viewBox="-4 -4 48 88" xmlns="http://www.w3.org/2000/svg"><defs><mask id="a"><path clip-rule="evenodd" d="M20 0a20 20 0 0 1 19.6 23.98A200 200 0 0 1 20 80 200 200 0 0 1 .4 23.98 20 20 0 0 1 20 0z" fill-rule="evenodd" fill="#fff"/></mask></defs><g mask="url(#a)"><path d="M20 0a20 20 0 0 1 19.6 23.98A200 200 0 0 1 20 80 200 200 0 0 1 .4 23.98 20 20 0 0 1 20 0z" fill-rule="evenodd" fill="#f0f0f0"/><path fill="#0c6793" style="cursor:pointer" d="M-1000-1000h2000v2000h-2000z"/></g><path d="M20 0a20 20 0 0 1 19.6 23.98A200 200 0 0 1 20 80 200 200 0 0 1 .4 23.98 20 20 0 0 1 20 0z" fill="none" stroke-linecap="round" stroke-linejoin="round" stroke-width=".5" stroke="#333"/></svg>