<svg preserveAspectRatio="xMidYMin slice" viewBox="0 0 120 145" xmlns="http://www.w3.org/2000/svg"><g transform="translate(10 10)"><defs><mask id="a"><path clip-rule="evenodd" d="M50 0c30 0 50 5 50 5l.219 34c0 35.727-19.279 68.137-50.219 86C19.06 107.137 0 74.727 0 39V5s20-5 50-5z" fill-rule="evenodd" fill="#fff"/></mask></defs><g mask="url(#a)"><path d="M50 0c30 0 50 5 50 5l.219 34c0 35.727-19.279 68.137-50.219 86C19.06 107.137 0 74.727 0 39V5s20-5 50-5z" fill-rule="evenodd" fill="#f0f0f0"/><path fill="#f2bc51" style="cursor:pointer" d="M-1000-1000h2000v2000h-2000z"/></g><path d="M50 0c30 0 50 5 50 5l.219 34c0 35.727-19.279 68.137-50.219 86C19.06 107.137 0 74.727 0 39V5s20-5 50-5z" fill="none" stroke-linecap="round" stroke-linejoin="round" stroke-width=".5" stroke="#333"/></g></svg>