<svg preserveAspectRatio="xMidYMin slice" viewBox="-4 -4 48 62" xmlns="http://www.w3.org/2000/svg"><defs><mask id="a"><path clip-rule="evenodd" d="M20 0c4 0 8 0 16 2 2 12 4 20 4 28 0 12-10 18-20 24C10 48 0 42 0 30c-.06-7.3 2-16 4-28 8-2 12-2 16-2z" fill-rule="evenodd" fill="#fff"/></mask></defs><g mask="url(#a)"><path d="M20 0c4 0 8 0 16 2 2 12 4 20 4 28 0 12-10 18-20 24C10 48 0 42 0 30c-.06-7.3 2-16 4-28 8-2 12-2 16-2z" fill-rule="evenodd" fill="#f0f0f0"/><path fill="#f2bc51" style="cursor:pointer" d="M-1000-1000h2000v2000h-2000z"/></g><path d="M20 0c4 0 8 0 16 2 2 12 4 20 4 28 0 12-10 18-20 24C10 48 0 42 0 30c-.06-7.3 2-16 4-28 8-2 12-2 16-2z" fill="none" stroke-linecap="round" stroke-linejoin="round" stroke-width=".5" stroke="#333"/></svg>