<?xml version="1.0" encoding="UTF-8" standalone="no"?>
<svg xmlns="http://www.w3.org/2000/svg" preserveAspectRatio="xMidYMin slice" viewBox="-4 -4 48 49.309"><defs><mask id="a"><path fill="#fff" fill-rule="evenodd" d="M.022 0v23.403c0 2.937-.639 10.517 4.951 13.643 3.6 1.99 10.574 1.516 15.027 4.263 4.453-2.747 11.426-2.273 15.027-4.263 5.59-3.126 4.95-10.706 4.95-13.643V0H18.105z" clip-rule="evenodd"/></mask></defs><g mask="url(#a)"><path fill="#f0f0f0" fill-rule="evenodd" d="M.022 0v23.403c0 2.937-.639 10.517 4.951 13.643 3.6 1.99 10.574 1.516 15.027 4.263 4.453-2.747 11.426-2.273 15.027-4.263 5.59-3.126 4.95-10.706 4.95-13.643V0H18.105z"/><path fill="#0c6793" d="M-1000-1000h2000v2000h-2000z"/></g><path fill="none" stroke="#333" stroke-linecap="round" stroke-linejoin="round" stroke-width=".5" d="M.022 0v23.403c0 2.937-.639 10.517 4.951 13.643 3.6 1.99 10.574 1.516 15.027 4.263 4.453-2.747 11.426-2.273 15.027-4.263 5.59-3.126 4.95-10.706 4.95-13.643V0H18.105z"/></svg>