<svg preserveAspectRatio="xMidYMin slice" viewBox="0 0 120 158.279" xmlns="http://www.w3.org/2000/svg"><g transform="translate(10 10)"><defs><mask id="a"><path clip-rule="evenodd" d="M0 0c-.051 33.464.2 86.589.096 100-.104 13.84 8.933 24.425 22.1 24.824 13.168.398 20.799 1.74 27.804 13.024 7.005-11.285 14.635-12.626 27.803-13.024 13.168-.398 22.205-10.984 22.101-24.824-.097-13.41.096-66.536.096-100z" fill-rule="evenodd" fill="#fff"/></mask></defs><g mask="url(#a)"><path d="M0 0c-.051 33.464.2 86.589.096 100-.104 13.84 8.933 24.425 22.1 24.824 13.168.398 20.799 1.74 27.804 13.024 7.005-11.285 14.635-12.626 27.803-13.024 13.168-.398 22.205-10.984 22.101-24.824-.097-13.41.096-66.536.096-100z" fill-rule="evenodd" fill="#f0f0f0"/><path fill="#f2bc51" style="cursor:pointer" d="M-1000-1000h2000v2000h-2000z"/></g><path d="M0 0c-.051 33.464.2 86.589.096 100-.104 13.84 8.933 24.425 22.1 24.824 13.168.398 20.799 1.74 27.804 13.024 7.005-11.285 14.635-12.626 27.803-13.024 13.168-.398 22.205-10.984 22.101-24.824-.097-13.41.096-66.536.096-100z" fill="none" stroke-linecap="round" stroke-linejoin="round" stroke-width=".5" stroke="#333"/></g></svg>