<?xml version="1.0" encoding="UTF-8" standalone="no"?>
<svg xmlns="http://www.w3.org/2000/svg" preserveAspectRatio="xMidYMin slice" viewBox="-4 -4 48 58"><defs><mask id="a"><path fill="#fff" fill-rule="evenodd" d="M20 50C8 46 0 30 0 20 0 6 6 0 20 0s20 6 20 20c0 10-8 26-20 30" clip-rule="evenodd"/></mask></defs><g mask="url(#a)"><path fill="#f0f0f0" fill-rule="evenodd" d="M20 50C8 46 0 30 0 20 0 6 6 0 20 0s20 6 20 20c0 10-8 26-20 30"/><path fill="#0c6793" d="M-1000-1000h2000v2000h-2000z"/></g><path fill="none" stroke="#333" stroke-linecap="round" stroke-linejoin="round" stroke-width=".5" d="M20 50C8 46 0 30 0 20 0 6 6 0 20 0s20 6 20 20c0 10-8 26-20 30"/></svg>