<svg preserveAspectRatio="xMidYMin slice" viewBox="-4 -4 48 58" xmlns="http://www.w3.org/2000/svg"><defs><mask id="a"><path clip-rule="evenodd" d="M0 8c2.8-2 8-2 8 2.8C8 16 2.8 16 0 14c0 0 2.8 3.6 2 6-.8 2-2 6-2 12 0 16 16 16 20 16s20 0 20-16c0-6-1.2-10-2-12-1.6-4-2-6-2-8 0-.8 0-8.8 4-12-12 0-18 2-24 4-4-2-6-2.4-10-2-6 .8-6 4.8-6 6z" fill-rule="evenodd" fill="#fff"/></mask></defs><g mask="url(#a)"><path d="M0 8c2.8-2 8-2 8 2.8C8 16 2.8 16 0 14c0 0 2.8 3.6 2 6-.8 2-2 6-2 12 0 16 16 16 20 16s20 0 20-16c0-6-1.2-10-2-12-1.6-4-2-6-2-8 0-.8 0-8.8 4-12-12 0-18 2-24 4-4-2-6-2.4-10-2-6 .8-6 4.8-6 6z" fill-rule="evenodd" fill="#f0f0f0"/><path fill="#f2bc51" style="cursor:pointer" d="M-1000-1000h2000v2000h-2000z"/></g><path d="M0 8c2.8-2 8-2 8 2.8C8 16 2.8 16 0 14c0 0 2.8 3.6 2 6-.8 2-2 6-2 12 0 16 16 16 20 16s20 0 20-16c0-6-1.2-10-2-12-1.6-4-2-6-2-8 0-.8 0-8.8 4-12-12 0-18 2-24 4-4-2-6-2.4-10-2-6 .8-6 4.8-6 6z" fill="none" stroke-linecap="round" stroke-linejoin="round" stroke-width=".5" stroke="#333"/></svg>