<?xml version="1.0" encoding="UTF-8" standalone="no"?>
<svg xmlns="http://www.w3.org/2000/svg" preserveAspectRatio="xMidYMin slice" viewBox="-4 -4 48 72"><defs><mask id="a"><path fill="#fff" fill-rule="evenodd" d="M8.8 0C8 0 7.6.4 7.2 2L.4 30C0 31.6.01 31.606 0 32c0 .4 0 .4.4 2l6.8 28c.4 1.6.8 2 1.6 2h22.4c.8 0 1.2-.4 1.6-2l6.8-28c.4-1.6.4-1.6.4-2s0-.4-.4-2L32.8 2c-.4-1.6-.8-2-1.6-2z" clip-rule="evenodd"/></mask></defs><g mask="url(#a)"><path fill="#f0f0f0" fill-rule="evenodd" d="M8.8 0C8 0 7.6.4 7.2 2L.4 30C0 31.6.01 31.606 0 32c0 .4 0 .4.4 2l6.8 28c.4 1.6.8 2 1.6 2h22.4c.8 0 1.2-.4 1.6-2l6.8-28c.4-1.6.4-1.6.4-2s0-.4-.4-2L32.8 2c-.4-1.6-.8-2-1.6-2z"/><path fill="#f2bc51" d="M-1000-1000h2000v2000h-2000z"/></g><path fill="none" stroke="#333" stroke-linecap="round" stroke-linejoin="round" stroke-width=".5" d="M8.8 0C8 0 7.6.4 7.2 2L.4 30C0 31.6.01 31.606 0 32c0 .4 0 .4.4 2l6.8 28c.4 1.6.8 2 1.6 2h22.4c.8 0 1.2-.4 1.6-2l6.8-28c.4-1.6.4-1.6.4-2s0-.4-.4-2L32.8 2c-.4-1.6-.8-2-1.6-2z"/></svg>