<?xml version="1.0" encoding="UTF-8" standalone="no"?>
<svg xmlns="http://www.w3.org/2000/svg" viewBox="-4 -4 48 60" preserveAspectRatio="xMidYMin slice"><defs><mask id="a"><path d="M17.36 0c-3.464 0-5.625 2.929-11.013 3.752.004 3.175-1.329 6.298-3.106 8.356 0 0 3.462 1.614 3.462 5.186 0 5.395-5.736 5.404-5.736 5.404S0 24.683 0 28.702c0 9.198 6.29 16.15 11.065 18.295 4.775 2.144 7.524 3.055 8.944 5.003 1.42-1.948 4.15-2.86 8.926-5.003C33.711 44.853 40 37.9 40 28.702c0-4.02-.967-6.004-.967-6.004s-5.736-.01-5.736-5.404c0-3.572 3.462-5.186 3.462-5.186-1.778-2.059-3.11-5.18-3.106-8.356C28.264 2.93 26.103 0 22.639 0c-1.976 0-2.63 1-2.63 1s-.672-1-2.648-1z" clip-rule="evenodd" fill-rule="evenodd" fill="#fff"/></mask></defs><g mask="url(#a)"><path d="M17.36 0c-3.464 0-5.625 2.929-11.013 3.752.004 3.175-1.329 6.298-3.106 8.356 0 0 3.462 1.614 3.462 5.186 0 5.395-5.736 5.404-5.736 5.404S0 24.683 0 28.702c0 9.198 6.29 16.15 11.065 18.295 4.775 2.144 7.524 3.055 8.944 5.003 1.42-1.948 4.15-2.86 8.926-5.003C33.711 44.853 40 37.9 40 28.702c0-4.02-.967-6.004-.967-6.004s-5.736-.01-5.736-5.404c0-3.572 3.462-5.186 3.462-5.186-1.778-2.059-3.11-5.18-3.106-8.356C28.264 2.93 26.103 0 22.639 0c-1.976 0-2.63 1-2.63 1s-.672-1-2.648-1z" fill-rule="evenodd" fill="#f0f0f0"/><path fill="#f2bc51" style="cursor:pointer" d="M-1000-1000h2000v2000h-2000z"/></g><path d="M17.36 0c-3.464 0-5.625 2.929-11.013 3.752.004 3.175-1.329 6.298-3.106 8.356 0 0 3.462 1.614 3.462 5.186 0 5.395-5.736 5.404-5.736 5.404S0 24.683 0 28.702c0 9.198 6.29 16.15 11.065 18.295 4.775 2.144 7.524 3.055 8.944 5.003 1.42-1.948 4.15-2.86 8.926-5.003C33.711 44.853 40 37.9 40 28.702c0-4.02-.967-6.004-.967-6.004s-5.736-.01-5.736-5.404c0-3.572 3.462-5.186 3.462-5.186-1.778-2.059-3.11-5.18-3.106-8.356C28.264 2.93 26.103 0 22.639 0c-1.976 0-2.63 1-2.63 1s-.672-1-2.648-1z" stroke="#333" stroke-width=".5" fill="none" stroke-linecap="round" stroke-linejoin="round"/></svg>