<?xml version="1.0" encoding="UTF-8" standalone="no"?>
<svg xmlns="http://www.w3.org/2000/svg" preserveAspectRatio="xMidYMin slice" viewBox="-4 -4 48 64"><defs><mask id="a"><path fill="#fff" fill-rule="evenodd" d="M25.2 53.2C25.2 37.2 32 28 40 24 38 4 28 2 20 0 12 2 2 4 0 24c8 4 14.8 13.2 14.8 29.2L20 56z" clip-rule="evenodd"/></mask></defs><g mask="url(#a)"><path fill="#f0f0f0" fill-rule="evenodd" d="M25.2 53.2C25.2 37.2 32 28 40 24 38 4 28 2 20 0 12 2 2 4 0 24c8 4 14.8 13.2 14.8 29.2L20 56z"/><path fill="#f2bc51" d="M-1000-1000h2000v2000h-2000z"/></g><path fill="none" stroke="#333" stroke-linecap="round" stroke-linejoin="round" stroke-width=".5" d="M25.2 53.2C25.2 37.2 32 28 40 24 38 4 28 2 20 0 12 2 2 4 0 24c8 4 14.8 13.2 14.8 29.2L20 56z"/></svg>