<?xml version="1.0" encoding="UTF-8" standalone="no"?>
<svg xmlns="http://www.w3.org/2000/svg" preserveAspectRatio="xMidYMin slice" viewBox="-4 -4 48 56"><defs><mask id="a"><path fill="#fff" fill-rule="evenodd" d="M20.004 0C9.979.004 1.469 8.721.002 20.488a2.6 2.6 0 0 1 1.12-.295c1.693 0 3.066 1.701 3.066 3.8 0 2.1-1.373 3.801-3.066 3.801A2.6 2.6 0 0 1 0 27.498C1.462 39.27 9.974 47.995 20.004 48c10.004-.006 18.501-8.686 19.992-20.423-.321.14-.66.214-1 .217-1.693 0-3.066-1.702-3.066-3.8 0-2.1 1.373-3.801 3.066-3.801.342 0 .681.07 1.004.21C38.501 8.672 30.003.001 20.004 0" clip-rule="evenodd"/></mask></defs><g mask="url(#a)"><path fill="#f0f0f0" fill-rule="evenodd" d="M20.004 0C9.979.004 1.469 8.721.002 20.488a2.6 2.6 0 0 1 1.12-.295c1.693 0 3.066 1.701 3.066 3.8 0 2.1-1.373 3.801-3.066 3.801A2.6 2.6 0 0 1 0 27.498C1.462 39.27 9.974 47.995 20.004 48c10.004-.006 18.501-8.686 19.992-20.423-.321.14-.66.214-1 .217-1.693 0-3.066-1.702-3.066-3.8 0-2.1 1.373-3.801 3.066-3.801.342 0 .681.07 1.004.21C38.501 8.672 30.003.001 20.004 0"/><path fill="#0c6793" d="M-1000-1000h2000v2000h-2000z"/></g><path fill="none" stroke="#333" stroke-linecap="round" stroke-linejoin="round" stroke-width=".5" d="M20.004 0C9.979.004 1.469 8.721.002 20.488a2.6 2.6 0 0 1 1.12-.295c1.693 0 3.066 1.701 3.066 3.8 0 2.1-1.373 3.801-3.066 3.801A2.6 2.6 0 0 1 0 27.498C1.462 39.27 9.974 47.995 20.004 48c10.004-.006 18.501-8.686 19.992-20.423-.321.14-.66.214-1 .217-1.693 0-3.066-1.702-3.066-3.8 0-2.1 1.373-3.801 3.066-3.801.342 0 .681.07 1.004.21C38.501 8.672 30.003.001 20.004 0"/></svg>