<svg preserveAspectRatio="xMidYMin slice" viewBox="0 0 120 140" xmlns="http://www.w3.org/2000/svg"><g transform="translate(10 10)"><defs><mask id="a"><path clip-rule="evenodd" d="M9.592 0 0 9.932C13.916 26.565 6.438 51.856 6.055 76.19 5.72 97.33 24.558 120 50.136 120c25.579 0 44.415-22.67 44.082-43.81-.384-24.334-7.862-49.625 6.054-66.258L90.68 0c-9.362 12.17-25.53 3.81-40.544 3.81-15.013 0-31.182 8.36-40.544-3.81z" fill-rule="evenodd" fill="#fff"/></mask></defs><g mask="url(#a)"><path d="M9.592 0 0 9.932C13.916 26.565 6.438 51.856 6.055 76.19 5.72 97.33 24.558 120 50.136 120c25.579 0 44.415-22.67 44.082-43.81-.384-24.334-7.862-49.625 6.054-66.258L90.68 0c-9.362 12.17-25.53 3.81-40.544 3.81-15.013 0-31.182 8.36-40.544-3.81z" fill-rule="evenodd" fill="#f0f0f0"/><path fill="#f2bc51" style="cursor:pointer" d="M-1000-1000h2000v2000h-2000z"/></g><path d="M9.592 0 0 9.932C13.916 26.565 6.438 51.856 6.055 76.19 5.72 97.33 24.558 120 50.136 120c25.579 0 44.415-22.67 44.082-43.81-.384-24.334-7.862-49.625 6.054-66.258L90.68 0c-9.362 12.17-25.53 3.81-40.544 3.81-15.013 0-31.182 8.36-40.544-3.81z" fill="none" stroke-linecap="round" stroke-linejoin="round" stroke-width=".5" stroke="#333"/></g></svg>