<?xml version="1.0" encoding="UTF-8" standalone="no"?>
<svg xmlns="http://www.w3.org/2000/svg" viewBox="-4 -4 48 87.999" preserveAspectRatio="xMidYMin slice"><defs><mask id="a"><path d="M20 0a20 20 0 0 1 19.6 23.98A199.998 199.998 0 0 1 20 80 199.998 199.998 0 0 1 .4 23.98 20 20 0 0 1 20 0z" clip-rule="evenodd" fill-rule="evenodd" fill="#fff"/></mask></defs><g mask="url(#a)"><path d="M20 0a20 20 0 0 1 19.6 23.98A199.998 199.998 0 0 1 20 80 199.998 199.998 0 0 1 .4 23.98 20 20 0 0 1 20 0z" fill-rule="evenodd" fill="#f0f0f0"/><path fill="#0c6793" style="cursor:pointer" d="M-1000-1000h2000v2000h-2000z"/></g><path d="M20 0a20 20 0 0 1 19.6 23.98A199.998 199.998 0 0 1 20 80 199.998 199.998 0 0 1 .4 23.98 20 20 0 0 1 20 0z" stroke="#333" stroke-width=".5" fill="none" stroke-linecap="round" stroke-linejoin="round"/></svg>