<?xml version="1.0" encoding="UTF-8" standalone="no"?>
<svg xmlns="http://www.w3.org/2000/svg" preserveAspectRatio="xMidYMin slice" viewBox="-4 -4 48 58"><defs><mask id="a"><path fill="#fff" fill-rule="evenodd" d="M0 0v28c0 4 .15 11.6 10 16 8 4 10 6 10 6s2-2 10-6c10-4 10-12 10-16V0z" clip-rule="evenodd"/></mask></defs><g mask="url(#a)"><path fill="#f0f0f0" fill-rule="evenodd" d="M0 0v28c0 4 .15 11.6 10 16 8 4 10 6 10 6s2-2 10-6c10-4 10-12 10-16V0z"/><path fill="#0c6793" d="M-1000-1000h2000v2000h-2000z"/></g><path fill="none" stroke="#333" stroke-linecap="round" stroke-linejoin="round" stroke-width=".5" d="M0 0v28c0 4 .15 11.6 10 16 8 4 10 6 10 6s2-2 10-6c10-4 10-12 10-16V0z"/></svg>