<svg preserveAspectRatio="xMidYMin slice" viewBox="0 0 120 180" xmlns="http://www.w3.org/2000/svg"><g filter="url(#a)" transform="translate(10 10)"><defs><filter height="200%" id="a" width="200%" x="-20%" y="-20%"><feOffset dx=".2" dy=".2" in="SourceAlpha" result="offsetOut"/><feGaussianBlur in="offsetOut" result="blurOut"/><feBlend in2="blurOut" in="SourceGraphic"/></filter></defs><defs><clipPath id="b"><path clip-rule="evenodd" d="M50 0a122.52 122.52 0 0 1 50 10.667A248.004 248.004 0 0 1 50 160 248.004 248.004 0 0 1 0 10.667 122.52 122.52 0 0 1 50 0z" fill-rule="evenodd" fill="#fff"/></clipPath></defs><g clip-path="url(#b)"><path d="M50 0a122.52 122.52 0 0 1 50 10.667A248.004 248.004 0 0 1 50 160 248.004 248.004 0 0 1 0 10.667 122.52 122.52 0 0 1 50 0z" fill-rule="evenodd" fill="#f0f0f0"/><g style="pointer-events:visiblePainted;cursor:pointer"><path fill="#f2bc51" style="cursor:pointer" d="M-500-500H600V600H-500z"/></g></g><path d="M50 0a122.52 122.52 0 0 1 50 10.667A248.004 248.004 0 0 1 50 160 248.004 248.004 0 0 1 0 10.667 122.52 122.52 0 0 1 50 0z" fill="none" stroke-linecap="round" stroke-linejoin="round" stroke-width=".5" stroke="#333"/></g></svg>