<?xml version="1.0" encoding="UTF-8" standalone="no"?>
<svg xmlns="http://www.w3.org/2000/svg" viewBox="-4 -4 48 56" preserveAspectRatio="xMidYMin slice"><defs><mask id="a"><path d="M3.826 0 0 3.973c5.551 6.653 2.568 16.77 2.415 26.503C2.282 38.932 9.796 48 20 48s17.718-9.068 17.585-17.524c-.153-9.734-3.136-19.85 2.415-26.503L36.174 0C32.439 4.868 25.989 1.524 20 1.524 14.01 1.524 7.561 4.868 3.826 0z" clip-rule="evenodd" fill-rule="evenodd" fill="#fff"/></mask></defs><g mask="url(#a)"><path d="M3.826 0 0 3.973c5.551 6.653 2.568 16.77 2.415 26.503C2.282 38.932 9.796 48 20 48s17.718-9.068 17.585-17.524c-.153-9.734-3.136-19.85 2.415-26.503L36.174 0C32.439 4.868 25.989 1.524 20 1.524 14.01 1.524 7.561 4.868 3.826 0z" fill-rule="evenodd" fill="#f0f0f0"/><path fill="#0c6793" style="cursor:pointer" d="M-1000-1000h2000v2000h-2000z"/></g><path d="M3.826 0 0 3.973c5.551 6.653 2.568 16.77 2.415 26.503C2.282 38.932 9.796 48 20 48s17.718-9.068 17.585-17.524c-.153-9.734-3.136-19.85 2.415-26.503L36.174 0C32.439 4.868 25.989 1.524 20 1.524 14.01 1.524 7.561 4.868 3.826 0z" stroke="#333" stroke-width=".5" fill="none" stroke-linecap="round" stroke-linejoin="round"/></svg>