<?xml version="1.0" encoding="UTF-8" standalone="no"?>
<svg xmlns="http://www.w3.org/2000/svg" preserveAspectRatio="xMidYMin slice" viewBox="-4 -4 48 68"><defs><mask id="a"><path fill="#fff" fill-rule="evenodd" d="M8 60c-6-2-8-30-8-40C0 6 6 0 20 0s20 6 20 20c0 10-2 38-8 40z" clip-rule="evenodd"/></mask></defs><g mask="url(#a)"><path fill="#f0f0f0" fill-rule="evenodd" d="M8 60c-6-2-8-30-8-40C0 6 6 0 20 0s20 6 20 20c0 10-2 38-8 40z"/><path fill="#f2bc51" d="M-1000-1000h2000v2000h-2000z"/></g><path fill="none" stroke="#333" stroke-linecap="round" stroke-linejoin="round" stroke-width=".5" d="M8 60c-6-2-8-30-8-40C0 6 6 0 20 0s20 6 20 20c0 10-2 38-8 40z"/></svg>