<svg preserveAspectRatio="xMidYMin slice" viewBox="0 0 120 134.286" xmlns="http://www.w3.org/2000/svg"><g transform="translate(10 10)"><defs><mask id="a"><path clip-rule="evenodd" d="M50 0h50v107.143a7.143 7.143 0 0 1-7.143 7.143H57.143A7.143 7.143 0 0 0 50 121.429a7.143 7.143 0 0 0-7.143-7.143H7.143A7.143 7.143 0 0 1 0 107.143V0z" fill-rule="evenodd" fill="#fff"/></mask></defs><g mask="url(#a)"><path d="M50 0h50v107.143a7.143 7.143 0 0 1-7.143 7.143H57.143A7.143 7.143 0 0 0 50 121.429a7.143 7.143 0 0 0-7.143-7.143H7.143A7.143 7.143 0 0 1 0 107.143V0z" fill-rule="evenodd" fill="#f0f0f0"/><path fill="#0c6793" style="cursor:pointer" d="M-1000-1000h2000v2000h-2000z"/></g><path d="M50 0h50v107.143a7.143 7.143 0 0 1-7.143 7.143H57.143A7.143 7.143 0 0 0 50 121.429a7.143 7.143 0 0 0-7.143-7.143H7.143A7.143 7.143 0 0 1 0 107.143V0z" fill="none" stroke-linecap="round" stroke-linejoin="round" stroke-width=".5" stroke="#333"/></g></svg>