<svg preserveAspectRatio="xMidYMin slice" viewBox="0 0 120 150" xmlns="http://www.w3.org/2000/svg"><g transform="translate(10 10)"><defs><mask id="a"><path clip-rule="evenodd" d="M50 0c26.775-.035 48.819 28.621 50 65-1.181 36.379-23.225 65.035-50 65-26.775.035-48.819-28.621-50-65C1.181 28.621 23.225-.035 50 0z" fill-rule="evenodd" fill="#fff"/></mask></defs><g mask="url(#a)"><path d="M50 0c26.775-.035 48.819 28.621 50 65-1.181 36.379-23.225 65.035-50 65-26.775.035-48.819-28.621-50-65C1.181 28.621 23.225-.035 50 0z" fill-rule="evenodd" fill="#f0f0f0"/><path fill="#f2bc51" style="cursor:pointer" d="M-1000-1000h2000v2000h-2000z"/></g><path d="M50 0c26.775-.035 48.819 28.621 50 65-1.181 36.379-23.225 65.035-50 65-26.775.035-48.819-28.621-50-65C1.181 28.621 23.225-.035 50 0z" fill="none" stroke-linecap="round" stroke-linejoin="round" stroke-width=".5" stroke="#333"/></g></svg>