<svg preserveAspectRatio="xMidYMin slice" viewBox="0 0 120 145" xmlns="http://www.w3.org/2000/svg"><g transform="translate(10 10)"><defs><mask id="a"><path clip-rule="evenodd" d="M0 20c7-5 20-5 20 7 0 13-13 13-20 8 0 0 7 9 5 15-2 5-5 15-5 30 0 40 40 40 50 40s50 0 50-40c0-15-3-25-5-30-4-10-5-15-5-20 0-2 0-22 10-30-30 0-45 5-60 10-10-5-15-6-25-5C0 7 0 17 0 20z" fill-rule="evenodd" fill="#fff"/></mask></defs><g mask="url(#a)"><path d="M0 20c7-5 20-5 20 7 0 13-13 13-20 8 0 0 7 9 5 15-2 5-5 15-5 30 0 40 40 40 50 40s50 0 50-40c0-15-3-25-5-30-4-10-5-15-5-20 0-2 0-22 10-30-30 0-45 5-60 10-10-5-15-6-25-5C0 7 0 17 0 20z" fill-rule="evenodd" fill="#f0f0f0"/><path fill="#0c6793" style="cursor:pointer" d="M-1000-1000h2000v2000h-2000z"/></g><path d="M0 20c7-5 20-5 20 7 0 13-13 13-20 8 0 0 7 9 5 15-2 5-5 15-5 30 0 40 40 40 50 40s50 0 50-40c0-15-3-25-5-30-4-10-5-15-5-20 0-2 0-22 10-30-30 0-45 5-60 10-10-5-15-6-25-5C0 7 0 17 0 20z" fill="none" stroke-linecap="round" stroke-linejoin="round" stroke-width=".5" stroke="#333"/></g></svg>