<?xml version="1.0" encoding="UTF-8" standalone="no"?>
<svg xmlns="http://www.w3.org/2000/svg" viewBox="-4 -4 48 56" preserveAspectRatio="xMidYMin slice"><defs><mask id="a"><path d="M3.837 0 0 3.973c5.566 6.653 2.575 16.77 2.422 26.503C2.288 38.932 9.823 48 20.054 48c10.232 0 17.766-9.068 17.633-17.524-.153-9.734-3.144-19.85 2.422-26.503L36.272 0C32.527 4.868 26.06 1.524 20.054 1.524 14.05 1.524 7.582 4.868 3.837 0z" clip-rule="evenodd" fill-rule="evenodd" fill="#fff"/></mask></defs><g mask="url(#a)"><path d="M3.837 0 0 3.973c5.566 6.653 2.575 16.77 2.422 26.503C2.288 38.932 9.823 48 20.054 48c10.232 0 17.766-9.068 17.633-17.524-.153-9.734-3.144-19.85 2.422-26.503L36.272 0C32.527 4.868 26.06 1.524 20.054 1.524 14.05 1.524 7.582 4.868 3.837 0z" fill-rule="evenodd" fill="#f0f0f0"/><path fill="#0c6793" style="cursor:pointer" d="M-1000-1000h2000v2000h-2000z"/></g><path d="M3.837 0 0 3.973c5.566 6.653 2.575 16.77 2.422 26.503C2.288 38.932 9.823 48 20.054 48c10.232 0 17.766-9.068 17.633-17.524-.153-9.734-3.144-19.85 2.422-26.503L36.272 0C32.527 4.868 26.06 1.524 20.054 1.524 14.05 1.524 7.582 4.868 3.837 0z" stroke="#333" stroke-width=".5" fill="none" stroke-linecap="round" stroke-linejoin="round"/></svg>