<?xml version="1.0" encoding="UTF-8" standalone="no"?>
<svg xmlns="http://www.w3.org/2000/svg" viewBox="-4 -4 48 72" preserveAspectRatio="xMidYMin slice"><defs><mask id="a"><path d="M20 0a49.008 49.008 0 0 1 20 4.267A99.202 99.202 0 0 1 20 64 99.202 99.202 0 0 1 0 4.267 49.008 49.008 0 0 1 20 0z" clip-rule="evenodd" fill-rule="evenodd" fill="#fff"/></mask></defs><g mask="url(#a)"><path d="M20 0a49.008 49.008 0 0 1 20 4.267A99.202 99.202 0 0 1 20 64 99.202 99.202 0 0 1 0 4.267 49.008 49.008 0 0 1 20 0z" fill-rule="evenodd" fill="#f0f0f0"/><path fill="#0c6793" style="cursor:pointer" d="M-1000-1000h2000v2000h-2000z"/></g><path d="M20 0a49.008 49.008 0 0 1 20 4.267A99.202 99.202 0 0 1 20 64 99.202 99.202 0 0 1 0 4.267 49.008 49.008 0 0 1 20 0z" stroke="#333" stroke-width=".5" fill="none" stroke-linecap="round" stroke-linejoin="round"/></svg>