<?xml version="1.0" encoding="UTF-8" standalone="no"?>
<svg xmlns="http://www.w3.org/2000/svg" viewBox="-4 -4 48 62" preserveAspectRatio="xMidYMin slice"><defs><mask id="a"><path d="M20 0c12 2 20 2 20 2v13.6C39.913 30 32.376 42.855 20 50 7.624 42.855 0 30 0 15.6V2s8 0 20-2z" clip-rule="evenodd" fill-rule="evenodd" fill="#fff"/></mask></defs><g mask="url(#a)"><path d="M20 0c12 2 20 2 20 2v13.6C39.913 30 32.376 42.855 20 50 7.624 42.855 0 30 0 15.6V2s8 0 20-2z" fill-rule="evenodd" fill="#f0f0f0"/><path fill="#0c6793" style="cursor:pointer" d="M-1000-1000h2000v2000h-2000z"/></g><path d="M20 0c12 2 20 2 20 2v13.6C39.913 30 32.376 42.855 20 50 7.624 42.855 0 30 0 15.6V2s8 0 20-2z" stroke="#333" stroke-width=".5" fill="none" stroke-linecap="round" stroke-linejoin="round"/></svg>