<svg preserveAspectRatio="xMidYMin slice" viewBox="0 0 120 130" xmlns="http://www.w3.org/2000/svg"><g transform="translate(10 10)"><defs><mask id="a"><path clip-rule="evenodd" d="M1.648 87.81c2.818-2.528 5.437-5.549 5.416-11.252l-.157-42.963C6.874 24.346 4.636 22.135 0 17.22c4.348-4.107 7.94-8.8 11.552-13.793C21.257 10.98 40.092 9.574 50 0c9.908 9.573 28.743 10.98 38.448 3.426C92.06 8.419 95.652 13.112 100 17.219c-4.636 4.916-6.874 7.127-6.907 16.376l-.157 42.963c-.021 5.703 2.598 8.724 5.416 11.252-10.838 20.722-36.93 7.839-48.354 22.19-11.422-14.351-37.514-1.469-48.354-22.19z" fill-rule="evenodd" fill="#fff"/></mask></defs><g mask="url(#a)"><path d="M1.648 87.81c2.818-2.528 5.437-5.549 5.416-11.252l-.157-42.963C6.874 24.346 4.636 22.135 0 17.22c4.348-4.107 7.94-8.8 11.552-13.793C21.257 10.98 40.092 9.574 50 0c9.908 9.573 28.743 10.98 38.448 3.426C92.06 8.419 95.652 13.112 100 17.219c-4.636 4.916-6.874 7.127-6.907 16.376l-.157 42.963c-.021 5.703 2.598 8.724 5.416 11.252-10.838 20.722-36.93 7.839-48.354 22.19-11.422-14.351-37.514-1.469-48.354-22.19z" fill-rule="evenodd" fill="#f0f0f0"/><path fill="#0c6793" style="cursor:pointer" d="M-1000-1000h2000v2000h-2000z"/></g><path d="M1.648 87.81c2.818-2.528 5.437-5.549 5.416-11.252l-.157-42.963C6.874 24.346 4.636 22.135 0 17.22c4.348-4.107 7.94-8.8 11.552-13.793C21.257 10.98 40.092 9.574 50 0c9.908 9.573 28.743 10.98 38.448 3.426C92.06 8.419 95.652 13.112 100 17.219c-4.636 4.916-6.874 7.127-6.907 16.376l-.157 42.963c-.021 5.703 2.598 8.724 5.416 11.252-10.838 20.722-36.93 7.839-48.354 22.19-11.422-14.351-37.514-1.469-48.354-22.19z" fill="none" stroke-linecap="round" stroke-linejoin="round" stroke-width=".5" stroke="#333"/></g></svg>