<?xml version="1.0" encoding="UTF-8" standalone="no"?>
<svg xmlns="http://www.w3.org/2000/svg" viewBox="-4 -4 48 64" preserveAspectRatio="xMidYMin slice"><defs><mask id="a"><path d="M20 0c-2 2-9.8 6-12 10-2.2 4-6 10-8 12 2 2 6 12 8 18s10 14 12 16c2-2 10-10 12-16s6-16 8-18c-2-2-5.8-8-8-12S22 2 20 0z" clip-rule="evenodd" fill-rule="evenodd" fill="#fff"/></mask></defs><g mask="url(#a)"><path d="M20 0c-2 2-9.8 6-12 10-2.2 4-6 10-8 12 2 2 6 12 8 18s10 14 12 16c2-2 10-10 12-16s6-16 8-18c-2-2-5.8-8-8-12S22 2 20 0z" fill-rule="evenodd" fill="#f0f0f0"/><path fill="#0c6793" d="M-1000-1000h2000v2000h-2000z"/></g><path d="M20 0c-2 2-9.8 6-12 10-2.2 4-6 10-8 12 2 2 6 12 8 18s10 14 12 16c2-2 10-10 12-16s6-16 8-18c-2-2-5.8-8-8-12S22 2 20 0z" stroke="#333" stroke-width=".5" fill="none" stroke-linecap="round" stroke-linejoin="round"/></svg>