<?xml version="1.0" encoding="UTF-8" standalone="no"?>
<svg xmlns="http://www.w3.org/2000/svg" preserveAspectRatio="xMidYMin slice" viewBox="-4 -4 48 58"><defs><mask id="a"><path fill="#fff" fill-rule="evenodd" d="M20 0c12 2 20 2 20 2v13.6C39.913 30 32.376 42.855 20 50 7.624 42.855 0 30 0 15.6V2s8 0 20-2z" clip-rule="evenodd"/></mask></defs><g mask="url(#a)"><path fill="#f0f0f0" fill-rule="evenodd" d="M20 0c12 2 20 2 20 2v13.6C39.913 30 32.376 42.855 20 50 7.624 42.855 0 30 0 15.6V2s8 0 20-2z"/><path fill="#0c6793" d="M-1000-1000h2000v2000h-2000z"/></g><path fill="none" stroke="#333" stroke-linecap="round" stroke-linejoin="round" stroke-width=".5" d="M20 0c12 2 20 2 20 2v13.6C39.913 30 32.376 42.855 20 50 7.624 42.855 0 30 0 15.6V2s8 0 20-2z"/></svg>