<?xml version="1.0" encoding="UTF-8" standalone="no"?>
<svg xmlns="http://www.w3.org/2000/svg" preserveAspectRatio="xMidYMin slice" viewBox="-4 -4 49.667 60.083"><defs><mask id="a"><path fill="#fff" fill-rule="evenodd" d="M4.167 2.917C2.083 2.917 0 2.083 0 2.083S.833 4.167.833 6.25v27.083c0 6.25 5.417 10.417 9.584 12.5 8.333 4.167 10.416 6.25 10.416 6.25S22.917 50 31.25 45.833c4.167-2.083 9.583-6.25 9.583-12.5V6.25c0-2.083.834-4.167.834-4.167s-2.084.834-4.167.834C33.333 2.917 29.167 0 25 0s-4.167 2.083-4.167 2.083S20.833 0 16.667 0s-8.334 2.917-12.5 2.917" clip-rule="evenodd"/></mask></defs><g mask="url(#a)"><path fill="#f0f0f0" fill-rule="evenodd" d="M4.167 2.917C2.083 2.917 0 2.083 0 2.083S.833 4.167.833 6.25v27.083c0 6.25 5.417 10.417 9.584 12.5 8.333 4.167 10.416 6.25 10.416 6.25S22.917 50 31.25 45.833c4.167-2.083 9.583-6.25 9.583-12.5V6.25c0-2.083.834-4.167.834-4.167s-2.084.834-4.167.834C33.333 2.917 29.167 0 25 0s-4.167 2.083-4.167 2.083S20.833 0 16.667 0s-8.334 2.917-12.5 2.917"/><path fill="#0c6793" d="M-1000-1000h2000v2000h-2000z"/></g><path fill="none" stroke="#333" stroke-linecap="round" stroke-linejoin="round" stroke-width=".5" d="M4.167 2.917C2.083 2.917 0 2.083 0 2.083S.833 4.167.833 6.25v27.083c0 6.25 5.417 10.417 9.584 12.5 8.333 4.167 10.416 6.25 10.416 6.25S22.917 50 31.25 45.833c4.167-2.083 9.583-6.25 9.583-12.5V6.25c0-2.083.834-4.167.834-4.167s-2.084.834-4.167.834C33.333 2.917 29.167 0 25 0s-4.167 2.083-4.167 2.083S20.833 0 16.667 0s-8.334 2.917-12.5 2.917"/></svg>