<?xml version="1.0" encoding="UTF-8" standalone="no"?>
<svg xmlns="http://www.w3.org/2000/svg" preserveAspectRatio="xMidYMin slice" viewBox="-4 -4 48 57.999"><defs><mask id="a"><path fill="#fff" fill-rule="evenodd" d="M0 0v28c-.05 8 2 15.999 12 17.999 8 2 8 4 8 4s0-2 8-4c10-2 12-10 12-18V0s-4 2-10 2-10-2-10-2-4 2-10 2S0 0 0 0" clip-rule="evenodd"/></mask></defs><g mask="url(#a)"><path fill="#f0f0f0" fill-rule="evenodd" d="M0 0v28c-.05 8 2 15.999 12 17.999 8 2 8 4 8 4s0-2 8-4c10-2 12-10 12-18V0s-4 2-10 2-10-2-10-2-4 2-10 2S0 0 0 0"/><path fill="#0c6793" d="M-1000-1000h2000v2000h-2000z"/></g><path fill="none" stroke="#333" stroke-linecap="round" stroke-linejoin="round" stroke-width=".5" d="M0 0v28c-.05 8 2 15.999 12 17.999 8 2 8 4 8 4s0-2 8-4c10-2 12-10 12-18V0s-4 2-10 2-10-2-10-2-4 2-10 2S0 0 0 0"/></svg>