<?xml version="1.0" encoding="UTF-8" standalone="no"?>
<svg xmlns="http://www.w3.org/2000/svg" preserveAspectRatio="xMidYMin slice" viewBox="-4 -4 48 56"><defs><mask id="a"><path fill="#fff" fill-rule="evenodd" d="M14 46C8 46 4 42 4 36V18C4 12 0 8 0 8c6 2 10-4 10-4 6 2 10-4 10-4s4 6 10 4c0 0 4 6 10 4 0 0-4 4-4 10v18c0 6-4 10-10 10-4 0-6 2-6 2s-2-2-6-2" clip-rule="evenodd"/></mask></defs><g mask="url(#a)"><path fill="#f0f0f0" fill-rule="evenodd" d="M14 46C8 46 4 42 4 36V18C4 12 0 8 0 8c6 2 10-4 10-4 6 2 10-4 10-4s4 6 10 4c0 0 4 6 10 4 0 0-4 4-4 10v18c0 6-4 10-10 10-4 0-6 2-6 2s-2-2-6-2"/><path fill="#0c6793" d="M-1000-1000h2000v2000h-2000z"/></g><path fill="none" stroke="#333" stroke-linecap="round" stroke-linejoin="round" stroke-width=".5" d="M14 46C8 46 4 42 4 36V18C4 12 0 8 0 8c6 2 10-4 10-4 6 2 10-4 10-4s4 6 10 4c0 0 4 6 10 4 0 0-4 4-4 10v18c0 6-4 10-10 10-4 0-6 2-6 2s-2-2-6-2"/></svg>