<?xml version="1.0" encoding="UTF-8" standalone="no"?>
<svg xmlns="http://www.w3.org/2000/svg" preserveAspectRatio="xMidYMin slice" viewBox="-4 -4 48 79.111"><defs><mask id="a"><path fill="#fff" fill-rule="evenodd" d="M20 0S0 6.667 0 35.556C0 64.444 20 71.11 20 71.11s20-6.667 20-35.555C40 6.666 20 0 20 0z" clip-rule="evenodd"/></mask></defs><g mask="url(#a)"><path fill="#f0f0f0" fill-rule="evenodd" d="M20 0S0 6.667 0 35.556C0 64.444 20 71.11 20 71.11s20-6.667 20-35.555C40 6.666 20 0 20 0z"/><path fill="#0c6793" d="M-1000-1000h2000v2000h-2000z"/></g><path fill="none" stroke="#333" stroke-linecap="round" stroke-linejoin="round" stroke-width=".5" d="M20 0S0 6.667 0 35.556C0 64.444 20 71.11 20 71.11s20-6.667 20-35.555C40 6.666 20 0 20 0z"/></svg>