<?xml version="1.0" encoding="UTF-8" standalone="no"?>
<svg xmlns="http://www.w3.org/2000/svg" preserveAspectRatio="xMidYMin slice" viewBox="-4 -4 48 72"><defs><mask id="a"><path fill="#fff" fill-rule="evenodd" d="M20 0c-6 0-8 2-10 4C6 8 0 8 0 8c0 24 4.49 26.159 6 28s5.72 5.347 6 14c.453 13.993 6 14 8 14s7.547-.007 8-14c.28-8.653 4.49-12.159 6-14s6-4 6-28c0 0-6 0-10-4-2-2-4-4-10-4" clip-rule="evenodd"/></mask></defs><g mask="url(#a)"><path fill="#f0f0f0" fill-rule="evenodd" d="M20 0c-6 0-8 2-10 4C6 8 0 8 0 8c0 24 4.49 26.159 6 28s5.72 5.347 6 14c.453 13.993 6 14 8 14s7.547-.007 8-14c.28-8.653 4.49-12.159 6-14s6-4 6-28c0 0-6 0-10-4-2-2-4-4-10-4"/><path fill="#f2bc51" d="M-1000-1000h2000v2000h-2000z"/></g><path fill="none" stroke="#333" stroke-linecap="round" stroke-linejoin="round" stroke-width=".5" d="M20 0c-6 0-8 2-10 4C6 8 0 8 0 8c0 24 4.49 26.159 6 28s5.72 5.347 6 14c.453 13.993 6 14 8 14s7.547-.007 8-14c.28-8.653 4.49-12.159 6-14s6-4 6-28c0 0-6 0-10-4-2-2-4-4-10-4"/></svg>