<?xml version="1.0" encoding="UTF-8" standalone="no"?>
<svg xmlns="http://www.w3.org/2000/svg" viewBox="-4 -4 48 72" preserveAspectRatio="xMidYMin slice"><defs><mask id="a"><path d="M20 0c-6 0-8 2-10 4C6 8 0 8 0 8c0 24 4.49 26.159 6 28 1.51 1.841 5.72 5.347 6 14 .453 13.993 6 14 8 14s7.547-.007 8-14c.28-8.653 4.49-12.159 6-14 1.51-1.841 6-4 6-28 0 0-6 0-10-4-2-2-4-4-10-4z" clip-rule="evenodd" fill-rule="evenodd" fill="#fff"/></mask></defs><g mask="url(#a)"><path d="M20 0c-6 0-8 2-10 4C6 8 0 8 0 8c0 24 4.49 26.159 6 28 1.51 1.841 5.72 5.347 6 14 .453 13.993 6 14 8 14s7.547-.007 8-14c.28-8.653 4.49-12.159 6-14 1.51-1.841 6-4 6-28 0 0-6 0-10-4-2-2-4-4-10-4z" fill-rule="evenodd" fill="#f0f0f0"/><path fill="#0c6793" style="cursor:pointer" d="M-1000-1000h2000v2000h-2000z"/></g><path d="M20 0c-6 0-8 2-10 4C6 8 0 8 0 8c0 24 4.49 26.159 6 28 1.51 1.841 5.72 5.347 6 14 .453 13.993 6 14 8 14s7.547-.007 8-14c.28-8.653 4.49-12.159 6-14 1.51-1.841 6-4 6-28 0 0-6 0-10-4-2-2-4-4-10-4z" stroke="#333" stroke-width=".5" fill="none" stroke-linecap="round" stroke-linejoin="round"/></svg>