<svg preserveAspectRatio="xMidYMin slice" viewBox="-4 -4 48 54.8" xmlns="http://www.w3.org/2000/svg"><defs><mask id="a"><path clip-rule="evenodd" d="M17.469 44.943C8.03 42.886.49 38.647 0 25.105 3.99 22.92 5.334 11.469 1.232 5.527l2.393-4.083C11.587 2.759 14.283-1.818 20 .852c5.717-2.67 8.413 1.907 16.375.592l2.393 4.083C34.666 11.469 36.01 22.92 40 25.105c-.49 13.542-8.03 17.78-17.469 19.838-1.888.412-1.858.945-2.531 1.857-.673-.912-.643-1.445-2.531-1.857z" fill-rule="evenodd" fill="#fff"/></mask></defs><g mask="url(#a)"><path d="M17.469 44.943C8.03 42.886.49 38.647 0 25.105 3.99 22.92 5.334 11.469 1.232 5.527l2.393-4.083C11.587 2.759 14.283-1.818 20 .852c5.717-2.67 8.413 1.907 16.375.592l2.393 4.083C34.666 11.469 36.01 22.92 40 25.105c-.49 13.542-8.03 17.78-17.469 19.838-1.888.412-1.858.945-2.531 1.857-.673-.912-.643-1.445-2.531-1.857z" fill-rule="evenodd" fill="#f0f0f0"/><path fill="#f2bc51" style="cursor:pointer" d="M-1000-1000h2000v2000h-2000z"/></g><path d="M17.469 44.943C8.03 42.886.49 38.647 0 25.105 3.99 22.92 5.334 11.469 1.232 5.527l2.393-4.083C11.587 2.759 14.283-1.818 20 .852c5.717-2.67 8.413 1.907 16.375.592l2.393 4.083C34.666 11.469 36.01 22.92 40 25.105c-.49 13.542-8.03 17.78-17.469 19.838-1.888.412-1.858.945-2.531 1.857-.673-.912-.643-1.445-2.531-1.857z" fill="none" stroke-linecap="round" stroke-linejoin="round" stroke-width=".5" stroke="#333"/></svg>