<svg preserveAspectRatio="xMidYMin slice" viewBox="0 0 120 137" xmlns="http://www.w3.org/2000/svg"><g filter="url(#a)" transform="translate(10 10)"><defs><filter height="200%" id="a" width="200%" x="-20%" y="-20%"><feOffset dx=".2" dy=".2" in="SourceAlpha" result="offsetOut"/><feGaussianBlur in="offsetOut" result="blurOut"/><feBlend in2="blurOut" in="SourceGraphic"/></filter></defs><defs><mask id="b"><path d="M43.672 112.357C20.077 107.214 1.227 96.617 0 62.762c9.976-5.463 13.336-34.089 3.08-48.945L9.062 3.61C28.967 6.899 35.71-4.544 50 2.13 64.291-4.544 71.033 6.9 90.938 3.61l5.982 10.207C86.664 28.673 90.024 57.299 100 62.762c-1.227 33.855-20.077 44.452-43.672 49.595-4.721 1.03-4.645 2.362-6.328 4.643-1.683-2.281-1.607-3.613-6.328-4.643z" fill="#fff"/></mask></defs><g mask="url(#b)"><path d="M43.672 112.357C20.077 107.214 1.227 96.617 0 62.762c9.976-5.463 13.336-34.089 3.08-48.945L9.062 3.61C28.967 6.899 35.71-4.544 50 2.13 64.291-4.544 71.033 6.9 90.938 3.61l5.982 10.207C86.664 28.673 90.024 57.299 100 62.762c-1.227 33.855-20.077 44.452-43.672 49.595-4.721 1.03-4.645 2.362-6.328 4.643-1.683-2.281-1.607-3.613-6.328-4.643z" fill="#f0f0f0"/><path fill="#0c6793" d="M-500-500H600V600H-500z" style="pointer-events:visiblePainted;cursor:pointer"/></g><path d="M43.672 112.357C20.077 107.214 1.227 96.617 0 62.762c9.976-5.463 13.336-34.089 3.08-48.945L9.062 3.61C28.967 6.899 35.71-4.544 50 2.13 64.291-4.544 71.033 6.9 90.938 3.61l5.982 10.207C86.664 28.673 90.024 57.299 100 62.762c-1.227 33.855-20.077 44.452-43.672 49.595-4.721 1.03-4.645 2.362-6.328 4.643-1.683-2.281-1.607-3.613-6.328-4.643z" fill="none" stroke-linecap="round" stroke-linejoin="round" stroke-width=".5" stroke="#333"/></g></svg>