<?xml version="1.0" encoding="UTF-8" standalone="no"?>
<svg xmlns="http://www.w3.org/2000/svg" viewBox="-4 -4 48 86" preserveAspectRatio="xMidYMin slice"><defs><mask id="a"><path d="M40 0h-5.714v4H28.57V0h-5.714v4h-5.714V0h-5.714v4H5.714V0H0v68l5.2 4 5.2-4v-4l3.6 2v8l6 4 6-4v-8l3.6-2v4l5.2 4 5.2-4z" clip-rule="evenodd" fill-rule="evenodd" fill="#fff"/></mask></defs><g mask="url(#a)"><path d="M40 0h-5.714v4H28.57V0h-5.714v4h-5.714V0h-5.714v4H5.714V0H0v68l5.2 4 5.2-4v-4l3.6 2v8l6 4 6-4v-8l3.6-2v4l5.2 4 5.2-4z" fill-rule="evenodd" fill="#f0f0f0"/><path fill="#f2bc51" d="M-1000-1000h2000v2000h-2000z"/></g><path d="M40 0h-5.714v4H28.57V0h-5.714v4h-5.714V0h-5.714v4H5.714V0H0v68l5.2 4 5.2-4v-4l3.6 2v8l6 4 6-4v-8l3.6-2v4l5.2 4 5.2-4z" stroke="#333" stroke-width=".5" fill="none" stroke-linecap="round" stroke-linejoin="round"/></svg>