<?xml version="1.0" encoding="UTF-8" standalone="no"?>
<svg xmlns="http://www.w3.org/2000/svg" preserveAspectRatio="xMidYMin slice" viewBox="-4 -4 48 64"><defs><mask id="a"><path fill="#fff" fill-rule="evenodd" d="M20 0c-2 2-9.8 6-12 10S2 20 0 22c2 2 6 12 8 18s10 14 12 16c2-2 10-10 12-16s6-16 8-18c-2-2-5.8-8-8-12S22 2 20 0" clip-rule="evenodd"/></mask></defs><g mask="url(#a)"><path fill="#f0f0f0" fill-rule="evenodd" d="M20 0c-2 2-9.8 6-12 10S2 20 0 22c2 2 6 12 8 18s10 14 12 16c2-2 10-10 12-16s6-16 8-18c-2-2-5.8-8-8-12S22 2 20 0"/><path fill="#0c6793" d="M-1000-1000h2000v2000h-2000z"/></g><path fill="none" stroke="#333" stroke-linecap="round" stroke-linejoin="round" stroke-width=".5" d="M20 0c-2 2-9.8 6-12 10S2 20 0 22c2 2 6 12 8 18s10 14 12 16c2-2 10-10 12-16s6-16 8-18c-2-2-5.8-8-8-12S22 2 20 0"/></svg>