<?xml version="1.0" encoding="UTF-8" standalone="no"?>
<svg xmlns="http://www.w3.org/2000/svg" preserveAspectRatio="xMidYMin slice" viewBox="-4 -4 48 56"><defs><mask id="a"><path fill="#fff" fill-rule="evenodd" d="M4 34c0-8-4-14-4-14s4-6 4-10-2-8-2-8h4c4 0 8-2 10-2s4 2 4 2 2-2 4-2 6 2 10 2h4s-2 4-2 8 4 10 4 10-4 6-4 14c0 10-16 14-16 14S4 44 4 34" clip-rule="evenodd"/></mask></defs><g mask="url(#a)"><path fill="#f0f0f0" fill-rule="evenodd" d="M4 34c0-8-4-14-4-14s4-6 4-10-2-8-2-8h4c4 0 8-2 10-2s4 2 4 2 2-2 4-2 6 2 10 2h4s-2 4-2 8 4 10 4 10-4 6-4 14c0 10-16 14-16 14S4 44 4 34"/><path fill="#0c6793" d="M-1000-1000h2000v2000h-2000z"/></g><path fill="none" stroke="#333" stroke-linecap="round" stroke-linejoin="round" stroke-width=".5" d="M4 34c0-8-4-14-4-14s4-6 4-10-2-8-2-8h4c4 0 8-2 10-2s4 2 4 2 2-2 4-2 6 2 10 2h4s-2 4-2 8 4 10 4 10-4 6-4 14c0 10-16 14-16 14S4 44 4 34"/></svg>