<?xml version="1.0" encoding="UTF-8" standalone="no"?>
<svg xmlns="http://www.w3.org/2000/svg" preserveAspectRatio="xMidYMin slice" viewBox="-4 -4 48 20"><defs><mask id="a"><path fill="#fff" fill-rule="evenodd" d="M0 0v12h36s4-.4 4-2c0-1.2-1.2-1.6-2-2 .8-.4 2-.8 2-2 0-1.6-4-2-4-2z" clip-rule="evenodd"/></mask></defs><g mask="url(#a)"><path fill="#f0f0f0" fill-rule="evenodd" d="M0 0v12h36s4-.4 4-2c0-1.2-1.2-1.6-2-2 .8-.4 2-.8 2-2 0-1.6-4-2-4-2z"/><path fill="#f2bc51" d="M-1000-1000h2000v2000h-2000z"/></g><path fill="none" stroke="#333" stroke-linecap="round" stroke-linejoin="round" stroke-width=".5" d="M0 0v12h36s4-.4 4-2c0-1.2-1.2-1.6-2-2 .8-.4 2-.8 2-2 0-1.6-4-2-4-2z"/></svg>