<?xml version="1.0" encoding="UTF-8" standalone="no"?>
<svg xmlns="http://www.w3.org/2000/svg" viewBox="-4 -4 48 48" preserveAspectRatio="xMidYMin slice"><defs><mask id="a"><path d="M40 20c-3.706 1.943-7.77 8.774-6.601 13.383C28.8 32.21 21.987 36.285 20.049 40c-1.939-3.715-8.753-7.789-13.4-6.617C7.77 28.774 3.707 21.943 0 20c3.706-1.943 7.77-8.774 6.601-13.383C11.2 7.79 18.013 3.715 20 0c1.987 3.715 8.801 7.789 13.399 6.617C32.23 11.226 36.294 18.057 40 20z" clip-rule="evenodd" fill-rule="evenodd" fill="#fff"/></mask></defs><g mask="url(#a)"><path d="M40 20c-3.706 1.943-7.77 8.774-6.601 13.383C28.8 32.21 21.987 36.285 20.049 40c-1.939-3.715-8.753-7.789-13.4-6.617C7.77 28.774 3.707 21.943 0 20c3.706-1.943 7.77-8.774 6.601-13.383C11.2 7.79 18.013 3.715 20 0c1.987 3.715 8.801 7.789 13.399 6.617C32.23 11.226 36.294 18.057 40 20z" fill-rule="evenodd" fill="#f0f0f0"/><path fill="#f2bc51" style="cursor:pointer" d="M-1000-1000h2000v2000h-2000z"/></g><path d="M40 20c-3.706 1.943-7.77 8.774-6.601 13.383C28.8 32.21 21.987 36.285 20.049 40c-1.939-3.715-8.753-7.789-13.4-6.617C7.77 28.774 3.707 21.943 0 20c3.706-1.943 7.77-8.774 6.601-13.383C11.2 7.79 18.013 3.715 20 0c1.987 3.715 8.801 7.789 13.399 6.617C32.23 11.226 36.294 18.057 40 20z" stroke="#333" stroke-width=".5" fill="none" stroke-linecap="round" stroke-linejoin="round"/></svg>