<svg preserveAspectRatio="xMidYMin slice" viewBox="-4 -4 48 60" xmlns="http://www.w3.org/2000/svg"><defs><mask id="a"><path clip-rule="evenodd" d="M20 0c10.71-.014 19.527 11.448 20 26-.472 14.552-9.29 26.014-20 26C9.29 52.014.473 40.552 0 26 .472 11.448 9.29-.014 20 0z" fill-rule="evenodd" fill="#fff"/></mask></defs><g mask="url(#a)"><path d="M20 0c10.71-.014 19.527 11.448 20 26-.472 14.552-9.29 26.014-20 26C9.29 52.014.473 40.552 0 26 .472 11.448 9.29-.014 20 0z" fill-rule="evenodd" fill="#f0f0f0"/><path fill="#0c6793" style="cursor:pointer" d="M-1000-1000h2000v2000h-2000z"/></g><path d="M20 0c10.71-.014 19.527 11.448 20 26-.472 14.552-9.29 26.014-20 26C9.29 52.014.473 40.552 0 26 .472 11.448 9.29-.014 20 0z" fill="none" stroke-linecap="round" stroke-linejoin="round" stroke-width=".5" stroke="#333"/></svg>