<?xml version="1.0" encoding="UTF-8" standalone="no"?>
<svg xmlns="http://www.w3.org/2000/svg" preserveAspectRatio="xMidYMin slice" viewBox="-4 -4 48 52"><defs><mask id="a"><path fill="#fff" fill-rule="evenodd" d="M3.531 0c.017 2.418-.008 3.957-.215 5.498-.207 1.54-.41 2.517-1.093 5.337 1.266.687 2.186 2.434 2.167 4.637-.025 2.767-1.367 6.097-4.39 7.72 2.115 7.026 2.344 10.775 4.824 13.32C8.317 40.095 17.137 39.558 20 44c2.863-4.442 11.683-3.905 15.176-7.488 2.48-2.545 2.71-6.294 4.824-13.32-3.023-1.623-4.366-4.953-4.39-7.72-.02-2.203.901-3.95 2.167-4.637-.684-2.82-.886-3.797-1.093-5.337s-.232-3.08-.215-5.498C31.369.845 25.529 1.572 20 1.572S8.632.845 3.531 0" clip-rule="evenodd"/></mask></defs><g mask="url(#a)"><path fill="#f0f0f0" fill-rule="evenodd" d="M3.531 0c.017 2.418-.008 3.957-.215 5.498-.207 1.54-.41 2.517-1.093 5.337 1.266.687 2.186 2.434 2.167 4.637-.025 2.767-1.367 6.097-4.39 7.72 2.115 7.026 2.344 10.775 4.824 13.32C8.317 40.095 17.137 39.558 20 44c2.863-4.442 11.683-3.905 15.176-7.488 2.48-2.545 2.71-6.294 4.824-13.32-3.023-1.623-4.366-4.953-4.39-7.72-.02-2.203.901-3.95 2.167-4.637-.684-2.82-.886-3.797-1.093-5.337s-.232-3.08-.215-5.498C31.369.845 25.529 1.572 20 1.572S8.632.845 3.531 0"/><path fill="#f2bc51" d="M-1000-1000h2000v2000h-2000z"/></g><path fill="none" stroke="#333" stroke-linecap="round" stroke-linejoin="round" stroke-width=".5" d="M3.531 0c.017 2.418-.008 3.957-.215 5.498-.207 1.54-.41 2.517-1.093 5.337 1.266.687 2.186 2.434 2.167 4.637-.025 2.767-1.367 6.097-4.39 7.72 2.115 7.026 2.344 10.775 4.824 13.32C8.317 40.095 17.137 39.558 20 44c2.863-4.442 11.683-3.905 15.176-7.488 2.48-2.545 2.71-6.294 4.824-13.32-3.023-1.623-4.366-4.953-4.39-7.72-.02-2.203.901-3.95 2.167-4.637-.684-2.82-.886-3.797-1.093-5.337s-.232-3.08-.215-5.498C31.369.845 25.529 1.572 20 1.572S8.632.845 3.531 0"/></svg>