<?xml version="1.0" encoding="UTF-8" standalone="no"?>
<svg xmlns="http://www.w3.org/2000/svg" preserveAspectRatio="xMidYMin slice" viewBox="-4 -4 48 61.333"><defs><mask id="a"><path fill="#fff" fill-rule="evenodd" d="m40 26.667-.012 5.906-.036 2.443-.06 1.865-.085 1.564-.108 1.367-.135 1.223-.157 1.109-.183 1.019-.208.941-.233.872-.26.81-.286.757-.313.705-.34.659-.368.613-.399.57-.428.531-.46.491-.493.453-.53.418-.566.381-.608.345-.655.312-.705.278-.764.244-.832.21-.917.178-1.026.145-1.172.112-1.4.081-1.83.048-4.431.016-4.43-.016-1.831-.048-1.4-.081-1.172-.112-1.026-.145-.917-.178-.832-.21-.764-.244-.705-.278-.655-.312-.608-.345-.567-.381-.529-.418-.493-.453-.46-.49-.428-.531-.399-.571-.368-.613-.34-.659-.313-.705-.286-.756-.26-.811-.233-.872-.208-.941-.183-1.019-.157-1.11-.135-1.222-.108-1.367-.085-1.564-.06-1.865-.036-2.443L0 26.667l.012-5.907.036-2.443.06-1.865.085-1.564.108-1.367.135-1.222.157-1.11.183-1.018.208-.942.233-.872.26-.81.286-.756.313-.706.34-.658.368-.614.399-.57.428-.531.46-.49.493-.454.53-.417.566-.382.608-.345.655-.312.705-.277.764-.244.832-.211.917-.177 1.026-.146 1.172-.112 1.4-.081 1.83-.048L20 0l4.43.016 1.831.048 1.4.081 1.172.112 1.026.146.917.177.832.21.764.245.705.277.655.312.608.345.567.382.529.417.493.453.46.491.428.53.399.571.368.614.34.658.313.706.286.756.26.81.233.872.208.942.183 1.018.157 1.11.135 1.222.108 1.367.085 1.564.06 1.865.036 2.443z" clip-rule="evenodd"/></mask></defs><g mask="url(#a)"><path fill="#f0f0f0" fill-rule="evenodd" d="m40 26.667-.012 5.906-.036 2.443-.06 1.865-.085 1.564-.108 1.367-.135 1.223-.157 1.109-.183 1.019-.208.941-.233.872-.26.81-.286.757-.313.705-.34.659-.368.613-.399.57-.428.531-.46.491-.493.453-.53.418-.566.381-.608.345-.655.312-.705.278-.764.244-.832.21-.917.178-1.026.145-1.172.112-1.4.081-1.83.048-4.431.016-4.43-.016-1.831-.048-1.4-.081-1.172-.112-1.026-.145-.917-.178-.832-.21-.764-.244-.705-.278-.655-.312-.608-.345-.567-.381-.529-.418-.493-.453-.46-.49-.428-.531-.399-.571-.368-.613-.34-.659-.313-.705-.286-.756-.26-.811-.233-.872-.208-.941-.183-1.019-.157-1.11-.135-1.222-.108-1.367-.085-1.564-.06-1.865-.036-2.443L0 26.667l.012-5.907.036-2.443.06-1.865.085-1.564.108-1.367.135-1.222.157-1.11.183-1.018.208-.942.233-.872.26-.81.286-.756.313-.706.34-.658.368-.614.399-.57.428-.531.46-.49.493-.454.53-.417.566-.382.608-.345.655-.312.705-.277.764-.244.832-.211.917-.177 1.026-.146 1.172-.112 1.4-.081 1.83-.048L20 0l4.43.016 1.831.048 1.4.081 1.172.112 1.026.146.917.177.832.21.764.245.705.277.655.312.608.345.567.382.529.417.493.453.46.491.428.53.399.571.368.614.34.658.313.706.286.756.26.81.233.872.208.942.183 1.018.157 1.11.135 1.222.108 1.367.085 1.564.06 1.865.036 2.443z"/><path fill="#f2bc51" d="M-1000-1000h2000v2000h-2000z"/></g><path fill="none" stroke="#333" stroke-linecap="round" stroke-linejoin="round" stroke-width=".5" d="m40 26.667-.012 5.906-.036 2.443-.06 1.865-.085 1.564-.108 1.367-.135 1.223-.157 1.109-.183 1.019-.208.941-.233.872-.26.81-.286.757-.313.705-.34.659-.368.613-.399.57-.428.531-.46.491-.493.453-.53.418-.566.381-.608.345-.655.312-.705.278-.764.244-.832.21-.917.178-1.026.145-1.172.112-1.4.081-1.83.048-4.431.016-4.43-.016-1.831-.048-1.4-.081-1.172-.112-1.026-.145-.917-.178-.832-.21-.764-.244-.705-.278-.655-.312-.608-.345-.567-.381-.529-.418-.493-.453-.46-.49-.428-.531-.399-.571-.368-.613-.34-.659-.313-.705-.286-.756-.26-.811-.233-.872-.208-.941-.183-1.019-.157-1.11-.135-1.222-.108-1.367-.085-1.564-.06-1.865-.036-2.443L0 26.667l.012-5.907.036-2.443.06-1.865.085-1.564.108-1.367.135-1.222.157-1.11.183-1.018.208-.942.233-.872.26-.81.286-.756.313-.706.34-.658.368-.614.399-.57.428-.531.46-.49.493-.454.53-.417.566-.382.608-.345.655-.312.705-.277.764-.244.832-.211.917-.177 1.026-.146 1.172-.112 1.4-.081 1.83-.048L20 0l4.43.016 1.831.048 1.4.081 1.172.112 1.026.146.917.177.832.21.764.245.705.277.655.312.608.345.567.382.529.417.493.453.46.491.428.53.399.571.368.614.34.658.313.706.286.756.26.81.233.872.208.942.183 1.018.157 1.11.135 1.222.108 1.367.085 1.564.06 1.865.036 2.443z"/></svg>