<svg preserveAspectRatio="xMidYMin slice" viewBox="-4 -4 48 63.312" xmlns="http://www.w3.org/2000/svg"><defs><mask id="a"><path clip-rule="evenodd" d="M0 0c-.02 13.386.08 34.636.038 40-.041 5.536 3.574 9.77 8.84 9.93 5.268.159 8.32.695 11.122 5.21 2.802-4.515 5.854-5.051 11.121-5.21 5.268-.16 8.882-4.394 8.84-9.93-.038-5.364.039-26.614.039-40z" fill-rule="evenodd" fill="#fff"/></mask></defs><g mask="url(#a)"><path d="M0 0c-.02 13.386.08 34.636.038 40-.041 5.536 3.574 9.77 8.84 9.93 5.268.159 8.32.695 11.122 5.21 2.802-4.515 5.854-5.051 11.121-5.21 5.268-.16 8.882-4.394 8.84-9.93-.038-5.364.039-26.614.039-40z" fill-rule="evenodd" fill="#f0f0f0"/><path fill="#0c6793" style="cursor:pointer" d="M-1000-1000h2000v2000h-2000z"/></g><path d="M0 0c-.02 13.386.08 34.636.038 40-.041 5.536 3.574 9.77 8.84 9.93 5.268.159 8.32.695 11.122 5.21 2.802-4.515 5.854-5.051 11.121-5.21 5.268-.16 8.882-4.394 8.84-9.93-.038-5.364.039-26.614.039-40z" fill="none" stroke-linecap="round" stroke-linejoin="round" stroke-width=".5" stroke="#333"/></svg>