<svg preserveAspectRatio="xMidYMin slice" viewBox="0 0 120 134.286" xmlns="http://www.w3.org/2000/svg"><g filter="url(#a)" transform="translate(10 10)"><defs><filter height="200%" id="a" width="200%" x="-20%" y="-20%"><feOffset dx=".2" dy=".2" in="SourceAlpha" result="offsetOut"/><feGaussianBlur in="offsetOut" result="blurOut"/><feBlend in2="blurOut" in="SourceGraphic"/></filter></defs><defs><mask id="b"><path d="M50 0h50v107.143a7.143 7.143 0 0 1-7.143 7.143H57.143A7.143 7.143 0 0 0 50 121.429a7.143 7.143 0 0 0-7.143-7.143H7.143A7.143 7.143 0 0 1 0 107.143V0h50z" fill="#fff"/></mask></defs><g mask="url(#b)"><path d="M50 0h50v107.143a7.143 7.143 0 0 1-7.143 7.143H57.143A7.143 7.143 0 0 0 50 121.429a7.143 7.143 0 0 0-7.143-7.143H7.143A7.143 7.143 0 0 1 0 107.143V0h50z" fill="#f0f0f0"/><path fill="#0c6793" d="M-500-500H600V600H-500z" style="pointer-events:visiblePainted;cursor:pointer"/></g><path d="M50 0h50v107.143a7.143 7.143 0 0 1-7.143 7.143H57.143A7.143 7.143 0 0 0 50 121.429a7.143 7.143 0 0 0-7.143-7.143H7.143A7.143 7.143 0 0 1 0 107.143V0h50z" fill="none" stroke-linecap="round" stroke-linejoin="round" stroke-width=".5" stroke="#333"/></g></svg>