<svg preserveAspectRatio="xMidYMin slice" viewBox="0 0 120 200" xmlns="http://www.w3.org/2000/svg"><g filter="url(#a)" transform="translate(10 10)"><defs><filter height="200%" id="a" width="200%" x="-20%" y="-20%"><feOffset dx=".2" dy=".2" in="SourceAlpha" result="offsetOut"/><feGaussianBlur in="offsetOut" result="blurOut"/><feBlend in2="blurOut" in="SourceGraphic"/></filter></defs><defs><clipPath id="b"><path d="M0 0h100v120H0z" fill="#fff"/></clipPath></defs><g clip-path="url(#b)"><path d="M0 0h100v120H0z" fill="#f0f0f0"/><g style="pointer-events:visiblePainted;cursor:pointer"><defs><clipPath id="c"><path d="M16.667 0v1000H-1000v-2000H16.667V0z" fill="#fff"/><path d="M16.667 0v120" fill="none" stroke-width=".1" stroke="#fff"/></clipPath></defs><g clip-path="url(#c)"><path fill="#f6f6f6" d="M-500-500H600V600H-500z" style="pointer-events:visiblePainted;cursor:pointer"/></g><defs><clipPath id="d"><path d="M16.667 0v1000h16.666v-2000H16.667V0z" fill="#fff"/><path d="M33.333 120V0" fill="none" stroke-width=".1" stroke="#fff"/></clipPath></defs><g clip-path="url(#d)"><path fill="#f2bc51" d="M-500-500H600V600H-500z" style="pointer-events:visiblePainted;cursor:pointer"/></g><defs><clipPath id="e"><path d="M33.333 120v-1120H50V120l-16.667 880H50V120z" fill="#fff"/><path d="M50 0v120" fill="none" stroke-width=".1" stroke="#fff"/></clipPath></defs><g clip-path="url(#e)"><path fill="#f6f6f6" d="M-500-500H600V600H-500z" style="pointer-events:visiblePainted;cursor:pointer"/></g><defs><clipPath id="f"><path d="M50 0v1000h16.667v-2000H50V0z" fill="#fff"/><path d="M66.667 120V0" fill="none" stroke-width=".1" stroke="#fff"/></clipPath></defs><g clip-path="url(#f)"><path fill="#f2bc51" d="M-500-500H600V600H-500z" style="pointer-events:visiblePainted;cursor:pointer"/></g><defs><clipPath id="g"><path d="M66.667 120v-1120h16.666V120l-16.666 880h16.666V120z" fill="#fff"/><path d="M83.333 0v120" fill="none" stroke-width=".1" stroke="#fff"/></clipPath></defs><g clip-path="url(#g)"><path fill="#f6f6f6" d="M-500-500H600V600H-500z" style="pointer-events:visiblePainted;cursor:pointer"/></g><defs><clipPath id="h"><path d="M83.333 0v1000H1000v-2000H83.333V0z" fill="#fff"/></clipPath></defs><g clip-path="url(#h)"><path fill="#f2bc51" d="M-500-500H600V600H-500z" style="pointer-events:visiblePainted;cursor:pointer"/></g><path d="M16.667 0v120m16.666 0V0M50 0v120m16.667 0V0m16.666 0v120" fill="none" stroke-linecap="round" stroke-linejoin="round" stroke-width=".5" stroke="#333"/></g></g><path d="M0 0h100v120H0z" fill="none" stroke-linecap="round" stroke-linejoin="round" stroke-width=".5" stroke="#333"/></g></svg>