<svg preserveAspectRatio="xMidYMin slice" viewBox="0 0 120 200" xmlns="http://www.w3.org/2000/svg"><g transform="translate(10 10)"><defs><mask id="a"><path clip-rule="evenodd" d="M0 0h100v120H0z" fill-rule="evenodd" fill="#fff"/></mask></defs><g mask="url(#a)"><path d="M0 0h100v120H0z" fill-rule="evenodd" fill="#f0f0f0"/><defs><pattern height="80" id="f" patternUnits="userSpaceOnUse" width="50" x="0" y="0"><path d="M0 0h50M0 40l12.5-11.716V11.716L25 0l12.5 11.716v16.568L50 40M0 40h50M0 40l12.5 11.716v16.568L25 80H0m50-40L37.5 51.716v16.568L25 80h25" fill="none" stroke-linecap="round" stroke-linejoin="round" stroke-width=".5" stroke="#333"/></pattern><pattern height="80" id="b" patternUnits="userSpaceOnUse" width="50" x="0" y="0"><path d="M0 0h50v80H0z"/><path d="m0 40 12.5-11.716V11.716L25 0l12.5 11.716v16.568L50 40zm0 0 12.5 11.716v16.568L25 80H0zm50 0L37.5 51.716v16.568L25 80h25z" fill="#fff"/></pattern><pattern height="80" id="d" patternUnits="userSpaceOnUse" width="50" x="0" y="0"><path fill="#fff" d="M0 0h50v80H0z"/><path d="m0 40 12.5-11.716V11.716L25 0l12.5 11.716v16.568L50 40zm0 0 12.5 11.716v16.568L25 80H0zm50 0L37.5 51.716v16.568L25 80h25z"/></pattern></defs><mask id="c"><path fill="url(#b)" d="M-500-500H600V600H-500z"/></mask><g mask="url(#c)"><path fill="#0c6793" style="cursor:pointer" d="M-1000-1000h2000v2000h-2000z"/></g><mask id="e"><path fill="url(#d)" d="M-500-500H600V600H-500z"/></mask><g mask="url(#e)"><path fill="#f6f6f6" style="cursor:pointer" d="M-1000-1000h2000v2000h-2000z"/></g><path fill="url(#f)" d="M-500-500H600V600H-500z"/></g><path d="M0 0h100v120H0z" fill="none" stroke-linecap="round" stroke-linejoin="round" stroke-width=".5" stroke="#333"/></g></svg>