<svg preserveAspectRatio="xMidYMin slice" viewBox="0 0 120 200" xmlns="http://www.w3.org/2000/svg"><g transform="translate(10 10)"><defs><mask id="a"><path clip-rule="evenodd" d="M0 0h100v120H0z" fill-rule="evenodd" fill="#fff"/></mask></defs><g mask="url(#a)"><path d="M0 0h100v120H0z" fill-rule="evenodd" fill="#f0f0f0"/><defs><mask id="b"><path clip-rule="evenodd" d="M0 30h33.333v-1030H-1000V30H0z" fill-rule="evenodd" fill="#fff"/><path d="M33.333 0v30H0" fill="none" stroke-width=".1" stroke="#fff"/></mask></defs><g mask="url(#b)"><path fill="#f6f6f6" style="cursor:pointer" d="M-1000-1000h2000v2000h-2000z"/></g><defs><mask id="c"><path clip-rule="evenodd" d="M33.333 0v30h33.334v-1030H33.333V0z" fill-rule="evenodd" fill="#fff"/><path d="M66.667 0v30H33.333" fill="none" stroke-width=".1" stroke="#fff"/></mask></defs><g mask="url(#c)"><path fill="#0c6793" style="cursor:pointer" d="M-1000-1000h2000v2000h-2000z"/></g><defs><mask id="d"><path clip-rule="evenodd" d="M66.667 0v30H1000v-1030H66.667V0z" fill-rule="evenodd" fill="#fff"/><path d="M100 0v30H66.667" fill="none" stroke-width=".1" stroke="#fff"/></mask></defs><g mask="url(#d)"><path fill="#f6f6f6" style="cursor:pointer" d="M-1000-1000h2000v2000h-2000z"/></g><defs><mask id="e"><path clip-rule="evenodd" d="M0 30h33.333v30H-1000V30H0z" fill-rule="evenodd" fill="#fff"/><path d="M33.333 30v30H0" fill="none" stroke-width=".1" stroke="#fff"/></mask></defs><g mask="url(#e)"><path fill="#0c6793" style="cursor:pointer" d="M-1000-1000h2000v2000h-2000z"/></g><defs><mask id="f"><path clip-rule="evenodd" d="M33.333 30h33.334v30H33.333z" fill-rule="evenodd" fill="#fff"/><path d="M66.667 30v30H33.333" fill="none" stroke-width=".1" stroke="#fff"/></mask></defs><g mask="url(#f)"><path fill="#f6f6f6" style="cursor:pointer" d="M-1000-1000h2000v2000h-2000z"/></g><defs><mask id="g"><path clip-rule="evenodd" d="M100 60H66.667V30H1000v30H100z" fill-rule="evenodd" fill="#fff"/><path d="M100 30v30H66.667" fill="none" stroke-width=".1" stroke="#fff"/></mask></defs><g mask="url(#g)"><path fill="#0c6793" style="cursor:pointer" d="M-1000-1000h2000v2000h-2000z"/></g><defs><mask id="h"><path clip-rule="evenodd" d="M0 60h33.333v30H-1000V60H0z" fill-rule="evenodd" fill="#fff"/><path d="M33.333 60v30H0" fill="none" stroke-width=".1" stroke="#fff"/></mask></defs><g mask="url(#h)"><path fill="#f6f6f6" style="cursor:pointer" d="M-1000-1000h2000v2000h-2000z"/></g><defs><mask id="i"><path clip-rule="evenodd" d="M33.333 60h33.334v30H33.333z" fill-rule="evenodd" fill="#fff"/><path d="M66.667 60v30H33.333" fill="none" stroke-width=".1" stroke="#fff"/></mask></defs><g mask="url(#i)"><path fill="#0c6793" style="cursor:pointer" d="M-1000-1000h2000v2000h-2000z"/></g><defs><mask id="j"><path clip-rule="evenodd" d="M100 90H66.667V60H1000v30H100z" fill-rule="evenodd" fill="#fff"/><path d="M100 60v30H66.667" fill="none" stroke-width=".1" stroke="#fff"/></mask></defs><g mask="url(#j)"><path fill="#f6f6f6" style="cursor:pointer" d="M-1000-1000h2000v2000h-2000z"/></g><defs><mask id="k"><path clip-rule="evenodd" d="M0 90h33.333v910H-1000V90H0z" fill-rule="evenodd" fill="#fff"/><path d="M33.333 90v30H0" fill="none" stroke-width=".1" stroke="#fff"/></mask></defs><g mask="url(#k)"><path fill="#0c6793" style="cursor:pointer" d="M-1000-1000h2000v2000h-2000z"/></g><defs><mask id="l"><path clip-rule="evenodd" d="M33.333 120V90h33.334v910H33.333V120z" fill-rule="evenodd" fill="#fff"/><path d="M66.667 90v30H33.333" fill="none" stroke-width=".1" stroke="#fff"/></mask></defs><g mask="url(#l)"><path fill="#f6f6f6" style="cursor:pointer" d="M-1000-1000h2000v2000h-2000z"/></g><defs><mask id="m"><path clip-rule="evenodd" d="M66.667 120V90H1000v910H66.667V120z" fill-rule="evenodd" fill="#fff"/><path d="M100 90v30H66.667" fill="none" stroke-width=".1" stroke="#fff"/></mask></defs><g mask="url(#m)"><path fill="#0c6793" style="cursor:pointer" d="M-1000-1000h2000v2000h-2000z"/></g><path d="M33.333-50v220M66.667-50v220M-50 30h200M-50 60h200M-50 90h200" fill="none" stroke-linecap="round" stroke-linejoin="round" stroke-width=".5" stroke="#333"/></g><path d="M0 0h100v120H0z" fill="none" stroke-linecap="round" stroke-linejoin="round" stroke-width=".5" stroke="#333"/></g></svg>