<?xml version="1.0" encoding="UTF-8" standalone="no"?>
<svg xmlns="http://www.w3.org/2000/svg" viewBox="-10 -10 120 140" preserveAspectRatio="xMidYMin slice"><defs><mask id="a"><path d="M0 0h100v120H0z" clip-rule="evenodd" fill-rule="evenodd" fill="#fff"/></mask></defs><g mask="url(#a)"><path d="M0 0h100v120H0z" fill-rule="evenodd" fill="#f0f0f0"/><defs><mask id="b"><path d="M-21.213 71.213 50 0l71.213 71.213L514.541 392.74a600 600 0 1 0-929.082 0L-21.213 71.213z" clip-rule="evenodd" fill-rule="evenodd" fill="#fff" stroke="#fff" stroke-width=".1"/></mask></defs><g mask="url(#b)"><path fill="#f6f6f6" d="M-1000-1000h2000v2000h-2000z"/></g><defs><mask id="c"><path d="M-21.213 95.213 50 24l71.213 71.213 469.61 225.616a600 600 0 0 1-76.282 119.91L121.213 119.213 50 48l-71.213 71.213-393.328 321.526a600 600 0 0 1-76.281-119.91L-21.213 95.213z" clip-rule="evenodd" fill-rule="evenodd" fill="#fff" stroke="#fff" stroke-width=".1"/></mask></defs><g mask="url(#c)"><path fill="#f6f6f6" d="M-1000-1000h2000v2000h-2000z"/></g><defs><mask id="d"><path d="M-19.213 141.213 50 72l69.213 69.213 471.729 226.368a600 600 0 0 1-63.245 103.469L100 146 50 96 0 146l-427.697 325.05a600 600 0 0 1-63.245-103.47l471.729-226.367z" clip-rule="evenodd" fill-rule="evenodd" fill="#fff" stroke="#fff" stroke-width=".1"/></mask></defs><g mask="url(#d)"><path fill="#f6f6f6" d="M-1000-1000h2000v2000h-2000z"/></g><defs><mask id="e"><path d="M-21.213 71.213 50 0l71.213 71.213 469.61 225.616a600 600 0 0 1-76.282 119.91L121.213 95.213 50 24l-71.213 71.213-393.328 321.526a600 600 0 0 1-76.281-119.91L-21.213 71.213z" clip-rule="evenodd" fill-rule="evenodd" fill="#fff"/></mask></defs><g mask="url(#e)"><path fill="#0c6793" d="M-1000-1000h2000v2000h-2000z"/></g><defs><mask id="f"><path d="M-21.213 119.213 50 48l71.213 71.213 469.61 225.616a600 600 0 0 1-75.08 118.435l-396.53-322.05L50 72l-69.213 69.213-396.53 322.051a600 600 0 0 1-75.08-118.435l469.61-225.616z" clip-rule="evenodd" fill-rule="evenodd" fill="#fff"/></mask></defs><g mask="url(#f)"><path fill="#0c6793" d="M-1000-1000h2000v2000h-2000z"/></g><defs><mask id="g"><path d="m0 146 50-50 50 50 482.33 250.812a600 600 0 0 1-1064.66 0L0 146z" clip-rule="evenodd" fill-rule="evenodd" fill="#fff"/></mask></defs><g mask="url(#g)"><path fill="#0c6793" d="M-1000-1000h2000v2000h-2000z"/></g><path d="M-21.213 71.213 50 0m71.213 71.213L50 0m-71.213 95.213L50 24m71.213 71.213L50 24m-71.213 95.213L50 48m71.213 71.213L50 48m-69.213 93.213L50 72m69.213 69.213L50 72M0 146l50-50m50 50L50 96" stroke="#333" stroke-width=".5" fill="none" stroke-linecap="round" stroke-linejoin="round"/></g><path d="M0 0h100v120H0z" stroke="#333" stroke-width=".5" fill="none" stroke-linecap="round" stroke-linejoin="round"/></svg>