<svg preserveAspectRatio="xMidYMin slice" viewBox="0 0 120 200" xmlns="http://www.w3.org/2000/svg"><g filter="url(#a)" transform="translate(10 10)"><defs><filter height="200%" id="a" width="200%" x="-20%" y="-20%"><feOffset dx=".2" dy=".2" in="SourceAlpha" result="offsetOut"/><feGaussianBlur in="offsetOut" result="blurOut"/><feBlend in2="blurOut" in="SourceGraphic"/></filter></defs><defs><clipPath id="b"><path d="M0 0h100v120H0z" fill="#fff"/></clipPath></defs><g clip-path="url(#b)"><path d="M0 0h100v120H0z" fill="#f0f0f0"/><g transform="rotate(-50.194 89.051 -23.376)" style="pointer-events:visiblePainted;cursor:pointer"><defs><clipPath id="c"><path d="M-78.102-51.215H1000V-1000h-2000v948.785h921.898z" fill="#fff"/><path d="M-78.102-51.215H78.102" fill="none" stroke-width=".1" stroke="#fff"/></clipPath></defs><g clip-path="url(#c)"><path fill="#f6f6f6" d="M-500-500H600V600H-500z" style="pointer-events:visiblePainted;cursor:pointer"/></g><defs><clipPath id="d"><path d="M-78.102-51.215H1000v25.608h-2000v-25.608h921.898z" fill="#fff"/><path d="M78.098-25.607h-156.2" fill="none" stroke-width=".1" stroke="#fff"/></clipPath></defs><g clip-path="url(#d)"><path fill="#f2bc51" d="M-500-500H600V600H-500z" style="pointer-events:visiblePainted;cursor:pointer"/></g><defs><clipPath id="e"><path d="M78.098-25.607H-1000V0h2000v-25.607H78.098" fill="#fff"/><path d="M-78.102 0H78.102" fill="none" stroke-width=".1" stroke="#fff"/></clipPath></defs><g clip-path="url(#e)"><path fill="#f6f6f6" d="M-500-500H600V600H-500z" style="pointer-events:visiblePainted;cursor:pointer"/></g><defs><clipPath id="f"><path d="M-78.102 0H1000v25.607h-2000V0h921.898z" fill="#fff"/><path d="M78.098 25.607h-156.2" fill="none" stroke-width=".1" stroke="#fff"/></clipPath></defs><g clip-path="url(#f)"><path fill="#f2bc51" d="M-500-500H600V600H-500z" style="pointer-events:visiblePainted;cursor:pointer"/></g><defs><clipPath id="g"><path d="M78.098 25.607H-1000v25.608h2000V25.607H78.098" fill="#fff"/><path d="M-78.102 51.215H78.102" fill="none" stroke-width=".1" stroke="#fff"/></clipPath></defs><g clip-path="url(#g)"><path fill="#f6f6f6" d="M-500-500H600V600H-500z" style="pointer-events:visiblePainted;cursor:pointer"/></g><defs><clipPath id="h"><path d="M-78.102 51.215H1000V1000h-2000V51.215h921.898z" fill="#fff"/></clipPath></defs><g clip-path="url(#h)"><path fill="#f2bc51" d="M-500-500H600V600H-500z" style="pointer-events:visiblePainted;cursor:pointer"/></g><path d="M-78.102-51.215H78.102m-.004 25.608h-156.2m0 25.607H78.102m-.004 25.607h-156.2m0 25.608H78.102" fill="none" stroke-linecap="round" stroke-linejoin="round" stroke-width=".5" stroke="#333"/></g></g><path d="M0 0h100v120H0z" fill="none" stroke-linecap="round" stroke-linejoin="round" stroke-width=".5" stroke="#333"/></g></svg>