<?xml version="1.0" encoding="UTF-8" standalone="no"?>
<svg xmlns="http://www.w3.org/2000/svg" viewBox="-10 -10 120 140" preserveAspectRatio="xMidYMin slice"><defs><mask id="a"><path d="M0 0h100v120H0z" clip-rule="evenodd" fill-rule="evenodd" fill="#fff"/></mask></defs><g mask="url(#a)"><path d="M0 0h100v120H0z" fill-rule="evenodd" fill="#f0f0f0"/><defs><pattern id="f" width="33.333" height="30" x="0" y="0" patternUnits="userSpaceOnUse"><path d="m16.667 0 16.666 15-16.666 15L0 15z" stroke="#333" stroke-width=".5" fill="none" stroke-linecap="round" stroke-linejoin="round"/></pattern><pattern id="b" width="33.333" height="30" x="0" y="0" patternUnits="userSpaceOnUse"><path d="M0 0h33.333v30H0z"/><path d="m16.667 0 16.666 15-16.666 15L0 15z" fill="#fff"/></pattern><pattern id="d" width="33.333" height="30" x="0" y="0" patternUnits="userSpaceOnUse"><path fill="#fff" d="M0 0h33.333v30H0z"/><path d="m16.667 0 16.666 15-16.666 15L0 15z"/></pattern></defs><mask id="c"><path fill="url(#b)" d="M-500-500H600V600H-500z"/></mask><g mask="url(#c)"><path fill="#f6f6f6" style="cursor:pointer" d="M-1000-1000h2000v2000h-2000z"/></g><mask id="e"><path fill="url(#d)" d="M-500-500H600V600H-500z"/></mask><g mask="url(#e)"><path fill="#f2bc51" style="cursor:pointer" d="M-1000-1000h2000v2000h-2000z"/></g><path fill="url(#f)" d="M-500-500H600V600H-500z"/></g><path d="M0 0h100v120H0z" stroke="#333" stroke-width=".5" fill="none" stroke-linecap="round" stroke-linejoin="round"/></svg>