<?xml version="1.0" encoding="UTF-8" standalone="no"?>
<svg xmlns="http://www.w3.org/2000/svg" preserveAspectRatio="xMidYMin slice" viewBox="-10 -10 120 140"><defs><mask id="a"><path fill="#fff" fill-rule="evenodd" d="M0 0h100v120H0z" clip-rule="evenodd"/></mask></defs><g mask="url(#a)"><path fill="#f0f0f0" fill-rule="evenodd" d="M0 0h100v120H0z"/><defs><mask id="b"><path fill="#fff" fill-rule="evenodd" stroke="#fff" stroke-width=".1" d="M119.206-23.047 50 60l-69.206-83.047L-426.2-335.012a600 600 0 0 1 952.4 0L119.206-23.047z" clip-rule="evenodd"/></mask></defs><g mask="url(#b)"><path fill="#f6f6f6" d="M-1000-1000h2000v2000h-2000z"/></g><defs><mask id="c"><path fill="#fff" fill-rule="evenodd" stroke="#fff" stroke-width=".1" d="M50 150V60l-69.206-83.047-237.72-446.592A600 600 0 0 0 185.586 638.11L50 150z" clip-rule="evenodd"/></mask></defs><g mask="url(#c)"><path fill="#333" d="M-1000-1000h2000v2000h-2000z"/></g><defs><mask id="d"><path fill="#fff" fill-rule="evenodd" d="M119.206-23.047 50 60v90L-85.586 638.11A600 600 0 0 0 356.926-469.64L119.206-23.046z" clip-rule="evenodd"/></mask></defs><g mask="url(#d)"><path fill="#0c6793" d="M-1000-1000h2000v2000h-2000z"/></g><path fill="none" stroke="#333" stroke-linecap="round" stroke-linejoin="round" stroke-width=".5" d="M119.206-23.047 50 60m0 0-69.206-83.047M50 150V60"/></g><path fill="none" stroke="#333" stroke-linecap="round" stroke-linejoin="round" stroke-width=".5" d="M0 0h100v120H0z"/></svg>