<svg preserveAspectRatio="xMidYMin slice" viewBox="-10 -10 120 140" xmlns="http://www.w3.org/2000/svg"><defs><mask id="a"><path clip-rule="evenodd" d="M0 0h100v120H0z" fill-rule="evenodd" fill="#fff"/></mask></defs><g mask="url(#a)"><path d="M0 0h100v120H0z" fill-rule="evenodd" fill="#f0f0f0"/><defs><mask id="b"><path clip-rule="evenodd" d="m39.316-32.14 86.291 103.55 517.676 78.116a600 600 0 0 0-662.39-685.533L39.316-32.14z" fill-rule="evenodd" fill="#fff"/></mask></defs><g mask="url(#b)"><path fill="#f6f6f6" style="cursor:pointer" d="M-1000-1000h2000v2000h-2000z" transform="rotate(50.194)"/></g><defs><mask id="c"><path clip-rule="evenodd" d="m39.316-32.14 86.291 103.55 517.676 78.116a600 600 0 0 1-94.708 244.275L125.607 110.62 13.63-23.752-188.99-490.35a600 600 0 0 1 169.883-45.658L39.316-32.14z" fill-rule="evenodd" fill="#fff"/></mask></defs><g mask="url(#c)"><path fill="#0c6793" style="cursor:pointer" d="M-1000-1000h2000v2000h-2000z" transform="rotate(50.194)"/></g><defs><mask id="d"><path clip-rule="evenodd" d="M125.607 110.62 13.63-23.752-188.99-490.35a600 600 0 0 0-142.653 87.371L-18.457-23.047 119.206 142.15l317.366 376.72a600 600 0 0 0 112.003-125.069L125.607 110.62z" fill-rule="evenodd" fill="#fff"/></mask></defs><g mask="url(#d)"><path fill="#f6f6f6" style="cursor:pointer" d="M-1000-1000h2000v2000h-2000z" transform="rotate(50.194)"/></g><defs><mask id="e"><path clip-rule="evenodd" d="M-18.457-23.047 119.206 142.15l317.366 376.72a600 600 0 0 1-140.862 88.512L87.278 143.047-24.938 8.387-444.14-280.331a600 600 0 0 1 112.497-122.646l313.186 379.93z" fill-rule="evenodd" fill="#fff"/></mask></defs><g mask="url(#e)"><path fill="#0c6793" style="cursor:pointer" d="M-1000-1000h2000v2000h-2000z" transform="rotate(50.194)"/></g><defs><mask id="f"><path clip-rule="evenodd" d="M87.278 143.047-24.938 8.387-444.14-280.331a600 600 0 0 0-77.77 158.9L-37.82 32.14l92.422 110.907L83.2 659.08a600 600 0 0 0 212.51-51.7L87.278 143.048z" fill-rule="evenodd" fill="#fff"/></mask></defs><g mask="url(#f)"><path fill="#f6f6f6" style="cursor:pointer" d="M-1000-1000h2000v2000h-2000z" transform="rotate(50.194)"/></g><defs><mask id="g"><path clip-rule="evenodd" d="m-37.82 32.14 92.422 110.907L83.2 659.08a600 600 0 0 1-605.11-780.514L-37.82 32.14z" fill-rule="evenodd" fill="#fff"/></mask></defs><g mask="url(#g)"><path fill="#0c6793" style="cursor:pointer" d="M-1000-1000h2000v2000h-2000z" transform="rotate(50.194)"/></g><path d="m39.316-32.14 86.291 103.55m0 39.21L13.63-23.752m-32.087.705L119.206 142.15m-31.928.897L-24.938 8.387M-37.82 32.14l92.422 110.907" fill="none" stroke-linecap="round" stroke-linejoin="round" stroke-width=".5" stroke="#333"/></g><path d="M0 0h100v120H0z" fill="none" stroke-linecap="round" stroke-linejoin="round" stroke-width=".5" stroke="#333"/></svg>