<?xml version="1.0" encoding="UTF-8" standalone="no"?>
<svg xmlns="http://www.w3.org/2000/svg" viewBox="-10 -10 120 140" preserveAspectRatio="xMidYMin slice"><defs><mask id="a"><path d="M0 0h100v120H0z" clip-rule="evenodd" fill-rule="evenodd" fill="#fff"/></mask></defs><g mask="url(#a)"><path d="M0 0h100v120H0z" fill-rule="evenodd" fill="#f0f0f0"/><defs><mask id="b"><path d="M32.942-40.47 145.746 94.896 413.008 530.4a600 600 0 1 0-760.235-912.282L32.943-40.47z" clip-rule="evenodd" fill-rule="evenodd" fill="#fff" stroke="#fff" stroke-width=".1"/></mask></defs><g mask="url(#b)"><path fill="#f6f6f6" d="M128.037-1408.406 1408.406 128.037-128.037 1408.406-1408.406-128.037z"/></g><defs><mask id="c"><path d="M126.074 111.289 13.27-24.076l-267.262-435.503a600 600 0 0 0-121.83 98.827L-19.206-23.047l138.412 166.094 267.86 411.668a600 600 0 0 0 119.177-102.012L126.074 111.289z" clip-rule="evenodd" fill-rule="evenodd" fill="#fff" stroke="#fff" stroke-width=".1"/></mask></defs><g mask="url(#c)"><path fill="#f6f6f6" d="M128.037-1408.406 1408.406 128.037-128.037 1408.406-1408.406-128.037z"/></g><defs><mask id="d"><path d="M86.73 144.076-26.074 8.71l-267.262-435.503a600 600 0 0 0-132.58 110.482l380.17 341.415L67.058 160.469 334.32 595.973A600 600 0 0 0 466.9 485.49L86.73 144.076z" clip-rule="evenodd" fill-rule="evenodd" fill="#fff" stroke="#fff" stroke-width=".1"/></mask></defs><g mask="url(#d)"><path fill="#f6f6f6" d="M128.037-1408.406 1408.406 128.037-128.037 1408.406-1408.406-128.037z"/></g><defs><mask id="e"><path d="M32.942-40.47 145.746 94.896l380.17 341.415a600 600 0 0 1-132.58 110.482L126.074 111.29 13.27-24.076-366.9-365.49a600 600 0 0 1 132.58-110.483L32.942-40.469z" clip-rule="evenodd" fill-rule="evenodd" fill="#fff"/></mask></defs><g mask="url(#e)"><path fill="#0c6793" d="M128.037-1408.406 1408.406 128.037-128.037 1408.406-1408.406-128.037z"/></g><defs><mask id="f"><path d="m-19.206-23.047 138.412 166.094 356.616 337.705a600 600 0 0 1-121.83 98.827L86.73 144.076-26.074 8.71l-380.17-341.414a600 600 0 0 1 119.178-102.012l267.86 411.668z" clip-rule="evenodd" fill-rule="evenodd" fill="#fff"/></mask></defs><g mask="url(#f)"><path fill="#0c6793" d="M128.037-1408.406 1408.406 128.037-128.037 1408.406-1408.406-128.037z"/></g><defs><mask id="g"><path d="M-45.746 25.105 67.058 160.469l380.169 341.414a600 600 0 1 1-760.235-912.282L-45.746 25.105z" clip-rule="evenodd" fill-rule="evenodd" fill="#fff"/></mask></defs><g mask="url(#g)"><path fill="#0c6793" d="M128.037-1408.406 1408.406 128.037-128.037 1408.406-1408.406-128.037z"/></g><path d="M32.942-40.47 145.746 94.896m-19.672 16.393L13.27-24.076m-32.476 1.029 138.412 166.094m-32.476 1.029L-26.074 8.71m-19.672 16.395L67.058 160.469" stroke="#333" stroke-width=".5" fill="none" stroke-linecap="round" stroke-linejoin="round"/></g><path d="M0 0h100v120H0z" stroke="#333" stroke-width=".5" fill="none" stroke-linecap="round" stroke-linejoin="round"/></svg>