<svg preserveAspectRatio="xMidYMin slice" viewBox="0 0 120 200" xmlns="http://www.w3.org/2000/svg"><g filter="url(#a)" transform="translate(10 10)"><defs><filter height="200%" id="a" width="200%" x="-20%" y="-20%"><feOffset dx=".2" dy=".2" in="SourceAlpha" result="offsetOut"/><feGaussianBlur in="offsetOut" result="blurOut"/><feBlend in2="blurOut" in="SourceGraphic"/></filter></defs><defs><clipPath id="b"><path clip-rule="evenodd" d="M0 0h100v120H0z" fill-rule="evenodd" fill="#fff"/></clipPath></defs><g clip-path="url(#b)"><path d="M0 0h100v120H0z" fill-rule="evenodd" fill="#f0f0f0"/><g style="pointer-events:visiblePainted;cursor:pointer"><defs><pattern height="80" id="g" patternUnits="userSpaceOnUse" width="50" x="0" y="0"><path d="M0 0h50M0 40l12.5-11.716V11.716L25 0l12.5 11.716v16.568L50 40M0 40h50M0 40l12.5 11.716v16.568L25 80H0m50-40L37.5 51.716v16.568L25 80h25" fill="none" stroke-linecap="round" stroke-linejoin="round" stroke-width=".5" stroke="#333"/></pattern><pattern height="80" id="c" patternUnits="userSpaceOnUse" width="50" x="0" y="0"><path d="M0 0h50v80H0z"/><path d="m0 40 12.5-11.716V11.716L25 0l12.5 11.716v16.568L50 40zm0 0 12.5 11.716v16.568L25 80H0zm50 0L37.5 51.716v16.568L25 80h25z" fill="#fff"/></pattern><pattern height="80" id="e" patternUnits="userSpaceOnUse" width="50" x="0" y="0"><path fill="#fff" d="M0 0h50v80H0z"/><path d="m0 40 12.5-11.716V11.716L25 0l12.5 11.716v16.568L50 40zm0 0 12.5 11.716v16.568L25 80H0zm50 0L37.5 51.716v16.568L25 80h25z"/></pattern></defs><mask id="d"><path fill="url(#c)" d="M-500-500H600V600H-500z"/></mask><g mask="url(#d)"><path fill="#0c6793" style="cursor:pointer" d="M-500-500H600V600H-500z"/></g><mask id="f"><path fill="url(#e)" d="M-500-500H600V600H-500z"/></mask><g mask="url(#f)"><path fill="#f6f6f6" style="cursor:pointer" d="M-500-500H600V600H-500z"/></g><path fill="url(#g)" d="M-500-500H600V600H-500z"/></g></g><path d="M0 0h100v120H0z" fill="none" stroke-linecap="round" stroke-linejoin="round" stroke-width=".5" stroke="#333"/></g></svg>