<svg preserveAspectRatio="xMidYMin slice" viewBox="0 0 120 200" xmlns="http://www.w3.org/2000/svg"><g transform="translate(10 10)"><defs><mask id="a"><path clip-rule="evenodd" d="M0 0h100v120H0z" fill-rule="evenodd" fill="#fff"/></mask></defs><g mask="url(#a)"><path d="M0 0h100v120H0z" fill-rule="evenodd" fill="#f0f0f0"/><defs><mask id="b"><path clip-rule="evenodd" d="M.359-25.98 50 60l49.641-85.98 49.641-85.982L50-138.564l-99.282 26.602z" fill-rule="evenodd" fill="#fff"/><path d="M.359-25.98 50 60l49.641-85.98 49.641-85.982L50-138.564l-99.282 26.602z" fill="none" stroke-width=".1" stroke="#fff"/></mask></defs><g mask="url(#b)"><path fill="#f6f6f6" style="cursor:pointer" d="M-1000-1000h2000v2000h-2000z"/></g><defs><mask id="c"><path clip-rule="evenodd" d="M149.282 60H50l49.641-85.98 49.641-85.982 72.68 72.68L248.564 60z" fill-rule="evenodd" fill="#fff"/><path d="M50 60h99.282" fill="none" stroke-width=".1" stroke="#fff"/></mask></defs><g mask="url(#c)"><path fill="#f2bc51" style="cursor:pointer" d="M-1000-1000h2000v2000h-2000z"/></g><defs><mask id="d"><path clip-rule="evenodd" d="M149.282 60H50l49.641 85.98 49.641 85.982 72.68-72.68L248.564 60z" fill-rule="evenodd" fill="#fff"/><path d="m50 60 49.641 85.98" fill="none" stroke-width=".1" stroke="#fff"/></mask></defs><g mask="url(#d)"><path fill="#f6f6f6" style="cursor:pointer" d="M-1000-1000h2000v2000h-2000z"/></g><defs><mask id="e"><path clip-rule="evenodd" d="M.359 145.98 50 60l49.641 85.98 49.641 85.982L50 258.564l-99.282-26.602z" fill-rule="evenodd" fill="#fff"/><path d="M50 60 .359 145.98" fill="none" stroke-width=".1" stroke="#fff"/></mask></defs><g mask="url(#e)"><path fill="#f2bc51" style="cursor:pointer" d="M-1000-1000h2000v2000h-2000z"/></g><defs><mask id="f"><path clip-rule="evenodd" d="M.359 145.98 50 60h-198.564l26.602 99.282 72.68 72.68z" fill-rule="evenodd" fill="#fff"/><path d="M50 60h-99.282" fill="none" stroke-width=".1" stroke="#fff"/></mask></defs><g mask="url(#f)"><path fill="#f6f6f6" style="cursor:pointer" d="M-1000-1000h2000v2000h-2000z"/></g><defs><mask id="g"><path clip-rule="evenodd" d="M.359-25.98 50 60h-198.564l26.602-99.282 72.68-72.68z" fill-rule="evenodd" fill="#fff"/></mask></defs><g mask="url(#g)"><path fill="#f2bc51" style="cursor:pointer" d="M-1000-1000h2000v2000h-2000z"/></g><path d="m50 60 49.641-85.98M50 60h99.282M50 60l49.641 85.98M50 60 .359 145.98M50 60h-99.282M50 60 .359-25.98" fill="none" stroke-linecap="round" stroke-linejoin="round" stroke-width=".5" stroke="#333"/></g><path d="M0 0h100v120H0z" fill="none" stroke-linecap="round" stroke-linejoin="round" stroke-width=".5" stroke="#333"/></g></svg>