<svg preserveAspectRatio="xMidYMin slice" viewBox="0 0 120 200" xmlns="http://www.w3.org/2000/svg"><g transform="translate(10 10)"><defs><mask id="a"><path clip-rule="evenodd" d="M0 0h100v120H0z" fill-rule="evenodd" fill="#fff"/></mask></defs><g mask="url(#a)"><path d="M0 0h100v120H0z" fill-rule="evenodd" fill="#f0f0f0"/><defs><mask id="b"><path clip-rule="evenodd" d="M-78.037-93.644 50 60 178.037-93.644 306.074-1000h-384.11v906.356z" fill-rule="evenodd" fill="#fff"/><path d="M-78.037-93.644 50 60 178.037-93.644 306.074-1000h-384.11v906.356z" fill="none" stroke-width=".1" stroke="#fff"/></mask></defs><g mask="url(#b)"><path fill="#f6f6f6" style="cursor:pointer" d="M-1000-1000h2000v2000h-2000z"/></g><defs><mask id="c"><path clip-rule="evenodd" d="M50 120V60L178.037-93.644 306.074-1000H1000v2000H50V367.289z" fill-rule="evenodd" fill="#fff"/><path d="M50 367.289v-60" fill="none" stroke-width=".1" stroke="#fff"/></mask></defs><g mask="url(#c)"><path fill="#f2bc51" style="cursor:pointer" d="M-1000-1000h2000v2000h-2000z"/></g><defs><mask id="d"><path clip-rule="evenodd" d="M-78.037-93.644 50 60v940h-1050v-2000h921.963v906.356z" fill-rule="evenodd" fill="#fff"/></mask></defs><g mask="url(#d)"><path fill="#333" style="cursor:pointer" d="M-1000-1000h2000v2000h-2000z"/></g><path d="M-78.037-93.644 50 60m0 0L178.037-93.644M50 60v60" fill="none" stroke-linecap="round" stroke-linejoin="round" stroke-width=".5" stroke="#333"/></g><path d="M0 0h100v120H0z" fill="none" stroke-linecap="round" stroke-linejoin="round" stroke-width=".5" stroke="#333"/></g></svg>