<?xml version="1.0" encoding="UTF-8" standalone="no"?>
<svg xmlns="http://www.w3.org/2000/svg" viewBox="-10 -10 120 140" preserveAspectRatio="xMidYMin slice"><defs><mask id="a"><path d="M0 0h100v120H0z" clip-rule="evenodd" fill-rule="evenodd" fill="#fff"/></mask></defs><g mask="url(#a)"><path d="M0 0h100v120H0z" fill-rule="evenodd" fill="#f0f0f0"/><defs><pattern id="f" width="50" height="80" x="0" y="0" patternUnits="userSpaceOnUse"><path d="M0 0h50M0 40l12.5-11.716V11.716L25 0l12.5 11.716v16.568L50 40M0 40h50M0 40l12.5 11.716v16.568L25 80H0m50-40L37.5 51.716v16.568L25 80h25" stroke="#333" stroke-width=".5" fill="none" stroke-linecap="round" stroke-linejoin="round"/></pattern><pattern id="b" width="50" height="80" x="0" y="0" patternUnits="userSpaceOnUse"><path shape-rendering="crispEdges" d="M-1-1h52v82H-1z"/><g fill="#fff"><path d="m0 40 12.5-11.716V11.716L25 0l12.5 11.716v16.568L50 40z"/><path d="m-1 39 1 1 12.5 11.716v16.568L26 81H-1z"/><path d="m51 39-1 1-12.5 11.716v16.568L24 81h27z"/></g></pattern><pattern id="d" width="50" height="80" x="0" y="0" patternUnits="userSpaceOnUse"><path shape-rendering="crispEdges" fill="#fff" d="M-1-1h52v82H-1z"/><path d="m0 40 12.5-11.716V11.716L25 0l12.5 11.716v16.568L50 40z"/><path d="m-1 39 1 1 12.5 11.716v16.568L26 81H-1z"/><path d="m51 39-1 1-12.5 11.716v16.568L24 81h27z"/></pattern></defs><mask id="c"><path fill="url(#b)" d="M-500-500H600V600H-500z"/></mask><g mask="url(#c)"><path fill="#f2bc51" d="M-1000-1000h2000v2000h-2000z"/></g><mask id="e"><path fill="url(#d)" d="M-500-500H600V600H-500z"/></mask><g mask="url(#e)"><path fill="#f6f6f6" d="M-1000-1000h2000v2000h-2000z"/></g><path fill="url(#f)" d="M-500-500H600V600H-500z"/></g><path d="M0 0h100v120H0z" stroke="#333" stroke-width=".5" fill="none" stroke-linecap="round" stroke-linejoin="round"/></svg>