<svg preserveAspectRatio="xMidYMin slice" viewBox="-10 -10 120 140" xmlns="http://www.w3.org/2000/svg"><defs><mask id="a"><path clip-rule="evenodd" d="M0 0h100v120H0z" fill-rule="evenodd" fill="#fff"/></mask></defs><g mask="url(#a)"><path d="M0 0h100v120H0z" fill-rule="evenodd" fill="#f0f0f0"/><defs><mask id="b"><path clip-rule="evenodd" d="M16.667-30v180L-158.39 622.65a600 600 0 0 1 0-1125.3L16.667-30z" fill-rule="evenodd" fill="#fff" stroke-width=".1" stroke="#fff"/></mask></defs><g mask="url(#b)"><path fill="#f6f6f6" style="cursor:pointer" d="M-1000-1000h2000v2000h-2000z"/></g><defs><mask id="c"><path clip-rule="evenodd" d="M33.333 150V-30l-92.587-499.97A600 600 0 0 1 50-540V660a600 600 0 0 1-109.254-10.03L33.333 150z" fill-rule="evenodd" fill="#fff" stroke-width=".1" stroke="#fff"/></mask></defs><g mask="url(#c)"><path fill="#f6f6f6" style="cursor:pointer" d="M-1000-1000h2000v2000h-2000z"/></g><defs><mask id="d"><path clip-rule="evenodd" d="M66.667 150V-30l92.587-499.97a600 600 0 0 1 99.135 27.32L83.333-30v180L258.39 622.65a600 600 0 0 1-99.135 27.32L66.667 150z" fill-rule="evenodd" fill="#fff" stroke-width=".1" stroke="#fff"/></mask></defs><g mask="url(#d)"><path fill="#f6f6f6" style="cursor:pointer" d="M-1000-1000h2000v2000h-2000z"/></g><defs><mask id="e"><path clip-rule="evenodd" d="M16.667-30v180L-158.39 622.65a600 600 0 0 0 99.135 27.32L33.333 150V-30l-92.587-499.97a600 600 0 0 0-99.135 27.32L16.667-30z" fill-rule="evenodd" fill="#fff"/></mask></defs><g mask="url(#e)"><path fill="#f2bc51" style="cursor:pointer" d="M-1000-1000h2000v2000h-2000z"/></g><defs><mask id="f"><path clip-rule="evenodd" d="M50-30v690a600 600 0 0 0 109.254-10.03L66.667 150V-30l92.587-499.97A600 600 0 0 0 50-540v510z" fill-rule="evenodd" fill="#fff"/></mask></defs><g mask="url(#f)"><path fill="#f2bc51" style="cursor:pointer" d="M-1000-1000h2000v2000h-2000z"/></g><defs><mask id="g"><path clip-rule="evenodd" d="M83.333-30v180L258.39 622.65a600 600 0 0 0 0-1125.3L83.333-30z" fill-rule="evenodd" fill="#fff"/></mask></defs><g mask="url(#g)"><path fill="#f2bc51" style="cursor:pointer" d="M-1000-1000h2000v2000h-2000z"/></g><path d="M16.667-30v180m16.666 0V-30M50-30v180m16.667 0V-30m16.666 0v180" fill="none" stroke-linecap="round" stroke-linejoin="round" stroke-width=".5" stroke="#333"/></g><path d="M0 0h100v120H0z" fill="none" stroke-linecap="round" stroke-linejoin="round" stroke-width=".5" stroke="#333"/></svg>