<svg preserveAspectRatio="xMidYMin slice" viewBox="0 0 120 200" xmlns="http://www.w3.org/2000/svg"><g transform="translate(10 10)"><defs><mask id="a"><path clip-rule="evenodd" d="M0 0h100v120H0z" fill-rule="evenodd" fill="#fff"/></mask></defs><g mask="url(#a)"><path d="M0 0h100v120H0z" fill-rule="evenodd" fill="#f0f0f0"/><defs><mask id="b"><path clip-rule="evenodd" d="M50-48.1V60L-78.037-93.644H-1000V-1000H50v951.9z" fill-rule="evenodd" fill="#fff"/><path d="M50-48.1V60L-78.037-93.644H-1000V-1000H50v951.9z" fill="none" stroke-width=".1" stroke="#fff"/></mask></defs><g mask="url(#b)"><path fill="#f6f6f6" style="cursor:pointer" d="M-1000-1000h2000v2000h-2000z"/></g><defs><mask id="c"><path clip-rule="evenodd" d="M50-48.1V60L178.037-93.644H1000V-1000H50v951.9z" fill-rule="evenodd" fill="#fff"/><path d="M50 60 178.037-93.644" fill="none" stroke-width=".1" stroke="#fff"/></mask></defs><g mask="url(#c)"><path fill="#f2bc51" style="cursor:pointer" d="M-1000-1000h2000v2000h-2000z"/></g><defs><mask id="d"><path clip-rule="evenodd" d="M-58.1 60H50L-78.037-93.644H-1000V60h941.9z" fill-rule="evenodd" fill="#fff"/><path d="M-58.1 60H50" fill="none" stroke-width=".1" stroke="#fff"/></mask></defs><g mask="url(#d)"><path fill="#f2bc51" style="cursor:pointer" d="M-1000-1000h2000v2000h-2000z"/></g><defs><mask id="e"><path clip-rule="evenodd" d="M158.1 60H50L178.037-93.644H1000V60H158.1z" fill-rule="evenodd" fill="#fff"/><path d="M158.1 60H50" fill="none" stroke-width=".1" stroke="#fff"/></mask></defs><g mask="url(#e)"><path fill="#f6f6f6" style="cursor:pointer" d="M-1000-1000h2000v2000h-2000z"/></g><defs><mask id="f"><path clip-rule="evenodd" d="M-58.1 60H50L-78.037 213.644H-1000V60h941.9z" fill-rule="evenodd" fill="#fff"/><path d="M50 60-78.037 213.644" fill="none" stroke-width=".1" stroke="#fff"/></mask></defs><g mask="url(#f)"><path fill="#f6f6f6" style="cursor:pointer" d="M-1000-1000h2000v2000h-2000z"/></g><defs><mask id="g"><path clip-rule="evenodd" d="M158.1 60H50l128.037 153.644H1000V60H158.1z" fill-rule="evenodd" fill="#fff"/><path d="m50 60 128.037 153.644" fill="none" stroke-width=".1" stroke="#fff"/></mask></defs><g mask="url(#g)"><path fill="#f2bc51" style="cursor:pointer" d="M-1000-1000h2000v2000h-2000z"/></g><defs><mask id="h"><path clip-rule="evenodd" d="M50 168.1V60L-78.037 213.644H-1000V1000H50V168.1z" fill-rule="evenodd" fill="#fff"/><path d="M50 168.1V60" fill="none" stroke-width=".1" stroke="#fff"/></mask></defs><g mask="url(#h)"><path fill="#f2bc51" style="cursor:pointer" d="M-1000-1000h2000v2000h-2000z"/></g><defs><mask id="i"><path clip-rule="evenodd" d="M50 168.1V60l128.037 153.644H1000V1000H50V168.1z" fill-rule="evenodd" fill="#fff"/></mask></defs><g mask="url(#i)"><path fill="#f6f6f6" style="cursor:pointer" d="M-1000-1000h2000v2000h-2000z"/></g><path d="M50 60-78.037-93.644M50-48.1V60m0 0L178.037-93.644M158.1 60H50m0 0 128.037 153.644M50 168.1V60m0 0L-78.037 213.644M-58.1 60H50" fill="none" stroke-linecap="round" stroke-linejoin="round" stroke-width=".5" stroke="#333"/></g><path d="M0 0h100v120H0z" fill="none" stroke-linecap="round" stroke-linejoin="round" stroke-width=".5" stroke="#333"/></g></svg>