<?xml version="1.0" encoding="UTF-8" standalone="no"?>
<svg xmlns="http://www.w3.org/2000/svg" preserveAspectRatio="xMidYMin slice" viewBox="-10 -10 120 140"><defs><mask id="a"><path fill="#fff" fill-rule="evenodd" d="M0 0h100v120H0z" clip-rule="evenodd"/></mask></defs><g mask="url(#a)"><path fill="#f0f0f0" fill-rule="evenodd" d="M0 0h100v120H0z"/><defs><pattern id="f" width="50" height="80" x="0" y="0" patternUnits="userSpaceOnUse"><path fill="none" stroke="#333" stroke-linecap="round" stroke-linejoin="round" stroke-width=".5" d="M0 0h50M0 40l12.5-11.716V11.716L25 0l12.5 11.716v16.568L50 40M0 40h50M0 40l12.5 11.716v16.568L25 80H0m50-40L37.5 51.716v16.568L25 80h25"/></pattern><pattern id="b" width="50" height="80" x="0" y="0" patternUnits="userSpaceOnUse"><path d="M-1-1h52v82H-1z" shape-rendering="crispEdges"/><g fill="#fff"><path d="m0 40 12.5-11.716V11.716L25 0l12.5 11.716v16.568L50 40z"/><path d="m-1 39 1 1 12.5 11.716v16.568L26 81H-1z"/><path d="m51 39-1 1-12.5 11.716v16.568L24 81h27z"/></g></pattern><pattern id="d" width="50" height="80" x="0" y="0" patternUnits="userSpaceOnUse"><path fill="#fff" d="M-1-1h52v82H-1z" shape-rendering="crispEdges"/><path d="m0 40 12.5-11.716V11.716L25 0l12.5 11.716v16.568L50 40z"/><path d="m-1 39 1 1 12.5 11.716v16.568L26 81H-1z"/><path d="m51 39-1 1-12.5 11.716v16.568L24 81h27z"/></pattern></defs><mask id="c"><path fill="url(#b)" d="M-500-500H600V600H-500z"/></mask><g mask="url(#c)"><path fill="#0c6793" d="M-1000-1000h2000v2000h-2000z"/></g><mask id="e"><path fill="url(#d)" d="M-500-500H600V600H-500z"/></mask><g mask="url(#e)"><path fill="#f6f6f6" d="M-1000-1000h2000v2000h-2000z"/></g><path fill="url(#f)" d="M-500-500H600V600H-500z"/></g><path fill="none" stroke="#333" stroke-linecap="round" stroke-linejoin="round" stroke-width=".5" d="M0 0h100v120H0z"/></svg>