<svg preserveAspectRatio="xMidYMin slice" viewBox="0 0 120 200" xmlns="http://www.w3.org/2000/svg"><g transform="translate(10 10)"><defs><mask id="a"><path clip-rule="evenodd" d="M0 0h100v120H0z" fill-rule="evenodd" fill="#fff"/></mask></defs><g mask="url(#a)"><path d="M0 0h100v120H0z" fill-rule="evenodd" fill="#f0f0f0"/><defs><mask id="b"><path clip-rule="evenodd" d="M33.333-30v1030H-1000v-2000H33.333v970z" fill-rule="evenodd" fill="#fff"/><path d="M33.333-30v1030H-1000v-2000H33.333v970z" fill="none" stroke-width=".1" stroke="#fff"/></mask></defs><g mask="url(#b)"><path fill="#f6f6f6" style="cursor:pointer" d="M-1000-1000h2000v2000h-2000z"/></g><defs><mask id="c"><path clip-rule="evenodd" d="M66.667 180v-1180H33.333v2000h33.334V180z" fill-rule="evenodd" fill="#fff"/><path d="M66.667 180V-30" fill="none" stroke-width=".1" stroke="#fff"/></mask></defs><g mask="url(#c)"><path fill="#f2bc51" style="cursor:pointer" d="M-1000-1000h2000v2000h-2000z"/></g><defs><mask id="d"><path clip-rule="evenodd" d="M66.667 180v-1180H1000v2000H66.667V180z" fill-rule="evenodd" fill="#fff"/></mask></defs><g mask="url(#d)"><path fill="#333" style="cursor:pointer" d="M-1000-1000h2000v2000h-2000z"/></g><path d="M33.333-30v210m33.334 0V-30" fill="none" stroke-linecap="round" stroke-linejoin="round" stroke-width=".5" stroke="#333"/></g><path d="M0 0h100v120H0z" fill="none" stroke-linecap="round" stroke-linejoin="round" stroke-width=".5" stroke="#333"/></g></svg>