<svg preserveAspectRatio="xMidYMin slice" viewBox="0 0 120 200" xmlns="http://www.w3.org/2000/svg"><g filter="url(#a)" transform="translate(10 10)"><defs><filter height="200%" id="a" width="200%" x="-20%" y="-20%"><feOffset dx=".2" dy=".2" in="SourceAlpha" result="offsetOut"/><feGaussianBlur in="offsetOut" result="blurOut"/><feBlend in2="blurOut" in="SourceGraphic"/></filter></defs><defs><clipPath id="b"><path clip-rule="evenodd" d="M0 0h100v120H0z" fill-rule="evenodd" fill="#fff"/></clipPath></defs><g clip-path="url(#b)"><path d="M0 0h100v120H0z" fill-rule="evenodd" fill="#f0f0f0"/><g style="pointer-events:visiblePainted;cursor:pointer"><defs><clipPath id="c"><path clip-rule="evenodd" d="M0 30h33.333v-1030H-1000V30H0z" fill-rule="evenodd" fill="#fff"/></clipPath></defs><g style="pointer-events:visiblePainted;cursor:pointer" clip-path="url(#c)"><path fill="#f6f6f6" style="cursor:pointer" d="M-500-500H600V600H-500z"/></g><defs><clipPath id="d"><path clip-rule="evenodd" d="M33.333 0v30h33.334v-1030H33.333V0z" fill-rule="evenodd" fill="#fff"/></clipPath></defs><g style="pointer-events:visiblePainted;cursor:pointer" clip-path="url(#d)"><path fill="#0c6793" style="cursor:pointer" d="M-500-500H600V600H-500z"/></g><defs><clipPath id="e"><path clip-rule="evenodd" d="M66.667 0v30H1000v-1030H66.667V0z" fill-rule="evenodd" fill="#fff"/></clipPath></defs><g style="pointer-events:visiblePainted;cursor:pointer" clip-path="url(#e)"><path fill="#f6f6f6" style="cursor:pointer" d="M-500-500H600V600H-500z"/></g><defs><clipPath id="f"><path clip-rule="evenodd" d="M0 30h33.333v30H-1000V30H0z" fill-rule="evenodd" fill="#fff"/></clipPath></defs><g style="pointer-events:visiblePainted;cursor:pointer" clip-path="url(#f)"><path fill="#0c6793" style="cursor:pointer" d="M-500-500H600V600H-500z"/></g><defs><clipPath id="g"><path clip-rule="evenodd" d="M33.333 30h33.334v30H33.333z" fill-rule="evenodd" fill="#fff"/></clipPath></defs><g style="pointer-events:visiblePainted;cursor:pointer" clip-path="url(#g)"><path fill="#f6f6f6" style="cursor:pointer" d="M-500-500H600V600H-500z"/></g><defs><clipPath id="h"><path clip-rule="evenodd" d="M100 60H66.667V30H1000v30H100z" fill-rule="evenodd" fill="#fff"/></clipPath></defs><g style="pointer-events:visiblePainted;cursor:pointer" clip-path="url(#h)"><path fill="#0c6793" style="cursor:pointer" d="M-500-500H600V600H-500z"/></g><defs><clipPath id="i"><path clip-rule="evenodd" d="M0 60h33.333v30H-1000V60H0z" fill-rule="evenodd" fill="#fff"/></clipPath></defs><g style="pointer-events:visiblePainted;cursor:pointer" clip-path="url(#i)"><path fill="#f6f6f6" style="cursor:pointer" d="M-500-500H600V600H-500z"/></g><defs><clipPath id="j"><path clip-rule="evenodd" d="M33.333 60h33.334v30H33.333z" fill-rule="evenodd" fill="#fff"/></clipPath></defs><g style="pointer-events:visiblePainted;cursor:pointer" clip-path="url(#j)"><path fill="#0c6793" style="cursor:pointer" d="M-500-500H600V600H-500z"/></g><defs><clipPath id="k"><path clip-rule="evenodd" d="M100 90H66.667V60H1000v30H100z" fill-rule="evenodd" fill="#fff"/></clipPath></defs><g style="pointer-events:visiblePainted;cursor:pointer" clip-path="url(#k)"><path fill="#f6f6f6" style="cursor:pointer" d="M-500-500H600V600H-500z"/></g><defs><clipPath id="l"><path clip-rule="evenodd" d="M0 90h33.333v910H-1000V90H0z" fill-rule="evenodd" fill="#fff"/></clipPath></defs><g style="pointer-events:visiblePainted;cursor:pointer" clip-path="url(#l)"><path fill="#0c6793" style="cursor:pointer" d="M-500-500H600V600H-500z"/></g><defs><clipPath id="m"><path clip-rule="evenodd" d="M33.333 120V90h33.334v910H33.333V120z" fill-rule="evenodd" fill="#fff"/></clipPath></defs><g style="pointer-events:visiblePainted;cursor:pointer" clip-path="url(#m)"><path fill="#f6f6f6" style="cursor:pointer" d="M-500-500H600V600H-500z"/></g><defs><clipPath id="n"><path clip-rule="evenodd" d="M66.667 120V90H1000v910H66.667V120z" fill-rule="evenodd" fill="#fff"/></clipPath></defs><g style="pointer-events:visiblePainted;cursor:pointer" clip-path="url(#n)"><path fill="#0c6793" style="cursor:pointer" d="M-500-500H600V600H-500z"/></g><path d="M33.333-50v220M66.667-50v220M-50 30h200M-50 60h200M-50 90h200" fill="none" stroke-linecap="round" stroke-linejoin="round" stroke-width=".5" stroke="#333"/></g></g><path d="M0 0h100v120H0z" fill="none" stroke-linecap="round" stroke-linejoin="round" stroke-width=".5" stroke="#333"/></g></svg>