<?xml version="1.0" encoding="UTF-8" standalone="no"?>
<svg xmlns="http://www.w3.org/2000/svg" viewBox="-10 -10 120 140" preserveAspectRatio="xMidYMin slice"><defs><mask id="a"><path d="M0 0h100v120H0z" clip-rule="evenodd" fill-rule="evenodd" fill="#fff"/></mask></defs><g mask="url(#a)"><path d="M0 0h100v120H0z" fill-rule="evenodd" fill="#f0f0f0"/><defs><mask id="b"><path d="M32.915-39.822 144.97 94.644l167.219 394.433a600 600 0 1 0-766.207-274.99L32.915-39.824z" clip-rule="evenodd" fill-rule="evenodd" fill="#fff" stroke="#fff" stroke-width=".1"/></mask></defs><g mask="url(#b)"><path fill="#f6f6f6" style="cursor:pointer" d="M-1000-1000h2000v2000h-2000z" transform="rotate(50.194)"/></g><defs><mask id="c"><path d="M125.686 110.714 13.63-23.752l-527.62-87.105a600 600 0 0 0-4.864 36.343l500.397 51.467L119.206 142.15 231.904 566.8a600 600 0 0 0 61.709-20.005l-167.927-436.08z" clip-rule="evenodd" fill-rule="evenodd" fill="#fff" stroke="#fff" stroke-width=".1"/></mask></defs><g mask="url(#c)"><path fill="#f6f6f6" style="cursor:pointer" d="M-1000-1000h2000v2000h-2000z" transform="rotate(50.194)"/></g><defs><mask id="d"><path d="M87.118 142.854-24.938 8.388l-475.034-132.405a600 600 0 0 0-18.857 99.466l474.607 49.009L67.834 158.924l-39.71 476.078a600 600 0 0 0 101.418-.142L87.118 142.854z" clip-rule="evenodd" fill-rule="evenodd" fill="#fff" stroke="#fff" stroke-width=".1"/></mask></defs><g mask="url(#d)"><path fill="#f6f6f6" style="cursor:pointer" d="M-1000-1000h2000v2000h-2000z" transform="rotate(50.194)"/></g><defs><mask id="e"><path d="M32.915-39.822 144.97 94.644 348.055 497.56a600 600 0 0 1-87.098 35.636L125.686 110.714 13.63-23.752-507.382 93.422A600 600 0 0 1-521.628-59.43L32.915-39.822z" clip-rule="evenodd" fill-rule="evenodd" fill="#fff"/></mask></defs><g mask="url(#e)"><path fill="#0c6793" style="cursor:pointer" d="M-1000-1000h2000v2000h-2000z" transform="rotate(50.194)"/></g><defs><mask id="f"><path d="M-18.457-23.047 119.206 142.15 259.08 583.998a600 600 0 0 1-139.372 26.527l-32.591-467.67L-24.938 8.387l-496.7-17.316a600 600 0 0 1 35.663-183.876L-18.457-23.047z" clip-rule="evenodd" fill-rule="evenodd" fill="#fff"/></mask></defs><g mask="url(#f)"><path fill="#0c6793" style="cursor:pointer" d="M-1000-1000h2000v2000h-2000z" transform="rotate(50.194)"/></g><defs><mask id="g"><path d="M-44.222 24.458 67.834 158.924 15.309 658.897a600 600 0 0 1-510.625-773.67l451.094 139.23z" clip-rule="evenodd" fill-rule="evenodd" fill="#fff"/></mask></defs><g mask="url(#g)"><path fill="#0c6793" style="cursor:pointer" d="M-1000-1000h2000v2000h-2000z" transform="rotate(50.194)"/></g><path d="M32.915-39.822 144.97 94.644m-19.284 16.07L13.63-23.752m-32.087.705L119.206 142.15m-32.088.704L-24.938 8.388m-19.284 16.07L67.834 158.924" stroke="#333" stroke-width=".5" fill="none" stroke-linecap="round" stroke-linejoin="round"/></g><path d="M0 0h100v120H0z" stroke="#333" stroke-width=".5" fill="none" stroke-linecap="round" stroke-linejoin="round"/></svg>