<svg preserveAspectRatio="xMidYMin slice" viewBox="0 0 120 200" xmlns="http://www.w3.org/2000/svg"><g filter="url(#a)" transform="translate(10 10)"><defs><filter height="200%" id="a" width="200%" x="-20%" y="-20%"><feOffset dx=".2" dy=".2" in="SourceAlpha" result="offsetOut"/><feGaussianBlur in="offsetOut" result="blurOut"/><feBlend in2="blurOut" in="SourceGraphic"/></filter></defs><defs><mask id="b"><path d="M0 0h100v120H0z" fill="#fff"/></mask></defs><g mask="url(#b)"><path d="M0 0h100v120H0z" fill="#f0f0f0"/><g style="pointer-events:visiblePainted;cursor:pointer"><defs><mask id="c"><path d="M-78.037-93.644 50 60 178.037-93.644 306.074-1000h-384.11v906.356z" fill="#fff"/><path d="M-78.037-93.644 50 60 178.037-93.644 306.074-1000h-384.11v906.356z" fill="none" stroke-width=".1" stroke="#fff"/></mask></defs><g mask="url(#c)"><path fill="#f6f6f6" d="M-500-500H600V600H-500z" style="pointer-events:visiblePainted;cursor:pointer"/></g><defs><mask id="d"><path d="M50 120V60L178.037-93.644 306.074-1000H1000v2000H50V367.289z" fill="#fff"/><path d="M50 367.289v-60" fill="none" stroke-width=".1" stroke="#fff"/></mask></defs><g mask="url(#d)"><path fill="#f2bc51" d="M-500-500H600V600H-500z" style="pointer-events:visiblePainted;cursor:pointer"/></g><defs><mask id="e"><path d="M-78.037-93.644 50 60v940h-1050v-2000h921.963v906.356z" fill="#fff"/></mask></defs><g mask="url(#e)"><path fill="#333" d="M-500-500H600V600H-500z" style="pointer-events:visiblePainted;cursor:pointer"/></g><path d="M-78.037-93.644 50 60m0 0L178.037-93.644M50 60v60" fill="none" stroke-linecap="round" stroke-linejoin="round" stroke-width=".5" stroke="#333"/></g></g><path d="M0 0h100v120H0z" fill="none" stroke-linecap="round" stroke-linejoin="round" stroke-width=".5" stroke="#333"/></g></svg>