<?xml version="1.0" encoding="UTF-8" standalone="no"?>
<svg xmlns="http://www.w3.org/2000/svg" preserveAspectRatio="xMidYMin slice" viewBox="-10 -10 120 140"><defs><mask id="a"><path fill="#fff" fill-rule="evenodd" d="M0 0h100v120H0z" clip-rule="evenodd"/></mask></defs><g mask="url(#a)"><path fill="#f0f0f0" fill-rule="evenodd" d="M0 0h100v120H0z"/><defs><mask id="b"><path fill="#fff" fill-rule="evenodd" stroke="#fff" stroke-width=".1" d="M119.206 143.047 50 60l-69.206 83.047L-426.2 455.012a600 600 0 0 0 952.4 0L119.206 143.047z" clip-rule="evenodd"/></mask></defs><g mask="url(#b)"><path fill="#f6f6f6" d="M-1000-1000h2000v2000h-2000z"/></g><defs><mask id="c"><path fill="#fff" fill-rule="evenodd" stroke="#fff" stroke-width=".1" d="M-19.206-23.047 50 60l69.206-83.047L526.2-335.012a600 600 0 0 0-952.4 0L-19.206-23.047z" clip-rule="evenodd"/></mask></defs><g mask="url(#c)"><path fill="#f6f6f6" d="M-1000-1000h2000v2000h-2000z"/></g><defs><mask id="d"><path fill="#fff" fill-rule="evenodd" d="M-19.206-23.047 50 60l-69.206 83.047-237.72 446.592a600 600 0 0 1 0-1059.278l237.72 446.592z" clip-rule="evenodd"/></mask></defs><g mask="url(#d)"><path fill="#0c6793" d="M-1000-1000h2000v2000h-2000z"/></g><defs><mask id="e"><path fill="#fff" fill-rule="evenodd" d="M119.206 143.047 50 60l69.206-83.047 237.72-446.592a600 600 0 0 1 0 1059.278l-237.72-446.592z" clip-rule="evenodd"/></mask></defs><g mask="url(#e)"><path fill="#0c6793" d="M-1000-1000h2000v2000h-2000z"/></g><path fill="none" stroke="#333" stroke-linecap="round" stroke-linejoin="round" stroke-width=".5" d="M-19.206-23.047 50 60m69.206 83.047L50 60m0 0-69.206 83.047M50 60l69.206-83.047"/></g><path fill="none" stroke="#333" stroke-linecap="round" stroke-linejoin="round" stroke-width=".5" d="M0 0h100v120H0z"/></svg>