<svg preserveAspectRatio="xMidYMin slice" viewBox="-10 -10 120 140" xmlns="http://www.w3.org/2000/svg"><defs><mask id="a"><path clip-rule="evenodd" d="M0 0h100v120H0z" fill-rule="evenodd" fill="#fff"/></mask></defs><g mask="url(#a)"><path d="M0 0h100v120H0z" fill-rule="evenodd" fill="#f0f0f0"/><defs><mask id="b"><path clip-rule="evenodd" d="M.359-25.98 50 60l49.641-85.98L350-459.616a600 600 0 0 0-600 0L.359-25.981z" fill-rule="evenodd" fill="#fff" stroke-width=".1" stroke="#fff"/></mask></defs><g mask="url(#b)"><path fill="#f6f6f6" style="cursor:pointer" d="M-1000-1000h2000v2000h-2000z"/></g><defs><mask id="c"><path clip-rule="evenodd" d="M130 60H50l49.641 85.98L350 579.616A600 600 0 0 0 650 60H130z" fill-rule="evenodd" fill="#fff" stroke-width=".1" stroke="#fff"/></mask></defs><g mask="url(#c)"><path fill="#f6f6f6" style="cursor:pointer" d="M-1000-1000h2000v2000h-2000z"/></g><defs><mask id="d"><path clip-rule="evenodd" d="M.359 145.98 50 60h-600a600 600 0 0 0 300 519.615L.359 145.981z" fill-rule="evenodd" fill="#fff" stroke-width=".1" stroke="#fff"/></mask></defs><g mask="url(#d)"><path fill="#f6f6f6" style="cursor:pointer" d="M-1000-1000h2000v2000h-2000z"/></g><defs><mask id="e"><path clip-rule="evenodd" d="M130 60H50l49.641-85.98L350-459.616A600 600 0 0 1 650 60H130z" fill-rule="evenodd" fill="#fff"/></mask></defs><g mask="url(#e)"><path fill="#0c6793" style="cursor:pointer" d="M-1000-1000h2000v2000h-2000z"/></g><defs><mask id="f"><path clip-rule="evenodd" d="M.359 145.98 50 60l49.641 85.98L350 579.616a600 600 0 0 1-600 0L.359 145.981z" fill-rule="evenodd" fill="#fff"/></mask></defs><g mask="url(#f)"><path fill="#0c6793" style="cursor:pointer" d="M-1000-1000h2000v2000h-2000z"/></g><defs><mask id="g"><path clip-rule="evenodd" d="M.359-25.98 50 60h-600a600 600 0 0 1 300-519.615L.359-25.981z" fill-rule="evenodd" fill="#fff"/></mask></defs><g mask="url(#g)"><path fill="#0c6793" style="cursor:pointer" d="M-1000-1000h2000v2000h-2000z"/></g><path d="M.359-25.98 50 60m0 0 49.641-85.98M130 60H50m0 0 49.641 85.98m-99.282 0L50 60m0 0h-80" fill="none" stroke-linecap="round" stroke-linejoin="round" stroke-width=".5" stroke="#333"/></g><path d="M0 0h100v120H0z" fill="none" stroke-linecap="round" stroke-linejoin="round" stroke-width=".5" stroke="#333"/></svg>