<?xml version="1.0" encoding="UTF-8" standalone="no"?>
<svg xmlns="http://www.w3.org/2000/svg" viewBox="-10 -10 120 140" preserveAspectRatio="xMidYMin slice"><defs><mask id="a"><path d="M0 0h100v120H0z" clip-rule="evenodd" fill-rule="evenodd" fill="#fff"/></mask></defs><g mask="url(#a)"><path d="M0 0h100v120H0z" fill-rule="evenodd" fill="#f0f0f0"/><defs><mask id="b"><path d="M32.942-40.47 145.746 94.896l167.35 393.153a600 600 0 1 0-767.004-274.642L32.942-40.469z" clip-rule="evenodd" fill-rule="evenodd" fill="#fff" stroke="#fff" stroke-width=".1"/></mask></defs><g mask="url(#b)"><path fill="#f6f6f6" d="M128.037-1408.406 1408.406 128.037-128.037 1408.406-1408.406-128.037z"/></g><defs><mask id="c"><path d="M126.074 111.289 13.27-24.076l-526.3-91.504a600 600 0 0 0-5.57 39.965l499.394 52.568 138.412 166.094L231.11 567.359a600 600 0 0 0 63.336-20.524L126.074 111.289z" clip-rule="evenodd" fill-rule="evenodd" fill="#fff" stroke="#fff" stroke-width=".1"/></mask></defs><g mask="url(#c)"><path fill="#f6f6f6" d="M128.037-1408.406 1408.406 128.037-128.037 1408.406-1408.406-128.037z"/></g><defs><mask id="d"><path d="M86.73 144.076-26.074 8.71l-472.833-134.8a600 600 0 0 0-19.557 100.404l472.718 50.79L67.058 160.469 24.03 635.97a600 600 0 0 0 102.898.452L86.73 144.076z" clip-rule="evenodd" fill-rule="evenodd" fill="#fff" stroke="#fff" stroke-width=".1"/></mask></defs><g mask="url(#d)"><path fill="#f6f6f6" d="M128.037-1408.406 1408.406 128.037-128.037 1408.406-1408.406-128.037z"/></g><defs><mask id="e"><path d="M32.942-40.47 145.746 94.896l203.86 401.75a600 600 0 0 1-88.404 36.324L126.074 111.29 13.27-24.076-507.747 91.13a600 600 0 0 1-13.528-156.855L32.942-40.469z" clip-rule="evenodd" fill-rule="evenodd" fill="#fff"/></mask></defs><g mask="url(#e)"><path fill="#0c6793" d="M128.037-1408.406 1408.406 128.037-128.037 1408.406-1408.406-128.037z"/></g><defs><mask id="f"><path d="m-19.206-23.047 138.412 166.094 139.47 441.94a600 600 0 0 1-141.226 26.525L86.73 144.076-26.074 8.71l-495.361-19.46a600 600 0 0 1 36.532-183.87L-19.206-23.048z" clip-rule="evenodd" fill-rule="evenodd" fill="#fff"/></mask></defs><g mask="url(#f)"><path fill="#0c6793" d="M128.037-1408.406 1408.406 128.037-128.037 1408.406-1408.406-128.037z"/></g><defs><mask id="g"><path d="M-45.746 25.105 67.058 160.469 9.84 660.123a600 600 0 0 1-504.147-775.958l448.56 140.94z" clip-rule="evenodd" fill-rule="evenodd" fill="#fff"/></mask></defs><g mask="url(#g)"><path fill="#0c6793" d="M128.037-1408.406 1408.406 128.037-128.037 1408.406-1408.406-128.037z"/></g><path d="M32.942-40.47 145.746 94.896m-19.672 16.393L13.27-24.076m-32.476 1.029 138.412 166.094m-32.476 1.029L-26.074 8.71m-19.672 16.395L67.058 160.469" stroke="#333" stroke-width=".5" fill="none" stroke-linecap="round" stroke-linejoin="round"/></g><path d="M0 0h100v120H0z" stroke="#333" stroke-width=".5" fill="none" stroke-linecap="round" stroke-linejoin="round"/></svg>