<svg preserveAspectRatio="xMidYMin slice" viewBox="0 0 120 200" xmlns="http://www.w3.org/2000/svg"><g filter="url(#a)" transform="translate(10 10)"><defs><filter height="200%" id="a" width="200%" x="-20%" y="-20%"><feOffset dx=".2" dy=".2" in="SourceAlpha" result="offsetOut"/><feGaussianBlur in="offsetOut" result="blurOut"/><feBlend in2="blurOut" in="SourceGraphic"/></filter></defs><defs><clipPath id="b"><path d="M0 0h100v120H0z" fill="#fff"/></clipPath></defs><g clip-path="url(#b)"><path d="M0 0h100v120H0z" fill="#f0f0f0"/><g style="pointer-events:visiblePainted;cursor:pointer"><defs><mask id="c"><path d="m50 0 169.706 169.706H1000V-1000h-2000V169.706h880.294L50 0" fill="#fff"/><path d="M-119.706 169.706 50 0l169.706 169.706" fill="none" stroke-width=".1" stroke="#fff"/></mask></defs><g mask="url(#c)"><path fill="#f6f6f6" d="M-500-500H600V600H-500z" style="pointer-events:visiblePainted;cursor:pointer"/></g><defs><mask id="d"><path d="m50 0 169.706 169.706H1000v24H219.706L50 24l-169.706 169.706H-1000v-24h880.294L50 0" fill="#fff"/><path d="M-119.706 193.706 50 24l169.706 169.706" fill="none" stroke-width=".1" stroke="#fff"/></mask></defs><g mask="url(#d)"><path fill="#0c6793" d="M-500-500H600V600H-500z" style="pointer-events:visiblePainted;cursor:pointer"/></g><defs><mask id="e"><path d="m50 24 169.706 169.706H1000v24H219.706L50 48l-169.706 169.706H-1000v-24h880.294L50 24" fill="#fff"/><path d="M-119.706 217.706 50 48l169.706 169.706" fill="none" stroke-width=".1" stroke="#fff"/></mask></defs><g mask="url(#e)"><path fill="#f6f6f6" d="M-500-500H600V600H-500z" style="pointer-events:visiblePainted;cursor:pointer"/></g><defs><mask id="f"><path d="m50 48 169.706 169.706H1000v24H219.706L50 72l-169.706 169.706H-1000v-24h880.294L50 48" fill="#fff"/><path d="M-119.706 241.706 50 72l169.706 169.706" fill="none" stroke-width=".1" stroke="#fff"/></mask></defs><g mask="url(#f)"><path fill="#0c6793" d="M-500-500H600V600H-500z" style="pointer-events:visiblePainted;cursor:pointer"/></g><defs><mask id="g"><path d="m50 72 169.706 169.706H1000v24H219.706L50 96l-169.706 169.706H-1000v-24h880.294L50 72" fill="#fff"/><path d="M-119.706 265.706 50 96l169.706 169.706" fill="none" stroke-width=".1" stroke="#fff"/></mask></defs><g mask="url(#g)"><path fill="#f6f6f6" d="M-500-500H600V600H-500z" style="pointer-events:visiblePainted;cursor:pointer"/></g><defs><mask id="h"><path d="m50 96 169.706 169.706H1000V1000h-2000V265.706h880.294L50 96" fill="#fff"/></mask></defs><g mask="url(#h)"><path fill="#0c6793" d="M-500-500H600V600H-500z" style="pointer-events:visiblePainted;cursor:pointer"/></g><g fill="none" stroke-linecap="round" stroke-linejoin="round" stroke-width=".5" stroke="#333"><path d="M-119.706 169.706 50 0l169.706 169.706"/><path d="M-119.706 193.706 50 24l169.706 169.706"/><path d="M-119.706 217.706 50 48l169.706 169.706"/><path d="M-119.706 241.706 50 72l169.706 169.706"/><path d="M-119.706 265.706 50 96l169.706 169.706"/></g></g></g><path d="M0 0h100v120H0z" fill="none" stroke-linecap="round" stroke-linejoin="round" stroke-width=".5" stroke="#333"/></g></svg>