<svg preserveAspectRatio="xMidYMin slice" viewBox="0 0 120 200" xmlns="http://www.w3.org/2000/svg"><g filter="url(#a)" transform="translate(10 10)"><defs><filter height="200%" id="a" width="200%" x="-20%" y="-20%"><feOffset dx=".2" dy=".2" in="SourceAlpha" result="offsetOut"/><feGaussianBlur in="offsetOut" result="blurOut"/><feBlend in2="blurOut" in="SourceGraphic"/></filter></defs><defs><clipPath id="b"><path d="M0 0h100v120H0z" fill="#fff"/></clipPath></defs><g clip-path="url(#b)"><path d="M0 0h100v120H0z" fill="#f0f0f0"/><g style="pointer-events:visiblePainted;cursor:pointer"><defs><clipPath id="c"><path d="M50-48.1V60L-78.037-93.644H-1000V-1000H50v951.9z" fill="#fff"/><path d="M50-48.1V60L-78.037-93.644H-1000V-1000H50v951.9z" fill="none" stroke-width=".1" stroke="#fff"/></clipPath></defs><g clip-path="url(#c)"><path fill="#f6f6f6" d="M-500-500H600V600H-500z" style="pointer-events:visiblePainted;cursor:pointer"/></g><defs><clipPath id="d"><path d="M50-48.1V60L178.037-93.644H1000V-1000H50v951.9z" fill="#fff"/><path d="M50 60 178.037-93.644" fill="none" stroke-width=".1" stroke="#fff"/></clipPath></defs><g clip-path="url(#d)"><path fill="#0c6793" d="M-500-500H600V600H-500z" style="pointer-events:visiblePainted;cursor:pointer"/></g><defs><clipPath id="e"><path d="M-58.1 60H50L-78.037-93.644H-1000V60h941.9z" fill="#fff"/><path d="M-58.1 60H50" fill="none" stroke-width=".1" stroke="#fff"/></clipPath></defs><g clip-path="url(#e)"><path fill="#0c6793" d="M-500-500H600V600H-500z" style="pointer-events:visiblePainted;cursor:pointer"/></g><defs><clipPath id="f"><path d="M158.1 60H50L178.037-93.644H1000V60H158.1z" fill="#fff"/><path d="M158.1 60H50" fill="none" stroke-width=".1" stroke="#fff"/></clipPath></defs><g clip-path="url(#f)"><path fill="#f6f6f6" d="M-500-500H600V600H-500z" style="pointer-events:visiblePainted;cursor:pointer"/></g><defs><clipPath id="g"><path d="M-58.1 60H50L-78.037 213.644H-1000V60h941.9z" fill="#fff"/><path d="M50 60-78.037 213.644" fill="none" stroke-width=".1" stroke="#fff"/></clipPath></defs><g clip-path="url(#g)"><path fill="#f6f6f6" d="M-500-500H600V600H-500z" style="pointer-events:visiblePainted;cursor:pointer"/></g><defs><clipPath id="h"><path d="M158.1 60H50l128.037 153.644H1000V60H158.1z" fill="#fff"/><path d="m50 60 128.037 153.644" fill="none" stroke-width=".1" stroke="#fff"/></clipPath></defs><g clip-path="url(#h)"><path fill="#0c6793" d="M-500-500H600V600H-500z" style="pointer-events:visiblePainted;cursor:pointer"/></g><defs><clipPath id="i"><path d="M50 168.1V60L-78.037 213.644H-1000V1000H50V168.1z" fill="#fff"/><path d="M50 168.1V60" fill="none" stroke-width=".1" stroke="#fff"/></clipPath></defs><g clip-path="url(#i)"><path fill="#0c6793" d="M-500-500H600V600H-500z" style="pointer-events:visiblePainted;cursor:pointer"/></g><defs><clipPath id="j"><path d="M50 168.1V60l128.037 153.644H1000V1000H50V168.1z" fill="#fff"/></clipPath></defs><g clip-path="url(#j)"><path fill="#f6f6f6" d="M-500-500H600V600H-500z" style="pointer-events:visiblePainted;cursor:pointer"/></g><path d="M50 60-78.037-93.644M50-48.1V60m0 0L178.037-93.644M158.1 60H50m0 0 128.037 153.644M50 168.1V60m0 0L-78.037 213.644M-58.1 60H50" fill="none" stroke-linecap="round" stroke-linejoin="round" stroke-width=".5" stroke="#333"/></g></g><path d="M0 0h100v120H0z" fill="none" stroke-linecap="round" stroke-linejoin="round" stroke-width=".5" stroke="#333"/></g></svg>