<svg preserveAspectRatio="xMidYMin slice" viewBox="0 0 120 200" xmlns="http://www.w3.org/2000/svg"><g transform="translate(10 10)"><defs><mask id="a"><path clip-rule="evenodd" d="M0 0h100v120H0z" fill-rule="evenodd" fill="#fff"/></mask></defs><g mask="url(#a)"><path d="M0 0h100v120H0z" fill-rule="evenodd" fill="#f0f0f0"/><g transform="rotate(-50.194 89.051 -23.376)"><defs><mask id="b"><path clip-rule="evenodd" d="M-78.102-51.215H1000V-1000h-2000v948.785h921.898z" fill-rule="evenodd" fill="#fff"/><path d="M-78.102-51.215H78.102" fill="none" stroke-width=".1" stroke="#fff"/></mask></defs><g mask="url(#b)"><path fill="#f6f6f6" style="cursor:pointer" d="M-1000-1000h2000v2000h-2000z"/></g><defs><mask id="c"><path clip-rule="evenodd" d="M-78.102-51.215H1000v25.608h-2000v-25.608h921.898z" fill-rule="evenodd" fill="#fff"/><path d="M78.098-25.607h-156.2" fill="none" stroke-width=".1" stroke="#fff"/></mask></defs><g mask="url(#c)"><path fill="#f2bc51" style="cursor:pointer" d="M-1000-1000h2000v2000h-2000z"/></g><defs><mask id="d"><path clip-rule="evenodd" d="M78.098-25.607H-1000V0h2000v-25.607H78.098" fill-rule="evenodd" fill="#fff"/><path d="M-78.102 0H78.102" fill="none" stroke-width=".1" stroke="#fff"/></mask></defs><g mask="url(#d)"><path fill="#f6f6f6" style="cursor:pointer" d="M-1000-1000h2000v2000h-2000z"/></g><defs><mask id="e"><path clip-rule="evenodd" d="M-78.102 0H1000v25.607h-2000V0h921.898z" fill-rule="evenodd" fill="#fff"/><path d="M78.098 25.607h-156.2" fill="none" stroke-width=".1" stroke="#fff"/></mask></defs><g mask="url(#e)"><path fill="#f2bc51" style="cursor:pointer" d="M-1000-1000h2000v2000h-2000z"/></g><defs><mask id="f"><path clip-rule="evenodd" d="M78.098 25.607H-1000v25.608h2000V25.607H78.098" fill-rule="evenodd" fill="#fff"/><path d="M-78.102 51.215H78.102" fill="none" stroke-width=".1" stroke="#fff"/></mask></defs><g mask="url(#f)"><path fill="#f6f6f6" style="cursor:pointer" d="M-1000-1000h2000v2000h-2000z"/></g><defs><mask id="g"><path clip-rule="evenodd" d="M-78.102 51.215H1000V1000h-2000V51.215h921.898z" fill-rule="evenodd" fill="#fff"/></mask></defs><g mask="url(#g)"><path fill="#f2bc51" style="cursor:pointer" d="M-1000-1000h2000v2000h-2000z"/></g><path d="M-78.102-51.215H78.102m-.004 25.608h-156.2m0 25.607H78.102m-.004 25.607h-156.2m0 25.608H78.102" fill="none" stroke-linecap="round" stroke-linejoin="round" stroke-width=".5" stroke="#333"/></g></g><path d="M0 0h100v120H0z" fill="none" stroke-linecap="round" stroke-linejoin="round" stroke-width=".5" stroke="#333"/></g></svg>