<svg preserveAspectRatio="xMidYMin slice" viewBox="0 0 120 200" xmlns="http://www.w3.org/2000/svg"><g transform="translate(10 10)"><defs><mask id="a"><path clip-rule="evenodd" d="M0 0h100v120H0z" fill-rule="evenodd" fill="#fff"/></mask></defs><g mask="url(#a)"><path d="M0 0h100v120H0z" fill-rule="evenodd" fill="#f0f0f0"/><defs><pattern height="30" id="f" patternUnits="userSpaceOnUse" width="33.333" x="0" y="0"><path d="m16.667 0 16.666 15-16.666 15L0 15z" fill="none" stroke-linecap="round" stroke-linejoin="round" stroke-width=".5" stroke="#333"/></pattern><pattern height="30" id="b" patternUnits="userSpaceOnUse" width="33.333" x="0" y="0"><path d="M0 0h33.333v30H0z"/><path d="m16.667 0 16.666 15-16.666 15L0 15z" fill="#fff"/></pattern><pattern height="30" id="d" patternUnits="userSpaceOnUse" width="33.333" x="0" y="0"><path fill="#fff" d="M0 0h33.333v30H0z"/><path d="m16.667 0 16.666 15-16.666 15L0 15z"/></pattern></defs><mask id="c"><path fill="url(#b)" d="M-500-500H600V600H-500z"/></mask><g mask="url(#c)"><path fill="#f6f6f6" style="cursor:pointer" d="M-1000-1000h2000v2000h-2000z"/></g><mask id="e"><path fill="url(#d)" d="M-500-500H600V600H-500z"/></mask><g mask="url(#e)"><path fill="#0c6793" style="cursor:pointer" d="M-1000-1000h2000v2000h-2000z"/></g><path fill="url(#f)" d="M-500-500H600V600H-500z"/></g><path d="M0 0h100v120H0z" fill="none" stroke-linecap="round" stroke-linejoin="round" stroke-width=".5" stroke="#333"/></g></svg>