<?xml version="1.0" encoding="UTF-8" standalone="no"?>
<svg xmlns="http://www.w3.org/2000/svg" preserveAspectRatio="xMidYMin slice" viewBox="-10 -10 120 140"><defs><mask id="a"><path fill="#fff" fill-rule="evenodd" d="M0 0h100v120H0z" clip-rule="evenodd"/></mask></defs><g mask="url(#a)"><path fill="#f0f0f0" fill-rule="evenodd" d="M0 0h100v120H0z"/><defs><mask id="b"><path fill="#fff" fill-rule="evenodd" stroke="#fff" stroke-width=".1" d="M16.667-30v180l46.985 507.444a600 600 0 1 1 0-1194.888L16.667-30z" clip-rule="evenodd"/></mask></defs><g mask="url(#b)"><path fill="#f6f6f6" d="M-1000-1000h2000v2000h-2000z"/></g><defs><mask id="c"><path fill="#fff" fill-rule="evenodd" stroke="#fff" stroke-width=".1" d="M33.333 150V-30l-46.985-507.444a600 600 0 0 1 110.638 0L50-30v180l46.986 507.444a600 600 0 0 1-110.638 0L33.333 150z" clip-rule="evenodd"/></mask></defs><g mask="url(#c)"><path fill="#f6f6f6" d="M-1000-1000h2000v2000h-2000z"/></g><defs><mask id="d"><path fill="#fff" fill-rule="evenodd" stroke="#fff" stroke-width=".1" d="M66.667 150V-30L19.68-537.444a600 600 0 0 1 110.638 0L83.333-30v180l46.986 507.444a600 600 0 0 1-110.638 0L66.667 150z" clip-rule="evenodd"/></mask></defs><g mask="url(#d)"><path fill="#f6f6f6" d="M-1000-1000h2000v2000h-2000z"/></g><defs><mask id="e"><path fill="#fff" fill-rule="evenodd" d="M16.667-30v180L-30.32 657.444a600 600 0 0 0 110.638 0L33.333 150V-30L80.32-537.444a600 600 0 0 0-110.638 0L16.667-30z" clip-rule="evenodd"/></mask></defs><g mask="url(#e)"><path fill="#f2bc51" d="M-1000-1000h2000v2000h-2000z"/></g><defs><mask id="f"><path fill="#fff" fill-rule="evenodd" d="M50-30v180L3.014 657.444a600 600 0 0 0 110.638 0L66.667 150V-30l46.985-507.444a600 600 0 0 0-110.638 0L50-30z" clip-rule="evenodd"/></mask></defs><g mask="url(#f)"><path fill="#f2bc51" d="M-1000-1000h2000v2000h-2000z"/></g><defs><mask id="g"><path fill="#fff" fill-rule="evenodd" d="M83.333-30v180L36.348 657.444a600 600 0 1 0 0-1194.888L83.333-30z" clip-rule="evenodd"/></mask></defs><g mask="url(#g)"><path fill="#f2bc51" d="M-1000-1000h2000v2000h-2000z"/></g><path fill="none" stroke="#333" stroke-linecap="round" stroke-linejoin="round" stroke-width=".5" d="M16.667-30v180m16.666 0V-30M50-30v180m16.667 0V-30m16.666 0v180"/></g><path fill="none" stroke="#333" stroke-linecap="round" stroke-linejoin="round" stroke-width=".5" d="M0 0h100v120H0z"/></svg>