<?xml version="1.0" encoding="UTF-8" standalone="no"?>
<svg xmlns="http://www.w3.org/2000/svg" viewBox="-10 -10 120 140" preserveAspectRatio="xMidYMin slice"><defs><mask id="a"><path d="M0 0h100v120H0z" clip-rule="evenodd" fill-rule="evenodd" fill="#fff"/></mask></defs><g mask="url(#a)"><path d="M0 0h100v120H0z" fill-rule="evenodd" fill="#f0f0f0"/><defs><mask id="b"><path d="M-45.01 93.264 65.923-39.856l78.559-492.658a600 600 0 0 0-660.778 790.779L-45.01 93.264z" clip-rule="evenodd" fill-rule="evenodd" fill="#fff" stroke="#fff" stroke-width=".1"/></mask></defs><g mask="url(#b)"><path fill="#f6f6f6" style="cursor:pointer" d="M-1000-1000h2000v2000h-2000z" transform="rotate(-50.194)"/></g><defs><mask id="c"><path d="m85.227-23.769-110.933 133.12-426.93 278.303a600 600 0 0 0 112.334 128.048l321.096-374.9 136.54-163.849L427.88-406.054a600 600 0 0 0-145.294-87.031L85.227-23.77z" clip-rule="evenodd" fill-rule="evenodd" fill="#fff" stroke="#fff" stroke-width=".1"/></mask></defs><g mask="url(#c)"><path fill="#f6f6f6" style="cursor:pointer" d="M-1000-1000h2000v2000h-2000z" transform="rotate(-50.194)"/></g><defs><mask id="d"><path d="M123.835 8.405 12.902 141.525l-211.413 464.59a600 600 0 0 0 140.91 44.158L32.205 157.61 143.14 24.49l467.5-178.23a600 600 0 0 0-68.82-129.94L123.834 8.405z" clip-rule="evenodd" fill-rule="evenodd" fill="#fff" stroke="#fff" stroke-width=".1"/></mask></defs><g mask="url(#d)"><path fill="#f6f6f6" style="cursor:pointer" d="M-1000-1000h2000v2000h-2000z" transform="rotate(-50.194)"/></g><defs><mask id="e"><path d="M-45.01 93.264 65.923-39.856l78.559-492.658a600 600 0 0 1 138.104 39.429L85.227-23.77-25.706 109.35l-426.93 278.303a600 600 0 0 1-63.66-129.39l471.286-165z" clip-rule="evenodd" fill-rule="evenodd" fill="#fff"/></mask></defs><g mask="url(#e)"><path fill="#f2bc51" style="cursor:pointer" d="M-1000-1000h2000v2000h-2000z" transform="rotate(-50.194)"/></g><defs><mask id="f"><path d="m-19.206 140.802 136.54-163.849L427.88-406.054A600 600 0 0 1 541.818-283.68L123.835 8.405 12.902 141.525l-211.413 464.59a600 600 0 0 1-141.791-90.413l321.096-374.9z" clip-rule="evenodd" fill-rule="evenodd" fill="#fff"/></mask></defs><g mask="url(#f)"><path fill="#f2bc51" style="cursor:pointer" d="M-1000-1000h2000v2000h-2000z" transform="rotate(-50.194)"/></g><defs><mask id="g"><path d="M32.206 157.61 143.14 24.492l467.5-178.23A600 600 0 0 1-57.6 650.274L32.205 157.61z" clip-rule="evenodd" fill-rule="evenodd" fill="#fff"/></mask></defs><g mask="url(#g)"><path fill="#f2bc51" style="cursor:pointer" d="M-1000-1000h2000v2000h-2000z" transform="rotate(-50.194)"/></g><path d="M-45.01 93.264 65.923-39.856m19.304 16.087-110.933 133.12m6.5 31.451 136.54-163.849m6.501 31.452L12.902 141.525m19.304 16.085L143.14 24.492" stroke="#333" stroke-width=".5" fill="none" stroke-linecap="round" stroke-linejoin="round"/></g><path d="M0 0h100v120H0z" stroke="#333" stroke-width=".5" fill="none" stroke-linecap="round" stroke-linejoin="round"/></svg>