<?xml version="1.0" encoding="UTF-8" standalone="no"?>
<svg xmlns="http://www.w3.org/2000/svg" preserveAspectRatio="xMidYMin slice" viewBox="-10 -10 120 140"><defs><mask id="a"><path fill="#fff" fill-rule="evenodd" d="M0 0h100v120H0z" clip-rule="evenodd"/></mask></defs><g mask="url(#a)"><path fill="#f0f0f0" fill-rule="evenodd" d="M0 0h100v120H0z"/><defs><pattern id="f" width="57.143" height="80" x="0" y="0" patternUnits="userSpaceOnUse"><path fill="none" stroke="#333" stroke-linecap="round" stroke-linejoin="round" stroke-width=".5" d="M0 40V20h14.286V0H28.57v20h14.286v20zm0 0v20h14.286v20H28.57V60h14.286V40zM0 0h57.143M0 80h57.143m0-60v40m0-20H42.857"/></pattern><pattern id="b" width="57.143" height="80" x="0" y="0" patternUnits="userSpaceOnUse"><path d="M-1-1h59.143v82H-1z" shape-rendering="crispEdges"/><path fill="#fff" d="M-1 40V20h15.286V-1H28.57v21h14.286v20zm0 41V60h15.286v21zm29.571 0V60h14.286V40h15.286v41z"/></pattern><pattern id="d" width="57.143" height="80" x="0" y="0" patternUnits="userSpaceOnUse"><path fill="#fff" d="M-1-1h59.143v82H-1z" shape-rendering="crispEdges"/><path d="M-1 40V20h15.286V-1H28.57v21h14.286v20zm0 41V60h15.286v21zm29.571 0V60h14.286V40h15.286v41z"/></pattern></defs><mask id="c"><path fill="url(#b)" d="M-500-500H600V600H-500z"/></mask><g mask="url(#c)"><path fill="#f2bc51" d="M-1000-1000h2000v2000h-2000z"/></g><mask id="e"><path fill="url(#d)" d="M-500-500H600V600H-500z"/></mask><g mask="url(#e)"><path fill="#f6f6f6" d="M-1000-1000h2000v2000h-2000z"/></g><path fill="url(#f)" d="M-500-500H600V600H-500z"/></g><path fill="none" stroke="#333" stroke-linecap="round" stroke-linejoin="round" stroke-width=".5" d="M0 0h100v120H0z"/></svg>