<svg preserveAspectRatio="xMidYMin slice" viewBox="0 0 120 200" xmlns="http://www.w3.org/2000/svg"><g transform="translate(10 10)"><defs><mask id="a"><path clip-rule="evenodd" d="M0 0h100v120H0z" fill-rule="evenodd" fill="#fff"/></mask></defs><g mask="url(#a)"><path d="M0 0h100v120H0z" fill-rule="evenodd" fill="#f0f0f0"/><defs><pattern height="60" id="g" patternUnits="userSpaceOnUse" width="50" x="0" y="0"><path d="M2.5 2.5v25h45v-25zM0 32.5h22.5v25H0m50-25H27.5v25H50" fill="none" stroke-linecap="round" stroke-linejoin="round" stroke-width=".5" stroke="#333"/></pattern><pattern height="60" id="c" patternUnits="userSpaceOnUse" width="50" x="0" y="0"><path fill="#fff" d="M0 0h50v60H0z"/><mask id="b"><path fill="#fff" d="M0 0h50v60H0z"/><path d="M2.5 2.5v25h45v-25z"/></mask><path d="M0 0h50v32.5H27.5v25H50V60H0v-2.5h22.5v-25H0z" mask="url(#b)"/></pattern><pattern height="60" id="e" patternUnits="userSpaceOnUse" width="50" x="0" y="0"><path d="M0 0h50v60H0z"/><path d="M0 0h50v32.5H27.5v25H50V60H0v-2.5h22.5v-25H0z" mask="url(#b)" fill="#fff"/></pattern></defs><mask id="d"><path fill="url(#c)" d="M-500-500H600V600H-500z"/></mask><g mask="url(#d)"><path fill="#f2bc51" style="cursor:pointer" d="M-1000-1000h2000v2000h-2000z"/></g><mask id="f"><path fill="url(#e)" d="M-500-500H600V600H-500z"/></mask><g mask="url(#f)"><path fill="#f6f6f6" style="cursor:pointer" d="M-1000-1000h2000v2000h-2000z"/></g><path fill="url(#g)" d="M-500-500H600V600H-500z"/></g><path d="M0 0h100v120H0z" fill="none" stroke-linecap="round" stroke-linejoin="round" stroke-width=".5" stroke="#333"/></g></svg>