<?xml version="1.0" encoding="UTF-8" standalone="no"?>
<svg xmlns="http://www.w3.org/2000/svg" preserveAspectRatio="xMidYMin slice" viewBox="-10 -10 120 140"><defs><mask id="a"><path fill="#fff" fill-rule="evenodd" d="M0 0h100v120H0z" clip-rule="evenodd"/></mask></defs><g mask="url(#a)"><path fill="#f0f0f0" fill-rule="evenodd" d="M0 0h100v120H0z"/><defs><mask id="b"><path fill="#fff" fill-rule="evenodd" stroke="#fff" stroke-width=".1" d="M.359-25.98 50 60l49.641-85.98 348.441-392.942a600 600 0 0 0-796.164 0z" clip-rule="evenodd"/></mask></defs><g mask="url(#b)"><path fill="#f6f6f6" d="M-1000-1000h2000v2000h-2000z"/></g><defs><mask id="c"><path fill="#fff" fill-rule="evenodd" stroke="#fff" stroke-width=".1" d="M130 60H50l49.641 85.98 217.08 493.175a600 600 0 0 0 285.016-836.466z" clip-rule="evenodd"/></mask></defs><g mask="url(#c)"><path fill="#f6f6f6" d="M-1000-1000h2000v2000h-2000z"/></g><defs><mask id="d"><path fill="#fff" fill-rule="evenodd" stroke="#fff" stroke-width=".1" d="M.359 145.98 50 60h-80l-471.737-257.311a600 600 0 0 0 285.016 836.466z" clip-rule="evenodd"/></mask></defs><g mask="url(#d)"><path fill="#f6f6f6" d="M-1000-1000h2000v2000h-2000z"/></g><defs><mask id="e"><path fill="#fff" fill-rule="evenodd" d="M130 60H50l49.641-85.98 217.08-493.175a600 600 0 0 1 285.016 836.466z" clip-rule="evenodd"/></mask></defs><g mask="url(#e)"><path fill="#0c6793" d="M-1000-1000h2000v2000h-2000z"/></g><defs><mask id="f"><path fill="#fff" fill-rule="evenodd" d="M.359 145.98 50 60l49.641 85.98 348.441 392.942a600 600 0 0 1-796.164 0z" clip-rule="evenodd"/></mask></defs><g mask="url(#f)"><path fill="#0c6793" d="M-1000-1000h2000v2000h-2000z"/></g><defs><mask id="g"><path fill="#fff" fill-rule="evenodd" d="M.359-25.98 50 60h-80l-471.737 257.311a600 600 0 0 1 285.016-836.466z" clip-rule="evenodd"/></mask></defs><g mask="url(#g)"><path fill="#0c6793" d="M-1000-1000h2000v2000h-2000z"/></g><path fill="none" stroke="#333" stroke-linecap="round" stroke-linejoin="round" stroke-width=".5" d="M.359-25.98 50 60m0 0 49.641-85.98M130 60H50m0 0 49.641 85.98m-99.282 0L50 60m0 0h-80"/></g><path fill="none" stroke="#333" stroke-linecap="round" stroke-linejoin="round" stroke-width=".5" d="M0 0h100v120H0z"/></svg>