<svg preserveAspectRatio="xMidYMin slice" viewBox="0 0 120 200" xmlns="http://www.w3.org/2000/svg"><g transform="translate(10 10)"><defs><mask id="a"><path clip-rule="evenodd" d="M0 0h100v120H0z" fill-rule="evenodd" fill="#fff"/></mask></defs><g mask="url(#a)"><path d="M0 0h100v120H0z" fill-rule="evenodd" fill="#f0f0f0"/><defs><mask id="b"><path clip-rule="evenodd" d="M0 20h1000v-1020h-2000V20H0z" fill-rule="evenodd" fill="#fff"/><path d="M0 20h100" fill="none" stroke-width=".1" stroke="#fff"/></mask></defs><g mask="url(#b)"><path fill="#f6f6f6" style="cursor:pointer" d="M-1000-1000h2000v2000h-2000z"/></g><defs><mask id="c"><path clip-rule="evenodd" d="M0 20h1000v20h-2000V20H0z" fill-rule="evenodd" fill="#fff"/><path d="M100 40H0" fill="none" stroke-width=".1" stroke="#fff"/></mask></defs><g mask="url(#c)"><path fill="#f2bc51" style="cursor:pointer" d="M-1000-1000h2000v2000h-2000z"/></g><defs><mask id="d"><path clip-rule="evenodd" d="M100 40h-1100v20h2000V40H100" fill-rule="evenodd" fill="#fff"/><path d="M0 60h100" fill="none" stroke-width=".1" stroke="#fff"/></mask></defs><g mask="url(#d)"><path fill="#f6f6f6" style="cursor:pointer" d="M-1000-1000h2000v2000h-2000z"/></g><defs><mask id="e"><path clip-rule="evenodd" d="M0 60h1000v20h-2000V60H0z" fill-rule="evenodd" fill="#fff"/><path d="M100 80H0" fill="none" stroke-width=".1" stroke="#fff"/></mask></defs><g mask="url(#e)"><path fill="#f2bc51" style="cursor:pointer" d="M-1000-1000h2000v2000h-2000z"/></g><defs><mask id="f"><path clip-rule="evenodd" d="M100 80h-1100v20h2000V80H100" fill-rule="evenodd" fill="#fff"/><path d="M0 100h100" fill="none" stroke-width=".1" stroke="#fff"/></mask></defs><g mask="url(#f)"><path fill="#f6f6f6" style="cursor:pointer" d="M-1000-1000h2000v2000h-2000z"/></g><defs><mask id="g"><path clip-rule="evenodd" d="M0 100h1000v900h-2000V100H0z" fill-rule="evenodd" fill="#fff"/></mask></defs><g mask="url(#g)"><path fill="#f2bc51" style="cursor:pointer" d="M-1000-1000h2000v2000h-2000z"/></g><path d="M0 20h100m0 20H0m0 20h100m0 20H0m0 20h100" fill="none" stroke-linecap="round" stroke-linejoin="round" stroke-width=".5" stroke="#333"/></g><path d="M0 0h100v120H0z" fill="none" stroke-linecap="round" stroke-linejoin="round" stroke-width=".5" stroke="#333"/></g></svg>