<?xml version="1.0" encoding="UTF-8" standalone="no"?>
<svg xmlns="http://www.w3.org/2000/svg" preserveAspectRatio="xMidYMin slice" viewBox="-10 -10 120 140"><defs><mask id="a"><path fill="#fff" fill-rule="evenodd" d="M0 0h100v120H0z" clip-rule="evenodd"/></mask></defs><g mask="url(#a)"><path fill="#f0f0f0" fill-rule="evenodd" d="M0 0h100v120H0z"/><defs><pattern id="l" width="50" height="120" x="0" y="0" patternUnits="userSpaceOnUse"><path fill="none" stroke="#333" stroke-linecap="round" stroke-linejoin="round" stroke-width=".5" d="M50 0Q37.5 25.2 25 30 12.5 25.2 0 0m25 30Q12.5 55.2 0 60m25-30q12.5 25.2 25 30m0 0Q37.5 85.2 25 90 12.5 85.2 0 60m25 30q-12.5 25.2-25 30m25-30q12.5 25.2 25 30"/></pattern><pattern id="b" width="50" height="120" x="0" y="0" patternUnits="userSpaceOnUse"><path fill="#fff" d="M-1-1h52v122H-1z" shape-rendering="crispEdges"/><path d="M0 0h50Q37.5 25.2 25 30 12.5 25.2 0 0m0 60h50Q37.5 85.2 25 90 12.5 85.2 0 60m0 0q12.5-4.8 25-30 12.5 25.2 25 30zm0 60q12.5-4.8 25-30 12.5 25.2 25 30z"/></pattern><pattern id="d" width="50" height="120" x="0" y="0" patternUnits="userSpaceOnUse"><path d="M-1-1h52v122H-1z" shape-rendering="crispEdges"/><path fill="#fff" d="M0 0h50Q37.5 25.2 25 30 12.5 25.2 0 0m0 60h50Q37.5 85.2 25 90 12.5 85.2 0 60m0 0q12.5-4.8 25-30 12.5 25.2 25 30zm0 60q12.5-4.8 25-30 12.5 25.2 25 30z"/></pattern><pattern id="f" width="50" height="120" x="0" y="0" patternUnits="userSpaceOnUse"><g fill="none" stroke="#f6f6f6" stroke-linecap="round" stroke-width="1.25"><path d="M25-29.375Q25.35-9.887 25 9.6m0-30.939q-3.5-.78-7 2.339"/><path d="M25-21.339q3.5-.78 7 2.339m-7 6.322q-3.062-.78-6.125 2.339M25-12.678q3.063-.78 6.125 2.339M25-4.017q-2.625-.78-5.25 2.339M25-4.017q2.625-.78 5.25 2.339M25 4.644q-2.187-.78-4.375 2.339M25 4.644q2.188-.78 4.375 2.339M25 90.625q.35 19.487 0 38.975m0-30.939q-3.5-.78-7 2.339"/><path d="M25 98.661q3.5-.78 7 2.339m-7 6.322q-3.062-.78-6.125 2.339M25 107.322q3.063-.78 6.125 2.339M25 115.983q-2.625-.78-5.25 2.339m5.25-2.339q2.625-.78 5.25 2.339M25 124.644q-2.187-.78-4.375 2.339M25 124.644q2.188-.78 4.375 2.339M25 30.625q.35 19.487 0 38.975m0-30.939q-3.5-.78-7 2.339"/><path d="M25 38.661q3.5-.78 7 2.339m-7 6.322q-3.062-.78-6.125 2.339M25 47.322q3.063-.78 6.125 2.339M25 55.983q-2.625-.78-5.25 2.339M25 55.983q2.625-.78 5.25 2.339M25 64.644q-2.187-.78-4.375 2.339M25 64.644q2.188-.78 4.375 2.339"/></g></pattern><pattern id="h" width="50" height="120" x="0" y="0" patternUnits="userSpaceOnUse"><g fill="none" stroke="#f2bc51" stroke-linecap="round" stroke-width="1.25"><path d="M0 .625Q.35 20.113 0 39.6M0 8.661Q-3.5 7.881-7 11"/><path d="M0 8.661Q3.5 7.881 7 11m-7 6.322q-3.062-.78-6.125 2.339M0 17.322q3.063-.78 6.125 2.339M0 25.983q-2.625-.78-5.25 2.339M0 25.983q2.625-.78 5.25 2.339M0 34.644q-2.187-.78-4.375 2.339M0 34.644q2.188-.78 4.375 2.339M50 .625q.35 19.488 0 38.975m0-30.939q-3.5-.78-7 2.339"/><path d="M50 8.661q3.5-.78 7 2.339m-7 6.322q-3.062-.78-6.125 2.339M50 17.322q3.063-.78 6.125 2.339M50 25.983q-2.625-.78-5.25 2.339M50 25.983q2.625-.78 5.25 2.339M50 34.644q-2.187-.78-4.375 2.339M50 34.644q2.188-.78 4.375 2.339M0 60.625Q.35 80.112 0 99.6m0-30.939q-3.5-.78-7 2.339"/><path d="M0 68.661q3.5-.78 7 2.339m-7 6.322q-3.062-.78-6.125 2.339M0 77.322q3.063-.78 6.125 2.339M0 85.983q-2.625-.78-5.25 2.339M0 85.983q2.625-.78 5.25 2.339M0 94.644q-2.187-.78-4.375 2.339M0 94.644q2.188-.78 4.375 2.339M50 60.625q.35 19.487 0 38.975m0-30.939q-3.5-.78-7 2.339"/><path d="M50 68.661q3.5-.78 7 2.339m-7 6.322q-3.062-.78-6.125 2.339M50 77.322q3.063-.78 6.125 2.339M50 85.983q-2.625-.78-5.25 2.339M50 85.983q2.625-.78 5.25 2.339M50 94.644q-2.187-.78-4.375 2.339M50 94.644q2.188-.78 4.375 2.339"/></g></pattern><pattern id="j" width="50" height="120" x="0" y="0" patternUnits="userSpaceOnUse"><g fill="none" stroke="#333" stroke-linecap="round" stroke-linejoin="round" stroke-width="1.25"><path d="M25-29.375Q25.35-9.887 25 9.6m0-30.939q-3.5-.78-7 2.339"/><path d="M25-21.339q3.5-.78 7 2.339m-7 6.322q-3.062-.78-6.125 2.339M25-12.678q3.063-.78 6.125 2.339M25-4.017q-2.625-.78-5.25 2.339M25-4.017q2.625-.78 5.25 2.339M25 4.644q-2.187-.78-4.375 2.339M25 4.644q2.188-.78 4.375 2.339M25 90.625q.35 19.487 0 38.975m0-30.939q-3.5-.78-7 2.339"/><path d="M25 98.661q3.5-.78 7 2.339m-7 6.322q-3.062-.78-6.125 2.339M25 107.322q3.063-.78 6.125 2.339M25 115.983q-2.625-.78-5.25 2.339m5.25-2.339q2.625-.78 5.25 2.339M25 124.644q-2.187-.78-4.375 2.339M25 124.644q2.188-.78 4.375 2.339M25 30.625q.35 19.487 0 38.975m0-30.939q-3.5-.78-7 2.339"/><path d="M25 38.661q3.5-.78 7 2.339m-7 6.322q-3.062-.78-6.125 2.339M25 47.322q3.063-.78 6.125 2.339M25 55.983q-2.625-.78-5.25 2.339M25 55.983q2.625-.78 5.25 2.339M25 64.644q-2.187-.78-4.375 2.339M25 64.644q2.188-.78 4.375 2.339"/></g></pattern><pattern id="k" width="50" height="120" x="0" y="0" patternUnits="userSpaceOnUse"><g fill="none" stroke="#333" stroke-linecap="round" stroke-linejoin="round" stroke-width="1.25"><path d="M0 .625Q.35 20.113 0 39.6M0 8.661Q-3.5 7.881-7 11"/><path d="M0 8.661Q3.5 7.881 7 11m-7 6.322q-3.062-.78-6.125 2.339M0 17.322q3.063-.78 6.125 2.339M0 25.983q-2.625-.78-5.25 2.339M0 25.983q2.625-.78 5.25 2.339M0 34.644q-2.187-.78-4.375 2.339M0 34.644q2.188-.78 4.375 2.339M50 .625q.35 19.488 0 38.975m0-30.939q-3.5-.78-7 2.339"/><path d="M50 8.661q3.5-.78 7 2.339m-7 6.322q-3.062-.78-6.125 2.339M50 17.322q3.063-.78 6.125 2.339M50 25.983q-2.625-.78-5.25 2.339M50 25.983q2.625-.78 5.25 2.339M50 34.644q-2.187-.78-4.375 2.339M50 34.644q2.188-.78 4.375 2.339M0 60.625Q.35 80.112 0 99.6m0-30.939q-3.5-.78-7 2.339"/><path d="M0 68.661q3.5-.78 7 2.339m-7 6.322q-3.062-.78-6.125 2.339M0 77.322q3.063-.78 6.125 2.339M0 85.983q-2.625-.78-5.25 2.339M0 85.983q2.625-.78 5.25 2.339M0 94.644q-2.187-.78-4.375 2.339M0 94.644q2.188-.78 4.375 2.339M50 60.625q.35 19.487 0 38.975m0-30.939q-3.5-.78-7 2.339"/><path d="M50 68.661q3.5-.78 7 2.339m-7 6.322q-3.062-.78-6.125 2.339M50 77.322q3.063-.78 6.125 2.339M50 85.983q-2.625-.78-5.25 2.339M50 85.983q2.625-.78 5.25 2.339M50 94.644q-2.187-.78-4.375 2.339M50 94.644q2.188-.78 4.375 2.339"/></g></pattern></defs><mask id="c"><path fill="url(#b)" d="M-500-500H600V600H-500z"/></mask><g mask="url(#c)"><path fill="#f6f6f6" d="M-1000-1000h2000v2000h-2000z"/></g><mask id="e"><path fill="url(#d)" d="M-500-500H600V600H-500z"/></mask><g mask="url(#e)"><path fill="#f2bc51" d="M-1000-1000h2000v2000h-2000z"/></g><mask id="g"><path fill="url(#d)" d="M-500-500H600V600H-500z"/></mask><path fill="url(#f)" d="M-500-500H600V600H-500z" mask="url(#g)"/><mask id="i"><path fill="url(#b)" d="M-500-500H600V600H-500z"/></mask><path fill="url(#h)" d="M-500-500H600V600H-500z" mask="url(#i)"/><path fill="url(#j)" d="M-500-500H600V600H-500z" mask="url(#g)"/><path fill="url(#k)" d="M-500-500H600V600H-500z" mask="url(#i)"/><path fill="url(#l)" d="M-500-500H600V600H-500z"/></g><path fill="none" stroke="#333" stroke-linecap="round" stroke-linejoin="round" stroke-width=".5" d="M0 0h100v120H0z"/></svg>