<svg preserveAspectRatio="xMidYMin slice" viewBox="0 0 120 200" xmlns="http://www.w3.org/2000/svg"><g transform="translate(10 10)"><defs><mask id="a"><path clip-rule="evenodd" d="M0 0h100v120H0z" fill-rule="evenodd" fill="#fff"/></mask></defs><g mask="url(#a)"><path d="M0 0h100v120H0z" fill-rule="evenodd" fill="#f0f0f0"/><defs><mask id="b"><path clip-rule="evenodd" d="M-78.037-93.644 50 60 178.037-93.644H1000V-1000h-2000v906.356h921.963z" fill-rule="evenodd" fill="#fff"/><path d="M-78.037-93.644 50 60 178.037-93.644H1000V-1000h-2000v906.356h921.963z" fill="none" stroke-width=".1" stroke="#fff"/></mask></defs><g mask="url(#b)"><path fill="#f6f6f6" style="cursor:pointer" d="M-1000-1000h2000v2000h-2000z"/></g><defs><mask id="c"><path clip-rule="evenodd" d="M-78.037-93.644 50 60-78.037 213.644H-1000V-93.644h921.963z" fill-rule="evenodd" fill="#fff"/><path d="M50 60-78.037 213.644" fill="none" stroke-width=".1" stroke="#fff"/></mask></defs><g mask="url(#c)"><path fill="#0c6793" style="cursor:pointer" d="M-1000-1000h2000v2000h-2000z"/></g><defs><mask id="d"><path clip-rule="evenodd" d="M178.037 213.644 50 60 178.037-93.644H1000v307.288H178.037z" fill-rule="evenodd" fill="#fff"/><path d="M178.037 213.644 50 60" fill="none" stroke-width=".1" stroke="#fff"/></mask></defs><g mask="url(#d)"><path fill="#0c6793" style="cursor:pointer" d="M-1000-1000h2000v2000h-2000z"/></g><defs><mask id="e"><path clip-rule="evenodd" d="M178.037 213.644 50 60-78.037 213.644H-1000V1000h2000V213.644H178.037z" fill-rule="evenodd" fill="#fff"/></mask></defs><g mask="url(#e)"><path fill="#f6f6f6" style="cursor:pointer" d="M-1000-1000h2000v2000h-2000z"/></g><path d="M-78.037-93.644 50 60m0 0L178.037-93.644m0 307.288L50 60m0 0L-78.037 213.644" fill="none" stroke-linecap="round" stroke-linejoin="round" stroke-width=".5" stroke="#333"/></g><path d="M0 0h100v120H0z" fill="none" stroke-linecap="round" stroke-linejoin="round" stroke-width=".5" stroke="#333"/></g></svg>