<?xml version="1.0" encoding="UTF-8" standalone="no"?>
<svg xmlns="http://www.w3.org/2000/svg" preserveAspectRatio="xMidYMin slice" viewBox="-10 -10 120 140"><defs><mask id="a"><path fill="#fff" fill-rule="evenodd" d="M0 0h100v120H0z" clip-rule="evenodd"/></mask></defs><g mask="url(#a)"><path fill="#f0f0f0" fill-rule="evenodd" d="M0 0h100v120H0z"/><defs><mask id="b"><path fill="#fff" fill-rule="evenodd" stroke="#fff" stroke-width=".1" d="M-50-50h83.333v80H-50z" clip-rule="evenodd"/></mask></defs><g mask="url(#b)"><path fill="#f6f6f6" d="M-1000-1000h2000v2000h-2000z"/></g><defs><mask id="c"><path fill="#fff" fill-rule="evenodd" stroke="#fff" stroke-width=".1" d="M66.667-50H150v80H66.667z" clip-rule="evenodd"/></mask></defs><g mask="url(#c)"><path fill="#f6f6f6" d="M-1000-1000h2000v2000h-2000z"/></g><defs><mask id="d"><path fill="#fff" fill-rule="evenodd" stroke="#fff" stroke-width=".1" d="M33.333 30h33.334v30H33.333z" clip-rule="evenodd"/></mask></defs><g mask="url(#d)"><path fill="#f6f6f6" d="M-1000-1000h2000v2000h-2000z"/></g><defs><mask id="e"><path fill="#fff" fill-rule="evenodd" stroke="#fff" stroke-width=".1" d="M-50 60h83.333v30H-50z" clip-rule="evenodd"/></mask></defs><g mask="url(#e)"><path fill="#f6f6f6" d="M-1000-1000h2000v2000h-2000z"/></g><defs><mask id="f"><path fill="#fff" fill-rule="evenodd" stroke="#fff" stroke-width=".1" d="M66.667 60H150v30H66.667z" clip-rule="evenodd"/></mask></defs><g mask="url(#f)"><path fill="#f6f6f6" d="M-1000-1000h2000v2000h-2000z"/></g><defs><mask id="g"><path fill="#fff" fill-rule="evenodd" stroke="#fff" stroke-width=".1" d="M33.333 90h33.334v80H33.333z" clip-rule="evenodd"/></mask></defs><g mask="url(#g)"><path fill="#f6f6f6" d="M-1000-1000h2000v2000h-2000z"/></g><defs><mask id="h"><path fill="#fff" fill-rule="evenodd" d="M33.333-50h33.334v80H33.333z" clip-rule="evenodd"/></mask></defs><g mask="url(#h)"><path fill="#f2bc51" d="M-1000-1000h2000v2000h-2000z"/></g><defs><mask id="i"><path fill="#fff" fill-rule="evenodd" d="M-50 30h83.333v30H-50z" clip-rule="evenodd"/></mask></defs><g mask="url(#i)"><path fill="#f2bc51" d="M-1000-1000h2000v2000h-2000z"/></g><defs><mask id="j"><path fill="#fff" fill-rule="evenodd" d="M66.667 30H150v30H66.667z" clip-rule="evenodd"/></mask></defs><g mask="url(#j)"><path fill="#f2bc51" d="M-1000-1000h2000v2000h-2000z"/></g><defs><mask id="k"><path fill="#fff" fill-rule="evenodd" d="M33.333 60h33.334v30H33.333z" clip-rule="evenodd"/></mask></defs><g mask="url(#k)"><path fill="#f2bc51" d="M-1000-1000h2000v2000h-2000z"/></g><defs><mask id="l"><path fill="#fff" fill-rule="evenodd" d="M-50 90h83.333v80H-50z" clip-rule="evenodd"/></mask></defs><g mask="url(#l)"><path fill="#f2bc51" d="M-1000-1000h2000v2000h-2000z"/></g><defs><mask id="m"><path fill="#fff" fill-rule="evenodd" d="M66.667 90H150v80H66.667z" clip-rule="evenodd"/></mask></defs><g mask="url(#m)"><path fill="#f2bc51" d="M-1000-1000h2000v2000h-2000z"/></g><path fill="none" stroke="#333" stroke-linecap="round" stroke-linejoin="round" stroke-width=".5" d="M33.333-50v220M66.667-50v220M-50 30h200M-50 60h200M-50 90h200"/></g><path fill="none" stroke="#333" stroke-linecap="round" stroke-linejoin="round" stroke-width=".5" d="M0 0h100v120H0z"/></svg>