<svg preserveAspectRatio="xMidYMin slice" viewBox="-10 -10 120 140" xmlns="http://www.w3.org/2000/svg"><defs><mask id="a"><path clip-rule="evenodd" d="M0 0h100v120H0z" fill-rule="evenodd" fill="#fff"/></mask></defs><g mask="url(#a)"><path d="M0 0h100v120H0z" fill-rule="evenodd" fill="#f0f0f0"/><defs><mask id="b"><path clip-rule="evenodd" d="M32.915-39.822 144.97 94.644l468.697 170.977A600 600 0 0 0-51.223-531.4L32.915-39.823z" fill-rule="evenodd" fill="#fff" stroke-width=".1" stroke="#fff"/></mask></defs><g mask="url(#b)"><path fill="#f6f6f6" style="cursor:pointer" d="M-1000-1000h2000v2000h-2000z" transform="rotate(50.194)"/></g><defs><mask id="c"><path clip-rule="evenodd" d="M125.686 110.714 13.63-23.752-188.99-490.35a600 600 0 0 0-142.653 87.371L-18.457-23.047 119.206 142.15l317.366 376.72a600 600 0 0 0 111.876-124.88L125.686 110.715z" fill-rule="evenodd" fill="#fff" stroke-width=".1" stroke="#fff"/></mask></defs><g mask="url(#c)"><path fill="#f6f6f6" style="cursor:pointer" d="M-1000-1000h2000v2000h-2000z" transform="rotate(50.194)"/></g><defs><mask id="d"><path clip-rule="evenodd" d="M87.118 142.854-24.938 8.388l-419.202-288.72a600 600 0 0 0-67.247 128.566L-44.222 24.458 67.834 158.924l88.616 491.557a600 600 0 0 0 138.853-42.917L87.118 142.854z" fill-rule="evenodd" fill="#fff" stroke-width=".1" stroke="#fff"/></mask></defs><g mask="url(#d)"><path fill="#f6f6f6" style="cursor:pointer" d="M-1000-1000h2000v2000h-2000z" transform="rotate(50.194)"/></g><defs><mask id="e"><path clip-rule="evenodd" d="M32.915-39.822 144.97 94.644l468.697 170.977a600 600 0 0 1-65.22 128.37l-422.76-283.277L13.63-23.752-188.99-490.35A600 600 0 0 1-51.223-531.4L32.915-39.823z" fill-rule="evenodd" fill="#fff"/></mask></defs><g mask="url(#e)"><path fill="#f2bc51" style="cursor:pointer" d="M-1000-1000h2000v2000h-2000z" transform="rotate(50.194)"/></g><defs><mask id="f"><path clip-rule="evenodd" d="M-18.457-23.047 119.206 142.15l317.366 376.72a600 600 0 0 1-141.27 88.694L87.119 142.854-24.938 8.388l-419.202-288.72a600 600 0 0 1 112.497-122.646L-18.457-23.047z" fill-rule="evenodd" fill="#fff"/></mask></defs><g mask="url(#f)"><path fill="#f2bc51" style="cursor:pointer" d="M-1000-1000h2000v2000h-2000z" transform="rotate(50.194)"/></g><defs><mask id="g"><path clip-rule="evenodd" d="M-44.222 24.458 67.834 158.924l88.616 491.557a600 600 0 0 1-667.837-802.247L-44.222 24.458z" fill-rule="evenodd" fill="#fff"/></mask></defs><g mask="url(#g)"><path fill="#f2bc51" style="cursor:pointer" d="M-1000-1000h2000v2000h-2000z" transform="rotate(50.194)"/></g><path d="M32.915-39.822 144.97 94.644m-19.284 16.07L13.63-23.752m-32.087.705L119.206 142.15m-32.088.704L-24.938 8.388m-19.284 16.07L67.834 158.924" fill="none" stroke-linecap="round" stroke-linejoin="round" stroke-width=".5" stroke="#333"/></g><path d="M0 0h100v120H0z" fill="none" stroke-linecap="round" stroke-linejoin="round" stroke-width=".5" stroke="#333"/></svg>