<svg preserveAspectRatio="xMidYMin slice" viewBox="0 0 120 200" xmlns="http://www.w3.org/2000/svg"><g transform="translate(10 10)"><defs><mask id="a"><path clip-rule="evenodd" d="M0 0h100v120H0z" fill-rule="evenodd" fill="#fff"/></mask></defs><g mask="url(#a)"><path d="M0 0h100v120H0z" fill-rule="evenodd" fill="#f0f0f0"/><defs><pattern height="60" id="f" patternUnits="userSpaceOnUse" width="50" x="0" y="0"><g fill="none" stroke-linecap="round" stroke-linejoin="round" stroke-width=".5" stroke="#333"><path d="M0 0a25 30 0 0 0 50 0"/><path d="M45 0A20 25 0 0 1 5 0m-30 30a25 30 0 0 0 50 0"/><path d="M20 30a20 25 0 0 1-40 0m45 0a25 30 0 0 0 50 0"/><path d="M70 30a20 25 0 0 1-40 0m-55-60a25 30 0 0 0 50 0"/><path d="M25-30a25 30 0 0 0 50 0M20 30v-.606M30 30v-.606M5 60v-.606M45 60v-.606"/></g></pattern><pattern height="60" id="b" patternUnits="userSpaceOnUse" width="50" x="0" y="0"><path fill="#fff" d="M0 0h50v60H0z"/><path d="M0 0a25 30 0 0 0 50 0v-.606h-5V0A20 25 0 0 1 5 0v-.606H0V0z"/><path d="M-25 30a25 30 0 0 0 50 0v-.606h-5V30a20 25 0 0 1-40 0v-.606h-5V30z"/><path d="M25 30a25 30 0 0 0 50 0v-.606h-5V30a20 25 0 0 1-40 0v-.606h-5V30zM0 60v-.606h5V60z"/><path d="M50 60v-.606h-5V60z"/></pattern><pattern height="60" id="d" patternUnits="userSpaceOnUse" width="50" x="0" y="0"><path d="M0 0h50v60H0z"/><g fill="#fff"><path d="M0 0a25 30 0 0 0 50 0v-.606h-5V0A20 25 0 0 1 5 0v-.606H0V0z"/><path d="M-25 30a25 30 0 0 0 50 0v-.606h-5V30a20 25 0 0 1-40 0v-.606h-5V30z"/><path d="M25 30a25 30 0 0 0 50 0v-.606h-5V30a20 25 0 0 1-40 0v-.606h-5V30zM0 60v-.606h5V60z"/><path d="M50 60v-.606h-5V60z"/></g></pattern></defs><mask id="c"><path fill="url(#b)" d="M-500-500H600V600H-500z"/></mask><g mask="url(#c)"><path fill="#f2bc51" style="cursor:pointer" d="M-1000-1000h2000v2000h-2000z"/></g><mask id="e"><path fill="url(#d)" d="M-500-500H600V600H-500z"/></mask><g mask="url(#e)"><path fill="#f6f6f6" style="cursor:pointer" d="M-1000-1000h2000v2000h-2000z"/></g><path fill="url(#f)" d="M-500-500H600V600H-500z"/></g><path d="M0 0h100v120H0z" fill="none" stroke-linecap="round" stroke-linejoin="round" stroke-width=".5" stroke="#333"/></g></svg>