<svg preserveAspectRatio="xMidYMin slice" viewBox="0 0 120 200" xmlns="http://www.w3.org/2000/svg"><g filter="url(#a)" transform="translate(10 10)"><defs><filter height="200%" id="a" width="200%" x="-20%" y="-20%"><feOffset dx=".2" dy=".2" in="SourceAlpha" result="offsetOut"/><feGaussianBlur in="offsetOut" result="blurOut"/><feBlend in2="blurOut" in="SourceGraphic"/></filter></defs><defs><mask id="b"><path d="M0 0h100v120H0z" fill="#fff"/></mask></defs><g mask="url(#b)"><path d="M0 0h100v120H0z" fill="#f0f0f0"/><g style="pointer-events:visiblePainted;cursor:pointer"><defs><pattern height="60" id="h" patternUnits="userSpaceOnUse" width="50" x="0" y="0"><path d="M2.5 2.5v25h45v-25zM0 32.5h22.5v25H0m50-25H27.5v25H50" fill="none" stroke-linecap="round" stroke-linejoin="round" stroke-width=".5" stroke="#333"/></pattern><pattern height="60" id="d" patternUnits="userSpaceOnUse" width="50" x="0" y="0"><path fill="#fff" d="M0 0h50v60H0z"/><mask id="c"><path fill="#fff" d="M0 0h50v60H0z"/><path d="M2.5 2.5v25h45v-25z"/></mask><path d="M0 0h50v32.5H27.5v25H50V60H0v-2.5h22.5v-25H0z" mask="url(#c)"/></pattern><pattern height="60" id="f" patternUnits="userSpaceOnUse" width="50" x="0" y="0"><path d="M0 0h50v60H0z"/><path d="M0 0h50v32.5H27.5v25H50V60H0v-2.5h22.5v-25H0z" mask="url(#c)" fill="#fff"/></pattern></defs><mask id="e"><path fill="url(#d)" d="M-500-500H600V600H-500z"/></mask><g mask="url(#e)"><path fill="#0c6793" d="M-500-500H600V600H-500z"/></g><mask id="g"><path fill="url(#f)" d="M-500-500H600V600H-500z"/></mask><g mask="url(#g)"><path fill="#f6f6f6" d="M-500-500H600V600H-500z"/></g><path fill="url(#h)" d="M-500-500H600V600H-500z"/></g></g><path d="M0 0h100v120H0z" fill="none" stroke-linecap="round" stroke-linejoin="round" stroke-width=".5" stroke="#333"/></g></svg>