<?xml version="1.0" encoding="UTF-8" standalone="no"?>
<svg xmlns="http://www.w3.org/2000/svg" preserveAspectRatio="xMidYMin slice" viewBox="-10 -10 120 140"><defs><mask id="a"><path fill="#fff" fill-rule="evenodd" d="M0 0h100v120H0z" clip-rule="evenodd"/></mask></defs><g mask="url(#a)"><path fill="#f0f0f0" fill-rule="evenodd" d="M0 0h100v120H0z"/><defs><pattern id="f" width="50" height="60" x="0" y="0" patternUnits="userSpaceOnUse"><g fill="none" stroke="#333" stroke-linecap="round" stroke-linejoin="round" stroke-width=".5"><path d="M0 0a25 30 0 0 0 50 0"/><path d="M45 0A20 25 0 0 1 5 0m-30 30a25 30 0 0 0 50 0"/><path d="M20 30a20 25 0 0 1-40 0m45 0a25 30 0 0 0 50 0"/><path d="M70 30a20 25 0 0 1-40 0m-55-60a25 30 0 0 0 50 0"/><path d="M25-30a25 30 0 0 0 50 0M20 30v-.606M30 30v-.606M5 60v-.606M45 60v-.606"/></g></pattern><pattern id="b" width="50" height="60" x="0" y="0" patternUnits="userSpaceOnUse"><path fill="#fff" d="M-1-1h52v62H-1z" shape-rendering="crispEdges"/><path d="M0 0a25 30 0 0 0 50 0v-.606h-5V0A20 25 0 0 1 5 0v-.606H0z"/><path d="M-25 30a25 30 0 0 0 50 0v-.606h-5V30a20 25 0 0 1-40 0v-.606h-5z"/><path d="M25 30a25 30 0 0 0 50 0v-.606h-5V30a20 25 0 0 1-40 0v-.606h-5zM0 60v-.606h5V60z"/><path d="M50 60v-.606h-5V60z"/></pattern><pattern id="d" width="50" height="60" x="0" y="0" patternUnits="userSpaceOnUse"><path d="M-1-1h52v62H-1z" shape-rendering="crispEdges"/><g fill="#fff"><path d="M0 0a25 30 0 0 0 50 0v-.606h-5V0A20 25 0 0 1 5 0v-.606H0z"/><path d="M-25 30a25 30 0 0 0 50 0v-.606h-5V30a20 25 0 0 1-40 0v-.606h-5z"/><path d="M25 30a25 30 0 0 0 50 0v-.606h-5V30a20 25 0 0 1-40 0v-.606h-5zM0 60v-.606h5V60z"/><path d="M50 60v-.606h-5V60z"/></g></pattern></defs><mask id="c"><path fill="url(#b)" d="M-500-500H600V600H-500z"/></mask><g mask="url(#c)"><path fill="#f6f6f6" d="M-1000-1000h2000v2000h-2000z"/></g><mask id="e"><path fill="url(#d)" d="M-500-500H600V600H-500z"/></mask><g mask="url(#e)"><path fill="#0c6793" d="M-1000-1000h2000v2000h-2000z"/></g><path fill="url(#f)" d="M-500-500H600V600H-500z"/></g><path fill="none" stroke="#333" stroke-linecap="round" stroke-linejoin="round" stroke-width=".5" d="M0 0h100v120H0z"/></svg>