<?xml version="1.0" encoding="UTF-8" standalone="no"?>
<svg xmlns="http://www.w3.org/2000/svg" preserveAspectRatio="xMidYMin slice" viewBox="-10 -10 120 140"><defs><mask id="a"><path fill="#fff" fill-rule="evenodd" d="M0 0h100v120H0z" clip-rule="evenodd"/></mask></defs><g mask="url(#a)"><path fill="#f0f0f0" fill-rule="evenodd" d="M0 0h100v120H0z"/><g transform="rotate(-45)"><defs><pattern id="f" width="47.14" height="60" x="0" y="0" patternUnits="userSpaceOnUse"><path fill="none" stroke="#333" stroke-linecap="round" stroke-linejoin="round" stroke-width=".5" d="M16.028 0v4.714H0M18.856 0v22.458h9.428V0m2.829 0v4.714H47.14M0 7.542h4.714v44.916H0m7.542-27.172h32.056v9.428H7.542zM47.14 7.542h-4.714v44.916h4.714M16.028 60v-4.714H0M18.856 60V37.542h9.428V60m2.829 0v-4.714H47.14"/></pattern><pattern id="b" width="47.14" height="60" x="0" y="0" patternUnits="userSpaceOnUse"><path fill="#fff" d="M-1-1h49.14v62H-1z" shape-rendering="crispEdges"/><path d="M-1-1h17.028v5.714H-1zm19.856 0h9.428v23.458h-9.428zm12.257 0H48.14v5.714H31.113zM-1 7.542h5.714v44.916H-1zm8.542 17.744h32.056v9.428H7.542zM48.14 7.542h-5.714v44.916h5.714zM-1 61h17.028v-5.714H-1zm19.856 0h9.428V37.542h-9.428zm12.257 0H48.14v-5.714H31.113z"/></pattern><pattern id="d" width="47.14" height="60" x="0" y="0" patternUnits="userSpaceOnUse"><path d="M-1-1h49.14v62H-1z" shape-rendering="crispEdges"/><path fill="#fff" d="M-1-1h17.028v5.714H-1zm19.856 0h9.428v23.458h-9.428zm12.257 0H48.14v5.714H31.113zM-1 7.542h5.714v44.916H-1zm8.542 17.744h32.056v9.428H7.542zM48.14 7.542h-5.714v44.916h5.714zM-1 61h17.028v-5.714H-1zm19.856 0h9.428V37.542h-9.428zm12.257 0H48.14v-5.714H31.113z"/></pattern></defs><mask id="c"><path fill="url(#b)" d="M-500-500H600V600H-500z"/></mask><g mask="url(#c)"><path fill="#f6f6f6" d="M-1000-1000h2000v2000h-2000z"/></g><mask id="e"><path fill="url(#d)" d="M-500-500H600V600H-500z"/></mask><g mask="url(#e)"><path fill="#0c6793" d="M-1000-1000h2000v2000h-2000z"/></g><path fill="url(#f)" d="M-500-500H600V600H-500z"/></g></g><path fill="none" stroke="#333" stroke-linecap="round" stroke-linejoin="round" stroke-width=".5" d="M0 0h100v120H0z"/></svg>