<svg preserveAspectRatio="xMidYMin slice" viewBox="0 0 120 200" xmlns="http://www.w3.org/2000/svg"><g transform="translate(10 10)"><defs><mask id="a"><path clip-rule="evenodd" d="M0 0h100v120H0z" fill-rule="evenodd" fill="#fff"/></mask></defs><g mask="url(#a)"><path d="M0 0h100v120H0z" fill-rule="evenodd" fill="#f0f0f0"/><defs><pattern height="80" id="f" patternUnits="userSpaceOnUse" width="57.143" x="0" y="0"><path d="M0 40V20h14.286V0H28.57v20h14.286v20zm0 0v20h14.286v20H28.57V60h14.286V40zM0 0h57.143M0 80h57.143m0-60v40m0-20H42.857" fill="none" stroke-linecap="round" stroke-linejoin="round" stroke-width=".5" stroke="#333"/></pattern><pattern height="80" id="b" patternUnits="userSpaceOnUse" width="57.143" x="0" y="0"><path d="M0 0h57.143v80H0z"/><path d="M0 40V20h14.286V0H28.57v20h14.286v20zm0 40V60h14.286v20zm28.571 0V60h14.286V40h14.286v40z" fill="#fff"/></pattern><pattern height="80" id="d" patternUnits="userSpaceOnUse" width="57.143" x="0" y="0"><path fill="#fff" d="M0 0h57.143v80H0z"/><path d="M0 40V20h14.286V0H28.57v20h14.286v20zm0 40V60h14.286v20zm28.571 0V60h14.286V40h14.286v40z"/></pattern></defs><mask id="c"><path fill="url(#b)" d="M-500-500H600V600H-500z"/></mask><g mask="url(#c)"><path fill="#f2bc51" style="cursor:pointer" d="M-1000-1000h2000v2000h-2000z"/></g><mask id="e"><path fill="url(#d)" d="M-500-500H600V600H-500z"/></mask><g mask="url(#e)"><path fill="#f6f6f6" style="cursor:pointer" d="M-1000-1000h2000v2000h-2000z"/></g><path fill="url(#f)" d="M-500-500H600V600H-500z"/></g><path d="M0 0h100v120H0z" fill="none" stroke-linecap="round" stroke-linejoin="round" stroke-width=".5" stroke="#333"/></g></svg>