<?xml version="1.0" encoding="UTF-8" standalone="no"?>
<svg xmlns="http://www.w3.org/2000/svg" preserveAspectRatio="xMidYMin slice" viewBox="-10 -10 120 140"><defs><mask id="a"><path fill="#fff" fill-rule="evenodd" d="M0 0h100v120H0z" clip-rule="evenodd"/></mask></defs><g mask="url(#a)"><path fill="#f0f0f0" fill-rule="evenodd" d="M0 0h100v120H0z"/><defs><pattern id="f" width="50" height="39.998" x="0" y="0" patternUnits="userSpaceOnUse"><g fill="none" stroke="#333" stroke-linecap="round" stroke-linejoin="round" stroke-width=".5"><path d="M0 0q25 39.998 50 0"/><path d="M0 0q25 20 50 0m-75 20q25 39.998 50 0"/><path d="M-25 20q25 19.998 50 0m0 0q25 39.998 50 0"/><path d="M25 20q25 19.998 50 0M-25-20q25 40 50 0m0 0q25 40 50 0"/></g></pattern><pattern id="b" width="50" height="39.998" x="0" y="0" patternUnits="userSpaceOnUse"><path fill="#fff" d="M-1-1h52v41.998H-1z" shape-rendering="crispEdges"/><path d="M0 0q25 39.998 50 0Q25 20 0 0"/><path d="M-25 20q25 39.998 50 0-25 19.998-50 0m50 0q25 39.998 50 0-25 19.998-50 0"/></pattern><pattern id="d" width="50" height="39.998" x="0" y="0" patternUnits="userSpaceOnUse"><path d="M-1-1h52v41.998H-1z" shape-rendering="crispEdges"/><g fill="#fff"><path d="M0 0q25 39.998 50 0Q25 20 0 0"/><path d="M-25 20q25 39.998 50 0-25 19.998-50 0m50 0q25 39.998 50 0-25 19.998-50 0"/></g></pattern></defs><mask id="c"><path fill="url(#b)" d="M-500-500H600V600H-500z"/></mask><g mask="url(#c)"><path fill="#f6f6f6" d="M-1000-1000h2000v2000h-2000z"/></g><mask id="e"><path fill="url(#d)" d="M-500-500H600V600H-500z"/></mask><g mask="url(#e)"><path fill="#0c6793" d="M-1000-1000h2000v2000h-2000z"/></g><path fill="url(#f)" d="M-500-500H600V600H-500z"/></g><path fill="none" stroke="#333" stroke-linecap="round" stroke-linejoin="round" stroke-width=".5" d="M0 0h100v120H0z"/></svg>