<?xml version="1.0" encoding="UTF-8" standalone="no"?>
<svg xmlns="http://www.w3.org/2000/svg" viewBox="-10 -10 120 140" preserveAspectRatio="xMidYMin slice"><defs><mask id="a"><path d="M0 0h100v120H0z" clip-rule="evenodd" fill-rule="evenodd" fill="#fff"/></mask></defs><g mask="url(#a)"><path d="M0 0h100v120H0z" fill-rule="evenodd" fill="#f0f0f0"/><defs><mask id="b"><path d="M-30 20h160l515.367 64.42a600 600 0 1 0-1190.734 0L-30 20z" clip-rule="evenodd" fill-rule="evenodd" fill="#fff" stroke="#fff" stroke-width=".1"/></mask></defs><g mask="url(#b)"><path fill="#f6f6f6" d="M-1000-1000h2000v2000h-2000z"/></g><defs><mask id="c"><path d="M130 40H-30l-515.367-64.42a600 600 0 0 0 0 148.84L-30 60h160l515.367 64.42a600 600 0 0 0 0-148.84L130 40z" clip-rule="evenodd" fill-rule="evenodd" fill="#fff" stroke="#fff" stroke-width=".1"/></mask></defs><g mask="url(#c)"><path fill="#f6f6f6" d="M-1000-1000h2000v2000h-2000z"/></g><defs><mask id="d"><path d="M130 80H-30l-515.367-64.42a600 600 0 0 0 0 148.84L-30 100h160l515.367 64.42a600 600 0 0 0 0-148.84L130 80z" clip-rule="evenodd" fill-rule="evenodd" fill="#fff" stroke="#fff" stroke-width=".1"/></mask></defs><g mask="url(#d)"><path fill="#f6f6f6" d="M-1000-1000h2000v2000h-2000z"/></g><defs><mask id="e"><path d="M-30 20h160l515.367-64.42a600 600 0 0 1 0 148.84L130 40H-30l-515.367 64.42a600 600 0 0 1 0-148.84L-30 20z" clip-rule="evenodd" fill-rule="evenodd" fill="#fff"/></mask></defs><g mask="url(#e)"><path fill="#f2bc51" d="M-1000-1000h2000v2000h-2000z"/></g><defs><mask id="f"><path d="M-30 60h160L645.367-4.42a600 600 0 0 1 0 148.84L130 80H-30l-515.367 64.42a600 600 0 0 1 0-148.84L-30 60z" clip-rule="evenodd" fill-rule="evenodd" fill="#fff"/></mask></defs><g mask="url(#f)"><path fill="#f2bc51" d="M-1000-1000h2000v2000h-2000z"/></g><defs><mask id="g"><path d="M-30 100h160l515.367-64.42a600 600 0 1 1-1190.734 0L-30 100z" clip-rule="evenodd" fill-rule="evenodd" fill="#fff"/></mask></defs><g mask="url(#g)"><path fill="#f2bc51" d="M-1000-1000h2000v2000h-2000z"/></g><path d="M-30 20h160m0 20H-30m0 20h160m0 20H-30m0 20h160" stroke="#333" stroke-width=".5" fill="none" stroke-linecap="round" stroke-linejoin="round"/></g><path d="M0 0h100v120H0z" stroke="#333" stroke-width=".5" fill="none" stroke-linecap="round" stroke-linejoin="round"/></svg>