<svg preserveAspectRatio="xMidYMin slice" viewBox="-10 -10 120 140" xmlns="http://www.w3.org/2000/svg"><defs><mask id="a"><path clip-rule="evenodd" d="M0 0h100v120H0z" fill-rule="evenodd" fill="#fff"/></mask></defs><g mask="url(#a)"><path d="M0 0h100v120H0z" fill-rule="evenodd" fill="#f0f0f0"/><defs><mask id="b"><path clip-rule="evenodd" d="M119.206 143.047 50 60v600a600 600 0 0 0 384.11-139.067L119.207 143.047z" fill-rule="evenodd" fill="#fff" stroke-width=".1" stroke="#fff"/></mask></defs><g mask="url(#b)"><path fill="#f6f6f6" style="cursor:pointer" d="M-1000-1000h2000v2000h-2000z"/></g><defs><mask id="c"><path clip-rule="evenodd" d="M-19.206 143.047 50 60h-600a600 600 0 0 0 215.89 460.933l314.904-377.886z" fill-rule="evenodd" fill="#fff" stroke-width=".1" stroke="#fff"/></mask></defs><g mask="url(#c)"><path fill="#f6f6f6" style="cursor:pointer" d="M-1000-1000h2000v2000h-2000z"/></g><defs><mask id="d"><path clip-rule="evenodd" d="M119.206-23.047 50 60h600a600 600 0 0 0-215.89-460.933L119.207-23.047z" fill-rule="evenodd" fill="#fff" stroke-width=".1" stroke="#fff"/></mask></defs><g mask="url(#d)"><path fill="#f6f6f6" style="cursor:pointer" d="M-1000-1000h2000v2000h-2000z"/></g><defs><mask id="e"><path clip-rule="evenodd" d="M-19.206-23.047 50 60v-600a600 600 0 0 0-384.11 139.067L-19.207-23.047z" fill-rule="evenodd" fill="#fff" stroke-width=".1" stroke="#fff"/></mask></defs><g mask="url(#e)"><path fill="#f6f6f6" style="cursor:pointer" d="M-1000-1000h2000v2000h-2000z"/></g><defs><mask id="f"><path clip-rule="evenodd" d="M119.206-23.047 50 60v-600a600 600 0 0 1 384.11 139.067L119.207-23.047z" fill-rule="evenodd" fill="#fff"/></mask></defs><g mask="url(#f)"><path fill="#f2bc51" style="cursor:pointer" d="M-1000-1000h2000v2000h-2000z"/></g><defs><mask id="g"><path clip-rule="evenodd" d="M-19.206-23.047 50 60h-600a600 600 0 0 1 215.89-460.933L-19.207-23.047z" fill-rule="evenodd" fill="#fff"/></mask></defs><g mask="url(#g)"><path fill="#f2bc51" style="cursor:pointer" d="M-1000-1000h2000v2000h-2000z"/></g><defs><mask id="h"><path clip-rule="evenodd" d="M119.206 143.047 50 60h600a600 600 0 0 1-215.89 460.933L119.207 143.047z" fill-rule="evenodd" fill="#fff"/></mask></defs><g mask="url(#h)"><path fill="#f2bc51" style="cursor:pointer" d="M-1000-1000h2000v2000h-2000z"/></g><defs><mask id="i"><path clip-rule="evenodd" d="M-19.206 143.047 50 60v600a600 600 0 0 1-384.11-139.067l314.904-377.886z" fill-rule="evenodd" fill="#fff"/></mask></defs><g mask="url(#i)"><path fill="#f2bc51" style="cursor:pointer" d="M-1000-1000h2000v2000h-2000z"/></g><path d="M-19.206-23.047 50 60m69.206 83.047L50 60m-69.206 83.047L50 60m69.206-83.047L50 60m0 0v-80m0 80v90m0-90h-80m80 0h80" fill="none" stroke-linecap="round" stroke-linejoin="round" stroke-width=".5" stroke="#333"/></g><path d="M0 0h100v120H0z" fill="none" stroke-linecap="round" stroke-linejoin="round" stroke-width=".5" stroke="#333"/></svg>