<?xml version="1.0" encoding="UTF-8" standalone="no"?>
<svg xmlns="http://www.w3.org/2000/svg" viewBox="-10 -10 120 140" preserveAspectRatio="xMidYMin slice"><defs><mask id="a"><path d="M0 0h100v120H0z" clip-rule="evenodd" fill-rule="evenodd" fill="#fff"/></mask></defs><g mask="url(#a)"><path d="M0 0h100v120H0z" fill-rule="evenodd" fill="#f0f0f0"/><defs><pattern id="f" width="50" height="60" x="0" y="0" patternUnits="userSpaceOnUse"><path d="M2.5 2.5v25h45v-25zM0 32.5h22.5v25H0m50-25H27.5v25H50" stroke="#333" stroke-width=".5" fill="none" stroke-linecap="round" stroke-linejoin="round"/></pattern><pattern id="b" width="50" height="60" x="0" y="0" patternUnits="userSpaceOnUse"><path shape-rendering="crispEdges" d="M-1-1h52v62H-1z"/><path d="M2.5 2.5v25h45v-25zm-3.5 30h23.5v25H-1zm52 0H27.5v25H51z" fill="#fff"/></pattern><pattern id="d" width="50" height="60" x="0" y="0" patternUnits="userSpaceOnUse"><path shape-rendering="crispEdges" fill="#fff" d="M-1-1h52v62H-1z"/><path d="M2.5 2.5v25h45v-25zm-3.5 30h23.5v25H-1zm52 0H27.5v25H51z"/></pattern></defs><mask id="c"><path fill="url(#b)" d="M-500-500H600V600H-500z"/></mask><g mask="url(#c)"><path fill="#f2bc51" style="cursor:pointer" d="M-1000-1000h2000v2000h-2000z"/></g><mask id="e"><path fill="url(#d)" d="M-500-500H600V600H-500z"/></mask><g mask="url(#e)"><path fill="#f6f6f6" style="cursor:pointer" d="M-1000-1000h2000v2000h-2000z"/></g><path fill="url(#f)" d="M-500-500H600V600H-500z"/></g><path d="M0 0h100v120H0z" stroke="#333" stroke-width=".5" fill="none" stroke-linecap="round" stroke-linejoin="round"/></svg>