<?xml version="1.0" encoding="UTF-8" standalone="no"?>
<svg xmlns="http://www.w3.org/2000/svg" preserveAspectRatio="xMidYMin slice" viewBox="-10 -10 120 140"><defs><mask id="a"><path fill="#fff" fill-rule="evenodd" d="M0 0h100v120H0z" clip-rule="evenodd"/></mask></defs><g mask="url(#a)"><path fill="#f0f0f0" fill-rule="evenodd" d="M0 0h100v120H0z"/><defs><mask id="b"><path fill="#fff" fill-rule="evenodd" stroke="#fff" stroke-width=".1" d="M119.206 143.047 50 60v90l-205.77 493.846a600 600 0 0 0 614.88-92.913z" clip-rule="evenodd"/></mask></defs><g mask="url(#b)"><path fill="#f6f6f6" d="M-1000-1000h2000v2000h-2000z"/></g><defs><mask id="c"><path fill="#fff" fill-rule="evenodd" stroke="#fff" stroke-width=".1" d="M-19.206 143.047 50 60h-80l-471.737-257.311a600 600 0 0 0 142.626 748.244z" clip-rule="evenodd"/></mask></defs><g mask="url(#c)"><path fill="#f6f6f6" d="M-1000-1000h2000v2000h-2000z"/></g><defs><mask id="d"><path fill="#fff" fill-rule="evenodd" stroke="#fff" stroke-width=".1" d="M119.206-23.047 50 60h80l471.737 257.311a600 600 0 0 0-142.626-748.244z" clip-rule="evenodd"/></mask></defs><g mask="url(#d)"><path fill="#f6f6f6" d="M-1000-1000h2000v2000h-2000z"/></g><defs><mask id="e"><path fill="#fff" fill-rule="evenodd" stroke="#fff" stroke-width=".1" d="M-19.206-23.047 50 60v-80l243.328-486.656a600 600 0 0 0-652.439 75.723z" clip-rule="evenodd"/></mask></defs><g mask="url(#e)"><path fill="#f6f6f6" d="M-1000-1000h2000v2000h-2000z"/></g><defs><mask id="f"><path fill="#fff" fill-rule="evenodd" d="M119.206-23.047 50 60v-80l-243.328-486.656a600 600 0 0 1 652.439 75.723z" clip-rule="evenodd"/></mask></defs><g mask="url(#f)"><path fill="#f2bc51" d="M-1000-1000h2000v2000h-2000z"/></g><defs><mask id="g"><path fill="#fff" fill-rule="evenodd" d="M-19.206-23.047 50 60h-80l-471.737 257.311a600 600 0 0 1 142.626-748.244z" clip-rule="evenodd"/></mask></defs><g mask="url(#g)"><path fill="#f2bc51" d="M-1000-1000h2000v2000h-2000z"/></g><defs><mask id="h"><path fill="#fff" fill-rule="evenodd" d="M119.206 143.047 50 60h80l471.737-257.311a600 600 0 0 1-142.626 748.244z" clip-rule="evenodd"/></mask></defs><g mask="url(#h)"><path fill="#f2bc51" d="M-1000-1000h2000v2000h-2000z"/></g><defs><mask id="i"><path fill="#fff" fill-rule="evenodd" d="M-19.206 143.047 50 60v90l205.77 493.846a600 600 0 0 1-614.88-92.913z" clip-rule="evenodd"/></mask></defs><g mask="url(#i)"><path fill="#f2bc51" d="M-1000-1000h2000v2000h-2000z"/></g><path fill="none" stroke="#333" stroke-linecap="round" stroke-linejoin="round" stroke-width=".5" d="M-19.206-23.047 50 60m69.206 83.047L50 60m-69.206 83.047L50 60m69.206-83.047L50 60m0 0v-80m0 80v90m0-90h-80m80 0h80"/></g><path fill="none" stroke="#333" stroke-linecap="round" stroke-linejoin="round" stroke-width=".5" d="M0 0h100v120H0z"/></svg>