<svg preserveAspectRatio="xMidYMin slice" viewBox="-10 -10 120 140" xmlns="http://www.w3.org/2000/svg"><defs><mask id="a"><path clip-rule="evenodd" d="M0 0h100v120H0z" fill-rule="evenodd" fill="#fff"/></mask></defs><g mask="url(#a)"><path d="M0 0h100v120H0z" fill-rule="evenodd" fill="#f0f0f0"/><defs><mask id="b"><path clip-rule="evenodd" d="M-38.608 85.582 51.915-23.047 63.834-539.84a600 600 0 0 0-590.29 766.266L-38.609 85.582z" fill-rule="evenodd" fill="#fff"/></mask></defs><g mask="url(#b)"><path fill="#f6f6f6" style="cursor:pointer" d="M-1000-1000h2000v2000h-2000z" transform="rotate(-50.194)"/></g><defs><mask id="c"><path clip-rule="evenodd" d="M-38.608 85.582 51.915-23.047 63.834-539.84a600 600 0 0 1 217.062 46.047L84.625-23.047-25.706 109.351l-426.93 278.303a600 600 0 0 1-73.82-161.228L-38.609 85.582z" fill-rule="evenodd" fill="#fff"/></mask></defs><g mask="url(#c)"><path fill="#f2bc51" style="cursor:pointer" d="M-1000-1000h2000v2000h-2000z" transform="rotate(-50.194)"/></g><defs><mask id="d"><path clip-rule="evenodd" d="M84.625-23.047-25.706 109.351l-426.93 278.303a600 600 0 0 0 112.334 128.048l321.096-374.9 136.54-163.849L427.88-406.054a600 600 0 0 0-146.984-87.74L84.625-23.046z" fill-rule="evenodd" fill="#fff"/></mask></defs><g mask="url(#d)"><path fill="#f6f6f6" style="cursor:pointer" d="M-1000-1000h2000v2000h-2000z" transform="rotate(-50.194)"/></g><defs><mask id="e"><path clip-rule="evenodd" d="m-19.206 140.802 136.54-163.849L427.88-406.054A600 600 0 0 1 539.105-287.53L125.607 6.278 12.902 141.524-198.51 606.116a600 600 0 0 1-141.791-90.414l321.096-374.9z" fill-rule="evenodd" fill="#fff"/></mask></defs><g mask="url(#e)"><path fill="#f2bc51" style="cursor:pointer" d="M-1000-1000h2000v2000h-2000z" transform="rotate(-50.194)"/></g><defs><mask id="f"><path clip-rule="evenodd" d="M125.607 6.278 12.902 141.524-198.51 606.116a600 600 0 0 0 173.108 49.127l64.01-505.313 87-104.4 513.696-98.315a600 600 0 0 0-100.199-234.743L125.607 6.278z" fill-rule="evenodd" fill="#fff"/></mask></defs><g mask="url(#f)"><path fill="#f6f6f6" style="cursor:pointer" d="M-1000-1000h2000v2000h-2000z" transform="rotate(-50.194)"/></g><defs><mask id="g"><path clip-rule="evenodd" d="m38.608 149.929 87-104.4 513.696-98.315a600 600 0 0 1-664.707 708.03l64.011-505.315z" fill-rule="evenodd" fill="#fff"/></mask></defs><g mask="url(#g)"><path fill="#f2bc51" style="cursor:pointer" d="M-1000-1000h2000v2000h-2000z" transform="rotate(-50.194)"/></g><path d="M-38.608 85.582 51.915-23.047m32.71 0L-25.706 109.351m6.5 31.451 136.54-163.849m8.273 29.325L12.902 141.524m25.706 8.405 87-104.4" fill="none" stroke-linecap="round" stroke-linejoin="round" stroke-width=".5" stroke="#333"/></g><path d="M0 0h100v120H0z" fill="none" stroke-linecap="round" stroke-linejoin="round" stroke-width=".5" stroke="#333"/></svg>