<?xml version="1.0" encoding="UTF-8" standalone="no"?>
<svg xmlns="http://www.w3.org/2000/svg" viewBox="-10 -10 120 140" preserveAspectRatio="xMidYMin slice"><defs><mask id="a"><path d="M0 0h100v120H0z" clip-rule="evenodd" fill-rule="evenodd" fill="#fff"/></mask></defs><g mask="url(#a)"><path d="M0 0h100v120H0z" fill-rule="evenodd" fill="#f0f0f0"/><defs><pattern id="g" width="50" height="60" x="0" y="0" patternUnits="userSpaceOnUse"><path d="M2.5 2.5v25h45v-25zM0 32.5h22.5v25H0m50-25H27.5v25H50" stroke="#333" stroke-width=".5" fill="none" stroke-linecap="round" stroke-linejoin="round"/></pattern><pattern id="c" width="50" height="60" x="0" y="0" patternUnits="userSpaceOnUse"><path fill="#fff" d="M0 0h50v60H0z"/><mask id="b"><path fill="#fff" d="M0 0h50v60H0z"/><path d="M2.5 2.5v25h45v-25z"/></mask><path mask="url(#b)" d="M0 0h50v32.5H27.5v25H50V60H0v-2.5h22.5v-25H0z"/></pattern><pattern id="e" width="50" height="60" x="0" y="0" patternUnits="userSpaceOnUse"><path d="M0 0h50v60H0z"/><path mask="url(#b)" d="M0 0h50v32.5H27.5v25H50V60H0v-2.5h22.5v-25H0z" fill="#fff"/></pattern></defs><mask id="d"><path fill="url(#c)" d="M-500-500H600V600H-500z"/></mask><g mask="url(#d)"><path fill="#0c6793" style="cursor:pointer" d="M-1000-1000h2000v2000h-2000z"/></g><mask id="f"><path fill="url(#e)" d="M-500-500H600V600H-500z"/></mask><g mask="url(#f)"><path fill="#f6f6f6" style="cursor:pointer" d="M-1000-1000h2000v2000h-2000z"/></g><path fill="url(#g)" d="M-500-500H600V600H-500z"/></g><path d="M0 0h100v120H0z" stroke="#333" stroke-width=".5" fill="none" stroke-linecap="round" stroke-linejoin="round"/></svg>