<?xml version="1.0" encoding="UTF-8" standalone="no"?>
<svg xmlns="http://www.w3.org/2000/svg" preserveAspectRatio="xMidYMin slice" viewBox="-10 -10 120 140"><defs><mask id="a"><path fill="#fff" fill-rule="evenodd" d="M0 0h100v120H0z" clip-rule="evenodd"/></mask></defs><g mask="url(#a)"><path fill="#f0f0f0" fill-rule="evenodd" d="M0 0h100v120H0z"/><defs><pattern id="f" width="25" height="24" x="0" y="0" patternUnits="userSpaceOnUse"><path fill="none" stroke="#333" stroke-linecap="round" stroke-linejoin="round" stroke-width=".5" d="M0 0h25M0 0v24m0 0h25m0-24v24"/></pattern><pattern id="b" width="50" height="48" x="0" y="0" patternUnits="userSpaceOnUse"><path d="M0 0h50v48H0z" shape-rendering="crispEdges"/><path fill="#fff" d="M0 0h25v24H0zm25 24h25v24H25z" shape-rendering="crispEdges"/></pattern><pattern id="d" width="50" height="48" x="0" y="0" patternUnits="userSpaceOnUse"><path d="M0 0h50v48H0z" shape-rendering="crispEdges"/><path fill="#fff" d="M25 0h25v24H25zM0 24h25v24H0z" shape-rendering="crispEdges"/></pattern></defs><mask id="c"><path fill="url(#b)" d="M-500-500H600V600H-500z"/></mask><g mask="url(#c)"><path fill="#f6f6f6" d="M-1000-1000h2000v2000h-2000z"/></g><mask id="e"><path fill="url(#d)" d="M-500-500H600V600H-500z"/></mask><g mask="url(#e)"><path fill="#0c6793" d="M-1000-1000h2000v2000h-2000z"/></g><path fill="url(#f)" d="M-500-500H600V600H-500z"/></g><path fill="none" stroke="#333" stroke-linecap="round" stroke-linejoin="round" stroke-width=".5" d="M0 0h100v120H0z"/></svg>