<?xml version="1.0" encoding="UTF-8" standalone="no"?>
<svg xmlns="http://www.w3.org/2000/svg" preserveAspectRatio="xMidYMin slice" viewBox="-10 -10 120 140"><defs><mask id="a"><path fill="#fff" fill-rule="evenodd" d="M0 0h100v120H0z" clip-rule="evenodd"/></mask></defs><g mask="url(#a)"><path fill="#f0f0f0" fill-rule="evenodd" d="M0 0h100v120H0z"/><defs><mask id="b"><path fill="#fff" fill-rule="evenodd" stroke="#fff" stroke-width=".1" d="M-45.746 94.895 67.058-40.469l380.169-341.414a600 600 0 1 0-760.235 912.282L-45.746 94.895z" clip-rule="evenodd"/></mask></defs><g mask="url(#b)"><path fill="#f6f6f6" d="m-1408.406 128.037 1280.37-1536.443 1536.442 1280.37-1280.37 1536.442z"/></g><defs><mask id="c"><path fill="#fff" fill-rule="evenodd" stroke="#fff" stroke-width=".1" d="M86.73-24.076-26.074 111.29l-380.17 341.414a600 600 0 0 0 119.178 102.012l267.86-411.668L119.206-23.047l356.616-337.705a600 600 0 0 0-121.83-98.827L86.73-24.076z" clip-rule="evenodd"/></mask></defs><g mask="url(#c)"><path fill="#f6f6f6" d="m-1408.406 128.037 1280.37-1536.443 1536.442 1280.37-1280.37 1536.442z"/></g><defs><mask id="d"><path fill="#fff" fill-rule="evenodd" stroke="#fff" stroke-width=".1" d="M126.074 8.711 13.27 144.076-366.9 485.49a600 600 0 0 0 132.58 110.483L32.942 160.469 145.746 25.105l380.17-341.415a600 600 0 0 0-132.58-110.482L126.074 8.71z" clip-rule="evenodd"/></mask></defs><g mask="url(#d)"><path fill="#f6f6f6" d="m-1408.406 128.037 1280.37-1536.443 1536.442 1280.37-1280.37 1536.442z"/></g><defs><mask id="e"><path fill="#fff" fill-rule="evenodd" d="M-45.746 94.895 67.058-40.469 334.32-475.973A600 600 0 0 1 466.9-365.49L86.73-24.076-26.074 111.29l-267.262 435.503a600 600 0 0 1-132.58-110.482l380.17-341.415z" clip-rule="evenodd"/></mask></defs><g mask="url(#e)"><path fill="#f2bc51" d="m-1408.406 128.037 1280.37-1536.443 1536.442 1280.37-1280.37 1536.442z"/></g><defs><mask id="f"><path fill="#fff" fill-rule="evenodd" d="M-19.206 143.047 119.206-23.047l267.86-411.668a600 600 0 0 1 119.177 102.012L126.074 8.711 13.27 144.076l-267.262 435.503a600 600 0 0 1-121.83-98.827l356.616-337.705z" clip-rule="evenodd"/></mask></defs><g mask="url(#f)"><path fill="#f2bc51" d="m-1408.406 128.037 1280.37-1536.443 1536.442 1280.37-1280.37 1536.442z"/></g><defs><mask id="g"><path fill="#fff" fill-rule="evenodd" d="M32.942 160.47 145.746 25.104 413.008-410.4a600 600 0 1 1-760.235 912.282L32.943 160.47z" clip-rule="evenodd"/></mask></defs><g mask="url(#g)"><path fill="#f2bc51" d="m-1408.406 128.037 1280.37-1536.443 1536.442 1280.37-1280.37 1536.442z"/></g><path fill="none" stroke="#333" stroke-linecap="round" stroke-linejoin="round" stroke-width=".5" d="M-45.746 94.895 67.058-40.469M86.73-24.076-26.074 111.29m6.868 31.757L119.206-23.047m6.868 31.758L13.27 144.076m19.672 16.394L145.746 25.104"/></g><path fill="none" stroke="#333" stroke-linecap="round" stroke-linejoin="round" stroke-width=".5" d="M0 0h100v120H0z"/></svg>