<svg preserveAspectRatio="xMidYMin slice" viewBox="0 0 120 200" xmlns="http://www.w3.org/2000/svg"><g filter="url(#a)" transform="translate(10 10)"><defs><filter height="200%" id="a" width="200%" x="-20%" y="-20%"><feOffset dx=".2" dy=".2" in="SourceAlpha" result="offsetOut"/><feGaussianBlur in="offsetOut" result="blurOut"/><feBlend in2="blurOut" in="SourceGraphic"/></filter></defs><defs><clipPath id="b"><path clip-rule="evenodd" d="M0 0h100v120H0z" fill-rule="evenodd" fill="#fff"/></clipPath></defs><g clip-path="url(#b)"><path d="M0 0h100v120H0z" fill-rule="evenodd" fill="#f0f0f0"/><g style="pointer-events:visiblePainted;cursor:pointer"><defs><pattern height="60" id="g" patternUnits="userSpaceOnUse" width="50" x="0" y="0"><g fill="none" stroke-linecap="round" stroke-linejoin="round" stroke-width=".5" stroke="#333"><path d="M0 0a25 30 0 0 0 50 0"/><path d="M45 0A20 25 0 0 1 5 0m-30 30a25 30 0 0 0 50 0"/><path d="M20 30a20 25 0 0 1-40 0m45 0a25 30 0 0 0 50 0"/><path d="M70 30a20 25 0 0 1-40 0m-55-60a25 30 0 0 0 50 0"/><path d="M25-30a25 30 0 0 0 50 0M20 30v-.606M30 30v-.606M5 60v-.606M45 60v-.606"/></g></pattern><pattern height="60" id="c" patternUnits="userSpaceOnUse" width="50" x="0" y="0"><path fill="#fff" d="M0 0h50v60H0z"/><path d="M0 0a25 30 0 0 0 50 0v-.606h-5V0A20 25 0 0 1 5 0v-.606H0V0z"/><path d="M-25 30a25 30 0 0 0 50 0v-.606h-5V30a20 25 0 0 1-40 0v-.606h-5V30z"/><path d="M25 30a25 30 0 0 0 50 0v-.606h-5V30a20 25 0 0 1-40 0v-.606h-5V30zM0 60v-.606h5V60z"/><path d="M50 60v-.606h-5V60z"/></pattern><pattern height="60" id="e" patternUnits="userSpaceOnUse" width="50" x="0" y="0"><path d="M0 0h50v60H0z"/><g fill="#fff"><path d="M0 0a25 30 0 0 0 50 0v-.606h-5V0A20 25 0 0 1 5 0v-.606H0V0z"/><path d="M-25 30a25 30 0 0 0 50 0v-.606h-5V30a20 25 0 0 1-40 0v-.606h-5V30z"/><path d="M25 30a25 30 0 0 0 50 0v-.606h-5V30a20 25 0 0 1-40 0v-.606h-5V30zM0 60v-.606h5V60z"/><path d="M50 60v-.606h-5V60z"/></g></pattern></defs><mask id="d"><path fill="url(#c)" d="M-500-500H600V600H-500z"/></mask><g mask="url(#d)"><path fill="#0c6793" style="cursor:pointer" d="M-500-500H600V600H-500z"/></g><mask id="f"><path fill="url(#e)" d="M-500-500H600V600H-500z"/></mask><g mask="url(#f)"><path fill="#f6f6f6" style="cursor:pointer" d="M-500-500H600V600H-500z"/></g><path fill="url(#g)" d="M-500-500H600V600H-500z"/></g></g><path d="M0 0h100v120H0z" fill="none" stroke-linecap="round" stroke-linejoin="round" stroke-width=".5" stroke="#333"/></g></svg>