<?xml version="1.0" encoding="UTF-8" standalone="no"?>
<svg xmlns="http://www.w3.org/2000/svg" viewBox="-10 -10 120 140" preserveAspectRatio="xMidYMin slice"><defs><mask id="a"><path d="M0 0h100v120H0z" clip-rule="evenodd" fill-rule="evenodd" fill="#fff"/></mask></defs><g mask="url(#a)"><path d="M0 0h100v120H0z" fill-rule="evenodd" fill="#f0f0f0"/><defs><pattern id="f" width="57.143" height="80" x="0" y="0" patternUnits="userSpaceOnUse"><path d="M0 40V20h14.286V0H28.57v20h14.286v20zm0 0v20h14.286v20H28.57V60h14.286V40zM0 0h57.143M0 80h57.143m0-60v40m0-20H42.857" stroke="#333" stroke-width=".5" fill="none" stroke-linecap="round" stroke-linejoin="round"/></pattern><pattern id="b" width="57.143" height="80" x="0" y="0" patternUnits="userSpaceOnUse"><path d="M0 0h57.143v80H0z"/><path d="M0 40V20h14.286V0H28.57v20h14.286v20zm0 40V60h14.286v20zm28.571 0V60h14.286V40h14.286v40z" fill="#fff"/></pattern><pattern id="d" width="57.143" height="80" x="0" y="0" patternUnits="userSpaceOnUse"><path fill="#fff" d="M0 0h57.143v80H0z"/><path d="M0 40V20h14.286V0H28.57v20h14.286v20zm0 40V60h14.286v20zm28.571 0V60h14.286V40h14.286v40z"/></pattern></defs><mask id="c"><path fill="url(#b)" d="M-500-500H600V600H-500z"/></mask><g mask="url(#c)"><path fill="#f2bc51" style="cursor:pointer" d="M-1000-1000h2000v2000h-2000z"/></g><mask id="e"><path fill="url(#d)" d="M-500-500H600V600H-500z"/></mask><g mask="url(#e)"><path fill="#f6f6f6" style="cursor:pointer" d="M-1000-1000h2000v2000h-2000z"/></g><path fill="url(#f)" d="M-500-500H600V600H-500z"/></g><path d="M0 0h100v120H0z" stroke="#333" stroke-width=".5" fill="none" stroke-linecap="round" stroke-linejoin="round"/></svg>