<?xml version="1.0" encoding="UTF-8" standalone="no"?>
<svg xmlns="http://www.w3.org/2000/svg" viewBox="-10 -10 120 140" preserveAspectRatio="xMidYMin slice"><defs><mask id="a"><path d="M0 0h100v120H0z" clip-rule="evenodd" fill-rule="evenodd" fill="#fff"/></mask></defs><g mask="url(#a)"><path d="M0 0h100v120H0z" fill-rule="evenodd" fill="#f0f0f0"/><defs><mask id="b"><path d="M-45.01 93.264 65.923-39.856l421.63-277.162A600 600 0 1 0-230.12 572.22L-45.01 93.264z" clip-rule="evenodd" fill-rule="evenodd" fill="#fff" stroke="#fff" stroke-width=".1"/></mask></defs><g mask="url(#b)"><path fill="#f6f6f6" style="cursor:pointer" d="M-1000-1000h2000v2000h-2000z" transform="rotate(-50.194)"/></g><defs><mask id="c"><path d="m85.227-23.769-110.933 133.12-136.608 534.804a600 600 0 0 0 107.159 17.24l35.95-520.593 136.54-163.849 370.83-242.782a600 600 0 0 0-50.266-66.254L85.227-23.77z" clip-rule="evenodd" fill-rule="evenodd" fill="#fff" stroke="#fff" stroke-width=".1"/></mask></defs><g mask="url(#c)"><path fill="#f6f6f6" style="cursor:pointer" d="M-1000-1000h2000v2000h-2000z" transform="rotate(-50.194)"/></g><defs><mask id="d"><path d="M123.835 8.405 12.902 141.525l384.085 408.86a600 600 0 0 0 20.395-20.098L32.206 157.611 143.14 24.49l365.564-206.319a600 600 0 0 0-44.917-68.264L123.836 8.405z" clip-rule="evenodd" fill-rule="evenodd" fill="#fff" stroke="#fff" stroke-width=".1"/></mask></defs><g mask="url(#d)"><path fill="#f6f6f6" style="cursor:pointer" d="M-1000-1000h2000v2000h-2000z" transform="rotate(-50.194)"/></g><defs><mask id="e"><path d="M-45.01 93.264 65.923-39.856l350.4-340.754A600 600 0 0 1 496-278.665L85.227-23.769l-110.933 133.12-86.29 520.255a600 600 0 0 1-195.485-68.69l262.47-467.652z" clip-rule="evenodd" fill-rule="evenodd" fill="#fff"/></mask></defs><g mask="url(#e)"><path fill="#0c6793" style="cursor:pointer" d="M-1000-1000h2000v2000h-2000z" transform="rotate(-50.194)"/></g><defs><mask id="f"><path d="m-19.206 140.802 136.54-163.849L444.18-299.653a600 600 0 0 1 61.502 87.407L123.835 8.404 12.902 141.525l241.087 483.34A600 600 0 0 1-74.637 684.86l55.431-544.057z" clip-rule="evenodd" fill-rule="evenodd" fill="#fff"/></mask></defs><g mask="url(#f)"><path fill="#0c6793" style="cursor:pointer" d="M-1000-1000h2000v2000h-2000z" transform="rotate(-50.194)"/></g><defs><mask id="g"><path d="M32.206 157.61 143.14 24.492l328.926-238.3a600 600 0 0 1 66.987 585.107L32.206 157.61z" clip-rule="evenodd" fill-rule="evenodd" fill="#fff"/></mask></defs><g mask="url(#g)"><path fill="#0c6793" style="cursor:pointer" d="M-1000-1000h2000v2000h-2000z" transform="rotate(-50.194)"/></g><path d="M-45.01 93.264 65.923-39.856m19.304 16.087-110.933 133.12m6.5 31.451 136.54-163.849m6.501 31.452L12.902 141.525m19.304 16.085L143.14 24.492" stroke="#333" stroke-width=".5" fill="none" stroke-linecap="round" stroke-linejoin="round"/></g><path d="M0 0h100v120H0z" stroke="#333" stroke-width=".5" fill="none" stroke-linecap="round" stroke-linejoin="round"/></svg>