<svg preserveAspectRatio="xMidYMin slice" viewBox="-10 -10 120 140" xmlns="http://www.w3.org/2000/svg"><defs><mask id="a"><path clip-rule="evenodd" d="M0 0h100v120H0z" fill-rule="evenodd" fill="#fff"/></mask></defs><g mask="url(#a)"><path d="M0 0h100v120H0z" fill-rule="evenodd" fill="#f0f0f0"/><defs><mask id="b"><path clip-rule="evenodd" d="M-21.213 71.213 50 0l71.213 71.213 521.484 82.113a600 600 0 1 0-1185.394 0l521.484-82.113z" fill-rule="evenodd" fill="#fff"/></mask></defs><g mask="url(#b)"><path fill="#f6f6f6" style="cursor:pointer" d="M-1000-1000h2000v2000h-2000z"/></g><defs><mask id="c"><path clip-rule="evenodd" d="M-21.213 71.213 50 0l71.213 71.213 521.484 82.113a600 600 0 0 1-54.857 172.623L121.213 95.213 50 24l-71.213 71.213L-487.84 325.95a600 600 0 0 1-54.857-172.623l521.484-82.113z" fill-rule="evenodd" fill="#fff"/></mask></defs><g mask="url(#c)"><path fill="#0c6793" style="cursor:pointer" d="M-1000-1000h2000v2000h-2000z"/></g><defs><mask id="d"><path clip-rule="evenodd" d="M-21.213 95.213 50 24l71.213 71.213L587.84 325.95a600 600 0 0 1-76.49 117.66L121.213 119.213 50 48l-71.213 71.213L-411.35 443.61a600 600 0 0 1-76.49-117.66L-21.213 95.213z" fill-rule="evenodd" fill="#fff"/></mask></defs><g mask="url(#d)"><path fill="#f6f6f6" style="cursor:pointer" d="M-1000-1000h2000v2000h-2000z"/></g><defs><mask id="e"><path clip-rule="evenodd" d="M-21.213 119.213 50 48l71.213 71.213L511.35 443.61a600 600 0 0 1-72.167 73.05l-319.97-375.446L50 72l-69.213 69.213-319.97 375.445a600 600 0 0 1-72.167-73.049l390.137-324.396z" fill-rule="evenodd" fill="#fff"/></mask></defs><g mask="url(#e)"><path fill="#0c6793" style="cursor:pointer" d="M-1000-1000h2000v2000h-2000z"/></g><defs><mask id="f"><path clip-rule="evenodd" d="M-19.213 141.213 50 72l69.213 69.213 319.97 375.445a600 600 0 0 1-97.33 67.576l-246.64-443.02L50 96 4.787 141.213l-246.64 443.021a600 600 0 0 1-97.33-67.576l319.97-375.445z" fill-rule="evenodd" fill="#fff"/></mask></defs><g mask="url(#f)"><path fill="#f6f6f6" style="cursor:pointer" d="M-1000-1000h2000v2000h-2000z"/></g><defs><mask id="g"><path clip-rule="evenodd" d="M4.787 141.213 50 96l45.213 45.213 246.64 443.021a600 600 0 0 1-583.706 0l246.64-443.02z" fill-rule="evenodd" fill="#fff"/></mask></defs><g mask="url(#g)"><path fill="#0c6793" style="cursor:pointer" d="M-1000-1000h2000v2000h-2000z"/></g><path d="M-21.213 71.213 50 0m71.213 71.213L50 0m-71.213 95.213L50 24m71.213 71.213L50 24m-71.213 95.213L50 48m71.213 71.213L50 48m-69.213 93.213L50 72m69.213 69.213L50 72M4.787 141.213 50 96m45.213 45.213L50 96" fill="none" stroke-linecap="round" stroke-linejoin="round" stroke-width=".5" stroke="#333"/></g><path d="M0 0h100v120H0z" fill="none" stroke-linecap="round" stroke-linejoin="round" stroke-width=".5" stroke="#333"/></svg>