<?xml version="1.0" encoding="UTF-8" standalone="no"?>
<svg xmlns="http://www.w3.org/2000/svg" viewBox="-10 -10 120 140" preserveAspectRatio="xMidYMin slice"><defs><mask id="a"><path d="M0 0h100v120H0z" clip-rule="evenodd" fill-rule="evenodd" fill="#fff"/></mask></defs><g mask="url(#a)"><path d="M0 0h100v120H0z" fill-rule="evenodd" fill="#f0f0f0"/><defs><mask id="b"><path d="M-45.746 94.895 67.058-40.469l420.42-276.023a600 600 0 1 0-717.474 889.101l184.25-477.714z" clip-rule="evenodd" fill-rule="evenodd" fill="#fff" stroke="#fff" stroke-width=".1"/></mask></defs><g mask="url(#b)"><path fill="#f6f6f6" d="m-1408.406 128.037 1280.37-1536.443 1536.442 1280.37-1280.37 1536.442z"/></g><defs><mask id="c"><path d="M86.73-24.076-26.074 111.29-161.6 645.602a600 600 0 0 0 108.714 17.16l33.68-519.715L119.206-23.047l369.04-241.058a600 600 0 0 0-50.522-66.68L86.73-24.075z" clip-rule="evenodd" fill-rule="evenodd" fill="#fff" stroke="#fff" stroke-width=".1"/></mask></defs><g mask="url(#c)"><path fill="#f6f6f6" d="m-1408.406 128.037 1280.37-1536.443 1536.442 1280.37-1280.37 1536.442z"/></g><defs><mask id="d"><path d="M126.074 8.711 13.27 144.076 398.8 550.579a600 600 0 0 0 19.532-19.394L32.942 160.47 145.746 25.105 508.548-179.48a600 600 0 0 0-44.938-68.34L126.074 8.71z" clip-rule="evenodd" fill-rule="evenodd" fill="#fff" stroke="#fff" stroke-width=".1"/></mask></defs><g mask="url(#d)"><path fill="#f6f6f6" d="m-1408.406 128.037 1280.37-1536.443 1536.442 1280.37-1280.37 1536.442z"/></g><defs><mask id="e"><path d="M-45.746 94.895 67.058-40.469l349.075-339.346a600 600 0 0 1 79.765 102.127L86.73-24.076-26.074 111.29l-85.413 519.163a600 600 0 0 1-195.977-68.66L-45.746 94.896z" clip-rule="evenodd" fill-rule="evenodd" fill="#fff"/></mask></defs><g mask="url(#e)"><path fill="#0c6793" d="m-1408.406 128.037 1280.37-1536.443 1536.442 1280.37-1280.37 1536.442z"/></g><defs><mask id="f"><path d="M-19.206 143.047 119.206-23.047l324.93-274.67a600 600 0 0 1 61.404 87.359L126.074 8.712 13.27 144.075 255.263 625.77a600 600 0 0 1-326.607 61.116l52.138-543.84z" clip-rule="evenodd" fill-rule="evenodd" fill="#fff"/></mask></defs><g mask="url(#f)"><path fill="#0c6793" d="m-1408.406 128.037 1280.37-1536.443 1536.442 1280.37-1280.37 1536.442z"/></g><defs><mask id="g"><path d="M32.942 160.47 145.746 25.104l326.14-236.164a600 600 0 0 1 67.733 583.011L32.942 160.47z" clip-rule="evenodd" fill-rule="evenodd" fill="#fff"/></mask></defs><g mask="url(#g)"><path fill="#0c6793" d="m-1408.406 128.037 1280.37-1536.443 1536.442 1280.37-1280.37 1536.442z"/></g><path d="M-45.746 94.895 67.058-40.469M86.73-24.076-26.074 111.29m6.868 31.757L119.206-23.047m6.868 31.758L13.27 144.076m19.672 16.394L145.746 25.104" stroke="#333" stroke-width=".5" fill="none" stroke-linecap="round" stroke-linejoin="round"/></g><path d="M0 0h100v120H0z" stroke="#333" stroke-width=".5" fill="none" stroke-linecap="round" stroke-linejoin="round"/></svg>