<svg preserveAspectRatio="xMidYMin slice" viewBox="0 0 120 200" xmlns="http://www.w3.org/2000/svg"><g filter="url(#a)" transform="translate(10 10)"><defs><filter height="200%" id="a" width="200%" x="-20%" y="-20%"><feOffset dx=".2" dy=".2" in="SourceAlpha" result="offsetOut"/><feGaussianBlur in="offsetOut" result="blurOut"/><feBlend in2="blurOut" in="SourceGraphic"/></filter></defs><defs><clipPath id="b"><path d="M0 0h100v120H0z" fill="#fff"/></clipPath></defs><g clip-path="url(#b)"><path d="M0 0h100v120H0z" fill="#f0f0f0"/><g transform="rotate(-45)" style="pointer-events:visiblePainted;cursor:pointer"><defs><pattern height="60" id="g" patternUnits="userSpaceOnUse" width="47.14" x="0" y="0"><path d="M16.028 0v4.714H0M18.856 0v22.458h9.428V0m2.829 0v4.714H47.14M0 7.542h4.714v44.916H0m7.542-27.172h32.056v9.428H7.542zM47.14 7.542h-4.714v44.916h4.714M16.028 60v-4.714H0M18.856 60V37.542h9.428V60m2.829 0v-4.714H47.14" fill="none" stroke-linecap="round" stroke-linejoin="round" stroke-width=".5" stroke="#333"/></pattern><pattern height="60" id="c" patternUnits="userSpaceOnUse" width="47.14" x="0" y="0"><path fill="#fff" d="M0 0h47.14v60H0z"/><path d="M0 0h16.028v4.714H0zm18.856 0h9.428v22.458h-9.428zm12.257 0H47.14v4.714H31.113zM0 7.542h4.714v44.916H0zm7.542 17.744h32.056v9.428H7.542zM47.14 7.542h-4.714v44.916h4.714zM0 60h16.028v-4.714H0zm18.856 0h9.428V37.542h-9.428zm12.257 0H47.14v-4.714H31.113z"/></pattern><pattern height="60" id="e" patternUnits="userSpaceOnUse" width="47.14" x="0" y="0"><path d="M0 0h47.14v60H0z"/><path d="M0 0h16.028v4.714H0zm18.856 0h9.428v22.458h-9.428zm12.257 0H47.14v4.714H31.113zM0 7.542h4.714v44.916H0zm7.542 17.744h32.056v9.428H7.542zM47.14 7.542h-4.714v44.916h4.714zM0 60h16.028v-4.714H0zm18.856 0h9.428V37.542h-9.428zm12.257 0H47.14v-4.714H31.113z" fill="#fff"/></pattern></defs><mask id="d"><path fill="url(#c)" d="M-500-500H600V600H-500z"/></mask><g mask="url(#d)"><path fill="#f6f6f6" d="M-500-500H600V600H-500z"/></g><mask id="f"><path fill="url(#e)" d="M-500-500H600V600H-500z"/></mask><g mask="url(#f)"><path fill="#f2bc51" d="M-500-500H600V600H-500z"/></g><path fill="url(#g)" d="M-500-500H600V600H-500z"/></g></g><path d="M0 0h100v120H0z" fill="none" stroke-linecap="round" stroke-linejoin="round" stroke-width=".5" stroke="#333"/></g></svg>