<?xml version="1.0" encoding="UTF-8" standalone="no"?>
<svg xmlns="http://www.w3.org/2000/svg" preserveAspectRatio="xMidYMin slice" viewBox="-10 -10 120 140"><defs><mask id="a"><path fill="#fff" fill-rule="evenodd" d="M0 0h100v120H0z" clip-rule="evenodd"/></mask></defs><g mask="url(#a)"><path fill="#f0f0f0" fill-rule="evenodd" d="M0 0h100v120H0z"/><defs><pattern id="f" width="33.333" height="30" x="0" y="0" patternUnits="userSpaceOnUse"><path fill="none" stroke="#333" stroke-linecap="round" stroke-linejoin="round" stroke-width=".5" d="m16.667 0 16.666 15-16.666 15L0 15z"/></pattern><pattern id="b" width="33.333" height="30" x="0" y="0" patternUnits="userSpaceOnUse"><path fill="#fff" d="M0 0h33.333v30H0z" shape-rendering="crispEdges"/><path d="m16.667 0 16.666 15-16.666 15L0 15z"/></pattern><pattern id="d" width="33.333" height="30" x="0" y="0" patternUnits="userSpaceOnUse"><path d="M0 0h33.333v30H0z" shape-rendering="crispEdges"/><path fill="#fff" d="m16.667 0 16.666 15-16.666 15L0 15z"/></pattern></defs><mask id="c"><path fill="url(#b)" d="M-500-500H600V600H-500z"/></mask><g mask="url(#c)"><path fill="#f6f6f6" d="M-1000-1000h2000v2000h-2000z"/></g><mask id="e"><path fill="url(#d)" d="M-500-500H600V600H-500z"/></mask><g mask="url(#e)"><path fill="#0c6793" d="M-1000-1000h2000v2000h-2000z"/></g><path fill="url(#f)" d="M-500-500H600V600H-500z"/></g><path fill="none" stroke="#333" stroke-linecap="round" stroke-linejoin="round" stroke-width=".5" d="M0 0h100v120H0z"/></svg>