<?xml version="1.0" encoding="UTF-8" standalone="no"?>
<svg xmlns="http://www.w3.org/2000/svg" preserveAspectRatio="xMidYMin slice" viewBox="-10 -10 120 86.667"><defs><mask id="a"><path fill="#fff" fill-rule="evenodd" d="M0 0h100v66.667H0z" clip-rule="evenodd"/></mask></defs><g mask="url(#a)"><path fill="#f0f0f0" fill-rule="evenodd" d="M0 0h100v66.667H0z"/><defs><mask id="b"><path fill="#fff" fill-rule="evenodd" stroke="#fff" stroke-width=".1" d="M-40 43.333c8.065-3.01 12.431-11.742 10-20a18.225 18.225 0 0 1 10 20c8.065-3.01 12.431-11.742 10-20a18.225 18.225 0 0 1 10 20c8.065-3.01 12.431-11.742 10-20a18.225 18.225 0 0 1 10 20c8.065-3.01 12.431-11.742 10-20a18.225 18.225 0 0 1 10 20c8.065-3.01 12.431-11.742 10-20a18.225 18.225 0 0 1 10 20c8.065-3.01 12.431-11.742 10-20a18.225 18.225 0 0 1 10 20c8.065-3.01 12.431-11.742 10-20a18.225 18.225 0 0 1 10 20c8.065-3.01 12.431-11.742 10-20a18.225 18.225 0 0 1 10 20c8.065-3.01 12.431-11.742 10-20a18.225 18.225 0 0 1 10 20c8.065-3.01 12.431-11.742 10-20a18.225 18.225 0 0 1 10 20c8.065-3.01 12.431-11.742 10-20a18.225 18.225 0 0 1 10 20l459.97 82.587a600 600 0 1 0-1165.249 61.2L-40 43.333z" clip-rule="evenodd"/></mask></defs><g mask="url(#b)"><path fill="#f6f6f6" d="M-1000-1000h2000v2000h-2000z"/></g><defs><mask id="c"><path fill="#fff" fill-rule="evenodd" d="M-40 43.333c8.065-3.01 12.431-11.742 10-20a18.225 18.225 0 0 1 10 20c8.065-3.01 12.431-11.742 10-20a18.225 18.225 0 0 1 10 20c8.065-3.01 12.431-11.742 10-20a18.225 18.225 0 0 1 10 20c8.065-3.01 12.431-11.742 10-20a18.225 18.225 0 0 1 10 20c8.065-3.01 12.431-11.742 10-20a18.225 18.225 0 0 1 10 20c8.065-3.01 12.431-11.742 10-20a18.225 18.225 0 0 1 10 20c8.065-3.01 12.431-11.742 10-20a18.225 18.225 0 0 1 10 20c8.065-3.01 12.431-11.742 10-20a18.225 18.225 0 0 1 10 20c8.065-3.01 12.431-11.742 10-20a18.225 18.225 0 0 1 10 20c8.065-3.01 12.431-11.742 10-20a18.225 18.225 0 0 1 10 20c8.065-3.01 12.431-11.742 10-20a18.225 18.225 0 0 1 10 20L639.97-59.254A600 600 0 1 1-548.36 5.677L-40 43.333z" clip-rule="evenodd"/></mask></defs><g mask="url(#c)"><path fill="#f2bc51" d="M-1000-1000h2000v2000h-2000z"/></g><path fill="none" stroke="#333" stroke-linecap="round" stroke-linejoin="round" stroke-width=".5" d="M-40 43.333c8.065-3.01 12.431-11.742 10-20a18.225 18.225 0 0 1 10 20c8.065-3.01 12.431-11.742 10-20a18.225 18.225 0 0 1 10 20c8.065-3.01 12.431-11.742 10-20a18.225 18.225 0 0 1 10 20c8.065-3.01 12.431-11.742 10-20a18.225 18.225 0 0 1 10 20c8.065-3.01 12.431-11.742 10-20a18.225 18.225 0 0 1 10 20c8.065-3.01 12.431-11.742 10-20a18.225 18.225 0 0 1 10 20c8.065-3.01 12.431-11.742 10-20a18.225 18.225 0 0 1 10 20c8.065-3.01 12.431-11.742 10-20a18.225 18.225 0 0 1 10 20c8.065-3.01 12.431-11.742 10-20a18.225 18.225 0 0 1 10 20c8.065-3.01 12.431-11.742 10-20a18.225 18.225 0 0 1 10 20c8.065-3.01 12.431-11.742 10-20a18.225 18.225 0 0 1 10 20"/></g><path fill="none" stroke="#333" stroke-linecap="round" stroke-linejoin="round" stroke-width=".5" d="M0 0h100v66.667H0z"/></svg>