<svg preserveAspectRatio="xMidYMin slice" viewBox="-10 -10 120 86.667" xmlns="http://www.w3.org/2000/svg"><defs><mask id="a"><path clip-rule="evenodd" d="M0 0h100v66.667H0z" fill-rule="evenodd" fill="#fff"/></mask></defs><g mask="url(#a)"><path d="M0 0h100v66.667H0z" fill-rule="evenodd" fill="#f0f0f0"/><defs><mask id="b"><path clip-rule="evenodd" d="m-40 33.333 10-10 20 20 10-10 10-10 20 20 10-10 10-10 20 20 10-10 10-10 20 20 10-10 10-10 20 20 10-10 10-10 20 20 10-10 425.279-143.786a600 600 0 0 0-1150.558 0L-40 33.333z" fill-rule="evenodd" fill="#fff"/></mask></defs><g mask="url(#b)"><path fill="#f6f6f6" style="cursor:pointer" d="M-1000-1000h2000v2000h-2000z"/></g><defs><mask id="c"><path clip-rule="evenodd" d="m-40 33.333 10-10 20 20 10-10 10-10 20 20 10-10 10-10 20 20 10-10 10-10 20 20 10-10 10-10 20 20 10-10 10-10 20 20 10-10 425.279-143.786a600 600 0 1 1-1150.558 0L-40 33.333z" fill-rule="evenodd" fill="#fff"/></mask></defs><g mask="url(#c)"><path fill="#0c6793" style="cursor:pointer" d="M-1000-1000h2000v2000h-2000z"/></g><path d="m-40 33.333 10-10 20 20 10-10 10-10 20 20 10-10 10-10 20 20 10-10 10-10 20 20 10-10 10-10 20 20 10-10 10-10 20 20 10-10" fill="none" stroke-linecap="round" stroke-linejoin="round" stroke-width=".5" stroke="#333"/></g><path d="M0 0h100v66.667H0z" fill="none" stroke-linecap="round" stroke-linejoin="round" stroke-width=".5" stroke="#333"/></svg>