<?xml version="1.0" encoding="UTF-8" standalone="no"?>
<svg xmlns="http://www.w3.org/2000/svg" preserveAspectRatio="xMidYMin slice" viewBox="-10 -10 120 86.667"><defs><mask id="a"><path fill="#fff" fill-rule="evenodd" d="M0 0h100v66.667H0z" clip-rule="evenodd"/></mask></defs><g mask="url(#a)"><path fill="#f0f0f0" fill-rule="evenodd" d="M0 0h100v66.667H0z"/><defs><mask id="b"><path fill="#fff" fill-rule="evenodd" stroke="#fff" stroke-width=".1" d="m-40 33.333 3.125-4.28-3.75 1.062L-35 22.083l5.625 8.032-3.75-1.063 6.25 8.563-3.75-1.063L-25 44.583l5.625-8.03-3.75 1.062L-20 33.333l3.125-4.28-3.75 1.062L-15 22.083l5.625 8.032-3.75-1.063 6.25 8.563-3.75-1.063L-5 44.583l5.625-8.03-3.75 1.062L0 33.333l3.125-4.28-3.75 1.062L5 22.083l5.625 8.032-3.75-1.063 6.25 8.563-3.75-1.063L15 44.583l5.625-8.03-3.75 1.062L20 33.333l3.125-4.28-3.75 1.062L25 22.083l5.625 8.032-3.75-1.063 6.25 8.563-3.75-1.063L35 44.583l5.625-8.03-3.75 1.062L40 33.333l3.125-4.28-3.75 1.062L45 22.083l5.625 8.032-3.75-1.063 6.25 8.563-3.75-1.063L55 44.583l5.625-8.03-3.75 1.062L60 33.333l3.125-4.28-3.75 1.062L65 22.083l5.625 8.032-3.75-1.063 6.25 8.563-3.75-1.063L75 44.583l5.625-8.03-3.75 1.062L80 33.333l3.125-4.28-3.75 1.062L85 22.083l5.625 8.032-3.75-1.063 6.25 8.563-3.75-1.063L95 44.583l5.625-8.03-3.75 1.062L100 33.333l3.125-4.28-3.75 1.062L105 22.083l5.625 8.032-3.75-1.063 6.25 8.563-3.75-1.063L115 44.583l5.625-8.03-3.75 1.062L120 33.333l3.125-4.28-3.75 1.062L125 22.083l5.625 8.032-3.75-1.063 6.25 8.563-3.75-1.063L135 44.583l5.625-8.03-3.75 1.062L140 33.333l3.125-4.28-3.75 1.062L145 22.083l5.625 8.032-3.75-1.063 6.25 8.563-3.75-1.063L155 44.583l5.625-8.03-3.75 1.062L160 33.333l3.125-4.28-3.75 1.062L165 22.083l5.625 8.032-3.75-1.063 6.25 8.563-3.75-1.063L175 44.583l5.625-8.03-3.75 1.062L180 33.333l459.97 92.587a600 600 0 1 0-1179.94 0L-40 33.333z" clip-rule="evenodd"/></mask></defs><g mask="url(#b)"><path fill="#f6f6f6" d="M-1000-1000h2000v2000h-2000z"/></g><defs><mask id="c"><path fill="#fff" fill-rule="evenodd" d="m-40 33.333 3.125-4.28-3.75 1.062L-35 22.083l5.625 8.032-3.75-1.063 6.25 8.563-3.75-1.063L-25 44.583l5.625-8.03-3.75 1.062L-20 33.333l3.125-4.28-3.75 1.062L-15 22.083l5.625 8.032-3.75-1.063 6.25 8.563-3.75-1.063L-5 44.583l5.625-8.03-3.75 1.062L0 33.333l3.125-4.28-3.75 1.062L5 22.083l5.625 8.032-3.75-1.063 6.25 8.563-3.75-1.063L15 44.583l5.625-8.03-3.75 1.062L20 33.333l3.125-4.28-3.75 1.062L25 22.083l5.625 8.032-3.75-1.063 6.25 8.563-3.75-1.063L35 44.583l5.625-8.03-3.75 1.062L40 33.333l3.125-4.28-3.75 1.062L45 22.083l5.625 8.032-3.75-1.063 6.25 8.563-3.75-1.063L55 44.583l5.625-8.03-3.75 1.062L60 33.333l3.125-4.28-3.75 1.062L65 22.083l5.625 8.032-3.75-1.063 6.25 8.563-3.75-1.063L75 44.583l5.625-8.03-3.75 1.062L80 33.333l3.125-4.28-3.75 1.062L85 22.083l5.625 8.032-3.75-1.063 6.25 8.563-3.75-1.063L95 44.583l5.625-8.03-3.75 1.062L100 33.333l3.125-4.28-3.75 1.062L105 22.083l5.625 8.032-3.75-1.063 6.25 8.563-3.75-1.063L115 44.583l5.625-8.03-3.75 1.062L120 33.333l3.125-4.28-3.75 1.062L125 22.083l5.625 8.032-3.75-1.063 6.25 8.563-3.75-1.063L135 44.583l5.625-8.03-3.75 1.062L140 33.333l3.125-4.28-3.75 1.062L145 22.083l5.625 8.032-3.75-1.063 6.25 8.563-3.75-1.063L155 44.583l5.625-8.03-3.75 1.062L160 33.333l3.125-4.28-3.75 1.062L165 22.083l5.625 8.032-3.75-1.063 6.25 8.563-3.75-1.063L175 44.583l5.625-8.03-3.75 1.062L180 33.333l459.97-92.587a600 600 0 1 1-1179.94 0L-40 33.333z" clip-rule="evenodd"/></mask></defs><g mask="url(#c)"><path fill="#f2bc51" d="M-1000-1000h2000v2000h-2000z"/></g><path fill="none" stroke="#333" stroke-linecap="round" stroke-linejoin="round" stroke-width=".5" d="m-40 33.333 3.125-4.28-3.75 1.062L-35 22.083l5.625 8.032-3.75-1.063 6.25 8.563-3.75-1.063L-25 44.583l5.625-8.03-3.75 1.062L-20 33.333l3.125-4.28-3.75 1.062L-15 22.083l5.625 8.032-3.75-1.063 6.25 8.563-3.75-1.063L-5 44.583l5.625-8.03-3.75 1.062L0 33.333l3.125-4.28-3.75 1.062L5 22.083l5.625 8.032-3.75-1.063 6.25 8.563-3.75-1.063L15 44.583l5.625-8.03-3.75 1.062L20 33.333l3.125-4.28-3.75 1.062L25 22.083l5.625 8.032-3.75-1.063 6.25 8.563-3.75-1.063L35 44.583l5.625-8.03-3.75 1.062L40 33.333l3.125-4.28-3.75 1.062L45 22.083l5.625 8.032-3.75-1.063 6.25 8.563-3.75-1.063L55 44.583l5.625-8.03-3.75 1.062L60 33.333l3.125-4.28-3.75 1.062L65 22.083l5.625 8.032-3.75-1.063 6.25 8.563-3.75-1.063L75 44.583l5.625-8.03-3.75 1.062L80 33.333l3.125-4.28-3.75 1.062L85 22.083l5.625 8.032-3.75-1.063 6.25 8.563-3.75-1.063L95 44.583l5.625-8.03-3.75 1.062L100 33.333l3.125-4.28-3.75 1.062L105 22.083l5.625 8.032-3.75-1.063 6.25 8.563-3.75-1.063L115 44.583l5.625-8.03-3.75 1.062L120 33.333l3.125-4.28-3.75 1.062L125 22.083l5.625 8.032-3.75-1.063 6.25 8.563-3.75-1.063L135 44.583l5.625-8.03-3.75 1.062L140 33.333l3.125-4.28-3.75 1.062L145 22.083l5.625 8.032-3.75-1.063 6.25 8.563-3.75-1.063L155 44.583l5.625-8.03-3.75 1.062L160 33.333l3.125-4.28-3.75 1.062L165 22.083l5.625 8.032-3.75-1.063 6.25 8.563-3.75-1.063L175 44.583l5.625-8.03-3.75 1.062L180 33.333"/></g><path fill="none" stroke="#333" stroke-linecap="round" stroke-linejoin="round" stroke-width=".5" d="M0 0h100v66.667H0z"/></svg>