<?xml version="1.0" encoding="UTF-8" standalone="no"?>
<svg xmlns="http://www.w3.org/2000/svg" viewBox="-10 -10 120 86.667" preserveAspectRatio="xMidYMin slice"><defs><mask id="a"><path d="M0 0h100v66.667H0z" clip-rule="evenodd" fill-rule="evenodd" fill="#fff"/></mask></defs><g mask="url(#a)"><path d="M0 0h100v66.667H0z" fill-rule="evenodd" fill="#f0f0f0"/><defs><mask id="b"><path d="M-40 45.333c7-5 .9-9.1 1.4-12.1.5-3 7.6-4.9 2.6-11.9 7.5 4.5 1.65 9.15 2.4 12.15s3.6 2.573 3.6 11.85l5-24 5 24c7-5 .9-9.1 1.4-12.1.5-3 7.6-4.9 2.6-11.9 7.5 4.5 1.65 9.15 2.4 12.15s3.6 2.573 3.6 11.85l5-24 5 24c7-5 .9-9.1 1.4-12.1.5-3 7.6-4.9 2.6-11.9 7.5 4.5 1.65 9.15 2.4 12.15s3.6 2.573 3.6 11.85l5-24 5 24c7-5 .9-9.1 1.4-12.1.5-3 7.6-4.9 2.6-11.9 7.5 4.5 1.65 9.15 2.4 12.15s3.6 2.573 3.6 11.85l5-24 5 24c7-5 .9-9.1 1.4-12.1.5-3 7.6-4.9 2.6-11.9 7.5 4.5 1.65 9.15 2.4 12.15s3.6 2.573 3.6 11.85l5-24 5 24c7-5 .9-9.1 1.4-12.1.5-3 7.6-4.9 2.6-11.9 7.5 4.5 1.65 9.15 2.4 12.15s3.6 2.573 3.6 11.85l5-24 5 24c7-5 .9-9.1 1.4-12.1.5-3 7.6-4.9 2.6-11.9 7.5 4.5 1.65 9.15 2.4 12.15s3.6 2.573 3.6 11.85l5-24 5 24c7-5 .9-9.1 1.4-12.1.5-3 7.6-4.9 2.6-11.9 7.5 4.5 1.65 9.15 2.4 12.15s3.6 2.573 3.6 11.85l5-24 5 24c7-5 .9-9.1 1.4-12.1.5-3 7.6-4.9 2.6-11.9 7.5 4.5 1.65 9.15 2.4 12.15s3.6 2.573 3.6 11.85l5-24 5 24c7-5 .9-9.1 1.4-12.1.5-3 7.6-4.9 2.6-11.9 7.5 4.5 1.65 9.15 2.4 12.15s3.6 2.573 3.6 11.85l5-24 5 24c7-5 .9-9.1 1.4-12.1.5-3 7.6-4.9 2.6-11.9 7.5 4.5 1.65 9.15 2.4 12.15s3.6 2.573 3.6 11.85l5-24 5 24 470-12a600 600 0 1 0-1194.737 79.299L-40 45.333z" clip-rule="evenodd" fill-rule="evenodd" fill="#fff" stroke="#fff" stroke-width=".1"/></mask></defs><g mask="url(#b)"><path fill="#f6f6f6" style="cursor:pointer" d="M-1000-1000h2000v2000h-2000z"/></g><defs><mask id="c"><path d="M-40 45.333c7-5 .9-9.1 1.4-12.1.5-3 7.6-4.9 2.6-11.9 7.5 4.5 1.65 9.15 2.4 12.15s3.6 2.573 3.6 11.85l5-24 5 24c7-5 .9-9.1 1.4-12.1.5-3 7.6-4.9 2.6-11.9 7.5 4.5 1.65 9.15 2.4 12.15s3.6 2.573 3.6 11.85l5-24 5 24c7-5 .9-9.1 1.4-12.1.5-3 7.6-4.9 2.6-11.9 7.5 4.5 1.65 9.15 2.4 12.15s3.6 2.573 3.6 11.85l5-24 5 24c7-5 .9-9.1 1.4-12.1.5-3 7.6-4.9 2.6-11.9 7.5 4.5 1.65 9.15 2.4 12.15s3.6 2.573 3.6 11.85l5-24 5 24c7-5 .9-9.1 1.4-12.1.5-3 7.6-4.9 2.6-11.9 7.5 4.5 1.65 9.15 2.4 12.15s3.6 2.573 3.6 11.85l5-24 5 24c7-5 .9-9.1 1.4-12.1.5-3 7.6-4.9 2.6-11.9 7.5 4.5 1.65 9.15 2.4 12.15s3.6 2.573 3.6 11.85l5-24 5 24c7-5 .9-9.1 1.4-12.1.5-3 7.6-4.9 2.6-11.9 7.5 4.5 1.65 9.15 2.4 12.15s3.6 2.573 3.6 11.85l5-24 5 24c7-5 .9-9.1 1.4-12.1.5-3 7.6-4.9 2.6-11.9 7.5 4.5 1.65 9.15 2.4 12.15s3.6 2.573 3.6 11.85l5-24 5 24c7-5 .9-9.1 1.4-12.1.5-3 7.6-4.9 2.6-11.9 7.5 4.5 1.65 9.15 2.4 12.15s3.6 2.573 3.6 11.85l5-24 5 24c7-5 .9-9.1 1.4-12.1.5-3 7.6-4.9 2.6-11.9 7.5 4.5 1.65 9.15 2.4 12.15s3.6 2.573 3.6 11.85l5-24 5 24c7-5 .9-9.1 1.4-12.1.5-3 7.6-4.9 2.6-11.9 7.5 4.5 1.65 9.15 2.4 12.15s3.6 2.573 3.6 11.85l5-24 5 24 470-12a600 600 0 0 1-1194.737 79.299L-40 45.333z" clip-rule="evenodd" fill-rule="evenodd" fill="#fff"/></mask></defs><g mask="url(#c)"><path fill="#f2bc51" style="cursor:pointer" d="M-1000-1000h2000v2000h-2000z"/></g><path d="M-40 45.333c7-5 .9-9.1 1.4-12.1.5-3 7.6-4.9 2.6-11.9 7.5 4.5 1.65 9.15 2.4 12.15s3.6 2.573 3.6 11.85l5-24 5 24c7-5 .9-9.1 1.4-12.1.5-3 7.6-4.9 2.6-11.9 7.5 4.5 1.65 9.15 2.4 12.15s3.6 2.573 3.6 11.85l5-24 5 24c7-5 .9-9.1 1.4-12.1.5-3 7.6-4.9 2.6-11.9 7.5 4.5 1.65 9.15 2.4 12.15s3.6 2.573 3.6 11.85l5-24 5 24c7-5 .9-9.1 1.4-12.1.5-3 7.6-4.9 2.6-11.9 7.5 4.5 1.65 9.15 2.4 12.15s3.6 2.573 3.6 11.85l5-24 5 24c7-5 .9-9.1 1.4-12.1.5-3 7.6-4.9 2.6-11.9 7.5 4.5 1.65 9.15 2.4 12.15s3.6 2.573 3.6 11.85l5-24 5 24c7-5 .9-9.1 1.4-12.1.5-3 7.6-4.9 2.6-11.9 7.5 4.5 1.65 9.15 2.4 12.15s3.6 2.573 3.6 11.85l5-24 5 24c7-5 .9-9.1 1.4-12.1.5-3 7.6-4.9 2.6-11.9 7.5 4.5 1.65 9.15 2.4 12.15s3.6 2.573 3.6 11.85l5-24 5 24c7-5 .9-9.1 1.4-12.1.5-3 7.6-4.9 2.6-11.9 7.5 4.5 1.65 9.15 2.4 12.15s3.6 2.573 3.6 11.85l5-24 5 24c7-5 .9-9.1 1.4-12.1.5-3 7.6-4.9 2.6-11.9 7.5 4.5 1.65 9.15 2.4 12.15s3.6 2.573 3.6 11.85l5-24 5 24c7-5 .9-9.1 1.4-12.1.5-3 7.6-4.9 2.6-11.9 7.5 4.5 1.65 9.15 2.4 12.15s3.6 2.573 3.6 11.85l5-24 5 24c7-5 .9-9.1 1.4-12.1.5-3 7.6-4.9 2.6-11.9 7.5 4.5 1.65 9.15 2.4 12.15s3.6 2.573 3.6 11.85l5-24 5 24" stroke="#333" stroke-width=".5" fill="none" stroke-linecap="round" stroke-linejoin="round"/></g><path d="M0 0h100v66.667H0z" stroke="#333" stroke-width=".5" fill="none" stroke-linecap="round" stroke-linejoin="round"/></svg>