<svg preserveAspectRatio="xMidYMin slice" viewBox="0 0 120 80" xmlns="http://www.w3.org/2000/svg"><g transform="translate(10 10)"><defs><mask id="a"><path clip-rule="evenodd" d="M50 0h50v33.333a100 100 0 0 1-50 86.603A100 100 0 0 1 0 33.333V0z" fill-rule="evenodd" fill="#fff"/></mask></defs><g mask="url(#a)"><path d="M50 0h50v33.333a100 100 0 0 1-50 86.603A100 100 0 0 1 0 33.333V0z" fill-rule="evenodd" fill="#f0f0f0"/><defs><mask id="b"><path clip-rule="evenodd" d="m-60 50-2.929-2.929v-2.929H-60l2.929 2.93v-5.859l2.071-2.07 2.071 2.07v5.858L-50 44.142h2.929v2.93l-5.858 5.857v2.929H-50l2.929-2.93v5.859l2.071 2.07 2.071-2.07v-5.858L-40 55.858h2.929v-2.93L-40 50l-2.929-2.929v-2.929H-40l2.929 2.93v-5.859l2.071-2.07 2.071 2.07v5.858L-30 44.142h2.929v2.93l-5.858 5.857v2.929H-30l2.929-2.93v5.859l2.071 2.07 2.071-2.07v-5.858L-20 55.858h2.929v-2.93L-20 50l-2.929-2.929v-2.929H-20l2.929 2.93v-5.859l2.071-2.07 2.071 2.07v5.858L-10 44.142h2.929v2.93l-5.858 5.857v2.929H-10l2.929-2.93v5.859L-5 60.857l2.071-2.07v-5.858L0 55.858h2.929v-2.93L0 50l-2.929-2.929v-2.929H0l2.929 2.93v-5.859L5 39.143l2.071 2.07v5.858L10 44.142h2.929v2.93L7.07 52.928v2.929H10l2.929-2.93v5.859L15 60.857l2.071-2.07v-5.858L20 55.858h2.929v-2.93L20 50l-2.929-2.929v-2.929H20l2.929 2.93v-5.859L25 39.143l2.071 2.07v5.858L30 44.142h2.929v2.93l-5.858 5.857v2.929H30l2.929-2.93v5.859L35 60.857l2.071-2.07v-5.858L40 55.858h2.929v-2.93L40 50l-2.929-2.929v-2.929H40l2.929 2.93v-5.859L45 39.143l2.071 2.07v5.858L50 44.142h2.929v2.93l-5.858 5.857v2.929H50l2.929-2.93v5.859L55 60.857l2.071-2.07v-5.858L60 55.858h2.929v-2.93L60 50l-2.929-2.929v-2.929H60l2.929 2.93v-5.859L65 39.143l2.071 2.07v5.858L70 44.142h2.929v2.93l-5.858 5.857v2.929H70l2.929-2.93v5.859L75 60.857l2.071-2.07v-5.858L80 55.858h2.929v-2.93L80 50l-2.929-2.929v-2.929H80l2.929 2.93v-5.859L85 39.143l2.071 2.07v5.858L90 44.142h2.929v2.93l-5.858 5.857v2.929H90l2.929-2.93v5.859L95 60.857l2.071-2.07v-5.858L100 55.858h2.929v-2.93L100 50l-2.929-2.929v-2.929H100l2.929 2.93v-5.859l2.071-2.07 2.071 2.07v5.858L110 44.142h2.929v2.93l-5.858 5.857v2.929H110l2.929-2.93v5.859l2.071 2.07 2.071-2.07v-5.858L120 55.858h2.929v-2.93L120 50l-2.929-2.929v-2.929H120l2.929 2.93v-5.859l2.071-2.07 2.071 2.07v5.858L130 44.142h2.929v2.93l-5.858 5.857v2.929H130l2.929-2.93v5.859l2.071 2.07 2.071-2.07v-5.858L140 55.858h2.929v-2.93L140 50l-2.929-2.929v-2.929H140l2.929 2.93v-5.859l2.071-2.07 2.071 2.07v5.858L150 44.142h2.929v2.93l-5.858 5.857v2.929H150l2.929-2.93v5.859l2.071 2.07 2.071-2.07v-5.858L160 55.858h2.929v-2.93L160 50l-2.929-2.929v-2.929H160l2.929 2.93v-5.859l2.071-2.07 2.071 2.07v5.858L170 44.142h2.929v2.93l-5.858 5.857v2.929H170l2.929-2.93v5.859l2.071 2.07 2.071-2.07v-5.858L180 55.858h2.929v-2.93L180 50h820v-1050h-2000V50h940z" fill-rule="evenodd" fill="#fff"/><path d="m-60 50-2.929-2.929v-2.929H-60l2.929 2.93v-5.859l2.071-2.07 2.071 2.07v5.858L-50 44.142h2.929v2.93l-5.858 5.857v2.929H-50l2.929-2.93v5.859l2.071 2.07 2.071-2.07v-5.858L-40 55.858h2.929v-2.93L-40 50l-2.929-2.929v-2.929H-40l2.929 2.93v-5.859l2.071-2.07 2.071 2.07v5.858L-30 44.142h2.929v2.93l-5.858 5.857v2.929H-30l2.929-2.93v5.859l2.071 2.07 2.071-2.07v-5.858L-20 55.858h2.929v-2.93L-20 50l-2.929-2.929v-2.929H-20l2.929 2.93v-5.859l2.071-2.07 2.071 2.07v5.858L-10 44.142h2.929v2.93l-5.858 5.857v2.929H-10l2.929-2.93v5.859L-5 60.857l2.071-2.07v-5.858L0 55.858h2.929v-2.93L0 50l-2.929-2.929v-2.929H0l2.929 2.93v-5.859L5 39.143l2.071 2.07v5.858L10 44.142h2.929v2.93L7.07 52.928v2.929H10l2.929-2.93v5.859L15 60.857l2.071-2.07v-5.858L20 55.858h2.929v-2.93L20 50l-2.929-2.929v-2.929H20l2.929 2.93v-5.859L25 39.143l2.071 2.07v5.858L30 44.142h2.929v2.93l-5.858 5.857v2.929H30l2.929-2.93v5.859L35 60.857l2.071-2.07v-5.858L40 55.858h2.929v-2.93L40 50l-2.929-2.929v-2.929H40l2.929 2.93v-5.859L45 39.143l2.071 2.07v5.858L50 44.142h2.929v2.93l-5.858 5.857v2.929H50l2.929-2.93v5.859L55 60.857l2.071-2.07v-5.858L60 55.858h2.929v-2.93L60 50l-2.929-2.929v-2.929H60l2.929 2.93v-5.859L65 39.143l2.071 2.07v5.858L70 44.142h2.929v2.93l-5.858 5.857v2.929H70l2.929-2.93v5.859L75 60.857l2.071-2.07v-5.858L80 55.858h2.929v-2.93L80 50l-2.929-2.929v-2.929H80l2.929 2.93v-5.859L85 39.143l2.071 2.07v5.858L90 44.142h2.929v2.93l-5.858 5.857v2.929H90l2.929-2.93v5.859L95 60.857l2.071-2.07v-5.858L100 55.858h2.929v-2.93L100 50l-2.929-2.929v-2.929H100l2.929 2.93v-5.859l2.071-2.07 2.071 2.07v5.858L110 44.142h2.929v2.93l-5.858 5.857v2.929H110l2.929-2.93v5.859l2.071 2.07 2.071-2.07v-5.858L120 55.858h2.929v-2.93L120 50l-2.929-2.929v-2.929H120l2.929 2.93v-5.859l2.071-2.07 2.071 2.07v5.858L130 44.142h2.929v2.93l-5.858 5.857v2.929H130l2.929-2.93v5.859l2.071 2.07 2.071-2.07v-5.858L140 55.858h2.929v-2.93L140 50l-2.929-2.929v-2.929H140l2.929 2.93v-5.859l2.071-2.07 2.071 2.07v5.858L150 44.142h2.929v2.93l-5.858 5.857v2.929H150l2.929-2.93v5.859l2.071 2.07 2.071-2.07v-5.858L160 55.858h2.929v-2.93L160 50l-2.929-2.929v-2.929H160l2.929 2.93v-5.859l2.071-2.07 2.071 2.07v5.858L170 44.142h2.929v2.93l-5.858 5.857v2.929H170l2.929-2.93v5.859l2.071 2.07 2.071-2.07v-5.858L180 55.858h2.929v-2.93L180 50h820v-1050h-2000V50h940z" fill="none" stroke-width=".1" stroke="#fff"/></mask></defs><g mask="url(#b)"><path fill="#f6f6f6" style="cursor:pointer" d="M-1000-1000h2000v2000h-2000z"/></g><defs><mask id="c"><path clip-rule="evenodd" d="m-60 50-2.929-2.929v-2.929H-60l2.929 2.93v-5.859l2.071-2.07 2.071 2.07v5.858L-50 44.142h2.929v2.93l-5.858 5.857v2.929H-50l2.929-2.93v5.859l2.071 2.07 2.071-2.07v-5.858L-40 55.858h2.929v-2.93L-40 50l-2.929-2.929v-2.929H-40l2.929 2.93v-5.859l2.071-2.07 2.071 2.07v5.858L-30 44.142h2.929v2.93l-5.858 5.857v2.929H-30l2.929-2.93v5.859l2.071 2.07 2.071-2.07v-5.858L-20 55.858h2.929v-2.93L-20 50l-2.929-2.929v-2.929H-20l2.929 2.93v-5.859l2.071-2.07 2.071 2.07v5.858L-10 44.142h2.929v2.93l-5.858 5.857v2.929H-10l2.929-2.93v5.859L-5 60.857l2.071-2.07v-5.858L0 55.858h2.929v-2.93L0 50l-2.929-2.929v-2.929H0l2.929 2.93v-5.859L5 39.143l2.071 2.07v5.858L10 44.142h2.929v2.93L7.07 52.928v2.929H10l2.929-2.93v5.859L15 60.857l2.071-2.07v-5.858L20 55.858h2.929v-2.93L20 50l-2.929-2.929v-2.929H20l2.929 2.93v-5.859L25 39.143l2.071 2.07v5.858L30 44.142h2.929v2.93l-5.858 5.857v2.929H30l2.929-2.93v5.859L35 60.857l2.071-2.07v-5.858L40 55.858h2.929v-2.93L40 50l-2.929-2.929v-2.929H40l2.929 2.93v-5.859L45 39.143l2.071 2.07v5.858L50 44.142h2.929v2.93l-5.858 5.857v2.929H50l2.929-2.93v5.859L55 60.857l2.071-2.07v-5.858L60 55.858h2.929v-2.93L60 50l-2.929-2.929v-2.929H60l2.929 2.93v-5.859L65 39.143l2.071 2.07v5.858L70 44.142h2.929v2.93l-5.858 5.857v2.929H70l2.929-2.93v5.859L75 60.857l2.071-2.07v-5.858L80 55.858h2.929v-2.93L80 50l-2.929-2.929v-2.929H80l2.929 2.93v-5.859L85 39.143l2.071 2.07v5.858L90 44.142h2.929v2.93l-5.858 5.857v2.929H90l2.929-2.93v5.859L95 60.857l2.071-2.07v-5.858L100 55.858h2.929v-2.93L100 50l-2.929-2.929v-2.929H100l2.929 2.93v-5.859l2.071-2.07 2.071 2.07v5.858L110 44.142h2.929v2.93l-5.858 5.857v2.929H110l2.929-2.93v5.859l2.071 2.07 2.071-2.07v-5.858L120 55.858h2.929v-2.93L120 50l-2.929-2.929v-2.929H120l2.929 2.93v-5.859l2.071-2.07 2.071 2.07v5.858L130 44.142h2.929v2.93l-5.858 5.857v2.929H130l2.929-2.93v5.859l2.071 2.07 2.071-2.07v-5.858L140 55.858h2.929v-2.93L140 50l-2.929-2.929v-2.929H140l2.929 2.93v-5.859l2.071-2.07 2.071 2.07v5.858L150 44.142h2.929v2.93l-5.858 5.857v2.929H150l2.929-2.93v5.859l2.071 2.07 2.071-2.07v-5.858L160 55.858h2.929v-2.93L160 50l-2.929-2.929v-2.929H160l2.929 2.93v-5.859l2.071-2.07 2.071 2.07v5.858L170 44.142h2.929v2.93l-5.858 5.857v2.929H170l2.929-2.93v5.859l2.071 2.07 2.071-2.07v-5.858L180 55.858h2.929v-2.93L180 50h820v950h-2000V50h940z" fill-rule="evenodd" fill="#fff"/></mask></defs><g mask="url(#c)"><path fill="#0c6793" style="cursor:pointer" d="M-1000-1000h2000v2000h-2000z"/></g><path d="m-60 50-2.929-2.929v-2.929H-60l2.929 2.93v-5.859l2.071-2.07 2.071 2.07v5.858L-50 44.142h2.929v2.93l-5.858 5.857v2.929H-50l2.929-2.93v5.859l2.071 2.07 2.071-2.07v-5.858L-40 55.858h2.929v-2.93L-40 50l-2.929-2.929v-2.929H-40l2.929 2.93v-5.859l2.071-2.07 2.071 2.07v5.858L-30 44.142h2.929v2.93l-5.858 5.857v2.929H-30l2.929-2.93v5.859l2.071 2.07 2.071-2.07v-5.858L-20 55.858h2.929v-2.93L-20 50l-2.929-2.929v-2.929H-20l2.929 2.93v-5.859l2.071-2.07 2.071 2.07v5.858L-10 44.142h2.929v2.93l-5.858 5.857v2.929H-10l2.929-2.93v5.859L-5 60.857l2.071-2.07v-5.858L0 55.858h2.929v-2.93L0 50l-2.929-2.929v-2.929H0l2.929 2.93v-5.859L5 39.143l2.071 2.07v5.858L10 44.142h2.929v2.93L7.07 52.928v2.929H10l2.929-2.93v5.859L15 60.857l2.071-2.07v-5.858L20 55.858h2.929v-2.93L20 50l-2.929-2.929v-2.929H20l2.929 2.93v-5.859L25 39.143l2.071 2.07v5.858L30 44.142h2.929v2.93l-5.858 5.857v2.929H30l2.929-2.93v5.859L35 60.857l2.071-2.07v-5.858L40 55.858h2.929v-2.93L40 50l-2.929-2.929v-2.929H40l2.929 2.93v-5.859L45 39.143l2.071 2.07v5.858L50 44.142h2.929v2.93l-5.858 5.857v2.929H50l2.929-2.93v5.859L55 60.857l2.071-2.07v-5.858L60 55.858h2.929v-2.93L60 50l-2.929-2.929v-2.929H60l2.929 2.93v-5.859L65 39.143l2.071 2.07v5.858L70 44.142h2.929v2.93l-5.858 5.857v2.929H70l2.929-2.93v5.859L75 60.857l2.071-2.07v-5.858L80 55.858h2.929v-2.93L80 50l-2.929-2.929v-2.929H80l2.929 2.93v-5.859L85 39.143l2.071 2.07v5.858L90 44.142h2.929v2.93l-5.858 5.857v2.929H90l2.929-2.93v5.859L95 60.857l2.071-2.07v-5.858L100 55.858h2.929v-2.93L100 50l-2.929-2.929v-2.929H100l2.929 2.93v-5.859l2.071-2.07 2.071 2.07v5.858L110 44.142h2.929v2.93l-5.858 5.857v2.929H110l2.929-2.93v5.859l2.071 2.07 2.071-2.07v-5.858L120 55.858h2.929v-2.93L120 50l-2.929-2.929v-2.929H120l2.929 2.93v-5.859l2.071-2.07 2.071 2.07v5.858L130 44.142h2.929v2.93l-5.858 5.857v2.929H130l2.929-2.93v5.859l2.071 2.07 2.071-2.07v-5.858L140 55.858h2.929v-2.93L140 50l-2.929-2.929v-2.929H140l2.929 2.93v-5.859l2.071-2.07 2.071 2.07v5.858L150 44.142h2.929v2.93l-5.858 5.857v2.929H150l2.929-2.93v5.859l2.071 2.07 2.071-2.07v-5.858L160 55.858h2.929v-2.93L160 50l-2.929-2.929v-2.929H160l2.929 2.93v-5.859l2.071-2.07 2.071 2.07v5.858L170 44.142h2.929v2.93l-5.858 5.857v2.929H170l2.929-2.93v5.859l2.071 2.07 2.071-2.07v-5.858L180 55.858h2.929v-2.93L180 50" fill="none" stroke-linecap="round" stroke-linejoin="round" stroke-width=".5" stroke="#333"/></g><path d="M50 0h50v33.333a100 100 0 0 1-50 86.603A100 100 0 0 1 0 33.333V0z" fill="none" stroke-linecap="round" stroke-linejoin="round" stroke-width=".5" stroke="#333"/></g></svg>