<svg preserveAspectRatio="xMidYMin slice" viewBox="0 0 120 80" xmlns="http://www.w3.org/2000/svg"><g filter="url(#a)" transform="translate(10 10)"><defs><filter height="200%" id="a" width="200%" x="-20%" y="-20%"><feOffset dx=".2" dy=".2" in="SourceAlpha" result="offsetOut"/><feGaussianBlur in="offsetOut" result="blurOut"/><feBlend in2="blurOut" in="SourceGraphic"/></filter></defs><defs><clipPath id="b"><path clip-rule="evenodd" d="M0 0h100v66.667H0z" fill-rule="evenodd" fill="#fff"/></clipPath></defs><g clip-path="url(#b)"><path d="M0 0h100v66.667H0z" fill-rule="evenodd" fill="#f0f0f0"/><g style="pointer-events:visiblePainted;cursor:pointer"><defs><clipPath id="c"><path clip-rule="evenodd" d="M-60 35.833a12.5 12.5 0 0 1 20 0 12.5 12.5 0 0 1 20 0 12.5 12.5 0 0 1 20 0 12.5 12.5 0 0 1 20 0 12.5 12.5 0 0 1 20 0 12.5 12.5 0 0 1 20 0 12.5 12.5 0 0 1 20 0 12.5 12.5 0 0 1 20 0 12.5 12.5 0 0 1 20 0 12.5 12.5 0 0 1 20 0 12.5 12.5 0 0 1 20 0 12.5 12.5 0 0 1 20 0h820V-1000h-2000V35.833h940z" fill-rule="evenodd" fill="#fff"/></clipPath></defs><g style="pointer-events:visiblePainted;cursor:pointer" clip-path="url(#c)"><path fill="#f6f6f6" style="cursor:pointer" d="M-500-500H600V600H-500z"/></g><defs><clipPath id="d"><path clip-rule="evenodd" d="M-60 35.833a12.5 12.5 0 0 1 20 0 12.5 12.5 0 0 1 20 0 12.5 12.5 0 0 1 20 0 12.5 12.5 0 0 1 20 0 12.5 12.5 0 0 1 20 0 12.5 12.5 0 0 1 20 0 12.5 12.5 0 0 1 20 0 12.5 12.5 0 0 1 20 0 12.5 12.5 0 0 1 20 0 12.5 12.5 0 0 1 20 0 12.5 12.5 0 0 1 20 0 12.5 12.5 0 0 1 20 0h820V1000h-2000V35.833h940z" fill-rule="evenodd" fill="#fff"/></clipPath></defs><g style="pointer-events:visiblePainted;cursor:pointer" clip-path="url(#d)"><path fill="#0c6793" style="cursor:pointer" d="M-500-500H600V600H-500z"/></g><path d="M-60 35.833a12.5 12.5 0 0 1 20 0 12.5 12.5 0 0 1 20 0 12.5 12.5 0 0 1 20 0 12.5 12.5 0 0 1 20 0 12.5 12.5 0 0 1 20 0 12.5 12.5 0 0 1 20 0 12.5 12.5 0 0 1 20 0 12.5 12.5 0 0 1 20 0 12.5 12.5 0 0 1 20 0 12.5 12.5 0 0 1 20 0 12.5 12.5 0 0 1 20 0 12.5 12.5 0 0 1 20 0" fill="none" stroke-linecap="round" stroke-linejoin="round" stroke-width=".5" stroke="#333"/></g></g><path d="M0 0h100v66.667H0z" fill="none" stroke-linecap="round" stroke-linejoin="round" stroke-width=".5" stroke="#333"/></g></svg>