<svg preserveAspectRatio="xMidYMin slice" viewBox="0 0 120 80" xmlns="http://www.w3.org/2000/svg"><g filter="url(#a)" transform="translate(10 10)"><defs><filter height="200%" id="a" width="200%" x="-20%" y="-20%"><feOffset dx=".2" dy=".2" in="SourceAlpha" result="offsetOut"/><feGaussianBlur in="offsetOut" result="blurOut"/><feBlend in2="blurOut" in="SourceGraphic"/></filter></defs><defs><clipPath id="b"><path clip-rule="evenodd" d="M0 0h100v66.667H0z" fill-rule="evenodd" fill="#fff"/></clipPath></defs><g clip-path="url(#b)"><path d="M0 0h100v66.667H0z" fill-rule="evenodd" fill="#f0f0f0"/><g style="pointer-events:visiblePainted;cursor:pointer"><defs><clipPath id="c"><path clip-rule="evenodd" d="m-60 33.333-2.929-2.929v-2.929H-60l2.929 2.93v-5.858L-55 22.475l2.071 2.072v5.857L-50 27.475h2.929v2.93l-5.858 5.857v2.93H-50l2.929-2.93v5.858L-45 44.191l2.071-2.07v-5.859l2.929 2.93h2.929v-2.93L-40 33.333l-2.929-2.929v-2.929H-40l2.929 2.93v-5.858L-35 22.475l2.071 2.072v5.857L-30 27.475h2.929v2.93l-5.858 5.857v2.93H-30l2.929-2.93v5.858L-25 44.191l2.071-2.07v-5.859l2.929 2.93h2.929v-2.93L-20 33.333l-2.929-2.929v-2.929H-20l2.929 2.93v-5.858L-15 22.475l2.071 2.072v5.857L-10 27.475h2.929v2.93l-5.858 5.857v2.93H-10l2.929-2.93v5.858L-5 44.191l2.071-2.07v-5.859L0 39.192h2.929v-2.93L0 33.333l-2.929-2.929v-2.929H0l2.929 2.93v-5.858L5 22.475l2.071 2.072v5.857L10 27.475h2.929v2.93L7.07 36.261v2.93H10l2.929-2.93v5.858L15 44.191l2.071-2.07v-5.859L20 39.192h2.929v-2.93L20 33.333l-2.929-2.929v-2.929H20l2.929 2.93v-5.858L25 22.475l2.071 2.072v5.857L30 27.475h2.929v2.93l-5.858 5.857v2.93H30l2.929-2.93v5.858L35 44.191l2.071-2.07v-5.859L40 39.192h2.929v-2.93L40 33.333l-2.929-2.929v-2.929H40l2.929 2.93v-5.858L45 22.475l2.071 2.072v5.857L50 27.475h2.929v2.93l-5.858 5.857v2.93H50l2.929-2.93v5.858L55 44.191l2.071-2.07v-5.859L60 39.192h2.929v-2.93L60 33.333l-2.929-2.929v-2.929H60l2.929 2.93v-5.858L65 22.475l2.071 2.072v5.857L70 27.475h2.929v2.93l-5.858 5.857v2.93H70l2.929-2.93v5.858L75 44.191l2.071-2.07v-5.859L80 39.192h2.929v-2.93L80 33.333l-2.929-2.929v-2.929H80l2.929 2.93v-5.858L85 22.475l2.071 2.072v5.857L90 27.475h2.929v2.93l-5.858 5.857v2.93H90l2.929-2.93v5.858L95 44.191l2.071-2.07v-5.859l2.929 2.93h2.929v-2.93L100 33.333l-2.929-2.929v-2.929H100l2.929 2.93v-5.858L105 22.475l2.071 2.072v5.857L110 27.475h2.929v2.93l-5.858 5.857v2.93H110l2.929-2.93v5.858L115 44.191l2.071-2.07v-5.859l2.929 2.93h2.929v-2.93L120 33.333l-2.929-2.929v-2.929H120l2.929 2.93v-5.858L125 22.475l2.071 2.072v5.857L130 27.475h2.929v2.93l-5.858 5.857v2.93H130l2.929-2.93v5.858L135 44.191l2.071-2.07v-5.859l2.929 2.93h2.929v-2.93L140 33.333l-2.929-2.929v-2.929H140l2.929 2.93v-5.858L145 22.475l2.071 2.072v5.857L150 27.475h2.929v2.93l-5.858 5.857v2.93H150l2.929-2.93v5.858L155 44.191l2.071-2.07v-5.859l2.929 2.93h2.929v-2.93L160 33.333l-2.929-2.929v-2.929H160l2.929 2.93v-5.858L165 22.475l2.071 2.072v5.857L170 27.475h2.929v2.93l-5.858 5.857v2.93H170l2.929-2.93v5.858L175 44.191l2.071-2.07v-5.859l2.929 2.93h2.929v-2.93L180 33.333h820V-1000h-2000V33.333h940z" fill-rule="evenodd" fill="#fff"/></clipPath></defs><g style="pointer-events:visiblePainted;cursor:pointer" clip-path="url(#c)"><path fill="#f6f6f6" style="cursor:pointer" d="M-500-500H600V600H-500z"/></g><defs><clipPath id="d"><path clip-rule="evenodd" d="m-60 33.333-2.929-2.929v-2.929H-60l2.929 2.93v-5.858L-55 22.475l2.071 2.072v5.857L-50 27.475h2.929v2.93l-5.858 5.857v2.93H-50l2.929-2.93v5.858L-45 44.191l2.071-2.07v-5.859l2.929 2.93h2.929v-2.93L-40 33.333l-2.929-2.929v-2.929H-40l2.929 2.93v-5.858L-35 22.475l2.071 2.072v5.857L-30 27.475h2.929v2.93l-5.858 5.857v2.93H-30l2.929-2.93v5.858L-25 44.191l2.071-2.07v-5.859l2.929 2.93h2.929v-2.93L-20 33.333l-2.929-2.929v-2.929H-20l2.929 2.93v-5.858L-15 22.475l2.071 2.072v5.857L-10 27.475h2.929v2.93l-5.858 5.857v2.93H-10l2.929-2.93v5.858L-5 44.191l2.071-2.07v-5.859L0 39.192h2.929v-2.93L0 33.333l-2.929-2.929v-2.929H0l2.929 2.93v-5.858L5 22.475l2.071 2.072v5.857L10 27.475h2.929v2.93L7.07 36.261v2.93H10l2.929-2.93v5.858L15 44.191l2.071-2.07v-5.859L20 39.192h2.929v-2.93L20 33.333l-2.929-2.929v-2.929H20l2.929 2.93v-5.858L25 22.475l2.071 2.072v5.857L30 27.475h2.929v2.93l-5.858 5.857v2.93H30l2.929-2.93v5.858L35 44.191l2.071-2.07v-5.859L40 39.192h2.929v-2.93L40 33.333l-2.929-2.929v-2.929H40l2.929 2.93v-5.858L45 22.475l2.071 2.072v5.857L50 27.475h2.929v2.93l-5.858 5.857v2.93H50l2.929-2.93v5.858L55 44.191l2.071-2.07v-5.859L60 39.192h2.929v-2.93L60 33.333l-2.929-2.929v-2.929H60l2.929 2.93v-5.858L65 22.475l2.071 2.072v5.857L70 27.475h2.929v2.93l-5.858 5.857v2.93H70l2.929-2.93v5.858L75 44.191l2.071-2.07v-5.859L80 39.192h2.929v-2.93L80 33.333l-2.929-2.929v-2.929H80l2.929 2.93v-5.858L85 22.475l2.071 2.072v5.857L90 27.475h2.929v2.93l-5.858 5.857v2.93H90l2.929-2.93v5.858L95 44.191l2.071-2.07v-5.859l2.929 2.93h2.929v-2.93L100 33.333l-2.929-2.929v-2.929H100l2.929 2.93v-5.858L105 22.475l2.071 2.072v5.857L110 27.475h2.929v2.93l-5.858 5.857v2.93H110l2.929-2.93v5.858L115 44.191l2.071-2.07v-5.859l2.929 2.93h2.929v-2.93L120 33.333l-2.929-2.929v-2.929H120l2.929 2.93v-5.858L125 22.475l2.071 2.072v5.857L130 27.475h2.929v2.93l-5.858 5.857v2.93H130l2.929-2.93v5.858L135 44.191l2.071-2.07v-5.859l2.929 2.93h2.929v-2.93L140 33.333l-2.929-2.929v-2.929H140l2.929 2.93v-5.858L145 22.475l2.071 2.072v5.857L150 27.475h2.929v2.93l-5.858 5.857v2.93H150l2.929-2.93v5.858L155 44.191l2.071-2.07v-5.859l2.929 2.93h2.929v-2.93L160 33.333l-2.929-2.929v-2.929H160l2.929 2.93v-5.858L165 22.475l2.071 2.072v5.857L170 27.475h2.929v2.93l-5.858 5.857v2.93H170l2.929-2.93v5.858L175 44.191l2.071-2.07v-5.859l2.929 2.93h2.929v-2.93L180 33.333h820V1000h-2000V33.333h940z" fill-rule="evenodd" fill="#fff"/></clipPath></defs><g style="pointer-events:visiblePainted;cursor:pointer" clip-path="url(#d)"><path fill="#0c6793" style="cursor:pointer" d="M-500-500H600V600H-500z"/></g><path d="m-60 33.333-2.929-2.929v-2.929H-60l2.929 2.93v-5.858L-55 22.475l2.071 2.072v5.857L-50 27.475h2.929v2.93l-5.858 5.857v2.93H-50l2.929-2.93v5.858L-45 44.191l2.071-2.07v-5.859l2.929 2.93h2.929v-2.93L-40 33.333l-2.929-2.929v-2.929H-40l2.929 2.93v-5.858L-35 22.475l2.071 2.072v5.857L-30 27.475h2.929v2.93l-5.858 5.857v2.93H-30l2.929-2.93v5.858L-25 44.191l2.071-2.07v-5.859l2.929 2.93h2.929v-2.93L-20 33.333l-2.929-2.929v-2.929H-20l2.929 2.93v-5.858L-15 22.475l2.071 2.072v5.857L-10 27.475h2.929v2.93l-5.858 5.857v2.93H-10l2.929-2.93v5.858L-5 44.191l2.071-2.07v-5.859L0 39.192h2.929v-2.93L0 33.333l-2.929-2.929v-2.929H0l2.929 2.93v-5.858L5 22.475l2.071 2.072v5.857L10 27.475h2.929v2.93L7.07 36.261v2.93H10l2.929-2.93v5.858L15 44.191l2.071-2.07v-5.859L20 39.192h2.929v-2.93L20 33.333l-2.929-2.929v-2.929H20l2.929 2.93v-5.858L25 22.475l2.071 2.072v5.857L30 27.475h2.929v2.93l-5.858 5.857v2.93H30l2.929-2.93v5.858L35 44.191l2.071-2.07v-5.859L40 39.192h2.929v-2.93L40 33.333l-2.929-2.929v-2.929H40l2.929 2.93v-5.858L45 22.475l2.071 2.072v5.857L50 27.475h2.929v2.93l-5.858 5.857v2.93H50l2.929-2.93v5.858L55 44.191l2.071-2.07v-5.859L60 39.192h2.929v-2.93L60 33.333l-2.929-2.929v-2.929H60l2.929 2.93v-5.858L65 22.475l2.071 2.072v5.857L70 27.475h2.929v2.93l-5.858 5.857v2.93H70l2.929-2.93v5.858L75 44.191l2.071-2.07v-5.859L80 39.192h2.929v-2.93L80 33.333l-2.929-2.929v-2.929H80l2.929 2.93v-5.858L85 22.475l2.071 2.072v5.857L90 27.475h2.929v2.93l-5.858 5.857v2.93H90l2.929-2.93v5.858L95 44.191l2.071-2.07v-5.859l2.929 2.93h2.929v-2.93L100 33.333l-2.929-2.929v-2.929H100l2.929 2.93v-5.858L105 22.475l2.071 2.072v5.857L110 27.475h2.929v2.93l-5.858 5.857v2.93H110l2.929-2.93v5.858L115 44.191l2.071-2.07v-5.859l2.929 2.93h2.929v-2.93L120 33.333l-2.929-2.929v-2.929H120l2.929 2.93v-5.858L125 22.475l2.071 2.072v5.857L130 27.475h2.929v2.93l-5.858 5.857v2.93H130l2.929-2.93v5.858L135 44.191l2.071-2.07v-5.859l2.929 2.93h2.929v-2.93L140 33.333l-2.929-2.929v-2.929H140l2.929 2.93v-5.858L145 22.475l2.071 2.072v5.857L150 27.475h2.929v2.93l-5.858 5.857v2.93H150l2.929-2.93v5.858L155 44.191l2.071-2.07v-5.859l2.929 2.93h2.929v-2.93L160 33.333l-2.929-2.929v-2.929H160l2.929 2.93v-5.858L165 22.475l2.071 2.072v5.857L170 27.475h2.929v2.93l-5.858 5.857v2.93H170l2.929-2.93v5.858L175 44.191l2.071-2.07v-5.859l2.929 2.93h2.929v-2.93L180 33.333" fill="none" stroke-linecap="round" stroke-linejoin="round" stroke-width=".5" stroke="#333"/></g></g><path d="M0 0h100v66.667H0z" fill="none" stroke-linecap="round" stroke-linejoin="round" stroke-width=".5" stroke="#333"/></g></svg>