<svg preserveAspectRatio="xMidYMin slice" viewBox="0 0 120 80" xmlns="http://www.w3.org/2000/svg"><g transform="translate(10 10)"><defs><mask id="a"><path clip-rule="evenodd" d="M0 0h100v66.667H0z" fill-rule="evenodd" fill="#fff"/></mask></defs><g mask="url(#a)"><path d="M0 0h100v66.667H0z" fill-rule="evenodd" fill="#f0f0f0"/><defs><mask id="b"><path clip-rule="evenodd" d="M-80 33.333a12.5 12.5 0 0 1 20 0 12.5 12.5 0 0 0 20 0 12.5 12.5 0 0 1 20 0 12.5 12.5 0 0 0 20 0 12.5 12.5 0 0 1 20 0 12.5 12.5 0 0 0 20 0 12.5 12.5 0 0 1 20 0 12.5 12.5 0 0 0 20 0 12.5 12.5 0 0 1 20 0 12.5 12.5 0 0 0 20 0 12.5 12.5 0 0 1 20 0 12.5 12.5 0 0 0 20 0 12.5 12.5 0 0 1 20 0 12.5 12.5 0 0 0 20 0 12.5 12.5 0 0 1 20 0 12.5 12.5 0 0 0 20 0h760V-1000h-2000V33.333h920z" fill-rule="evenodd" fill="#fff"/><path d="M-80 33.333a12.5 12.5 0 0 1 20 0 12.5 12.5 0 0 0 20 0 12.5 12.5 0 0 1 20 0 12.5 12.5 0 0 0 20 0 12.5 12.5 0 0 1 20 0 12.5 12.5 0 0 0 20 0 12.5 12.5 0 0 1 20 0 12.5 12.5 0 0 0 20 0 12.5 12.5 0 0 1 20 0 12.5 12.5 0 0 0 20 0 12.5 12.5 0 0 1 20 0 12.5 12.5 0 0 0 20 0 12.5 12.5 0 0 1 20 0 12.5 12.5 0 0 0 20 0 12.5 12.5 0 0 1 20 0 12.5 12.5 0 0 0 20 0h760V-1000h-2000V33.333h920z" fill="none" stroke-width=".1" stroke="#fff"/></mask></defs><g mask="url(#b)"><path fill="#f6f6f6" style="cursor:pointer" d="M-1000-1000h2000v2000h-2000z"/></g><defs><mask id="c"><path clip-rule="evenodd" d="M-80 33.333a12.5 12.5 0 0 1 20 0 12.5 12.5 0 0 0 20 0 12.5 12.5 0 0 1 20 0 12.5 12.5 0 0 0 20 0 12.5 12.5 0 0 1 20 0 12.5 12.5 0 0 0 20 0 12.5 12.5 0 0 1 20 0 12.5 12.5 0 0 0 20 0 12.5 12.5 0 0 1 20 0 12.5 12.5 0 0 0 20 0 12.5 12.5 0 0 1 20 0 12.5 12.5 0 0 0 20 0 12.5 12.5 0 0 1 20 0 12.5 12.5 0 0 0 20 0 12.5 12.5 0 0 1 20 0 12.5 12.5 0 0 0 20 0h760V1000h-2000V33.333h920z" fill-rule="evenodd" fill="#fff"/></mask></defs><g mask="url(#c)"><path fill="#f2bc51" style="cursor:pointer" d="M-1000-1000h2000v2000h-2000z"/></g><path d="M-80 33.333a12.5 12.5 0 0 1 20 0 12.5 12.5 0 0 0 20 0 12.5 12.5 0 0 1 20 0 12.5 12.5 0 0 0 20 0 12.5 12.5 0 0 1 20 0 12.5 12.5 0 0 0 20 0 12.5 12.5 0 0 1 20 0 12.5 12.5 0 0 0 20 0 12.5 12.5 0 0 1 20 0 12.5 12.5 0 0 0 20 0 12.5 12.5 0 0 1 20 0 12.5 12.5 0 0 0 20 0 12.5 12.5 0 0 1 20 0 12.5 12.5 0 0 0 20 0 12.5 12.5 0 0 1 20 0 12.5 12.5 0 0 0 20 0" fill="none" stroke-linecap="round" stroke-linejoin="round" stroke-width=".5" stroke="#333"/></g><path d="M0 0h100v66.667H0z" fill="none" stroke-linecap="round" stroke-linejoin="round" stroke-width=".5" stroke="#333"/></g></svg>