<?xml version="1.0" encoding="UTF-8" standalone="no"?>
<svg xmlns="http://www.w3.org/2000/svg" viewBox="-10 -10 120 86.667" preserveAspectRatio="xMidYMin slice"><defs><mask id="a"><path d="M0 0h100v66.667H0z" clip-rule="evenodd" fill-rule="evenodd" fill="#fff"/></mask></defs><g mask="url(#a)"><path d="M0 0h100v66.667H0z" fill-rule="evenodd" fill="#f0f0f0"/><defs><mask id="b"><path d="M-40 38.333h7.25l-4.5-10h14.5l-4.5 10h14.5l-4.5-10h14.5l-4.5 10h14.5l-4.5-10h14.5l-4.5 10h14.5l-4.5-10h14.5l-4.5 10h14.5l-4.5-10h14.5l-4.5 10h14.5l-4.5-10h14.5l-4.5 10h14.5l-4.5-10h14.5l-4.5 10h14.5l-4.5-10h14.5l-4.5 10h14.5l-4.5-10h14.5l-4.5 10h14.5l-4.5-10h14.5l-4.5 10h14.5l-4.5-10h14.5l-4.5 10H180l459.97 87.587A600 600 0 1 0-533.335 157.1L-40 38.333z" clip-rule="evenodd" fill-rule="evenodd" fill="#fff" stroke="#fff" stroke-width=".1"/></mask></defs><g mask="url(#b)"><path fill="#f6f6f6" d="M-1000-1000h2000v2000h-2000z"/></g><defs><mask id="c"><path d="M-40 38.333h7.25l-4.5-10h14.5l-4.5 10h14.5l-4.5-10h14.5l-4.5 10h14.5l-4.5-10h14.5l-4.5 10h14.5l-4.5-10h14.5l-4.5 10h14.5l-4.5-10h14.5l-4.5 10h14.5l-4.5-10h14.5l-4.5 10h14.5l-4.5-10h14.5l-4.5 10h14.5l-4.5-10h14.5l-4.5 10h14.5l-4.5-10h14.5l-4.5 10h14.5l-4.5-10h14.5l-4.5 10h14.5l-4.5-10h14.5l-4.5 10H180l459.97-97.587A600 600 0 1 1-545.023-27.132L-40 38.333z" clip-rule="evenodd" fill-rule="evenodd" fill="#fff"/></mask></defs><g mask="url(#c)"><path fill="#f2bc51" d="M-1000-1000h2000v2000h-2000z"/></g><path d="M-40 38.333h7.25l-4.5-10h14.5l-4.5 10h14.5l-4.5-10h14.5l-4.5 10h14.5l-4.5-10h14.5l-4.5 10h14.5l-4.5-10h14.5l-4.5 10h14.5l-4.5-10h14.5l-4.5 10h14.5l-4.5-10h14.5l-4.5 10h14.5l-4.5-10h14.5l-4.5 10h14.5l-4.5-10h14.5l-4.5 10h14.5l-4.5-10h14.5l-4.5 10h14.5l-4.5-10h14.5l-4.5 10h14.5l-4.5-10h14.5l-4.5 10H180" stroke="#333" stroke-width=".5" fill="none" stroke-linecap="round" stroke-linejoin="round"/></g><path d="M0 0h100v66.667H0z" stroke="#333" stroke-width=".5" fill="none" stroke-linecap="round" stroke-linejoin="round"/></svg>