<svg preserveAspectRatio="xMidYMin slice" viewBox="0 0 120 80" xmlns="http://www.w3.org/2000/svg"><g transform="translate(10 10)"><defs><mask id="a"><path clip-rule="evenodd" d="M50 0h50v33.333a100 100 0 0 1-50 86.603A100 100 0 0 1 0 33.333V0z" fill-rule="evenodd" fill="#fff"/></mask></defs><g mask="url(#a)"><path d="M50 0h50v33.333a100 100 0 0 1-50 86.603A100 100 0 0 1 0 33.333V0z" fill-rule="evenodd" fill="#f0f0f0"/><defs><mask id="b"><path clip-rule="evenodd" d="M-60 60c8.065-3.01 12.431-11.742 10-20a18.225 18.225 0 0 1 10 20c8.065-3.01 12.431-11.742 10-20a18.225 18.225 0 0 1 10 20c8.065-3.01 12.431-11.742 10-20A18.225 18.225 0 0 1 0 60c8.065-3.01 12.431-11.742 10-20a18.225 18.225 0 0 1 10 20c8.065-3.01 12.431-11.742 10-20a18.225 18.225 0 0 1 10 20c8.065-3.01 12.431-11.742 10-20a18.225 18.225 0 0 1 10 20c8.065-3.01 12.431-11.742 10-20a18.225 18.225 0 0 1 10 20c8.065-3.01 12.431-11.742 10-20a18.225 18.225 0 0 1 10 20c8.065-3.01 12.431-11.742 10-20a18.225 18.225 0 0 1 10 20c8.065-3.01 12.431-11.742 10-20a18.225 18.225 0 0 1 10 20c8.065-3.01 12.431-11.742 10-20a18.225 18.225 0 0 1 10 20c8.065-3.01 12.431-11.742 10-20a18.225 18.225 0 0 1 10 20h820v-1060h-2000V60h940z" fill-rule="evenodd" fill="#fff"/><path d="M-60 60c8.065-3.01 12.431-11.742 10-20a18.225 18.225 0 0 1 10 20c8.065-3.01 12.431-11.742 10-20a18.225 18.225 0 0 1 10 20c8.065-3.01 12.431-11.742 10-20A18.225 18.225 0 0 1 0 60c8.065-3.01 12.431-11.742 10-20a18.225 18.225 0 0 1 10 20c8.065-3.01 12.431-11.742 10-20a18.225 18.225 0 0 1 10 20c8.065-3.01 12.431-11.742 10-20a18.225 18.225 0 0 1 10 20c8.065-3.01 12.431-11.742 10-20a18.225 18.225 0 0 1 10 20c8.065-3.01 12.431-11.742 10-20a18.225 18.225 0 0 1 10 20c8.065-3.01 12.431-11.742 10-20a18.225 18.225 0 0 1 10 20c8.065-3.01 12.431-11.742 10-20a18.225 18.225 0 0 1 10 20c8.065-3.01 12.431-11.742 10-20a18.225 18.225 0 0 1 10 20c8.065-3.01 12.431-11.742 10-20a18.225 18.225 0 0 1 10 20h820v-1060h-2000V60h940z" fill="none" stroke-width=".1" stroke="#fff"/></mask></defs><g mask="url(#b)"><path fill="#f6f6f6" style="cursor:pointer" d="M-1000-1000h2000v2000h-2000z"/></g><defs><mask id="c"><path clip-rule="evenodd" d="M-60 60c8.065-3.01 12.431-11.742 10-20a18.225 18.225 0 0 1 10 20c8.065-3.01 12.431-11.742 10-20a18.225 18.225 0 0 1 10 20c8.065-3.01 12.431-11.742 10-20A18.225 18.225 0 0 1 0 60c8.065-3.01 12.431-11.742 10-20a18.225 18.225 0 0 1 10 20c8.065-3.01 12.431-11.742 10-20a18.225 18.225 0 0 1 10 20c8.065-3.01 12.431-11.742 10-20a18.225 18.225 0 0 1 10 20c8.065-3.01 12.431-11.742 10-20a18.225 18.225 0 0 1 10 20c8.065-3.01 12.431-11.742 10-20a18.225 18.225 0 0 1 10 20c8.065-3.01 12.431-11.742 10-20a18.225 18.225 0 0 1 10 20c8.065-3.01 12.431-11.742 10-20a18.225 18.225 0 0 1 10 20c8.065-3.01 12.431-11.742 10-20a18.225 18.225 0 0 1 10 20c8.065-3.01 12.431-11.742 10-20a18.225 18.225 0 0 1 10 20h820v940h-2000V60h940z" fill-rule="evenodd" fill="#fff"/></mask></defs><g mask="url(#c)"><path fill="#f2bc51" style="cursor:pointer" d="M-1000-1000h2000v2000h-2000z"/></g><path d="M-60 60c8.065-3.01 12.431-11.742 10-20a18.225 18.225 0 0 1 10 20c8.065-3.01 12.431-11.742 10-20a18.225 18.225 0 0 1 10 20c8.065-3.01 12.431-11.742 10-20A18.225 18.225 0 0 1 0 60c8.065-3.01 12.431-11.742 10-20a18.225 18.225 0 0 1 10 20c8.065-3.01 12.431-11.742 10-20a18.225 18.225 0 0 1 10 20c8.065-3.01 12.431-11.742 10-20a18.225 18.225 0 0 1 10 20c8.065-3.01 12.431-11.742 10-20a18.225 18.225 0 0 1 10 20c8.065-3.01 12.431-11.742 10-20a18.225 18.225 0 0 1 10 20c8.065-3.01 12.431-11.742 10-20a18.225 18.225 0 0 1 10 20c8.065-3.01 12.431-11.742 10-20a18.225 18.225 0 0 1 10 20c8.065-3.01 12.431-11.742 10-20a18.225 18.225 0 0 1 10 20c8.065-3.01 12.431-11.742 10-20a18.225 18.225 0 0 1 10 20" fill="none" stroke-linecap="round" stroke-linejoin="round" stroke-width=".5" stroke="#333"/></g><path d="M50 0h50v33.333a100 100 0 0 1-50 86.603A100 100 0 0 1 0 33.333V0z" fill="none" stroke-linecap="round" stroke-linejoin="round" stroke-width=".5" stroke="#333"/></g></svg>