<?xml version="1.0" encoding="UTF-8" standalone="no"?>
<svg xmlns="http://www.w3.org/2000/svg" preserveAspectRatio="xMidYMin slice" viewBox="-10 -10 120 86.667"><defs><mask id="a"><path fill="#fff" fill-rule="evenodd" d="M0 0h100v66.667H0z" clip-rule="evenodd"/></mask></defs><g mask="url(#a)"><path fill="#f0f0f0" fill-rule="evenodd" d="M0 0h100v66.667H0z"/><defs><mask id="b"><path fill="#fff" fill-rule="evenodd" stroke="#fff" stroke-width=".1" d="M-33.333 33.333h10c6.666 0 2.333-11-4.334-4.333-5-5 4.334-14 9.334-4 0-8.333-6.667-8.333 1.666-16.667C-8.333 16.667-15 16.667-15 25c5-10 14.333-1 9.333 4-6.666-6.667-11 4.333-4.333 4.333h20c6.667 0 2.333 11-4.333 4.334-5 5 4.333 14 9.333 4C15 50 8.333 50 16.667 58.333 25 50 18.333 50 18.333 41.667c5 10 14.334 1 9.334-4-6.667 6.666-11-4.334-4.334-4.334h20c6.667 0 2.334-11-4.333-4.333-5-5 4.333-14 9.333-4 0-8.333-6.666-8.333 1.667-16.667 8.333 8.334 1.667 8.334 1.667 16.667 5-10 14.333-1 9.333 4-6.667-6.667-11 4.333-4.333 4.333h20c6.666 0 2.333 11-4.334 4.334-5 5 4.334 14 9.334 4C81.667 50 75 50 83.333 58.333 91.667 50 85 50 85 41.667c5 10 14.333 1 9.333-4-6.666 6.666-11-4.334-4.333-4.334h20c6.667 0 2.333-11-4.333-4.333-5-5 4.333-14 9.333-4 0-8.333-6.667-8.333 1.667-16.667 8.333 8.334 1.666 8.334 1.666 16.667 5-10 14.334-1 9.334 4-6.667-6.667-11 4.333-4.334 4.333h20c6.667 0 2.334 11-4.333 4.334-5 5 4.333 14 9.333 4 0 8.333-6.666 8.333 1.667 16.666 8.333-8.333 1.667-8.333 1.667-16.666 5 10 14.333 1 9.333-4-6.667 6.666-11-4.334-4.333-4.334h20c6.666 0 2.333-11-4.334-4.333-5-5 4.334-14 9.334-4 0-8.333-6.667-8.333 1.666-16.667C191.667 16.667 185 16.667 185 25c5-10 14.333-1 9.333 4-6.666-6.667-11 4.333-4.333 4.333h20c6.667 0 2.333 11-4.333 4.334-5 5 4.333 14 9.333 4 0 8.333-6.667 8.333 1.667 16.666C225 50 218.333 50 218.333 41.667c5 10 14.334 1 9.334-4-6.667 6.666-11-4.334-4.334-4.334h20c6.667 0 2.334-11-4.333-4.333-5-5 4.333-14 9.333-4 0-8.333-6.666-8.333 1.667-16.667 8.333 8.334 1.667 8.334 1.667 16.667 5-10 14.333-1 9.333 4-6.667-6.667-11 4.333-4.333 4.333h20c6.666 0 2.333 11-4.334 4.334-5 5 4.334 14 9.334 4 0 8.333-6.667 8.333 1.666 16.666C291.667 50 285 50 285 41.667c5 10 14.333 1 9.333-4-6.666 6.666-11-4.334-4.333-4.334h20c6.667 0 2.333-11-4.333-4.333-5-5 4.333-14 9.333-4 0-8.333-6.667-8.333 1.667-16.667 8.333 8.334 1.666 8.334 1.666 16.667 5-10 14.334-1 9.334 4-6.667-6.667-11 4.333-4.334 4.333h20c6.667 0 2.334 11-4.333 4.334-5 5 4.333 14 9.333 4 0 8.333-6.666 8.333 1.667 16.666 8.333-8.333 1.667-8.333 1.667-16.666 5 10 14.333 1 9.333-4-6.667 6.666-11-4.334-4.333-4.334h20c6.666 0 2.333-11-4.334-4.333-5-5 4.334-14 9.334-4 0-8.333-6.667-8.333 1.666-16.667C391.667 16.667 385 16.667 385 25c5-10 14.333-1 9.333 4-6.666-6.667-11 4.333-4.333 4.333h20c6.667 0 2.333 11-4.333 4.334-5 5 4.333 14 9.333 4 0 8.333-6.667 8.333 1.667 16.666C425 50 418.333 50 418.333 41.667c5 10 14.334 1 9.334-4-6.667 6.666-11-4.334-4.334-4.334h10l205.015 101.003a600 600 0 1 0-1176.696 0z" clip-rule="evenodd"/></mask></defs><g mask="url(#b)"><path fill="#f6f6f6" d="M-1000-1000h2000v2000h-2000z"/></g><defs><mask id="c"><path fill="#fff" fill-rule="evenodd" d="M-33.333 33.333h10c6.666 0 2.333-11-4.334-4.333-5-5 4.334-14 9.334-4 0-8.333-6.667-8.333 1.666-16.667C-8.333 16.667-15 16.667-15 25c5-10 14.333-1 9.333 4-6.666-6.667-11 4.333-4.333 4.333h20c6.667 0 2.333 11-4.333 4.334-5 5 4.333 14 9.333 4C15 50 8.333 50 16.667 58.333 25 50 18.333 50 18.333 41.667c5 10 14.334 1 9.334-4-6.667 6.666-11-4.334-4.334-4.334h20c6.667 0 2.334-11-4.333-4.333-5-5 4.333-14 9.333-4 0-8.333-6.666-8.333 1.667-16.667 8.333 8.334 1.667 8.334 1.667 16.667 5-10 14.333-1 9.333 4-6.667-6.667-11 4.333-4.333 4.333h20c6.666 0 2.333 11-4.334 4.334-5 5 4.334 14 9.334 4C81.667 50 75 50 83.333 58.333 91.667 50 85 50 85 41.667c5 10 14.333 1 9.333-4-6.666 6.666-11-4.334-4.333-4.334h20c6.667 0 2.333-11-4.333-4.333-5-5 4.333-14 9.333-4 0-8.333-6.667-8.333 1.667-16.667 8.333 8.334 1.666 8.334 1.666 16.667 5-10 14.334-1 9.334 4-6.667-6.667-11 4.333-4.334 4.333h20c6.667 0 2.334 11-4.333 4.334-5 5 4.333 14 9.333 4 0 8.333-6.666 8.333 1.667 16.666 8.333-8.333 1.667-8.333 1.667-16.666 5 10 14.333 1 9.333-4-6.667 6.666-11-4.334-4.333-4.334h20c6.666 0 2.333-11-4.334-4.333-5-5 4.334-14 9.334-4 0-8.333-6.667-8.333 1.666-16.667C191.667 16.667 185 16.667 185 25c5-10 14.333-1 9.333 4-6.666-6.667-11 4.333-4.333 4.333h20c6.667 0 2.333 11-4.333 4.334-5 5 4.333 14 9.333 4 0 8.333-6.667 8.333 1.667 16.666C225 50 218.333 50 218.333 41.667c5 10 14.334 1 9.334-4-6.667 6.666-11-4.334-4.334-4.334h20c6.667 0 2.334-11-4.333-4.333-5-5 4.333-14 9.333-4 0-8.333-6.666-8.333 1.667-16.667 8.333 8.334 1.667 8.334 1.667 16.667 5-10 14.333-1 9.333 4-6.667-6.667-11 4.333-4.333 4.333h20c6.666 0 2.333 11-4.334 4.334-5 5 4.334 14 9.334 4 0 8.333-6.667 8.333 1.666 16.666C291.667 50 285 50 285 41.667c5 10 14.333 1 9.333-4-6.666 6.666-11-4.334-4.333-4.334h20c6.667 0 2.333-11-4.333-4.333-5-5 4.333-14 9.333-4 0-8.333-6.667-8.333 1.667-16.667 8.333 8.334 1.666 8.334 1.666 16.667 5-10 14.334-1 9.334 4-6.667-6.667-11 4.333-4.334 4.333h20c6.667 0 2.334 11-4.333 4.334-5 5 4.333 14 9.333 4 0 8.333-6.666 8.333 1.667 16.666 8.333-8.333 1.667-8.333 1.667-16.666 5 10 14.333 1 9.333-4-6.667 6.666-11-4.334-4.333-4.334h20c6.666 0 2.333-11-4.334-4.333-5-5 4.334-14 9.334-4 0-8.333-6.667-8.333 1.666-16.667C391.667 16.667 385 16.667 385 25c5-10 14.333-1 9.333 4-6.666-6.667-11 4.333-4.333 4.333h20c6.667 0 2.333 11-4.333 4.334-5 5 4.333 14 9.333 4 0 8.333-6.667 8.333 1.667 16.666C425 50 418.333 50 418.333 41.667c5 10 14.334 1 9.334-4-6.667 6.666-11-4.334-4.334-4.334h10L638.348-67.67a600 600 0 1 1-1176.696 0z" clip-rule="evenodd"/></mask></defs><g mask="url(#c)"><path fill="#f2bc51" d="M-1000-1000h2000v2000h-2000z"/></g><path fill="none" stroke="#333" stroke-linecap="round" stroke-linejoin="round" stroke-width=".5" d="M-33.333 33.333h10c6.666 0 2.333-11-4.334-4.333-5-5 4.334-14 9.334-4 0-8.333-6.667-8.333 1.666-16.667C-8.333 16.667-15 16.667-15 25c5-10 14.333-1 9.333 4-6.666-6.667-11 4.333-4.333 4.333H0v0h10c6.667 0 2.333 11-4.333 4.334-5 5 4.333 14 9.333 4C15 50 8.333 50 16.667 58.333 25 50 18.333 50 18.333 41.667c5 10 14.334 1 9.334-4-6.667 6.666-11-4.334-4.334-4.334h20c6.667 0 2.334-11-4.333-4.333-5-5 4.333-14 9.333-4 0-8.333-6.666-8.333 1.667-16.667 8.333 8.334 1.667 8.334 1.667 16.667 5-10 14.333-1 9.333 4-6.667-6.667-11 4.333-4.333 4.333h10v0h10c6.666 0 2.333 11-4.334 4.334-5 5 4.334 14 9.334 4C81.667 50 75 50 83.333 58.333 91.667 50 85 50 85 41.667c5 10 14.333 1 9.333-4-6.666 6.666-11-4.334-4.333-4.334h20c6.667 0 2.333-11-4.333-4.333-5-5 4.333-14 9.333-4 0-8.333-6.667-8.333 1.667-16.667 8.333 8.334 1.666 8.334 1.666 16.667 5-10 14.334-1 9.334 4-6.667-6.667-11 4.333-4.334 4.333h10v0h10c6.667 0 2.334 11-4.333 4.334-5 5 4.333 14 9.333 4 0 8.333-6.666 8.333 1.667 16.666 8.333-8.333 1.667-8.333 1.667-16.666 5 10 14.333 1 9.333-4-6.667 6.666-11-4.334-4.333-4.334h20c6.666 0 2.333-11-4.334-4.333-5-5 4.334-14 9.334-4 0-8.333-6.667-8.333 1.666-16.667C191.667 16.667 185 16.667 185 25c5-10 14.333-1 9.333 4-6.666-6.667-11 4.333-4.333 4.333h10v0h10c6.667 0 2.333 11-4.333 4.334-5 5 4.333 14 9.333 4 0 8.333-6.667 8.333 1.667 16.666C225 50 218.333 50 218.333 41.667c5 10 14.334 1 9.334-4-6.667 6.666-11-4.334-4.334-4.334h20c6.667 0 2.334-11-4.333-4.333-5-5 4.333-14 9.333-4 0-8.333-6.666-8.333 1.667-16.667 8.333 8.334 1.667 8.334 1.667 16.667 5-10 14.333-1 9.333 4-6.667-6.667-11 4.333-4.333 4.333h10v0h10c6.666 0 2.333 11-4.334 4.334-5 5 4.334 14 9.334 4 0 8.333-6.667 8.333 1.666 16.666C291.667 50 285 50 285 41.667c5 10 14.333 1 9.333-4-6.666 6.666-11-4.334-4.333-4.334h20c6.667 0 2.333-11-4.333-4.333-5-5 4.333-14 9.333-4 0-8.333-6.667-8.333 1.667-16.667 8.333 8.334 1.666 8.334 1.666 16.667 5-10 14.334-1 9.334 4-6.667-6.667-11 4.333-4.334 4.333h10v0h10c6.667 0 2.334 11-4.333 4.334-5 5 4.333 14 9.333 4 0 8.333-6.666 8.333 1.667 16.666 8.333-8.333 1.667-8.333 1.667-16.666 5 10 14.333 1 9.333-4-6.667 6.666-11-4.334-4.333-4.334h20c6.666 0 2.333-11-4.334-4.333-5-5 4.334-14 9.334-4 0-8.333-6.667-8.333 1.666-16.667C391.667 16.667 385 16.667 385 25c5-10 14.333-1 9.333 4-6.666-6.667-11 4.333-4.333 4.333h10v0h10c6.667 0 2.333 11-4.333 4.334-5 5 4.333 14 9.333 4 0 8.333-6.667 8.333 1.667 16.666C425 50 418.333 50 418.333 41.667c5 10 14.334 1 9.334-4-6.667 6.666-11-4.334-4.334-4.334h10"/></g><path fill="none" stroke="#333" stroke-linecap="round" stroke-linejoin="round" stroke-width=".5" d="M0 0h100v66.667H0z"/></svg>