<svg preserveAspectRatio="xMidYMin slice" viewBox="-10 -10 120 86.667" xmlns="http://www.w3.org/2000/svg"><defs><mask id="a"><path clip-rule="evenodd" d="M0 0h100v66.667H0z" fill-rule="evenodd" fill="#fff"/></mask></defs><g mask="url(#a)"><path d="M0 0h100v66.667H0z" fill-rule="evenodd" fill="#f0f0f0"/><defs><mask id="b"><path clip-rule="evenodd" d="M-40 45.333c7.25-4.75 2.475-8.875 3.1-11.875s6.65-4.875 1.9-12.125c7.25 4.75 2.475 8.875 3.1 11.875s6.65 4.875 1.9 12.125c7.25-4.75 2.475-8.875 3.1-11.875s6.65-4.875 1.9-12.125c7.25 4.75 2.475 8.875 3.1 11.875s6.65 4.875 1.9 12.125c7.25-4.75 2.475-8.875 3.1-11.875s6.65-4.875 1.9-12.125c7.25 4.75 2.475 8.875 3.1 11.875s6.65 4.875 1.9 12.125c7.25-4.75 2.475-8.875 3.1-11.875S-.25 28.583-5 21.333c7.25 4.75 2.475 8.875 3.1 11.875S4.75 38.083 0 45.333c7.25-4.75 2.475-8.875 3.1-11.875S9.75 28.583 5 21.333c7.25 4.75 2.475 8.875 3.1 11.875s6.65 4.875 1.9 12.125c7.25-4.75 2.475-8.875 3.1-11.875s6.65-4.875 1.9-12.125c7.25 4.75 2.475 8.875 3.1 11.875s6.65 4.875 1.9 12.125c7.25-4.75 2.475-8.875 3.1-11.875s6.65-4.875 1.9-12.125c7.25 4.75 2.475 8.875 3.1 11.875s6.65 4.875 1.9 12.125c7.25-4.75 2.475-8.875 3.1-11.875s6.65-4.875 1.9-12.125c7.25 4.75 2.475 8.875 3.1 11.875s6.65 4.875 1.9 12.125c7.25-4.75 2.475-8.875 3.1-11.875s6.65-4.875 1.9-12.125c7.25 4.75 2.475 8.875 3.1 11.875s6.65 4.875 1.9 12.125c7.25-4.75 2.475-8.875 3.1-11.875s6.65-4.875 1.9-12.125c7.25 4.75 2.475 8.875 3.1 11.875s6.65 4.875 1.9 12.125c7.25-4.75 2.475-8.875 3.1-11.875s6.65-4.875 1.9-12.125c7.25 4.75 2.475 8.875 3.1 11.875s6.65 4.875 1.9 12.125c7.25-4.75 2.475-8.875 3.1-11.875s6.65-4.875 1.9-12.125c7.25 4.75 2.475 8.875 3.1 11.875s6.65 4.875 1.9 12.125c7.25-4.75 2.475-8.875 3.1-11.875s6.65-4.875 1.9-12.125c7.25 4.75 2.475 8.875 3.1 11.875s6.65 4.875 1.9 12.125c7.25-4.75 2.475-8.875 3.1-11.875s6.65-4.875 1.9-12.125c7.25 4.75 2.475 8.875 3.1 11.875s6.65 4.875 1.9 12.125c7.25-4.75 2.475-8.875 3.1-11.875s6.65-4.875 1.9-12.125c7.25 4.75 2.475 8.875 3.1 11.875s6.65 4.875 1.9 12.125c7.25-4.75 2.475-8.875 3.1-11.875s6.65-4.875 1.9-12.125c7.25 4.75 2.475 8.875 3.1 11.875s6.65 4.875 1.9 12.125c7.25-4.75 2.475-8.875 3.1-11.875s6.65-4.875 1.9-12.125c7.25 4.75 2.475 8.875 3.1 11.875s6.65 4.875 1.9 12.125c7.25-4.75 2.475-8.875 3.1-11.875s6.65-4.875 1.9-12.125c7.25 4.75 2.475 8.875 3.1 11.875s6.65 4.875 1.9 12.125c7.25-4.75 2.475-8.875 3.1-11.875s6.65-4.875 1.9-12.125c7.25 4.75 2.475 8.875 3.1 11.875s6.65 4.875 1.9 12.125c7.25-4.75 2.475-8.875 3.1-11.875s6.65-4.875 1.9-12.125c7.25 4.75 2.475 8.875 3.1 11.875s6.65 4.875 1.9 12.125c7.25-4.75 2.475-8.875 3.1-11.875s6.65-4.875 1.9-12.125c7.25 4.75 2.475 8.875 3.1 11.875s6.65 4.875 1.9 12.125c7.25-4.75 2.475-8.875 3.1-11.875s6.65-4.875 1.9-12.125c7.25 4.75 2.475 8.875 3.1 11.875s6.65 4.875 1.9 12.125l470-12a600 600 0 1 0-1194.737 79.299L-40 45.333z" fill-rule="evenodd" fill="#fff" stroke-width=".1" stroke="#fff"/></mask></defs><g mask="url(#b)"><path fill="#f6f6f6" style="cursor:pointer" d="M-1000-1000h2000v2000h-2000z"/></g><defs><mask id="c"><path clip-rule="evenodd" d="M-40 45.333c7.25-4.75 2.475-8.875 3.1-11.875s6.65-4.875 1.9-12.125c7.25 4.75 2.475 8.875 3.1 11.875s6.65 4.875 1.9 12.125c7.25-4.75 2.475-8.875 3.1-11.875s6.65-4.875 1.9-12.125c7.25 4.75 2.475 8.875 3.1 11.875s6.65 4.875 1.9 12.125c7.25-4.75 2.475-8.875 3.1-11.875s6.65-4.875 1.9-12.125c7.25 4.75 2.475 8.875 3.1 11.875s6.65 4.875 1.9 12.125c7.25-4.75 2.475-8.875 3.1-11.875S-.25 28.583-5 21.333c7.25 4.75 2.475 8.875 3.1 11.875S4.75 38.083 0 45.333c7.25-4.75 2.475-8.875 3.1-11.875S9.75 28.583 5 21.333c7.25 4.75 2.475 8.875 3.1 11.875s6.65 4.875 1.9 12.125c7.25-4.75 2.475-8.875 3.1-11.875s6.65-4.875 1.9-12.125c7.25 4.75 2.475 8.875 3.1 11.875s6.65 4.875 1.9 12.125c7.25-4.75 2.475-8.875 3.1-11.875s6.65-4.875 1.9-12.125c7.25 4.75 2.475 8.875 3.1 11.875s6.65 4.875 1.9 12.125c7.25-4.75 2.475-8.875 3.1-11.875s6.65-4.875 1.9-12.125c7.25 4.75 2.475 8.875 3.1 11.875s6.65 4.875 1.9 12.125c7.25-4.75 2.475-8.875 3.1-11.875s6.65-4.875 1.9-12.125c7.25 4.75 2.475 8.875 3.1 11.875s6.65 4.875 1.9 12.125c7.25-4.75 2.475-8.875 3.1-11.875s6.65-4.875 1.9-12.125c7.25 4.75 2.475 8.875 3.1 11.875s6.65 4.875 1.9 12.125c7.25-4.75 2.475-8.875 3.1-11.875s6.65-4.875 1.9-12.125c7.25 4.75 2.475 8.875 3.1 11.875s6.65 4.875 1.9 12.125c7.25-4.75 2.475-8.875 3.1-11.875s6.65-4.875 1.9-12.125c7.25 4.75 2.475 8.875 3.1 11.875s6.65 4.875 1.9 12.125c7.25-4.75 2.475-8.875 3.1-11.875s6.65-4.875 1.9-12.125c7.25 4.75 2.475 8.875 3.1 11.875s6.65 4.875 1.9 12.125c7.25-4.75 2.475-8.875 3.1-11.875s6.65-4.875 1.9-12.125c7.25 4.75 2.475 8.875 3.1 11.875s6.65 4.875 1.9 12.125c7.25-4.75 2.475-8.875 3.1-11.875s6.65-4.875 1.9-12.125c7.25 4.75 2.475 8.875 3.1 11.875s6.65 4.875 1.9 12.125c7.25-4.75 2.475-8.875 3.1-11.875s6.65-4.875 1.9-12.125c7.25 4.75 2.475 8.875 3.1 11.875s6.65 4.875 1.9 12.125c7.25-4.75 2.475-8.875 3.1-11.875s6.65-4.875 1.9-12.125c7.25 4.75 2.475 8.875 3.1 11.875s6.65 4.875 1.9 12.125c7.25-4.75 2.475-8.875 3.1-11.875s6.65-4.875 1.9-12.125c7.25 4.75 2.475 8.875 3.1 11.875s6.65 4.875 1.9 12.125c7.25-4.75 2.475-8.875 3.1-11.875s6.65-4.875 1.9-12.125c7.25 4.75 2.475 8.875 3.1 11.875s6.65 4.875 1.9 12.125c7.25-4.75 2.475-8.875 3.1-11.875s6.65-4.875 1.9-12.125c7.25 4.75 2.475 8.875 3.1 11.875s6.65 4.875 1.9 12.125c7.25-4.75 2.475-8.875 3.1-11.875s6.65-4.875 1.9-12.125c7.25 4.75 2.475 8.875 3.1 11.875s6.65 4.875 1.9 12.125c7.25-4.75 2.475-8.875 3.1-11.875s6.65-4.875 1.9-12.125c7.25 4.75 2.475 8.875 3.1 11.875s6.65 4.875 1.9 12.125l470-12a600 600 0 0 1-1194.737 79.299L-40 45.333z" fill-rule="evenodd" fill="#fff"/></mask></defs><g mask="url(#c)"><path fill="#f2bc51" style="cursor:pointer" d="M-1000-1000h2000v2000h-2000z"/></g><path d="M-40 45.333c7.25-4.75 2.475-8.875 3.1-11.875s6.65-4.875 1.9-12.125c7.25 4.75 2.475 8.875 3.1 11.875s6.65 4.875 1.9 12.125c7.25-4.75 2.475-8.875 3.1-11.875s6.65-4.875 1.9-12.125c7.25 4.75 2.475 8.875 3.1 11.875s6.65 4.875 1.9 12.125c7.25-4.75 2.475-8.875 3.1-11.875s6.65-4.875 1.9-12.125c7.25 4.75 2.475 8.875 3.1 11.875s6.65 4.875 1.9 12.125c7.25-4.75 2.475-8.875 3.1-11.875S-.25 28.583-5 21.333c7.25 4.75 2.475 8.875 3.1 11.875S4.75 38.083 0 45.333c7.25-4.75 2.475-8.875 3.1-11.875S9.75 28.583 5 21.333c7.25 4.75 2.475 8.875 3.1 11.875s6.65 4.875 1.9 12.125c7.25-4.75 2.475-8.875 3.1-11.875s6.65-4.875 1.9-12.125c7.25 4.75 2.475 8.875 3.1 11.875s6.65 4.875 1.9 12.125c7.25-4.75 2.475-8.875 3.1-11.875s6.65-4.875 1.9-12.125c7.25 4.75 2.475 8.875 3.1 11.875s6.65 4.875 1.9 12.125c7.25-4.75 2.475-8.875 3.1-11.875s6.65-4.875 1.9-12.125c7.25 4.75 2.475 8.875 3.1 11.875s6.65 4.875 1.9 12.125c7.25-4.75 2.475-8.875 3.1-11.875s6.65-4.875 1.9-12.125c7.25 4.75 2.475 8.875 3.1 11.875s6.65 4.875 1.9 12.125c7.25-4.75 2.475-8.875 3.1-11.875s6.65-4.875 1.9-12.125c7.25 4.75 2.475 8.875 3.1 11.875s6.65 4.875 1.9 12.125c7.25-4.75 2.475-8.875 3.1-11.875s6.65-4.875 1.9-12.125c7.25 4.75 2.475 8.875 3.1 11.875s6.65 4.875 1.9 12.125c7.25-4.75 2.475-8.875 3.1-11.875s6.65-4.875 1.9-12.125c7.25 4.75 2.475 8.875 3.1 11.875s6.65 4.875 1.9 12.125c7.25-4.75 2.475-8.875 3.1-11.875s6.65-4.875 1.9-12.125c7.25 4.75 2.475 8.875 3.1 11.875s6.65 4.875 1.9 12.125c7.25-4.75 2.475-8.875 3.1-11.875s6.65-4.875 1.9-12.125c7.25 4.75 2.475 8.875 3.1 11.875s6.65 4.875 1.9 12.125c7.25-4.75 2.475-8.875 3.1-11.875s6.65-4.875 1.9-12.125c7.25 4.75 2.475 8.875 3.1 11.875s6.65 4.875 1.9 12.125c7.25-4.75 2.475-8.875 3.1-11.875s6.65-4.875 1.9-12.125c7.25 4.75 2.475 8.875 3.1 11.875s6.65 4.875 1.9 12.125c7.25-4.75 2.475-8.875 3.1-11.875s6.65-4.875 1.9-12.125c7.25 4.75 2.475 8.875 3.1 11.875s6.65 4.875 1.9 12.125c7.25-4.75 2.475-8.875 3.1-11.875s6.65-4.875 1.9-12.125c7.25 4.75 2.475 8.875 3.1 11.875s6.65 4.875 1.9 12.125c7.25-4.75 2.475-8.875 3.1-11.875s6.65-4.875 1.9-12.125c7.25 4.75 2.475 8.875 3.1 11.875s6.65 4.875 1.9 12.125c7.25-4.75 2.475-8.875 3.1-11.875s6.65-4.875 1.9-12.125c7.25 4.75 2.475 8.875 3.1 11.875s6.65 4.875 1.9 12.125c7.25-4.75 2.475-8.875 3.1-11.875s6.65-4.875 1.9-12.125c7.25 4.75 2.475 8.875 3.1 11.875s6.65 4.875 1.9 12.125c7.25-4.75 2.475-8.875 3.1-11.875s6.65-4.875 1.9-12.125c7.25 4.75 2.475 8.875 3.1 11.875s6.65 4.875 1.9 12.125" fill="none" stroke-linecap="round" stroke-linejoin="round" stroke-width=".5" stroke="#333"/></g><path d="M0 0h100v66.667H0z" fill="none" stroke-linecap="round" stroke-linejoin="round" stroke-width=".5" stroke="#333"/></svg>