<?xml version="1.0" encoding="UTF-8" standalone="no"?>
<svg xmlns="http://www.w3.org/2000/svg" preserveAspectRatio="xMidYMin slice" viewBox="-10 -10 120 86.667"><defs><mask id="a"><path fill="#fff" fill-rule="evenodd" d="M0 0h100v66.667H0z" clip-rule="evenodd"/></mask></defs><g mask="url(#a)"><path fill="#f0f0f0" fill-rule="evenodd" d="M0 0h100v66.667H0z"/><defs><mask id="b"><path fill="#fff" fill-rule="evenodd" stroke="#fff" stroke-width=".1" d="M-40 40.833h5v-15l5 5 5-5v15h10v-15l5 5 5-5v15H5v-15l5 5 5-5v15h10v-15l5 5 5-5v15h10v-15l5 5 5-5v15h10v-15l5 5 5-5v15h10v-15l5 5 5-5v15h10v-15l5 5 5-5v15h10v-15l5 5 5-5v15h10v-15l5 5 5-5v15h10v-15l5 5 5-5v15h5l459.97 85.087a600 600 0 1 0-1169.443 46.346L-40 40.833z" clip-rule="evenodd"/></mask></defs><g mask="url(#b)"><path fill="#f6f6f6" d="M-1000-1000h2000v2000h-2000z"/></g><defs><mask id="c"><path fill="#fff" fill-rule="evenodd" d="M-40 40.833h5v-15l5 5 5-5v15h10v-15l5 5 5-5v15H5v-15l5 5 5-5v15h10v-15l5 5 5-5v15h10v-15l5 5 5-5v15h10v-15l5 5 5-5v15h10v-15l5 5 5-5v15h10v-15l5 5 5-5v15h10v-15l5 5 5-5v15h10v-15l5 5 5-5v15h10v-15l5 5 5-5v15h5L639.97-59.254A600 600 0 1 1-546.913-10.797L-40 40.833z" clip-rule="evenodd"/></mask></defs><g mask="url(#c)"><path fill="#0c6793" d="M-1000-1000h2000v2000h-2000z"/></g><path fill="none" stroke="#333" stroke-linecap="round" stroke-linejoin="round" stroke-width=".5" d="M-40 40.833h5v-15l5 5 5-5v15h10v-15l5 5 5-5v15H5v-15l5 5 5-5v15h10v-15l5 5 5-5v15h10v-15l5 5 5-5v15h10v-15l5 5 5-5v15h10v-15l5 5 5-5v15h10v-15l5 5 5-5v15h10v-15l5 5 5-5v15h10v-15l5 5 5-5v15h10v-15l5 5 5-5v15h5"/></g><path fill="none" stroke="#333" stroke-linecap="round" stroke-linejoin="round" stroke-width=".5" d="M0 0h100v66.667H0z"/></svg>