<svg preserveAspectRatio="xMidYMin slice" viewBox="0 0 120 80" xmlns="http://www.w3.org/2000/svg"><g transform="translate(10 10)"><defs><mask id="a"><path clip-rule="evenodd" d="M50 0h50v33.333a100 100 0 0 1-50 86.603A100 100 0 0 1 0 33.333V0z" fill-rule="evenodd" fill="#fff"/></mask></defs><g mask="url(#a)"><path d="M50 0h50v33.333a100 100 0 0 1-50 86.603A100 100 0 0 1 0 33.333V0z" fill-rule="evenodd" fill="#f0f0f0"/><defs><mask id="b"><path clip-rule="evenodd" d="M-60 62c7.25-4.75 2.475-8.875 3.1-11.875S-50.25 45.25-55 38c7.25 4.75 2.475 8.875 3.1 11.875S-45.25 54.75-50 62c7.25-4.75 2.475-8.875 3.1-11.875S-40.25 45.25-45 38c7.25 4.75 2.475 8.875 3.1 11.875S-35.25 54.75-40 62c7.25-4.75 2.475-8.875 3.1-11.875S-30.25 45.25-35 38c7.25 4.75 2.475 8.875 3.1 11.875S-25.25 54.75-30 62c7.25-4.75 2.475-8.875 3.1-11.875S-20.25 45.25-25 38c7.25 4.75 2.475 8.875 3.1 11.875S-15.25 54.75-20 62c7.25-4.75 2.475-8.875 3.1-11.875S-10.25 45.25-15 38c7.25 4.75 2.475 8.875 3.1 11.875S-5.25 54.75-10 62c7.25-4.75 2.475-8.875 3.1-11.875S-.25 45.25-5 38c7.25 4.75 2.475 8.875 3.1 11.875S4.75 54.75 0 62c7.25-4.75 2.475-8.875 3.1-11.875S9.75 45.25 5 38c7.25 4.75 2.475 8.875 3.1 11.875S14.75 54.75 10 62c7.25-4.75 2.475-8.875 3.1-11.875S19.75 45.25 15 38c7.25 4.75 2.475 8.875 3.1 11.875S24.75 54.75 20 62c7.25-4.75 2.475-8.875 3.1-11.875S29.75 45.25 25 38c7.25 4.75 2.475 8.875 3.1 11.875S34.75 54.75 30 62c7.25-4.75 2.475-8.875 3.1-11.875S39.75 45.25 35 38c7.25 4.75 2.475 8.875 3.1 11.875S44.75 54.75 40 62c7.25-4.75 2.475-8.875 3.1-11.875S49.75 45.25 45 38c7.25 4.75 2.475 8.875 3.1 11.875S54.75 54.75 50 62c7.25-4.75 2.475-8.875 3.1-11.875S59.75 45.25 55 38c7.25 4.75 2.475 8.875 3.1 11.875S64.75 54.75 60 62c7.25-4.75 2.475-8.875 3.1-11.875S69.75 45.25 65 38c7.25 4.75 2.475 8.875 3.1 11.875S74.75 54.75 70 62c7.25-4.75 2.475-8.875 3.1-11.875S79.75 45.25 75 38c7.25 4.75 2.475 8.875 3.1 11.875S84.75 54.75 80 62c7.25-4.75 2.475-8.875 3.1-11.875S89.75 45.25 85 38c7.25 4.75 2.475 8.875 3.1 11.875S94.75 54.75 90 62c7.25-4.75 2.475-8.875 3.1-11.875S99.75 45.25 95 38c7.25 4.75 2.475 8.875 3.1 11.875S104.75 54.75 100 62c7.25-4.75 2.475-8.875 3.1-11.875S109.75 45.25 105 38c7.25 4.75 2.475 8.875 3.1 11.875S114.75 54.75 110 62c7.25-4.75 2.475-8.875 3.1-11.875S119.75 45.25 115 38c7.25 4.75 2.475 8.875 3.1 11.875S124.75 54.75 120 62c7.25-4.75 2.475-8.875 3.1-11.875S129.75 45.25 125 38c7.25 4.75 2.475 8.875 3.1 11.875S134.75 54.75 130 62c7.25-4.75 2.475-8.875 3.1-11.875S139.75 45.25 135 38c7.25 4.75 2.475 8.875 3.1 11.875S144.75 54.75 140 62c7.25-4.75 2.475-8.875 3.1-11.875S149.75 45.25 145 38c7.25 4.75 2.475 8.875 3.1 11.875S154.75 54.75 150 62c7.25-4.75 2.475-8.875 3.1-11.875S159.75 45.25 155 38c7.25 4.75 2.475 8.875 3.1 11.875S164.75 54.75 160 62c7.25-4.75 2.475-8.875 3.1-11.875S169.75 45.25 165 38c7.25 4.75 2.475 8.875 3.1 11.875S174.75 54.75 170 62c7.25-4.75 2.475-8.875 3.1-11.875S179.75 45.25 175 38c7.25 4.75 2.475 8.875 3.1 11.875S184.75 54.75 180 62h820v-1062h-2000V62h940z" fill-rule="evenodd" fill="#fff"/><path d="M-60 62c7.25-4.75 2.475-8.875 3.1-11.875S-50.25 45.25-55 38c7.25 4.75 2.475 8.875 3.1 11.875S-45.25 54.75-50 62c7.25-4.75 2.475-8.875 3.1-11.875S-40.25 45.25-45 38c7.25 4.75 2.475 8.875 3.1 11.875S-35.25 54.75-40 62c7.25-4.75 2.475-8.875 3.1-11.875S-30.25 45.25-35 38c7.25 4.75 2.475 8.875 3.1 11.875S-25.25 54.75-30 62c7.25-4.75 2.475-8.875 3.1-11.875S-20.25 45.25-25 38c7.25 4.75 2.475 8.875 3.1 11.875S-15.25 54.75-20 62c7.25-4.75 2.475-8.875 3.1-11.875S-10.25 45.25-15 38c7.25 4.75 2.475 8.875 3.1 11.875S-5.25 54.75-10 62c7.25-4.75 2.475-8.875 3.1-11.875S-.25 45.25-5 38c7.25 4.75 2.475 8.875 3.1 11.875S4.75 54.75 0 62c7.25-4.75 2.475-8.875 3.1-11.875S9.75 45.25 5 38c7.25 4.75 2.475 8.875 3.1 11.875S14.75 54.75 10 62c7.25-4.75 2.475-8.875 3.1-11.875S19.75 45.25 15 38c7.25 4.75 2.475 8.875 3.1 11.875S24.75 54.75 20 62c7.25-4.75 2.475-8.875 3.1-11.875S29.75 45.25 25 38c7.25 4.75 2.475 8.875 3.1 11.875S34.75 54.75 30 62c7.25-4.75 2.475-8.875 3.1-11.875S39.75 45.25 35 38c7.25 4.75 2.475 8.875 3.1 11.875S44.75 54.75 40 62c7.25-4.75 2.475-8.875 3.1-11.875S49.75 45.25 45 38c7.25 4.75 2.475 8.875 3.1 11.875S54.75 54.75 50 62c7.25-4.75 2.475-8.875 3.1-11.875S59.75 45.25 55 38c7.25 4.75 2.475 8.875 3.1 11.875S64.75 54.75 60 62c7.25-4.75 2.475-8.875 3.1-11.875S69.75 45.25 65 38c7.25 4.75 2.475 8.875 3.1 11.875S74.75 54.75 70 62c7.25-4.75 2.475-8.875 3.1-11.875S79.75 45.25 75 38c7.25 4.75 2.475 8.875 3.1 11.875S84.75 54.75 80 62c7.25-4.75 2.475-8.875 3.1-11.875S89.75 45.25 85 38c7.25 4.75 2.475 8.875 3.1 11.875S94.75 54.75 90 62c7.25-4.75 2.475-8.875 3.1-11.875S99.75 45.25 95 38c7.25 4.75 2.475 8.875 3.1 11.875S104.75 54.75 100 62c7.25-4.75 2.475-8.875 3.1-11.875S109.75 45.25 105 38c7.25 4.75 2.475 8.875 3.1 11.875S114.75 54.75 110 62c7.25-4.75 2.475-8.875 3.1-11.875S119.75 45.25 115 38c7.25 4.75 2.475 8.875 3.1 11.875S124.75 54.75 120 62c7.25-4.75 2.475-8.875 3.1-11.875S129.75 45.25 125 38c7.25 4.75 2.475 8.875 3.1 11.875S134.75 54.75 130 62c7.25-4.75 2.475-8.875 3.1-11.875S139.75 45.25 135 38c7.25 4.75 2.475 8.875 3.1 11.875S144.75 54.75 140 62c7.25-4.75 2.475-8.875 3.1-11.875S149.75 45.25 145 38c7.25 4.75 2.475 8.875 3.1 11.875S154.75 54.75 150 62c7.25-4.75 2.475-8.875 3.1-11.875S159.75 45.25 155 38c7.25 4.75 2.475 8.875 3.1 11.875S164.75 54.75 160 62c7.25-4.75 2.475-8.875 3.1-11.875S169.75 45.25 165 38c7.25 4.75 2.475 8.875 3.1 11.875S174.75 54.75 170 62c7.25-4.75 2.475-8.875 3.1-11.875S179.75 45.25 175 38c7.25 4.75 2.475 8.875 3.1 11.875S184.75 54.75 180 62h820v-1062h-2000V62h940z" fill="none" stroke-width=".1" stroke="#fff"/></mask></defs><g mask="url(#b)"><path fill="#f6f6f6" style="cursor:pointer" d="M-1000-1000h2000v2000h-2000z"/></g><defs><mask id="c"><path clip-rule="evenodd" d="M-60 62c7.25-4.75 2.475-8.875 3.1-11.875S-50.25 45.25-55 38c7.25 4.75 2.475 8.875 3.1 11.875S-45.25 54.75-50 62c7.25-4.75 2.475-8.875 3.1-11.875S-40.25 45.25-45 38c7.25 4.75 2.475 8.875 3.1 11.875S-35.25 54.75-40 62c7.25-4.75 2.475-8.875 3.1-11.875S-30.25 45.25-35 38c7.25 4.75 2.475 8.875 3.1 11.875S-25.25 54.75-30 62c7.25-4.75 2.475-8.875 3.1-11.875S-20.25 45.25-25 38c7.25 4.75 2.475 8.875 3.1 11.875S-15.25 54.75-20 62c7.25-4.75 2.475-8.875 3.1-11.875S-10.25 45.25-15 38c7.25 4.75 2.475 8.875 3.1 11.875S-5.25 54.75-10 62c7.25-4.75 2.475-8.875 3.1-11.875S-.25 45.25-5 38c7.25 4.75 2.475 8.875 3.1 11.875S4.75 54.75 0 62c7.25-4.75 2.475-8.875 3.1-11.875S9.75 45.25 5 38c7.25 4.75 2.475 8.875 3.1 11.875S14.75 54.75 10 62c7.25-4.75 2.475-8.875 3.1-11.875S19.75 45.25 15 38c7.25 4.75 2.475 8.875 3.1 11.875S24.75 54.75 20 62c7.25-4.75 2.475-8.875 3.1-11.875S29.75 45.25 25 38c7.25 4.75 2.475 8.875 3.1 11.875S34.75 54.75 30 62c7.25-4.75 2.475-8.875 3.1-11.875S39.75 45.25 35 38c7.25 4.75 2.475 8.875 3.1 11.875S44.75 54.75 40 62c7.25-4.75 2.475-8.875 3.1-11.875S49.75 45.25 45 38c7.25 4.75 2.475 8.875 3.1 11.875S54.75 54.75 50 62c7.25-4.75 2.475-8.875 3.1-11.875S59.75 45.25 55 38c7.25 4.75 2.475 8.875 3.1 11.875S64.75 54.75 60 62c7.25-4.75 2.475-8.875 3.1-11.875S69.75 45.25 65 38c7.25 4.75 2.475 8.875 3.1 11.875S74.75 54.75 70 62c7.25-4.75 2.475-8.875 3.1-11.875S79.75 45.25 75 38c7.25 4.75 2.475 8.875 3.1 11.875S84.75 54.75 80 62c7.25-4.75 2.475-8.875 3.1-11.875S89.75 45.25 85 38c7.25 4.75 2.475 8.875 3.1 11.875S94.75 54.75 90 62c7.25-4.75 2.475-8.875 3.1-11.875S99.75 45.25 95 38c7.25 4.75 2.475 8.875 3.1 11.875S104.75 54.75 100 62c7.25-4.75 2.475-8.875 3.1-11.875S109.75 45.25 105 38c7.25 4.75 2.475 8.875 3.1 11.875S114.75 54.75 110 62c7.25-4.75 2.475-8.875 3.1-11.875S119.75 45.25 115 38c7.25 4.75 2.475 8.875 3.1 11.875S124.75 54.75 120 62c7.25-4.75 2.475-8.875 3.1-11.875S129.75 45.25 125 38c7.25 4.75 2.475 8.875 3.1 11.875S134.75 54.75 130 62c7.25-4.75 2.475-8.875 3.1-11.875S139.75 45.25 135 38c7.25 4.75 2.475 8.875 3.1 11.875S144.75 54.75 140 62c7.25-4.75 2.475-8.875 3.1-11.875S149.75 45.25 145 38c7.25 4.75 2.475 8.875 3.1 11.875S154.75 54.75 150 62c7.25-4.75 2.475-8.875 3.1-11.875S159.75 45.25 155 38c7.25 4.75 2.475 8.875 3.1 11.875S164.75 54.75 160 62c7.25-4.75 2.475-8.875 3.1-11.875S169.75 45.25 165 38c7.25 4.75 2.475 8.875 3.1 11.875S174.75 54.75 170 62c7.25-4.75 2.475-8.875 3.1-11.875S179.75 45.25 175 38c7.25 4.75 2.475 8.875 3.1 11.875S184.75 54.75 180 62h820v938h-2000V62h940z" fill-rule="evenodd" fill="#fff"/></mask></defs><g mask="url(#c)"><path fill="#0c6793" style="cursor:pointer" d="M-1000-1000h2000v2000h-2000z"/></g><path d="M-60 62c7.25-4.75 2.475-8.875 3.1-11.875S-50.25 45.25-55 38c7.25 4.75 2.475 8.875 3.1 11.875S-45.25 54.75-50 62c7.25-4.75 2.475-8.875 3.1-11.875S-40.25 45.25-45 38c7.25 4.75 2.475 8.875 3.1 11.875S-35.25 54.75-40 62c7.25-4.75 2.475-8.875 3.1-11.875S-30.25 45.25-35 38c7.25 4.75 2.475 8.875 3.1 11.875S-25.25 54.75-30 62c7.25-4.75 2.475-8.875 3.1-11.875S-20.25 45.25-25 38c7.25 4.75 2.475 8.875 3.1 11.875S-15.25 54.75-20 62c7.25-4.75 2.475-8.875 3.1-11.875S-10.25 45.25-15 38c7.25 4.75 2.475 8.875 3.1 11.875S-5.25 54.75-10 62c7.25-4.75 2.475-8.875 3.1-11.875S-.25 45.25-5 38c7.25 4.75 2.475 8.875 3.1 11.875S4.75 54.75 0 62c7.25-4.75 2.475-8.875 3.1-11.875S9.75 45.25 5 38c7.25 4.75 2.475 8.875 3.1 11.875S14.75 54.75 10 62c7.25-4.75 2.475-8.875 3.1-11.875S19.75 45.25 15 38c7.25 4.75 2.475 8.875 3.1 11.875S24.75 54.75 20 62c7.25-4.75 2.475-8.875 3.1-11.875S29.75 45.25 25 38c7.25 4.75 2.475 8.875 3.1 11.875S34.75 54.75 30 62c7.25-4.75 2.475-8.875 3.1-11.875S39.75 45.25 35 38c7.25 4.75 2.475 8.875 3.1 11.875S44.75 54.75 40 62c7.25-4.75 2.475-8.875 3.1-11.875S49.75 45.25 45 38c7.25 4.75 2.475 8.875 3.1 11.875S54.75 54.75 50 62c7.25-4.75 2.475-8.875 3.1-11.875S59.75 45.25 55 38c7.25 4.75 2.475 8.875 3.1 11.875S64.75 54.75 60 62c7.25-4.75 2.475-8.875 3.1-11.875S69.75 45.25 65 38c7.25 4.75 2.475 8.875 3.1 11.875S74.75 54.75 70 62c7.25-4.75 2.475-8.875 3.1-11.875S79.75 45.25 75 38c7.25 4.75 2.475 8.875 3.1 11.875S84.75 54.75 80 62c7.25-4.75 2.475-8.875 3.1-11.875S89.75 45.25 85 38c7.25 4.75 2.475 8.875 3.1 11.875S94.75 54.75 90 62c7.25-4.75 2.475-8.875 3.1-11.875S99.75 45.25 95 38c7.25 4.75 2.475 8.875 3.1 11.875S104.75 54.75 100 62c7.25-4.75 2.475-8.875 3.1-11.875S109.75 45.25 105 38c7.25 4.75 2.475 8.875 3.1 11.875S114.75 54.75 110 62c7.25-4.75 2.475-8.875 3.1-11.875S119.75 45.25 115 38c7.25 4.75 2.475 8.875 3.1 11.875S124.75 54.75 120 62c7.25-4.75 2.475-8.875 3.1-11.875S129.75 45.25 125 38c7.25 4.75 2.475 8.875 3.1 11.875S134.75 54.75 130 62c7.25-4.75 2.475-8.875 3.1-11.875S139.75 45.25 135 38c7.25 4.75 2.475 8.875 3.1 11.875S144.75 54.75 140 62c7.25-4.75 2.475-8.875 3.1-11.875S149.75 45.25 145 38c7.25 4.75 2.475 8.875 3.1 11.875S154.75 54.75 150 62c7.25-4.75 2.475-8.875 3.1-11.875S159.75 45.25 155 38c7.25 4.75 2.475 8.875 3.1 11.875S164.75 54.75 160 62c7.25-4.75 2.475-8.875 3.1-11.875S169.75 45.25 165 38c7.25 4.75 2.475 8.875 3.1 11.875S174.75 54.75 170 62c7.25-4.75 2.475-8.875 3.1-11.875S179.75 45.25 175 38c7.25 4.75 2.475 8.875 3.1 11.875S184.75 54.75 180 62" fill="none" stroke-linecap="round" stroke-linejoin="round" stroke-width=".5" stroke="#333"/></g><path d="M50 0h50v33.333a100 100 0 0 1-50 86.603A100 100 0 0 1 0 33.333V0z" fill="none" stroke-linecap="round" stroke-linejoin="round" stroke-width=".5" stroke="#333"/></g></svg>