<?xml version="1.0" encoding="UTF-8" standalone="no"?>
<svg xmlns="http://www.w3.org/2000/svg" preserveAspectRatio="xMidYMin slice" viewBox="-10 -10 120 86.667"><defs><mask id="a"><path fill="#fff" fill-rule="evenodd" d="M0 0h100v66.667H0z" clip-rule="evenodd"/></mask></defs><g mask="url(#a)"><path fill="#f0f0f0" fill-rule="evenodd" d="M0 0h100v66.667H0z"/><defs><mask id="b"><path fill="#fff" fill-rule="evenodd" stroke="#fff" stroke-width=".1" d="M-33.333 39.583h14.166c2.5-2.5-3-6-3-2.25-4.375-3.75 2-6.916 4.5-1.916 0-3.75-3.375-3.959 1-8.334 4.375 4.375 1 4.584 1 8.334 2.5-5 8.875-1.834 4.5 1.916 0-3.75-5.5-.25-3 2.25H-2.5c2.5 2.5-3 6-3 2.25-4.375 3.75 2 6.917 4.5 1.917 0 3.75-3.375 3.958 1 8.333 4.375-4.375 1-4.583 1-8.333 2.5 5 8.875 1.833 4.5-1.917 0 3.75-5.5.25-3-2.25h11.667c2.5-2.5-3-6-3-2.25-4.375-3.75 2-6.916 4.5-1.916 0-3.75-3.375-3.959 1-8.334 4.375 4.375 1 4.584 1 8.334 2.5-5 8.875-1.834 4.5 1.916 0-3.75-5.5-.25-3 2.25h11.666c2.5 2.5-3 6-3 2.25-4.375 3.75 2 6.917 4.5 1.917 0 3.75-3.375 3.958 1 8.333 4.375-4.375 1-4.583 1-8.333 2.5 5 8.875 1.833 4.5-1.917 0 3.75-5.5.25-3-2.25H47.5c2.5-2.5-3-6-3-2.25-4.375-3.75 2-6.916 4.5-1.916 0-3.75-3.375-3.959 1-8.334 4.375 4.375 1 4.584 1 8.334 2.5-5 8.875-1.834 4.5 1.916 0-3.75-5.5-.25-3 2.25h11.667c2.5 2.5-3 6-3 2.25-4.375 3.75 2 6.917 4.5 1.917 0 3.75-3.375 3.958 1 8.333 4.375-4.375 1-4.583 1-8.333 2.5 5 8.875 1.833 4.5-1.917 0 3.75-5.5.25-3-2.25h11.666c2.5-2.5-3-6-3-2.25-4.375-3.75 2-6.916 4.5-1.916 0-3.75-3.375-3.959 1-8.334 4.375 4.375 1 4.584 1 8.334 2.5-5 8.875-1.834 4.5 1.916 0-3.75-5.5-.25-3 2.25H97.5c2.5 2.5-3 6-3 2.25-4.375 3.75 2 6.917 4.5 1.917 0 3.75-3.375 3.958 1 8.333 4.375-4.375 1-4.583 1-8.333 2.5 5 8.875 1.833 4.5-1.917 0 3.75-5.5.25-3-2.25h11.667c2.5-2.5-3-6-3-2.25-4.375-3.75 2-6.916 4.5-1.916 0-3.75-3.375-3.959 1-8.334 4.375 4.375 1 4.584 1 8.334 2.5-5 8.875-1.834 4.5 1.916 0-3.75-5.5-.25-3 2.25h11.666c2.5 2.5-3 6-3 2.25-4.375 3.75 2 6.917 4.5 1.917 0 3.75-3.375 3.958 1 8.333 4.375-4.375 1-4.583 1-8.333 2.5 5 8.875 1.833 4.5-1.917 0 3.75-5.5.25-3-2.25H147.5c2.5-2.5-3-6-3-2.25-4.375-3.75 2-6.916 4.5-1.916 0-3.75-3.375-3.959 1-8.334 4.375 4.375 1 4.584 1 8.334 2.5-5 8.875-1.834 4.5 1.916 0-3.75-5.5-.25-3 2.25h11.667c2.5 2.5-3 6-3 2.25-4.375 3.75 2 6.917 4.5 1.917 0 3.75-3.375 3.958 1 8.333 4.375-4.375 1-4.583 1-8.333 2.5 5 8.875 1.833 4.5-1.917 0 3.75-5.5.25-3-2.25H175l463.348 94.753a600 600 0 1 0-1166.871 41.425l495.19-136.178z" clip-rule="evenodd"/></mask></defs><g mask="url(#b)"><path fill="#f6f6f6" d="M-1000-1000h2000v2000h-2000z"/></g><defs><mask id="c"><path fill="#fff" fill-rule="evenodd" d="M-33.333 39.583h14.166c2.5-2.5-3-6-3-2.25-4.375-3.75 2-6.916 4.5-1.916 0-3.75-3.375-3.959 1-8.334 4.375 4.375 1 4.584 1 8.334 2.5-5 8.875-1.834 4.5 1.916 0-3.75-5.5-.25-3 2.25H-2.5c2.5 2.5-3 6-3 2.25-4.375 3.75 2 6.917 4.5 1.917 0 3.75-3.375 3.958 1 8.333 4.375-4.375 1-4.583 1-8.333 2.5 5 8.875 1.833 4.5-1.917 0 3.75-5.5.25-3-2.25h11.667c2.5-2.5-3-6-3-2.25-4.375-3.75 2-6.916 4.5-1.916 0-3.75-3.375-3.959 1-8.334 4.375 4.375 1 4.584 1 8.334 2.5-5 8.875-1.834 4.5 1.916 0-3.75-5.5-.25-3 2.25h11.666c2.5 2.5-3 6-3 2.25-4.375 3.75 2 6.917 4.5 1.917 0 3.75-3.375 3.958 1 8.333 4.375-4.375 1-4.583 1-8.333 2.5 5 8.875 1.833 4.5-1.917 0 3.75-5.5.25-3-2.25H47.5c2.5-2.5-3-6-3-2.25-4.375-3.75 2-6.916 4.5-1.916 0-3.75-3.375-3.959 1-8.334 4.375 4.375 1 4.584 1 8.334 2.5-5 8.875-1.834 4.5 1.916 0-3.75-5.5-.25-3 2.25h11.667c2.5 2.5-3 6-3 2.25-4.375 3.75 2 6.917 4.5 1.917 0 3.75-3.375 3.958 1 8.333 4.375-4.375 1-4.583 1-8.333 2.5 5 8.875 1.833 4.5-1.917 0 3.75-5.5.25-3-2.25h11.666c2.5-2.5-3-6-3-2.25-4.375-3.75 2-6.916 4.5-1.916 0-3.75-3.375-3.959 1-8.334 4.375 4.375 1 4.584 1 8.334 2.5-5 8.875-1.834 4.5 1.916 0-3.75-5.5-.25-3 2.25H97.5c2.5 2.5-3 6-3 2.25-4.375 3.75 2 6.917 4.5 1.917 0 3.75-3.375 3.958 1 8.333 4.375-4.375 1-4.583 1-8.333 2.5 5 8.875 1.833 4.5-1.917 0 3.75-5.5.25-3-2.25h11.667c2.5-2.5-3-6-3-2.25-4.375-3.75 2-6.916 4.5-1.916 0-3.75-3.375-3.959 1-8.334 4.375 4.375 1 4.584 1 8.334 2.5-5 8.875-1.834 4.5 1.916 0-3.75-5.5-.25-3 2.25h11.666c2.5 2.5-3 6-3 2.25-4.375 3.75 2 6.917 4.5 1.917 0 3.75-3.375 3.958 1 8.333 4.375-4.375 1-4.583 1-8.333 2.5 5 8.875 1.833 4.5-1.917 0 3.75-5.5.25-3-2.25H147.5c2.5-2.5-3-6-3-2.25-4.375-3.75 2-6.916 4.5-1.916 0-3.75-3.375-3.959 1-8.334 4.375 4.375 1 4.584 1 8.334 2.5-5 8.875-1.834 4.5 1.916 0-3.75-5.5-.25-3 2.25h11.667c2.5 2.5-3 6-3 2.25-4.375 3.75 2 6.917 4.5 1.917 0 3.75-3.375 3.958 1 8.333 4.375-4.375 1-4.583 1-8.333 2.5 5 8.875 1.833 4.5-1.917 0 3.75-5.5.25-3-2.25H175L638.348-67.67A600 600 0 1 1-545.367-24.42l512.034 64.003z" clip-rule="evenodd"/></mask></defs><g mask="url(#c)"><path fill="#0c6793" d="M-1000-1000h2000v2000h-2000z"/></g><path fill="none" stroke="#333" stroke-linecap="round" stroke-linejoin="round" stroke-width=".5" d="M-33.333 39.583h14.166c2.5-2.5-3-6-3-2.25-4.375-3.75 2-6.916 4.5-1.916 0-3.75-3.375-3.959 1-8.334 4.375 4.375 1 4.584 1 8.334 2.5-5 8.875-1.834 4.5 1.916 0-3.75-5.5-.25-3 2.25h5.834v0H-2.5c2.5 2.5-3 6-3 2.25-4.375 3.75 2 6.917 4.5 1.917 0 3.75-3.375 3.958 1 8.333 4.375-4.375 1-4.583 1-8.333 2.5 5 8.875 1.833 4.5-1.917 0 3.75-5.5.25-3-2.25h11.667c2.5-2.5-3-6-3-2.25-4.375-3.75 2-6.916 4.5-1.916 0-3.75-3.375-3.959 1-8.334 4.375 4.375 1 4.584 1 8.334 2.5-5 8.875-1.834 4.5 1.916 0-3.75-5.5-.25-3 2.25H25v0h5.833c2.5 2.5-3 6-3 2.25-4.375 3.75 2 6.917 4.5 1.917 0 3.75-3.375 3.958 1 8.333 4.375-4.375 1-4.583 1-8.333 2.5 5 8.875 1.833 4.5-1.917 0 3.75-5.5.25-3-2.25H47.5c2.5-2.5-3-6-3-2.25-4.375-3.75 2-6.916 4.5-1.916 0-3.75-3.375-3.959 1-8.334 4.375 4.375 1 4.584 1 8.334 2.5-5 8.875-1.834 4.5 1.916 0-3.75-5.5-.25-3 2.25h5.833v0h5.834c2.5 2.5-3 6-3 2.25-4.375 3.75 2 6.917 4.5 1.917 0 3.75-3.375 3.958 1 8.333 4.375-4.375 1-4.583 1-8.333 2.5 5 8.875 1.833 4.5-1.917 0 3.75-5.5.25-3-2.25h11.666c2.5-2.5-3-6-3-2.25-4.375-3.75 2-6.916 4.5-1.916 0-3.75-3.375-3.959 1-8.334 4.375 4.375 1 4.584 1 8.334 2.5-5 8.875-1.834 4.5 1.916 0-3.75-5.5-.25-3 2.25h5.834v0H97.5c2.5 2.5-3 6-3 2.25-4.375 3.75 2 6.917 4.5 1.917 0 3.75-3.375 3.958 1 8.333 4.375-4.375 1-4.583 1-8.333 2.5 5 8.875 1.833 4.5-1.917 0 3.75-5.5.25-3-2.25h11.667c2.5-2.5-3-6-3-2.25-4.375-3.75 2-6.916 4.5-1.916 0-3.75-3.375-3.959 1-8.334 4.375 4.375 1 4.584 1 8.334 2.5-5 8.875-1.834 4.5 1.916 0-3.75-5.5-.25-3 2.25H125v0h5.833c2.5 2.5-3 6-3 2.25-4.375 3.75 2 6.917 4.5 1.917 0 3.75-3.375 3.958 1 8.333 4.375-4.375 1-4.583 1-8.333 2.5 5 8.875 1.833 4.5-1.917 0 3.75-5.5.25-3-2.25H147.5c2.5-2.5-3-6-3-2.25-4.375-3.75 2-6.916 4.5-1.916 0-3.75-3.375-3.959 1-8.334 4.375 4.375 1 4.584 1 8.334 2.5-5 8.875-1.834 4.5 1.916 0-3.75-5.5-.25-3 2.25h5.833v0h5.834c2.5 2.5-3 6-3 2.25-4.375 3.75 2 6.917 4.5 1.917 0 3.75-3.375 3.958 1 8.333 4.375-4.375 1-4.583 1-8.333 2.5 5 8.875 1.833 4.5-1.917 0 3.75-5.5.25-3-2.25H175"/></g><path fill="none" stroke="#333" stroke-linecap="round" stroke-linejoin="round" stroke-width=".5" d="M0 0h100v66.667H0z"/></svg>