<?xml version="1.0" encoding="UTF-8" standalone="no"?>
<svg xmlns="http://www.w3.org/2000/svg" preserveAspectRatio="xMidYMin slice" viewBox="-10 -10 120 86.667"><defs><mask id="a"><path fill="#fff" fill-rule="evenodd" d="M0 0h100v66.667H0z" clip-rule="evenodd"/></mask></defs><g mask="url(#a)"><path fill="#f0f0f0" fill-rule="evenodd" d="M0 0h100v66.667H0z"/><defs><mask id="b"><path fill="#fff" fill-rule="evenodd" stroke="#fff" stroke-width=".1" d="M-33.333 45.833H-5c5-5-6-12-6-4.5-8.75-7.5 4-13.833 9-3.833 0-7.5-6.75-7.917 2-16.667C8.75 29.583 2 30 2 37.5c5-10 17.75-3.667 9 3.833 0-7.5-11-.5-6 4.5h23.333c5-5-6-12-6-4.5-8.75-7.5 4-13.833 9-3.833 0-7.5-6.75-7.917 2-16.667 8.75 8.75 2 9.167 2 16.667 5-10 17.75-3.667 9 3.833 0-7.5-11-.5-6 4.5h23.334c5-5-6-12-6-4.5-8.75-7.5 4-13.833 9-3.833 0-7.5-6.75-7.917 2-16.667 8.75 8.75 2 9.167 2 16.667 5-10 17.75-3.667 9 3.833 0-7.5-11-.5-6 4.5H95c5-5-6-12-6-4.5-8.75-7.5 4-13.833 9-3.833 0-7.5-6.75-7.917 2-16.667 8.75 8.75 2 9.167 2 16.667 5-10 17.75-3.667 9 3.833 0-7.5-11-.5-6 4.5h23.333c5-5-6-12-6-4.5-8.75-7.5 4-13.833 9-3.833 0-7.5-6.75-7.917 2-16.667 8.75 8.75 2 9.167 2 16.667 5-10 17.75-3.667 9 3.833 0-7.5-11-.5-6 4.5h23.334c5-5-6-12-6-4.5-8.75-7.5 4-13.833 9-3.833 0-7.5-6.75-7.917 2-16.667 8.75 8.75 2 9.167 2 16.667 5-10 17.75-3.667 9 3.833 0-7.5-11-.5-6 4.5h11.666l455.015 88.503a600 600 0 1 0-1154.663 80.54L-33.333 45.834z" clip-rule="evenodd"/></mask></defs><g mask="url(#b)"><path fill="#f6f6f6" d="M-1000-1000h2000v2000h-2000z"/></g><defs><mask id="c"><path fill="#fff" fill-rule="evenodd" d="M-33.333 45.833H-5c5-5-6-12-6-4.5-8.75-7.5 4-13.833 9-3.833 0-7.5-6.75-7.917 2-16.667C8.75 29.583 2 30 2 37.5c5-10 17.75-3.667 9 3.833 0-7.5-11-.5-6 4.5h23.333c5-5-6-12-6-4.5-8.75-7.5 4-13.833 9-3.833 0-7.5-6.75-7.917 2-16.667 8.75 8.75 2 9.167 2 16.667 5-10 17.75-3.667 9 3.833 0-7.5-11-.5-6 4.5h23.334c5-5-6-12-6-4.5-8.75-7.5 4-13.833 9-3.833 0-7.5-6.75-7.917 2-16.667 8.75 8.75 2 9.167 2 16.667 5-10 17.75-3.667 9 3.833 0-7.5-11-.5-6 4.5H95c5-5-6-12-6-4.5-8.75-7.5 4-13.833 9-3.833 0-7.5-6.75-7.917 2-16.667 8.75 8.75 2 9.167 2 16.667 5-10 17.75-3.667 9 3.833 0-7.5-11-.5-6 4.5h23.333c5-5-6-12-6-4.5-8.75-7.5 4-13.833 9-3.833 0-7.5-6.75-7.917 2-16.667 8.75 8.75 2 9.167 2 16.667 5-10 17.75-3.667 9 3.833 0-7.5-11-.5-6 4.5h23.334c5-5-6-12-6-4.5-8.75-7.5 4-13.833 9-3.833 0-7.5-6.75-7.917 2-16.667 8.75 8.75 2 9.167 2 16.667 5-10 17.75-3.667 9 3.833 0-7.5-11-.5-6 4.5h11.666L638.348-67.67a600 600 0 1 1-1187.6 87.707l515.919 25.796z" clip-rule="evenodd"/></mask></defs><g mask="url(#c)"><path fill="#0c6793" d="M-1000-1000h2000v2000h-2000z"/></g><path fill="none" stroke="#333" stroke-linecap="round" stroke-linejoin="round" stroke-width=".5" d="M-33.333 45.833H-5c5-5-6-12-6-4.5-8.75-7.5 4-13.833 9-3.833 0-7.5-6.75-7.917 2-16.667C8.75 29.583 2 30 2 37.5c5-10 17.75-3.667 9 3.833 0-7.5-11-.5-6 4.5h23.333c5-5-6-12-6-4.5-8.75-7.5 4-13.833 9-3.833 0-7.5-6.75-7.917 2-16.667 8.75 8.75 2 9.167 2 16.667 5-10 17.75-3.667 9 3.833 0-7.5-11-.5-6 4.5h23.334c5-5-6-12-6-4.5-8.75-7.5 4-13.833 9-3.833 0-7.5-6.75-7.917 2-16.667 8.75 8.75 2 9.167 2 16.667 5-10 17.75-3.667 9 3.833 0-7.5-11-.5-6 4.5H95c5-5-6-12-6-4.5-8.75-7.5 4-13.833 9-3.833 0-7.5-6.75-7.917 2-16.667 8.75 8.75 2 9.167 2 16.667 5-10 17.75-3.667 9 3.833 0-7.5-11-.5-6 4.5h23.333c5-5-6-12-6-4.5-8.75-7.5 4-13.833 9-3.833 0-7.5-6.75-7.917 2-16.667 8.75 8.75 2 9.167 2 16.667 5-10 17.75-3.667 9 3.833 0-7.5-11-.5-6 4.5h23.334c5-5-6-12-6-4.5-8.75-7.5 4-13.833 9-3.833 0-7.5-6.75-7.917 2-16.667 8.75 8.75 2 9.167 2 16.667 5-10 17.75-3.667 9 3.833 0-7.5-11-.5-6 4.5h11.666"/></g><path fill="none" stroke="#333" stroke-linecap="round" stroke-linejoin="round" stroke-width=".5" d="M0 0h100v66.667H0z"/></svg>