<?xml version="1.0" encoding="UTF-8" standalone="no"?>
<svg xmlns="http://www.w3.org/2000/svg" preserveAspectRatio="xMidYMin slice" viewBox="-10 -10 120 86.667"><defs><mask id="a"><path fill="#fff" fill-rule="evenodd" d="M0 0h100v66.667H0z" clip-rule="evenodd"/></mask></defs><g mask="url(#a)"><path fill="#f0f0f0" fill-rule="evenodd" d="M0 0h100v66.667H0z"/><defs><mask id="b"><path fill="#fff" fill-rule="evenodd" stroke="#fff" stroke-width=".1" d="M-40 33.333h5v-1.5h-1.8a1.5 1.5 0 1 1 0-3 1.5 1.5 0 0 1 0 3h1.8v-.75a1.5 1.5 0 1 1 0-3 1.5 1.5 0 0 1 0 3v.75h1.8a1.5 1.5 0 1 1 0-3 1.5 1.5 0 0 1 0 3H-35v1.5h5v1.5h-1.8a1.5 1.5 0 1 0 0 3 1.5 1.5 0 0 0 0-3h1.8v.75a1.5 1.5 0 1 0 0 3 1.5 1.5 0 0 0 0-3v-.75h1.8a1.5 1.5 0 1 0 0 3 1.5 1.5 0 0 0 0-3H-30v-1.5h5v-1.5h-1.8a1.5 1.5 0 1 1 0-3 1.5 1.5 0 0 1 0 3h1.8v-.75a1.5 1.5 0 1 1 0-3 1.5 1.5 0 0 1 0 3v.75h1.8a1.5 1.5 0 1 1 0-3 1.5 1.5 0 0 1 0 3H-25v1.5h5v1.5h-1.8a1.5 1.5 0 1 0 0 3 1.5 1.5 0 0 0 0-3h1.8v.75a1.5 1.5 0 1 0 0 3 1.5 1.5 0 0 0 0-3v-.75h1.8a1.5 1.5 0 1 0 0 3 1.5 1.5 0 0 0 0-3H-20v-1.5h5v-1.5h-1.8a1.5 1.5 0 1 1 0-3 1.5 1.5 0 0 1 0 3h1.8v-.75a1.5 1.5 0 1 1 0-3 1.5 1.5 0 0 1 0 3v.75h1.8a1.5 1.5 0 1 1 0-3 1.5 1.5 0 0 1 0 3H-15v1.5h5v1.5h-1.8a1.5 1.5 0 1 0 0 3 1.5 1.5 0 0 0 0-3h1.8v.75a1.5 1.5 0 1 0 0 3 1.5 1.5 0 0 0 0-3v-.75h1.8a1.5 1.5 0 1 0 0 3 1.5 1.5 0 0 0 0-3H-10v-1.5h5v-1.5h-1.8a1.5 1.5 0 1 1 0-3 1.5 1.5 0 0 1 0 3H-5v-.75a1.5 1.5 0 1 1 0-3 1.5 1.5 0 0 1 0 3v.75h1.8a1.5 1.5 0 1 1 0-3 1.5 1.5 0 0 1 0 3H-5v1.5h5v1.5h-1.8a1.5 1.5 0 1 0 0 3 1.5 1.5 0 0 0 0-3H0v.75a1.5 1.5 0 1 0 0 3 1.5 1.5 0 0 0 0-3v-.75h1.8a1.5 1.5 0 1 0 0 3 1.5 1.5 0 0 0 0-3H0v-1.5h5v-1.5H3.2a1.5 1.5 0 1 1 0-3 1.5 1.5 0 0 1 0 3H5v-.75a1.5 1.5 0 1 1 0-3 1.5 1.5 0 0 1 0 3v.75h1.8a1.5 1.5 0 1 1 0-3 1.5 1.5 0 0 1 0 3H5v1.5h5v1.5H8.2a1.5 1.5 0 1 0 0 3 1.5 1.5 0 0 0 0-3H10v.75a1.5 1.5 0 1 0 0 3 1.5 1.5 0 0 0 0-3v-.75h1.8a1.5 1.5 0 1 0 0 3 1.5 1.5 0 0 0 0-3H10v-1.5h5v-1.5h-1.8a1.5 1.5 0 1 1 0-3 1.5 1.5 0 0 1 0 3H15v-.75a1.5 1.5 0 1 1 0-3 1.5 1.5 0 0 1 0 3v.75h1.8a1.5 1.5 0 1 1 0-3 1.5 1.5 0 0 1 0 3H15v1.5h5v1.5h-1.8a1.5 1.5 0 1 0 0 3 1.5 1.5 0 0 0 0-3H20v.75a1.5 1.5 0 1 0 0 3 1.5 1.5 0 0 0 0-3v-.75h1.8a1.5 1.5 0 1 0 0 3 1.5 1.5 0 0 0 0-3H20v-1.5h5v-1.5h-1.8a1.5 1.5 0 1 1 0-3 1.5 1.5 0 0 1 0 3H25v-.75a1.5 1.5 0 1 1 0-3 1.5 1.5 0 0 1 0 3v.75h1.8a1.5 1.5 0 1 1 0-3 1.5 1.5 0 0 1 0 3H25v1.5h5v1.5h-1.8a1.5 1.5 0 1 0 0 3 1.5 1.5 0 0 0 0-3H30v.75a1.5 1.5 0 1 0 0 3 1.5 1.5 0 0 0 0-3v-.75h1.8a1.5 1.5 0 1 0 0 3 1.5 1.5 0 0 0 0-3H30v-1.5h5v-1.5h-1.8a1.5 1.5 0 1 1 0-3 1.5 1.5 0 0 1 0 3H35v-.75a1.5 1.5 0 1 1 0-3 1.5 1.5 0 0 1 0 3v.75h1.8a1.5 1.5 0 1 1 0-3 1.5 1.5 0 0 1 0 3H35v1.5h5v1.5h-1.8a1.5 1.5 0 1 0 0 3 1.5 1.5 0 0 0 0-3H40v.75a1.5 1.5 0 1 0 0 3 1.5 1.5 0 0 0 0-3v-.75h1.8a1.5 1.5 0 1 0 0 3 1.5 1.5 0 0 0 0-3H40v-1.5h5v-1.5h-1.8a1.5 1.5 0 1 1 0-3 1.5 1.5 0 0 1 0 3H45v-.75a1.5 1.5 0 1 1 0-3 1.5 1.5 0 0 1 0 3v.75h1.8a1.5 1.5 0 1 1 0-3 1.5 1.5 0 0 1 0 3H45v1.5h5v1.5h-1.8a1.5 1.5 0 1 0 0 3 1.5 1.5 0 0 0 0-3H50v.75a1.5 1.5 0 1 0 0 3 1.5 1.5 0 0 0 0-3v-.75h1.8a1.5 1.5 0 1 0 0 3 1.5 1.5 0 0 0 0-3H50v-1.5h5v-1.5h-1.8a1.5 1.5 0 1 1 0-3 1.5 1.5 0 0 1 0 3H55v-.75a1.5 1.5 0 1 1 0-3 1.5 1.5 0 0 1 0 3v.75h1.8a1.5 1.5 0 1 1 0-3 1.5 1.5 0 0 1 0 3H55v1.5h5v1.5h-1.8a1.5 1.5 0 1 0 0 3 1.5 1.5 0 0 0 0-3H60v.75a1.5 1.5 0 1 0 0 3 1.5 1.5 0 0 0 0-3v-.75h1.8a1.5 1.5 0 1 0 0 3 1.5 1.5 0 0 0 0-3H60v-1.5h5v-1.5h-1.8a1.5 1.5 0 1 1 0-3 1.5 1.5 0 0 1 0 3H65v-.75a1.5 1.5 0 1 1 0-3 1.5 1.5 0 0 1 0 3v.75h1.8a1.5 1.5 0 1 1 0-3 1.5 1.5 0 0 1 0 3H65v1.5h5v1.5h-1.8a1.5 1.5 0 1 0 0 3 1.5 1.5 0 0 0 0-3H70v.75a1.5 1.5 0 1 0 0 3 1.5 1.5 0 0 0 0-3v-.75h1.8a1.5 1.5 0 1 0 0 3 1.5 1.5 0 0 0 0-3H70v-1.5l569.97 92.587a600 600 0 1 0-1179.94 0z" clip-rule="evenodd"/></mask></defs><g mask="url(#b)"><path fill="#f6f6f6" d="M-1000-1000h2000v2000h-2000z"/></g><defs><mask id="c"><path fill="#fff" fill-rule="evenodd" d="M-40 33.333h5v-1.5h-1.8a1.5 1.5 0 1 1 0-3 1.5 1.5 0 0 1 0 3h1.8v-.75a1.5 1.5 0 1 1 0-3 1.5 1.5 0 0 1 0 3v.75h1.8a1.5 1.5 0 1 1 0-3 1.5 1.5 0 0 1 0 3H-35v1.5h5v1.5h-1.8a1.5 1.5 0 1 0 0 3 1.5 1.5 0 0 0 0-3h1.8v.75a1.5 1.5 0 1 0 0 3 1.5 1.5 0 0 0 0-3v-.75h1.8a1.5 1.5 0 1 0 0 3 1.5 1.5 0 0 0 0-3H-30v-1.5h5v-1.5h-1.8a1.5 1.5 0 1 1 0-3 1.5 1.5 0 0 1 0 3h1.8v-.75a1.5 1.5 0 1 1 0-3 1.5 1.5 0 0 1 0 3v.75h1.8a1.5 1.5 0 1 1 0-3 1.5 1.5 0 0 1 0 3H-25v1.5h5v1.5h-1.8a1.5 1.5 0 1 0 0 3 1.5 1.5 0 0 0 0-3h1.8v.75a1.5 1.5 0 1 0 0 3 1.5 1.5 0 0 0 0-3v-.75h1.8a1.5 1.5 0 1 0 0 3 1.5 1.5 0 0 0 0-3H-20v-1.5h5v-1.5h-1.8a1.5 1.5 0 1 1 0-3 1.5 1.5 0 0 1 0 3h1.8v-.75a1.5 1.5 0 1 1 0-3 1.5 1.5 0 0 1 0 3v.75h1.8a1.5 1.5 0 1 1 0-3 1.5 1.5 0 0 1 0 3H-15v1.5h5v1.5h-1.8a1.5 1.5 0 1 0 0 3 1.5 1.5 0 0 0 0-3h1.8v.75a1.5 1.5 0 1 0 0 3 1.5 1.5 0 0 0 0-3v-.75h1.8a1.5 1.5 0 1 0 0 3 1.5 1.5 0 0 0 0-3H-10v-1.5h5v-1.5h-1.8a1.5 1.5 0 1 1 0-3 1.5 1.5 0 0 1 0 3H-5v-.75a1.5 1.5 0 1 1 0-3 1.5 1.5 0 0 1 0 3v.75h1.8a1.5 1.5 0 1 1 0-3 1.5 1.5 0 0 1 0 3H-5v1.5h5v1.5h-1.8a1.5 1.5 0 1 0 0 3 1.5 1.5 0 0 0 0-3H0v.75a1.5 1.5 0 1 0 0 3 1.5 1.5 0 0 0 0-3v-.75h1.8a1.5 1.5 0 1 0 0 3 1.5 1.5 0 0 0 0-3H0v-1.5h5v-1.5H3.2a1.5 1.5 0 1 1 0-3 1.5 1.5 0 0 1 0 3H5v-.75a1.5 1.5 0 1 1 0-3 1.5 1.5 0 0 1 0 3v.75h1.8a1.5 1.5 0 1 1 0-3 1.5 1.5 0 0 1 0 3H5v1.5h5v1.5H8.2a1.5 1.5 0 1 0 0 3 1.5 1.5 0 0 0 0-3H10v.75a1.5 1.5 0 1 0 0 3 1.5 1.5 0 0 0 0-3v-.75h1.8a1.5 1.5 0 1 0 0 3 1.5 1.5 0 0 0 0-3H10v-1.5h5v-1.5h-1.8a1.5 1.5 0 1 1 0-3 1.5 1.5 0 0 1 0 3H15v-.75a1.5 1.5 0 1 1 0-3 1.5 1.5 0 0 1 0 3v.75h1.8a1.5 1.5 0 1 1 0-3 1.5 1.5 0 0 1 0 3H15v1.5h5v1.5h-1.8a1.5 1.5 0 1 0 0 3 1.5 1.5 0 0 0 0-3H20v.75a1.5 1.5 0 1 0 0 3 1.5 1.5 0 0 0 0-3v-.75h1.8a1.5 1.5 0 1 0 0 3 1.5 1.5 0 0 0 0-3H20v-1.5h5v-1.5h-1.8a1.5 1.5 0 1 1 0-3 1.5 1.5 0 0 1 0 3H25v-.75a1.5 1.5 0 1 1 0-3 1.5 1.5 0 0 1 0 3v.75h1.8a1.5 1.5 0 1 1 0-3 1.5 1.5 0 0 1 0 3H25v1.5h5v1.5h-1.8a1.5 1.5 0 1 0 0 3 1.5 1.5 0 0 0 0-3H30v.75a1.5 1.5 0 1 0 0 3 1.5 1.5 0 0 0 0-3v-.75h1.8a1.5 1.5 0 1 0 0 3 1.5 1.5 0 0 0 0-3H30v-1.5h5v-1.5h-1.8a1.5 1.5 0 1 1 0-3 1.5 1.5 0 0 1 0 3H35v-.75a1.5 1.5 0 1 1 0-3 1.5 1.5 0 0 1 0 3v.75h1.8a1.5 1.5 0 1 1 0-3 1.5 1.5 0 0 1 0 3H35v1.5h5v1.5h-1.8a1.5 1.5 0 1 0 0 3 1.5 1.5 0 0 0 0-3H40v.75a1.5 1.5 0 1 0 0 3 1.5 1.5 0 0 0 0-3v-.75h1.8a1.5 1.5 0 1 0 0 3 1.5 1.5 0 0 0 0-3H40v-1.5h5v-1.5h-1.8a1.5 1.5 0 1 1 0-3 1.5 1.5 0 0 1 0 3H45v-.75a1.5 1.5 0 1 1 0-3 1.5 1.5 0 0 1 0 3v.75h1.8a1.5 1.5 0 1 1 0-3 1.5 1.5 0 0 1 0 3H45v1.5h5v1.5h-1.8a1.5 1.5 0 1 0 0 3 1.5 1.5 0 0 0 0-3H50v.75a1.5 1.5 0 1 0 0 3 1.5 1.5 0 0 0 0-3v-.75h1.8a1.5 1.5 0 1 0 0 3 1.5 1.5 0 0 0 0-3H50v-1.5h5v-1.5h-1.8a1.5 1.5 0 1 1 0-3 1.5 1.5 0 0 1 0 3H55v-.75a1.5 1.5 0 1 1 0-3 1.5 1.5 0 0 1 0 3v.75h1.8a1.5 1.5 0 1 1 0-3 1.5 1.5 0 0 1 0 3H55v1.5h5v1.5h-1.8a1.5 1.5 0 1 0 0 3 1.5 1.5 0 0 0 0-3H60v.75a1.5 1.5 0 1 0 0 3 1.5 1.5 0 0 0 0-3v-.75h1.8a1.5 1.5 0 1 0 0 3 1.5 1.5 0 0 0 0-3H60v-1.5h5v-1.5h-1.8a1.5 1.5 0 1 1 0-3 1.5 1.5 0 0 1 0 3H65v-.75a1.5 1.5 0 1 1 0-3 1.5 1.5 0 0 1 0 3v.75h1.8a1.5 1.5 0 1 1 0-3 1.5 1.5 0 0 1 0 3H65v1.5h5v1.5h-1.8a1.5 1.5 0 1 0 0 3 1.5 1.5 0 0 0 0-3H70v.75a1.5 1.5 0 1 0 0 3 1.5 1.5 0 0 0 0-3v-.75h1.8a1.5 1.5 0 1 0 0 3 1.5 1.5 0 0 0 0-3H70v-1.5l569.97-92.587a600 600 0 1 1-1179.94 0z" clip-rule="evenodd"/></mask></defs><g mask="url(#c)"><path fill="#0c6793" d="M-1000-1000h2000v2000h-2000z"/></g><path fill="none" stroke="#333" stroke-linecap="round" stroke-linejoin="round" stroke-width=".5" d="M-40 33.333h5v-1.5h-1.8a1.5 1.5 0 1 1 0-3 1.5 1.5 0 0 1 0 3h1.8v-.75a1.5 1.5 0 1 1 0-3 1.5 1.5 0 0 1 0 3v.75h1.8a1.5 1.5 0 1 1 0-3 1.5 1.5 0 0 1 0 3H-35v1.5h5v1.5h-1.8a1.5 1.5 0 1 0 0 3 1.5 1.5 0 0 0 0-3h1.8v.75a1.5 1.5 0 1 0 0 3 1.5 1.5 0 0 0 0-3v-.75h1.8a1.5 1.5 0 1 0 0 3 1.5 1.5 0 0 0 0-3H-30v-1.5h5v-1.5h-1.8a1.5 1.5 0 1 1 0-3 1.5 1.5 0 0 1 0 3h1.8v-.75a1.5 1.5 0 1 1 0-3 1.5 1.5 0 0 1 0 3v.75h1.8a1.5 1.5 0 1 1 0-3 1.5 1.5 0 0 1 0 3H-25v1.5h5v1.5h-1.8a1.5 1.5 0 1 0 0 3 1.5 1.5 0 0 0 0-3h1.8v.75a1.5 1.5 0 1 0 0 3 1.5 1.5 0 0 0 0-3v-.75h1.8a1.5 1.5 0 1 0 0 3 1.5 1.5 0 0 0 0-3H-20v-1.5h5v-1.5h-1.8a1.5 1.5 0 1 1 0-3 1.5 1.5 0 0 1 0 3h1.8v-.75a1.5 1.5 0 1 1 0-3 1.5 1.5 0 0 1 0 3v.75h1.8a1.5 1.5 0 1 1 0-3 1.5 1.5 0 0 1 0 3H-15v1.5h5v1.5h-1.8a1.5 1.5 0 1 0 0 3 1.5 1.5 0 0 0 0-3h1.8v.75a1.5 1.5 0 1 0 0 3 1.5 1.5 0 0 0 0-3v-.75h1.8a1.5 1.5 0 1 0 0 3 1.5 1.5 0 0 0 0-3H-10v-1.5h5v-1.5h-1.8a1.5 1.5 0 1 1 0-3 1.5 1.5 0 0 1 0 3H-5v-.75a1.5 1.5 0 1 1 0-3 1.5 1.5 0 0 1 0 3v.75h1.8a1.5 1.5 0 1 1 0-3 1.5 1.5 0 0 1 0 3H-5v1.5h5v1.5h-1.8a1.5 1.5 0 1 0 0 3 1.5 1.5 0 0 0 0-3H0v.75a1.5 1.5 0 1 0 0 3 1.5 1.5 0 0 0 0-3v-.75h1.8a1.5 1.5 0 1 0 0 3 1.5 1.5 0 0 0 0-3H0v-1.5h5v-1.5H3.2a1.5 1.5 0 1 1 0-3 1.5 1.5 0 0 1 0 3H5v-.75a1.5 1.5 0 1 1 0-3 1.5 1.5 0 0 1 0 3v.75h1.8a1.5 1.5 0 1 1 0-3 1.5 1.5 0 0 1 0 3H5v1.5h5v1.5H8.2a1.5 1.5 0 1 0 0 3 1.5 1.5 0 0 0 0-3H10v.75a1.5 1.5 0 1 0 0 3 1.5 1.5 0 0 0 0-3v-.75h1.8a1.5 1.5 0 1 0 0 3 1.5 1.5 0 0 0 0-3H10v-1.5h5v-1.5h-1.8a1.5 1.5 0 1 1 0-3 1.5 1.5 0 0 1 0 3H15v-.75a1.5 1.5 0 1 1 0-3 1.5 1.5 0 0 1 0 3v.75h1.8a1.5 1.5 0 1 1 0-3 1.5 1.5 0 0 1 0 3H15v1.5h5v1.5h-1.8a1.5 1.5 0 1 0 0 3 1.5 1.5 0 0 0 0-3H20v.75a1.5 1.5 0 1 0 0 3 1.5 1.5 0 0 0 0-3v-.75h1.8a1.5 1.5 0 1 0 0 3 1.5 1.5 0 0 0 0-3H20v-1.5h5v-1.5h-1.8a1.5 1.5 0 1 1 0-3 1.5 1.5 0 0 1 0 3H25v-.75a1.5 1.5 0 1 1 0-3 1.5 1.5 0 0 1 0 3v.75h1.8a1.5 1.5 0 1 1 0-3 1.5 1.5 0 0 1 0 3H25v1.5h5v1.5h-1.8a1.5 1.5 0 1 0 0 3 1.5 1.5 0 0 0 0-3H30v.75a1.5 1.5 0 1 0 0 3 1.5 1.5 0 0 0 0-3v-.75h1.8a1.5 1.5 0 1 0 0 3 1.5 1.5 0 0 0 0-3H30v-1.5h5v-1.5h-1.8a1.5 1.5 0 1 1 0-3 1.5 1.5 0 0 1 0 3H35v-.75a1.5 1.5 0 1 1 0-3 1.5 1.5 0 0 1 0 3v.75h1.8a1.5 1.5 0 1 1 0-3 1.5 1.5 0 0 1 0 3H35v1.5h5v1.5h-1.8a1.5 1.5 0 1 0 0 3 1.5 1.5 0 0 0 0-3H40v.75a1.5 1.5 0 1 0 0 3 1.5 1.5 0 0 0 0-3v-.75h1.8a1.5 1.5 0 1 0 0 3 1.5 1.5 0 0 0 0-3H40v-1.5h5v-1.5h-1.8a1.5 1.5 0 1 1 0-3 1.5 1.5 0 0 1 0 3H45v-.75a1.5 1.5 0 1 1 0-3 1.5 1.5 0 0 1 0 3v.75h1.8a1.5 1.5 0 1 1 0-3 1.5 1.5 0 0 1 0 3H45v1.5h5v1.5h-1.8a1.5 1.5 0 1 0 0 3 1.5 1.5 0 0 0 0-3H50v.75a1.5 1.5 0 1 0 0 3 1.5 1.5 0 0 0 0-3v-.75h1.8a1.5 1.5 0 1 0 0 3 1.5 1.5 0 0 0 0-3H50v-1.5h5v-1.5h-1.8a1.5 1.5 0 1 1 0-3 1.5 1.5 0 0 1 0 3H55v-.75a1.5 1.5 0 1 1 0-3 1.5 1.5 0 0 1 0 3v.75h1.8a1.5 1.5 0 1 1 0-3 1.5 1.5 0 0 1 0 3H55v1.5h5v1.5h-1.8a1.5 1.5 0 1 0 0 3 1.5 1.5 0 0 0 0-3H60v.75a1.5 1.5 0 1 0 0 3 1.5 1.5 0 0 0 0-3v-.75h1.8a1.5 1.5 0 1 0 0 3 1.5 1.5 0 0 0 0-3H60v-1.5h5v-1.5h-1.8a1.5 1.5 0 1 1 0-3 1.5 1.5 0 0 1 0 3H65v-.75a1.5 1.5 0 1 1 0-3 1.5 1.5 0 0 1 0 3v.75h1.8a1.5 1.5 0 1 1 0-3 1.5 1.5 0 0 1 0 3H65v1.5h5v1.5h-1.8a1.5 1.5 0 1 0 0 3 1.5 1.5 0 0 0 0-3H70v.75a1.5 1.5 0 1 0 0 3 1.5 1.5 0 0 0 0-3v-.75h1.8a1.5 1.5 0 1 0 0 3 1.5 1.5 0 0 0 0-3H70v-1.5"/></g><path fill="none" stroke="#333" stroke-linecap="round" stroke-linejoin="round" stroke-width=".5" d="M0 0h100v66.667H0z"/></svg>