<?xml version="1.0" encoding="UTF-8" standalone="no"?>
<svg xmlns="http://www.w3.org/2000/svg" preserveAspectRatio="xMidYMin slice" viewBox="-10 -10 120 86.667"><defs><mask id="a"><path fill="#fff" fill-rule="evenodd" d="M0 0h100v66.667H0z" clip-rule="evenodd"/></mask></defs><g mask="url(#a)"><path fill="#f0f0f0" fill-rule="evenodd" d="M0 0h100v66.667H0z"/><defs><mask id="b"><path fill="#fff" fill-rule="evenodd" stroke="#fff" stroke-width=".1" d="m-40 43.333 6.667-5-3.334-10 6.667-5 6.667 5-3.334 10 6.667 5 6.667-5-3.334-10 6.667-5 6.667 5-3.334 10 6.667 5 6.667-5-3.334-10 6.667-5 6.667 5-3.334 10 6.667 5 6.667-5-3.334-10 6.667-5 6.667 5-3.334 10 6.667 5 6.667-5-3.334-10 6.667-5 6.667 5-3.334 10 6.667 5 6.667-5-3.334-10 6.667-5 6.667 5-3.334 10 6.667 5 6.667-5-3.334-10 6.667-5 6.667 5-3.334 10 6.667 5 6.667-5-3.334-10 6.667-5 6.667 5-3.334 10 6.667 5 6.667-5-3.333-10 6.666-5 6.667 5-3.333 10 6.666 5 6.667-5-3.333-10 6.666-5 6.667 5-3.333 10 6.666 5 6.667-5-3.333-10 6.666-5 6.667 5-3.333 10 6.666 5 459.97 82.587a600 600 0 1 0-1165.249 61.2z" clip-rule="evenodd"/></mask></defs><g mask="url(#b)"><path fill="#f6f6f6" d="M-1000-1000h2000v2000h-2000z"/></g><defs><mask id="c"><path fill="#fff" fill-rule="evenodd" d="m-40 43.333 6.667-5-3.334-10 6.667-5 6.667 5-3.334 10 6.667 5 6.667-5-3.334-10 6.667-5 6.667 5-3.334 10 6.667 5 6.667-5-3.334-10 6.667-5 6.667 5-3.334 10 6.667 5 6.667-5-3.334-10 6.667-5 6.667 5-3.334 10 6.667 5 6.667-5-3.334-10 6.667-5 6.667 5-3.334 10 6.667 5 6.667-5-3.334-10 6.667-5 6.667 5-3.334 10 6.667 5 6.667-5-3.334-10 6.667-5 6.667 5-3.334 10 6.667 5 6.667-5-3.334-10 6.667-5 6.667 5-3.334 10 6.667 5 6.667-5-3.333-10 6.666-5 6.667 5-3.333 10 6.666 5 6.667-5-3.333-10 6.666-5 6.667 5-3.333 10 6.666 5 6.667-5-3.333-10 6.666-5 6.667 5-3.333 10 6.666 5L639.97-59.254A600 600 0 1 1-548.36 5.677z" clip-rule="evenodd"/></mask></defs><g mask="url(#c)"><path fill="#f2bc51" d="M-1000-1000h2000v2000h-2000z"/></g><path fill="none" stroke="#333" stroke-linecap="round" stroke-linejoin="round" stroke-width=".5" d="m-40 43.333 6.667-5-3.334-10 6.667-5 6.667 5-3.334 10 6.667 5 6.667-5-3.334-10 6.667-5 6.667 5-3.334 10 6.667 5 6.667-5-3.334-10 6.667-5 6.667 5-3.334 10 6.667 5 6.667-5-3.334-10 6.667-5 6.667 5-3.334 10 6.667 5 6.667-5-3.334-10 6.667-5 6.667 5-3.334 10 6.667 5 6.667-5-3.334-10 6.667-5 6.667 5-3.334 10 6.667 5 6.667-5-3.334-10 6.667-5 6.667 5-3.334 10 6.667 5 6.667-5-3.334-10 6.667-5 6.667 5-3.334 10 6.667 5 6.667-5-3.333-10 6.666-5 6.667 5-3.333 10 6.666 5 6.667-5-3.333-10 6.666-5 6.667 5-3.333 10 6.666 5 6.667-5-3.333-10 6.666-5 6.667 5-3.333 10 6.666 5"/></g><path fill="none" stroke="#333" stroke-linecap="round" stroke-linejoin="round" stroke-width=".5" d="M0 0h100v66.667H0z"/></svg>