<svg preserveAspectRatio="xMidYMin slice" viewBox="0 0 120 80" xmlns="http://www.w3.org/2000/svg"><g transform="translate(10 10)"><defs><mask id="a"><path clip-rule="evenodd" d="M0 0h100v66.667H0z" fill-rule="evenodd" fill="#fff"/></mask></defs><g mask="url(#a)"><path d="M0 0h100v66.667H0z" fill-rule="evenodd" fill="#f0f0f0"/><defs><mask id="b"><path clip-rule="evenodd" d="m-60 33.333 3.125-4.28-3.75 1.062L-55 22.083l5.625 8.032-3.75-1.063 6.25 8.563-3.75-1.063L-45 44.583l5.625-8.03-3.75 1.062L-40 33.333l3.125-4.28-3.75 1.062L-35 22.083l5.625 8.032-3.75-1.063 6.25 8.563-3.75-1.063L-25 44.583l5.625-8.03-3.75 1.062L-20 33.333l3.125-4.28-3.75 1.062L-15 22.083l5.625 8.032-3.75-1.063 6.25 8.563-3.75-1.063L-5 44.583l5.625-8.03-3.75 1.062L0 33.333l3.125-4.28-3.75 1.062L5 22.083l5.625 8.032-3.75-1.063 6.25 8.563-3.75-1.063L15 44.583l5.625-8.03-3.75 1.062L20 33.333l3.125-4.28-3.75 1.062L25 22.083l5.625 8.032-3.75-1.063 6.25 8.563-3.75-1.063L35 44.583l5.625-8.03-3.75 1.062L40 33.333l3.125-4.28-3.75 1.062L45 22.083l5.625 8.032-3.75-1.063 6.25 8.563-3.75-1.063L55 44.583l5.625-8.03-3.75 1.062L60 33.333l3.125-4.28-3.75 1.062L65 22.083l5.625 8.032-3.75-1.063 6.25 8.563-3.75-1.063L75 44.583l5.625-8.03-3.75 1.062L80 33.333l3.125-4.28-3.75 1.062L85 22.083l5.625 8.032-3.75-1.063 6.25 8.563-3.75-1.063L95 44.583l5.625-8.03-3.75 1.062L100 33.333l3.125-4.28-3.75 1.062L105 22.083l5.625 8.032-3.75-1.063 6.25 8.563-3.75-1.063L115 44.583l5.625-8.03-3.75 1.062L120 33.333l3.125-4.28-3.75 1.062L125 22.083l5.625 8.032-3.75-1.063 6.25 8.563-3.75-1.063L135 44.583l5.625-8.03-3.75 1.062L140 33.333l3.125-4.28-3.75 1.062L145 22.083l5.625 8.032-3.75-1.063 6.25 8.563-3.75-1.063L155 44.583l5.625-8.03-3.75 1.062L160 33.333l3.125-4.28-3.75 1.062L165 22.083l5.625 8.032-3.75-1.063 6.25 8.563-3.75-1.063L175 44.583l5.625-8.03-3.75 1.062L180 33.333h820V-1000h-2000V33.333h940z" fill-rule="evenodd" fill="#fff"/><path d="m-60 33.333 3.125-4.28-3.75 1.062L-55 22.083l5.625 8.032-3.75-1.063 6.25 8.563-3.75-1.063L-45 44.583l5.625-8.03-3.75 1.062L-40 33.333l3.125-4.28-3.75 1.062L-35 22.083l5.625 8.032-3.75-1.063 6.25 8.563-3.75-1.063L-25 44.583l5.625-8.03-3.75 1.062L-20 33.333l3.125-4.28-3.75 1.062L-15 22.083l5.625 8.032-3.75-1.063 6.25 8.563-3.75-1.063L-5 44.583l5.625-8.03-3.75 1.062L0 33.333l3.125-4.28-3.75 1.062L5 22.083l5.625 8.032-3.75-1.063 6.25 8.563-3.75-1.063L15 44.583l5.625-8.03-3.75 1.062L20 33.333l3.125-4.28-3.75 1.062L25 22.083l5.625 8.032-3.75-1.063 6.25 8.563-3.75-1.063L35 44.583l5.625-8.03-3.75 1.062L40 33.333l3.125-4.28-3.75 1.062L45 22.083l5.625 8.032-3.75-1.063 6.25 8.563-3.75-1.063L55 44.583l5.625-8.03-3.75 1.062L60 33.333l3.125-4.28-3.75 1.062L65 22.083l5.625 8.032-3.75-1.063 6.25 8.563-3.75-1.063L75 44.583l5.625-8.03-3.75 1.062L80 33.333l3.125-4.28-3.75 1.062L85 22.083l5.625 8.032-3.75-1.063 6.25 8.563-3.75-1.063L95 44.583l5.625-8.03-3.75 1.062L100 33.333l3.125-4.28-3.75 1.062L105 22.083l5.625 8.032-3.75-1.063 6.25 8.563-3.75-1.063L115 44.583l5.625-8.03-3.75 1.062L120 33.333l3.125-4.28-3.75 1.062L125 22.083l5.625 8.032-3.75-1.063 6.25 8.563-3.75-1.063L135 44.583l5.625-8.03-3.75 1.062L140 33.333l3.125-4.28-3.75 1.062L145 22.083l5.625 8.032-3.75-1.063 6.25 8.563-3.75-1.063L155 44.583l5.625-8.03-3.75 1.062L160 33.333l3.125-4.28-3.75 1.062L165 22.083l5.625 8.032-3.75-1.063 6.25 8.563-3.75-1.063L175 44.583l5.625-8.03-3.75 1.062L180 33.333h820V-1000h-2000V33.333h940z" fill="none" stroke-width=".1" stroke="#fff"/></mask></defs><g mask="url(#b)"><path fill="#f6f6f6" style="cursor:pointer" d="M-1000-1000h2000v2000h-2000z"/></g><defs><mask id="c"><path clip-rule="evenodd" d="m-60 33.333 3.125-4.28-3.75 1.062L-55 22.083l5.625 8.032-3.75-1.063 6.25 8.563-3.75-1.063L-45 44.583l5.625-8.03-3.75 1.062L-40 33.333l3.125-4.28-3.75 1.062L-35 22.083l5.625 8.032-3.75-1.063 6.25 8.563-3.75-1.063L-25 44.583l5.625-8.03-3.75 1.062L-20 33.333l3.125-4.28-3.75 1.062L-15 22.083l5.625 8.032-3.75-1.063 6.25 8.563-3.75-1.063L-5 44.583l5.625-8.03-3.75 1.062L0 33.333l3.125-4.28-3.75 1.062L5 22.083l5.625 8.032-3.75-1.063 6.25 8.563-3.75-1.063L15 44.583l5.625-8.03-3.75 1.062L20 33.333l3.125-4.28-3.75 1.062L25 22.083l5.625 8.032-3.75-1.063 6.25 8.563-3.75-1.063L35 44.583l5.625-8.03-3.75 1.062L40 33.333l3.125-4.28-3.75 1.062L45 22.083l5.625 8.032-3.75-1.063 6.25 8.563-3.75-1.063L55 44.583l5.625-8.03-3.75 1.062L60 33.333l3.125-4.28-3.75 1.062L65 22.083l5.625 8.032-3.75-1.063 6.25 8.563-3.75-1.063L75 44.583l5.625-8.03-3.75 1.062L80 33.333l3.125-4.28-3.75 1.062L85 22.083l5.625 8.032-3.75-1.063 6.25 8.563-3.75-1.063L95 44.583l5.625-8.03-3.75 1.062L100 33.333l3.125-4.28-3.75 1.062L105 22.083l5.625 8.032-3.75-1.063 6.25 8.563-3.75-1.063L115 44.583l5.625-8.03-3.75 1.062L120 33.333l3.125-4.28-3.75 1.062L125 22.083l5.625 8.032-3.75-1.063 6.25 8.563-3.75-1.063L135 44.583l5.625-8.03-3.75 1.062L140 33.333l3.125-4.28-3.75 1.062L145 22.083l5.625 8.032-3.75-1.063 6.25 8.563-3.75-1.063L155 44.583l5.625-8.03-3.75 1.062L160 33.333l3.125-4.28-3.75 1.062L165 22.083l5.625 8.032-3.75-1.063 6.25 8.563-3.75-1.063L175 44.583l5.625-8.03-3.75 1.062L180 33.333h820V1000h-2000V33.333h940z" fill-rule="evenodd" fill="#fff"/></mask></defs><g mask="url(#c)"><path fill="#f2bc51" style="cursor:pointer" d="M-1000-1000h2000v2000h-2000z"/></g><path d="m-60 33.333 3.125-4.28-3.75 1.062L-55 22.083l5.625 8.032-3.75-1.063 6.25 8.563-3.75-1.063L-45 44.583l5.625-8.03-3.75 1.062L-40 33.333l3.125-4.28-3.75 1.062L-35 22.083l5.625 8.032-3.75-1.063 6.25 8.563-3.75-1.063L-25 44.583l5.625-8.03-3.75 1.062L-20 33.333l3.125-4.28-3.75 1.062L-15 22.083l5.625 8.032-3.75-1.063 6.25 8.563-3.75-1.063L-5 44.583l5.625-8.03-3.75 1.062L0 33.333l3.125-4.28-3.75 1.062L5 22.083l5.625 8.032-3.75-1.063 6.25 8.563-3.75-1.063L15 44.583l5.625-8.03-3.75 1.062L20 33.333l3.125-4.28-3.75 1.062L25 22.083l5.625 8.032-3.75-1.063 6.25 8.563-3.75-1.063L35 44.583l5.625-8.03-3.75 1.062L40 33.333l3.125-4.28-3.75 1.062L45 22.083l5.625 8.032-3.75-1.063 6.25 8.563-3.75-1.063L55 44.583l5.625-8.03-3.75 1.062L60 33.333l3.125-4.28-3.75 1.062L65 22.083l5.625 8.032-3.75-1.063 6.25 8.563-3.75-1.063L75 44.583l5.625-8.03-3.75 1.062L80 33.333l3.125-4.28-3.75 1.062L85 22.083l5.625 8.032-3.75-1.063 6.25 8.563-3.75-1.063L95 44.583l5.625-8.03-3.75 1.062L100 33.333l3.125-4.28-3.75 1.062L105 22.083l5.625 8.032-3.75-1.063 6.25 8.563-3.75-1.063L115 44.583l5.625-8.03-3.75 1.062L120 33.333l3.125-4.28-3.75 1.062L125 22.083l5.625 8.032-3.75-1.063 6.25 8.563-3.75-1.063L135 44.583l5.625-8.03-3.75 1.062L140 33.333l3.125-4.28-3.75 1.062L145 22.083l5.625 8.032-3.75-1.063 6.25 8.563-3.75-1.063L155 44.583l5.625-8.03-3.75 1.062L160 33.333l3.125-4.28-3.75 1.062L165 22.083l5.625 8.032-3.75-1.063 6.25 8.563-3.75-1.063L175 44.583l5.625-8.03-3.75 1.062L180 33.333" fill="none" stroke-linecap="round" stroke-linejoin="round" stroke-width=".5" stroke="#333"/></g><path d="M0 0h100v66.667H0z" fill="none" stroke-linecap="round" stroke-linejoin="round" stroke-width=".5" stroke="#333"/></g></svg>