<?xml version="1.0" encoding="UTF-8" standalone="no"?>
<svg xmlns="http://www.w3.org/2000/svg" preserveAspectRatio="xMidYMin slice" viewBox="-10 -10 120 86.667"><defs><mask id="a"><path fill="#fff" fill-rule="evenodd" d="M0 0h100v66.667H0z" clip-rule="evenodd"/></mask></defs><g mask="url(#a)"><path fill="#f0f0f0" fill-rule="evenodd" d="M0 0h100v66.667H0z"/><defs><mask id="b"><path fill="#fff" fill-rule="evenodd" stroke="#fff" stroke-width=".1" d="m-40 33.333-2.75-2.675.882-.493.118-.207.025-.188-.775-2.862 2.258.576h.138l.167-.19.437-1.236 1.763 2.27.3.005.164-.29-.852-5.26 1.364.945.198.03.178-.164 1.385-3.26 1.385 3.26.177.164.2-.03 1.363-.945-.852 5.26.164.29.3-.006 1.763-2.269.437 1.235.167.19.138.001 2.258-.576-.775 2.862.025.188.118.207.882.493-2.75 2.675-2.75 2.675.882.494.118.206.025.189-.775 2.861 2.258-.576.138.001.167.19.437 1.235 1.763-2.269.3-.006.164.29-.852 5.26 1.364-.944.198-.03.178.163L-25 46.333l1.385-3.26.177-.165.2.03 1.363.945-.852-5.26.164-.29.3.006 1.763 2.27.437-1.236.167-.19h.138l2.258.575-.775-2.861.025-.189.118-.206.882-.494-2.75-2.675-2.75-2.675.882-.493.118-.207.025-.188-.775-2.862 2.258.576h.138l.167-.19.437-1.236 1.763 2.27.3.005.164-.29-.852-5.26 1.364.945.198.03.178-.164 1.385-3.26 1.385 3.26.177.164.2-.03 1.363-.945-.852 5.26.164.29.3-.006 1.763-2.269.437 1.235.167.19.138.001 2.258-.576-.775 2.862.025.188.118.207.882.493-2.75 2.675-2.75 2.675.882.494.118.206.025.189-.775 2.861 2.258-.576.138.001.167.19.437 1.235 1.763-2.269.3-.006.164.29-.852 5.26 1.364-.944.198-.03.178.163L-5 46.333l1.385-3.26.177-.165.2.03 1.363.945-.852-5.26.164-.29.3.006L-.5 40.61l.437-1.236.167-.19h.138l2.258.575-.775-2.861.025-.189.118-.206.882-.494L0 33.333l-2.75-2.675.882-.493.118-.207.025-.188-.775-2.862 2.257.576h.139l.167-.19.437-1.236 1.763 2.27.3.005.164-.29-.852-5.26 1.364.945.198.03.178-.164L5 20.334l1.384 3.26.178.164.2-.03 1.363-.945-.852 5.26.164.29.3-.006L9.5 26.058l.437 1.235.167.19.138.001 2.258-.576-.775 2.862.025.188.118.207.882.493L10 33.333l-2.75 2.675.882.494.118.206.025.189-.775 2.861 2.257-.576.139.001.167.19.437 1.235 1.763-2.269.3-.006.164.29-.852 5.26 1.364-.944.198-.03.178.163L15 46.333l1.384-3.26.178-.165.2.03 1.363.945-.852-5.26.164-.29.3.006 1.763 2.27.437-1.236.167-.19h.138l2.258.575-.775-2.861.025-.189.118-.206.882-.494L20 33.333l-2.75-2.675.882-.493.118-.207.025-.188-.775-2.862 2.257.576h.139l.167-.19.437-1.236 1.763 2.27.3.005.164-.29-.852-5.26 1.364.945.198.03.178-.164L25 20.334l1.384 3.26.178.164.2-.03 1.363-.945-.852 5.26.164.29.3-.006 1.763-2.269.437 1.235.167.19.138.001 2.258-.576-.775 2.862.025.188.118.207.882.493L30 33.333l-2.75 2.675.882.494.118.206.025.189-.775 2.861 2.257-.576.139.001.167.19.437 1.235 1.763-2.269.3-.006.164.29-.852 5.26 1.364-.944.198-.03.178.163L35 46.333l1.384-3.26.178-.165.2.03 1.363.945-.852-5.26.164-.29.3.006 1.763 2.27.437-1.236.167-.19h.138l2.258.575-.775-2.861.025-.189.118-.206.882-.494L40 33.333l-2.75-2.675.882-.493.118-.207.025-.188-.775-2.862 2.257.576h.139l.167-.19.437-1.236 1.763 2.27.3.005.164-.29-.852-5.26 1.364.945.198.03.178-.164L45 20.334l1.384 3.26.178.164.2-.03 1.363-.945-.852 5.26.164.29.3-.006 1.763-2.269.437 1.235.167.19.138.001 2.258-.576-.775 2.862.025.188.118.207.882.493L50 33.333l-2.75 2.675.882.494.118.206.025.189-.775 2.861 2.257-.576.139.001.167.19.437 1.235 1.763-2.269.3-.006.164.29-.852 5.26 1.364-.944.198-.03.178.163L55 46.333l1.384-3.26.178-.165.2.03 1.363.945-.852-5.26.164-.29.3.006 1.763 2.27.437-1.236.167-.19h.138l2.258.575-.775-2.861.025-.189.118-.206.882-.494L60 33.333l-2.75-2.675.882-.493.118-.207.025-.188-.775-2.862 2.257.576h.139l.167-.19.437-1.236 1.763 2.27.3.005.164-.29-.852-5.26 1.363.945.2.03.177-.164L65 20.334l1.384 3.26.178.164.2-.03 1.363-.945-.852 5.26.164.29.3-.006 1.763-2.269.437 1.235.167.19.138.001 2.258-.576-.775 2.862.025.188.118.207.882.493L70 33.333l-2.75 2.675.881.494.119.206.025.189-.775 2.861 2.257-.576.139.001.167.19.437 1.235 1.763-2.269.3-.006.164.29-.852 5.26 1.363-.944.2-.03.177.163L75 46.333l1.384-3.26.178-.165.2.03 1.363.945-.852-5.26.164-.29.3.006 1.763 2.27.437-1.236.167-.19h.138l2.258.575-.775-2.861.025-.189.118-.206.882-.494L80 33.333l-2.75-2.675.881-.493.119-.207.025-.188-.775-2.862 2.257.576h.139l.167-.19.437-1.236 1.763 2.27.3.005.164-.29-.852-5.26 1.363.945.2.03.177-.164L85 20.334l1.384 3.26.178.164.2-.03 1.363-.945-.852 5.26.164.29.3-.006 1.763-2.269.437 1.235.167.19.138.001 2.258-.576-.775 2.862.025.188.118.207.882.493L90 33.333l-2.75 2.675.881.494.119.206.025.189-.775 2.861 2.257-.576.139.001.167.19.437 1.235 1.763-2.269.3-.006.164.29-.852 5.26 1.363-.944.2-.03.177.163L95 46.333l1.384-3.26.178-.165.199.03 1.364.945-.852-5.26.164-.29.3.006 1.763 2.27.437-1.236.167-.19h.138l2.258.575-.775-2.861.025-.189.118-.206.882-.494-2.75-2.675-2.75-2.675.881-.493.119-.207.025-.188-.775-2.862 2.257.576h.139l.167-.19.437-1.236 1.763 2.27.3.005.164-.29-.852-5.26 1.363.945.2.03.177-.164 1.385-3.26 1.384 3.26.178.164.199-.03 1.364-.945-.852 5.26.164.29.3-.006 1.763-2.269.437 1.235.167.19.138.001 2.258-.576-.775 2.862.025.188.118.207.882.493-2.75 2.675-2.75 2.675.881.494.119.206.025.189-.775 2.861 2.257-.576.139.001.167.19.437 1.235 1.763-2.269.3-.006.164.29-.852 5.26 1.363-.944.2-.03.177.163L115 46.333l1.384-3.26.178-.165.199.03 1.364.945-.852-5.26.164-.29.3.006 1.763 2.27.437-1.236.167-.19h.138l2.258.575-.775-2.861.025-.189.118-.206.882-.494-2.75-2.675-2.75-2.675.881-.493.119-.207.025-.188-.775-2.862 2.257.576h.139l.167-.19.437-1.236 1.763 2.27.3.005.164-.29-.852-5.26 1.363.945.2.03.177-.164 1.385-3.26 1.384 3.26.178.164.199-.03 1.364-.945-.852 5.26.164.29.3-.006 1.763-2.269.437 1.235.167.19.138.001 2.258-.576-.775 2.862.025.188.118.207.882.493-2.75 2.675-2.75 2.675.881.494.119.206.024.189-.774 2.861 2.257-.576.138.001.168.19.437 1.235 1.763-2.269.3-.006.164.29-.852 5.26 1.363-.944.2-.03.177.163L135 46.333l1.384-3.26.178-.165.199.03 1.364.945-.852-5.26.164-.29.3.006 1.763 2.27.436-1.236.168-.19h.138l2.258.575-.775-2.861.025-.189.118-.206.882-.494-2.75-2.675-2.75-2.675.881-.493.119-.207.024-.188-.774-2.862 2.257.576h.138l.168-.19.437-1.236 1.763 2.27.3.005.164-.29-.852-5.26 1.363.945.2.03.177-.164 1.385-3.26 1.384 3.26.178.164.199-.03 1.364-.945-.852 5.26.164.29.3-.006 1.763-2.269.436 1.235.168.19.138.001 2.258-.576-.775 2.862.025.188.118.207.882.493-2.75 2.675-2.75 2.675.881.494.119.206.024.189-.774 2.861 2.257-.576.138.001.168.19.437 1.235 1.763-2.269.3-.006.164.29-.852 5.26 1.363-.944.2-.03.177.163L155 46.333l1.384-3.26.178-.165.199.03 1.364.945-.852-5.26.164-.29.3.006 1.763 2.27.436-1.236.168-.19h.138l2.258.575-.775-2.861.025-.189.118-.206.882-.494-2.75-2.675-2.75-2.675.881-.493.119-.207.024-.188-.774-2.862 2.257.576h.138l.168-.19.437-1.236 1.763 2.27.3.005.164-.29-.852-5.26 1.363.945.2.03.177-.164 1.385-3.26 1.384 3.26.178.164.199-.03 1.364-.945-.852 5.26.164.29.3-.006 1.763-2.269.436 1.235.168.19.138.001 2.258-.576-.775 2.862.025.188.118.207.882.493-2.75 2.675-2.75 2.675.881.494.119.206.024.189-.774 2.861 2.257-.576.138.001.168.19.437 1.235 1.763-2.269.3-.006.164.29-.852 5.26 1.363-.944.2-.03.177.163L175 46.333l1.384-3.26.178-.165.199.03 1.364.945-.852-5.26.164-.29.3.006 1.763 2.27.436-1.236.168-.19h.138l2.258.575-.775-2.861.025-.189.118-.206.882-.494-2.75-2.675 459.97 92.587a600 600 0 1 0-1179.94 0z" clip-rule="evenodd"/></mask></defs><g mask="url(#b)"><path fill="#f6f6f6" d="M-1000-1000h2000v2000h-2000z"/></g><defs><mask id="c"><path fill="#fff" fill-rule="evenodd" d="m-40 33.333-2.75-2.675.882-.493.118-.207.025-.188-.775-2.862 2.258.576h.138l.167-.19.437-1.236 1.763 2.27.3.005.164-.29-.852-5.26 1.364.945.198.03.178-.164 1.385-3.26 1.385 3.26.177.164.2-.03 1.363-.945-.852 5.26.164.29.3-.006 1.763-2.269.437 1.235.167.19.138.001 2.258-.576-.775 2.862.025.188.118.207.882.493-2.75 2.675-2.75 2.675.882.494.118.206.025.189-.775 2.861 2.258-.576.138.001.167.19.437 1.235 1.763-2.269.3-.006.164.29-.852 5.26 1.364-.944.198-.03.178.163L-25 46.333l1.385-3.26.177-.165.2.03 1.363.945-.852-5.26.164-.29.3.006 1.763 2.27.437-1.236.167-.19h.138l2.258.575-.775-2.861.025-.189.118-.206.882-.494-2.75-2.675-2.75-2.675.882-.493.118-.207.025-.188-.775-2.862 2.258.576h.138l.167-.19.437-1.236 1.763 2.27.3.005.164-.29-.852-5.26 1.364.945.198.03.178-.164 1.385-3.26 1.385 3.26.177.164.2-.03 1.363-.945-.852 5.26.164.29.3-.006 1.763-2.269.437 1.235.167.19.138.001 2.258-.576-.775 2.862.025.188.118.207.882.493-2.75 2.675-2.75 2.675.882.494.118.206.025.189-.775 2.861 2.258-.576.138.001.167.19.437 1.235 1.763-2.269.3-.006.164.29-.852 5.26 1.364-.944.198-.03.178.163L-5 46.333l1.385-3.26.177-.165.2.03 1.363.945-.852-5.26.164-.29.3.006L-.5 40.61l.437-1.236.167-.19h.138l2.258.575-.775-2.861.025-.189.118-.206.882-.494L0 33.333l-2.75-2.675.882-.493.118-.207.025-.188-.775-2.862 2.257.576h.139l.167-.19.437-1.236 1.763 2.27.3.005.164-.29-.852-5.26 1.364.945.198.03.178-.164L5 20.334l1.384 3.26.178.164.2-.03 1.363-.945-.852 5.26.164.29.3-.006L9.5 26.058l.437 1.235.167.19.138.001 2.258-.576-.775 2.862.025.188.118.207.882.493L10 33.333l-2.75 2.675.882.494.118.206.025.189-.775 2.861 2.257-.576.139.001.167.19.437 1.235 1.763-2.269.3-.006.164.29-.852 5.26 1.364-.944.198-.03.178.163L15 46.333l1.384-3.26.178-.165.2.03 1.363.945-.852-5.26.164-.29.3.006 1.763 2.27.437-1.236.167-.19h.138l2.258.575-.775-2.861.025-.189.118-.206.882-.494L20 33.333l-2.75-2.675.882-.493.118-.207.025-.188-.775-2.862 2.257.576h.139l.167-.19.437-1.236 1.763 2.27.3.005.164-.29-.852-5.26 1.364.945.198.03.178-.164L25 20.334l1.384 3.26.178.164.2-.03 1.363-.945-.852 5.26.164.29.3-.006 1.763-2.269.437 1.235.167.19.138.001 2.258-.576-.775 2.862.025.188.118.207.882.493L30 33.333l-2.75 2.675.882.494.118.206.025.189-.775 2.861 2.257-.576.139.001.167.19.437 1.235 1.763-2.269.3-.006.164.29-.852 5.26 1.364-.944.198-.03.178.163L35 46.333l1.384-3.26.178-.165.2.03 1.363.945-.852-5.26.164-.29.3.006 1.763 2.27.437-1.236.167-.19h.138l2.258.575-.775-2.861.025-.189.118-.206.882-.494L40 33.333l-2.75-2.675.882-.493.118-.207.025-.188-.775-2.862 2.257.576h.139l.167-.19.437-1.236 1.763 2.27.3.005.164-.29-.852-5.26 1.364.945.198.03.178-.164L45 20.334l1.384 3.26.178.164.2-.03 1.363-.945-.852 5.26.164.29.3-.006 1.763-2.269.437 1.235.167.19.138.001 2.258-.576-.775 2.862.025.188.118.207.882.493L50 33.333l-2.75 2.675.882.494.118.206.025.189-.775 2.861 2.257-.576.139.001.167.19.437 1.235 1.763-2.269.3-.006.164.29-.852 5.26 1.364-.944.198-.03.178.163L55 46.333l1.384-3.26.178-.165.2.03 1.363.945-.852-5.26.164-.29.3.006 1.763 2.27.437-1.236.167-.19h.138l2.258.575-.775-2.861.025-.189.118-.206.882-.494L60 33.333l-2.75-2.675.882-.493.118-.207.025-.188-.775-2.862 2.257.576h.139l.167-.19.437-1.236 1.763 2.27.3.005.164-.29-.852-5.26 1.363.945.2.03.177-.164L65 20.334l1.384 3.26.178.164.2-.03 1.363-.945-.852 5.26.164.29.3-.006 1.763-2.269.437 1.235.167.19.138.001 2.258-.576-.775 2.862.025.188.118.207.882.493L70 33.333l-2.75 2.675.881.494.119.206.025.189-.775 2.861 2.257-.576.139.001.167.19.437 1.235 1.763-2.269.3-.006.164.29-.852 5.26 1.363-.944.2-.03.177.163L75 46.333l1.384-3.26.178-.165.2.03 1.363.945-.852-5.26.164-.29.3.006 1.763 2.27.437-1.236.167-.19h.138l2.258.575-.775-2.861.025-.189.118-.206.882-.494L80 33.333l-2.75-2.675.881-.493.119-.207.025-.188-.775-2.862 2.257.576h.139l.167-.19.437-1.236 1.763 2.27.3.005.164-.29-.852-5.26 1.363.945.2.03.177-.164L85 20.334l1.384 3.26.178.164.2-.03 1.363-.945-.852 5.26.164.29.3-.006 1.763-2.269.437 1.235.167.19.138.001 2.258-.576-.775 2.862.025.188.118.207.882.493L90 33.333l-2.75 2.675.881.494.119.206.025.189-.775 2.861 2.257-.576.139.001.167.19.437 1.235 1.763-2.269.3-.006.164.29-.852 5.26 1.363-.944.2-.03.177.163L95 46.333l1.384-3.26.178-.165.199.03 1.364.945-.852-5.26.164-.29.3.006 1.763 2.27.437-1.236.167-.19h.138l2.258.575-.775-2.861.025-.189.118-.206.882-.494-2.75-2.675-2.75-2.675.881-.493.119-.207.025-.188-.775-2.862 2.257.576h.139l.167-.19.437-1.236 1.763 2.27.3.005.164-.29-.852-5.26 1.363.945.2.03.177-.164 1.385-3.26 1.384 3.26.178.164.199-.03 1.364-.945-.852 5.26.164.29.3-.006 1.763-2.269.437 1.235.167.19.138.001 2.258-.576-.775 2.862.025.188.118.207.882.493-2.75 2.675-2.75 2.675.881.494.119.206.025.189-.775 2.861 2.257-.576.139.001.167.19.437 1.235 1.763-2.269.3-.006.164.29-.852 5.26 1.363-.944.2-.03.177.163L115 46.333l1.384-3.26.178-.165.199.03 1.364.945-.852-5.26.164-.29.3.006 1.763 2.27.437-1.236.167-.19h.138l2.258.575-.775-2.861.025-.189.118-.206.882-.494-2.75-2.675-2.75-2.675.881-.493.119-.207.025-.188-.775-2.862 2.257.576h.139l.167-.19.437-1.236 1.763 2.27.3.005.164-.29-.852-5.26 1.363.945.2.03.177-.164 1.385-3.26 1.384 3.26.178.164.199-.03 1.364-.945-.852 5.26.164.29.3-.006 1.763-2.269.437 1.235.167.19.138.001 2.258-.576-.775 2.862.025.188.118.207.882.493-2.75 2.675-2.75 2.675.881.494.119.206.024.189-.774 2.861 2.257-.576.138.001.168.19.437 1.235 1.763-2.269.3-.006.164.29-.852 5.26 1.363-.944.2-.03.177.163L135 46.333l1.384-3.26.178-.165.199.03 1.364.945-.852-5.26.164-.29.3.006 1.763 2.27.436-1.236.168-.19h.138l2.258.575-.775-2.861.025-.189.118-.206.882-.494-2.75-2.675-2.75-2.675.881-.493.119-.207.024-.188-.774-2.862 2.257.576h.138l.168-.19.437-1.236 1.763 2.27.3.005.164-.29-.852-5.26 1.363.945.2.03.177-.164 1.385-3.26 1.384 3.26.178.164.199-.03 1.364-.945-.852 5.26.164.29.3-.006 1.763-2.269.436 1.235.168.19.138.001 2.258-.576-.775 2.862.025.188.118.207.882.493-2.75 2.675-2.75 2.675.881.494.119.206.024.189-.774 2.861 2.257-.576.138.001.168.19.437 1.235 1.763-2.269.3-.006.164.29-.852 5.26 1.363-.944.2-.03.177.163L155 46.333l1.384-3.26.178-.165.199.03 1.364.945-.852-5.26.164-.29.3.006 1.763 2.27.436-1.236.168-.19h.138l2.258.575-.775-2.861.025-.189.118-.206.882-.494-2.75-2.675-2.75-2.675.881-.493.119-.207.024-.188-.774-2.862 2.257.576h.138l.168-.19.437-1.236 1.763 2.27.3.005.164-.29-.852-5.26 1.363.945.2.03.177-.164 1.385-3.26 1.384 3.26.178.164.199-.03 1.364-.945-.852 5.26.164.29.3-.006 1.763-2.269.436 1.235.168.19.138.001 2.258-.576-.775 2.862.025.188.118.207.882.493-2.75 2.675-2.75 2.675.881.494.119.206.024.189-.774 2.861 2.257-.576.138.001.168.19.437 1.235 1.763-2.269.3-.006.164.29-.852 5.26 1.363-.944.2-.03.177.163L175 46.333l1.384-3.26.178-.165.199.03 1.364.945-.852-5.26.164-.29.3.006 1.763 2.27.436-1.236.168-.19h.138l2.258.575-.775-2.861.025-.189.118-.206.882-.494-2.75-2.675 459.97-92.587a600 600 0 1 1-1179.94 0z" clip-rule="evenodd"/></mask></defs><g mask="url(#c)"><path fill="#0c6793" d="M-1000-1000h2000v2000h-2000z"/></g><path fill="none" stroke="#333" stroke-linecap="round" stroke-linejoin="round" stroke-width=".5" d="m-40 33.333-2.75-2.675.882-.493.118-.207.025-.188-.775-2.862 2.258.576h.138l.167-.19.437-1.236 1.763 2.27.3.005.164-.29-.852-5.26 1.364.945.198.03.178-.164 1.385-3.26 1.385 3.26.177.164.2-.03 1.363-.945-.852 5.26.164.29.3-.006 1.763-2.269.437 1.235.167.19.138.001 2.258-.576-.775 2.862.025.188.118.207.882.493-2.75 2.675-2.75 2.675.882.494.118.206.025.189-.775 2.861 2.258-.576.138.001.167.19.437 1.235 1.763-2.269.3-.006.164.29-.852 5.26 1.364-.944.198-.03.178.163L-25 46.333l1.385-3.26.177-.165.2.03 1.363.945-.852-5.26.164-.29.3.006 1.763 2.27.437-1.236.167-.19h.138l2.258.575-.775-2.861.025-.189.118-.206.882-.494-2.75-2.675-2.75-2.675.882-.493.118-.207.025-.188-.775-2.862 2.258.576h.138l.167-.19.437-1.236 1.763 2.27.3.005.164-.29-.852-5.26 1.364.945.198.03.178-.164 1.385-3.26 1.385 3.26.177.164.2-.03 1.363-.945-.852 5.26.164.29.3-.006 1.763-2.269.437 1.235.167.19.138.001 2.258-.576-.775 2.862.025.188.118.207.882.493-2.75 2.675-2.75 2.675.882.494.118.206.025.189-.775 2.861 2.258-.576.138.001.167.19.437 1.235 1.763-2.269.3-.006.164.29-.852 5.26 1.364-.944.198-.03.178.163L-5 46.333l1.385-3.26.177-.165.2.03 1.363.945-.852-5.26.164-.29.3.006L-.5 40.61l.437-1.236.167-.19h.138l2.258.575-.775-2.861.025-.189.118-.206.882-.494L0 33.333l-2.75-2.675.882-.493.118-.207.025-.188-.775-2.862 2.257.576h.139l.167-.19.437-1.236 1.763 2.27.3.005.164-.29-.852-5.26 1.364.945.198.03.178-.164L5 20.334l1.384 3.26.178.164.2-.03 1.363-.945-.852 5.26.164.29.3-.006L9.5 26.058l.437 1.235.167.19.138.001 2.258-.576-.775 2.862.025.188.118.207.882.493L10 33.333l-2.75 2.675.882.494.118.206.025.189-.775 2.861 2.257-.576.139.001.167.19.437 1.235 1.763-2.269.3-.006.164.29-.852 5.26 1.364-.944.198-.03.178.163L15 46.333l1.384-3.26.178-.165.2.03 1.363.945-.852-5.26.164-.29.3.006 1.763 2.27.437-1.236.167-.19h.138l2.258.575-.775-2.861.025-.189.118-.206.882-.494L20 33.333l-2.75-2.675.882-.493.118-.207.025-.188-.775-2.862 2.257.576h.139l.167-.19.437-1.236 1.763 2.27.3.005.164-.29-.852-5.26 1.364.945.198.03.178-.164L25 20.334l1.384 3.26.178.164.2-.03 1.363-.945-.852 5.26.164.29.3-.006 1.763-2.269.437 1.235.167.19.138.001 2.258-.576-.775 2.862.025.188.118.207.882.493L30 33.333l-2.75 2.675.882.494.118.206.025.189-.775 2.861 2.257-.576.139.001.167.19.437 1.235 1.763-2.269.3-.006.164.29-.852 5.26 1.364-.944.198-.03.178.163L35 46.333l1.384-3.26.178-.165.2.03 1.363.945-.852-5.26.164-.29.3.006 1.763 2.27.437-1.236.167-.19h.138l2.258.575-.775-2.861.025-.189.118-.206.882-.494L40 33.333l-2.75-2.675.882-.493.118-.207.025-.188-.775-2.862 2.257.576h.139l.167-.19.437-1.236 1.763 2.27.3.005.164-.29-.852-5.26 1.364.945.198.03.178-.164L45 20.334l1.384 3.26.178.164.2-.03 1.363-.945-.852 5.26.164.29.3-.006 1.763-2.269.437 1.235.167.19.138.001 2.258-.576-.775 2.862.025.188.118.207.882.493L50 33.333l-2.75 2.675.882.494.118.206.025.189-.775 2.861 2.257-.576.139.001.167.19.437 1.235 1.763-2.269.3-.006.164.29-.852 5.26 1.364-.944.198-.03.178.163L55 46.333l1.384-3.26.178-.165.2.03 1.363.945-.852-5.26.164-.29.3.006 1.763 2.27.437-1.236.167-.19h.138l2.258.575-.775-2.861.025-.189.118-.206.882-.494L60 33.333l-2.75-2.675.882-.493.118-.207.025-.188-.775-2.862 2.257.576h.139l.167-.19.437-1.236 1.763 2.27.3.005.164-.29-.852-5.26 1.363.945.2.03.177-.164L65 20.334l1.384 3.26.178.164.2-.03 1.363-.945-.852 5.26.164.29.3-.006 1.763-2.269.437 1.235.167.19.138.001 2.258-.576-.775 2.862.025.188.118.207.882.493L70 33.333l-2.75 2.675.881.494.119.206.025.189-.775 2.861 2.257-.576.139.001.167.19.437 1.235 1.763-2.269.3-.006.164.29-.852 5.26 1.363-.944.2-.03.177.163L75 46.333l1.384-3.26.178-.165.2.03 1.363.945-.852-5.26.164-.29.3.006 1.763 2.27.437-1.236.167-.19h.138l2.258.575-.775-2.861.025-.189.118-.206.882-.494L80 33.333l-2.75-2.675.881-.493.119-.207.025-.188-.775-2.862 2.257.576h.139l.167-.19.437-1.236 1.763 2.27.3.005.164-.29-.852-5.26 1.363.945.2.03.177-.164L85 20.334l1.384 3.26.178.164.2-.03 1.363-.945-.852 5.26.164.29.3-.006 1.763-2.269.437 1.235.167.19.138.001 2.258-.576-.775 2.862.025.188.118.207.882.493L90 33.333l-2.75 2.675.881.494.119.206.025.189-.775 2.861 2.257-.576.139.001.167.19.437 1.235 1.763-2.269.3-.006.164.29-.852 5.26 1.363-.944.2-.03.177.163L95 46.333l1.384-3.26.178-.165.199.03 1.364.945-.852-5.26.164-.29.3.006 1.763 2.27.437-1.236.167-.19h.138l2.258.575-.775-2.861.025-.189.118-.206.882-.494-2.75-2.675-2.75-2.675.881-.493.119-.207.025-.188-.775-2.862 2.257.576h.139l.167-.19.437-1.236 1.763 2.27.3.005.164-.29-.852-5.26 1.363.945.2.03.177-.164 1.385-3.26 1.384 3.26.178.164.199-.03 1.364-.945-.852 5.26.164.29.3-.006 1.763-2.269.437 1.235.167.19.138.001 2.258-.576-.775 2.862.025.188.118.207.882.493-2.75 2.675-2.75 2.675.881.494.119.206.025.189-.775 2.861 2.257-.576.139.001.167.19.437 1.235 1.763-2.269.3-.006.164.29-.852 5.26 1.363-.944.2-.03.177.163L115 46.333l1.384-3.26.178-.165.199.03 1.364.945-.852-5.26.164-.29.3.006 1.763 2.27.437-1.236.167-.19h.138l2.258.575-.775-2.861.025-.189.118-.206.882-.494-2.75-2.675-2.75-2.675.881-.493.119-.207.025-.188-.775-2.862 2.257.576h.139l.167-.19.437-1.236 1.763 2.27.3.005.164-.29-.852-5.26 1.363.945.2.03.177-.164 1.385-3.26 1.384 3.26.178.164.199-.03 1.364-.945-.852 5.26.164.29.3-.006 1.763-2.269.437 1.235.167.19.138.001 2.258-.576-.775 2.862.025.188.118.207.882.493-2.75 2.675-2.75 2.675.881.494.119.206.024.189-.774 2.861 2.257-.576.138.001.168.19.437 1.235 1.763-2.269.3-.006.164.29-.852 5.26 1.363-.944.2-.03.177.163L135 46.333l1.384-3.26.178-.165.199.03 1.364.945-.852-5.26.164-.29.3.006 1.763 2.27.436-1.236.168-.19h.138l2.258.575-.775-2.861.025-.189.118-.206.882-.494-2.75-2.675-2.75-2.675.881-.493.119-.207.024-.188-.774-2.862 2.257.576h.138l.168-.19.437-1.236 1.763 2.27.3.005.164-.29-.852-5.26 1.363.945.2.03.177-.164 1.385-3.26 1.384 3.26.178.164.199-.03 1.364-.945-.852 5.26.164.29.3-.006 1.763-2.269.436 1.235.168.19.138.001 2.258-.576-.775 2.862.025.188.118.207.882.493-2.75 2.675-2.75 2.675.881.494.119.206.024.189-.774 2.861 2.257-.576.138.001.168.19.437 1.235 1.763-2.269.3-.006.164.29-.852 5.26 1.363-.944.2-.03.177.163L155 46.333l1.384-3.26.178-.165.199.03 1.364.945-.852-5.26.164-.29.3.006 1.763 2.27.436-1.236.168-.19h.138l2.258.575-.775-2.861.025-.189.118-.206.882-.494-2.75-2.675-2.75-2.675.881-.493.119-.207.024-.188-.774-2.862 2.257.576h.138l.168-.19.437-1.236 1.763 2.27.3.005.164-.29-.852-5.26 1.363.945.2.03.177-.164 1.385-3.26 1.384 3.26.178.164.199-.03 1.364-.945-.852 5.26.164.29.3-.006 1.763-2.269.436 1.235.168.19.138.001 2.258-.576-.775 2.862.025.188.118.207.882.493-2.75 2.675-2.75 2.675.881.494.119.206.024.189-.774 2.861 2.257-.576.138.001.168.19.437 1.235 1.763-2.269.3-.006.164.29-.852 5.26 1.363-.944.2-.03.177.163L175 46.333l1.384-3.26.178-.165.199.03 1.364.945-.852-5.26.164-.29.3.006 1.763 2.27.436-1.236.168-.19h.138l2.258.575-.775-2.861.025-.189.118-.206.882-.494-2.75-2.675"/></g><path fill="none" stroke="#333" stroke-linecap="round" stroke-linejoin="round" stroke-width=".5" d="M0 0h100v66.667H0z"/></svg>