<?xml version="1.0" encoding="UTF-8" standalone="no"?>
<svg xmlns="http://www.w3.org/2000/svg" preserveAspectRatio="xMidYMin slice" viewBox="-10 -10 120 86.667"><defs><mask id="a"><path fill="#fff" fill-rule="evenodd" d="M0 0h100v66.667H0z" clip-rule="evenodd"/></mask></defs><g mask="url(#a)"><path fill="#f0f0f0" fill-rule="evenodd" d="M0 0h100v66.667H0z"/><defs><mask id="b"><path fill="#fff" fill-rule="evenodd" stroke="#fff" stroke-width=".1" d="M-40 33.333c1.696-1.096 3.391-2.193 3.317-4.128-2.26 2.066-5.606-.242-5.668-1.887-.054-1.455 4.034-5.236 7.351-8.845 3.317 3.609 7.405 7.39 7.351 8.845-.062 1.645-3.409 3.953-5.668 1.887-.148 3.87 6.782 4.387 6.634 8.257-2.26-2.067-5.606.241-5.668 1.887-.054 1.454 4.034 5.236 7.351 8.845 3.317-3.61 7.405-7.39 7.351-8.845-.062-1.646-3.409-3.954-5.668-1.887-.074-1.935 1.621-3.032 3.317-4.129s3.391-2.193 3.317-4.128c-2.26 2.066-5.606-.242-5.668-1.887-.054-1.455 4.034-5.236 7.351-8.845 3.317 3.609 7.405 7.39 7.351 8.845-.062 1.645-3.409 3.953-5.668 1.887-.148 3.87 6.782 4.387 6.634 8.257-2.26-2.067-5.606.241-5.668 1.887-.054 1.454 4.034 5.236 7.351 8.845 3.317-3.61 7.405-7.39 7.351-8.845-.062-1.646-3.409-3.954-5.668-1.887-.074-1.935 1.621-3.032 3.317-4.129s3.391-2.193 3.317-4.128c-2.26 2.066-5.606-.242-5.668-1.887-.054-1.455 4.034-5.236 7.351-8.845 3.317 3.609 7.405 7.39 7.351 8.845-.062 1.645-3.409 3.953-5.668 1.887-.148 3.87 6.782 4.387 6.634 8.257-2.26-2.067-5.606.241-5.668 1.887-.054 1.454 4.034 5.236 7.351 8.845 3.317-3.61 7.405-7.39 7.351-8.845-.062-1.646-3.409-3.954-5.668-1.887-.074-1.935 1.621-3.032 3.317-4.129s3.391-2.193 3.317-4.128c-2.26 2.066-5.606-.242-5.668-1.887-.054-1.455 4.034-5.236 7.351-8.845 3.317 3.609 7.405 7.39 7.351 8.845-.062 1.645-3.409 3.953-5.668 1.887-.148 3.87 6.782 4.387 6.634 8.257-2.26-2.067-5.606.241-5.668 1.887-.054 1.454 4.034 5.236 7.351 8.845 3.317-3.61 7.405-7.39 7.351-8.845-.062-1.646-3.409-3.954-5.668-1.887-.074-1.935 1.621-3.032 3.317-4.129s3.391-2.193 3.317-4.128c-2.26 2.066-5.606-.242-5.668-1.887-.054-1.455 4.034-5.236 7.351-8.845 3.317 3.609 7.405 7.39 7.351 8.845-.062 1.645-3.409 3.953-5.668 1.887-.148 3.87 6.782 4.387 6.634 8.257-2.26-2.067-5.606.241-5.668 1.887-.054 1.454 4.034 5.236 7.351 8.845 3.317-3.61 7.405-7.39 7.351-8.845-.062-1.646-3.409-3.954-5.668-1.887-.074-1.935 1.621-3.032 3.317-4.129s3.391-2.193 3.317-4.128c-2.26 2.066-5.606-.242-5.668-1.887-.054-1.455 4.034-5.236 7.351-8.845 3.317 3.609 7.405 7.39 7.351 8.845-.062 1.645-3.409 3.953-5.668 1.887-.148 3.87 6.782 4.387 6.634 8.257-2.26-2.067-5.606.241-5.668 1.887-.054 1.454 4.034 5.236 7.351 8.845 3.317-3.61 7.405-7.39 7.351-8.845-.062-1.646-3.409-3.954-5.668-1.887-.074-1.935 1.621-3.032 3.317-4.129s3.391-2.193 3.317-4.128c-2.26 2.066-5.606-.242-5.668-1.887-.054-1.455 4.034-5.236 7.351-8.845 3.317 3.609 7.405 7.39 7.351 8.845-.062 1.645-3.409 3.953-5.668 1.887-.148 3.87 6.782 4.387 6.634 8.257-2.26-2.067-5.606.241-5.668 1.887-.054 1.454 4.034 5.236 7.351 8.845 3.317-3.61 7.405-7.39 7.351-8.845-.062-1.646-3.409-3.954-5.668-1.887-.074-1.935 1.621-3.032 3.317-4.129s3.391-2.193 3.317-4.128c-2.26 2.066-5.606-.242-5.668-1.887-.054-1.455 4.034-5.236 7.351-8.845 3.317 3.609 7.405 7.39 7.351 8.845-.062 1.645-3.409 3.953-5.668 1.887-.148 3.87 6.782 4.387 6.634 8.257-2.26-2.067-5.606.241-5.668 1.887-.054 1.454 4.034 5.236 7.351 8.845 3.317-3.61 7.405-7.39 7.351-8.845-.062-1.646-3.409-3.954-5.668-1.887-.074-1.935 1.621-3.032 3.317-4.129s3.391-2.193 3.317-4.128c-2.26 2.066-5.606-.242-5.668-1.887-.054-1.455 4.034-5.236 7.351-8.845 3.317 3.609 7.405 7.39 7.351 8.845-.062 1.645-3.409 3.953-5.668 1.887-.148 3.87 6.782 4.387 6.634 8.257-2.26-2.067-5.606.242-5.668 1.887-.054 1.454 4.034 5.236 7.351 8.845 3.317-3.61 7.405-7.39 7.351-8.845-.062-1.645-3.409-3.954-5.668-1.887-.074-1.935 1.621-3.032 3.317-4.129s3.391-2.193 3.317-4.128c-2.26 2.066-5.606-.242-5.668-1.887-.054-1.455 4.034-5.236 7.351-8.845 3.317 3.609 7.405 7.39 7.351 8.845-.062 1.645-3.409 3.953-5.668 1.887-.148 3.87 6.782 4.387 6.634 8.257-2.26-2.067-5.606.242-5.668 1.887-.054 1.454 4.034 5.236 7.351 8.845 3.317-3.61 7.405-7.39 7.351-8.845-.062-1.645-3.409-3.954-5.668-1.887-.074-1.935 1.621-3.032 3.317-4.129s3.391-2.193 3.317-4.128c-2.26 2.066-5.606-.242-5.668-1.887-.054-1.455 4.034-5.236 7.351-8.845 3.317 3.609 7.405 7.39 7.351 8.845-.062 1.645-3.409 3.953-5.668 1.887-.148 3.87 6.782 4.387 6.634 8.257-2.26-2.067-5.606.242-5.668 1.887-.054 1.454 4.034 5.236 7.351 8.845 3.317-3.61 7.405-7.39 7.351-8.845-.062-1.645-3.409-3.954-5.668-1.887-.074-1.935 1.621-3.032 3.317-4.129l459.97 92.587a600 600 0 1 0-1179.94 0z" clip-rule="evenodd"/></mask></defs><g mask="url(#b)"><path fill="#f6f6f6" d="M-1000-1000h2000v2000h-2000z"/></g><defs><mask id="c"><path fill="#fff" fill-rule="evenodd" d="M-40 33.333c1.696-1.096 3.391-2.193 3.317-4.128-2.26 2.066-5.606-.242-5.668-1.887-.054-1.455 4.034-5.236 7.351-8.845 3.317 3.609 7.405 7.39 7.351 8.845-.062 1.645-3.409 3.953-5.668 1.887-.148 3.87 6.782 4.387 6.634 8.257-2.26-2.067-5.606.241-5.668 1.887-.054 1.454 4.034 5.236 7.351 8.845 3.317-3.61 7.405-7.39 7.351-8.845-.062-1.646-3.409-3.954-5.668-1.887-.074-1.935 1.621-3.032 3.317-4.129s3.391-2.193 3.317-4.128c-2.26 2.066-5.606-.242-5.668-1.887-.054-1.455 4.034-5.236 7.351-8.845 3.317 3.609 7.405 7.39 7.351 8.845-.062 1.645-3.409 3.953-5.668 1.887-.148 3.87 6.782 4.387 6.634 8.257-2.26-2.067-5.606.241-5.668 1.887-.054 1.454 4.034 5.236 7.351 8.845 3.317-3.61 7.405-7.39 7.351-8.845-.062-1.646-3.409-3.954-5.668-1.887-.074-1.935 1.621-3.032 3.317-4.129s3.391-2.193 3.317-4.128c-2.26 2.066-5.606-.242-5.668-1.887-.054-1.455 4.034-5.236 7.351-8.845 3.317 3.609 7.405 7.39 7.351 8.845-.062 1.645-3.409 3.953-5.668 1.887-.148 3.87 6.782 4.387 6.634 8.257-2.26-2.067-5.606.241-5.668 1.887-.054 1.454 4.034 5.236 7.351 8.845 3.317-3.61 7.405-7.39 7.351-8.845-.062-1.646-3.409-3.954-5.668-1.887-.074-1.935 1.621-3.032 3.317-4.129s3.391-2.193 3.317-4.128c-2.26 2.066-5.606-.242-5.668-1.887-.054-1.455 4.034-5.236 7.351-8.845 3.317 3.609 7.405 7.39 7.351 8.845-.062 1.645-3.409 3.953-5.668 1.887-.148 3.87 6.782 4.387 6.634 8.257-2.26-2.067-5.606.241-5.668 1.887-.054 1.454 4.034 5.236 7.351 8.845 3.317-3.61 7.405-7.39 7.351-8.845-.062-1.646-3.409-3.954-5.668-1.887-.074-1.935 1.621-3.032 3.317-4.129s3.391-2.193 3.317-4.128c-2.26 2.066-5.606-.242-5.668-1.887-.054-1.455 4.034-5.236 7.351-8.845 3.317 3.609 7.405 7.39 7.351 8.845-.062 1.645-3.409 3.953-5.668 1.887-.148 3.87 6.782 4.387 6.634 8.257-2.26-2.067-5.606.241-5.668 1.887-.054 1.454 4.034 5.236 7.351 8.845 3.317-3.61 7.405-7.39 7.351-8.845-.062-1.646-3.409-3.954-5.668-1.887-.074-1.935 1.621-3.032 3.317-4.129s3.391-2.193 3.317-4.128c-2.26 2.066-5.606-.242-5.668-1.887-.054-1.455 4.034-5.236 7.351-8.845 3.317 3.609 7.405 7.39 7.351 8.845-.062 1.645-3.409 3.953-5.668 1.887-.148 3.87 6.782 4.387 6.634 8.257-2.26-2.067-5.606.241-5.668 1.887-.054 1.454 4.034 5.236 7.351 8.845 3.317-3.61 7.405-7.39 7.351-8.845-.062-1.646-3.409-3.954-5.668-1.887-.074-1.935 1.621-3.032 3.317-4.129s3.391-2.193 3.317-4.128c-2.26 2.066-5.606-.242-5.668-1.887-.054-1.455 4.034-5.236 7.351-8.845 3.317 3.609 7.405 7.39 7.351 8.845-.062 1.645-3.409 3.953-5.668 1.887-.148 3.87 6.782 4.387 6.634 8.257-2.26-2.067-5.606.241-5.668 1.887-.054 1.454 4.034 5.236 7.351 8.845 3.317-3.61 7.405-7.39 7.351-8.845-.062-1.646-3.409-3.954-5.668-1.887-.074-1.935 1.621-3.032 3.317-4.129s3.391-2.193 3.317-4.128c-2.26 2.066-5.606-.242-5.668-1.887-.054-1.455 4.034-5.236 7.351-8.845 3.317 3.609 7.405 7.39 7.351 8.845-.062 1.645-3.409 3.953-5.668 1.887-.148 3.87 6.782 4.387 6.634 8.257-2.26-2.067-5.606.241-5.668 1.887-.054 1.454 4.034 5.236 7.351 8.845 3.317-3.61 7.405-7.39 7.351-8.845-.062-1.646-3.409-3.954-5.668-1.887-.074-1.935 1.621-3.032 3.317-4.129s3.391-2.193 3.317-4.128c-2.26 2.066-5.606-.242-5.668-1.887-.054-1.455 4.034-5.236 7.351-8.845 3.317 3.609 7.405 7.39 7.351 8.845-.062 1.645-3.409 3.953-5.668 1.887-.148 3.87 6.782 4.387 6.634 8.257-2.26-2.067-5.606.242-5.668 1.887-.054 1.454 4.034 5.236 7.351 8.845 3.317-3.61 7.405-7.39 7.351-8.845-.062-1.645-3.409-3.954-5.668-1.887-.074-1.935 1.621-3.032 3.317-4.129s3.391-2.193 3.317-4.128c-2.26 2.066-5.606-.242-5.668-1.887-.054-1.455 4.034-5.236 7.351-8.845 3.317 3.609 7.405 7.39 7.351 8.845-.062 1.645-3.409 3.953-5.668 1.887-.148 3.87 6.782 4.387 6.634 8.257-2.26-2.067-5.606.242-5.668 1.887-.054 1.454 4.034 5.236 7.351 8.845 3.317-3.61 7.405-7.39 7.351-8.845-.062-1.645-3.409-3.954-5.668-1.887-.074-1.935 1.621-3.032 3.317-4.129s3.391-2.193 3.317-4.128c-2.26 2.066-5.606-.242-5.668-1.887-.054-1.455 4.034-5.236 7.351-8.845 3.317 3.609 7.405 7.39 7.351 8.845-.062 1.645-3.409 3.953-5.668 1.887-.148 3.87 6.782 4.387 6.634 8.257-2.26-2.067-5.606.242-5.668 1.887-.054 1.454 4.034 5.236 7.351 8.845 3.317-3.61 7.405-7.39 7.351-8.845-.062-1.645-3.409-3.954-5.668-1.887-.074-1.935 1.621-3.032 3.317-4.129l459.97-92.587a600 600 0 1 1-1179.94 0z" clip-rule="evenodd"/></mask></defs><g mask="url(#c)"><path fill="#0c6793" d="M-1000-1000h2000v2000h-2000z"/></g><path fill="none" stroke="#333" stroke-linecap="round" stroke-linejoin="round" stroke-width=".5" d="M-40 33.333c1.696-1.096 3.391-2.193 3.317-4.128-2.26 2.066-5.606-.242-5.668-1.887-.054-1.455 4.034-5.236 7.351-8.845 3.317 3.609 7.405 7.39 7.351 8.845-.062 1.645-3.409 3.953-5.668 1.887-.148 3.87 6.782 4.387 6.634 8.257-2.26-2.067-5.606.241-5.668 1.887-.054 1.454 4.034 5.236 7.351 8.845 3.317-3.61 7.405-7.39 7.351-8.845-.062-1.646-3.409-3.954-5.668-1.887-.074-1.935 1.621-3.032 3.317-4.129s3.391-2.193 3.317-4.128c-2.26 2.066-5.606-.242-5.668-1.887-.054-1.455 4.034-5.236 7.351-8.845 3.317 3.609 7.405 7.39 7.351 8.845-.062 1.645-3.409 3.953-5.668 1.887-.148 3.87 6.782 4.387 6.634 8.257-2.26-2.067-5.606.241-5.668 1.887-.054 1.454 4.034 5.236 7.351 8.845 3.317-3.61 7.405-7.39 7.351-8.845-.062-1.646-3.409-3.954-5.668-1.887-.074-1.935 1.621-3.032 3.317-4.129s3.391-2.193 3.317-4.128c-2.26 2.066-5.606-.242-5.668-1.887-.054-1.455 4.034-5.236 7.351-8.845 3.317 3.609 7.405 7.39 7.351 8.845-.062 1.645-3.409 3.953-5.668 1.887-.148 3.87 6.782 4.387 6.634 8.257-2.26-2.067-5.606.241-5.668 1.887-.054 1.454 4.034 5.236 7.351 8.845 3.317-3.61 7.405-7.39 7.351-8.845-.062-1.646-3.409-3.954-5.668-1.887-.074-1.935 1.621-3.032 3.317-4.129s3.391-2.193 3.317-4.128c-2.26 2.066-5.606-.242-5.668-1.887-.054-1.455 4.034-5.236 7.351-8.845 3.317 3.609 7.405 7.39 7.351 8.845-.062 1.645-3.409 3.953-5.668 1.887-.148 3.87 6.782 4.387 6.634 8.257-2.26-2.067-5.606.241-5.668 1.887-.054 1.454 4.034 5.236 7.351 8.845 3.317-3.61 7.405-7.39 7.351-8.845-.062-1.646-3.409-3.954-5.668-1.887-.074-1.935 1.621-3.032 3.317-4.129s3.391-2.193 3.317-4.128c-2.26 2.066-5.606-.242-5.668-1.887-.054-1.455 4.034-5.236 7.351-8.845 3.317 3.609 7.405 7.39 7.351 8.845-.062 1.645-3.409 3.953-5.668 1.887-.148 3.87 6.782 4.387 6.634 8.257-2.26-2.067-5.606.241-5.668 1.887-.054 1.454 4.034 5.236 7.351 8.845 3.317-3.61 7.405-7.39 7.351-8.845-.062-1.646-3.409-3.954-5.668-1.887-.074-1.935 1.621-3.032 3.317-4.129s3.391-2.193 3.317-4.128c-2.26 2.066-5.606-.242-5.668-1.887-.054-1.455 4.034-5.236 7.351-8.845 3.317 3.609 7.405 7.39 7.351 8.845-.062 1.645-3.409 3.953-5.668 1.887-.148 3.87 6.782 4.387 6.634 8.257-2.26-2.067-5.606.241-5.668 1.887-.054 1.454 4.034 5.236 7.351 8.845 3.317-3.61 7.405-7.39 7.351-8.845-.062-1.646-3.409-3.954-5.668-1.887-.074-1.935 1.621-3.032 3.317-4.129s3.391-2.193 3.317-4.128c-2.26 2.066-5.606-.242-5.668-1.887-.054-1.455 4.034-5.236 7.351-8.845 3.317 3.609 7.405 7.39 7.351 8.845-.062 1.645-3.409 3.953-5.668 1.887-.148 3.87 6.782 4.387 6.634 8.257-2.26-2.067-5.606.241-5.668 1.887-.054 1.454 4.034 5.236 7.351 8.845 3.317-3.61 7.405-7.39 7.351-8.845-.062-1.646-3.409-3.954-5.668-1.887-.074-1.935 1.621-3.032 3.317-4.129s3.391-2.193 3.317-4.128c-2.26 2.066-5.606-.242-5.668-1.887-.054-1.455 4.034-5.236 7.351-8.845 3.317 3.609 7.405 7.39 7.351 8.845-.062 1.645-3.409 3.953-5.668 1.887-.148 3.87 6.782 4.387 6.634 8.257-2.26-2.067-5.606.241-5.668 1.887-.054 1.454 4.034 5.236 7.351 8.845 3.317-3.61 7.405-7.39 7.351-8.845-.062-1.646-3.409-3.954-5.668-1.887-.074-1.935 1.621-3.032 3.317-4.129s3.391-2.193 3.317-4.128c-2.26 2.066-5.606-.242-5.668-1.887-.054-1.455 4.034-5.236 7.351-8.845 3.317 3.609 7.405 7.39 7.351 8.845-.062 1.645-3.409 3.953-5.668 1.887-.148 3.87 6.782 4.387 6.634 8.257-2.26-2.067-5.606.242-5.668 1.887-.054 1.454 4.034 5.236 7.351 8.845 3.317-3.61 7.405-7.39 7.351-8.845-.062-1.645-3.409-3.954-5.668-1.887-.074-1.935 1.621-3.032 3.317-4.129s3.391-2.193 3.317-4.128c-2.26 2.066-5.606-.242-5.668-1.887-.054-1.455 4.034-5.236 7.351-8.845 3.317 3.609 7.405 7.39 7.351 8.845-.062 1.645-3.409 3.953-5.668 1.887-.148 3.87 6.782 4.387 6.634 8.257-2.26-2.067-5.606.242-5.668 1.887-.054 1.454 4.034 5.236 7.351 8.845 3.317-3.61 7.405-7.39 7.351-8.845-.062-1.645-3.409-3.954-5.668-1.887-.074-1.935 1.621-3.032 3.317-4.129s3.391-2.193 3.317-4.128c-2.26 2.066-5.606-.242-5.668-1.887-.054-1.455 4.034-5.236 7.351-8.845 3.317 3.609 7.405 7.39 7.351 8.845-.062 1.645-3.409 3.953-5.668 1.887-.148 3.87 6.782 4.387 6.634 8.257-2.26-2.067-5.606.242-5.668 1.887-.054 1.454 4.034 5.236 7.351 8.845 3.317-3.61 7.405-7.39 7.351-8.845-.062-1.645-3.409-3.954-5.668-1.887-.074-1.935 1.621-3.032 3.317-4.129"/></g><path fill="none" stroke="#333" stroke-linecap="round" stroke-linejoin="round" stroke-width=".5" d="M0 0h100v66.667H0z"/></svg>