<svg preserveAspectRatio="xMidYMin slice" viewBox="0 0 120 80" xmlns="http://www.w3.org/2000/svg"><g transform="translate(10 10)"><defs><mask id="a"><path clip-rule="evenodd" d="M50 0h50v33.333a100 100 0 0 1-50 86.603A100 100 0 0 1 0 33.333V0z" fill-rule="evenodd" fill="#fff"/></mask></defs><g mask="url(#a)"><path d="M50 0h50v33.333a100 100 0 0 1-50 86.603A100 100 0 0 1 0 33.333V0z" fill-rule="evenodd" fill="#f0f0f0"/><defs><mask id="b"><path clip-rule="evenodd" d="M-60 62c7-5 .9-9.1 1.4-12.1.5-3 7.6-4.9 2.6-11.9 7.5 4.5 1.65 9.15 2.4 12.15S-50 52.723-50 62l5-24 5 24c7-5 .9-9.1 1.4-12.1.5-3 7.6-4.9 2.6-11.9 7.5 4.5 1.65 9.15 2.4 12.15S-30 52.723-30 62l5-24 5 24c7-5 .9-9.1 1.4-12.1.5-3 7.6-4.9 2.6-11.9 7.5 4.5 1.65 9.15 2.4 12.15S-10 52.723-10 62l5-24 5 24c7-5 .9-9.1 1.4-12.1C1.9 46.9 9 45 4 38c7.5 4.5 1.65 9.15 2.4 12.15S10 52.723 10 62l5-24 5 24c7-5 .9-9.1 1.4-12.1.5-3 7.6-4.9 2.6-11.9 7.5 4.5 1.65 9.15 2.4 12.15S30 52.723 30 62l5-24 5 24c7-5 .9-9.1 1.4-12.1.5-3 7.6-4.9 2.6-11.9 7.5 4.5 1.65 9.15 2.4 12.15S50 52.723 50 62l5-24 5 24c7-5 .9-9.1 1.4-12.1.5-3 7.6-4.9 2.6-11.9 7.5 4.5 1.65 9.15 2.4 12.15S70 52.723 70 62l5-24 5 24c7-5 .9-9.1 1.4-12.1.5-3 7.6-4.9 2.6-11.9 7.5 4.5 1.65 9.15 2.4 12.15S90 52.723 90 62l5-24 5 24c7-5 .9-9.1 1.4-12.1.5-3 7.6-4.9 2.6-11.9 7.5 4.5 1.65 9.15 2.4 12.15S110 52.723 110 62l5-24 5 24c7-5 .9-9.1 1.4-12.1.5-3 7.6-4.9 2.6-11.9 7.5 4.5 1.65 9.15 2.4 12.15S130 52.723 130 62l5-24 5 24c7-5 .9-9.1 1.4-12.1.5-3 7.6-4.9 2.6-11.9 7.5 4.5 1.65 9.15 2.4 12.15S150 52.723 150 62l5-24 5 24c7-5 .9-9.1 1.4-12.1.5-3 7.6-4.9 2.6-11.9 7.5 4.5 1.65 9.15 2.4 12.15S170 52.723 170 62l5-24 5 24h820v-1062h-2000V62h940z" fill-rule="evenodd" fill="#fff"/><path d="M-60 62c7-5 .9-9.1 1.4-12.1.5-3 7.6-4.9 2.6-11.9 7.5 4.5 1.65 9.15 2.4 12.15S-50 52.723-50 62l5-24 5 24c7-5 .9-9.1 1.4-12.1.5-3 7.6-4.9 2.6-11.9 7.5 4.5 1.65 9.15 2.4 12.15S-30 52.723-30 62l5-24 5 24c7-5 .9-9.1 1.4-12.1.5-3 7.6-4.9 2.6-11.9 7.5 4.5 1.65 9.15 2.4 12.15S-10 52.723-10 62l5-24 5 24c7-5 .9-9.1 1.4-12.1C1.9 46.9 9 45 4 38c7.5 4.5 1.65 9.15 2.4 12.15S10 52.723 10 62l5-24 5 24c7-5 .9-9.1 1.4-12.1.5-3 7.6-4.9 2.6-11.9 7.5 4.5 1.65 9.15 2.4 12.15S30 52.723 30 62l5-24 5 24c7-5 .9-9.1 1.4-12.1.5-3 7.6-4.9 2.6-11.9 7.5 4.5 1.65 9.15 2.4 12.15S50 52.723 50 62l5-24 5 24c7-5 .9-9.1 1.4-12.1.5-3 7.6-4.9 2.6-11.9 7.5 4.5 1.65 9.15 2.4 12.15S70 52.723 70 62l5-24 5 24c7-5 .9-9.1 1.4-12.1.5-3 7.6-4.9 2.6-11.9 7.5 4.5 1.65 9.15 2.4 12.15S90 52.723 90 62l5-24 5 24c7-5 .9-9.1 1.4-12.1.5-3 7.6-4.9 2.6-11.9 7.5 4.5 1.65 9.15 2.4 12.15S110 52.723 110 62l5-24 5 24c7-5 .9-9.1 1.4-12.1.5-3 7.6-4.9 2.6-11.9 7.5 4.5 1.65 9.15 2.4 12.15S130 52.723 130 62l5-24 5 24c7-5 .9-9.1 1.4-12.1.5-3 7.6-4.9 2.6-11.9 7.5 4.5 1.65 9.15 2.4 12.15S150 52.723 150 62l5-24 5 24c7-5 .9-9.1 1.4-12.1.5-3 7.6-4.9 2.6-11.9 7.5 4.5 1.65 9.15 2.4 12.15S170 52.723 170 62l5-24 5 24h820v-1062h-2000V62h940z" fill="none" stroke-width=".1" stroke="#fff"/></mask></defs><g mask="url(#b)"><path fill="#f6f6f6" style="cursor:pointer" d="M-1000-1000h2000v2000h-2000z"/></g><defs><mask id="c"><path clip-rule="evenodd" d="M-60 62c7-5 .9-9.1 1.4-12.1.5-3 7.6-4.9 2.6-11.9 7.5 4.5 1.65 9.15 2.4 12.15S-50 52.723-50 62l5-24 5 24c7-5 .9-9.1 1.4-12.1.5-3 7.6-4.9 2.6-11.9 7.5 4.5 1.65 9.15 2.4 12.15S-30 52.723-30 62l5-24 5 24c7-5 .9-9.1 1.4-12.1.5-3 7.6-4.9 2.6-11.9 7.5 4.5 1.65 9.15 2.4 12.15S-10 52.723-10 62l5-24 5 24c7-5 .9-9.1 1.4-12.1C1.9 46.9 9 45 4 38c7.5 4.5 1.65 9.15 2.4 12.15S10 52.723 10 62l5-24 5 24c7-5 .9-9.1 1.4-12.1.5-3 7.6-4.9 2.6-11.9 7.5 4.5 1.65 9.15 2.4 12.15S30 52.723 30 62l5-24 5 24c7-5 .9-9.1 1.4-12.1.5-3 7.6-4.9 2.6-11.9 7.5 4.5 1.65 9.15 2.4 12.15S50 52.723 50 62l5-24 5 24c7-5 .9-9.1 1.4-12.1.5-3 7.6-4.9 2.6-11.9 7.5 4.5 1.65 9.15 2.4 12.15S70 52.723 70 62l5-24 5 24c7-5 .9-9.1 1.4-12.1.5-3 7.6-4.9 2.6-11.9 7.5 4.5 1.65 9.15 2.4 12.15S90 52.723 90 62l5-24 5 24c7-5 .9-9.1 1.4-12.1.5-3 7.6-4.9 2.6-11.9 7.5 4.5 1.65 9.15 2.4 12.15S110 52.723 110 62l5-24 5 24c7-5 .9-9.1 1.4-12.1.5-3 7.6-4.9 2.6-11.9 7.5 4.5 1.65 9.15 2.4 12.15S130 52.723 130 62l5-24 5 24c7-5 .9-9.1 1.4-12.1.5-3 7.6-4.9 2.6-11.9 7.5 4.5 1.65 9.15 2.4 12.15S150 52.723 150 62l5-24 5 24c7-5 .9-9.1 1.4-12.1.5-3 7.6-4.9 2.6-11.9 7.5 4.5 1.65 9.15 2.4 12.15S170 52.723 170 62l5-24 5 24h820v938h-2000V62h940z" fill-rule="evenodd" fill="#fff"/></mask></defs><g mask="url(#c)"><path fill="#0c6793" style="cursor:pointer" d="M-1000-1000h2000v2000h-2000z"/></g><path d="M-60 62c7-5 .9-9.1 1.4-12.1.5-3 7.6-4.9 2.6-11.9 7.5 4.5 1.65 9.15 2.4 12.15S-50 52.723-50 62l5-24 5 24c7-5 .9-9.1 1.4-12.1.5-3 7.6-4.9 2.6-11.9 7.5 4.5 1.65 9.15 2.4 12.15S-30 52.723-30 62l5-24 5 24c7-5 .9-9.1 1.4-12.1.5-3 7.6-4.9 2.6-11.9 7.5 4.5 1.65 9.15 2.4 12.15S-10 52.723-10 62l5-24 5 24c7-5 .9-9.1 1.4-12.1C1.9 46.9 9 45 4 38c7.5 4.5 1.65 9.15 2.4 12.15S10 52.723 10 62l5-24 5 24c7-5 .9-9.1 1.4-12.1.5-3 7.6-4.9 2.6-11.9 7.5 4.5 1.65 9.15 2.4 12.15S30 52.723 30 62l5-24 5 24c7-5 .9-9.1 1.4-12.1.5-3 7.6-4.9 2.6-11.9 7.5 4.5 1.65 9.15 2.4 12.15S50 52.723 50 62l5-24 5 24c7-5 .9-9.1 1.4-12.1.5-3 7.6-4.9 2.6-11.9 7.5 4.5 1.65 9.15 2.4 12.15S70 52.723 70 62l5-24 5 24c7-5 .9-9.1 1.4-12.1.5-3 7.6-4.9 2.6-11.9 7.5 4.5 1.65 9.15 2.4 12.15S90 52.723 90 62l5-24 5 24c7-5 .9-9.1 1.4-12.1.5-3 7.6-4.9 2.6-11.9 7.5 4.5 1.65 9.15 2.4 12.15S110 52.723 110 62l5-24 5 24c7-5 .9-9.1 1.4-12.1.5-3 7.6-4.9 2.6-11.9 7.5 4.5 1.65 9.15 2.4 12.15S130 52.723 130 62l5-24 5 24c7-5 .9-9.1 1.4-12.1.5-3 7.6-4.9 2.6-11.9 7.5 4.5 1.65 9.15 2.4 12.15S150 52.723 150 62l5-24 5 24c7-5 .9-9.1 1.4-12.1.5-3 7.6-4.9 2.6-11.9 7.5 4.5 1.65 9.15 2.4 12.15S170 52.723 170 62l5-24 5 24" fill="none" stroke-linecap="round" stroke-linejoin="round" stroke-width=".5" stroke="#333"/></g><path d="M50 0h50v33.333a100 100 0 0 1-50 86.603A100 100 0 0 1 0 33.333V0z" fill="none" stroke-linecap="round" stroke-linejoin="round" stroke-width=".5" stroke="#333"/></g></svg>