<?xml version="1.0" encoding="UTF-8" standalone="no"?>
<svg xmlns="http://www.w3.org/2000/svg" preserveAspectRatio="xMidYMin slice" viewBox="-10 -10 120 86.667"><defs><mask id="a"><path fill="#fff" fill-rule="evenodd" d="M0 0h100v66.667H0z" clip-rule="evenodd"/></mask></defs><g mask="url(#a)"><path fill="#f0f0f0" fill-rule="evenodd" d="M0 0h100v66.667H0z"/><defs><mask id="b"><path fill="#fff" fill-rule="evenodd" stroke="#fff" stroke-width=".1" d="M-40 39.333h5v-10h2.5c0-1.104 1.12-2 2.5-2s2.5.896 2.5 2h2.5v10h10v-10h2.5c0-1.104 1.12-2 2.5-2s2.5.896 2.5 2H-5v10H5v-10h2.5c0-1.104 1.12-2 2.5-2s2.5.896 2.5 2H15v10h10v-10h2.5c0-1.104 1.12-2 2.5-2s2.5.896 2.5 2H35v10h10v-10h2.5c0-1.104 1.12-2 2.5-2s2.5.896 2.5 2H55v10h10v-10h2.5c0-1.104 1.12-2 2.5-2s2.5.896 2.5 2H75v10h10v-10h2.5c0-1.104 1.12-2 2.5-2s2.5.896 2.5 2H95v10h10v-10h2.5c0-1.104 1.12-2 2.5-2s2.5.896 2.5 2h2.5v10h10v-10h2.5c0-1.104 1.12-2 2.5-2s2.5.896 2.5 2h2.5v10h10v-10h2.5c0-1.104 1.12-2 2.5-2s2.5.896 2.5 2h2.5v10h10v-10h2.5c0-1.104 1.12-2 2.5-2s2.5.896 2.5 2h2.5v10h5l459.97 86.587a600 600 0 1 0-1171.801 37.282L-40 39.333z" clip-rule="evenodd"/></mask></defs><g mask="url(#b)"><path fill="#f6f6f6" d="M-1000-1000h2000v2000h-2000z"/></g><defs><mask id="c"><path fill="#fff" fill-rule="evenodd" d="M-40 39.333h5v-10h2.5c0-1.104 1.12-2 2.5-2s2.5.896 2.5 2h2.5v10h10v-10h2.5c0-1.104 1.12-2 2.5-2s2.5.896 2.5 2H-5v10H5v-10h2.5c0-1.104 1.12-2 2.5-2s2.5.896 2.5 2H15v10h10v-10h2.5c0-1.104 1.12-2 2.5-2s2.5.896 2.5 2H35v10h10v-10h2.5c0-1.104 1.12-2 2.5-2s2.5.896 2.5 2H55v10h10v-10h2.5c0-1.104 1.12-2 2.5-2s2.5.896 2.5 2H75v10h10v-10h2.5c0-1.104 1.12-2 2.5-2s2.5.896 2.5 2H95v10h10v-10h2.5c0-1.104 1.12-2 2.5-2s2.5.896 2.5 2h2.5v10h10v-10h2.5c0-1.104 1.12-2 2.5-2s2.5.896 2.5 2h2.5v10h10v-10h2.5c0-1.104 1.12-2 2.5-2s2.5.896 2.5 2h2.5v10h10v-10h2.5c0-1.104 1.12-2 2.5-2s2.5.896 2.5 2h2.5v10h5l459.97-98.587a600 600 0 1 1-1185.8 38.637L-40 39.333z" clip-rule="evenodd"/></mask></defs><g mask="url(#c)"><path fill="#f2bc51" d="M-1000-1000h2000v2000h-2000z"/></g><path fill="none" stroke="#333" stroke-linecap="round" stroke-linejoin="round" stroke-width=".5" d="M-40 39.333h5v-10h2.5c0-1.104 1.12-2 2.5-2s2.5.896 2.5 2h2.5v10h10v-10h2.5c0-1.104 1.12-2 2.5-2s2.5.896 2.5 2H-5v10H5v-10h2.5c0-1.104 1.12-2 2.5-2s2.5.896 2.5 2H15v10h10v-10h2.5c0-1.104 1.12-2 2.5-2s2.5.896 2.5 2H35v10h10v-10h2.5c0-1.104 1.12-2 2.5-2s2.5.896 2.5 2H55v10h10v-10h2.5c0-1.104 1.12-2 2.5-2s2.5.896 2.5 2H75v10h10v-10h2.5c0-1.104 1.12-2 2.5-2s2.5.896 2.5 2H95v10h10v-10h2.5c0-1.104 1.12-2 2.5-2s2.5.896 2.5 2h2.5v10h10v-10h2.5c0-1.104 1.12-2 2.5-2s2.5.896 2.5 2h2.5v10h10v-10h2.5c0-1.104 1.12-2 2.5-2s2.5.896 2.5 2h2.5v10h10v-10h2.5c0-1.104 1.12-2 2.5-2s2.5.896 2.5 2h2.5v10h5"/></g><path fill="none" stroke="#333" stroke-linecap="round" stroke-linejoin="round" stroke-width=".5" d="M0 0h100v66.667H0z"/></svg>