<svg preserveAspectRatio="xMidYMin slice" viewBox="-10 -10 120 86.667" xmlns="http://www.w3.org/2000/svg"><defs><mask id="a"><path clip-rule="evenodd" d="M0 0h100v66.667H0z" fill-rule="evenodd" fill="#fff"/></mask></defs><g mask="url(#a)"><path d="M0 0h100v66.667H0z" fill-rule="evenodd" fill="#f0f0f0"/><defs><mask id="b"><path clip-rule="evenodd" d="M-40 38.333h5a7.813 7.813 0 0 0 0-10h10a7.813 7.813 0 0 1 0 10h10a7.813 7.813 0 0 0 0-10h10a7.813 7.813 0 0 1 0 10H5a7.813 7.813 0 0 0 0-10h10a7.813 7.813 0 0 1 0 10h10a7.813 7.813 0 0 0 0-10h10a7.813 7.813 0 0 1 0 10h10a7.813 7.813 0 0 0 0-10h10a7.813 7.813 0 0 1 0 10h10a7.813 7.813 0 0 0 0-10h10a7.813 7.813 0 0 1 0 10h10a7.813 7.813 0 0 0 0-10h10a7.813 7.813 0 0 1 0 10h10a7.813 7.813 0 0 0 0-10h10a7.813 7.813 0 0 1 0 10h10a7.813 7.813 0 0 0 0-10h10a7.813 7.813 0 0 1 0 10h10a7.813 7.813 0 0 0 0-10h10a7.813 7.813 0 0 1 0 10h10a7.813 7.813 0 0 0 0-10h10a7.813 7.813 0 0 1 0 10h5l470-5A600 600 0 1 0-549.076 66.615L-40 38.333z" fill-rule="evenodd" fill="#fff" stroke-width=".1" stroke="#fff"/></mask></defs><g mask="url(#b)"><path fill="#f6f6f6" style="cursor:pointer" d="M-1000-1000h2000v2000h-2000z"/></g><defs><mask id="c"><path clip-rule="evenodd" d="M-40 38.333h5a7.813 7.813 0 0 0 0-10h10a7.813 7.813 0 0 1 0 10h10a7.813 7.813 0 0 0 0-10h10a7.813 7.813 0 0 1 0 10H5a7.813 7.813 0 0 0 0-10h10a7.813 7.813 0 0 1 0 10h10a7.813 7.813 0 0 0 0-10h10a7.813 7.813 0 0 1 0 10h10a7.813 7.813 0 0 0 0-10h10a7.813 7.813 0 0 1 0 10h10a7.813 7.813 0 0 0 0-10h10a7.813 7.813 0 0 1 0 10h10a7.813 7.813 0 0 0 0-10h10a7.813 7.813 0 0 1 0 10h10a7.813 7.813 0 0 0 0-10h10a7.813 7.813 0 0 1 0 10h10a7.813 7.813 0 0 0 0-10h10a7.813 7.813 0 0 1 0 10h10a7.813 7.813 0 0 0 0-10h10a7.813 7.813 0 0 1 0 10h10a7.813 7.813 0 0 0 0-10h10a7.813 7.813 0 0 1 0 10h5l470-5A600 600 0 0 1-549.076 66.615L-40 38.333z" fill-rule="evenodd" fill="#fff"/></mask></defs><g mask="url(#c)"><path fill="#0c6793" style="cursor:pointer" d="M-1000-1000h2000v2000h-2000z"/></g><path d="M-40 38.333h5a7.813 7.813 0 0 0 0-10h10a7.813 7.813 0 0 1 0 10h10a7.813 7.813 0 0 0 0-10h10a7.813 7.813 0 0 1 0 10H5a7.813 7.813 0 0 0 0-10h10a7.813 7.813 0 0 1 0 10h10a7.813 7.813 0 0 0 0-10h10a7.813 7.813 0 0 1 0 10h10a7.813 7.813 0 0 0 0-10h10a7.813 7.813 0 0 1 0 10h10a7.813 7.813 0 0 0 0-10h10a7.813 7.813 0 0 1 0 10h10a7.813 7.813 0 0 0 0-10h10a7.813 7.813 0 0 1 0 10h10a7.813 7.813 0 0 0 0-10h10a7.813 7.813 0 0 1 0 10h10a7.813 7.813 0 0 0 0-10h10a7.813 7.813 0 0 1 0 10h10a7.813 7.813 0 0 0 0-10h10a7.813 7.813 0 0 1 0 10h10a7.813 7.813 0 0 0 0-10h10a7.813 7.813 0 0 1 0 10h5" fill="none" stroke-linecap="round" stroke-linejoin="round" stroke-width=".5" stroke="#333"/></g><path d="M0 0h100v66.667H0z" fill="none" stroke-linecap="round" stroke-linejoin="round" stroke-width=".5" stroke="#333"/></svg>