<svg preserveAspectRatio="xMidYMin slice" viewBox="0 0 120 80" xmlns="http://www.w3.org/2000/svg"><g transform="translate(10 10)"><defs><mask id="a"><path clip-rule="evenodd" d="M0 0h100v66.667H0z" fill-rule="evenodd" fill="#fff"/></mask></defs><g mask="url(#a)"><path d="M0 0h100v66.667H0z" fill-rule="evenodd" fill="#f0f0f0"/><defs><mask id="b"><path clip-rule="evenodd" d="M-60 45.333c7-5 .9-9.1 1.4-12.1.5-3 7.6-4.9 2.6-11.9 7.5 4.5 1.65 9.15 2.4 12.15s3.6 2.573 3.6 11.85l5-24 5 24c7-5 .9-9.1 1.4-12.1.5-3 7.6-4.9 2.6-11.9 7.5 4.5 1.65 9.15 2.4 12.15s3.6 2.573 3.6 11.85l5-24 5 24c7-5 .9-9.1 1.4-12.1.5-3 7.6-4.9 2.6-11.9 7.5 4.5 1.65 9.15 2.4 12.15s3.6 2.573 3.6 11.85l5-24 5 24c7-5 .9-9.1 1.4-12.1.5-3 7.6-4.9 2.6-11.9 7.5 4.5 1.65 9.15 2.4 12.15s3.6 2.573 3.6 11.85l5-24 5 24c7-5 .9-9.1 1.4-12.1.5-3 7.6-4.9 2.6-11.9 7.5 4.5 1.65 9.15 2.4 12.15s3.6 2.573 3.6 11.85l5-24 5 24c7-5 .9-9.1 1.4-12.1.5-3 7.6-4.9 2.6-11.9 7.5 4.5 1.65 9.15 2.4 12.15s3.6 2.573 3.6 11.85l5-24 5 24c7-5 .9-9.1 1.4-12.1.5-3 7.6-4.9 2.6-11.9 7.5 4.5 1.65 9.15 2.4 12.15s3.6 2.573 3.6 11.85l5-24 5 24c7-5 .9-9.1 1.4-12.1.5-3 7.6-4.9 2.6-11.9 7.5 4.5 1.65 9.15 2.4 12.15s3.6 2.573 3.6 11.85l5-24 5 24c7-5 .9-9.1 1.4-12.1.5-3 7.6-4.9 2.6-11.9 7.5 4.5 1.65 9.15 2.4 12.15s3.6 2.573 3.6 11.85l5-24 5 24c7-5 .9-9.1 1.4-12.1.5-3 7.6-4.9 2.6-11.9 7.5 4.5 1.65 9.15 2.4 12.15s3.6 2.573 3.6 11.85l5-24 5 24c7-5 .9-9.1 1.4-12.1.5-3 7.6-4.9 2.6-11.9 7.5 4.5 1.65 9.15 2.4 12.15s3.6 2.573 3.6 11.85l5-24 5 24c7-5 .9-9.1 1.4-12.1.5-3 7.6-4.9 2.6-11.9 7.5 4.5 1.65 9.15 2.4 12.15s3.6 2.573 3.6 11.85l5-24 5 24h820V-1000h-2000V45.333h940z" fill-rule="evenodd" fill="#fff"/><path d="M-60 45.333c7-5 .9-9.1 1.4-12.1.5-3 7.6-4.9 2.6-11.9 7.5 4.5 1.65 9.15 2.4 12.15s3.6 2.573 3.6 11.85l5-24 5 24c7-5 .9-9.1 1.4-12.1.5-3 7.6-4.9 2.6-11.9 7.5 4.5 1.65 9.15 2.4 12.15s3.6 2.573 3.6 11.85l5-24 5 24c7-5 .9-9.1 1.4-12.1.5-3 7.6-4.9 2.6-11.9 7.5 4.5 1.65 9.15 2.4 12.15s3.6 2.573 3.6 11.85l5-24 5 24c7-5 .9-9.1 1.4-12.1.5-3 7.6-4.9 2.6-11.9 7.5 4.5 1.65 9.15 2.4 12.15s3.6 2.573 3.6 11.85l5-24 5 24c7-5 .9-9.1 1.4-12.1.5-3 7.6-4.9 2.6-11.9 7.5 4.5 1.65 9.15 2.4 12.15s3.6 2.573 3.6 11.85l5-24 5 24c7-5 .9-9.1 1.4-12.1.5-3 7.6-4.9 2.6-11.9 7.5 4.5 1.65 9.15 2.4 12.15s3.6 2.573 3.6 11.85l5-24 5 24c7-5 .9-9.1 1.4-12.1.5-3 7.6-4.9 2.6-11.9 7.5 4.5 1.65 9.15 2.4 12.15s3.6 2.573 3.6 11.85l5-24 5 24c7-5 .9-9.1 1.4-12.1.5-3 7.6-4.9 2.6-11.9 7.5 4.5 1.65 9.15 2.4 12.15s3.6 2.573 3.6 11.85l5-24 5 24c7-5 .9-9.1 1.4-12.1.5-3 7.6-4.9 2.6-11.9 7.5 4.5 1.65 9.15 2.4 12.15s3.6 2.573 3.6 11.85l5-24 5 24c7-5 .9-9.1 1.4-12.1.5-3 7.6-4.9 2.6-11.9 7.5 4.5 1.65 9.15 2.4 12.15s3.6 2.573 3.6 11.85l5-24 5 24c7-5 .9-9.1 1.4-12.1.5-3 7.6-4.9 2.6-11.9 7.5 4.5 1.65 9.15 2.4 12.15s3.6 2.573 3.6 11.85l5-24 5 24c7-5 .9-9.1 1.4-12.1.5-3 7.6-4.9 2.6-11.9 7.5 4.5 1.65 9.15 2.4 12.15s3.6 2.573 3.6 11.85l5-24 5 24h820V-1000h-2000V45.333h940z" fill="none" stroke-width=".1" stroke="#fff"/></mask></defs><g mask="url(#b)"><path fill="#f6f6f6" style="cursor:pointer" d="M-1000-1000h2000v2000h-2000z"/></g><defs><mask id="c"><path clip-rule="evenodd" d="M-60 45.333c7-5 .9-9.1 1.4-12.1.5-3 7.6-4.9 2.6-11.9 7.5 4.5 1.65 9.15 2.4 12.15s3.6 2.573 3.6 11.85l5-24 5 24c7-5 .9-9.1 1.4-12.1.5-3 7.6-4.9 2.6-11.9 7.5 4.5 1.65 9.15 2.4 12.15s3.6 2.573 3.6 11.85l5-24 5 24c7-5 .9-9.1 1.4-12.1.5-3 7.6-4.9 2.6-11.9 7.5 4.5 1.65 9.15 2.4 12.15s3.6 2.573 3.6 11.85l5-24 5 24c7-5 .9-9.1 1.4-12.1.5-3 7.6-4.9 2.6-11.9 7.5 4.5 1.65 9.15 2.4 12.15s3.6 2.573 3.6 11.85l5-24 5 24c7-5 .9-9.1 1.4-12.1.5-3 7.6-4.9 2.6-11.9 7.5 4.5 1.65 9.15 2.4 12.15s3.6 2.573 3.6 11.85l5-24 5 24c7-5 .9-9.1 1.4-12.1.5-3 7.6-4.9 2.6-11.9 7.5 4.5 1.65 9.15 2.4 12.15s3.6 2.573 3.6 11.85l5-24 5 24c7-5 .9-9.1 1.4-12.1.5-3 7.6-4.9 2.6-11.9 7.5 4.5 1.65 9.15 2.4 12.15s3.6 2.573 3.6 11.85l5-24 5 24c7-5 .9-9.1 1.4-12.1.5-3 7.6-4.9 2.6-11.9 7.5 4.5 1.65 9.15 2.4 12.15s3.6 2.573 3.6 11.85l5-24 5 24c7-5 .9-9.1 1.4-12.1.5-3 7.6-4.9 2.6-11.9 7.5 4.5 1.65 9.15 2.4 12.15s3.6 2.573 3.6 11.85l5-24 5 24c7-5 .9-9.1 1.4-12.1.5-3 7.6-4.9 2.6-11.9 7.5 4.5 1.65 9.15 2.4 12.15s3.6 2.573 3.6 11.85l5-24 5 24c7-5 .9-9.1 1.4-12.1.5-3 7.6-4.9 2.6-11.9 7.5 4.5 1.65 9.15 2.4 12.15s3.6 2.573 3.6 11.85l5-24 5 24c7-5 .9-9.1 1.4-12.1.5-3 7.6-4.9 2.6-11.9 7.5 4.5 1.65 9.15 2.4 12.15s3.6 2.573 3.6 11.85l5-24 5 24h820V1000h-2000V45.333h940z" fill-rule="evenodd" fill="#fff"/></mask></defs><g mask="url(#c)"><path fill="#0c6793" style="cursor:pointer" d="M-1000-1000h2000v2000h-2000z"/></g><path d="M-60 45.333c7-5 .9-9.1 1.4-12.1.5-3 7.6-4.9 2.6-11.9 7.5 4.5 1.65 9.15 2.4 12.15s3.6 2.573 3.6 11.85l5-24 5 24c7-5 .9-9.1 1.4-12.1.5-3 7.6-4.9 2.6-11.9 7.5 4.5 1.65 9.15 2.4 12.15s3.6 2.573 3.6 11.85l5-24 5 24c7-5 .9-9.1 1.4-12.1.5-3 7.6-4.9 2.6-11.9 7.5 4.5 1.65 9.15 2.4 12.15s3.6 2.573 3.6 11.85l5-24 5 24c7-5 .9-9.1 1.4-12.1.5-3 7.6-4.9 2.6-11.9 7.5 4.5 1.65 9.15 2.4 12.15s3.6 2.573 3.6 11.85l5-24 5 24c7-5 .9-9.1 1.4-12.1.5-3 7.6-4.9 2.6-11.9 7.5 4.5 1.65 9.15 2.4 12.15s3.6 2.573 3.6 11.85l5-24 5 24c7-5 .9-9.1 1.4-12.1.5-3 7.6-4.9 2.6-11.9 7.5 4.5 1.65 9.15 2.4 12.15s3.6 2.573 3.6 11.85l5-24 5 24c7-5 .9-9.1 1.4-12.1.5-3 7.6-4.9 2.6-11.9 7.5 4.5 1.65 9.15 2.4 12.15s3.6 2.573 3.6 11.85l5-24 5 24c7-5 .9-9.1 1.4-12.1.5-3 7.6-4.9 2.6-11.9 7.5 4.5 1.65 9.15 2.4 12.15s3.6 2.573 3.6 11.85l5-24 5 24c7-5 .9-9.1 1.4-12.1.5-3 7.6-4.9 2.6-11.9 7.5 4.5 1.65 9.15 2.4 12.15s3.6 2.573 3.6 11.85l5-24 5 24c7-5 .9-9.1 1.4-12.1.5-3 7.6-4.9 2.6-11.9 7.5 4.5 1.65 9.15 2.4 12.15s3.6 2.573 3.6 11.85l5-24 5 24c7-5 .9-9.1 1.4-12.1.5-3 7.6-4.9 2.6-11.9 7.5 4.5 1.65 9.15 2.4 12.15s3.6 2.573 3.6 11.85l5-24 5 24c7-5 .9-9.1 1.4-12.1.5-3 7.6-4.9 2.6-11.9 7.5 4.5 1.65 9.15 2.4 12.15s3.6 2.573 3.6 11.85l5-24 5 24" fill="none" stroke-linecap="round" stroke-linejoin="round" stroke-width=".5" stroke="#333"/></g><path d="M0 0h100v66.667H0z" fill="none" stroke-linecap="round" stroke-linejoin="round" stroke-width=".5" stroke="#333"/></g></svg>