<?xml version="1.0" encoding="UTF-8" standalone="no"?>
<svg xmlns="http://www.w3.org/2000/svg" preserveAspectRatio="xMidYMin slice" viewBox="-10 -10 120 86.667"><defs><mask id="a"><path fill="#fff" fill-rule="evenodd" d="M0 0h100v66.667H0z" clip-rule="evenodd"/></mask></defs><g mask="url(#a)"><path fill="#f0f0f0" fill-rule="evenodd" d="M0 0h100v66.667H0z"/><defs><mask id="b"><path fill="#fff" fill-rule="evenodd" stroke="#fff" stroke-width=".1" d="M-40 34.482h2.6c.15-1.318 1.024-2.359 2.472-2.345 1.601.016 1.617 1.682 3.148 1.12-.38-4.687-4.397-4.42-6.157-2.476-.55-2.284 1.098-3.914 3.123-3.926s2.418 1.826 3.285 1.633c-2.618-5.083-2.213-9.457 1.682-13.107 3.894 3.65 4.3 8.024 1.682 13.107.866.193 1.26-1.645 3.285-1.633s3.674 1.642 3.123 3.926c-1.76-1.944-5.777-2.211-6.157 2.476 1.53.562 1.547-1.104 3.148-1.12 1.6-.015 2.5 1.259 2.495 2.77-.005 1.434-1.264 2.582-2.937 2.538-1.672-.043-1.218-1.679-2.663-1.438-.889 3.549 2.668 5.86 5.737 3.66-1.887 4.15-1.183 9.845 2.287 11.619 3.47-1.774 4.174-7.47 2.287-11.619 3.069 2.2 6.626-.111 5.737-3.66-1.445-.24-.99 1.395-2.663 1.438-1.673.044-2.932-1.104-2.937-2.538q0-.216.023-.425c.15-1.318 1.024-2.359 2.472-2.345 1.601.016 1.617 1.682 3.148 1.12-.38-4.687-4.397-4.42-6.157-2.476-.55-2.284 1.098-3.914 3.123-3.926s2.418 1.826 3.285 1.633c-2.618-5.083-2.213-9.457 1.682-13.107 3.894 3.65 4.3 8.024 1.682 13.107.866.193 1.26-1.645 3.285-1.633s3.674 1.642 3.123 3.926c-1.76-1.944-5.777-2.211-6.157 2.476 1.53.562 1.547-1.104 3.148-1.12 1.6-.015 2.5 1.259 2.495 2.77-.005 1.434-1.264 2.582-2.937 2.538-1.672-.043-1.218-1.679-2.663-1.438-.889 3.549 2.668 5.86 5.737 3.66-1.887 4.15-1.183 9.845 2.287 11.619 3.47-1.774 4.174-7.47 2.287-11.619 3.069 2.2 6.626-.111 5.737-3.66-1.445-.24-.99 1.395-2.663 1.438-1.673.044-2.932-1.104-2.937-2.538q0-.216.023-.425c.15-1.318 1.024-2.359 2.472-2.345 1.601.016 1.617 1.682 3.148 1.12-.38-4.687-4.397-4.42-6.157-2.476-.55-2.284 1.098-3.914 3.123-3.926s2.418 1.826 3.285 1.633c-2.618-5.083-2.213-9.457 1.682-13.107 3.894 3.65 4.3 8.024 1.682 13.107.866.193 1.26-1.645 3.285-1.633s3.674 1.642 3.123 3.926c-1.76-1.944-5.777-2.211-6.157 2.476 1.53.562 1.547-1.104 3.148-1.12 1.6-.015 2.5 1.259 2.495 2.77-.005 1.434-1.264 2.582-2.937 2.538-1.672-.043-1.218-1.679-2.663-1.438-.889 3.549 2.668 5.86 5.737 3.66-1.887 4.15-1.183 9.845 2.287 11.619 3.47-1.774 4.174-7.47 2.287-11.619 3.069 2.2 6.626-.111 5.737-3.66-1.445-.24-.99 1.395-2.663 1.438-1.673.044-2.932-1.104-2.937-2.538q0-.216.023-.425c.15-1.318 1.024-2.359 2.472-2.345 1.601.016 1.617 1.682 3.148 1.12-.38-4.687-4.397-4.42-6.157-2.476-.55-2.284 1.098-3.914 3.123-3.926s2.418 1.826 3.285 1.633c-2.618-5.083-2.213-9.457 1.682-13.107 3.894 3.65 4.3 8.024 1.682 13.107.866.193 1.26-1.645 3.285-1.633s3.674 1.642 3.123 3.926c-1.76-1.944-5.777-2.211-6.157 2.476 1.53.562 1.547-1.104 3.148-1.12 1.6-.015 2.5 1.259 2.495 2.77-.005 1.434-1.264 2.582-2.937 2.538-1.672-.043-1.218-1.679-2.663-1.438-.889 3.549 2.668 5.86 5.737 3.66-1.887 4.15-1.183 9.845 2.287 11.619 3.47-1.774 4.174-7.47 2.287-11.619 3.069 2.2 6.626-.111 5.737-3.66-1.445-.24-.99 1.395-2.663 1.438-1.673.044-2.932-1.104-2.937-2.538q0-.216.023-.425c.15-1.318 1.024-2.359 2.472-2.345 1.601.016 1.617 1.682 3.148 1.12-.38-4.687-4.397-4.42-6.157-2.476-.55-2.284 1.098-3.914 3.123-3.926s2.418 1.826 3.285 1.633c-2.618-5.083-2.213-9.457 1.682-13.107 3.894 3.65 4.3 8.024 1.682 13.107.866.193 1.26-1.645 3.285-1.633s3.674 1.642 3.123 3.926c-1.76-1.944-5.777-2.211-6.157 2.476 1.53.562 1.547-1.104 3.148-1.12 1.6-.015 2.5 1.259 2.495 2.77-.005 1.434-1.264 2.582-2.937 2.538-1.672-.043-1.218-1.679-2.663-1.438-.889 3.549 2.668 5.86 5.737 3.66-1.887 4.15-1.183 9.845 2.287 11.619 3.47-1.774 4.174-7.47 2.287-11.619 3.069 2.2 6.626-.111 5.737-3.66-1.445-.24-.99 1.395-2.663 1.438-1.673.044-2.932-1.104-2.937-2.538q0-.216.023-.425c.15-1.318 1.024-2.359 2.472-2.345 1.601.016 1.617 1.682 3.148 1.12-.38-4.687-4.397-4.42-6.157-2.476-.55-2.284 1.098-3.914 3.123-3.926s2.418 1.826 3.285 1.633c-2.618-5.083-2.213-9.457 1.682-13.107 3.894 3.65 4.3 8.024 1.682 13.107.866.193 1.26-1.645 3.285-1.633s3.674 1.642 3.123 3.926c-1.76-1.944-5.777-2.211-6.157 2.476 1.53.562 1.547-1.104 3.148-1.12 1.6-.015 2.5 1.259 2.495 2.77-.005 1.434-1.264 2.582-2.937 2.538-1.672-.043-1.218-1.679-2.663-1.438-.889 3.549 2.668 5.86 5.737 3.66-1.887 4.15-1.183 9.845 2.287 11.619 3.47-1.774 4.174-7.47 2.287-11.619 3.069 2.2 6.626-.111 5.737-3.66-1.445-.24-.99 1.395-2.663 1.438-1.673.044-2.932-1.104-2.937-2.538q0-.216.023-.425c.15-1.318 1.024-2.359 2.472-2.345 1.601.016 1.617 1.682 3.148 1.12-.38-4.687-4.397-4.42-6.157-2.476-.55-2.284 1.098-3.914 3.123-3.926s2.418 1.826 3.285 1.633c-2.618-5.083-2.213-9.457 1.682-13.107 3.894 3.65 4.3 8.024 1.682 13.107.866.193 1.26-1.645 3.285-1.633s3.674 1.642 3.123 3.926c-1.76-1.944-5.777-2.211-6.157 2.476 1.53.562 1.547-1.104 3.148-1.12 1.6-.015 2.5 1.259 2.495 2.77-.005 1.434-1.264 2.582-2.937 2.538-1.672-.043-1.218-1.679-2.663-1.438-.889 3.549 2.668 5.86 5.737 3.66-1.887 4.15-1.183 9.845 2.287 11.619 3.47-1.774 4.174-7.47 2.287-11.619 3.069 2.2 6.626-.111 5.737-3.66-1.445-.24-.99 1.395-2.663 1.438-1.673.044-2.932-1.104-2.937-2.538q0-.216.023-.425c.15-1.318 1.024-2.359 2.472-2.345 1.601.016 1.617 1.682 3.148 1.12-.38-4.687-4.397-4.42-6.157-2.476-.55-2.284 1.098-3.914 3.123-3.926s2.418 1.826 3.285 1.633c-2.618-5.083-2.213-9.457 1.682-13.107 3.894 3.65 4.3 8.024 1.682 13.107.866.193 1.26-1.645 3.285-1.633s3.674 1.642 3.123 3.926c-1.76-1.944-5.777-2.211-6.157 2.476 1.53.562 1.547-1.104 3.148-1.12 1.6-.015 2.5 1.259 2.495 2.77-.005 1.434-1.264 2.582-2.937 2.538-1.672-.043-1.218-1.679-2.663-1.438-.889 3.549 2.668 5.86 5.737 3.66-1.887 4.15-1.183 9.845 2.287 11.619 3.47-1.774 4.174-7.47 2.287-11.619 3.069 2.2 6.626-.111 5.737-3.66-1.445-.24-.99 1.395-2.663 1.438-1.673.044-2.932-1.104-2.937-2.538q0-.216.023-.425c.15-1.318 1.024-2.359 2.472-2.345 1.601.016 1.617 1.682 3.148 1.12-.38-4.687-4.397-4.42-6.157-2.476-.55-2.284 1.098-3.914 3.123-3.926s2.418 1.826 3.285 1.633c-2.618-5.083-2.213-9.457 1.682-13.107 3.894 3.65 4.3 8.024 1.682 13.107.866.193 1.26-1.645 3.285-1.633s3.674 1.642 3.123 3.926c-1.76-1.944-5.777-2.211-6.157 2.476 1.53.562 1.547-1.104 3.148-1.12 1.6-.015 2.5 1.259 2.495 2.77-.005 1.434-1.264 2.582-2.937 2.538-1.672-.043-1.218-1.679-2.663-1.438-.889 3.549 2.668 5.86 5.737 3.66-1.887 4.15-1.183 9.845 2.287 11.619 3.47-1.774 4.174-7.47 2.287-11.619 3.069 2.2 6.626-.111 5.737-3.66-1.445-.24-.99 1.395-2.663 1.438-1.673.044-2.932-1.104-2.937-2.538q0-.216.023-.425c.15-1.318 1.024-2.359 2.472-2.345 1.601.016 1.617 1.682 3.148 1.12-.38-4.687-4.397-4.42-6.157-2.476-.55-2.284 1.098-3.914 3.123-3.926s2.418 1.826 3.285 1.633c-2.618-5.083-2.213-9.457 1.682-13.107 3.894 3.65 4.3 8.024 1.682 13.107.866.193 1.26-1.645 3.285-1.633s3.674 1.642 3.123 3.926c-1.76-1.944-5.777-2.211-6.157 2.476 1.53.562 1.547-1.104 3.148-1.12 1.6-.015 2.5 1.259 2.495 2.77-.005 1.434-1.264 2.582-2.937 2.538-1.672-.043-1.218-1.679-2.663-1.438-.889 3.549 2.668 5.86 5.737 3.66-1.887 4.15-1.183 9.845 2.287 11.619 3.47-1.774 4.174-7.47 2.287-11.619 3.069 2.2 6.626-.111 5.737-3.66-1.445-.24-.99 1.395-2.663 1.438-1.673.044-2.932-1.104-2.937-2.538q0-.216.023-.425l477.37 91.438a600 600 0 1 0-1178.55 7.257z" clip-rule="evenodd"/></mask></defs><g mask="url(#b)"><path fill="#f6f6f6" d="M-1000-1000h2000v2000h-2000z"/></g><defs><mask id="c"><path fill="#fff" fill-rule="evenodd" d="M-40 34.482h2.6c.15-1.318 1.024-2.359 2.472-2.345 1.601.016 1.617 1.682 3.148 1.12-.38-4.687-4.397-4.42-6.157-2.476-.55-2.284 1.098-3.914 3.123-3.926s2.418 1.826 3.285 1.633c-2.618-5.083-2.213-9.457 1.682-13.107 3.894 3.65 4.3 8.024 1.682 13.107.866.193 1.26-1.645 3.285-1.633s3.674 1.642 3.123 3.926c-1.76-1.944-5.777-2.211-6.157 2.476 1.53.562 1.547-1.104 3.148-1.12 1.6-.015 2.5 1.259 2.495 2.77-.005 1.434-1.264 2.582-2.937 2.538-1.672-.043-1.218-1.679-2.663-1.438-.889 3.549 2.668 5.86 5.737 3.66-1.887 4.15-1.183 9.845 2.287 11.619 3.47-1.774 4.174-7.47 2.287-11.619 3.069 2.2 6.626-.111 5.737-3.66-1.445-.24-.99 1.395-2.663 1.438-1.673.044-2.932-1.104-2.937-2.538q0-.216.023-.425c.15-1.318 1.024-2.359 2.472-2.345 1.601.016 1.617 1.682 3.148 1.12-.38-4.687-4.397-4.42-6.157-2.476-.55-2.284 1.098-3.914 3.123-3.926s2.418 1.826 3.285 1.633c-2.618-5.083-2.213-9.457 1.682-13.107 3.894 3.65 4.3 8.024 1.682 13.107.866.193 1.26-1.645 3.285-1.633s3.674 1.642 3.123 3.926c-1.76-1.944-5.777-2.211-6.157 2.476 1.53.562 1.547-1.104 3.148-1.12 1.6-.015 2.5 1.259 2.495 2.77-.005 1.434-1.264 2.582-2.937 2.538-1.672-.043-1.218-1.679-2.663-1.438-.889 3.549 2.668 5.86 5.737 3.66-1.887 4.15-1.183 9.845 2.287 11.619 3.47-1.774 4.174-7.47 2.287-11.619 3.069 2.2 6.626-.111 5.737-3.66-1.445-.24-.99 1.395-2.663 1.438-1.673.044-2.932-1.104-2.937-2.538q0-.216.023-.425c.15-1.318 1.024-2.359 2.472-2.345 1.601.016 1.617 1.682 3.148 1.12-.38-4.687-4.397-4.42-6.157-2.476-.55-2.284 1.098-3.914 3.123-3.926s2.418 1.826 3.285 1.633c-2.618-5.083-2.213-9.457 1.682-13.107 3.894 3.65 4.3 8.024 1.682 13.107.866.193 1.26-1.645 3.285-1.633s3.674 1.642 3.123 3.926c-1.76-1.944-5.777-2.211-6.157 2.476 1.53.562 1.547-1.104 3.148-1.12 1.6-.015 2.5 1.259 2.495 2.77-.005 1.434-1.264 2.582-2.937 2.538-1.672-.043-1.218-1.679-2.663-1.438-.889 3.549 2.668 5.86 5.737 3.66-1.887 4.15-1.183 9.845 2.287 11.619 3.47-1.774 4.174-7.47 2.287-11.619 3.069 2.2 6.626-.111 5.737-3.66-1.445-.24-.99 1.395-2.663 1.438-1.673.044-2.932-1.104-2.937-2.538q0-.216.023-.425c.15-1.318 1.024-2.359 2.472-2.345 1.601.016 1.617 1.682 3.148 1.12-.38-4.687-4.397-4.42-6.157-2.476-.55-2.284 1.098-3.914 3.123-3.926s2.418 1.826 3.285 1.633c-2.618-5.083-2.213-9.457 1.682-13.107 3.894 3.65 4.3 8.024 1.682 13.107.866.193 1.26-1.645 3.285-1.633s3.674 1.642 3.123 3.926c-1.76-1.944-5.777-2.211-6.157 2.476 1.53.562 1.547-1.104 3.148-1.12 1.6-.015 2.5 1.259 2.495 2.77-.005 1.434-1.264 2.582-2.937 2.538-1.672-.043-1.218-1.679-2.663-1.438-.889 3.549 2.668 5.86 5.737 3.66-1.887 4.15-1.183 9.845 2.287 11.619 3.47-1.774 4.174-7.47 2.287-11.619 3.069 2.2 6.626-.111 5.737-3.66-1.445-.24-.99 1.395-2.663 1.438-1.673.044-2.932-1.104-2.937-2.538q0-.216.023-.425c.15-1.318 1.024-2.359 2.472-2.345 1.601.016 1.617 1.682 3.148 1.12-.38-4.687-4.397-4.42-6.157-2.476-.55-2.284 1.098-3.914 3.123-3.926s2.418 1.826 3.285 1.633c-2.618-5.083-2.213-9.457 1.682-13.107 3.894 3.65 4.3 8.024 1.682 13.107.866.193 1.26-1.645 3.285-1.633s3.674 1.642 3.123 3.926c-1.76-1.944-5.777-2.211-6.157 2.476 1.53.562 1.547-1.104 3.148-1.12 1.6-.015 2.5 1.259 2.495 2.77-.005 1.434-1.264 2.582-2.937 2.538-1.672-.043-1.218-1.679-2.663-1.438-.889 3.549 2.668 5.86 5.737 3.66-1.887 4.15-1.183 9.845 2.287 11.619 3.47-1.774 4.174-7.47 2.287-11.619 3.069 2.2 6.626-.111 5.737-3.66-1.445-.24-.99 1.395-2.663 1.438-1.673.044-2.932-1.104-2.937-2.538q0-.216.023-.425c.15-1.318 1.024-2.359 2.472-2.345 1.601.016 1.617 1.682 3.148 1.12-.38-4.687-4.397-4.42-6.157-2.476-.55-2.284 1.098-3.914 3.123-3.926s2.418 1.826 3.285 1.633c-2.618-5.083-2.213-9.457 1.682-13.107 3.894 3.65 4.3 8.024 1.682 13.107.866.193 1.26-1.645 3.285-1.633s3.674 1.642 3.123 3.926c-1.76-1.944-5.777-2.211-6.157 2.476 1.53.562 1.547-1.104 3.148-1.12 1.6-.015 2.5 1.259 2.495 2.77-.005 1.434-1.264 2.582-2.937 2.538-1.672-.043-1.218-1.679-2.663-1.438-.889 3.549 2.668 5.86 5.737 3.66-1.887 4.15-1.183 9.845 2.287 11.619 3.47-1.774 4.174-7.47 2.287-11.619 3.069 2.2 6.626-.111 5.737-3.66-1.445-.24-.99 1.395-2.663 1.438-1.673.044-2.932-1.104-2.937-2.538q0-.216.023-.425c.15-1.318 1.024-2.359 2.472-2.345 1.601.016 1.617 1.682 3.148 1.12-.38-4.687-4.397-4.42-6.157-2.476-.55-2.284 1.098-3.914 3.123-3.926s2.418 1.826 3.285 1.633c-2.618-5.083-2.213-9.457 1.682-13.107 3.894 3.65 4.3 8.024 1.682 13.107.866.193 1.26-1.645 3.285-1.633s3.674 1.642 3.123 3.926c-1.76-1.944-5.777-2.211-6.157 2.476 1.53.562 1.547-1.104 3.148-1.12 1.6-.015 2.5 1.259 2.495 2.77-.005 1.434-1.264 2.582-2.937 2.538-1.672-.043-1.218-1.679-2.663-1.438-.889 3.549 2.668 5.86 5.737 3.66-1.887 4.15-1.183 9.845 2.287 11.619 3.47-1.774 4.174-7.47 2.287-11.619 3.069 2.2 6.626-.111 5.737-3.66-1.445-.24-.99 1.395-2.663 1.438-1.673.044-2.932-1.104-2.937-2.538q0-.216.023-.425c.15-1.318 1.024-2.359 2.472-2.345 1.601.016 1.617 1.682 3.148 1.12-.38-4.687-4.397-4.42-6.157-2.476-.55-2.284 1.098-3.914 3.123-3.926s2.418 1.826 3.285 1.633c-2.618-5.083-2.213-9.457 1.682-13.107 3.894 3.65 4.3 8.024 1.682 13.107.866.193 1.26-1.645 3.285-1.633s3.674 1.642 3.123 3.926c-1.76-1.944-5.777-2.211-6.157 2.476 1.53.562 1.547-1.104 3.148-1.12 1.6-.015 2.5 1.259 2.495 2.77-.005 1.434-1.264 2.582-2.937 2.538-1.672-.043-1.218-1.679-2.663-1.438-.889 3.549 2.668 5.86 5.737 3.66-1.887 4.15-1.183 9.845 2.287 11.619 3.47-1.774 4.174-7.47 2.287-11.619 3.069 2.2 6.626-.111 5.737-3.66-1.445-.24-.99 1.395-2.663 1.438-1.673.044-2.932-1.104-2.937-2.538q0-.216.023-.425c.15-1.318 1.024-2.359 2.472-2.345 1.601.016 1.617 1.682 3.148 1.12-.38-4.687-4.397-4.42-6.157-2.476-.55-2.284 1.098-3.914 3.123-3.926s2.418 1.826 3.285 1.633c-2.618-5.083-2.213-9.457 1.682-13.107 3.894 3.65 4.3 8.024 1.682 13.107.866.193 1.26-1.645 3.285-1.633s3.674 1.642 3.123 3.926c-1.76-1.944-5.777-2.211-6.157 2.476 1.53.562 1.547-1.104 3.148-1.12 1.6-.015 2.5 1.259 2.495 2.77-.005 1.434-1.264 2.582-2.937 2.538-1.672-.043-1.218-1.679-2.663-1.438-.889 3.549 2.668 5.86 5.737 3.66-1.887 4.15-1.183 9.845 2.287 11.619 3.47-1.774 4.174-7.47 2.287-11.619 3.069 2.2 6.626-.111 5.737-3.66-1.445-.24-.99 1.395-2.663 1.438-1.673.044-2.932-1.104-2.937-2.538q0-.216.023-.425c.15-1.318 1.024-2.359 2.472-2.345 1.601.016 1.617 1.682 3.148 1.12-.38-4.687-4.397-4.42-6.157-2.476-.55-2.284 1.098-3.914 3.123-3.926s2.418 1.826 3.285 1.633c-2.618-5.083-2.213-9.457 1.682-13.107 3.894 3.65 4.3 8.024 1.682 13.107.866.193 1.26-1.645 3.285-1.633s3.674 1.642 3.123 3.926c-1.76-1.944-5.777-2.211-6.157 2.476 1.53.562 1.547-1.104 3.148-1.12 1.6-.015 2.5 1.259 2.495 2.77-.005 1.434-1.264 2.582-2.937 2.538-1.672-.043-1.218-1.679-2.663-1.438-.889 3.549 2.668 5.86 5.737 3.66-1.887 4.15-1.183 9.845 2.287 11.619 3.47-1.774 4.174-7.47 2.287-11.619 3.069 2.2 6.626-.111 5.737-3.66-1.445-.24-.99 1.395-2.663 1.438-1.673.044-2.932-1.104-2.937-2.538q0-.216.023-.425l477.37-93.736a600 600 0 1 1-1181.246 7.307z" clip-rule="evenodd"/></mask></defs><g mask="url(#c)"><path fill="#f2bc51" d="M-1000-1000h2000v2000h-2000z"/></g><path fill="none" stroke="#333" stroke-linecap="round" stroke-linejoin="round" stroke-width=".5" d="M-40 34.482h2.6c.15-1.318 1.024-2.359 2.472-2.345 1.601.016 1.617 1.682 3.148 1.12-.38-4.687-4.397-4.42-6.157-2.476-.55-2.284 1.098-3.914 3.123-3.926s2.418 1.826 3.285 1.633c-2.618-5.083-2.213-9.457 1.682-13.107 3.894 3.65 4.3 8.024 1.682 13.107.866.193 1.26-1.645 3.285-1.633s3.674 1.642 3.123 3.926c-1.76-1.944-5.777-2.211-6.157 2.476 1.53.562 1.547-1.104 3.148-1.12 1.6-.015 2.5 1.259 2.495 2.77-.005 1.434-1.264 2.582-2.937 2.538-1.672-.043-1.218-1.679-2.663-1.438-.889 3.549 2.668 5.86 5.737 3.66-1.887 4.15-1.183 9.845 2.287 11.619 3.47-1.774 4.174-7.47 2.287-11.619 3.069 2.2 6.626-.111 5.737-3.66-1.445-.24-.99 1.395-2.663 1.438-1.673.044-2.932-1.104-2.937-2.538q0-.216.023-.425c.15-1.318 1.024-2.359 2.472-2.345 1.601.016 1.617 1.682 3.148 1.12-.38-4.687-4.397-4.42-6.157-2.476-.55-2.284 1.098-3.914 3.123-3.926s2.418 1.826 3.285 1.633c-2.618-5.083-2.213-9.457 1.682-13.107 3.894 3.65 4.3 8.024 1.682 13.107.866.193 1.26-1.645 3.285-1.633s3.674 1.642 3.123 3.926c-1.76-1.944-5.777-2.211-6.157 2.476 1.53.562 1.547-1.104 3.148-1.12 1.6-.015 2.5 1.259 2.495 2.77-.005 1.434-1.264 2.582-2.937 2.538-1.672-.043-1.218-1.679-2.663-1.438-.889 3.549 2.668 5.86 5.737 3.66-1.887 4.15-1.183 9.845 2.287 11.619 3.47-1.774 4.174-7.47 2.287-11.619 3.069 2.2 6.626-.111 5.737-3.66-1.445-.24-.99 1.395-2.663 1.438-1.673.044-2.932-1.104-2.937-2.538q0-.216.023-.425c.15-1.318 1.024-2.359 2.472-2.345 1.601.016 1.617 1.682 3.148 1.12-.38-4.687-4.397-4.42-6.157-2.476-.55-2.284 1.098-3.914 3.123-3.926s2.418 1.826 3.285 1.633c-2.618-5.083-2.213-9.457 1.682-13.107 3.894 3.65 4.3 8.024 1.682 13.107.866.193 1.26-1.645 3.285-1.633s3.674 1.642 3.123 3.926c-1.76-1.944-5.777-2.211-6.157 2.476 1.53.562 1.547-1.104 3.148-1.12 1.6-.015 2.5 1.259 2.495 2.77-.005 1.434-1.264 2.582-2.937 2.538-1.672-.043-1.218-1.679-2.663-1.438-.889 3.549 2.668 5.86 5.737 3.66-1.887 4.15-1.183 9.845 2.287 11.619 3.47-1.774 4.174-7.47 2.287-11.619 3.069 2.2 6.626-.111 5.737-3.66-1.445-.24-.99 1.395-2.663 1.438-1.673.044-2.932-1.104-2.937-2.538q0-.216.023-.425c.15-1.318 1.024-2.359 2.472-2.345 1.601.016 1.617 1.682 3.148 1.12-.38-4.687-4.397-4.42-6.157-2.476-.55-2.284 1.098-3.914 3.123-3.926s2.418 1.826 3.285 1.633c-2.618-5.083-2.213-9.457 1.682-13.107 3.894 3.65 4.3 8.024 1.682 13.107.866.193 1.26-1.645 3.285-1.633s3.674 1.642 3.123 3.926c-1.76-1.944-5.777-2.211-6.157 2.476 1.53.562 1.547-1.104 3.148-1.12 1.6-.015 2.5 1.259 2.495 2.77-.005 1.434-1.264 2.582-2.937 2.538-1.672-.043-1.218-1.679-2.663-1.438-.889 3.549 2.668 5.86 5.737 3.66-1.887 4.15-1.183 9.845 2.287 11.619 3.47-1.774 4.174-7.47 2.287-11.619 3.069 2.2 6.626-.111 5.737-3.66-1.445-.24-.99 1.395-2.663 1.438-1.673.044-2.932-1.104-2.937-2.538q0-.216.023-.425c.15-1.318 1.024-2.359 2.472-2.345 1.601.016 1.617 1.682 3.148 1.12-.38-4.687-4.397-4.42-6.157-2.476-.55-2.284 1.098-3.914 3.123-3.926s2.418 1.826 3.285 1.633c-2.618-5.083-2.213-9.457 1.682-13.107 3.894 3.65 4.3 8.024 1.682 13.107.866.193 1.26-1.645 3.285-1.633s3.674 1.642 3.123 3.926c-1.76-1.944-5.777-2.211-6.157 2.476 1.53.562 1.547-1.104 3.148-1.12 1.6-.015 2.5 1.259 2.495 2.77-.005 1.434-1.264 2.582-2.937 2.538-1.672-.043-1.218-1.679-2.663-1.438-.889 3.549 2.668 5.86 5.737 3.66-1.887 4.15-1.183 9.845 2.287 11.619 3.47-1.774 4.174-7.47 2.287-11.619 3.069 2.2 6.626-.111 5.737-3.66-1.445-.24-.99 1.395-2.663 1.438-1.673.044-2.932-1.104-2.937-2.538q0-.216.023-.425c.15-1.318 1.024-2.359 2.472-2.345 1.601.016 1.617 1.682 3.148 1.12-.38-4.687-4.397-4.42-6.157-2.476-.55-2.284 1.098-3.914 3.123-3.926s2.418 1.826 3.285 1.633c-2.618-5.083-2.213-9.457 1.682-13.107 3.894 3.65 4.3 8.024 1.682 13.107.866.193 1.26-1.645 3.285-1.633s3.674 1.642 3.123 3.926c-1.76-1.944-5.777-2.211-6.157 2.476 1.53.562 1.547-1.104 3.148-1.12 1.6-.015 2.5 1.259 2.495 2.77-.005 1.434-1.264 2.582-2.937 2.538-1.672-.043-1.218-1.679-2.663-1.438-.889 3.549 2.668 5.86 5.737 3.66-1.887 4.15-1.183 9.845 2.287 11.619 3.47-1.774 4.174-7.47 2.287-11.619 3.069 2.2 6.626-.111 5.737-3.66-1.445-.24-.99 1.395-2.663 1.438-1.673.044-2.932-1.104-2.937-2.538q0-.216.023-.425c.15-1.318 1.024-2.359 2.472-2.345 1.601.016 1.617 1.682 3.148 1.12-.38-4.687-4.397-4.42-6.157-2.476-.55-2.284 1.098-3.914 3.123-3.926s2.418 1.826 3.285 1.633c-2.618-5.083-2.213-9.457 1.682-13.107 3.894 3.65 4.3 8.024 1.682 13.107.866.193 1.26-1.645 3.285-1.633s3.674 1.642 3.123 3.926c-1.76-1.944-5.777-2.211-6.157 2.476 1.53.562 1.547-1.104 3.148-1.12 1.6-.015 2.5 1.259 2.495 2.77-.005 1.434-1.264 2.582-2.937 2.538-1.672-.043-1.218-1.679-2.663-1.438-.889 3.549 2.668 5.86 5.737 3.66-1.887 4.15-1.183 9.845 2.287 11.619 3.47-1.774 4.174-7.47 2.287-11.619 3.069 2.2 6.626-.111 5.737-3.66-1.445-.24-.99 1.395-2.663 1.438-1.673.044-2.932-1.104-2.937-2.538q0-.216.023-.425c.15-1.318 1.024-2.359 2.472-2.345 1.601.016 1.617 1.682 3.148 1.12-.38-4.687-4.397-4.42-6.157-2.476-.55-2.284 1.098-3.914 3.123-3.926s2.418 1.826 3.285 1.633c-2.618-5.083-2.213-9.457 1.682-13.107 3.894 3.65 4.3 8.024 1.682 13.107.866.193 1.26-1.645 3.285-1.633s3.674 1.642 3.123 3.926c-1.76-1.944-5.777-2.211-6.157 2.476 1.53.562 1.547-1.104 3.148-1.12 1.6-.015 2.5 1.259 2.495 2.77-.005 1.434-1.264 2.582-2.937 2.538-1.672-.043-1.218-1.679-2.663-1.438-.889 3.549 2.668 5.86 5.737 3.66-1.887 4.15-1.183 9.845 2.287 11.619 3.47-1.774 4.174-7.47 2.287-11.619 3.069 2.2 6.626-.111 5.737-3.66-1.445-.24-.99 1.395-2.663 1.438-1.673.044-2.932-1.104-2.937-2.538q0-.216.023-.425c.15-1.318 1.024-2.359 2.472-2.345 1.601.016 1.617 1.682 3.148 1.12-.38-4.687-4.397-4.42-6.157-2.476-.55-2.284 1.098-3.914 3.123-3.926s2.418 1.826 3.285 1.633c-2.618-5.083-2.213-9.457 1.682-13.107 3.894 3.65 4.3 8.024 1.682 13.107.866.193 1.26-1.645 3.285-1.633s3.674 1.642 3.123 3.926c-1.76-1.944-5.777-2.211-6.157 2.476 1.53.562 1.547-1.104 3.148-1.12 1.6-.015 2.5 1.259 2.495 2.77-.005 1.434-1.264 2.582-2.937 2.538-1.672-.043-1.218-1.679-2.663-1.438-.889 3.549 2.668 5.86 5.737 3.66-1.887 4.15-1.183 9.845 2.287 11.619 3.47-1.774 4.174-7.47 2.287-11.619 3.069 2.2 6.626-.111 5.737-3.66-1.445-.24-.99 1.395-2.663 1.438-1.673.044-2.932-1.104-2.937-2.538q0-.216.023-.425c.15-1.318 1.024-2.359 2.472-2.345 1.601.016 1.617 1.682 3.148 1.12-.38-4.687-4.397-4.42-6.157-2.476-.55-2.284 1.098-3.914 3.123-3.926s2.418 1.826 3.285 1.633c-2.618-5.083-2.213-9.457 1.682-13.107 3.894 3.65 4.3 8.024 1.682 13.107.866.193 1.26-1.645 3.285-1.633s3.674 1.642 3.123 3.926c-1.76-1.944-5.777-2.211-6.157 2.476 1.53.562 1.547-1.104 3.148-1.12 1.6-.015 2.5 1.259 2.495 2.77-.005 1.434-1.264 2.582-2.937 2.538-1.672-.043-1.218-1.679-2.663-1.438-.889 3.549 2.668 5.86 5.737 3.66-1.887 4.15-1.183 9.845 2.287 11.619 3.47-1.774 4.174-7.47 2.287-11.619 3.069 2.2 6.626-.111 5.737-3.66-1.445-.24-.99 1.395-2.663 1.438-1.673.044-2.932-1.104-2.937-2.538q0-.216.023-.425"/></g><path fill="none" stroke="#333" stroke-linecap="round" stroke-linejoin="round" stroke-width=".5" d="M0 0h100v66.667H0z"/></svg>