<?xml version="1.0" encoding="UTF-8" standalone="no"?>
<svg xmlns="http://www.w3.org/2000/svg" preserveAspectRatio="xMidYMin slice" viewBox="-10 -10 120 86.667"><defs><mask id="a"><path fill="#fff" fill-rule="evenodd" d="M0 0h100v66.667H0z" clip-rule="evenodd"/></mask></defs><g mask="url(#a)"><path fill="#f0f0f0" fill-rule="evenodd" d="M0 0h100v66.667H0z"/><defs><mask id="b"><path fill="#fff" fill-rule="evenodd" stroke="#fff" stroke-width=".1" d="M-40 23.333h90v20h90v-20L639.97 125.92A600 600 0 1 0-548.36 60.99z" clip-rule="evenodd"/></mask></defs><g mask="url(#b)"><path fill="#f6f6f6" d="M-1000-1000h2000v2000h-2000z"/></g><defs><mask id="c"><path fill="#fff" fill-rule="evenodd" d="M-40 23.333h90v20h90v-20l499.97-82.587a600 600 0 1 1-1165.25-61.199z" clip-rule="evenodd"/></mask></defs><g mask="url(#c)"><path fill="#f2bc51" d="M-1000-1000h2000v2000h-2000z"/></g><path fill="none" stroke="#333" stroke-linecap="round" stroke-linejoin="round" stroke-width=".5" d="M-40 23.333h90v20h90v-20"/></g><path fill="none" stroke="#333" stroke-linecap="round" stroke-linejoin="round" stroke-width=".5" d="M0 0h100v66.667H0z"/></svg>