<?xml version="1.0" encoding="UTF-8" standalone="no"?>
<svg xmlns="http://www.w3.org/2000/svg" preserveAspectRatio="xMidYMin slice" viewBox="-10 -10 120 86.667"><defs><mask id="a"><path fill="#fff" fill-rule="evenodd" d="M0 0h100v66.667H0z" clip-rule="evenodd"/></mask></defs><g mask="url(#a)"><path fill="#f0f0f0" fill-rule="evenodd" d="M0 0h100v66.667H0z"/><defs><mask id="b"><path fill="#fff" fill-rule="evenodd" stroke="#fff" stroke-width=".1" d="M-40 40h5V30c0-1.841 2.239-3.333 5-3.333s5 1.492 5 3.333v10h10V30c0-1.841 2.239-3.333 5-3.333S-5 28.159-5 30v10H5V30c0-1.841 2.239-3.333 5-3.333s5 1.492 5 3.333v10h10V30c0-1.841 2.239-3.333 5-3.333s5 1.492 5 3.333v10h10V30c0-1.841 2.239-3.333 5-3.333s5 1.492 5 3.333v10h10V30c0-1.841 2.239-3.333 5-3.333s5 1.492 5 3.333v10h10V30c0-1.841 2.239-3.333 5-3.333s5 1.492 5 3.333v10h10V30c0-1.841 2.239-3.333 5-3.333s5 1.492 5 3.333v10h10V30c0-1.841 2.239-3.333 5-3.333s5 1.492 5 3.333v10h10V30c0-1.841 2.239-3.333 5-3.333s5 1.492 5 3.333v10h10V30c0-1.841 2.239-3.333 5-3.333s5 1.492 5 3.333v10h5l459.97 85.92a600 600 0 1 0-1170.768 41.324z" clip-rule="evenodd"/></mask></defs><g mask="url(#b)"><path fill="#f6f6f6" d="M-1000-1000h2000v2000h-2000z"/></g><defs><mask id="c"><path fill="#fff" fill-rule="evenodd" d="M-40 40h5V30c0-1.841 2.239-3.333 5-3.333s5 1.492 5 3.333v10h10V30c0-1.841 2.239-3.333 5-3.333S-5 28.159-5 30v10H5V30c0-1.841 2.239-3.333 5-3.333s5 1.492 5 3.333v10h10V30c0-1.841 2.239-3.333 5-3.333s5 1.492 5 3.333v10h10V30c0-1.841 2.239-3.333 5-3.333s5 1.492 5 3.333v10h10V30c0-1.841 2.239-3.333 5-3.333s5 1.492 5 3.333v10h10V30c0-1.841 2.239-3.333 5-3.333s5 1.492 5 3.333v10h10V30c0-1.841 2.239-3.333 5-3.333s5 1.492 5 3.333v10h10V30c0-1.841 2.239-3.333 5-3.333s5 1.492 5 3.333v10h10V30c0-1.841 2.239-3.333 5-3.333s5 1.492 5 3.333v10h10V30c0-1.841 2.239-3.333 5-3.333s5 1.492 5 3.333v10h5l459.97-99.254a600 600 0 1 1-1186.3 42.995z" clip-rule="evenodd"/></mask></defs><g mask="url(#c)"><path fill="#0c6793" d="M-1000-1000h2000v2000h-2000z"/></g><path fill="none" stroke="#333" stroke-linecap="round" stroke-linejoin="round" stroke-width=".5" d="M-40 40h5V30c0-1.841 2.239-3.333 5-3.333s5 1.492 5 3.333v10h10V30c0-1.841 2.239-3.333 5-3.333S-5 28.159-5 30v10H5V30c0-1.841 2.239-3.333 5-3.333s5 1.492 5 3.333v10h10V30c0-1.841 2.239-3.333 5-3.333s5 1.492 5 3.333v10h10V30c0-1.841 2.239-3.333 5-3.333s5 1.492 5 3.333v10h10V30c0-1.841 2.239-3.333 5-3.333s5 1.492 5 3.333v10h10V30c0-1.841 2.239-3.333 5-3.333s5 1.492 5 3.333v10h10V30c0-1.841 2.239-3.333 5-3.333s5 1.492 5 3.333v10h10V30c0-1.841 2.239-3.333 5-3.333s5 1.492 5 3.333v10h10V30c0-1.841 2.239-3.333 5-3.333s5 1.492 5 3.333v10h10V30c0-1.841 2.239-3.333 5-3.333s5 1.492 5 3.333v10h5"/></g><path fill="none" stroke="#333" stroke-linecap="round" stroke-linejoin="round" stroke-width=".5" d="M0 0h100v66.667H0z"/></svg>