<?xml version="1.0" encoding="UTF-8" standalone="no"?>
<svg xmlns="http://www.w3.org/2000/svg" preserveAspectRatio="xMidYMin slice" viewBox="-10 -10 120 86.667"><defs><mask id="a"><path fill="#fff" fill-rule="evenodd" d="M0 0h100v66.667H0z" clip-rule="evenodd"/></mask></defs><g mask="url(#a)"><path fill="#f0f0f0" fill-rule="evenodd" d="M0 0h100v66.667H0z"/><defs><mask id="b"><path fill="#fff" fill-rule="evenodd" stroke="#fff" stroke-width=".1" d="M-40 45.333c7.25-4.75 2.475-8.875 3.1-11.875s6.65-4.875 1.9-12.125c7.25 4.75 2.475 8.875 3.1 11.875s6.65 4.875 1.9 12.125c7.25-4.75 2.475-8.875 3.1-11.875s6.65-4.875 1.9-12.125c7.25 4.75 2.475 8.875 3.1 11.875s6.65 4.875 1.9 12.125c7.25-4.75 2.475-8.875 3.1-11.875s6.65-4.875 1.9-12.125c7.25 4.75 2.475 8.875 3.1 11.875s6.65 4.875 1.9 12.125c7.25-4.75 2.475-8.875 3.1-11.875S-.25 28.583-5 21.333c7.25 4.75 2.475 8.875 3.1 11.875S4.75 38.083 0 45.333c7.25-4.75 2.475-8.875 3.1-11.875S9.75 28.583 5 21.333c7.25 4.75 2.475 8.875 3.1 11.875s6.65 4.875 1.9 12.125c7.25-4.75 2.475-8.875 3.1-11.875s6.65-4.875 1.9-12.125c7.25 4.75 2.475 8.875 3.1 11.875s6.65 4.875 1.9 12.125c7.25-4.75 2.475-8.875 3.1-11.875s6.65-4.875 1.9-12.125c7.25 4.75 2.475 8.875 3.1 11.875s6.65 4.875 1.9 12.125c7.25-4.75 2.475-8.875 3.1-11.875s6.65-4.875 1.9-12.125c7.25 4.75 2.475 8.875 3.1 11.875s6.65 4.875 1.9 12.125c7.25-4.75 2.475-8.875 3.1-11.875s6.65-4.875 1.9-12.125c7.25 4.75 2.475 8.875 3.1 11.875s6.65 4.875 1.9 12.125c7.25-4.75 2.475-8.875 3.1-11.875s6.65-4.875 1.9-12.125c7.25 4.75 2.475 8.875 3.1 11.875s6.65 4.875 1.9 12.125c7.25-4.75 2.475-8.875 3.1-11.875s6.65-4.875 1.9-12.125c7.25 4.75 2.475 8.875 3.1 11.875s6.65 4.875 1.9 12.125c7.25-4.75 2.475-8.875 3.1-11.875s6.65-4.875 1.9-12.125c7.25 4.75 2.475 8.875 3.1 11.875s6.65 4.875 1.9 12.125c7.25-4.75 2.475-8.875 3.1-11.875s6.65-4.875 1.9-12.125c7.25 4.75 2.475 8.875 3.1 11.875s6.65 4.875 1.9 12.125c7.25-4.75 2.475-8.875 3.1-11.875s6.65-4.875 1.9-12.125c7.25 4.75 2.475 8.875 3.1 11.875s6.65 4.875 1.9 12.125c7.25-4.75 2.475-8.875 3.1-11.875s6.65-4.875 1.9-12.125c7.25 4.75 2.475 8.875 3.1 11.875s6.65 4.875 1.9 12.125c7.25-4.75 2.475-8.875 3.1-11.875s6.65-4.875 1.9-12.125c7.25 4.75 2.475 8.875 3.1 11.875s6.65 4.875 1.9 12.125c7.25-4.75 2.475-8.875 3.1-11.875s6.65-4.875 1.9-12.125c7.25 4.75 2.475 8.875 3.1 11.875s6.65 4.875 1.9 12.125c7.25-4.75 2.475-8.875 3.1-11.875s6.65-4.875 1.9-12.125c7.25 4.75 2.475 8.875 3.1 11.875s6.65 4.875 1.9 12.125c7.25-4.75 2.475-8.875 3.1-11.875s6.65-4.875 1.9-12.125c7.25 4.75 2.475 8.875 3.1 11.875s6.65 4.875 1.9 12.125c7.25-4.75 2.475-8.875 3.1-11.875s6.65-4.875 1.9-12.125c7.25 4.75 2.475 8.875 3.1 11.875s6.65 4.875 1.9 12.125c7.25-4.75 2.475-8.875 3.1-11.875s6.65-4.875 1.9-12.125c7.25 4.75 2.475 8.875 3.1 11.875s6.65 4.875 1.9 12.125c7.25-4.75 2.475-8.875 3.1-11.875s6.65-4.875 1.9-12.125c7.25 4.75 2.475 8.875 3.1 11.875s6.65 4.875 1.9 12.125l459.97 80.587A600 600 0 1 0-521.7 198.764L-40 45.334z" clip-rule="evenodd"/></mask></defs><g mask="url(#b)"><path fill="#f6f6f6" d="M-1000-1000h2000v2000h-2000z"/></g><defs><mask id="c"><path fill="#fff" fill-rule="evenodd" d="M-40 45.333c7.25-4.75 2.475-8.875 3.1-11.875s6.65-4.875 1.9-12.125c7.25 4.75 2.475 8.875 3.1 11.875s6.65 4.875 1.9 12.125c7.25-4.75 2.475-8.875 3.1-11.875s6.65-4.875 1.9-12.125c7.25 4.75 2.475 8.875 3.1 11.875s6.65 4.875 1.9 12.125c7.25-4.75 2.475-8.875 3.1-11.875s6.65-4.875 1.9-12.125c7.25 4.75 2.475 8.875 3.1 11.875s6.65 4.875 1.9 12.125c7.25-4.75 2.475-8.875 3.1-11.875S-.25 28.583-5 21.333c7.25 4.75 2.475 8.875 3.1 11.875S4.75 38.083 0 45.333c7.25-4.75 2.475-8.875 3.1-11.875S9.75 28.583 5 21.333c7.25 4.75 2.475 8.875 3.1 11.875s6.65 4.875 1.9 12.125c7.25-4.75 2.475-8.875 3.1-11.875s6.65-4.875 1.9-12.125c7.25 4.75 2.475 8.875 3.1 11.875s6.65 4.875 1.9 12.125c7.25-4.75 2.475-8.875 3.1-11.875s6.65-4.875 1.9-12.125c7.25 4.75 2.475 8.875 3.1 11.875s6.65 4.875 1.9 12.125c7.25-4.75 2.475-8.875 3.1-11.875s6.65-4.875 1.9-12.125c7.25 4.75 2.475 8.875 3.1 11.875s6.65 4.875 1.9 12.125c7.25-4.75 2.475-8.875 3.1-11.875s6.65-4.875 1.9-12.125c7.25 4.75 2.475 8.875 3.1 11.875s6.65 4.875 1.9 12.125c7.25-4.75 2.475-8.875 3.1-11.875s6.65-4.875 1.9-12.125c7.25 4.75 2.475 8.875 3.1 11.875s6.65 4.875 1.9 12.125c7.25-4.75 2.475-8.875 3.1-11.875s6.65-4.875 1.9-12.125c7.25 4.75 2.475 8.875 3.1 11.875s6.65 4.875 1.9 12.125c7.25-4.75 2.475-8.875 3.1-11.875s6.65-4.875 1.9-12.125c7.25 4.75 2.475 8.875 3.1 11.875s6.65 4.875 1.9 12.125c7.25-4.75 2.475-8.875 3.1-11.875s6.65-4.875 1.9-12.125c7.25 4.75 2.475 8.875 3.1 11.875s6.65 4.875 1.9 12.125c7.25-4.75 2.475-8.875 3.1-11.875s6.65-4.875 1.9-12.125c7.25 4.75 2.475 8.875 3.1 11.875s6.65 4.875 1.9 12.125c7.25-4.75 2.475-8.875 3.1-11.875s6.65-4.875 1.9-12.125c7.25 4.75 2.475 8.875 3.1 11.875s6.65 4.875 1.9 12.125c7.25-4.75 2.475-8.875 3.1-11.875s6.65-4.875 1.9-12.125c7.25 4.75 2.475 8.875 3.1 11.875s6.65 4.875 1.9 12.125c7.25-4.75 2.475-8.875 3.1-11.875s6.65-4.875 1.9-12.125c7.25 4.75 2.475 8.875 3.1 11.875s6.65 4.875 1.9 12.125c7.25-4.75 2.475-8.875 3.1-11.875s6.65-4.875 1.9-12.125c7.25 4.75 2.475 8.875 3.1 11.875s6.65 4.875 1.9 12.125c7.25-4.75 2.475-8.875 3.1-11.875s6.65-4.875 1.9-12.125c7.25 4.75 2.475 8.875 3.1 11.875s6.65 4.875 1.9 12.125c7.25-4.75 2.475-8.875 3.1-11.875s6.65-4.875 1.9-12.125c7.25 4.75 2.475 8.875 3.1 11.875s6.65 4.875 1.9 12.125c7.25-4.75 2.475-8.875 3.1-11.875s6.65-4.875 1.9-12.125c7.25 4.75 2.475 8.875 3.1 11.875s6.65 4.875 1.9 12.125c7.25-4.75 2.475-8.875 3.1-11.875s6.65-4.875 1.9-12.125c7.25 4.75 2.475 8.875 3.1 11.875s6.65 4.875 1.9 12.125L639.97-59.254A600 600 0 1 1-549.196 18.931L-40 45.333z" clip-rule="evenodd"/></mask></defs><g mask="url(#c)"><path fill="#0c6793" d="M-1000-1000h2000v2000h-2000z"/></g><path fill="none" stroke="#333" stroke-linecap="round" stroke-linejoin="round" stroke-width=".5" d="M-40 45.333c7.25-4.75 2.475-8.875 3.1-11.875s6.65-4.875 1.9-12.125c7.25 4.75 2.475 8.875 3.1 11.875s6.65 4.875 1.9 12.125c7.25-4.75 2.475-8.875 3.1-11.875s6.65-4.875 1.9-12.125c7.25 4.75 2.475 8.875 3.1 11.875s6.65 4.875 1.9 12.125c7.25-4.75 2.475-8.875 3.1-11.875s6.65-4.875 1.9-12.125c7.25 4.75 2.475 8.875 3.1 11.875s6.65 4.875 1.9 12.125c7.25-4.75 2.475-8.875 3.1-11.875S-.25 28.583-5 21.333c7.25 4.75 2.475 8.875 3.1 11.875S4.75 38.083 0 45.333c7.25-4.75 2.475-8.875 3.1-11.875S9.75 28.583 5 21.333c7.25 4.75 2.475 8.875 3.1 11.875s6.65 4.875 1.9 12.125c7.25-4.75 2.475-8.875 3.1-11.875s6.65-4.875 1.9-12.125c7.25 4.75 2.475 8.875 3.1 11.875s6.65 4.875 1.9 12.125c7.25-4.75 2.475-8.875 3.1-11.875s6.65-4.875 1.9-12.125c7.25 4.75 2.475 8.875 3.1 11.875s6.65 4.875 1.9 12.125c7.25-4.75 2.475-8.875 3.1-11.875s6.65-4.875 1.9-12.125c7.25 4.75 2.475 8.875 3.1 11.875s6.65 4.875 1.9 12.125c7.25-4.75 2.475-8.875 3.1-11.875s6.65-4.875 1.9-12.125c7.25 4.75 2.475 8.875 3.1 11.875s6.65 4.875 1.9 12.125c7.25-4.75 2.475-8.875 3.1-11.875s6.65-4.875 1.9-12.125c7.25 4.75 2.475 8.875 3.1 11.875s6.65 4.875 1.9 12.125c7.25-4.75 2.475-8.875 3.1-11.875s6.65-4.875 1.9-12.125c7.25 4.75 2.475 8.875 3.1 11.875s6.65 4.875 1.9 12.125c7.25-4.75 2.475-8.875 3.1-11.875s6.65-4.875 1.9-12.125c7.25 4.75 2.475 8.875 3.1 11.875s6.65 4.875 1.9 12.125c7.25-4.75 2.475-8.875 3.1-11.875s6.65-4.875 1.9-12.125c7.25 4.75 2.475 8.875 3.1 11.875s6.65 4.875 1.9 12.125c7.25-4.75 2.475-8.875 3.1-11.875s6.65-4.875 1.9-12.125c7.25 4.75 2.475 8.875 3.1 11.875s6.65 4.875 1.9 12.125c7.25-4.75 2.475-8.875 3.1-11.875s6.65-4.875 1.9-12.125c7.25 4.75 2.475 8.875 3.1 11.875s6.65 4.875 1.9 12.125c7.25-4.75 2.475-8.875 3.1-11.875s6.65-4.875 1.9-12.125c7.25 4.75 2.475 8.875 3.1 11.875s6.65 4.875 1.9 12.125c7.25-4.75 2.475-8.875 3.1-11.875s6.65-4.875 1.9-12.125c7.25 4.75 2.475 8.875 3.1 11.875s6.65 4.875 1.9 12.125c7.25-4.75 2.475-8.875 3.1-11.875s6.65-4.875 1.9-12.125c7.25 4.75 2.475 8.875 3.1 11.875s6.65 4.875 1.9 12.125c7.25-4.75 2.475-8.875 3.1-11.875s6.65-4.875 1.9-12.125c7.25 4.75 2.475 8.875 3.1 11.875s6.65 4.875 1.9 12.125c7.25-4.75 2.475-8.875 3.1-11.875s6.65-4.875 1.9-12.125c7.25 4.75 2.475 8.875 3.1 11.875s6.65 4.875 1.9 12.125c7.25-4.75 2.475-8.875 3.1-11.875s6.65-4.875 1.9-12.125c7.25 4.75 2.475 8.875 3.1 11.875s6.65 4.875 1.9 12.125c7.25-4.75 2.475-8.875 3.1-11.875s6.65-4.875 1.9-12.125c7.25 4.75 2.475 8.875 3.1 11.875s6.65 4.875 1.9 12.125"/></g><path fill="none" stroke="#333" stroke-linecap="round" stroke-linejoin="round" stroke-width=".5" d="M0 0h100v66.667H0z"/></svg>