<?xml version="1.0" encoding="UTF-8" standalone="no"?>
<svg xmlns="http://www.w3.org/2000/svg" preserveAspectRatio="xMidYMin slice" viewBox="-10 -10 120 86.667"><defs><mask id="a"><path fill="#fff" fill-rule="evenodd" d="M0 0h100v66.667H0z" clip-rule="evenodd"/></mask></defs><g mask="url(#a)"><path fill="#f0f0f0" fill-rule="evenodd" d="M0 0h100v66.667H0z"/><defs><mask id="b"><path fill="#fff" fill-rule="evenodd" stroke="#fff" stroke-width=".1" d="M-40 46.333a3 3 0 0 0 1.342-5.683l7.316-14.633a3 3 0 1 1 2.684 0l7.316 14.633a3 3 0 1 0 2.684 0l7.316-14.633a3 3 0 1 1 2.684 0l7.316 14.633a3 3 0 1 0 2.684 0l7.316-14.633a3 3 0 1 1 2.684 0l7.316 14.633a3 3 0 1 0 2.684 0l7.316-14.633a3 3 0 1 1 2.684 0l7.316 14.633a3 3 0 1 0 2.684 0l7.316-14.633a3 3 0 1 1 2.684 0l7.316 14.633a3 3 0 1 0 2.684 0l7.316-14.633a3 3 0 1 1 2.684 0l7.316 14.633a3 3 0 1 0 2.684 0l7.316-14.633a3 3 0 1 1 2.684 0l7.316 14.633a3 3 0 1 0 2.684 0l7.316-14.633a3 3 0 1 1 2.684 0l7.316 14.633a3 3 0 1 0 2.684 0l7.316-14.633a3 3 0 1 1 2.684 0l7.316 14.633a3 3 0 1 0 2.684 0l7.316-14.633a3 3 0 1 1 2.684 0l7.316 14.633a3 3 0 1 0 2.684 0l7.316-14.633a3 3 0 1 1 2.684 0l7.316 14.633a3 3 0 1 0 2.684 0l7.316-14.633a3 3 0 1 1 2.684 0l7.316 14.633A3 3 0 0 0 200 46.333l439.97 79.587a600 600 0 1 0-1159.81 78.583z" clip-rule="evenodd"/></mask></defs><g mask="url(#b)"><path fill="#f6f6f6" d="M-1000-1000h2000v2000h-2000z"/></g><defs><mask id="c"><path fill="#fff" fill-rule="evenodd" d="M-40 46.333a3 3 0 0 0 1.342-5.683l7.316-14.633a3 3 0 1 1 2.684 0l7.316 14.633a3 3 0 1 0 2.684 0l7.316-14.633a3 3 0 1 1 2.684 0l7.316 14.633a3 3 0 1 0 2.684 0l7.316-14.633a3 3 0 1 1 2.684 0l7.316 14.633a3 3 0 1 0 2.684 0l7.316-14.633a3 3 0 1 1 2.684 0l7.316 14.633a3 3 0 1 0 2.684 0l7.316-14.633a3 3 0 1 1 2.684 0l7.316 14.633a3 3 0 1 0 2.684 0l7.316-14.633a3 3 0 1 1 2.684 0l7.316 14.633a3 3 0 1 0 2.684 0l7.316-14.633a3 3 0 1 1 2.684 0l7.316 14.633a3 3 0 1 0 2.684 0l7.316-14.633a3 3 0 1 1 2.684 0l7.316 14.633a3 3 0 1 0 2.684 0l7.316-14.633a3 3 0 1 1 2.684 0l7.316 14.633a3 3 0 1 0 2.684 0l7.316-14.633a3 3 0 1 1 2.684 0l7.316 14.633a3 3 0 1 0 2.684 0l7.316-14.633a3 3 0 1 1 2.684 0l7.316 14.633a3 3 0 1 0 2.684 0l7.316-14.633a3 3 0 1 1 2.684 0l7.316 14.633A3 3 0 0 0 200 46.333L639.97-59.254a600 600 0 1 1-1189.473 84.83z" clip-rule="evenodd"/></mask></defs><g mask="url(#c)"><path fill="#f2bc51" d="M-1000-1000h2000v2000h-2000z"/></g><path fill="none" stroke="#333" stroke-linecap="round" stroke-linejoin="round" stroke-width=".5" d="M-40 46.333a3 3 0 0 0 1.342-5.683l7.316-14.633a3 3 0 1 1 2.684 0l7.316 14.633a3 3 0 1 0 2.684 0l7.316-14.633a3 3 0 1 1 2.684 0l7.316 14.633a3 3 0 1 0 2.684 0l7.316-14.633a3 3 0 1 1 2.684 0l7.316 14.633a3 3 0 1 0 2.684 0l7.316-14.633a3 3 0 1 1 2.684 0l7.316 14.633a3 3 0 1 0 2.684 0l7.316-14.633a3 3 0 1 1 2.684 0l7.316 14.633a3 3 0 1 0 2.684 0l7.316-14.633a3 3 0 1 1 2.684 0l7.316 14.633a3 3 0 1 0 2.684 0l7.316-14.633a3 3 0 1 1 2.684 0l7.316 14.633a3 3 0 1 0 2.684 0l7.316-14.633a3 3 0 1 1 2.684 0l7.316 14.633a3 3 0 1 0 2.684 0l7.316-14.633a3 3 0 1 1 2.684 0l7.316 14.633a3 3 0 1 0 2.684 0l7.316-14.633a3 3 0 1 1 2.684 0l7.316 14.633a3 3 0 1 0 2.684 0l7.316-14.633a3 3 0 1 1 2.684 0l7.316 14.633a3 3 0 1 0 2.684 0l7.316-14.633a3 3 0 1 1 2.684 0l7.316 14.633A3 3 0 0 0 200 46.333"/></g><path fill="none" stroke="#333" stroke-linecap="round" stroke-linejoin="round" stroke-width=".5" d="M0 0h100v66.667H0z"/></svg>