<svg preserveAspectRatio="xMidYMin slice" viewBox="0 0 120 80" xmlns="http://www.w3.org/2000/svg"><g transform="translate(10 10)"><defs><mask id="a"><path clip-rule="evenodd" d="M50 0h50v33.333a100 100 0 0 1-50 86.603A100 100 0 0 1 0 33.333V0z" fill-rule="evenodd" fill="#fff"/></mask></defs><g mask="url(#a)"><path d="M50 0h50v33.333a100 100 0 0 1-50 86.603A100 100 0 0 1 0 33.333V0z" fill-rule="evenodd" fill="#f0f0f0"/><defs><mask id="b"><path clip-rule="evenodd" d="m-60 50 3.125-4.281-3.75 1.062L-55 38.75l5.625 8.031-3.75-1.062 6.25 8.562-3.75-1.062L-45 61.25l5.625-8.031-3.75 1.062L-40 50l3.125-4.281-3.75 1.062L-35 38.75l5.625 8.031-3.75-1.062 6.25 8.562-3.75-1.062L-25 61.25l5.625-8.031-3.75 1.062L-20 50l3.125-4.281-3.75 1.062L-15 38.75l5.625 8.031-3.75-1.062 6.25 8.562-3.75-1.062L-5 61.25l5.625-8.031-3.75 1.062L0 50l3.125-4.281-3.75 1.062L5 38.75l5.625 8.031-3.75-1.062 6.25 8.562-3.75-1.062L15 61.25l5.625-8.031-3.75 1.062L20 50l3.125-4.281-3.75 1.062L25 38.75l5.625 8.031-3.75-1.062 6.25 8.562-3.75-1.062L35 61.25l5.625-8.031-3.75 1.062L40 50l3.125-4.281-3.75 1.062L45 38.75l5.625 8.031-3.75-1.062 6.25 8.562-3.75-1.062L55 61.25l5.625-8.031-3.75 1.062L60 50l3.125-4.281-3.75 1.062L65 38.75l5.625 8.031-3.75-1.062 6.25 8.562-3.75-1.062L75 61.25l5.625-8.031-3.75 1.062L80 50l3.125-4.281-3.75 1.062L85 38.75l5.625 8.031-3.75-1.062 6.25 8.562-3.75-1.062L95 61.25l5.625-8.031-3.75 1.062L100 50l3.125-4.281-3.75 1.062L105 38.75l5.625 8.031-3.75-1.062 6.25 8.562-3.75-1.062L115 61.25l5.625-8.031-3.75 1.062L120 50l3.125-4.281-3.75 1.062L125 38.75l5.625 8.031-3.75-1.062 6.25 8.562-3.75-1.062L135 61.25l5.625-8.031-3.75 1.062L140 50l3.125-4.281-3.75 1.062L145 38.75l5.625 8.031-3.75-1.062 6.25 8.562-3.75-1.062L155 61.25l5.625-8.031-3.75 1.062L160 50l3.125-4.281-3.75 1.062L165 38.75l5.625 8.031-3.75-1.062 6.25 8.562-3.75-1.062L175 61.25l5.625-8.031-3.75 1.062L180 50h820v-1050h-2000V50h940z" fill-rule="evenodd" fill="#fff"/><path d="m-60 50 3.125-4.281-3.75 1.062L-55 38.75l5.625 8.031-3.75-1.062 6.25 8.562-3.75-1.062L-45 61.25l5.625-8.031-3.75 1.062L-40 50l3.125-4.281-3.75 1.062L-35 38.75l5.625 8.031-3.75-1.062 6.25 8.562-3.75-1.062L-25 61.25l5.625-8.031-3.75 1.062L-20 50l3.125-4.281-3.75 1.062L-15 38.75l5.625 8.031-3.75-1.062 6.25 8.562-3.75-1.062L-5 61.25l5.625-8.031-3.75 1.062L0 50l3.125-4.281-3.75 1.062L5 38.75l5.625 8.031-3.75-1.062 6.25 8.562-3.75-1.062L15 61.25l5.625-8.031-3.75 1.062L20 50l3.125-4.281-3.75 1.062L25 38.75l5.625 8.031-3.75-1.062 6.25 8.562-3.75-1.062L35 61.25l5.625-8.031-3.75 1.062L40 50l3.125-4.281-3.75 1.062L45 38.75l5.625 8.031-3.75-1.062 6.25 8.562-3.75-1.062L55 61.25l5.625-8.031-3.75 1.062L60 50l3.125-4.281-3.75 1.062L65 38.75l5.625 8.031-3.75-1.062 6.25 8.562-3.75-1.062L75 61.25l5.625-8.031-3.75 1.062L80 50l3.125-4.281-3.75 1.062L85 38.75l5.625 8.031-3.75-1.062 6.25 8.562-3.75-1.062L95 61.25l5.625-8.031-3.75 1.062L100 50l3.125-4.281-3.75 1.062L105 38.75l5.625 8.031-3.75-1.062 6.25 8.562-3.75-1.062L115 61.25l5.625-8.031-3.75 1.062L120 50l3.125-4.281-3.75 1.062L125 38.75l5.625 8.031-3.75-1.062 6.25 8.562-3.75-1.062L135 61.25l5.625-8.031-3.75 1.062L140 50l3.125-4.281-3.75 1.062L145 38.75l5.625 8.031-3.75-1.062 6.25 8.562-3.75-1.062L155 61.25l5.625-8.031-3.75 1.062L160 50l3.125-4.281-3.75 1.062L165 38.75l5.625 8.031-3.75-1.062 6.25 8.562-3.75-1.062L175 61.25l5.625-8.031-3.75 1.062L180 50h820v-1050h-2000V50h940z" fill="none" stroke-width=".1" stroke="#fff"/></mask></defs><g mask="url(#b)"><path fill="#f6f6f6" style="cursor:pointer" d="M-1000-1000h2000v2000h-2000z"/></g><defs><mask id="c"><path clip-rule="evenodd" d="m-60 50 3.125-4.281-3.75 1.062L-55 38.75l5.625 8.031-3.75-1.062 6.25 8.562-3.75-1.062L-45 61.25l5.625-8.031-3.75 1.062L-40 50l3.125-4.281-3.75 1.062L-35 38.75l5.625 8.031-3.75-1.062 6.25 8.562-3.75-1.062L-25 61.25l5.625-8.031-3.75 1.062L-20 50l3.125-4.281-3.75 1.062L-15 38.75l5.625 8.031-3.75-1.062 6.25 8.562-3.75-1.062L-5 61.25l5.625-8.031-3.75 1.062L0 50l3.125-4.281-3.75 1.062L5 38.75l5.625 8.031-3.75-1.062 6.25 8.562-3.75-1.062L15 61.25l5.625-8.031-3.75 1.062L20 50l3.125-4.281-3.75 1.062L25 38.75l5.625 8.031-3.75-1.062 6.25 8.562-3.75-1.062L35 61.25l5.625-8.031-3.75 1.062L40 50l3.125-4.281-3.75 1.062L45 38.75l5.625 8.031-3.75-1.062 6.25 8.562-3.75-1.062L55 61.25l5.625-8.031-3.75 1.062L60 50l3.125-4.281-3.75 1.062L65 38.75l5.625 8.031-3.75-1.062 6.25 8.562-3.75-1.062L75 61.25l5.625-8.031-3.75 1.062L80 50l3.125-4.281-3.75 1.062L85 38.75l5.625 8.031-3.75-1.062 6.25 8.562-3.75-1.062L95 61.25l5.625-8.031-3.75 1.062L100 50l3.125-4.281-3.75 1.062L105 38.75l5.625 8.031-3.75-1.062 6.25 8.562-3.75-1.062L115 61.25l5.625-8.031-3.75 1.062L120 50l3.125-4.281-3.75 1.062L125 38.75l5.625 8.031-3.75-1.062 6.25 8.562-3.75-1.062L135 61.25l5.625-8.031-3.75 1.062L140 50l3.125-4.281-3.75 1.062L145 38.75l5.625 8.031-3.75-1.062 6.25 8.562-3.75-1.062L155 61.25l5.625-8.031-3.75 1.062L160 50l3.125-4.281-3.75 1.062L165 38.75l5.625 8.031-3.75-1.062 6.25 8.562-3.75-1.062L175 61.25l5.625-8.031-3.75 1.062L180 50h820v950h-2000V50h940z" fill-rule="evenodd" fill="#fff"/></mask></defs><g mask="url(#c)"><path fill="#0c6793" style="cursor:pointer" d="M-1000-1000h2000v2000h-2000z"/></g><path d="m-60 50 3.125-4.281-3.75 1.062L-55 38.75l5.625 8.031-3.75-1.062 6.25 8.562-3.75-1.062L-45 61.25l5.625-8.031-3.75 1.062L-40 50l3.125-4.281-3.75 1.062L-35 38.75l5.625 8.031-3.75-1.062 6.25 8.562-3.75-1.062L-25 61.25l5.625-8.031-3.75 1.062L-20 50l3.125-4.281-3.75 1.062L-15 38.75l5.625 8.031-3.75-1.062 6.25 8.562-3.75-1.062L-5 61.25l5.625-8.031-3.75 1.062L0 50l3.125-4.281-3.75 1.062L5 38.75l5.625 8.031-3.75-1.062 6.25 8.562-3.75-1.062L15 61.25l5.625-8.031-3.75 1.062L20 50l3.125-4.281-3.75 1.062L25 38.75l5.625 8.031-3.75-1.062 6.25 8.562-3.75-1.062L35 61.25l5.625-8.031-3.75 1.062L40 50l3.125-4.281-3.75 1.062L45 38.75l5.625 8.031-3.75-1.062 6.25 8.562-3.75-1.062L55 61.25l5.625-8.031-3.75 1.062L60 50l3.125-4.281-3.75 1.062L65 38.75l5.625 8.031-3.75-1.062 6.25 8.562-3.75-1.062L75 61.25l5.625-8.031-3.75 1.062L80 50l3.125-4.281-3.75 1.062L85 38.75l5.625 8.031-3.75-1.062 6.25 8.562-3.75-1.062L95 61.25l5.625-8.031-3.75 1.062L100 50l3.125-4.281-3.75 1.062L105 38.75l5.625 8.031-3.75-1.062 6.25 8.562-3.75-1.062L115 61.25l5.625-8.031-3.75 1.062L120 50l3.125-4.281-3.75 1.062L125 38.75l5.625 8.031-3.75-1.062 6.25 8.562-3.75-1.062L135 61.25l5.625-8.031-3.75 1.062L140 50l3.125-4.281-3.75 1.062L145 38.75l5.625 8.031-3.75-1.062 6.25 8.562-3.75-1.062L155 61.25l5.625-8.031-3.75 1.062L160 50l3.125-4.281-3.75 1.062L165 38.75l5.625 8.031-3.75-1.062 6.25 8.562-3.75-1.062L175 61.25l5.625-8.031-3.75 1.062L180 50" fill="none" stroke-linecap="round" stroke-linejoin="round" stroke-width=".5" stroke="#333"/></g><path d="M50 0h50v33.333a100 100 0 0 1-50 86.603A100 100 0 0 1 0 33.333V0z" fill="none" stroke-linecap="round" stroke-linejoin="round" stroke-width=".5" stroke="#333"/></g></svg>