<svg preserveAspectRatio="xMidYMin slice" viewBox="0 0 120 80" xmlns="http://www.w3.org/2000/svg"><g filter="url(#a)" transform="translate(10 10)"><defs><filter height="200%" id="a" width="200%" x="-20%" y="-20%"><feOffset dx=".2" dy=".2" in="SourceAlpha" result="offsetOut"/><feGaussianBlur in="offsetOut" result="blurOut"/><feBlend in2="blurOut" in="SourceGraphic"/></filter></defs><defs><clipPath id="b"><path d="M0 0h100v66.667H0z" fill="#fff"/></clipPath></defs><g clip-path="url(#b)"><path d="M0 0h100v66.667H0z" fill="#f0f0f0"/><g style="pointer-events:visiblePainted;cursor:pointer"><defs><mask id="c"><path d="M-60 35.833a12.5 12.5 0 0 0 10-5 12.5 12.5 0 0 0 10 5 12.5 12.5 0 0 0 10-5 12.5 12.5 0 0 0 10 5 12.5 12.5 0 0 0 10-5 12.5 12.5 0 0 0 10 5 12.5 12.5 0 0 0 10-5 12.5 12.5 0 0 0 10 5 12.5 12.5 0 0 0 10-5 12.5 12.5 0 0 0 10 5 12.5 12.5 0 0 0 10-5 12.5 12.5 0 0 0 10 5 12.5 12.5 0 0 0 10-5 12.5 12.5 0 0 0 10 5 12.5 12.5 0 0 0 10-5 12.5 12.5 0 0 0 10 5 12.5 12.5 0 0 0 10-5 12.5 12.5 0 0 0 10 5 12.5 12.5 0 0 0 10-5 12.5 12.5 0 0 0 10 5 12.5 12.5 0 0 0 10-5 12.5 12.5 0 0 0 10 5 12.5 12.5 0 0 0 10-5 12.5 12.5 0 0 0 10 5h820V-1000h-2000V35.833h940z" fill="#fff"/><path d="M-60 35.833a12.5 12.5 0 0 0 10-5 12.5 12.5 0 0 0 10 5 12.5 12.5 0 0 0 10-5 12.5 12.5 0 0 0 10 5 12.5 12.5 0 0 0 10-5 12.5 12.5 0 0 0 10 5 12.5 12.5 0 0 0 10-5 12.5 12.5 0 0 0 10 5 12.5 12.5 0 0 0 10-5 12.5 12.5 0 0 0 10 5 12.5 12.5 0 0 0 10-5 12.5 12.5 0 0 0 10 5 12.5 12.5 0 0 0 10-5 12.5 12.5 0 0 0 10 5 12.5 12.5 0 0 0 10-5 12.5 12.5 0 0 0 10 5 12.5 12.5 0 0 0 10-5 12.5 12.5 0 0 0 10 5 12.5 12.5 0 0 0 10-5 12.5 12.5 0 0 0 10 5 12.5 12.5 0 0 0 10-5 12.5 12.5 0 0 0 10 5 12.5 12.5 0 0 0 10-5 12.5 12.5 0 0 0 10 5h820V-1000h-2000V35.833h940z" fill="none" stroke-width=".1" stroke="#fff"/></mask></defs><g mask="url(#c)"><path fill="#f6f6f6" d="M-500-500H600V600H-500z" style="pointer-events:visiblePainted;cursor:pointer"/></g><defs><mask id="d"><path d="M-60 35.833a12.5 12.5 0 0 0 10-5 12.5 12.5 0 0 0 10 5 12.5 12.5 0 0 0 10-5 12.5 12.5 0 0 0 10 5 12.5 12.5 0 0 0 10-5 12.5 12.5 0 0 0 10 5 12.5 12.5 0 0 0 10-5 12.5 12.5 0 0 0 10 5 12.5 12.5 0 0 0 10-5 12.5 12.5 0 0 0 10 5 12.5 12.5 0 0 0 10-5 12.5 12.5 0 0 0 10 5 12.5 12.5 0 0 0 10-5 12.5 12.5 0 0 0 10 5 12.5 12.5 0 0 0 10-5 12.5 12.5 0 0 0 10 5 12.5 12.5 0 0 0 10-5 12.5 12.5 0 0 0 10 5 12.5 12.5 0 0 0 10-5 12.5 12.5 0 0 0 10 5 12.5 12.5 0 0 0 10-5 12.5 12.5 0 0 0 10 5 12.5 12.5 0 0 0 10-5 12.5 12.5 0 0 0 10 5h820V1000h-2000V35.833h940z" fill="#fff"/></mask></defs><g mask="url(#d)"><path fill="#0c6793" d="M-500-500H600V600H-500z" style="pointer-events:visiblePainted;cursor:pointer"/></g><path d="M-60 35.833a12.5 12.5 0 0 0 10-5 12.5 12.5 0 0 0 10 5 12.5 12.5 0 0 0 10-5 12.5 12.5 0 0 0 10 5 12.5 12.5 0 0 0 10-5 12.5 12.5 0 0 0 10 5 12.5 12.5 0 0 0 10-5 12.5 12.5 0 0 0 10 5 12.5 12.5 0 0 0 10-5 12.5 12.5 0 0 0 10 5 12.5 12.5 0 0 0 10-5 12.5 12.5 0 0 0 10 5 12.5 12.5 0 0 0 10-5 12.5 12.5 0 0 0 10 5 12.5 12.5 0 0 0 10-5 12.5 12.5 0 0 0 10 5 12.5 12.5 0 0 0 10-5 12.5 12.5 0 0 0 10 5 12.5 12.5 0 0 0 10-5 12.5 12.5 0 0 0 10 5 12.5 12.5 0 0 0 10-5 12.5 12.5 0 0 0 10 5 12.5 12.5 0 0 0 10-5 12.5 12.5 0 0 0 10 5" fill="none" stroke-linecap="round" stroke-linejoin="round" stroke-width=".5" stroke="#333"/></g></g><path d="M0 0h100v66.667H0z" fill="none" stroke-linecap="round" stroke-linejoin="round" stroke-width=".5" stroke="#333"/></g></svg>