<?xml version="1.0" encoding="UTF-8" standalone="no"?>
<svg xmlns="http://www.w3.org/2000/svg" preserveAspectRatio="xMidYMin slice" viewBox="-10 -10 120 86.667"><defs><mask id="a"><path fill="#fff" fill-rule="evenodd" d="M0 0h100v66.667H0z" clip-rule="evenodd"/></mask></defs><g mask="url(#a)"><path fill="#f0f0f0" fill-rule="evenodd" d="M0 0h100v66.667H0z"/><defs><mask id="b"><path fill="#fff" fill-rule="evenodd" stroke="#fff" stroke-width=".1" d="M-33.333 33.333H-30c13.333 0 11.733-7.466 11.733-7.733 0 0-1.066 4-5.6 4-4 0-6.133-3.2-6.133-5.867 0-5.866 6.4-7.733 10.4-5.066 0 0-3.467-2.667-3.467-6.134 0-2.133 1.867-5.866 6.4-5.866s6.4 3.733 6.4 5.866c0 3.467-3.466 6.134-3.466 6.134 4-2.667 10.4-.8 10.4 5.066 0 2.667-2.134 5.867-6.134 5.867-4.533 0-5.6-4-5.6-4 0 .267-1.6 7.733 11.734 7.733h6.666c13.334 0 11.734 7.467 11.734 7.734 0 0-1.067-4-5.6-4-4 0-6.134 3.2-6.134 5.866 0 5.867 6.4 7.734 10.4 5.067 0 0-3.466 2.667-3.466 6.133 0 2.134 1.866 5.867 6.4 5.867 4.533 0 6.4-3.733 6.4-5.867C23.067 50.667 19.6 48 19.6 48c4 2.667 10.4.8 10.4-5.067 0-2.666-2.133-5.866-6.133-5.866-4.534 0-5.6 4-5.6 4 0-.267-1.6-7.734 11.733-7.734h6.667C50 33.333 48.4 25.867 48.4 25.6c0 0-1.067 4-5.6 4-4 0-6.133-3.2-6.133-5.867 0-5.866 6.4-7.733 10.4-5.066 0 0-3.467-2.667-3.467-6.134 0-2.133 1.867-5.866 6.4-5.866s6.4 3.733 6.4 5.866c0 3.467-3.467 6.134-3.467 6.134 4-2.667 10.4-.8 10.4 5.066 0 2.667-2.133 5.867-6.133 5.867-4.533 0-5.6-4-5.6-4 0 .267-1.6 7.733 11.733 7.733H70c13.333 0 11.733 7.467 11.733 7.734 0 0-1.066-4-5.6-4-4 0-6.133 3.2-6.133 5.866C70 48.8 76.4 50.667 80.4 48c0 0-3.467 2.667-3.467 6.133 0 2.134 1.867 5.867 6.4 5.867s6.4-3.733 6.4-5.867c0-3.466-3.466-6.133-3.466-6.133 4 2.667 10.4.8 10.4-5.067 0-2.666-2.134-5.866-6.134-5.866-4.533 0-5.6 4-5.6 4 0-.267-1.6-7.734 11.734-7.734h6.666c13.334 0 11.734-7.466 11.734-7.733 0 0-1.067 4-5.6 4-4 0-6.134-3.2-6.134-5.867 0-5.866 6.4-7.733 10.4-5.066 0 0-3.466-2.667-3.466-6.134 0-2.133 1.866-5.866 6.4-5.866 4.533 0 6.4 3.733 6.4 5.866 0 3.467-3.467 6.134-3.467 6.134 4-2.667 10.4-.8 10.4 5.066 0 2.667-2.133 5.867-6.133 5.867-4.534 0-5.6-4-5.6-4 0 .267-1.6 7.733 11.733 7.733h6.667c13.333 0 11.733 7.467 11.733 7.734 0 0-1.067-4-5.6-4-4 0-6.133 3.2-6.133 5.866 0 5.867 6.4 7.734 10.4 5.067 0 0-3.467 2.667-3.467 6.133 0 2.134 1.867 5.867 6.4 5.867s6.4-3.733 6.4-5.867c0-3.466-3.467-6.133-3.467-6.133 4 2.667 10.4.8 10.4-5.067 0-2.666-2.133-5.866-6.133-5.866-4.533 0-5.6 4-5.6 4 0-.267-1.6-7.734 11.733-7.734H170c13.333 0 11.733-7.466 11.733-7.733 0 0-1.066 4-5.6 4-4 0-6.133-3.2-6.133-5.867 0-5.866 6.4-7.733 10.4-5.066 0 0-3.467-2.667-3.467-6.134 0-2.133 1.867-5.866 6.4-5.866s6.4 3.733 6.4 5.866c0 3.467-3.466 6.134-3.466 6.134 4-2.667 10.4-.8 10.4 5.066 0 2.667-2.134 5.867-6.134 5.867-4.533 0-5.6-4-5.6-4 0 .267-1.6 7.733 11.734 7.733h6.666c13.334 0 11.734 7.467 11.734 7.734 0 0-1.067-4-5.6-4-4 0-6.134 3.2-6.134 5.866 0 5.867 6.4 7.734 10.4 5.067 0 0-3.466 2.667-3.466 6.133 0 2.134 1.866 5.867 6.4 5.867 4.533 0 6.4-3.733 6.4-5.867 0-3.466-3.467-6.133-3.467-6.133 4 2.667 10.4.8 10.4-5.067 0-2.666-2.133-5.866-6.133-5.866-4.534 0-5.6 4-5.6 4 0-.267-1.6-7.734 11.733-7.734h6.667c13.333 0 11.733-7.466 11.733-7.733 0 0-1.067 4-5.6 4-4 0-6.133-3.2-6.133-5.867 0-5.866 6.4-7.733 10.4-5.066 0 0-3.467-2.667-3.467-6.134 0-2.133 1.867-5.866 6.4-5.866s6.4 3.733 6.4 5.866c0 3.467-3.467 6.134-3.467 6.134 4-2.667 10.4-.8 10.4 5.066 0 2.667-2.133 5.867-6.133 5.867-4.533 0-5.6-4-5.6-4 0 .267-1.6 7.733 11.733 7.733H270c13.333 0 11.733 7.467 11.733 7.734 0 0-1.066-4-5.6-4-4 0-6.133 3.2-6.133 5.866 0 5.867 6.4 7.734 10.4 5.067 0 0-3.467 2.667-3.467 6.133 0 2.134 1.867 5.867 6.4 5.867s6.4-3.733 6.4-5.867c0-3.466-3.466-6.133-3.466-6.133 4 2.667 10.4.8 10.4-5.067 0-2.666-2.134-5.866-6.134-5.866-4.533 0-5.6 4-5.6 4 0-.267-1.6-7.734 11.734-7.734h6.666c13.334 0 11.734-7.466 11.734-7.733 0 0-1.067 4-5.6 4-4 0-6.134-3.2-6.134-5.867 0-5.866 6.4-7.733 10.4-5.066 0 0-3.466-2.667-3.466-6.134 0-2.133 1.866-5.866 6.4-5.866 4.533 0 6.4 3.733 6.4 5.866 0 3.467-3.467 6.134-3.467 6.134 4-2.667 10.4-.8 10.4 5.066 0 2.667-2.133 5.867-6.133 5.867-4.534 0-5.6-4-5.6-4 0 .267-1.6 7.733 11.733 7.733h6.667c13.333 0 11.733 7.467 11.733 7.734 0 0-1.067-4-5.6-4-4 0-6.133 3.2-6.133 5.866 0 5.867 6.4 7.734 10.4 5.067 0 0-3.467 2.667-3.467 6.133 0 2.134 1.867 5.867 6.4 5.867s6.4-3.733 6.4-5.867c0-3.466-3.467-6.133-3.467-6.133 4 2.667 10.4.8 10.4-5.067 0-2.666-2.133-5.866-6.133-5.866-4.533 0-5.6 4-5.6 4 0-.267-1.6-7.734 11.733-7.734H370c13.333 0 11.733-7.466 11.733-7.733 0 0-1.066 4-5.6 4-4 0-6.133-3.2-6.133-5.867 0-5.866 6.4-7.733 10.4-5.066 0 0-3.467-2.667-3.467-6.134 0-2.133 1.867-5.866 6.4-5.866s6.4 3.733 6.4 5.866c0 3.467-3.466 6.134-3.466 6.134 4-2.667 10.4-.8 10.4 5.066 0 2.667-2.134 5.867-6.134 5.867-4.533 0-5.6-4-5.6-4 0 .267-1.6 7.733 11.734 7.733h6.666c13.333 0 11.733 7.467 11.733 7.734 0 0-1.066-4-5.6-4-4 0-6.133 3.2-6.133 5.866 0 5.867 6.4 7.734 10.4 5.067 0 0-3.467 2.667-3.467 6.133 0 2.134 1.867 5.867 6.4 5.867s6.4-3.733 6.4-5.867c0-3.466-3.466-6.133-3.466-6.133 4 2.667 10.4.8 10.4-5.067 0-2.666-2.134-5.866-6.134-5.866-4.533 0-5.6 4-5.6 4 0-.267-1.6-7.734 11.734-7.734h3.333l205.015 101.003a600 600 0 1 0-1176.696 0z" clip-rule="evenodd"/></mask></defs><g mask="url(#b)"><path fill="#f6f6f6" d="M-1000-1000h2000v2000h-2000z"/></g><defs><mask id="c"><path fill="#fff" fill-rule="evenodd" d="M-33.333 33.333H-30c13.333 0 11.733-7.466 11.733-7.733 0 0-1.066 4-5.6 4-4 0-6.133-3.2-6.133-5.867 0-5.866 6.4-7.733 10.4-5.066 0 0-3.467-2.667-3.467-6.134 0-2.133 1.867-5.866 6.4-5.866s6.4 3.733 6.4 5.866c0 3.467-3.466 6.134-3.466 6.134 4-2.667 10.4-.8 10.4 5.066 0 2.667-2.134 5.867-6.134 5.867-4.533 0-5.6-4-5.6-4 0 .267-1.6 7.733 11.734 7.733h6.666c13.334 0 11.734 7.467 11.734 7.734 0 0-1.067-4-5.6-4-4 0-6.134 3.2-6.134 5.866 0 5.867 6.4 7.734 10.4 5.067 0 0-3.466 2.667-3.466 6.133 0 2.134 1.866 5.867 6.4 5.867 4.533 0 6.4-3.733 6.4-5.867C23.067 50.667 19.6 48 19.6 48c4 2.667 10.4.8 10.4-5.067 0-2.666-2.133-5.866-6.133-5.866-4.534 0-5.6 4-5.6 4 0-.267-1.6-7.734 11.733-7.734h6.667C50 33.333 48.4 25.867 48.4 25.6c0 0-1.067 4-5.6 4-4 0-6.133-3.2-6.133-5.867 0-5.866 6.4-7.733 10.4-5.066 0 0-3.467-2.667-3.467-6.134 0-2.133 1.867-5.866 6.4-5.866s6.4 3.733 6.4 5.866c0 3.467-3.467 6.134-3.467 6.134 4-2.667 10.4-.8 10.4 5.066 0 2.667-2.133 5.867-6.133 5.867-4.533 0-5.6-4-5.6-4 0 .267-1.6 7.733 11.733 7.733H70c13.333 0 11.733 7.467 11.733 7.734 0 0-1.066-4-5.6-4-4 0-6.133 3.2-6.133 5.866C70 48.8 76.4 50.667 80.4 48c0 0-3.467 2.667-3.467 6.133 0 2.134 1.867 5.867 6.4 5.867s6.4-3.733 6.4-5.867c0-3.466-3.466-6.133-3.466-6.133 4 2.667 10.4.8 10.4-5.067 0-2.666-2.134-5.866-6.134-5.866-4.533 0-5.6 4-5.6 4 0-.267-1.6-7.734 11.734-7.734h6.666c13.334 0 11.734-7.466 11.734-7.733 0 0-1.067 4-5.6 4-4 0-6.134-3.2-6.134-5.867 0-5.866 6.4-7.733 10.4-5.066 0 0-3.466-2.667-3.466-6.134 0-2.133 1.866-5.866 6.4-5.866 4.533 0 6.4 3.733 6.4 5.866 0 3.467-3.467 6.134-3.467 6.134 4-2.667 10.4-.8 10.4 5.066 0 2.667-2.133 5.867-6.133 5.867-4.534 0-5.6-4-5.6-4 0 .267-1.6 7.733 11.733 7.733h6.667c13.333 0 11.733 7.467 11.733 7.734 0 0-1.067-4-5.6-4-4 0-6.133 3.2-6.133 5.866 0 5.867 6.4 7.734 10.4 5.067 0 0-3.467 2.667-3.467 6.133 0 2.134 1.867 5.867 6.4 5.867s6.4-3.733 6.4-5.867c0-3.466-3.467-6.133-3.467-6.133 4 2.667 10.4.8 10.4-5.067 0-2.666-2.133-5.866-6.133-5.866-4.533 0-5.6 4-5.6 4 0-.267-1.6-7.734 11.733-7.734H170c13.333 0 11.733-7.466 11.733-7.733 0 0-1.066 4-5.6 4-4 0-6.133-3.2-6.133-5.867 0-5.866 6.4-7.733 10.4-5.066 0 0-3.467-2.667-3.467-6.134 0-2.133 1.867-5.866 6.4-5.866s6.4 3.733 6.4 5.866c0 3.467-3.466 6.134-3.466 6.134 4-2.667 10.4-.8 10.4 5.066 0 2.667-2.134 5.867-6.134 5.867-4.533 0-5.6-4-5.6-4 0 .267-1.6 7.733 11.734 7.733h6.666c13.334 0 11.734 7.467 11.734 7.734 0 0-1.067-4-5.6-4-4 0-6.134 3.2-6.134 5.866 0 5.867 6.4 7.734 10.4 5.067 0 0-3.466 2.667-3.466 6.133 0 2.134 1.866 5.867 6.4 5.867 4.533 0 6.4-3.733 6.4-5.867 0-3.466-3.467-6.133-3.467-6.133 4 2.667 10.4.8 10.4-5.067 0-2.666-2.133-5.866-6.133-5.866-4.534 0-5.6 4-5.6 4 0-.267-1.6-7.734 11.733-7.734h6.667c13.333 0 11.733-7.466 11.733-7.733 0 0-1.067 4-5.6 4-4 0-6.133-3.2-6.133-5.867 0-5.866 6.4-7.733 10.4-5.066 0 0-3.467-2.667-3.467-6.134 0-2.133 1.867-5.866 6.4-5.866s6.4 3.733 6.4 5.866c0 3.467-3.467 6.134-3.467 6.134 4-2.667 10.4-.8 10.4 5.066 0 2.667-2.133 5.867-6.133 5.867-4.533 0-5.6-4-5.6-4 0 .267-1.6 7.733 11.733 7.733H270c13.333 0 11.733 7.467 11.733 7.734 0 0-1.066-4-5.6-4-4 0-6.133 3.2-6.133 5.866 0 5.867 6.4 7.734 10.4 5.067 0 0-3.467 2.667-3.467 6.133 0 2.134 1.867 5.867 6.4 5.867s6.4-3.733 6.4-5.867c0-3.466-3.466-6.133-3.466-6.133 4 2.667 10.4.8 10.4-5.067 0-2.666-2.134-5.866-6.134-5.866-4.533 0-5.6 4-5.6 4 0-.267-1.6-7.734 11.734-7.734h6.666c13.334 0 11.734-7.466 11.734-7.733 0 0-1.067 4-5.6 4-4 0-6.134-3.2-6.134-5.867 0-5.866 6.4-7.733 10.4-5.066 0 0-3.466-2.667-3.466-6.134 0-2.133 1.866-5.866 6.4-5.866 4.533 0 6.4 3.733 6.4 5.866 0 3.467-3.467 6.134-3.467 6.134 4-2.667 10.4-.8 10.4 5.066 0 2.667-2.133 5.867-6.133 5.867-4.534 0-5.6-4-5.6-4 0 .267-1.6 7.733 11.733 7.733h6.667c13.333 0 11.733 7.467 11.733 7.734 0 0-1.067-4-5.6-4-4 0-6.133 3.2-6.133 5.866 0 5.867 6.4 7.734 10.4 5.067 0 0-3.467 2.667-3.467 6.133 0 2.134 1.867 5.867 6.4 5.867s6.4-3.733 6.4-5.867c0-3.466-3.467-6.133-3.467-6.133 4 2.667 10.4.8 10.4-5.067 0-2.666-2.133-5.866-6.133-5.866-4.533 0-5.6 4-5.6 4 0-.267-1.6-7.734 11.733-7.734H370c13.333 0 11.733-7.466 11.733-7.733 0 0-1.066 4-5.6 4-4 0-6.133-3.2-6.133-5.867 0-5.866 6.4-7.733 10.4-5.066 0 0-3.467-2.667-3.467-6.134 0-2.133 1.867-5.866 6.4-5.866s6.4 3.733 6.4 5.866c0 3.467-3.466 6.134-3.466 6.134 4-2.667 10.4-.8 10.4 5.066 0 2.667-2.134 5.867-6.134 5.867-4.533 0-5.6-4-5.6-4 0 .267-1.6 7.733 11.734 7.733h6.666c13.333 0 11.733 7.467 11.733 7.734 0 0-1.066-4-5.6-4-4 0-6.133 3.2-6.133 5.866 0 5.867 6.4 7.734 10.4 5.067 0 0-3.467 2.667-3.467 6.133 0 2.134 1.867 5.867 6.4 5.867s6.4-3.733 6.4-5.867c0-3.466-3.466-6.133-3.466-6.133 4 2.667 10.4.8 10.4-5.067 0-2.666-2.134-5.866-6.134-5.866-4.533 0-5.6 4-5.6 4 0-.267-1.6-7.734 11.734-7.734h3.333L638.348-67.67a600 600 0 1 1-1176.696 0z" clip-rule="evenodd"/></mask></defs><g mask="url(#c)"><path fill="#f2bc51" d="M-1000-1000h2000v2000h-2000z"/></g><path fill="none" stroke="#333" stroke-linecap="round" stroke-linejoin="round" stroke-width=".5" d="M-33.333 33.333H-30c13.333 0 11.733-7.466 11.733-7.733 0 0-1.066 4-5.6 4-4 0-6.133-3.2-6.133-5.867 0-5.866 6.4-7.733 10.4-5.066 0 0-3.467-2.667-3.467-6.134 0-2.133 1.867-5.866 6.4-5.866s6.4 3.733 6.4 5.866c0 3.467-3.466 6.134-3.466 6.134 4-2.667 10.4-.8 10.4 5.066 0 2.667-2.134 5.867-6.134 5.867-4.533 0-5.6-4-5.6-4 0 .267-1.6 7.733 11.734 7.733H0v0h3.333c13.334 0 11.734 7.467 11.734 7.734 0 0-1.067-4-5.6-4-4 0-6.134 3.2-6.134 5.866 0 5.867 6.4 7.734 10.4 5.067 0 0-3.466 2.667-3.466 6.133 0 2.134 1.866 5.867 6.4 5.867 4.533 0 6.4-3.733 6.4-5.867C23.067 50.667 19.6 48 19.6 48c4 2.667 10.4.8 10.4-5.067 0-2.666-2.133-5.866-6.133-5.866-4.534 0-5.6 4-5.6 4 0-.267-1.6-7.734 11.733-7.734h6.667C50 33.333 48.4 25.867 48.4 25.6c0 0-1.067 4-5.6 4-4 0-6.133-3.2-6.133-5.867 0-5.866 6.4-7.733 10.4-5.066 0 0-3.467-2.667-3.467-6.134 0-2.133 1.867-5.866 6.4-5.866s6.4 3.733 6.4 5.866c0 3.467-3.467 6.134-3.467 6.134 4-2.667 10.4-.8 10.4 5.066 0 2.667-2.133 5.867-6.133 5.867-4.533 0-5.6-4-5.6-4 0 .267-1.6 7.733 11.733 7.733h3.334v0H70c13.333 0 11.733 7.467 11.733 7.734 0 0-1.066-4-5.6-4-4 0-6.133 3.2-6.133 5.866C70 48.8 76.4 50.667 80.4 48c0 0-3.467 2.667-3.467 6.133 0 2.134 1.867 5.867 6.4 5.867s6.4-3.733 6.4-5.867c0-3.466-3.466-6.133-3.466-6.133 4 2.667 10.4.8 10.4-5.067 0-2.666-2.134-5.866-6.134-5.866-4.533 0-5.6 4-5.6 4 0-.267-1.6-7.734 11.734-7.734h6.666c13.334 0 11.734-7.466 11.734-7.733 0 0-1.067 4-5.6 4-4 0-6.134-3.2-6.134-5.867 0-5.866 6.4-7.733 10.4-5.066 0 0-3.466-2.667-3.466-6.134 0-2.133 1.866-5.866 6.4-5.866 4.533 0 6.4 3.733 6.4 5.866 0 3.467-3.467 6.134-3.467 6.134 4-2.667 10.4-.8 10.4 5.066 0 2.667-2.133 5.867-6.133 5.867-4.534 0-5.6-4-5.6-4 0 .267-1.6 7.733 11.733 7.733h3.333v0h3.334c13.333 0 11.733 7.467 11.733 7.734 0 0-1.067-4-5.6-4-4 0-6.133 3.2-6.133 5.866 0 5.867 6.4 7.734 10.4 5.067 0 0-3.467 2.667-3.467 6.133 0 2.134 1.867 5.867 6.4 5.867s6.4-3.733 6.4-5.867c0-3.466-3.467-6.133-3.467-6.133 4 2.667 10.4.8 10.4-5.067 0-2.666-2.133-5.866-6.133-5.866-4.533 0-5.6 4-5.6 4 0-.267-1.6-7.734 11.733-7.734H170c13.333 0 11.733-7.466 11.733-7.733 0 0-1.066 4-5.6 4-4 0-6.133-3.2-6.133-5.867 0-5.866 6.4-7.733 10.4-5.066 0 0-3.467-2.667-3.467-6.134 0-2.133 1.867-5.866 6.4-5.866s6.4 3.733 6.4 5.866c0 3.467-3.466 6.134-3.466 6.134 4-2.667 10.4-.8 10.4 5.066 0 2.667-2.134 5.867-6.134 5.867-4.533 0-5.6-4-5.6-4 0 .267-1.6 7.733 11.734 7.733H200v0h3.333c13.334 0 11.734 7.467 11.734 7.734 0 0-1.067-4-5.6-4-4 0-6.134 3.2-6.134 5.866 0 5.867 6.4 7.734 10.4 5.067 0 0-3.466 2.667-3.466 6.133 0 2.134 1.866 5.867 6.4 5.867 4.533 0 6.4-3.733 6.4-5.867 0-3.466-3.467-6.133-3.467-6.133 4 2.667 10.4.8 10.4-5.067 0-2.666-2.133-5.866-6.133-5.866-4.534 0-5.6 4-5.6 4 0-.267-1.6-7.734 11.733-7.734h6.667c13.333 0 11.733-7.466 11.733-7.733 0 0-1.067 4-5.6 4-4 0-6.133-3.2-6.133-5.867 0-5.866 6.4-7.733 10.4-5.066 0 0-3.467-2.667-3.467-6.134 0-2.133 1.867-5.866 6.4-5.866s6.4 3.733 6.4 5.866c0 3.467-3.467 6.134-3.467 6.134 4-2.667 10.4-.8 10.4 5.066 0 2.667-2.133 5.867-6.133 5.867-4.533 0-5.6-4-5.6-4 0 .267-1.6 7.733 11.733 7.733h3.334v0H270c13.333 0 11.733 7.467 11.733 7.734 0 0-1.066-4-5.6-4-4 0-6.133 3.2-6.133 5.866 0 5.867 6.4 7.734 10.4 5.067 0 0-3.467 2.667-3.467 6.133 0 2.134 1.867 5.867 6.4 5.867s6.4-3.733 6.4-5.867c0-3.466-3.466-6.133-3.466-6.133 4 2.667 10.4.8 10.4-5.067 0-2.666-2.134-5.866-6.134-5.866-4.533 0-5.6 4-5.6 4 0-.267-1.6-7.734 11.734-7.734h6.666c13.334 0 11.734-7.466 11.734-7.733 0 0-1.067 4-5.6 4-4 0-6.134-3.2-6.134-5.867 0-5.866 6.4-7.733 10.4-5.066 0 0-3.466-2.667-3.466-6.134 0-2.133 1.866-5.866 6.4-5.866 4.533 0 6.4 3.733 6.4 5.866 0 3.467-3.467 6.134-3.467 6.134 4-2.667 10.4-.8 10.4 5.066 0 2.667-2.133 5.867-6.133 5.867-4.534 0-5.6-4-5.6-4 0 .267-1.6 7.733 11.733 7.733h3.333v0h3.334c13.333 0 11.733 7.467 11.733 7.734 0 0-1.067-4-5.6-4-4 0-6.133 3.2-6.133 5.866 0 5.867 6.4 7.734 10.4 5.067 0 0-3.467 2.667-3.467 6.133 0 2.134 1.867 5.867 6.4 5.867s6.4-3.733 6.4-5.867c0-3.466-3.467-6.133-3.467-6.133 4 2.667 10.4.8 10.4-5.067 0-2.666-2.133-5.866-6.133-5.866-4.533 0-5.6 4-5.6 4 0-.267-1.6-7.734 11.733-7.734H370c13.333 0 11.733-7.466 11.733-7.733 0 0-1.066 4-5.6 4-4 0-6.133-3.2-6.133-5.867 0-5.866 6.4-7.733 10.4-5.066 0 0-3.467-2.667-3.467-6.134 0-2.133 1.867-5.866 6.4-5.866s6.4 3.733 6.4 5.866c0 3.467-3.466 6.134-3.466 6.134 4-2.667 10.4-.8 10.4 5.066 0 2.667-2.134 5.867-6.134 5.867-4.533 0-5.6-4-5.6-4 0 .267-1.6 7.733 11.734 7.733H400v0h3.333c13.333 0 11.733 7.467 11.733 7.734 0 0-1.066-4-5.6-4-4 0-6.133 3.2-6.133 5.866 0 5.867 6.4 7.734 10.4 5.067 0 0-3.467 2.667-3.467 6.133 0 2.134 1.867 5.867 6.4 5.867s6.4-3.733 6.4-5.867c0-3.466-3.466-6.133-3.466-6.133 4 2.667 10.4.8 10.4-5.067 0-2.666-2.134-5.866-6.134-5.866-4.533 0-5.6 4-5.6 4 0-.267-1.6-7.734 11.734-7.734h3.333"/></g><path fill="none" stroke="#333" stroke-linecap="round" stroke-linejoin="round" stroke-width=".5" d="M0 0h100v66.667H0z"/></svg>