<svg preserveAspectRatio="xMidYMin slice" viewBox="-10 -10 120 86.667" xmlns="http://www.w3.org/2000/svg"><defs><mask id="a"><path clip-rule="evenodd" d="M0 0h100v66.667H0z" fill-rule="evenodd" fill="#fff"/></mask></defs><g mask="url(#a)"><path d="M0 0h100v66.667H0z" fill-rule="evenodd" fill="#f0f0f0"/><defs><mask id="b"><path clip-rule="evenodd" d="M-30 25.833h95l-30 15h95v-15l489.21-155.57a600 600 0 0 0-1120.994-45.92L-30 25.832z" fill-rule="evenodd" fill="#fff"/></mask></defs><g mask="url(#b)"><path fill="#f6f6f6" style="cursor:pointer" d="M-1000-1000h2000v2000h-2000z"/></g><defs><mask id="c"><path clip-rule="evenodd" d="M-30 25.833h95l-30 15h95v-15l489.21-155.57a600 600 0 1 1-1120.994-45.92L-30 25.832z" fill-rule="evenodd" fill="#fff"/></mask></defs><g mask="url(#c)"><path fill="#f2bc51" style="cursor:pointer" d="M-1000-1000h2000v2000h-2000z"/></g><path d="M-30 25.833h95l-30 15h95v-15" fill="none" stroke-linecap="round" stroke-linejoin="round" stroke-width=".5" stroke="#333"/></g><path d="M0 0h100v66.667H0z" fill="none" stroke-linecap="round" stroke-linejoin="round" stroke-width=".5" stroke="#333"/></svg>