<?xml version="1.0" encoding="UTF-8" standalone="no"?>
<svg xmlns="http://www.w3.org/2000/svg" preserveAspectRatio="xMidYMin slice" viewBox="-10 -10 120 86.667"><defs><mask id="a"><path fill="#fff" fill-rule="evenodd" d="M0 0h100v66.667H0z" clip-rule="evenodd"/></mask></defs><g mask="url(#a)"><path fill="#f0f0f0" fill-rule="evenodd" d="M0 0h100v66.667H0z"/><defs><mask id="b"><path fill="#fff" fill-rule="evenodd" stroke="#fff" stroke-width=".1" d="M-50 37.083H0c25-10 75-10 100 0h50l491.836 78.223a600 600 0 1 0-1179.709 21.385z" clip-rule="evenodd"/></mask></defs><g mask="url(#b)"><path fill="#f6f6f6" d="M-1000-1000h2000v2000h-2000z"/></g><defs><mask id="c"><path fill="#fff" fill-rule="evenodd" d="M-50 37.083H0c25-10 75-10 100 0h50l491.836-85.722A600 600 0 1 1-545.057-26.861z" clip-rule="evenodd"/></mask></defs><g mask="url(#c)"><path fill="#0c6793" d="M-1000-1000h2000v2000h-2000z"/></g><path fill="none" stroke="#333" stroke-linecap="round" stroke-linejoin="round" stroke-width=".5" d="M-50 37.083H0c25-10 75-10 100 0h50"/></g><path fill="none" stroke="#333" stroke-linecap="round" stroke-linejoin="round" stroke-width=".5" d="M0 0h100v66.667H0z"/></svg>