<?xml version="1.0" encoding="UTF-8" standalone="no"?>
<svg xmlns="http://www.w3.org/2000/svg" preserveAspectRatio="xMidYMin slice" viewBox="-10 -10 120 86.667"><defs><mask id="a"><path fill="#fff" fill-rule="evenodd" d="M0 0h100v66.667H0z" clip-rule="evenodd"/></mask></defs><g mask="url(#a)"><path fill="#f0f0f0" fill-rule="evenodd" d="M0 0h100v66.667H0z"/><defs><mask id="b"><path fill="#fff" fill-rule="evenodd" stroke="#fff" stroke-width=".1" d="M-40 51.286c3.47-1.774 4.174-7.47 2.287-11.619 3.069 2.2 6.626-.111 5.737-3.66-1.445-.24-.99 1.395-2.663 1.438-1.673.044-2.932-1.104-2.937-2.538-.005-1.511.895-2.785 2.495-2.77s1.617 1.682 3.148 1.12c-.38-4.687-4.397-4.42-6.157-2.476-.55-2.284 1.098-3.914 3.123-3.926s2.418 1.826 3.285 1.633C-34.3 23.405-33.894 19.031-30 15.381c3.894 3.65 4.3 8.024 1.682 13.107.867.193 1.26-1.645 3.285-1.633s3.674 1.642 3.123 3.926c-1.76-1.944-5.777-2.211-6.157 2.476 1.53.562 1.547-1.104 3.148-1.12 1.6-.015 2.5 1.259 2.495 2.77-.005 1.434-1.264 2.582-2.937 2.538-1.672-.043-1.218-1.679-2.663-1.438-.889 3.549 2.668 5.86 5.737 3.66-1.887 4.15-1.183 9.845 2.287 11.619 3.47-1.774 4.174-7.47 2.287-11.619 3.069 2.2 6.626-.111 5.737-3.66-1.445-.24-.99 1.395-2.663 1.438-1.673.044-2.932-1.104-2.937-2.538-.005-1.511.895-2.785 2.495-2.77s1.617 1.682 3.148 1.12c-.38-4.687-4.397-4.42-6.157-2.476-.55-2.284 1.098-3.914 3.123-3.926s2.418 1.826 3.285 1.633C-14.3 23.405-13.894 19.031-10 15.381c3.894 3.65 4.3 8.024 1.682 13.107.867.193 1.26-1.645 3.285-1.633s3.674 1.642 3.123 3.926c-1.76-1.944-5.777-2.211-6.157 2.476 1.53.562 1.547-1.104 3.148-1.12 1.6-.015 2.5 1.259 2.495 2.77-.005 1.434-1.264 2.582-2.937 2.538-1.672-.043-1.218-1.679-2.663-1.438-.889 3.549 2.668 5.86 5.737 3.66C-4.174 43.817-3.47 49.512 0 51.286c3.47-1.774 4.174-7.47 2.287-11.619 3.069 2.2 6.626-.111 5.737-3.66-1.445-.24-.99 1.395-2.663 1.438-1.673.044-2.932-1.104-2.937-2.538-.005-1.511.895-2.785 2.495-2.77s1.617 1.682 3.148 1.12c-.38-4.687-4.397-4.42-6.157-2.476-.55-2.284 1.098-3.914 3.123-3.926s2.418 1.826 3.285 1.633C5.7 23.405 6.106 19.031 10 15.381c3.894 3.65 4.3 8.024 1.682 13.107.867.193 1.26-1.645 3.285-1.633s3.674 1.642 3.123 3.926c-1.76-1.944-5.777-2.211-6.157 2.476 1.53.562 1.547-1.104 3.148-1.12 1.6-.015 2.5 1.259 2.495 2.77-.005 1.434-1.264 2.582-2.937 2.538-1.672-.043-1.218-1.679-2.663-1.438-.889 3.549 2.668 5.86 5.737 3.66-1.887 4.15-1.183 9.845 2.287 11.619 3.47-1.774 4.174-7.47 2.287-11.619 3.069 2.2 6.626-.111 5.737-3.66-1.445-.24-.99 1.395-2.663 1.438-1.673.044-2.932-1.104-2.937-2.538-.005-1.511.895-2.785 2.495-2.77s1.617 1.682 3.148 1.12c-.38-4.687-4.397-4.42-6.157-2.476-.55-2.284 1.098-3.914 3.123-3.926s2.418 1.826 3.285 1.633C25.7 23.405 26.106 19.031 30 15.381c3.894 3.65 4.3 8.024 1.682 13.107.867.193 1.26-1.645 3.285-1.633s3.674 1.642 3.123 3.926c-1.76-1.944-5.777-2.211-6.157 2.476 1.53.562 1.547-1.104 3.148-1.12 1.6-.015 2.5 1.259 2.495 2.77-.005 1.434-1.264 2.582-2.937 2.538-1.672-.043-1.218-1.679-2.663-1.438-.889 3.549 2.668 5.86 5.737 3.66-1.887 4.15-1.183 9.845 2.287 11.619 3.47-1.774 4.174-7.47 2.287-11.619 3.069 2.2 6.626-.111 5.737-3.66-1.445-.24-.99 1.395-2.663 1.438-1.673.044-2.932-1.104-2.937-2.538-.005-1.511.895-2.785 2.495-2.77s1.617 1.682 3.148 1.12c-.38-4.687-4.397-4.42-6.157-2.476-.55-2.284 1.098-3.914 3.123-3.926s2.418 1.826 3.285 1.633C45.7 23.405 46.106 19.031 50 15.381c3.894 3.65 4.3 8.024 1.682 13.107.867.193 1.26-1.645 3.285-1.633s3.674 1.642 3.123 3.926c-1.76-1.944-5.777-2.211-6.157 2.476 1.53.562 1.547-1.104 3.148-1.12 1.6-.015 2.5 1.259 2.495 2.77-.005 1.434-1.264 2.582-2.937 2.538-1.672-.043-1.218-1.679-2.663-1.438-.889 3.549 2.668 5.86 5.737 3.66-1.887 4.15-1.183 9.845 2.287 11.619 3.47-1.774 4.174-7.47 2.287-11.619 3.069 2.2 6.626-.111 5.737-3.66-1.445-.24-.99 1.395-2.663 1.438-1.673.044-2.932-1.104-2.937-2.538-.005-1.511.895-2.785 2.495-2.77s1.617 1.682 3.148 1.12c-.38-4.687-4.397-4.42-6.157-2.476-.55-2.284 1.098-3.914 3.123-3.926s2.418 1.826 3.285 1.633C65.7 23.405 66.106 19.031 70 15.381c3.894 3.65 4.3 8.024 1.682 13.107.867.193 1.26-1.645 3.285-1.633s3.674 1.642 3.123 3.926c-1.76-1.944-5.777-2.211-6.157 2.476 1.53.562 1.547-1.104 3.148-1.12 1.6-.015 2.5 1.259 2.495 2.77-.005 1.434-1.264 2.582-2.937 2.538-1.672-.043-1.218-1.679-2.663-1.438-.889 3.549 2.668 5.86 5.737 3.66-1.887 4.15-1.183 9.845 2.287 11.619 3.47-1.774 4.174-7.47 2.287-11.619 3.069 2.2 6.626-.111 5.737-3.66-1.445-.24-.99 1.395-2.663 1.438-1.673.044-2.932-1.104-2.937-2.538-.005-1.511.895-2.785 2.495-2.77s1.617 1.682 3.148 1.12c-.38-4.687-4.397-4.42-6.157-2.476-.55-2.284 1.098-3.914 3.123-3.926s2.418 1.826 3.285 1.633C85.7 23.405 86.106 19.031 90 15.381c3.894 3.65 4.3 8.024 1.682 13.107.867.193 1.26-1.645 3.285-1.633s3.674 1.642 3.123 3.926c-1.76-1.944-5.777-2.211-6.157 2.476 1.53.562 1.547-1.104 3.148-1.12 1.6-.015 2.5 1.259 2.495 2.77-.005 1.434-1.264 2.582-2.937 2.538-1.672-.043-1.218-1.679-2.663-1.438-.889 3.549 2.668 5.86 5.737 3.66-1.887 4.15-1.183 9.845 2.287 11.619 3.47-1.774 4.174-7.47 2.287-11.619 3.069 2.2 6.626-.111 5.737-3.66-1.445-.24-.99 1.395-2.663 1.438-1.673.044-2.932-1.104-2.937-2.538-.005-1.511.895-2.785 2.495-2.77s1.617 1.682 3.148 1.12c-.38-4.687-4.397-4.42-6.157-2.476-.55-2.284 1.098-3.914 3.123-3.926s2.418 1.826 3.285 1.633c-2.618-5.083-2.212-9.457 1.682-13.107 3.894 3.65 4.3 8.024 1.682 13.107.867.193 1.26-1.645 3.285-1.633s3.674 1.642 3.123 3.926c-1.76-1.944-5.777-2.211-6.157 2.476 1.53.562 1.547-1.104 3.148-1.12 1.6-.015 2.5 1.259 2.495 2.77-.005 1.434-1.264 2.582-2.937 2.538-1.672-.043-1.218-1.679-2.663-1.438-.889 3.549 2.668 5.86 5.737 3.66-1.887 4.15-1.183 9.845 2.287 11.619 3.47-1.774 4.174-7.47 2.287-11.619 3.069 2.2 6.626-.111 5.737-3.66-1.445-.24-.99 1.395-2.663 1.438-1.673.044-2.932-1.104-2.937-2.538-.005-1.511.895-2.785 2.495-2.77s1.617 1.682 3.148 1.12c-.38-4.687-4.397-4.42-6.157-2.476-.55-2.284 1.098-3.914 3.123-3.926s2.418 1.826 3.285 1.633c-2.618-5.083-2.212-9.457 1.682-13.107 3.894 3.65 4.3 8.024 1.682 13.107.867.193 1.26-1.645 3.285-1.633s3.674 1.642 3.123 3.926c-1.76-1.944-5.777-2.211-6.157 2.476 1.53.562 1.547-1.104 3.148-1.12 1.6-.015 2.5 1.259 2.495 2.77-.005 1.434-1.264 2.582-2.937 2.538-1.672-.043-1.218-1.679-2.663-1.438-.889 3.549 2.668 5.86 5.737 3.66-1.887 4.15-1.183 9.845 2.287 11.619 3.47-1.774 4.174-7.47 2.287-11.619 3.069 2.2 6.626-.111 5.737-3.66-1.445-.24-.99 1.395-2.663 1.438-1.673.044-2.932-1.104-2.937-2.538-.005-1.511.895-2.785 2.495-2.77s1.617 1.682 3.148 1.12c-.38-4.687-4.397-4.42-6.157-2.476-.55-2.284 1.098-3.914 3.123-3.926s2.418 1.826 3.285 1.633c-2.618-5.083-2.212-9.457 1.682-13.107 3.894 3.65 4.3 8.024 1.682 13.107.867.193 1.26-1.645 3.285-1.633s3.674 1.642 3.123 3.926c-1.76-1.944-5.777-2.211-6.157 2.476 1.53.562 1.547-1.104 3.148-1.12 1.6-.015 2.5 1.259 2.495 2.77-.005 1.434-1.264 2.582-2.937 2.538-1.672-.043-1.218-1.679-2.663-1.438-.889 3.549 2.668 5.86 5.737 3.66-1.887 4.15-1.183 9.845 2.287 11.619 3.47-1.774 4.174-7.47 2.287-11.619 3.069 2.2 6.626-.111 5.737-3.66-1.445-.24-.99 1.395-2.663 1.438-1.673.044-2.932-1.104-2.937-2.538-.005-1.511.895-2.785 2.495-2.77s1.617 1.682 3.148 1.12c-.38-4.687-4.397-4.42-6.157-2.476-.55-2.284 1.098-3.914 3.123-3.926s2.418 1.826 3.285 1.633c-2.618-5.083-2.212-9.457 1.682-13.107 3.894 3.65 4.3 8.024 1.682 13.107.867.193 1.26-1.645 3.285-1.633s3.674 1.642 3.123 3.926c-1.76-1.944-5.777-2.211-6.157 2.476 1.53.562 1.547-1.104 3.148-1.12 1.6-.015 2.5 1.259 2.495 2.77-.005 1.434-1.264 2.582-2.937 2.538-1.672-.043-1.218-1.679-2.663-1.438-.889 3.549 2.668 5.86 5.737 3.66-1.887 4.15-1.183 9.845 2.287 11.619l459.97 74.634A600 600 0 1 0-510 232.074z" clip-rule="evenodd"/></mask></defs><g mask="url(#b)"><path fill="#f6f6f6" d="M-1000-1000h2000v2000h-2000z"/></g><defs><mask id="c"><path fill="#fff" fill-rule="evenodd" d="M-40 51.286c3.47-1.774 4.174-7.47 2.287-11.619 3.069 2.2 6.626-.111 5.737-3.66-1.445-.24-.99 1.395-2.663 1.438-1.673.044-2.932-1.104-2.937-2.538-.005-1.511.895-2.785 2.495-2.77s1.617 1.682 3.148 1.12c-.38-4.687-4.397-4.42-6.157-2.476-.55-2.284 1.098-3.914 3.123-3.926s2.418 1.826 3.285 1.633C-34.3 23.405-33.894 19.031-30 15.381c3.894 3.65 4.3 8.024 1.682 13.107.867.193 1.26-1.645 3.285-1.633s3.674 1.642 3.123 3.926c-1.76-1.944-5.777-2.211-6.157 2.476 1.53.562 1.547-1.104 3.148-1.12 1.6-.015 2.5 1.259 2.495 2.77-.005 1.434-1.264 2.582-2.937 2.538-1.672-.043-1.218-1.679-2.663-1.438-.889 3.549 2.668 5.86 5.737 3.66-1.887 4.15-1.183 9.845 2.287 11.619 3.47-1.774 4.174-7.47 2.287-11.619 3.069 2.2 6.626-.111 5.737-3.66-1.445-.24-.99 1.395-2.663 1.438-1.673.044-2.932-1.104-2.937-2.538-.005-1.511.895-2.785 2.495-2.77s1.617 1.682 3.148 1.12c-.38-4.687-4.397-4.42-6.157-2.476-.55-2.284 1.098-3.914 3.123-3.926s2.418 1.826 3.285 1.633C-14.3 23.405-13.894 19.031-10 15.381c3.894 3.65 4.3 8.024 1.682 13.107.867.193 1.26-1.645 3.285-1.633s3.674 1.642 3.123 3.926c-1.76-1.944-5.777-2.211-6.157 2.476 1.53.562 1.547-1.104 3.148-1.12 1.6-.015 2.5 1.259 2.495 2.77-.005 1.434-1.264 2.582-2.937 2.538-1.672-.043-1.218-1.679-2.663-1.438-.889 3.549 2.668 5.86 5.737 3.66C-4.174 43.817-3.47 49.512 0 51.286c3.47-1.774 4.174-7.47 2.287-11.619 3.069 2.2 6.626-.111 5.737-3.66-1.445-.24-.99 1.395-2.663 1.438-1.673.044-2.932-1.104-2.937-2.538-.005-1.511.895-2.785 2.495-2.77s1.617 1.682 3.148 1.12c-.38-4.687-4.397-4.42-6.157-2.476-.55-2.284 1.098-3.914 3.123-3.926s2.418 1.826 3.285 1.633C5.7 23.405 6.106 19.031 10 15.381c3.894 3.65 4.3 8.024 1.682 13.107.867.193 1.26-1.645 3.285-1.633s3.674 1.642 3.123 3.926c-1.76-1.944-5.777-2.211-6.157 2.476 1.53.562 1.547-1.104 3.148-1.12 1.6-.015 2.5 1.259 2.495 2.77-.005 1.434-1.264 2.582-2.937 2.538-1.672-.043-1.218-1.679-2.663-1.438-.889 3.549 2.668 5.86 5.737 3.66-1.887 4.15-1.183 9.845 2.287 11.619 3.47-1.774 4.174-7.47 2.287-11.619 3.069 2.2 6.626-.111 5.737-3.66-1.445-.24-.99 1.395-2.663 1.438-1.673.044-2.932-1.104-2.937-2.538-.005-1.511.895-2.785 2.495-2.77s1.617 1.682 3.148 1.12c-.38-4.687-4.397-4.42-6.157-2.476-.55-2.284 1.098-3.914 3.123-3.926s2.418 1.826 3.285 1.633C25.7 23.405 26.106 19.031 30 15.381c3.894 3.65 4.3 8.024 1.682 13.107.867.193 1.26-1.645 3.285-1.633s3.674 1.642 3.123 3.926c-1.76-1.944-5.777-2.211-6.157 2.476 1.53.562 1.547-1.104 3.148-1.12 1.6-.015 2.5 1.259 2.495 2.77-.005 1.434-1.264 2.582-2.937 2.538-1.672-.043-1.218-1.679-2.663-1.438-.889 3.549 2.668 5.86 5.737 3.66-1.887 4.15-1.183 9.845 2.287 11.619 3.47-1.774 4.174-7.47 2.287-11.619 3.069 2.2 6.626-.111 5.737-3.66-1.445-.24-.99 1.395-2.663 1.438-1.673.044-2.932-1.104-2.937-2.538-.005-1.511.895-2.785 2.495-2.77s1.617 1.682 3.148 1.12c-.38-4.687-4.397-4.42-6.157-2.476-.55-2.284 1.098-3.914 3.123-3.926s2.418 1.826 3.285 1.633C45.7 23.405 46.106 19.031 50 15.381c3.894 3.65 4.3 8.024 1.682 13.107.867.193 1.26-1.645 3.285-1.633s3.674 1.642 3.123 3.926c-1.76-1.944-5.777-2.211-6.157 2.476 1.53.562 1.547-1.104 3.148-1.12 1.6-.015 2.5 1.259 2.495 2.77-.005 1.434-1.264 2.582-2.937 2.538-1.672-.043-1.218-1.679-2.663-1.438-.889 3.549 2.668 5.86 5.737 3.66-1.887 4.15-1.183 9.845 2.287 11.619 3.47-1.774 4.174-7.47 2.287-11.619 3.069 2.2 6.626-.111 5.737-3.66-1.445-.24-.99 1.395-2.663 1.438-1.673.044-2.932-1.104-2.937-2.538-.005-1.511.895-2.785 2.495-2.77s1.617 1.682 3.148 1.12c-.38-4.687-4.397-4.42-6.157-2.476-.55-2.284 1.098-3.914 3.123-3.926s2.418 1.826 3.285 1.633C65.7 23.405 66.106 19.031 70 15.381c3.894 3.65 4.3 8.024 1.682 13.107.867.193 1.26-1.645 3.285-1.633s3.674 1.642 3.123 3.926c-1.76-1.944-5.777-2.211-6.157 2.476 1.53.562 1.547-1.104 3.148-1.12 1.6-.015 2.5 1.259 2.495 2.77-.005 1.434-1.264 2.582-2.937 2.538-1.672-.043-1.218-1.679-2.663-1.438-.889 3.549 2.668 5.86 5.737 3.66-1.887 4.15-1.183 9.845 2.287 11.619 3.47-1.774 4.174-7.47 2.287-11.619 3.069 2.2 6.626-.111 5.737-3.66-1.445-.24-.99 1.395-2.663 1.438-1.673.044-2.932-1.104-2.937-2.538-.005-1.511.895-2.785 2.495-2.77s1.617 1.682 3.148 1.12c-.38-4.687-4.397-4.42-6.157-2.476-.55-2.284 1.098-3.914 3.123-3.926s2.418 1.826 3.285 1.633C85.7 23.405 86.106 19.031 90 15.381c3.894 3.65 4.3 8.024 1.682 13.107.867.193 1.26-1.645 3.285-1.633s3.674 1.642 3.123 3.926c-1.76-1.944-5.777-2.211-6.157 2.476 1.53.562 1.547-1.104 3.148-1.12 1.6-.015 2.5 1.259 2.495 2.77-.005 1.434-1.264 2.582-2.937 2.538-1.672-.043-1.218-1.679-2.663-1.438-.889 3.549 2.668 5.86 5.737 3.66-1.887 4.15-1.183 9.845 2.287 11.619 3.47-1.774 4.174-7.47 2.287-11.619 3.069 2.2 6.626-.111 5.737-3.66-1.445-.24-.99 1.395-2.663 1.438-1.673.044-2.932-1.104-2.937-2.538-.005-1.511.895-2.785 2.495-2.77s1.617 1.682 3.148 1.12c-.38-4.687-4.397-4.42-6.157-2.476-.55-2.284 1.098-3.914 3.123-3.926s2.418 1.826 3.285 1.633c-2.618-5.083-2.212-9.457 1.682-13.107 3.894 3.65 4.3 8.024 1.682 13.107.867.193 1.26-1.645 3.285-1.633s3.674 1.642 3.123 3.926c-1.76-1.944-5.777-2.211-6.157 2.476 1.53.562 1.547-1.104 3.148-1.12 1.6-.015 2.5 1.259 2.495 2.77-.005 1.434-1.264 2.582-2.937 2.538-1.672-.043-1.218-1.679-2.663-1.438-.889 3.549 2.668 5.86 5.737 3.66-1.887 4.15-1.183 9.845 2.287 11.619 3.47-1.774 4.174-7.47 2.287-11.619 3.069 2.2 6.626-.111 5.737-3.66-1.445-.24-.99 1.395-2.663 1.438-1.673.044-2.932-1.104-2.937-2.538-.005-1.511.895-2.785 2.495-2.77s1.617 1.682 3.148 1.12c-.38-4.687-4.397-4.42-6.157-2.476-.55-2.284 1.098-3.914 3.123-3.926s2.418 1.826 3.285 1.633c-2.618-5.083-2.212-9.457 1.682-13.107 3.894 3.65 4.3 8.024 1.682 13.107.867.193 1.26-1.645 3.285-1.633s3.674 1.642 3.123 3.926c-1.76-1.944-5.777-2.211-6.157 2.476 1.53.562 1.547-1.104 3.148-1.12 1.6-.015 2.5 1.259 2.495 2.77-.005 1.434-1.264 2.582-2.937 2.538-1.672-.043-1.218-1.679-2.663-1.438-.889 3.549 2.668 5.86 5.737 3.66-1.887 4.15-1.183 9.845 2.287 11.619 3.47-1.774 4.174-7.47 2.287-11.619 3.069 2.2 6.626-.111 5.737-3.66-1.445-.24-.99 1.395-2.663 1.438-1.673.044-2.932-1.104-2.937-2.538-.005-1.511.895-2.785 2.495-2.77s1.617 1.682 3.148 1.12c-.38-4.687-4.397-4.42-6.157-2.476-.55-2.284 1.098-3.914 3.123-3.926s2.418 1.826 3.285 1.633c-2.618-5.083-2.212-9.457 1.682-13.107 3.894 3.65 4.3 8.024 1.682 13.107.867.193 1.26-1.645 3.285-1.633s3.674 1.642 3.123 3.926c-1.76-1.944-5.777-2.211-6.157 2.476 1.53.562 1.547-1.104 3.148-1.12 1.6-.015 2.5 1.259 2.495 2.77-.005 1.434-1.264 2.582-2.937 2.538-1.672-.043-1.218-1.679-2.663-1.438-.889 3.549 2.668 5.86 5.737 3.66-1.887 4.15-1.183 9.845 2.287 11.619 3.47-1.774 4.174-7.47 2.287-11.619 3.069 2.2 6.626-.111 5.737-3.66-1.445-.24-.99 1.395-2.663 1.438-1.673.044-2.932-1.104-2.937-2.538-.005-1.511.895-2.785 2.495-2.77s1.617 1.682 3.148 1.12c-.38-4.687-4.397-4.42-6.157-2.476-.55-2.284 1.098-3.914 3.123-3.926s2.418 1.826 3.285 1.633c-2.618-5.083-2.212-9.457 1.682-13.107 3.894 3.65 4.3 8.024 1.682 13.107.867.193 1.26-1.645 3.285-1.633s3.674 1.642 3.123 3.926c-1.76-1.944-5.777-2.211-6.157 2.476 1.53.562 1.547-1.104 3.148-1.12 1.6-.015 2.5 1.259 2.495 2.77-.005 1.434-1.264 2.582-2.937 2.538-1.672-.043-1.218-1.679-2.663-1.438-.889 3.549 2.668 5.86 5.737 3.66-1.887 4.15-1.183 9.845 2.287 11.619l459.97-110.54A600 600 0 1 1-549.94 58.571z" clip-rule="evenodd"/></mask></defs><g mask="url(#c)"><path fill="#f2bc51" d="M-1000-1000h2000v2000h-2000z"/></g><path fill="none" stroke="#333" stroke-linecap="round" stroke-linejoin="round" stroke-width=".5" d="M-40 51.286c3.47-1.774 4.174-7.47 2.287-11.619 3.069 2.2 6.626-.111 5.737-3.66-1.445-.24-.99 1.395-2.663 1.438-1.673.044-2.932-1.104-2.937-2.538-.005-1.511.895-2.785 2.495-2.77s1.617 1.682 3.148 1.12c-.38-4.687-4.397-4.42-6.157-2.476-.55-2.284 1.098-3.914 3.123-3.926s2.418 1.826 3.285 1.633C-34.3 23.405-33.894 19.031-30 15.381c3.894 3.65 4.3 8.024 1.682 13.107.867.193 1.26-1.645 3.285-1.633s3.674 1.642 3.123 3.926c-1.76-1.944-5.777-2.211-6.157 2.476 1.53.562 1.547-1.104 3.148-1.12 1.6-.015 2.5 1.259 2.495 2.77-.005 1.434-1.264 2.582-2.937 2.538-1.672-.043-1.218-1.679-2.663-1.438-.889 3.549 2.668 5.86 5.737 3.66-1.887 4.15-1.183 9.845 2.287 11.619 3.47-1.774 4.174-7.47 2.287-11.619 3.069 2.2 6.626-.111 5.737-3.66-1.445-.24-.99 1.395-2.663 1.438-1.673.044-2.932-1.104-2.937-2.538-.005-1.511.895-2.785 2.495-2.77s1.617 1.682 3.148 1.12c-.38-4.687-4.397-4.42-6.157-2.476-.55-2.284 1.098-3.914 3.123-3.926s2.418 1.826 3.285 1.633C-14.3 23.405-13.894 19.031-10 15.381c3.894 3.65 4.3 8.024 1.682 13.107.867.193 1.26-1.645 3.285-1.633s3.674 1.642 3.123 3.926c-1.76-1.944-5.777-2.211-6.157 2.476 1.53.562 1.547-1.104 3.148-1.12 1.6-.015 2.5 1.259 2.495 2.77-.005 1.434-1.264 2.582-2.937 2.538-1.672-.043-1.218-1.679-2.663-1.438-.889 3.549 2.668 5.86 5.737 3.66C-4.174 43.817-3.47 49.512 0 51.286c3.47-1.774 4.174-7.47 2.287-11.619 3.069 2.2 6.626-.111 5.737-3.66-1.445-.24-.99 1.395-2.663 1.438-1.673.044-2.932-1.104-2.937-2.538-.005-1.511.895-2.785 2.495-2.77s1.617 1.682 3.148 1.12c-.38-4.687-4.397-4.42-6.157-2.476-.55-2.284 1.098-3.914 3.123-3.926s2.418 1.826 3.285 1.633C5.7 23.405 6.106 19.031 10 15.381c3.894 3.65 4.3 8.024 1.682 13.107.867.193 1.26-1.645 3.285-1.633s3.674 1.642 3.123 3.926c-1.76-1.944-5.777-2.211-6.157 2.476 1.53.562 1.547-1.104 3.148-1.12 1.6-.015 2.5 1.259 2.495 2.77-.005 1.434-1.264 2.582-2.937 2.538-1.672-.043-1.218-1.679-2.663-1.438-.889 3.549 2.668 5.86 5.737 3.66-1.887 4.15-1.183 9.845 2.287 11.619 3.47-1.774 4.174-7.47 2.287-11.619 3.069 2.2 6.626-.111 5.737-3.66-1.445-.24-.99 1.395-2.663 1.438-1.673.044-2.932-1.104-2.937-2.538-.005-1.511.895-2.785 2.495-2.77s1.617 1.682 3.148 1.12c-.38-4.687-4.397-4.42-6.157-2.476-.55-2.284 1.098-3.914 3.123-3.926s2.418 1.826 3.285 1.633C25.7 23.405 26.106 19.031 30 15.381c3.894 3.65 4.3 8.024 1.682 13.107.867.193 1.26-1.645 3.285-1.633s3.674 1.642 3.123 3.926c-1.76-1.944-5.777-2.211-6.157 2.476 1.53.562 1.547-1.104 3.148-1.12 1.6-.015 2.5 1.259 2.495 2.77-.005 1.434-1.264 2.582-2.937 2.538-1.672-.043-1.218-1.679-2.663-1.438-.889 3.549 2.668 5.86 5.737 3.66-1.887 4.15-1.183 9.845 2.287 11.619 3.47-1.774 4.174-7.47 2.287-11.619 3.069 2.2 6.626-.111 5.737-3.66-1.445-.24-.99 1.395-2.663 1.438-1.673.044-2.932-1.104-2.937-2.538-.005-1.511.895-2.785 2.495-2.77s1.617 1.682 3.148 1.12c-.38-4.687-4.397-4.42-6.157-2.476-.55-2.284 1.098-3.914 3.123-3.926s2.418 1.826 3.285 1.633C45.7 23.405 46.106 19.031 50 15.381c3.894 3.65 4.3 8.024 1.682 13.107.867.193 1.26-1.645 3.285-1.633s3.674 1.642 3.123 3.926c-1.76-1.944-5.777-2.211-6.157 2.476 1.53.562 1.547-1.104 3.148-1.12 1.6-.015 2.5 1.259 2.495 2.77-.005 1.434-1.264 2.582-2.937 2.538-1.672-.043-1.218-1.679-2.663-1.438-.889 3.549 2.668 5.86 5.737 3.66-1.887 4.15-1.183 9.845 2.287 11.619 3.47-1.774 4.174-7.47 2.287-11.619 3.069 2.2 6.626-.111 5.737-3.66-1.445-.24-.99 1.395-2.663 1.438-1.673.044-2.932-1.104-2.937-2.538-.005-1.511.895-2.785 2.495-2.77s1.617 1.682 3.148 1.12c-.38-4.687-4.397-4.42-6.157-2.476-.55-2.284 1.098-3.914 3.123-3.926s2.418 1.826 3.285 1.633C65.7 23.405 66.106 19.031 70 15.381c3.894 3.65 4.3 8.024 1.682 13.107.867.193 1.26-1.645 3.285-1.633s3.674 1.642 3.123 3.926c-1.76-1.944-5.777-2.211-6.157 2.476 1.53.562 1.547-1.104 3.148-1.12 1.6-.015 2.5 1.259 2.495 2.77-.005 1.434-1.264 2.582-2.937 2.538-1.672-.043-1.218-1.679-2.663-1.438-.889 3.549 2.668 5.86 5.737 3.66-1.887 4.15-1.183 9.845 2.287 11.619 3.47-1.774 4.174-7.47 2.287-11.619 3.069 2.2 6.626-.111 5.737-3.66-1.445-.24-.99 1.395-2.663 1.438-1.673.044-2.932-1.104-2.937-2.538-.005-1.511.895-2.785 2.495-2.77s1.617 1.682 3.148 1.12c-.38-4.687-4.397-4.42-6.157-2.476-.55-2.284 1.098-3.914 3.123-3.926s2.418 1.826 3.285 1.633C85.7 23.405 86.106 19.031 90 15.381c3.894 3.65 4.3 8.024 1.682 13.107.867.193 1.26-1.645 3.285-1.633s3.674 1.642 3.123 3.926c-1.76-1.944-5.777-2.211-6.157 2.476 1.53.562 1.547-1.104 3.148-1.12 1.6-.015 2.5 1.259 2.495 2.77-.005 1.434-1.264 2.582-2.937 2.538-1.672-.043-1.218-1.679-2.663-1.438-.889 3.549 2.668 5.86 5.737 3.66-1.887 4.15-1.183 9.845 2.287 11.619 3.47-1.774 4.174-7.47 2.287-11.619 3.069 2.2 6.626-.111 5.737-3.66-1.445-.24-.99 1.395-2.663 1.438-1.673.044-2.932-1.104-2.937-2.538-.005-1.511.895-2.785 2.495-2.77s1.617 1.682 3.148 1.12c-.38-4.687-4.397-4.42-6.157-2.476-.55-2.284 1.098-3.914 3.123-3.926s2.418 1.826 3.285 1.633c-2.618-5.083-2.212-9.457 1.682-13.107 3.894 3.65 4.3 8.024 1.682 13.107.867.193 1.26-1.645 3.285-1.633s3.674 1.642 3.123 3.926c-1.76-1.944-5.777-2.211-6.157 2.476 1.53.562 1.547-1.104 3.148-1.12 1.6-.015 2.5 1.259 2.495 2.77-.005 1.434-1.264 2.582-2.937 2.538-1.672-.043-1.218-1.679-2.663-1.438-.889 3.549 2.668 5.86 5.737 3.66-1.887 4.15-1.183 9.845 2.287 11.619 3.47-1.774 4.174-7.47 2.287-11.619 3.069 2.2 6.626-.111 5.737-3.66-1.445-.24-.99 1.395-2.663 1.438-1.673.044-2.932-1.104-2.937-2.538-.005-1.511.895-2.785 2.495-2.77s1.617 1.682 3.148 1.12c-.38-4.687-4.397-4.42-6.157-2.476-.55-2.284 1.098-3.914 3.123-3.926s2.418 1.826 3.285 1.633c-2.618-5.083-2.212-9.457 1.682-13.107 3.894 3.65 4.3 8.024 1.682 13.107.867.193 1.26-1.645 3.285-1.633s3.674 1.642 3.123 3.926c-1.76-1.944-5.777-2.211-6.157 2.476 1.53.562 1.547-1.104 3.148-1.12 1.6-.015 2.5 1.259 2.495 2.77-.005 1.434-1.264 2.582-2.937 2.538-1.672-.043-1.218-1.679-2.663-1.438-.889 3.549 2.668 5.86 5.737 3.66-1.887 4.15-1.183 9.845 2.287 11.619 3.47-1.774 4.174-7.47 2.287-11.619 3.069 2.2 6.626-.111 5.737-3.66-1.445-.24-.99 1.395-2.663 1.438-1.673.044-2.932-1.104-2.937-2.538-.005-1.511.895-2.785 2.495-2.77s1.617 1.682 3.148 1.12c-.38-4.687-4.397-4.42-6.157-2.476-.55-2.284 1.098-3.914 3.123-3.926s2.418 1.826 3.285 1.633c-2.618-5.083-2.212-9.457 1.682-13.107 3.894 3.65 4.3 8.024 1.682 13.107.867.193 1.26-1.645 3.285-1.633s3.674 1.642 3.123 3.926c-1.76-1.944-5.777-2.211-6.157 2.476 1.53.562 1.547-1.104 3.148-1.12 1.6-.015 2.5 1.259 2.495 2.77-.005 1.434-1.264 2.582-2.937 2.538-1.672-.043-1.218-1.679-2.663-1.438-.889 3.549 2.668 5.86 5.737 3.66-1.887 4.15-1.183 9.845 2.287 11.619 3.47-1.774 4.174-7.47 2.287-11.619 3.069 2.2 6.626-.111 5.737-3.66-1.445-.24-.99 1.395-2.663 1.438-1.673.044-2.932-1.104-2.937-2.538-.005-1.511.895-2.785 2.495-2.77s1.617 1.682 3.148 1.12c-.38-4.687-4.397-4.42-6.157-2.476-.55-2.284 1.098-3.914 3.123-3.926s2.418 1.826 3.285 1.633c-2.618-5.083-2.212-9.457 1.682-13.107 3.894 3.65 4.3 8.024 1.682 13.107.867.193 1.26-1.645 3.285-1.633s3.674 1.642 3.123 3.926c-1.76-1.944-5.777-2.211-6.157 2.476 1.53.562 1.547-1.104 3.148-1.12 1.6-.015 2.5 1.259 2.495 2.77-.005 1.434-1.264 2.582-2.937 2.538-1.672-.043-1.218-1.679-2.663-1.438-.889 3.549 2.668 5.86 5.737 3.66-1.887 4.15-1.183 9.845 2.287 11.619"/></g><path fill="none" stroke="#333" stroke-linecap="round" stroke-linejoin="round" stroke-width=".5" d="M0 0h100v66.667H0z"/></svg>