<?xml version="1.0" encoding="UTF-8" standalone="no"?>
<svg xmlns="http://www.w3.org/2000/svg" viewBox="-10 -10 120 140" preserveAspectRatio="xMidYMin slice"><defs><mask id="a"><path d="M0 0h100v120H0z" clip-rule="evenodd" fill-rule="evenodd" fill="#fff"/></mask></defs><g mask="url(#a)"><path d="M0 0h100v120H0z" fill-rule="evenodd" fill="#f0f0f0"/><path fill="#f6f6f6" d="M-1000-1000h2000v2000h-2000z"/><defs><mask id="b"><path d="m-3.2-23.367 125.606 150.73 128.38 454.547a600 600 0 0 1-96.543 18.887l-51.042-457.43L-22.406-7.363l-486.438-52.392a600 600 0 0 1 22.893-111.584L-3.201-23.367z" clip-rule="evenodd" fill-rule="evenodd" fill="#fff"/></mask></defs><g mask="url(#b)"><path fill="#0c6793" d="M137.64-1416.408 1418.008 120.035-118.434 1400.403-1398.803-136.039z"/></g><path d="m-3.2-23.367 125.606 150.73M103.2 143.367-22.405-7.363" stroke="#333" stroke-width=".5" fill="none" stroke-linecap="round" stroke-linejoin="round"/></g><path d="M0 0h100v120H0z" stroke="#333" stroke-width=".5" fill="none" stroke-linecap="round" stroke-linejoin="round"/></svg>