<?xml version="1.0" encoding="UTF-8" standalone="no"?>
<svg xmlns="http://www.w3.org/2000/svg" preserveAspectRatio="xMidYMin slice" viewBox="-10 -10 120 140"><defs><mask id="a"><path fill="#fff" fill-rule="evenodd" d="M0 0h100v120H0z" clip-rule="evenodd"/></mask></defs><g mask="url(#a)"><path fill="#f0f0f0" fill-rule="evenodd" d="M0 0h100v120H0z"/><path fill="#f6f6f6" d="M-1000-1000h2000v2000h-2000z"/><defs><mask id="b"><path fill="#fff" fill-rule="evenodd" d="M-22.406 127.362 103.2-23.367l102.384-436.265a600 600 0 0 1 89.965 28.749L122.406-7.363-3.2 143.368l-508.543 133.83a600 600 0 0 1-19.459-133.803z" clip-rule="evenodd"/></mask></defs><g mask="url(#b)"><path fill="#f2bc51" d="M-1418.008 240.035-137.64-1296.408 1398.803-16.039 118.434 1520.403z"/></g><path fill="none" stroke="#333" stroke-linecap="round" stroke-linejoin="round" stroke-width=".5" d="M-22.406 127.362 103.2-23.367m19.206 16.005L-3.2 143.367"/></g><path fill="none" stroke="#333" stroke-linecap="round" stroke-linejoin="round" stroke-width=".5" d="M0 0h100v120H0z"/></svg>