<svg preserveAspectRatio="xMidYMin slice" viewBox="0 0 120 200" xmlns="http://www.w3.org/2000/svg"><g transform="translate(10 10)"><defs><mask id="a"><path clip-rule="evenodd" d="M0 0h100v120H0z" fill-rule="evenodd" fill="#fff"/></mask></defs><g mask="url(#a)"><path d="M0 0h100v120H0z" fill-rule="evenodd" fill="#f0f0f0"/><path fill="#f6f6f6" style="cursor:pointer" d="M-1000-1000h2000v2000h-2000z"/><defs><mask id="b"><path clip-rule="evenodd" d="M33.729 60-78.037-74.119v-39.05L50 40.473 178.037-113.17l-.002 39.054L66.27 60l111.766 134.119v39.05L50 79.527-78.037 233.17l.002-39.054L33.73 60z" fill-rule="evenodd" fill="#fff"/><path d="M33.729 60-78.037-74.119v-39.05L50 40.473 178.037-113.17l-.002 39.054L66.27 60l111.766 134.119v39.05L50 79.527-78.037 233.17l.002-39.054L33.73 60z" fill="none" stroke-width=".1" stroke="#fff"/></mask></defs><g mask="url(#b)"><path fill="#f2bc51" style="cursor:pointer" d="M-1000-1000h2000v2000h-2000z"/></g><path d="M-78.037-113.17 50 40.474 178.037-113.17m-.002 39.054L66.27 60l111.766 134.119m.001 39.051L50 79.526-78.037 233.17m.002-39.054L33.73 60-78.037-74.119" fill="none" stroke-linecap="round" stroke-linejoin="round" stroke-width=".5" stroke="#333"/></g><path d="M0 0h100v120H0z" fill="none" stroke-linecap="round" stroke-linejoin="round" stroke-width=".5" stroke="#333"/></g></svg>