<?xml version="1.0" encoding="UTF-8" standalone="no"?>
<svg xmlns="http://www.w3.org/2000/svg" preserveAspectRatio="xMidYMin slice" viewBox="-10 -10 120 140"><defs><mask id="a"><path fill="#fff" fill-rule="evenodd" d="M0 0h100v120H0z" clip-rule="evenodd"/></mask></defs><g mask="url(#a)"><path fill="#f0f0f0" fill-rule="evenodd" d="M0 0h100v120H0z"/><path fill="#f6f6f6" d="M-1000-1000h2000v2000h-2000z"/><defs><mask id="b"><path fill="#fff" fill-rule="evenodd" d="M-2.934-23.047 50 40.474l52.934-63.52L372.5-445.96a600 600 0 0 1 114.295 94.607L125.607-11.203 66.271 60l59.336 71.203 361.188 340.149A600 600 0 0 1 372.5 565.959L102.934 143.047 50 79.526l-52.934 63.52L-272.5 565.96a600 600 0 0 1-114.295-94.607l361.188-340.149L33.729 60l-59.336-71.203-361.188-340.149A600 600 0 0 1-272.5-445.959z" clip-rule="evenodd"/></mask></defs><g mask="url(#b)"><path fill="#0c6793" d="M-1000-1000h2000v2000h-2000z"/></g><path fill="none" stroke="#333" stroke-linecap="round" stroke-linejoin="round" stroke-width=".5" d="M-2.934-23.047 50 40.474l52.934-63.52M-25.607 131.203 33.729 60l-59.336-71.203m151.214 0L66.271 60l59.336 71.203m-22.673 11.844L50 79.526l-52.934 63.52"/></g><path fill="none" stroke="#333" stroke-linecap="round" stroke-linejoin="round" stroke-width=".5" d="M0 0h100v120H0z"/></svg>