<svg preserveAspectRatio="xMidYMin slice" viewBox="-10 -10 120 140" xmlns="http://www.w3.org/2000/svg"><defs><mask id="a"><path clip-rule="evenodd" d="M0 0h100v120H0z" fill-rule="evenodd" fill="#fff"/></mask></defs><g mask="url(#a)"><path d="M0 0h100v120H0z" fill-rule="evenodd" fill="#f0f0f0"/><path fill="#f6f6f6" style="cursor:pointer" d="M-1000-1000h2000v2000h-2000z"/><defs><mask id="b"><path clip-rule="evenodd" d="M-6.188-23.047 50 44.38l56.188-67.427 280.038-413.896a600 600 0 0 1 89.44 74.086L125.607-15.108 60 63.62V150l56.259 506.33a600 600 0 0 1-132.518 0L40 150V63.62l-65.607-78.728-350.06-347.749a600 600 0 0 1 89.441-74.086L-6.188-23.047z" fill-rule="evenodd" fill="#fff"/></mask></defs><g mask="url(#b)"><path fill="#0c6793" style="cursor:pointer" d="M-1000-1000h2000v2000h-2000z"/></g><path d="M-6.188-23.047 50 44.38l56.188-67.427m19.419 7.939L60 63.62V150m-20 0V63.62l-65.607-78.728" fill="none" stroke-linecap="round" stroke-linejoin="round" stroke-width=".5" stroke="#333"/></g><path d="M0 0h100v120H0z" fill="none" stroke-linecap="round" stroke-linejoin="round" stroke-width=".5" stroke="#333"/></svg>