<svg preserveAspectRatio="xMidYMin slice" viewBox="0 0 120 200" xmlns="http://www.w3.org/2000/svg"><g transform="translate(10 10)"><defs><mask id="a"><path clip-rule="evenodd" d="M0 0h100v120H0z" fill-rule="evenodd" fill="#fff"/></mask></defs><g mask="url(#a)"><path d="M0 0h100v120H0z" fill-rule="evenodd" fill="#f0f0f0"/><path fill="#f6f6f6" style="cursor:pointer" d="M-1000-1000h2000v2000h-2000z"/><defs><mask id="b"><path clip-rule="evenodd" d="m50 36.57 128.037 153.644v46.861L50 83.431-78.037 237.075v-46.861L50 36.569z" fill-rule="evenodd" fill="#fff"/><path d="m50 36.57 128.037 153.644v46.861L50 83.431-78.037 237.075v-46.861L50 36.569z" fill="none" stroke-width=".1" stroke="#fff"/></mask></defs><g mask="url(#b)"><path fill="#f2bc51" style="cursor:pointer" d="M-1000-1000h2000v2000h-2000z"/></g><path d="M-78.037 190.214 50 36.569l128.037 153.645" fill="none" stroke-linecap="round" stroke-linejoin="round" stroke-width=".5" stroke="#333"/><path d="M178.037 237.075 50 83.431-78.037 237.075" fill="none" stroke-linecap="round" stroke-linejoin="round" stroke-width=".5" stroke="#333"/></g><path d="M0 0h100v120H0z" fill="none" stroke-linecap="round" stroke-linejoin="round" stroke-width=".5" stroke="#333"/></g></svg>