<?xml version="1.0" encoding="UTF-8" standalone="no"?>
<svg xmlns="http://www.w3.org/2000/svg" preserveAspectRatio="xMidYMin slice" viewBox="-10 -10 120 140"><defs><mask id="a"><path fill="#fff" fill-rule="evenodd" d="M0 0h100v120H0z" clip-rule="evenodd"/></mask></defs><g mask="url(#a)"><path fill="#f0f0f0" fill-rule="evenodd" d="M0 0h100v120H0z"/><path fill="#f6f6f6" d="M-1000-1000h2000v2000h-2000z"/><defs><mask id="b"><path fill="#fff" fill-rule="evenodd" d="M-25.607 135.108 50 44.38l75.607 90.728 415.952 291.13a600 600 0 0 1-84.54 96.787l-350.83-379.978L50 75.62l-56.188 67.427-350.83 379.978a600 600 0 0 1-84.541-96.786z" clip-rule="evenodd"/></mask></defs><g mask="url(#b)"><path fill="#f2bc51" d="M-1000-1000h2000v2000h-2000z"/></g><g fill="none" stroke="#333" stroke-linecap="round" stroke-linejoin="round" stroke-width=".5"><path d="M-25.607 135.108 50 44.38l75.607 90.728"/><path d="M106.188 143.047 50 75.62l-56.188 67.427"/></g></g><path fill="none" stroke="#333" stroke-linecap="round" stroke-linejoin="round" stroke-width=".5" d="M0 0h100v120H0z"/></svg>