<svg preserveAspectRatio="xMidYMin slice" viewBox="0 0 120 200" xmlns="http://www.w3.org/2000/svg"><g filter="url(#a)" transform="translate(10 10)"><defs><filter height="200%" id="a" width="200%" x="-20%" y="-20%"><feOffset dx=".2" dy=".2" in="SourceAlpha" result="offsetOut"/><feGaussianBlur in="offsetOut" result="blurOut"/><feBlend in2="blurOut" in="SourceGraphic"/></filter></defs><defs><clipPath id="b"><path d="M0 0h100v120H0z" fill="#fff"/></clipPath></defs><g clip-path="url(#b)"><path d="M0 0h100v120H0z" fill="#f0f0f0"/><g style="pointer-events:visiblePainted;cursor:pointer"><path fill="#f6f6f6" d="M-500-500H600V600H-500z"/><defs><clipPath id="c"><path d="M33.729 60-78.037-74.119v-39.05L50 40.473 178.037-113.17l-.002 39.054L66.27 60l111.766 134.119v39.05L50 79.527-78.037 233.17l.002-39.054L33.73 60z" fill="#fff"/><path d="M33.729 60-78.037-74.119v-39.05L50 40.473 178.037-113.17l-.002 39.054L66.27 60l111.766 134.119v39.05L50 79.527-78.037 233.17l.002-39.054L33.73 60z" fill="none" stroke-width=".1" stroke="#fff"/></clipPath></defs><g clip-path="url(#c)"><path fill="#f2bc51" d="M-500-500H600V600H-500z" style="pointer-events:visiblePainted;cursor:pointer"/></g><path d="M-78.037-113.17 50 40.474 178.037-113.17m-.002 39.054L66.27 60l111.766 134.119m.001 39.051L50 79.526-78.037 233.17m.002-39.054L33.73 60-78.037-74.119" fill="none" stroke-linecap="round" stroke-linejoin="round" stroke-width=".5" stroke="#333"/></g></g><path d="M0 0h100v120H0z" fill="none" stroke-linecap="round" stroke-linejoin="round" stroke-width=".5" stroke="#333"/></g></svg>