<svg preserveAspectRatio="xMidYMin slice" viewBox="0 0 120 200" xmlns="http://www.w3.org/2000/svg"><g filter="url(#a)" transform="translate(10 10)"><defs><filter height="200%" id="a" width="200%" x="-20%" y="-20%"><feOffset dx=".2" dy=".2" in="SourceAlpha" result="offsetOut"/><feGaussianBlur in="offsetOut" result="blurOut"/><feBlend in2="blurOut" in="SourceGraphic"/></filter></defs><defs><clipPath id="b"><path d="M0 0h100v120H0z" fill="#fff"/></clipPath></defs><g clip-path="url(#b)"><path d="M0 0h100v120H0z" fill="#f0f0f0"/><g style="pointer-events:visiblePainted;cursor:pointer"><path fill="#f6f6f6" d="M-500-500H600V600H-500z"/><defs><clipPath id="c"><path d="M38 371.635V64.345L-78.037-74.9v-37.489L50 41.255l128.037-153.644.003 37.486L62 64.345v307.288z" fill="#fff"/><path d="M38 371.635V64.345L-78.037-74.9v-37.489L50 41.255l128.037-153.644.003 37.486L62 64.345v307.288z" fill="none" stroke-width=".1" stroke="#fff"/></clipPath></defs><g clip-path="url(#c)"><path fill="#0c6793" d="M-500-500H600V600H-500z" style="pointer-events:visiblePainted;cursor:pointer"/></g><path d="M38 371.635V64.345L-78.037-74.9m256.077-.003L62 64.345v307.288M-78.037-112.389 50 41.255l128.037-153.644" fill="none" stroke-linecap="round" stroke-linejoin="round" stroke-width=".5" stroke="#333"/></g></g><path d="M0 0h100v120H0z" fill="none" stroke-linecap="round" stroke-linejoin="round" stroke-width=".5" stroke="#333"/></g></svg>