<?xml version="1.0" encoding="UTF-8" standalone="no"?>
<svg xmlns="http://www.w3.org/2000/svg" viewBox="-10 -10 120 140" preserveAspectRatio="xMidYMin slice"><defs><mask id="a"><path d="M0 0h100v120H0z" clip-rule="evenodd" fill-rule="evenodd" fill="#fff"/></mask></defs><g mask="url(#a)"><path d="M0 0h100v120H0z" fill-rule="evenodd" fill="#f0f0f0"/><path fill="#f6f6f6" style="cursor:pointer" d="M-1000-1000h2000v2000h-2000z"/><defs><mask id="b"><path d="M-25-30 0 0c3.237 28.285 22.763 51.715 50 60-15.62 23.801-15.62 54.301 0 78.103v20.948l121.832 482.705a600 600 0 0 1-438.218-1106.25L-25-30z" clip-rule="evenodd" fill-rule="evenodd" fill="#fff"/></mask></defs><g mask="url(#b)"><path fill="#0c6793" style="cursor:pointer" d="M-1000-1000h2000v2000h-2000z"/></g><path d="M-25-30 0 0c3.237 28.285 22.763 51.715 50 60v0c-15.62 23.801-15.62 54.301 0 78.102v20.95" stroke="#333" stroke-width=".5" fill="none" stroke-linecap="round" stroke-linejoin="round"/></g><path d="M0 0h100v120H0z" stroke="#333" stroke-width=".5" fill="none" stroke-linecap="round" stroke-linejoin="round"/></svg>