<?xml version="1.0" encoding="UTF-8" standalone="no"?>
<svg xmlns="http://www.w3.org/2000/svg" viewBox="-10 -10 120 140" preserveAspectRatio="xMidYMin slice"><defs><mask id="a"><path d="M0 0h100v120H0z" clip-rule="evenodd" fill-rule="evenodd" fill="#fff"/></mask></defs><g mask="url(#a)"><path d="M0 0h100v120H0z" fill-rule="evenodd" fill="#f0f0f0"/><path fill="#f6f6f6" style="cursor:pointer" d="M-1000-1000h2000v2000h-2000z"/><defs><mask id="b"><path d="M-25.607 135.108 50 44.38l75.607 90.728 415.952 291.13a600 600 0 0 1-84.54 96.787l-350.83-379.978L50 75.62l-56.188 67.427-350.83 379.978a600 600 0 0 1-84.541-96.786l415.952-291.13z" clip-rule="evenodd" fill-rule="evenodd" fill="#fff"/></mask></defs><g mask="url(#b)"><path fill="#0c6793" style="cursor:pointer" d="M-1000-1000h2000v2000h-2000z"/></g><g stroke="#333" stroke-width=".5" fill="none" stroke-linecap="round" stroke-linejoin="round"><path d="M-25.607 135.108 50 44.38l75.607 90.728"/><path d="M106.188 143.047 50 75.62l-56.188 67.427"/></g></g><path d="M0 0h100v120H0z" stroke="#333" stroke-width=".5" fill="none" stroke-linecap="round" stroke-linejoin="round"/></svg>