<svg preserveAspectRatio="xMidYMin slice" viewBox="0 0 120 200" xmlns="http://www.w3.org/2000/svg"><g filter="url(#a)" transform="translate(10 10)"><defs><filter height="200%" id="a" width="200%" x="-20%" y="-20%"><feOffset dx=".2" dy=".2" in="SourceAlpha" result="offsetOut"/><feGaussianBlur in="offsetOut" result="blurOut"/><feBlend in2="blurOut" in="SourceGraphic"/></filter></defs><defs><clipPath id="b"><path d="M0 0h100v120H0z" fill="#fff"/></clipPath></defs><g clip-path="url(#b)"><path d="M0 0h100v120H0z" fill="#f0f0f0"/><g style="pointer-events:visiblePainted;cursor:pointer"><path fill="#f6f6f6" d="M-500-500H600V600H-500z"/><defs><mask id="c"><path d="m50 36.57 128.037 153.644v46.861L50 83.431-78.037 237.075v-46.861L50 36.569z" fill="#fff"/><path d="m50 36.57 128.037 153.644v46.861L50 83.431-78.037 237.075v-46.861L50 36.569z" fill="none" stroke-width=".1" stroke="#fff"/></mask></defs><g mask="url(#c)"><path fill="#f2bc51" d="M-500-500H600V600H-500z" style="pointer-events:visiblePainted;cursor:pointer"/></g><path d="M-78.037 190.214 50 36.569l128.037 153.645" fill="none" stroke-linecap="round" stroke-linejoin="round" stroke-width=".5" stroke="#333"/><path d="M178.037 237.075 50 83.431-78.037 237.075" fill="none" stroke-linecap="round" stroke-linejoin="round" stroke-width=".5" stroke="#333"/></g></g><path d="M0 0h100v120H0z" fill="none" stroke-linecap="round" stroke-linejoin="round" stroke-width=".5" stroke="#333"/></g></svg>