<svg preserveAspectRatio="xMidYMin slice" viewBox="-10 -10 120 140" xmlns="http://www.w3.org/2000/svg"><defs><mask id="a"><path clip-rule="evenodd" d="M0 0h100v120H0z" fill-rule="evenodd" fill="#fff"/></mask></defs><g mask="url(#a)"><path d="M0 0h100v120H0z" fill-rule="evenodd" fill="#f0f0f0"/><path fill="#f6f6f6" style="cursor:pointer" d="M-1000-1000h2000v2000h-2000z"/><defs><mask id="b"><path clip-rule="evenodd" d="M-25.607 131.203 50 40.474l75.607 90.73L547.52 415.608a600 600 0 0 1-110.858 123.424L102.934 143.047 50 79.526l-52.934 63.52-333.727 395.987a600 600 0 0 1-110.858-123.424l421.912-284.406z" fill-rule="evenodd" fill="#fff"/></mask></defs><g mask="url(#b)"><path fill="#f2bc51" style="cursor:pointer" d="M-1000-1000h2000v2000h-2000z"/></g><g fill="none" stroke-linecap="round" stroke-linejoin="round" stroke-width=".5" stroke="#333"><path d="M-25.607 131.203 50 40.474l75.607 90.73"/><path d="M102.934 143.047 50 79.526l-52.934 63.52"/></g></g><path d="M0 0h100v120H0z" fill="none" stroke-linecap="round" stroke-linejoin="round" stroke-width=".5" stroke="#333"/></svg>