<?xml version="1.0" encoding="UTF-8" standalone="no"?>
<svg xmlns="http://www.w3.org/2000/svg" viewBox="-10 -10 120 140" preserveAspectRatio="xMidYMin slice"><defs><mask id="a"><path d="M0 0h100v120H0z" clip-rule="evenodd" fill-rule="evenodd" fill="#fff"/></mask></defs><g mask="url(#a)"><path d="M0 0h100v120H0z" fill-rule="evenodd" fill="#f0f0f0"/><path fill="#f6f6f6" d="M-1000-1000h2000v2000h-2000z"/><defs><mask id="b"><path d="M-30 47.5h67.5V-20l-80.126-512.807a600 600 0 0 1 185.252 0L62.5-20v67.5H130l512.807-80.126a600 600 0 0 1 0 185.252L130 72.5H62.5V150l70.041 504.295a600 600 0 0 1-165.082 0L37.5 150V72.5H-30l-512.807 80.126a600 600 0 0 1 0-185.252L-30 47.5z" clip-rule="evenodd" fill-rule="evenodd" fill="#fff"/></mask></defs><g mask="url(#b)"><path fill="#0c6793" d="M-1000-1000h2000v2000h-2000z"/></g><path d="M-30 47.5h67.5V-20m25 0v67.5H130M37.5 150V72.5H-30m160 0H62.5V150" stroke="#333" stroke-width=".5" fill="none" stroke-linecap="round" stroke-linejoin="round"/></g><path d="M0 0h100v120H0z" stroke="#333" stroke-width=".5" fill="none" stroke-linecap="round" stroke-linejoin="round"/></svg>