<?xml version="1.0" encoding="UTF-8" standalone="no"?>
<svg xmlns="http://www.w3.org/2000/svg" viewBox="-10 -10 100 116" preserveAspectRatio="xMidYMin slice"><defs><mask id="a"><path d="M0 0h80v96H0z" clip-rule="evenodd" fill-rule="evenodd" fill="#fff"/></mask></defs><g mask="url(#a)"><path d="M0 0h80v96H0z" fill-rule="evenodd" fill="#f0f0f0"/><defs><mask id="b"><path d="M-35.442 69.959 47.994-30.165l442.158-290.568a600 600 0 1 0-721.915 887.528L-35.442 69.96z" clip-rule="evenodd" fill-rule="evenodd" fill="#fff" stroke="#fff" stroke-width=".1"/></mask></defs><g mask="url(#b)"><path fill="#fffff9" style="cursor:pointer" d="M-1000-1000h2000v2000h-2000z" transform="rotate(-50.194)"/></g><defs><mask id="c"><path d="M67.886-26.606-21.952 81.2l-154.54 539.5a600 600 0 0 0 72.475 15.986l82.75-528.88L87.778-23.048l398.055-269.05a600 600 0 0 0-49.064-63.084L67.886-26.606z" clip-rule="evenodd" fill-rule="evenodd" fill="#fff" stroke="#fff" stroke-width=".1"/></mask></defs><g mask="url(#c)"><path fill="#f5e73e" style="cursor:pointer" d="M-1000-1000h2000v2000h-2000z" transform="rotate(-50.194)"/></g><defs><mask id="d"><path d="M101.266-11.805-7.777 119.047l48.628 557.702a600 600 0 0 0 231.503-68.998L12.114 122.606 101.952 14.8 510.63-216.997a600 600 0 0 0-54.99-80.812L101.267-11.805z" clip-rule="evenodd" fill-rule="evenodd" fill="#fff" stroke="#fff" stroke-width=".1"/></mask></defs><g mask="url(#d)"><path fill="#5c90f5" style="cursor:pointer" d="M-1000-1000h2000v2000h-2000z" transform="rotate(-50.194)"/></g><defs><mask id="e"><path d="M115.442 26.041 32.006 126.165 566.814 274.83a600 600 0 0 0-85.445-503.2L115.442 26.042z" clip-rule="evenodd" fill-rule="evenodd" fill="#fff" stroke="#fff" stroke-width=".1"/></mask></defs><g mask="url(#e)"><path style="cursor:pointer" d="M-1000-1000h2000v2000h-2000z" transform="rotate(-50.194)"/></g><defs><mask id="f"><path d="M-35.442 69.959 47.994-30.165 422.981-387.7a600 600 0 0 1 64.47 80.451L67.885-26.606-21.952 81.2l-104.019 534.073a600 600 0 0 1-176.142-64.14L-35.442 69.959z" clip-rule="evenodd" fill-rule="evenodd" fill="#fff"/></mask></defs><g mask="url(#f)"><path fill="#ea3951" style="cursor:pointer" d="M-1000-1000h2000v2000h-2000z" transform="rotate(-50.194)"/></g><defs><mask id="g"><path d="M-21.266 107.805 87.777-23.047l357.398-304.931a600 600 0 0 1 46.386 62.078L101.266-11.805-7.777 119.047 25.03 660.359a600 600 0 0 1-162.832-12.395l116.536-540.159z" clip-rule="evenodd" fill-rule="evenodd" fill="#fff"/></mask></defs><g mask="url(#g)"><path fill="#64de57" style="cursor:pointer" d="M-1000-1000h2000v2000h-2000z" transform="rotate(-50.194)"/></g><defs><mask id="h"><path d="M12.114 122.606 101.952 14.8l373.175-269.536a600 600 0 0 1 37.852 59.48L115.442 26.042 32.006 126.165l452.015 309.07a600 600 0 0 1-94.333 107.7L12.114 122.604z" clip-rule="evenodd" fill-rule="evenodd" fill="#fff"/></mask></defs><g mask="url(#h)"><path fill="#c797e7" style="cursor:pointer" d="M-1000-1000h2000v2000h-2000z" transform="rotate(-50.194)"/></g><path d="M-35.442 69.959 47.994-30.165m19.892 3.559L-21.952 81.2m.686 26.605L87.777-23.047m13.489 11.242L-7.777 119.047m19.891 3.559L101.952 14.8m13.49 11.241L32.006 126.165" stroke="#000" stroke-width=".5" fill="none" stroke-linecap="round" stroke-linejoin="round"/></g><path d="M0 0h80v96H0z" stroke="#000" stroke-width=".5" fill="none" stroke-linecap="round" stroke-linejoin="round"/></svg>