<?xml version="1.0" encoding="UTF-8" standalone="no"?>
<svg xmlns="http://www.w3.org/2000/svg" viewBox="-10 -10 100 116" preserveAspectRatio="xMidYMin slice"><defs><mask id="a"><path d="M0 0h80v96H0z" clip-rule="evenodd" fill-rule="evenodd" fill="#fff"/></mask></defs><g mask="url(#a)"><path d="M0 0h80v96H0z" fill-rule="evenodd" fill="#f0f0f0"/><defs><mask id="b"><path d="M-35.442 69.959 47.994-30.165l393.754-361.077A600 600 0 1 0-319.595 522.37L-35.442 69.96z" clip-rule="evenodd" fill-rule="evenodd" fill="#fff" stroke="#fff" stroke-width=".1"/></mask></defs><g mask="url(#b)"><path fill="#eae8e3" d="m-1408.406 128.037 1280.37-1536.443 1536.442 1280.37-1280.37 1536.442z"/></g><defs><mask id="c"><path d="M67.886-26.606-21.952 81.2l-393.753 361.077a600 600 0 0 0 107.397 92.374l287.042-426.846L87.777-23.047l368.086-359.308a600 600 0 0 0-101.311-83.27L67.886-26.604z" clip-rule="evenodd" fill-rule="evenodd" fill="#fff" stroke="#fff" stroke-width=".1"/></mask></defs><g mask="url(#c)"><path fill="#f7d2a5" d="m-1408.406 128.037 1280.37-1536.443 1536.442 1280.37-1280.37 1536.442z"/></g><defs><mask id="d"><path d="M101.266-11.805-7.777 119.047l-368.086 359.308a600 600 0 0 0 101.311 83.27l286.666-439.02L101.952 14.8l393.753-361.077a600 600 0 0 0-107.397-92.374L101.266-11.805z" clip-rule="evenodd" fill-rule="evenodd" fill="#fff" stroke="#fff" stroke-width=".1"/></mask></defs><g mask="url(#d)"><path fill="#4c7cad" d="m-1408.406 128.037 1280.37-1536.443 1536.442 1280.37-1280.37 1536.442z"/></g><defs><mask id="e"><path d="M115.442 26.041 32.006 126.165l-393.754 361.077A600 600 0 1 0 399.595-426.37L115.442 26.04z" clip-rule="evenodd" fill-rule="evenodd" fill="#fff" stroke="#fff" stroke-width=".1"/></mask></defs><g mask="url(#e)"><path fill="#191b21" d="m-1408.406 128.037 1280.37-1536.443 1536.442 1280.37-1280.37 1536.442z"/></g><defs><mask id="f"><path d="M-35.442 69.959 47.994-30.165l284.154-452.41a600 600 0 0 1 115.865 94.835L67.886-26.606-21.952 81.2l-284.153 452.41a600 600 0 0 1-123.09-102.574L-35.442 69.959z" clip-rule="evenodd" fill-rule="evenodd" fill="#fff"/></mask></defs><g mask="url(#f)"><path fill="#ca6548" d="m-1408.406 128.037 1280.37-1536.443 1536.442 1280.37-1280.37 1536.442z"/></g><defs><mask id="g"><path d="M-21.266 107.805 87.777-23.047l287.042-426.845a600 600 0 0 1 94.533 78.778L101.266-11.805-7.777 119.047l-287.042 426.845a600 600 0 0 1-94.534-78.778l368.087-359.309z" clip-rule="evenodd" fill-rule="evenodd" fill="#fff"/></mask></defs><g mask="url(#g)"><path fill="#88934d" d="m-1408.406 128.037 1280.37-1536.443 1536.442 1280.37-1280.37 1536.442z"/></g><defs><mask id="h"><path d="M12.114 122.606 101.952 14.8l284.153-452.41a600 600 0 0 1 123.09 102.574L115.442 26.041 32.006 126.165l-284.154 452.41a600 600 0 0 1-115.865-94.835L12.114 122.606z" clip-rule="evenodd" fill-rule="evenodd" fill="#fff"/></mask></defs><g mask="url(#h)"><path fill="#955f81" d="m-1408.406 128.037 1280.37-1536.443 1536.442 1280.37-1280.37 1536.442z"/></g><path d="M-35.442 69.959 47.994-30.165m19.892 3.559L-21.952 81.2m.686 26.605L87.777-23.047m13.489 11.242L-7.777 119.047m19.891 3.559L101.952 14.8m13.49 11.241L32.006 126.165" stroke="#191b21" stroke-width=".5" fill="none" stroke-linecap="round" stroke-linejoin="round"/></g><path d="M0 0h80v96H0z" stroke="#191b21" stroke-width=".5" fill="none" stroke-linecap="round" stroke-linejoin="round"/></svg>