<svg preserveAspectRatio="xMidYMin slice" viewBox="0 0 100 200" xmlns="http://www.w3.org/2000/svg"><g filter="url(#a)" transform="translate(10 10)"><defs><filter height="200%" id="a" width="200%" x="-20%" y="-20%"><feOffset dx=".2" dy=".2" in="SourceAlpha" result="offsetOut"/><feGaussianBlur in="offsetOut" result="blurOut"/><feBlend in2="blurOut" in="SourceGraphic"/></filter></defs><defs><clipPath id="b"><path d="M0 0h80v96H0z" fill="#fff"/></clipPath></defs><g clip-path="url(#b)"><path d="M0 0h80v96H0z" fill="#f0f0f0"/><g transform="rotate(-50.194 71.241 -18.7)" style="pointer-events:visiblePainted;cursor:pointer"><defs><mask id="c"><path d="M-62.482-43.898H1000V-1000h-2000v956.102h937.518z" fill="#fff"/><path d="M-62.482-43.898H62.482" fill="none" stroke-width=".1" stroke="#fff"/></mask></defs><g mask="url(#c)"><path fill="#fff" d="M-500-500H600V600H-500z" style="pointer-events:visiblePainted;cursor:pointer"/></g><defs><mask id="d"><path d="M-62.482-43.898H1000v17.559h-2000v-17.56h937.518z" fill="#fff"/><path d="M62.478-26.339h-124.96" fill="none" stroke-width=".1" stroke="#fff"/></mask></defs><g mask="url(#d)"><path fill="#e20909" d="M-500-500H600V600H-500z" style="pointer-events:visiblePainted;cursor:pointer"/></g><defs><mask id="e"><path d="M62.478-26.339H-1000v17.56h2000v-17.56H62.478" fill="#fff"/><path d="M-62.482-8.78H62.482" fill="none" stroke-width=".1" stroke="#fff"/></mask></defs><g mask="url(#e)"><path fill="#fcef3c" d="M-500-500H600V600H-500z" style="pointer-events:visiblePainted;cursor:pointer"/></g><defs><mask id="f"><path d="M-62.482-8.78H1000V8.78h-2000V-8.78h937.518z" fill="#fff"/><path d="M62.478 8.78h-124.96" fill="none" stroke-width=".1" stroke="#fff"/></mask></defs><g mask="url(#f)"><path fill="#5ab532" d="M-500-500H600V600H-500z" style="pointer-events:visiblePainted;cursor:pointer"/></g><defs><mask id="g"><path d="M62.478 8.78H-1000v17.559h2000V8.779H62.478" fill="#fff"/><path d="M-62.482 26.339H62.482" fill="none" stroke-width=".1" stroke="#fff"/></mask></defs><g mask="url(#g)"><path fill="#2b5df2" d="M-500-500H600V600H-500z" style="pointer-events:visiblePainted;cursor:pointer"/></g><defs><mask id="h"><path d="M-62.482 26.339H1000v17.56h-2000v-17.56h937.518z" fill="#fff"/><path d="M62.478 43.898h-124.96" fill="none" stroke-width=".1" stroke="#fff"/></mask></defs><g mask="url(#h)"><path fill="#d576ad" d="M-500-500H600V600H-500z" style="pointer-events:visiblePainted;cursor:pointer"/></g><defs><mask id="i"><path d="M62.478 43.898H-1000V1000h2000V43.898H62.478z" fill="#fff"/></mask></defs><g mask="url(#i)"><path d="M-500-500H600V600H-500z" style="pointer-events:visiblePainted;cursor:pointer"/></g><path d="M-62.482-43.898H62.482m-.004 17.559h-124.96m0 17.559H62.482m-.004 17.56h-124.96m0 17.559H62.482m-.004 17.559h-124.96" fill="none" stroke-linecap="round" stroke-linejoin="round" stroke-width=".5" stroke="#000"/></g></g><path d="M0 0h80v96H0z" fill="none" stroke-linecap="round" stroke-linejoin="round" stroke-width=".5" stroke="#000"/></g></svg>