<?xml version="1.0" encoding="UTF-8" standalone="no"?>
<svg xmlns="http://www.w3.org/2000/svg" preserveAspectRatio="xMidYMin slice" viewBox="-10 -10 100 116"><defs><mask id="a"><path fill="#fff" fill-rule="evenodd" d="M0 0h80v96H0z" clip-rule="evenodd"/></mask></defs><g mask="url(#a)"><path fill="#f0f0f0" fill-rule="evenodd" d="M0 0h80v96H0z"/><defs><mask id="b"><path fill="#fff" fill-rule="evenodd" stroke="#fff" stroke-width=".1" d="M-35.442 69.959 47.994-30.165l393.754-361.077A600 600 0 1 0-319.595 522.37z" clip-rule="evenodd"/></mask></defs><g mask="url(#b)"><path fill="#fef8ed" d="m-1408.406 128.037 1280.37-1536.443 1536.442 1280.37-1280.37 1536.442z"/></g><defs><mask id="c"><path fill="#fff" fill-rule="evenodd" stroke="#fff" stroke-width=".1" d="M67.886-26.606-21.952 81.2l-393.753 361.077a600 600 0 0 0 107.397 92.374l287.042-426.846L87.777-23.047l368.086-359.308a600 600 0 0 0-101.311-83.27z" clip-rule="evenodd"/></mask></defs><g mask="url(#c)"><path fill="#f8d689" d="m-1408.406 128.037 1280.37-1536.443 1536.442 1280.37-1280.37 1536.442z"/></g><defs><mask id="d"><path fill="#fff" fill-rule="evenodd" stroke="#fff" stroke-width=".1" d="M101.266-11.805-7.777 119.047l-368.086 359.308a600 600 0 0 0 101.311 83.27l286.666-439.02L101.952 14.8l393.753-361.077a600 600 0 0 0-107.397-92.374z" clip-rule="evenodd"/></mask></defs><g mask="url(#d)"><path fill="#4e7b78" d="m-1408.406 128.037 1280.37-1536.443 1536.442 1280.37-1280.37 1536.442z"/></g><defs><mask id="e"><path fill="#fff" fill-rule="evenodd" stroke="#fff" stroke-width=".1" d="M115.442 26.041 32.006 126.165l-393.754 361.077A600 600 0 1 0 399.595-426.37z" clip-rule="evenodd"/></mask></defs><g mask="url(#e)"><path fill="#3c1e15" d="m-1408.406 128.037 1280.37-1536.443 1536.442 1280.37-1280.37 1536.442z"/></g><defs><mask id="f"><path fill="#fff" fill-rule="evenodd" d="M-35.442 69.959 47.994-30.165l284.154-452.41a600 600 0 0 1 115.865 94.835L67.886-26.606-21.952 81.2l-284.153 452.41a600 600 0 0 1-123.09-102.574z" clip-rule="evenodd"/></mask></defs><g mask="url(#f)"><path fill="#b7431b" d="m-1408.406 128.037 1280.37-1536.443 1536.442 1280.37-1280.37 1536.442z"/></g><defs><mask id="g"><path fill="#fff" fill-rule="evenodd" d="M-21.266 107.805 87.777-23.047l287.042-426.845a600 600 0 0 1 94.533 78.778L101.266-11.805-7.777 119.047l-287.042 426.845a600 600 0 0 1-94.534-78.778z" clip-rule="evenodd"/></mask></defs><g mask="url(#g)"><path fill="#7d9732" d="m-1408.406 128.037 1280.37-1536.443 1536.442 1280.37-1280.37 1536.442z"/></g><defs><mask id="h"><path fill="#fff" fill-rule="evenodd" d="M12.114 122.606 101.952 14.8l284.153-452.41a600 600 0 0 1 123.09 102.574L115.442 26.041 32.006 126.165l-284.154 452.41a600 600 0 0 1-115.865-94.835z" clip-rule="evenodd"/></mask></defs><g mask="url(#h)"><path fill="#a04463" d="m-1408.406 128.037 1280.37-1536.443 1536.442 1280.37-1280.37 1536.442z"/></g><path fill="none" stroke="#3c1e15" stroke-linecap="round" stroke-linejoin="round" stroke-width=".5" d="M-35.442 69.959 47.994-30.165m19.892 3.559L-21.952 81.2m.686 26.605L87.777-23.047m13.489 11.242L-7.777 119.047m19.891 3.559L101.952 14.8m13.49 11.241L32.006 126.165"/></g><path fill="none" stroke="#3c1e15" stroke-linecap="round" stroke-linejoin="round" stroke-width=".5" d="M0 0h80v96H0z"/></svg>