<?xml version="1.0" encoding="UTF-8" standalone="no"?>
<svg xmlns="http://www.w3.org/2000/svg" viewBox="-10 -10 100 116" preserveAspectRatio="xMidYMin slice"><defs><mask id="a"><path d="M0 0h80v96H0z" clip-rule="evenodd" fill-rule="evenodd" fill="#fff"/></mask></defs><g mask="url(#a)"><path d="M0 0h80v96H0z" fill-rule="evenodd" fill="#f0f0f0"/><defs><mask id="b"><path d="M-36.395 70.59 47.216-29.745l48.238-519.688a600 600 0 0 0-630.827 767.566L-36.395 70.589z" clip-rule="evenodd" fill-rule="evenodd" fill="#fff" stroke="#fff" stroke-width=".1"/></mask></defs><g mask="url(#b)"><path fill="#eae8e3" style="cursor:pointer" d="M-1000-1000h2000v2000h-2000z" transform="rotate(-50.194)"/></g><defs><mask id="c"><path d="M66.855-26.395-23.158 81.62l-466.476 248.316A600 600 0 0 0-393.522 462.8l370.798-354.784L86.494-23.047 368.551-454.05a600 600 0 0 0-124.83-62.306L66.855-26.396z" clip-rule="evenodd" fill-rule="evenodd" fill="#fff" stroke="#fff" stroke-width=".1"/></mask></defs><g mask="url(#c)"><path fill="#f7d2a5" style="cursor:pointer" d="M-1000-1000h2000v2000h-2000z" transform="rotate(-50.194)"/></g><defs><mask id="d"><path d="M106.133-19.698-9.487 119.047l-293.449 421.29a600 600 0 0 0 119.52 64.516L10.151 122.395 100.165 14.38 563.77-244.686a600 600 0 0 0-104.495-136.51L106.133-19.697z" clip-rule="evenodd" fill-rule="evenodd" fill="#fff" stroke="#fff" stroke-width=".1"/></mask></defs><g mask="url(#d)"><path fill="#4c7cad" style="cursor:pointer" d="M-1000-1000h2000v2000h-2000z" transform="rotate(-50.194)"/></g><defs><mask id="e"><path d="M113.402 25.41 29.79 125.745l-67.913 517.148a600 600 0 0 0 651.58-771.374L113.402 25.41z" clip-rule="evenodd" fill-rule="evenodd" fill="#fff" stroke="#fff" stroke-width=".1"/></mask></defs><g mask="url(#e)"><path fill="#191b21" style="cursor:pointer" d="M-1000-1000h2000v2000h-2000z" transform="rotate(-50.194)"/></g><defs><mask id="f"><path d="M-36.395 70.59 47.216-29.745l48.238-519.688a600 600 0 0 1 148.267 33.076L66.855-26.396-23.158 81.62l-466.476 248.316a600 600 0 0 1-45.74-111.802l498.98-147.545z" clip-rule="evenodd" fill-rule="evenodd" fill="#fff"/></mask></defs><g mask="url(#f)"><path fill="#ca6548" style="cursor:pointer" d="M-1000-1000h2000v2000h-2000z" transform="rotate(-50.194)"/></g><defs><mask id="g"><path d="M-22.724 108.016 86.494-23.047 368.551-454.05a600 600 0 0 1 90.724 72.855L106.133-19.698-9.487 119.047l-293.449 421.29a600 600 0 0 1-90.586-77.537l370.798-354.784z" clip-rule="evenodd" fill-rule="evenodd" fill="#fff"/></mask></defs><g mask="url(#g)"><path fill="#88934d" style="cursor:pointer" d="M-1000-1000h2000v2000h-2000z" transform="rotate(-50.194)"/></g><defs><mask id="h"><path d="M10.152 122.395 100.165 14.38 563.77-244.686a600 600 0 0 1 49.688 116.204L113.402 25.41 29.79 125.744l-67.913 517.148a600 600 0 0 1-145.295-38.04l193.57-482.456z" clip-rule="evenodd" fill-rule="evenodd" fill="#fff"/></mask></defs><g mask="url(#h)"><path fill="#955f81" style="cursor:pointer" d="M-1000-1000h2000v2000h-2000z" transform="rotate(-50.194)"/></g><path d="M-36.395 70.59 47.216-29.745m19.639 3.35L-23.158 81.62m.434 26.396L86.494-23.047m19.639 3.349L-9.487 119.047m19.639 3.348L100.165 14.38m13.237 11.03L29.79 125.745" stroke="#191b21" stroke-width=".5" fill="none" stroke-linecap="round" stroke-linejoin="round"/></g><path d="M0 0h80v96H0z" stroke="#191b21" stroke-width=".5" fill="none" stroke-linecap="round" stroke-linejoin="round"/></svg>