<svg preserveAspectRatio="xMidYMin slice" viewBox="0 0 100 200" xmlns="http://www.w3.org/2000/svg"><g filter="url(#a)" transform="translate(10 10)"><defs><filter height="200%" id="a" width="200%" x="-20%" y="-20%"><feOffset dx=".2" dy=".2" in="SourceAlpha" result="offsetOut"/><feGaussianBlur in="offsetOut" result="blurOut"/><feBlend in2="blurOut" in="SourceGraphic"/></filter></defs><defs><clipPath id="b"><path clip-rule="evenodd" d="M0 0h80v96H0z" fill-rule="evenodd" fill="#fff"/></clipPath></defs><g clip-path="url(#b)"><path d="M0 0h80v96H0z" fill-rule="evenodd" fill="#f0f0f0"/><g transform="rotate(-50.194 71.241 -18.7)" style="pointer-events:visiblePainted;cursor:pointer"><defs><clipPath id="c"><path clip-rule="evenodd" d="M-62.482-43.898H1000V-1000h-2000v956.102h937.518z" fill-rule="evenodd" fill="#fff"/></clipPath></defs><g style="pointer-events:visiblePainted;cursor:pointer" clip-path="url(#c)"><path fill="#fff" style="cursor:pointer" d="M-500-500H600V600H-500z"/></g><defs><clipPath id="d"><path clip-rule="evenodd" d="M-62.482-43.898H1000v17.559h-2000v-17.56h937.518z" fill-rule="evenodd" fill="#fff"/></clipPath></defs><g style="pointer-events:visiblePainted;cursor:pointer" clip-path="url(#d)"><path fill="#dc281e" style="cursor:pointer" d="M-500-500H600V600H-500z"/></g><defs><clipPath id="e"><path clip-rule="evenodd" d="M62.478-26.339H-1000v17.56h2000v-17.56H62.478" fill-rule="evenodd" fill="#fff"/></clipPath></defs><g style="pointer-events:visiblePainted;cursor:pointer" clip-path="url(#e)"><path fill="#ffd200" style="cursor:pointer" d="M-500-500H600V600H-500z"/></g><defs><clipPath id="f"><path clip-rule="evenodd" d="M-62.482-8.78H1000V8.78h-2000V-8.78h937.518z" fill-rule="evenodd" fill="#fff"/></clipPath></defs><g style="pointer-events:visiblePainted;cursor:pointer" clip-path="url(#f)"><path fill="#009a3d" style="cursor:pointer" d="M-500-500H600V600H-500z"/></g><defs><clipPath id="g"><path clip-rule="evenodd" d="M62.478 8.78H-1000v17.559h2000V8.779H62.478" fill-rule="evenodd" fill="#fff"/></clipPath></defs><g style="pointer-events:visiblePainted;cursor:pointer" clip-path="url(#g)"><path fill="#0039a6" style="cursor:pointer" d="M-500-500H600V600H-500z"/></g><defs><clipPath id="h"><path clip-rule="evenodd" d="M-62.482 26.339H1000v17.56h-2000v-17.56h937.518z" fill-rule="evenodd" fill="#fff"/></clipPath></defs><g style="pointer-events:visiblePainted;cursor:pointer" clip-path="url(#h)"><path fill="#b60a9b" style="cursor:pointer" d="M-500-500H600V600H-500z"/></g><defs><clipPath id="i"><path clip-rule="evenodd" d="M62.478 43.898H-1000V1000h2000V43.898H62.478z" fill-rule="evenodd" fill="#fff"/></clipPath></defs><g style="pointer-events:visiblePainted;cursor:pointer" clip-path="url(#i)"><path style="cursor:pointer" d="M-500-500H600V600H-500z"/></g><path d="M-62.482-43.898H62.482m-.004 17.559h-124.96m0 17.559H62.482m-.004 17.56h-124.96m0 17.559H62.482m-.004 17.559h-124.96" fill="none" stroke-linecap="round" stroke-linejoin="round" stroke-width=".5" stroke="#000"/></g></g><path d="M0 0h80v96H0z" fill="none" stroke-linecap="round" stroke-linejoin="round" stroke-width=".5" stroke="#000"/></g></svg>