<svg preserveAspectRatio="xMidYMin slice" viewBox="-10 -10 100 116" xmlns="http://www.w3.org/2000/svg"><defs><mask id="a"><path clip-rule="evenodd" d="M0 0h80v96H0z" fill-rule="evenodd" fill="#fff"/></mask></defs><g mask="url(#a)"><path d="M0 0h80v96H0z" fill-rule="evenodd" fill="#f0f0f0"/><defs><mask id="b"><path clip-rule="evenodd" d="m-29.993 62.907 71.628-85.954-51.766-513.932A600 600 0 0 0-549.604 81.79l519.61-18.884z" fill-rule="evenodd" fill="#fff"/></mask></defs><g mask="url(#b)"><path fill="#fff" style="cursor:pointer" d="M-1000-1000h2000v2000h-2000z" transform="rotate(-50.194)"/></g><defs><mask id="c"><path clip-rule="evenodd" d="m-29.993 62.907 71.628-85.954-51.766-513.932a600 600 0 0 1 160.32 5.403L64.064-23.046-23.158 81.62l-502.24 148.428a600 600 0 0 1-24.206-148.256l519.61-18.885z" fill-rule="evenodd" fill="#fff"/></mask></defs><g mask="url(#c)"><path fill="#f78fa9" style="cursor:pointer" d="M-1000-1000h2000v2000h-2000z" transform="rotate(-50.194)"/></g><defs><mask id="d"><path clip-rule="evenodd" d="M64.065-23.047-23.158 81.62l-502.24 148.428A600 600 0 0 0-450.71 390.59l427.986-282.574L86.494-23.047l204.892-466.255a600 600 0 0 0-141.198-42.274L64.065-23.046z" fill-rule="evenodd" fill="#fff"/></mask></defs><g mask="url(#d)"><path fill="#fcf9d1" style="cursor:pointer" d="M-1000-1000h2000v2000h-2000z" transform="rotate(-50.194)"/></g><defs><mask id="e"><path clip-rule="evenodd" d="M-22.724 108.016 86.494-23.047l204.892-466.255a600 600 0 0 1 103.776 58.524L105.607-19.067-9.487 119.047-375.84 482.684a600 600 0 0 1-74.871-92.094l427.986-282.574z" fill-rule="evenodd" fill="#fff"/></mask></defs><g mask="url(#e)"><path fill="#80ebba" style="cursor:pointer" d="M-1000-1000h2000v2000h-2000z" transform="rotate(-50.194)"/></g><defs><mask id="f"><path clip-rule="evenodd" d="M105.607-19.067-9.487 119.047-375.84 482.684a600 600 0 0 0 102.893 82.99L10.152 122.395 105.607 7.848l382.038-358.295a600 600 0 0 0-92.483-80.331L105.607-19.067z" fill-rule="evenodd" fill="#fff"/></mask></defs><g mask="url(#f)"><path fill="#75def3" style="cursor:pointer" d="M-1000-1000h2000v2000h-2000z" transform="rotate(-50.194)"/></g><defs><mask id="g"><path clip-rule="evenodd" d="M10.152 122.395 105.607 7.848l382.038-358.295a600 600 0 0 1 108.723 162.49l-490.76 222.72-69.416 83.299-125.006 525.66a600 600 0 0 1-184.132-78.048L10.152 122.395z" fill-rule="evenodd" fill="#fff"/></mask></defs><g mask="url(#g)"><path fill="#dba5f4" style="cursor:pointer" d="M-1000-1000h2000v2000h-2000z" transform="rotate(-50.194)"/></g><defs><mask id="h"><path clip-rule="evenodd" d="m105.607 34.764-69.415 83.298-125.006 525.66a600 600 0 0 0 685.182-831.679l-490.76 222.72z" fill-rule="evenodd" fill="#fff"/></mask></defs><g mask="url(#h)"><path fill="#4b6667" style="cursor:pointer" d="M-1000-1000h2000v2000h-2000z" transform="rotate(-50.194)"/></g><path d="m-29.993 62.907 71.628-85.954m22.43 0L-23.158 81.62m.434 26.396L86.494-23.047m19.113 3.98L-9.487 119.047m19.639 3.348L105.607 7.848m0 26.916-69.415 83.298" fill="none" stroke-linecap="round" stroke-linejoin="round" stroke-width=".5" stroke="#4b6667"/></g><path d="M0 0h80v96H0z" fill="none" stroke-linecap="round" stroke-linejoin="round" stroke-width=".5" stroke="#4b6667"/></svg>