<?xml version="1.0" encoding="UTF-8" standalone="no"?>
<svg xmlns="http://www.w3.org/2000/svg" viewBox="-10 -10 100 116" preserveAspectRatio="xMidYMin slice"><defs><mask id="a"><path d="M0 0h80v96H0z" clip-rule="evenodd" fill-rule="evenodd" fill="#fff"/></mask></defs><g mask="url(#a)"><path d="M0 0h80v96H0z" fill-rule="evenodd" fill="#f0f0f0"/><defs><mask id="b"><path d="M-36.395 70.59 47.216-29.745l444.698-286.977a600 600 0 1 0-722.145 884.33l193.836-497.02z" clip-rule="evenodd" fill-rule="evenodd" fill="#fff" stroke="#fff" stroke-width=".1"/></mask></defs><g mask="url(#b)"><path fill="#f8f7ec" style="cursor:pointer" d="M-1000-1000h2000v2000h-2000z" transform="rotate(-50.194)"/></g><defs><mask id="c"><path d="M66.855-26.395-23.158 81.62l-152.795 538.686a600 600 0 0 0 67.965 15.08l85.264-527.37L86.494-23.047 486.28-290.829a600 600 0 0 0-47.742-62.09L66.855-26.395z" clip-rule="evenodd" fill-rule="evenodd" fill="#fff" stroke="#fff" stroke-width=".1"/></mask></defs><g mask="url(#c)"><path fill="#fcdc90" style="cursor:pointer" d="M-1000-1000h2000v2000h-2000z" transform="rotate(-50.194)"/></g><defs><mask id="d"><path d="M106.133-19.698-9.487 119.047l36.754 557.19a600 600 0 0 0 228.344-61.796L10.151 122.395 100.166 14.38 510.84-216.405a600 600 0 0 0-59.456-86.932l-345.25 283.64z" clip-rule="evenodd" fill-rule="evenodd" fill="#fff" stroke="#fff" stroke-width=".1"/></mask></defs><g mask="url(#d)"><path fill="#2a67aa" style="cursor:pointer" d="M-1000-1000h2000v2000h-2000z" transform="rotate(-50.194)"/></g><defs><mask id="e"><path d="M113.402 25.41 29.79 125.745l528.25 172.792a600 600 0 0 0-76.248-527.044L113.402 25.411z" clip-rule="evenodd" fill-rule="evenodd" fill="#fff" stroke="#fff" stroke-width=".1"/></mask></defs><g mask="url(#e)"><path style="cursor:pointer" d="M-1000-1000h2000v2000h-2000z" transform="rotate(-50.194)"/></g><defs><mask id="f"><path d="M-36.395 70.59 47.216-29.745l378.782-354.24a600 600 0 0 1 62.401 79.111L66.855-26.395-23.158 81.62l-104.48 533.022a600 600 0 0 1-169.753-60.894L-36.395 70.59z" clip-rule="evenodd" fill-rule="evenodd" fill="#fff"/></mask></defs><g mask="url(#f)"><path fill="#9a2829" style="cursor:pointer" d="M-1000-1000h2000v2000h-2000z" transform="rotate(-50.194)"/></g><defs><mask id="g"><path d="M-22.724 108.016 86.494-23.047l359.718-303.73a600 600 0 0 1 38.65 51.073L106.133-19.698-9.487 119.047l25.2 540.61a600 600 0 0 1-156.895-13.371l118.458-538.27z" clip-rule="evenodd" fill-rule="evenodd" fill="#fff"/></mask></defs><g mask="url(#g)"><path fill="#3e8f4c" style="cursor:pointer" d="M-1000-1000h2000v2000h-2000z" transform="rotate(-50.194)"/></g><defs><mask id="h"><path d="M10.152 122.395 100.165 14.38l375.62-268.674a600 600 0 0 1 37.252 59.065L113.402 25.41 29.79 125.744l440.933 325.059A600 600 0 0 1 365.43 561.007L10.152 122.395z" clip-rule="evenodd" fill-rule="evenodd" fill="#fff"/></mask></defs><g mask="url(#h)"><path fill="#884e91" style="cursor:pointer" d="M-1000-1000h2000v2000h-2000z" transform="rotate(-50.194)"/></g><path d="M-36.395 70.59 47.216-29.745m19.639 3.35L-23.158 81.62m.434 26.396L86.494-23.047m19.639 3.349L-9.487 119.047m19.639 3.348L100.165 14.38m13.237 11.03L29.79 125.745" stroke="#000" stroke-width=".5" fill="none" stroke-linecap="round" stroke-linejoin="round"/></g><path d="M0 0h80v96H0z" stroke="#000" stroke-width=".5" fill="none" stroke-linecap="round" stroke-linejoin="round"/></svg>