<svg preserveAspectRatio="xMidYMin slice" viewBox="0 0 100 200" xmlns="http://www.w3.org/2000/svg"><g transform="translate(10 10)"><defs><mask id="a"><path clip-rule="evenodd" d="M0 0h80v96H0z" fill-rule="evenodd" fill="#fff"/></mask></defs><g mask="url(#a)"><path d="M0 0h80v96H0z" fill-rule="evenodd" fill="#f0f0f0"/><g transform="rotate(-50.194 71.241 -18.7)"><defs><mask id="b"><path clip-rule="evenodd" d="M-62.482-43.898H1000V-1000h-2000v956.102h937.518z" fill-rule="evenodd" fill="#fff"/><path d="M-62.482-43.898H62.482" fill="none" stroke-width=".1" stroke="#fff"/></mask></defs><g mask="url(#b)"><path fill="#eae8e3" style="cursor:pointer" d="M-1000-1000h2000v2000h-2000z"/></g><defs><mask id="c"><path clip-rule="evenodd" d="M-62.482-43.898H1000v17.559h-2000v-17.56h937.518z" fill-rule="evenodd" fill="#fff"/><path d="M62.482-26.339H-62.482" fill="none" stroke-width=".1" stroke="#fff"/></mask></defs><g mask="url(#c)"><path fill="#ca6548" style="cursor:pointer" d="M-1000-1000h2000v2000h-2000z"/></g><defs><mask id="d"><path clip-rule="evenodd" d="M62.482-26.339H-1000v17.56h2000v-17.56H62.482" fill-rule="evenodd" fill="#fff"/><path d="M-62.482-8.78H62.482" fill="none" stroke-width=".1" stroke="#fff"/></mask></defs><g mask="url(#d)"><path fill="#f7d2a5" style="cursor:pointer" d="M-1000-1000h2000v2000h-2000z"/></g><defs><mask id="e"><path clip-rule="evenodd" d="M-62.482-8.78H1000V8.78h-2000V-8.78h937.518z" fill-rule="evenodd" fill="#fff"/><path d="M62.482 8.78H-62.482" fill="none" stroke-width=".1" stroke="#fff"/></mask></defs><g mask="url(#e)"><path fill="#88934d" style="cursor:pointer" d="M-1000-1000h2000v2000h-2000z"/></g><defs><mask id="f"><path clip-rule="evenodd" d="M62.482 8.78H-1000v17.559h2000V8.779H62.482" fill-rule="evenodd" fill="#fff"/><path d="M-62.482 26.339H62.482" fill="none" stroke-width=".1" stroke="#fff"/></mask></defs><g mask="url(#f)"><path fill="#4c7cad" style="cursor:pointer" d="M-1000-1000h2000v2000h-2000z"/></g><defs><mask id="g"><path clip-rule="evenodd" d="M-62.482 26.339H1000v17.56h-2000v-17.56h937.518z" fill-rule="evenodd" fill="#fff"/><path d="M62.482 43.898H-62.482" fill="none" stroke-width=".1" stroke="#fff"/></mask></defs><g mask="url(#g)"><path fill="#955f81" style="cursor:pointer" d="M-1000-1000h2000v2000h-2000z"/></g><defs><mask id="h"><path clip-rule="evenodd" d="M62.482 43.898H-1000V1000h2000V43.898H62.482z" fill-rule="evenodd" fill="#fff"/></mask></defs><g mask="url(#h)"><path fill="#191b21" style="cursor:pointer" d="M-1000-1000h2000v2000h-2000z"/></g><path d="M-62.482-43.898H62.482m0 17.559H-62.482m0 17.559H62.482m0 17.56H-62.482m0 17.559H62.482m0 17.559H-62.482" fill="none" stroke-linecap="round" stroke-linejoin="round" stroke-width=".5" stroke="#191b21"/></g></g><path d="M0 0h80v96H0z" fill="none" stroke-linecap="round" stroke-linejoin="round" stroke-width=".5" stroke="#191b21"/></g></svg>