<svg preserveAspectRatio="xMidYMin slice" viewBox="0 0 50 100" xmlns="http://www.w3.org/2000/svg"><g transform="translate(5 5)"><defs><pattern height="20" id="b" patternUnits="userSpaceOnUse" width="12.5" x="-3.125" y="-5"><path fill="#333" d="M0 0h12.5v20H0z"/><g fill="#f6f6f6"><path d="M47.758 0c12.567 15.69-22.621 21.899-3.591 36.607 8.079 5.067 27.107-5.884 10.41-19.285C52.424 16.178 62.12 8.335 47.758 0zM68.94 36.935c-3.232.327-6.283 2.29-9.155 7.193-3.59 8.335 12.21 22.717 22.98 5.067.719-2.125 11.31 4.737 17.235-9.809-10.054 10.46-20.287-1.96-29.622-2.45zm-39.135.164C20.469 37.589 10.054 50.173 0 39.55c5.924 14.546 16.519 7.52 17.416 9.808 10.593 17.65 26.39 3.27 22.8-5.066-3.232-5.556-6.82-7.356-10.411-7.193zm21.003 10.133c-8.258 37.262-23.515 63.576-40.212 82.534 7.002-1.96 14.72-7.192 22.26-11.931-4.668 9.806-9.155 18.14-13.823 26.802 2.693-.98 11.49-9.644 23.339-22.392 1.795 17.488 4.305 25.825 8.075 37.755 3.052-11.93 5.209-19.941 7.542-37.918 7.182 8.008 14.002 16.18 23.697 23.044l-13.465-27.78c7.002 4.413 14.723 10.293 22.084 12.745-17.594-19.939-32.316-45.597-39.497-82.86z" transform="scale(.0625)"/><path d="M47.758 0c12.567 15.69-22.621 21.899-3.591 36.607 8.079 5.067 27.107-5.884 10.41-19.285C52.424 16.178 62.12 8.335 47.758 0zM68.94 36.935c-3.232.327-6.283 2.29-9.155 7.193-3.59 8.335 12.21 22.717 22.98 5.067.719-2.125 11.31 4.737 17.235-9.809-10.054 10.46-20.287-1.96-29.622-2.45zm-39.135.164C20.469 37.589 10.054 50.173 0 39.55c5.924 14.546 16.519 7.52 17.416 9.808 10.593 17.65 26.39 3.27 22.8-5.066-3.232-5.556-6.82-7.356-10.411-7.193zm21.003 10.133c-8.258 37.262-23.515 63.576-40.212 82.534 7.002-1.96 14.72-7.192 22.26-11.931-4.668 9.806-9.155 18.14-13.823 26.802 2.693-.98 11.49-9.644 23.339-22.392 1.795 17.488 4.305 25.825 8.075 37.755 3.052-11.93 5.209-19.941 7.542-37.918 7.182 8.008 14.002 16.18 23.697 23.044l-13.465-27.78c7.002 4.413 14.723 10.293 22.084 12.745-17.594-19.939-32.316-45.597-39.497-82.86z" transform="translate(6.25 10) scale(.0625)"/></g></pattern></defs><defs><mask id="a"><path clip-rule="evenodd" d="M0 0h40v48H0z" fill-rule="evenodd" fill="#fff"/></mask></defs><g mask="url(#a)"><path d="M0 0h40v48H0z" fill-rule="evenodd" fill="#f0f0f0"/><path fill="url(#b)" style="cursor:pointer" d="M-1000-1000h2000v2000h-2000z"/></g><path d="M0 0h40v48H0z" fill="none" stroke-linecap="round" stroke-linejoin="round" stroke-width=".5" stroke="#333"/></g></svg>