<?xml version="1.0" encoding="UTF-8" standalone="no"?>
<!-- Created with Inkscape (http://www.inkscape.org/) -->
<svg
   xmlns:svg="http://www.w3.org/2000/svg"
   xmlns="http://www.w3.org/2000/svg"
   xmlns:xlink="http://www.w3.org/1999/xlink"
   version="1.0"
   width="600"
   height="660"
   id="svg2"
   style="display:inline">
  <desc
     id="desc4">Blason Vide 3D</desc>
  <defs
     id="defs6">
    <linearGradient
       id="linearGradient2893">
      <stop
         id="stop2895"
         style="stop-color:#ffffff;stop-opacity:0.3137255"
         offset="0" />
      <stop
         id="stop2897"
         style="stop-color:#ffffff;stop-opacity:0.25098041"
         offset="0.19" />
      <stop
         id="stop2901"
         style="stop-color:#6b6b6b;stop-opacity:0.1254902"
         offset="0.60000002" />
      <stop
         id="stop2899"
         style="stop-color:#000000;stop-opacity:0.1254902"
         offset="1" />
    </linearGradient>
    <radialGradient
       cx="221.44487"
       cy="226.33101"
       r="300"
       fx="221.44487"
       fy="226.33101"
       id="radialGradient3163"
       xlink:href="#linearGradient2893"
       gradientUnits="userSpaceOnUse"
       gradientTransform="matrix(1.353218,0,0,1.348928,-77.62935,-85.74693)" />
  </defs>
  <g
     id="layer3"
     style="display:inline">
    <path
       d="M 300,658.5 C 300,658.5 598.50001,546.17969 598.50001,260.72817 C 598.50001,-24.723354 598.50001,2.1764765 598.50001,2.1764765 L 1.5,2.1764765 L 1.5,260.72817 C 1.5,546.17969 300,658.5 300,658.5 z"
       id="path2855"
       style="fill:#fcef3c;fill-opacity:1;fill-rule:evenodd;stroke:none;stroke-width:1px;stroke-linecap:butt;stroke-linejoin:miter;stroke-opacity:1" />
  </g>
  <g
     transform="matrix(0.8895883,0,0,0.8912175,8.9786006,71.112365)"
     id="layer145"
     style="stroke:#000000;stroke-width:3.3692627;stroke-miterlimit:4;stroke-dasharray:none;stroke-opacity:1;display:inline">
    <g
       transform="translate(29.510592,-117.82349)"
       id="g3681"
       style="opacity:1;fill:#787850;fill-opacity:1;stroke:#000000;stroke-width:3.3692627;stroke-miterlimit:4;stroke-dasharray:none;stroke-opacity:1">
      <path
         d="M 135.44004,557.26967 C 135.44004,557.26967 121.47588,564.04418 126.89571,584.90228 C 126.89571,584.90228 133.70433,570.35575 142.24526,570.35575 C 150.78618,570.35575 146.7688,561.58052 146.7688,561.58052 L 141.51275,555.17454 L 135.44004,557.26967 z"
         id="path2954"
         style="fill:#787850;fill-opacity:1;stroke:#000000;stroke-width:3.3692627;stroke-linecap:round;stroke-linejoin:round;stroke-miterlimit:4;stroke-dasharray:none;stroke-opacity:1" />
      <path
         d="M 119.94831,532.46926 C 119.94831,532.46926 125.76056,516.87289 136.0861,513.79729 C 142.35445,511.92964 147.98925,511.45647 149.57255,513.82686 C 151.15584,516.19726 151.95659,519.13181 151.95659,519.13181 L 147.2886,529.93394 L 142.24412,529.0058 C 142.24526,529.0058 133.95229,524.46748 119.94831,532.46926 z"
         id="path3684"
         style="fill:#787850;fill-opacity:1;stroke:#000000;stroke-width:3.3692627;stroke-linecap:round;stroke-linejoin:round;stroke-miterlimit:4;stroke-dasharray:none;stroke-opacity:1" />
      <path
         d="M 191.96893,596.52562 C 191.96893,596.52562 195.81797,603.73576 182.96848,610.81282 C 182.96848,610.81282 194.14141,612.67478 202.2922,608.26385 C 207.61421,605.38389 208.94158,599.52501 207.14673,596.00355 C 205.35187,592.48208 202.2922,591.19338 202.2922,591.19338 L 192.95166,592.16019 L 191.96893,596.52562 z"
         id="path3686"
         style="fill:#787850;fill-opacity:1;stroke:#000000;stroke-width:3.3692627;stroke-linecap:round;stroke-linejoin:round;stroke-miterlimit:4;stroke-dasharray:none;stroke-opacity:1" />
      <path
         d="M 167.42671,610.75936 C 167.42671,610.75936 165.14276,595.43597 172.07878,590.76912 L 173.4289,582.48525 L 163.15909,579.28454 L 158.22494,582.08601 L 157.94741,586.05904 C 157.94627,586.0579 150.88855,599.15649 167.42671,610.75936 z"
         id="path3688"
         style="fill:#787850;fill-opacity:1;stroke:#000000;stroke-width:3.3692627;stroke-linecap:round;stroke-linejoin:round;stroke-miterlimit:4;stroke-dasharray:none;stroke-opacity:1" />
      <path
         d="M 358.41401,388.73286 C 348.04639,396.57768 325.43779,406.52901 307.11842,409.14509 C 288.79906,411.76117 277.2849,421.1836 260.53518,442.6434 C 243.78546,464.10319 231.74809,469.33762 224.94288,469.33762 C 224.94288,469.33762 241.16938,478.75891 253.7311,469.33762 C 253.7311,469.33762 250.59067,482.42256 241.16938,491.32064 C 241.16938,491.32064 253.7311,492.3682 261.58275,480.85291 C 261.58275,480.85291 257.39475,493.4135 251.11389,501.78836 C 251.11389,501.78836 263.67675,499.17114 269.43326,489.74985 C 269.43326,489.74985 273.62012,503.358 263.1524,513.82686 C 252.68467,524.29572 226.51821,533.19266 198.773,533.19266 C 179.93042,533.19266 171.03235,518.53694 165.79792,515.39651 C 160.56349,512.25608 152.71298,511.73173 149.57255,513.82573 C 149.57255,513.82573 148.52612,522.72267 142.24526,529.00466 C 142.24526,529.00466 143.29169,541.04431 157.42419,542.09074 C 157.42419,542.09074 140.67447,538.42595 135.44118,557.26967 C 135.44118,557.26967 143.29282,560.41124 142.24526,570.35575 C 142.24526,570.35575 149.71473,576.4023 158.20333,570.02248 C 158.20333,570.02248 151.66541,579.25269 157.94627,586.0579 C 157.94627,586.0579 167.89078,582.39426 172.07878,590.76912 C 172.07878,590.76912 182.83199,590.67471 181.50007,581.34782 C 180.97685,577.68418 186.73336,570.88124 193.01536,575.0681 C 199.29736,579.25496 197.20336,581.87104 197.20336,581.87104 C 197.20336,581.87104 184.64164,585.53469 191.96893,596.52676 C 191.96893,596.52676 199.29622,591.29233 207.14786,596.00355 C 207.14786,596.00355 220.2328,594.43276 214.47516,581.34782 C 214.47516,581.34782 233.84209,583.96504 246.40381,567.21532 C 246.40381,567.21532 245.87946,574.0194 240.12295,580.82461 C 240.12295,580.82461 258.96553,577.68418 268.91118,561.45881 C 268.91118,561.45881 266.29396,572.44975 261.58389,577.16096 C 261.58389,577.16096 278.85569,571.92767 289.84776,551.5143 C 289.84776,551.5143 289.84776,561.98089 288.27811,565.12246 C 288.27811,565.12246 300.31662,557.79517 308.16827,543.13944 C 308.16827,543.13944 308.16713,549.4203 307.1207,554.65473 C 307.1207,554.65473 319.68242,548.37387 321.77642,535.81215 C 321.77642,535.81215 322.29963,543.14058 321.77642,546.80423 C 321.77642,546.80423 333.81379,537.3818 336.43214,528.48486 C 339.05049,519.58792 336.43214,508.07149 329.10485,497.08056 C 321.77756,486.08962 316.54426,471.43503 334.86363,458.87218 C 353.183,446.30932 365.2215,444.21532 385.11165,446.30932 C 405.00181,448.40332 377.77981,374.07714 358.41401,388.73286 z"
         id="path3690"
         style="fill:#787850;fill-opacity:1;stroke:#000000;stroke-width:3.3692627;stroke-linecap:round;stroke-linejoin:round;stroke-miterlimit:4;stroke-dasharray:none;stroke-opacity:1" />
      <path
         d="M 377.25546,437.93218 L 348.46723,402.86309 C 348.46723,402.86309 338.42036,389.93626 377.25546,414.9016 C 384.58389,419.61281 377.25546,437.93218 377.25546,437.93218 z"
         id="path3692"
         style="fill:#787850;fill-opacity:1;stroke:#000000;stroke-width:3.3692627;stroke-linecap:round;stroke-linejoin:round;stroke-miterlimit:4;stroke-dasharray:none;stroke-opacity:1" />
      <path
         d="M 98.787659,87.181022 C 98.787659,87.181022 82.556604,72.439994 64.842348,84.560394 C 64.842348,84.560394 81.1007,85.248537 88.220981,97.289318 L 92.501111,100.72093 L 98.405484,96.058624 L 100.8919,91.396319 L 98.787659,87.181022 z"
         id="path3694"
         style="fill:#787850;fill-opacity:1;stroke:#000000;stroke-width:3.3692627;stroke-linecap:round;stroke-linejoin:round;stroke-miterlimit:4;stroke-dasharray:none;stroke-opacity:1" />
      <path
         d="M 78.411828,116.36507 L 73.518625,113.82861 C 73.518625,113.82861 51.68234,111.24666 45.142147,132.00467 C 45.142147,132.00467 58.122441,123.32953 65.707928,130.36905 C 73.293415,137.40857 74.999553,130.86724 74.999553,130.86724 L 79.264897,122.33655 L 78.411828,116.36507 z"
         id="path3696"
         style="fill:#787850;fill-opacity:1;stroke:#000000;stroke-width:3.3692627;stroke-linecap:round;stroke-linejoin:round;stroke-miterlimit:4;stroke-dasharray:none;stroke-opacity:1" />
      <path
         d="M 66.167448,155.63695 C 66.167448,155.63695 46.892644,156.1249 49.094698,182.1071 C 49.094698,182.1071 57.675433,167.4764 68.465046,170.33816 C 79.25466,173.19992 73.315026,162.5104 73.315026,162.5104 L 70.232605,155.02387 L 66.167448,155.63695 z"
         id="path3698"
         style="fill:#787850;fill-opacity:1;stroke:#000000;stroke-width:3.3692627;stroke-linecap:round;stroke-linejoin:round;stroke-miterlimit:4;stroke-dasharray:none;stroke-opacity:1" />
      <path
         d="M 91.436481,196.06672 C 91.436481,196.06672 80.189623,199.62231 73.690377,186.62268 C 73.690377,186.62268 69.796971,199.05814 77.336961,206.59813 C 80.824306,210.08548 86.663846,212.52981 91.896001,210.30955 C 97.128156,208.0893 98.580648,202.47611 98.580648,202.47611 L 96.361532,196.92775 L 91.436481,196.06672 z"
         id="path3700"
         style="fill:#787850;fill-opacity:1;stroke:#000000;stroke-width:3.3692627;stroke-linecap:round;stroke-linejoin:round;stroke-miterlimit:4;stroke-dasharray:none;stroke-opacity:1" />
      <path
         d="M 236.61855,244.76784 C 236.61855,244.76784 223.06954,237.14823 202.61978,233.74165 C 199.86266,233.28213 184.2424,216.74283 165.86502,202.95951 C 147.48765,189.1762 130.02931,174.47498 130.02931,174.47498 C 130.02931,174.47498 119.00311,161.15118 118.54359,149.20594 C 118.08407,137.26071 114.40792,123.93691 111.65194,120.26189 C 108.89596,116.58687 123.13765,93.154778 98.787659,87.182159 C 98.787659,87.182159 95.572159,96.830935 88.220981,97.290455 C 88.220981,97.290455 82.707882,106.47857 87.761461,111.53215 C 87.761461,111.53215 78.112685,107.856 73.518625,113.82975 C 73.518625,113.82975 73.978145,124.85595 65.707928,130.37019 C 65.707928,130.37019 67.08535,140.93686 77.653165,140.01783 C 88.220981,139.09879 88.220981,141.8559 88.220981,141.8559 C 88.220981,141.8559 86.843559,145.99044 80.410283,147.82852 C 73.977008,149.6666 68.923428,147.82852 66.167448,155.63922 C 66.167448,155.63922 71.681684,161.15232 68.465046,170.34158 C 68.465046,170.34158 70.301988,178.61179 79.491244,177.69275 C 88.680501,176.77371 88.679363,168.5035 92.815041,172.17965 C 96.950718,175.85581 106.59836,185.04393 105.67932,187.34153 C 104.76028,189.63913 104.30076,191.93559 100.62574,191.93559 C 96.950718,191.93559 90.978099,190.55703 91.437619,196.07013 C 91.437619,196.07013 96.950718,203.88083 91.897139,210.31297 C 91.897139,210.31297 94.653119,219.50108 102.46382,220.42012 C 110.27451,221.33916 117.16617,213.98799 117.16617,213.98799 C 117.16617,213.98799 126.35543,227.31178 131.86853,227.31178 C 131.86853,227.31178 121.30185,226.39274 117.62683,224.55466 C 117.62683,224.55466 124.51849,239.71654 145.19232,241.0951 C 145.19232,241.0951 136.00421,242.01414 127.73399,239.25702 C 127.73399,239.25702 136.92211,253.49872 162.65066,254.87728 C 162.65066,254.87728 153.4614,255.79632 145.19232,253.95824 C 145.19232,253.95824 154.38158,267.74042 176.8935,268.65946 C 176.8935,268.65946 168.62328,270.95705 159.43402,268.19994 C 159.43402,268.19994 168.62328,281.06421 193.43279,281.98325 C 193.43279,281.98325 184.24467,283.36181 175.05542,281.52373 C 175.05542,281.52373 185.16258,295.30705 204.45899,293.46897 C 204.45899,293.46897 198.48637,295.76657 191.13519,294.84753 C 191.13519,294.84753 204.28155,308.73663 215.90604,308.55577 L 253.01339,305.53136 L 270.4922,245.49466 L 236.61855,244.76784 z"
         id="path3702"
         style="fill:#787850;fill-opacity:1;stroke:#000000;stroke-width:3.3692627;stroke-linecap:round;stroke-linejoin:round;stroke-miterlimit:4;stroke-dasharray:none;stroke-opacity:1" />
      <path
         d="M 329.33802,161.22853 C 329.33802,161.22853 298.58432,152.39756 269.35364,152.70239 C 240.12295,153.00722 217.28573,164.57824 201.45164,156.96546 C 185.61755,149.35267 197.18857,125.90693 201.14681,124.99358 C 201.14681,124.99358 183.24488,121.49372 170.08828,142.95807 C 164.30334,152.39756 169.13171,174.00522 188.3576,178.88819 C 207.54028,183.75978 218.19795,171.27654 242.55704,167.01347 C 264.85171,163.1121 279.7042,160.9237 328.42353,170.05836 L 329.33802,161.22853 z"
         id="path3704"
         style="fill:#787850;fill-opacity:1;stroke:#000000;stroke-width:3.3692627;stroke-linecap:round;stroke-linejoin:round;stroke-miterlimit:4;stroke-dasharray:none;stroke-opacity:1" />
      <path
         d="M 234.87032,139.70276 C 234.87032,139.70276 234.01839,147.65222 242.53657,153.6146 C 242.53657,153.6146 241.40142,141.9742 246.51187,132.60409 C 246.51187,132.60523 234.87032,130.61701 234.87032,139.70276 z"
         id="path3706"
         style="fill:#787850;fill-opacity:1;stroke:#000000;stroke-width:3.3692627;stroke-linecap:round;stroke-linejoin:round;stroke-miterlimit:4;stroke-dasharray:none;stroke-opacity:1" />
      <path
         d="M 244.2029,178.25805 C 244.2029,178.25805 242.22833,170.50991 249.8104,163.39646 C 249.8104,163.39646 250.34385,175.08009 256.73618,183.62784 C 256.73618,183.6267 245.49501,187.25054 244.2029,178.25805 z"
         id="path3708"
         style="fill:#787850;fill-opacity:1;stroke:#000000;stroke-width:3.3692627;stroke-linecap:round;stroke-linejoin:round;stroke-miterlimit:4;stroke-dasharray:none;stroke-opacity:1" />
      <path
         d="M 250.48603,131.75216 L 257.5847,146.80029 C 257.5847,146.80029 262.12758,133.17166 265.25095,130.61587 L 250.48603,131.75216 z"
         id="path3710"
         style="fill:#787850;fill-opacity:1;stroke:#000000;stroke-width:3.3692627;stroke-linecap:round;stroke-linejoin:round;stroke-miterlimit:4;stroke-dasharray:none;stroke-opacity:1" />
      <path
         d="M 292.39901,132.90551 C 292.39901,132.90551 292.68336,139.82105 296.37431,141.35657 C 300.06525,142.8921 302.33669,145.96656 302.33669,145.96656 C 302.33669,145.96656 307.44828,137.25843 306.02877,133.41735 L 292.96772,132.90551"
         id="path3712"
         style="fill:#787850;fill-opacity:1;stroke:#000000;stroke-width:3.3692627;stroke-linecap:round;stroke-linejoin:round;stroke-miterlimit:4;stroke-dasharray:none;stroke-opacity:1" />
      <path
         d="M 259.11909,183.77911 L 265.09284,169.76263 C 265.09284,169.76263 268.96919,182.04227 272.24156,184.40356 L 259.11909,183.77911 z"
         id="path3714"
         style="fill:#787850;fill-opacity:1;stroke:#000000;stroke-width:3.3692627;stroke-linecap:round;stroke-linejoin:round;stroke-miterlimit:4;stroke-dasharray:none;stroke-opacity:1" />
      <polygon
         points="196.935,63.234 203.675,75.715 209.666,62.735 196.935,63.234 "
         transform="matrix(1.137425,0,0,1.137425,40.33084,60.59144)"
         id="polygon2992"
         style="fill:#787850;fill-opacity:1;stroke:#000000;stroke-width:2.96218443;stroke-linecap:round;stroke-linejoin:round;stroke-miterlimit:4;stroke-dasharray:none;stroke-opacity:1" />
      <polygon
         points="209.623,63.063 216.363,75.544 222.354,62.563 209.623,63.063 "
         transform="matrix(1.137425,0,0,1.137425,40.33084,60.59144)"
         id="polygon2994"
         style="fill:#787850;fill-opacity:1;stroke:#000000;stroke-width:2.96218443;stroke-linecap:round;stroke-linejoin:round;stroke-miterlimit:4;stroke-dasharray:none;stroke-opacity:1" />
      <polygon
         points="205.233,109.493 210.226,95.015 216.966,109.244 205.233,109.493 "
         transform="matrix(1.137425,0,0,1.137425,40.33084,60.59144)"
         id="polygon2996"
         style="fill:#787850;fill-opacity:1;stroke:#000000;stroke-width:2.96218443;stroke-linecap:round;stroke-linejoin:round;stroke-miterlimit:4;stroke-dasharray:none;stroke-opacity:1" />
      <path
         d="M 289.78407,181.32341 C 289.78407,181.32341 289.64757,174.40446 293.23956,172.64714 C 296.83155,170.88981 298.91076,167.68455 298.91076,167.68455 C 298.91076,167.68455 304.54102,176.06624 303.35696,179.9858 L 290.35164,181.28929"
         id="path3719"
         style="fill:#787850;fill-opacity:1;stroke:#000000;stroke-width:3.3692627;stroke-linecap:round;stroke-linejoin:round;stroke-miterlimit:4;stroke-dasharray:none;stroke-opacity:1" />
      <path
         d="M 65.188125,333.55524 C 65.188125,333.55524 56.366256,329.69254 41.894798,333.0616 C 41.894798,333.0616 46.082797,321.08679 58.150876,318.59014 C 63.899422,317.40153 69.968722,318.06237 71.55543,320.24282 C 73.142138,322.42326 74.802778,327.90792 74.802778,327.90792 L 70.044929,335.44109 L 65.188125,333.55524 z"
         id="path3000"
         style="fill:#787850;fill-opacity:1;stroke:#000000;stroke-width:3.3692627;stroke-linecap:round;stroke-linejoin:round;stroke-miterlimit:4;stroke-dasharray:none;stroke-opacity:1" />
      <path
         d="M 62.004472,355.54963 C 62.004472,355.54963 41.475088,356.43568 45.658537,381.03477 C 45.658537,381.03477 53.772927,367.87476 61.135479,370.8878 C 68.499169,373.90084 67.747331,366.30853 67.747331,366.30853 L 66.911324,357.10449 L 62.004472,355.54963 z"
         id="path3723"
         style="fill:#787850;fill-opacity:1;stroke:#000000;stroke-width:3.3692627;stroke-linecap:round;stroke-linejoin:round;stroke-miterlimit:4;stroke-dasharray:none;stroke-opacity:1" />
      <path
         d="M 73.87009,396.0647 C 73.87009,396.0647 68.797174,406.46418 72.741764,417.67464 C 72.741764,417.67464 81.711498,409.76499 86.024613,401.56302 C 90.351378,393.33602 86.161104,395.80765 86.161104,395.80765 L 78.895233,391.65605 L 73.87009,396.0647 z"
         id="path3726"
         style="fill:#787850;fill-opacity:1;stroke:#000000;stroke-width:3.3692627;stroke-linecap:round;stroke-linejoin:round;stroke-miterlimit:4;stroke-dasharray:none;stroke-opacity:1" />
      <path
         d="M 111.20152,406.19347 C 111.20152,406.19347 108.42961,414.79696 94.30848,419.34893 C 94.30848,419.34893 105.08103,425.21691 115.22686,420.46247 C 120.9447,417.7827 125.04967,414.09744 125.38179,409.37599 L 123.902,403.64792 L 116.65433,401.43335 L 111.01725,402.03732 L 111.20152,406.19347 z"
         id="path3729"
         style="fill:#787850;fill-opacity:1;stroke:#000000;stroke-width:3.3692627;stroke-linecap:round;stroke-linejoin:round;stroke-miterlimit:4;stroke-dasharray:none;stroke-opacity:1" />
      <path
         d="M 315.22144,610.2134 C 315.22144,610.2134 305.66479,608.75863 301.96134,618.63489 C 299.72743,624.59386 302.51981,633.71828 302.51981,633.71828 C 302.51981,633.71828 308.14552,621.04282 315.22144,621.78897 C 322.29736,622.53512 322.44522,620.49799 322.44522,620.49799 L 320.02478,612.67592 L 319.09437,609.51047 L 315.22144,610.2134 z"
         id="path3731"
         style="fill:#787850;fill-opacity:1;stroke:#000000;stroke-width:3.3692627;stroke-linecap:round;stroke-linejoin:round;stroke-miterlimit:4;stroke-dasharray:none;stroke-opacity:1" />
      <path
         d="M 316.09043,642.91436 C 316.09043,642.91436 309.64009,649.5683 313.01938,658.40723 C 314.7858,663.02745 321.71613,668.8704 321.71613,668.8704 C 321.71613,668.8704 319.083,653.80521 325.0613,652.17414 C 331.03961,650.54307 328.50997,645.90466 328.50997,645.90466 L 318.72584,638.29528 L 316.09043,642.91436 z"
         id="path3733"
         style="fill:#787850;fill-opacity:1;stroke:#000000;stroke-width:3.3692627;stroke-linecap:round;stroke-linejoin:round;stroke-miterlimit:4;stroke-dasharray:none;stroke-opacity:1" />
      <path
         d="M 349.37035,665.4877 C 349.37035,665.4877 344.42937,675.56529 353.68119,683.8446 C 356.40646,686.28324 362.71689,687.14314 362.71689,687.14314 C 362.71689,687.14314 356.65328,674.89079 364.41848,669.82812 C 372.18368,664.76544 360.99483,660.60701 360.99483,660.60701 L 350.38038,661.18141 L 349.37035,665.4877 z"
         id="path3735"
         style="fill:#787850;fill-opacity:1;stroke:#000000;stroke-width:3.3692627;stroke-linecap:round;stroke-linejoin:round;stroke-miterlimit:4;stroke-dasharray:none;stroke-opacity:1" />
      <path
         d="M 393.64689,654.49108 C 393.64689,654.49108 397.03187,662.65665 380.73257,673.30864 C 380.73257,673.30864 389.6841,678.04715 401.26764,669.8429 C 407.42793,665.47974 409.26829,658.53349 406.95818,653.91213 C 404.64807,649.29077 401.90915,648.28187 401.90915,648.28187 L 393.82433,650.72165 L 393.64689,654.49108 z"
         id="path3014"
         style="fill:#787850;fill-opacity:1;stroke:#000000;stroke-width:3.3692627;stroke-linecap:round;stroke-linejoin:round;stroke-miterlimit:4;stroke-dasharray:none;stroke-opacity:1" />
      <path
         d="M 323.56673,82.081945 C 323.56673,82.081945 331.1306,75.666868 336.28427,69.827328 C 341.43795,63.987788 343.2692,62.155397 343.2692,62.155397 C 343.2692,62.155397 348.14307,69.632829 341.50164,86.234684 C 342.63452,86.770411 343.61384,87.319788 344.45667,87.860064 C 349.94475,81.187929 359.09192,72.333076 371.15317,68.670567 C 371.15317,68.670567 377.33053,85.064274 370.54579,102.1575 C 370.54579,102.1575 402.47672,103.48032 412.09593,130.16317 C 418.98986,135.20538 426.20454,144.44127 426.20454,156.59124 C 428.72508,160.24693 429.7317,166.74845 429.22213,172.93832 C 429.22213,172.93832 424.89992,163.39646 412.16645,161.3707 C 412.16645,161.3707 428.03239,173.03272 424.84873,189.23875 C 424.84873,189.23875 415.92791,179.8914 410.13955,178.7335 C 410.13955,178.7335 422.93559,191.7172 418.88408,211.10575 C 418.88408,211.10575 407.24594,199.27994 403.48334,197.25419 C 403.48334,197.25419 416.21454,207.96191 413.61098,229.66625 C 413.61098,229.66625 411.16665,226.10156 408.02963,222.53687 C 408.02963,222.53687 410.42732,238.34708 404.92901,248.47585 C 404.92901,248.47585 401.16641,237.76813 395.09028,233.42772 C 395.09028,233.42772 399.14293,247.8969 390.46096,261.49823 C 390.46096,261.49823 388.1463,248.18581 382.35795,243.26644 C 382.35795,243.26644 384.09366,256.57886 378.01753,265.83864 C 378.01753,265.83864 375.99178,254.26307 370.49347,253.39521 C 370.49347,253.39521 363.83612,251.94841 363.83612,274.23056 C 363.83612,296.51272 384.3837,346.57762 413.90216,371.17671 C 443.42061,395.7758 466.8618,425.86979 481.04094,436.28974 C 495.22008,446.70969 520.39812,441.21024 523.00282,426.16211 C 525.60753,411.11397 514.32086,383.62241 494.64227,363.36374 C 474.96368,343.1062 466.57176,295.35709 488.85505,273.0738 C 511.13834,250.79051 552.52128,215.19479 552.52128,215.19479 C 552.52128,215.19479 556.25886,227.7258 548.02276,239.37531 C 548.02276,239.37531 552.52355,250.1217 547.31187,259.03343 C 547.31187,259.03343 552.1846,270.15744 544.35002,280.25778 C 544.35002,280.25778 548.46863,297.09281 536.31525,306.93267 C 524.16186,316.77253 497.82706,332.97743 515.4799,359.60227 C 515.4799,359.60227 515.27857,344.48248 522.42501,338.76578 C 531.10698,331.82067 534.00172,323.42874 534.00172,323.42874 C 534.00172,323.42874 536.36074,339.19345 527.05661,352.0782 C 523.29401,357.28761 522.71619,369.15209 522.71619,369.15209 C 522.71619,369.15209 525.03085,359.60227 531.39816,356.12971 C 537.76546,352.65715 540.37017,345.42199 540.37017,345.42199 C 540.37017,345.42199 546.73747,359.02332 538.34441,367.41524 C 529.95135,375.80717 531.3993,385.06922 531.3993,385.06922 C 531.3993,385.06922 533.71396,378.70191 539.50231,375.5194 C 545.29067,372.33688 547.31528,364.23273 547.31528,364.23273 C 547.31528,364.23273 551.9446,380.14872 543.55268,387.67278 C 535.16076,395.19685 537.05457,399.39167 540.37017,410.24612 C 543.55268,420.66379 543.55268,453.94485 515.19213,462.33677 C 486.83157,470.72869 460.49677,452.78695 448.9212,440.34238 C 442.93493,433.90797 439.11659,429.0978 436.0228,425.75377 C 435.60991,438.02659 431.84731,443.81494 431.84731,455.39052 C 431.84731,466.96609 430.11046,490.69619 457.60316,490.69619 C 474.67819,490.69619 479.59869,482.59204 486.54267,485.19674 C 493.48665,487.80144 496.26765,499.40432 487.12162,516.45204 C 480.75545,528.31652 487.70056,556.67708 487.70056,569.69946 C 487.70056,577.80133 481.91221,584.16864 481.91221,584.16864 C 481.91221,584.16864 480.75317,576.35567 474.96709,571.14626 C 474.96709,571.14626 480.4654,588.51019 469.46878,606.45193 C 469.46878,606.45193 468.02311,595.74308 463.97047,590.53481 C 463.97047,590.53481 465.99622,608.18764 450.94809,619.76322 C 450.94809,619.76322 451.81708,607.32092 447.18549,602.11038 C 447.18549,602.11038 449.79133,615.13162 434.45315,628.44404 C 434.45315,628.44404 436.76895,616.86847 435.0321,611.37016 C 435.0321,611.37016 418.53489,632.78446 412.16872,634.2324 C 412.16872,634.2324 417.95708,638.57281 415.64242,644.36117 C 413.32776,650.14953 406.96045,653.91099 406.96045,653.91099 C 406.96045,653.91099 399.43752,649.85948 393.64917,654.48994 C 393.64917,654.48994 387.77437,648.67315 389.30875,644.07113 C 390.46665,640.59857 379.00482,640.20502 377.15309,644.65121 C 377.15309,644.65121 375.41852,651.30742 376.28524,656.22679 C 377.15195,661.14615 372.23373,668.95912 364.41962,669.82812 C 364.41962,669.82812 356.02656,661.7251 349.37149,665.4877 C 349.37149,665.4877 342.71641,659.4093 349.66153,652.75423 C 356.60665,646.09915 352.84404,637.99386 347.92468,639.73185 C 343.00532,641.46984 342.68911,650.65454 334.32335,653.04427 C 330.27185,654.20217 325.06244,652.17528 325.06244,652.17528 C 325.06244,652.17528 325.06358,644.94012 316.09157,642.91436 C 316.09157,642.91436 315.32039,634.28358 322.10172,628.94451 C 322.10172,628.94451 315.51148,626.70833 315.22258,621.78897 C 315.22258,621.78897 317.82728,615.4228 315.22258,610.2134 C 315.22258,610.2134 319.56299,600.95248 328.8239,602.11038 C 338.08482,603.26828 348.79254,615.13276 364.41962,615.13276 C 380.0467,615.13276 404.64465,587.06225 412.74767,571.43517 C 420.85069,555.80808 421.71968,534.9716 417.08808,526.57854 C 417.08808,526.57854 417.08695,534.1026 413.03544,543.36352 C 413.03544,543.36352 413.90443,536.12949 408.11608,532.94584 C 408.11608,532.94584 405.80028,543.36352 401.74877,547.70507 C 401.74877,547.70507 401.45873,539.60205 397.98617,537.86634 C 397.98617,537.86634 396.5405,545.39155 391.04219,550.59981 C 391.04219,550.59981 391.91118,542.20789 379.75552,538.7342 C 367.59986,535.2605 362.9694,519.05447 362.6805,496.19336 C 362.39159,473.33226 378.01867,435.41961 374.25721,417.47787 C 370.49574,399.53613 358.67335,388.19145 307.11956,385.06694 C 288.01992,383.90904 261.39507,366.54625 248.95165,378.41073 C 236.50822,390.27521 227.82625,388.82954 227.82625,388.82954 C 227.82625,388.82954 237.95502,377.25397 237.95502,372.62351 C 237.95502,372.62351 227.2473,389.11845 207.85875,388.5395 C 207.85875,388.5395 216.54072,379.56863 216.54072,374.35922 C 216.54072,374.35922 205.54409,387.96169 191.94277,389.98631 C 191.94277,389.98631 196.28318,383.04119 196.86213,377.25283 C 196.86213,377.25283 185.28656,391.72315 167.05477,392.87991 C 167.05477,392.87991 173.99989,385.64589 175.73674,380.72539 C 175.73674,380.72539 165.31906,393.74663 148.24517,394.03668 C 148.24517,394.03668 156.63709,387.66823 157.79499,383.90791 C 157.79499,383.90791 141.01001,390.85189 131.46019,388.24832 C 131.46019,388.24832 138.1164,396.64138 135.5117,401.56074 C 132.907,406.48011 125.38293,409.37371 125.38293,409.37371 C 125.38293,409.37371 118.14891,405.03444 111.20265,406.1912 C 111.20265,406.1912 104.2564,402.13855 110.04475,396.92915 C 115.83311,391.71974 123.64608,385.93366 112.64946,381.3032 C 101.65283,376.67275 102.52069,382.45996 102.81073,387.09042 C 103.10077,391.72088 99.338173,403.29645 86.025751,401.56074 C 86.025751,401.56074 81.685337,394.32672 73.871227,396.06243 C 73.871227,396.06243 68.084009,386.80152 76.47593,382.4611 C 84.867852,378.12069 90.077259,374.35809 86.314657,371.46448 C 86.314657,371.46448 83.999997,369.72877 76.185887,373.78027 C 68.371777,377.83178 61.42666,375.22708 61.137754,370.88666 C 61.137754,370.88666 65.768211,362.49361 62.00561,355.54849 C 62.00561,355.54849 62.874602,347.44547 69.24077,350.62913 C 75.606938,353.81278 81.684199,350.62913 81.684199,350.62913 C 81.684199,350.62913 75.316894,345.70976 71.265386,345.13081 C 67.213879,344.55186 61.136617,338.4746 65.188125,333.55524 C 65.188125,333.55524 71.55543,329.50373 71.55543,320.24282 C 71.55543,320.24282 82.263149,315.32345 86.892469,327.18793 C 91.521788,339.05241 96.442289,344.55186 103.38741,345.70862 C 110.33252,346.86539 170.89472,345.3401 195.70309,335.8699 C 207.00341,331.55678 213.09091,327.34149 213.09091,320.78651 C 213.09091,314.23153 216.36783,301.58791 228.54283,292.68983 C 228.54283,292.68983 217.30507,295.49927 211.68505,309.07899 C 211.68505,309.07899 204.66145,289.88039 226.66949,277.23678 C 226.66949,277.23678 221.98671,277.70426 215.89921,281.45094 C 215.89921,281.45094 213.80635,269.90152 227.13697,260.379 C 233.69309,255.69622 244.46223,254.2915 244.46223,254.2915 C 244.46223,254.2915 235.09667,252.88678 227.60445,257.10094 C 227.60445,257.10094 232.75585,237.90235 258.51056,236.96511 C 258.51056,236.96511 246.80305,233.68705 238.37473,239.30593 C 238.37473,239.30593 245.86695,221.98067 272.09028,221.98067 C 272.09028,221.98067 270.21694,219.17009 259.91528,220.57595 C 259.91528,220.57595 268.87819,210.89646 283.04027,210.35846 C 283.04027,210.35846 284.26528,198.56791 302.06029,196.69458 C 304.63201,196.42387 307.30155,196.14292 310.02682,195.80283 C 295.50418,198.0993 286.13862,190.13846 276.7742,191.54318 C 267.40978,192.9479 250.08338,195.75847 253.82892,202.31346 C 253.82892,202.31346 235.35145,196.04624 240.24921,178.9007 C 241.18531,175.62264 243.52727,177.02736 243.52727,177.02736 C 243.52727,177.02736 241.18531,180.30542 247.74142,180.7729 C 254.29754,181.24038 298.31362,187.32902 312.83057,170.00262 C 327.34753,152.67623 311.42699,134.41373 297.37865,134.41373 C 283.33032,134.41373 241.36047,132.25717 236.4104,138.5096 C 234.54729,140.86293 218.24003,134.97903 218.24003,125.98428 C 218.24003,120.49393 222.09135,116.79274 223.22764,115.89987 C 218.83377,112.60475 223.22764,102.71825 234.21175,103.817 C 245.19587,104.91575 262.40397,108.57712 271.55797,105.64712 C 280.71196,102.71711 288.40209,81.847636 316.96056,81.847636 C 319.32413,81.851048 321.52163,81.932943 323.56673,82.081945 z"
         id="path3016"
         style="fill:#787850;fill-opacity:1;stroke:#000000;stroke-width:3.3692627;stroke-linecap:round;stroke-linejoin:round;stroke-miterlimit:4;stroke-dasharray:none;stroke-opacity:1" />
      <path
         d="M 323.56673,82.081945 C 331.82102,82.682506 337.57866,84.378406 341.50164,86.234684"
         id="path3018"
         style="fill:#787850;fill-opacity:1;stroke:#000000;stroke-width:3.3692627;stroke-linecap:round;stroke-linejoin:round;stroke-miterlimit:4;stroke-dasharray:none;stroke-opacity:1" />
      <path
         d="M 234.58028,111.87566 C 234.58028,111.87566 227.62379,119.1984 223.22992,115.90328"
         id="path3741"
         style="fill:#787850;fill-opacity:1;stroke:#000000;stroke-width:3.3692627;stroke-linecap:round;stroke-linejoin:round;stroke-miterlimit:4;stroke-dasharray:none;stroke-opacity:1" />
      <path
         d="M 364.5618,86.611172 C 364.5618,86.611172 364.5618,99.060288 357.60531,107.48178"
         id="path3743"
         style="fill:#787850;fill-opacity:1;stroke:#000000;stroke-width:3.3692627;stroke-linecap:round;stroke-linejoin:round;stroke-miterlimit:4;stroke-dasharray:none;stroke-opacity:1" />
      <path
         d="M 338.56595,96.131419 C 338.56595,96.131419 340.61445,92.530331 344.45667,87.860064"
         id="path3745"
         style="fill:#787850;fill-opacity:1;stroke:#000000;stroke-width:3.3692627;stroke-linecap:round;stroke-linejoin:round;stroke-miterlimit:4;stroke-dasharray:none;stroke-opacity:1" />
      <path
         d="M 400.30083,123.75037 C 400.30083,123.75037 406.01753,125.71926 412.09479,130.16431"
         id="path3026"
         style="fill:#787850;fill-opacity:1;stroke:#000000;stroke-width:3.3692627;stroke-linecap:round;stroke-linejoin:round;stroke-miterlimit:4;stroke-dasharray:none;stroke-opacity:1" />
      <path
         d="M 408.03077,222.53915 C 405.8799,220.09482 403.40486,217.65049 401.16868,216.3561"
         id="path3028"
         style="fill:#787850;fill-opacity:1;stroke:#000000;stroke-width:3.3692627;stroke-linecap:round;stroke-linejoin:round;stroke-miterlimit:4;stroke-dasharray:none;stroke-opacity:1" />
      <path
         d="M 548.02276,239.37759 C 546.80913,241.09396 545.33503,242.791 543.55041,244.42548 C 529.65904,257.15895 513.1641,270.47024 513.1641,270.47024"
         id="path3030"
         style="fill:#787850;fill-opacity:1;stroke:#000000;stroke-width:3.3692627;stroke-linecap:round;stroke-linejoin:round;stroke-miterlimit:4;stroke-dasharray:none;stroke-opacity:1" />
      <path
         d="M 547.31187,259.03456 C 546.38828,260.61217 545.161,262.13177 543.55041,263.52512 C 532.84269,272.78603 514.6109,285.80841 514.6109,285.80841"
         id="path3032"
         style="fill:#787850;fill-opacity:1;stroke:#000000;stroke-width:3.3692627;stroke-linecap:round;stroke-linejoin:round;stroke-miterlimit:4;stroke-dasharray:none;stroke-opacity:1" />
      <path
         d="M 544.35115,280.25892 C 543.02833,281.96505 541.34267,283.64048 539.20999,285.22946 C 524.44963,296.22609 510.56053,308.38061 510.56053,308.38061"
         id="path3034"
         style="fill:#787850;fill-opacity:1;stroke:#000000;stroke-width:3.3692627;stroke-linecap:round;stroke-linejoin:round;stroke-miterlimit:4;stroke-dasharray:none;stroke-opacity:1" />
      <path
         d="M 436.02166,425.75377 C 433.13374,422.6304 430.87936,420.78436 428.08357,420.08598"
         id="path3036"
         style="fill:#787850;fill-opacity:1;stroke:#000000;stroke-width:3.3692627;stroke-linecap:round;stroke-linejoin:round;stroke-miterlimit:4;stroke-dasharray:none;stroke-opacity:1" />
      <path
         d="M 322.10058,628.94451 C 324.61202,626.96767 328.15851,625.44124 333.16432,624.97262"
         id="path3038"
         style="fill:#787850;fill-opacity:1;stroke:#000000;stroke-width:3.3692627;stroke-linecap:round;stroke-linejoin:round;stroke-miterlimit:4;stroke-dasharray:none;stroke-opacity:1" />
      <path
         d="M 283.04255,210.3596 C 285.06489,210.28339 287.19415,210.39258 289.41895,210.74405"
         id="path3040"
         style="fill:#787850;fill-opacity:1;stroke:#000000;stroke-width:3.3692627;stroke-linecap:round;stroke-linejoin:round;stroke-miterlimit:4;stroke-dasharray:none;stroke-opacity:1" />
      <path
         d="M 310.02909,195.80511 C 326.15892,193.79414 344.22805,189.70737 355.44534,173.28296"
         id="path3042"
         style="fill:#787850;fill-opacity:1;stroke:#000000;stroke-width:3.3692627;stroke-linecap:round;stroke-linejoin:round;stroke-miterlimit:4;stroke-dasharray:none;stroke-opacity:1" />
      <path
         d="M 370.54465,102.1575 C 368.9079,106.28407 366.51476,110.4516 363.09679,114.43827"
         id="path3044"
         style="fill:#787850;fill-opacity:1;stroke:#000000;stroke-width:3.3692627;stroke-linecap:round;stroke-linejoin:round;stroke-miterlimit:4;stroke-dasharray:none;stroke-opacity:1" />
      <path
         d="M 408.69275,145.45472 C 408.69275,145.45472 420.1216,147.76938 426.20454,156.59238"
         id="path3046"
         style="fill:#787850;fill-opacity:1;stroke:#000000;stroke-width:3.3692627;stroke-linecap:round;stroke-linejoin:round;stroke-miterlimit:4;stroke-dasharray:none;stroke-opacity:1" />
      <path
         d="M 87.761461,111.53102 C 92.815041,116.5846 96.94958,119.80123 98.32814,125.31433"
         id="path3048"
         style="fill:#787850;fill-opacity:1;stroke:#000000;stroke-width:3.3692627;stroke-linecap:round;stroke-linejoin:round;stroke-miterlimit:4;stroke-dasharray:none;stroke-opacity:1" />
      <path
         d="M 158.20333,570.02248 C 160.01183,568.66326 161.86584,566.73988 163.70392,564.07489"
         id="path3050"
         style="fill:#787850;fill-opacity:1;stroke:#000000;stroke-width:3.3692627;stroke-linecap:round;stroke-linejoin:round;stroke-miterlimit:4;stroke-dasharray:none;stroke-opacity:1" />
      <path
         d="M 316.88663,107.56936 C 318.50518,108.6158 320.27274,109.44043 322.25527,109.72365"
         id="path3058"
         style="fill:#787850;fill-opacity:1;stroke:#000000;stroke-width:3.3692627;stroke-linecap:round;stroke-linejoin:round;stroke-miterlimit:4;stroke-dasharray:none;stroke-opacity:1" />
      <path
         d="M 302.67564,93.372026 C 302.67564,93.372026 300.95358,95.524034 297.94168,96.383927 C 295.02418,97.21766 290.59619,96.72743 293.20771,98.535935 C 294.18249,99.211566 295.11176,99.650612 296.01033,99.930418"
         id="path3060"
         style="fill:#787850;fill-opacity:1;stroke:#000000;stroke-width:3.3692627;stroke-linecap:round;stroke-linejoin:round;stroke-miterlimit:4;stroke-dasharray:none;stroke-opacity:1" />
      <path
         d="M 296.0126,99.930418 C 300.26771,101.25438 303.82899,98.985218 308.2695,101.11789 C 310.90377,102.38271 313.58696,105.43669 316.88663,107.56936 C 316.88663,107.56936 311.92859,114.45647 303.3217,114.88756 C 294.7148,115.3175 294.73528,103.75899 296.0126,99.930418 z"
         id="path3062"
         style="fill:#787850;fill-opacity:1;stroke:#000000;stroke-width:3.3692627;stroke-linecap:round;stroke-linejoin:round;stroke-miterlimit:4;stroke-dasharray:none;stroke-opacity:1" />
      <path
         d="M 302.19337,100.21364 C 300.17444,100.34672 298.18395,100.60605 296.01147,99.930418 C 294.84561,103.42459 294.73186,113.35203 301.26182,114.734 C 303.16246,113.36455 304.4796,110.44478 304.4796,107.0507 C 304.4796,104.24581 303.57876,101.76509 302.19337,100.21364 z M 302.41517,108.38149 C 301.84646,108.54869 301.05253,107.40216 300.6442,105.82114 C 300.23359,104.24012 300.36326,102.82403 300.93197,102.6591 C 301.50182,102.49304 302.29347,103.63956 302.70408,105.22058 C 303.11355,106.79933 302.98502,108.21656 302.41517,108.38149 z"
         id="path3066"
         style="fill:#787850;fill-opacity:1;stroke:#000000;stroke-width:3.3692627;stroke-miterlimit:4;stroke-dasharray:none;stroke-opacity:1" />
    </g>
  </g>
  <g
     id="layer2"
     style="display:inline">
    <path
       d="M 300.00001,658.5 C 300.00001,658.5 598.50001,546.17969 598.50001,260.72817 C 598.50001,-24.723334 598.50001,2.1764865 598.50001,2.1764865 L 1.5,2.1764865 L 1.5,260.72817 C 1.5,546.17969 300.00001,658.5 300.00001,658.5 z"
       id="path2875"
       style="opacity:1;fill:url(#radialGradient3163);fill-opacity:1;fill-rule:evenodd;stroke:none;stroke-width:1px;stroke-linecap:butt;stroke-linejoin:miter;stroke-opacity:1" />
  </g>
  <g
     id="layer1"
     style="display:inline">
    <path
       d="M 299.99999,658.50028 C 299.99999,658.50028 1.5,546.17992 1.5,260.72828 C 1.5,-24.723336 1.5,2.1764957 1.5,2.1764957 L 598.49999,2.1764957 L 598.49999,260.72828 C 598.49999,546.17992 299.99999,658.50028 299.99999,658.50028 z"
       id="path1411"
       style="opacity:1;fill:none;fill-opacity:1;fill-rule:evenodd;stroke:#000000;stroke-width:3.00000048;stroke-linecap:butt;stroke-linejoin:miter;stroke-miterlimit:4;stroke-dasharray:none;stroke-opacity:1" />
  </g>
</svg>
