<?xml version="1.0" encoding="UTF-8" standalone="no"?>
<!-- Created with Inkscape (http://www.inkscape.org/) -->
<svg
   xmlns:dc="http://purl.org/dc/elements/1.1/"
   xmlns:cc="http://creativecommons.org/ns#"
   xmlns:rdf="http://www.w3.org/1999/02/22-rdf-syntax-ns#"
   xmlns:svg="http://www.w3.org/2000/svg"
   xmlns="http://www.w3.org/2000/svg"
   xmlns:sodipodi="http://sodipodi.sourceforge.net/DTD/sodipodi-0.dtd"
   xmlns:inkscape="http://www.inkscape.org/namespaces/inkscape"
   width="380"
   height="420"
   id="svg2"
   sodipodi:version="0.32"
   inkscape:version="0.46"
   sodipodi:docname="Lion_Salient.svg"
   inkscape:output_extension="org.inkscape.output.svg.inkscape"
   version="1.0">
  <defs
     id="defs4">
    <inkscape:perspective
       sodipodi:type="inkscape:persp3d"
       inkscape:vp_x="0 : 526.18109 : 1"
       inkscape:vp_y="0 : 1000 : 0"
       inkscape:vp_z="744.09448 : 526.18109 : 1"
       inkscape:persp3d-origin="372.04724 : 350.78739 : 1"
       id="perspective10" />
    <inkscape:perspective
       id="perspective2498"
       inkscape:persp3d-origin="372.04724 : 350.78739 : 1"
       inkscape:vp_z="744.09448 : 526.18109 : 1"
       inkscape:vp_y="0 : 1000 : 0"
       inkscape:vp_x="0 : 526.18109 : 1"
       sodipodi:type="inkscape:persp3d" />
    <inkscape:perspective
       id="perspective2831"
       inkscape:persp3d-origin="372.04724 : 350.78739 : 1"
       inkscape:vp_z="744.09448 : 526.18109 : 1"
       inkscape:vp_y="0 : 1000 : 0"
       inkscape:vp_x="0 : 526.18109 : 1"
       sodipodi:type="inkscape:persp3d" />
  </defs>
  <sodipodi:namedview
     id="base"
     pagecolor="#ffffff"
     bordercolor="#666666"
     borderopacity="1.0"
     gridtolerance="10000"
     guidetolerance="10"
     objecttolerance="10"
     inkscape:pageopacity="0.0"
     inkscape:pageshadow="2"
     inkscape:zoom="1.1857143"
     inkscape:cx="190"
     inkscape:cy="194.397"
     inkscape:document-units="px"
     inkscape:current-layer="layer3"
     showgrid="false"
     inkscape:window-width="1280"
     inkscape:window-height="713"
     inkscape:window-x="0"
     inkscape:window-y="0"
     showguides="true"
     inkscape:guide-bbox="true" />
  <metadata
     id="metadata7">
    <rdf:RDF>
      <cc:Work
         rdf:about="">
        <dc:format>image/svg+xml</dc:format>
        <dc:type
           rdf:resource="http://purl.org/dc/dcmitype/StillImage" />
      </cc:Work>
    </rdf:RDF>
  </metadata>
  <g
     inkscape:groupmode="layer"
     id="layer3"
     inkscape:label="Main"
     style="opacity:1">
    <g
       id="g2626"
       transform="matrix(0.5956876,-0.8032161,0.8032161,0.5956876,-350.64733,517.46099)">
      <path
         sodipodi:nodetypes="cssscsccc"
         id="path2541"
         d="M 594.41671,75.267107 C 594.41671,75.267107 604.32544,67.975919 609.20647,68.364002 C 610.69229,68.482141 611.35277,70.490388 613.31996,71.150371 C 615.43526,71.86005 619.94649,73.715091 621.69537,72.329618 C 623.48471,70.91209 624.14629,65.125846 624.14629,65.125846 C 624.14629,65.125846 622.15566,56.67849 619.61037,54.208727 C 616.83752,51.518161 607.57382,49.627664 607.57382,49.627664 L 599.46699,56.466072 L 594.41671,75.267107 z"
         style="opacity:1;fill:#f8de00;fill-opacity:1;fill-rule:evenodd;stroke:#000000;stroke-width:3;stroke-linecap:butt;stroke-linejoin:miter;stroke-miterlimit:4;stroke-dasharray:none;stroke-opacity:1" />
      <path
         sodipodi:nodetypes="cscsscssscscssscsssscssscsccsccccsccscccccccsscsscssssccs"
         id="path2545"
         d="M 565.5045,212.19192 C 558.54981,206.74049 551.994,196.04105 549.20863,187.65489 C 547.80358,183.42458 548.39029,172.81896 548.39029,172.81896 C 548.39029,172.81896 540.20648,171.40863 537.32722,173.061 C 535.21329,174.27415 533.81696,177.66235 533.07602,179.9843 C 532.27376,182.49846 532.48626,188.76138 532.48626,188.76138 C 532.48626,188.76138 527.59435,182.28022 527.12858,178.96233 C 526.63718,175.46177 528.25027,170.68362 529.71619,167.46702 C 531.05921,164.52012 533.1764,162.34339 536.13108,161.01757 C 538.28465,160.05123 543.57552,158.7847 543.57552,158.7847 C 543.57552,158.7847 544.14379,149.84367 544.87193,145.78323 C 545.51007,142.22464 548.28659,134.22594 548.28659,134.22594 C 548.28659,134.22594 545.5016,133.01842 544.22559,132.91581 C 543.08428,132.82403 541.46721,132.96125 540.45273,133.49211 C 539.00686,134.24871 536.85917,135.81644 536.71253,137.4417 C 536.55712,139.16406 539.86297,142.26919 539.86297,142.26919 C 539.86297,142.26919 536.66583,143.09917 535.54647,142.44591 C 533.20109,141.07715 531.33758,137.10353 531.42015,134.38921 C 531.54386,130.32277 535.16454,125.2799 538.32426,122.71719 C 540.24315,121.16086 543.66613,120.31427 546.12547,120.07773 C 548.64997,119.83492 554.50298,121.21113 554.50298,121.21113 C 554.50298,121.21113 553.89616,115.3163 554.69317,112.97769 C 555.28081,111.25342 557.64142,109.78745 558.2893,108.08489 C 559.12879,105.87878 557.71194,102.21381 559.02313,100.25103 C 562.89514,94.454819 579.56446,89.391601 579.56446,89.391601 C 579.56446,89.391601 567.20029,95.480762 561.93154,94.015447 C 559.55919,93.355668 556.20694,88.133319 556.20694,88.133319 L 559.99326,75.007087 C 559.99326,75.007087 563.09659,71.722507 564.82075,71.856643 C 568.87681,72.1722 574.8945,80.935321 574.8945,80.935321 L 569.4254,73.566341 L 575.41895,65.41167 L 583.39688,67.088721 C 583.39688,67.088721 573.89116,65.632959 571.61344,62.614682 C 570.31737,60.897226 571.00448,55.46854 571.00448,55.46854 L 578.62897,48.512579 C 578.62897,48.512579 583.12808,46.080025 584.68782,47.104489 C 588.87646,49.855668 587.68074,63.538698 587.68074,63.538698 L 586.89505,52.076059 L 591.46705,50.412466 L 593.05187,60.787824 L 591.86662,49.868821 L 596.80553,44.288302 L 598.98011,45.886581 C 598.98011,45.886581 595.66163,41.837686 595.81878,39.934662 C 596.00277,37.70659 597.23962,35.234603 599.31885,34.413055 C 602.53559,33.14206 610.49975,37.048684 610.49975,37.048684 C 610.49975,37.048684 617.19249,41.571647 617.5889,44.491949 C 617.92566,46.972828 616.95778,49.320822 615.22414,51.127103 C 613.78114,52.630564 608.68054,53.574463 608.68054,53.574463 C 608.68054,53.574463 603.38774,64.847187 602.1824,70.010586 C 600.7777,76.028016 600.20221,84.366047 600.4919,90.538463 C 600.76708,96.401807 603.66348,103.938 603.91703,109.80232 C 604.3054,118.78452 602.68342,130.7774 601.23721,139.65091 C 599.39886,150.93045 598.32337,173.33746 598.32337,173.33746 L 651.49974,202.2697 C 651.49974,202.2697 603.34729,241.85498 565.5045,212.19192 z"
         style="opacity:1;fill:#f8de00;fill-opacity:1;fill-rule:evenodd;stroke:#000000;stroke-width:3;stroke-linecap:butt;stroke-linejoin:miter;stroke-miterlimit:4;stroke-dasharray:none;stroke-opacity:1" />
      <path
         sodipodi:nodetypes="csss"
         id="path2559"
         d="M 542.90871,159.42684 C 542.90871,159.42684 548.35161,158.70316 550.47223,158.27152 C 552.19829,157.92019 554.55053,157.54329 556.30943,157.6379 C 557.37359,157.69513 559.7795,158.39784 559.7795,158.39784"
         style="opacity:1;fill:none;fill-rule:evenodd;stroke:#000000;stroke-width:2.5;stroke-linecap:butt;stroke-linejoin:miter;stroke-miterlimit:4;stroke-dasharray:none;stroke-opacity:1" />
      <path
         sodipodi:nodetypes="cssss"
         id="path2561"
         d="M 548.07431,134.12785 C 548.07431,134.12785 551.40459,135.05664 552.7069,135.74223 C 554.62185,136.75033 556.43404,139.43608 558.51945,140.01436 C 561.03061,140.71069 564.64701,139.86738 567.16845,139.20923 C 568.85664,138.76857 572.48396,136.84929 572.48396,136.84929"
         style="opacity:1;fill:none;fill-rule:evenodd;stroke:#000000;stroke-width:2.5;stroke-linecap:butt;stroke-linejoin:miter;stroke-miterlimit:4;stroke-dasharray:none;stroke-opacity:1" />
      <path
         sodipodi:nodetypes="cs"
         id="path2563"
         d="M 553.78932,120.87092 C 553.78932,120.87092 558.03555,124.03785 560.95226,123.87005"
         style="opacity:1;fill:none;fill-rule:evenodd;stroke:#000000;stroke-width:2.5;stroke-linecap:butt;stroke-linejoin:miter;stroke-miterlimit:4;stroke-dasharray:none;stroke-opacity:1" />
      <path
         sodipodi:nodetypes="csssssscssss"
         id="path2567"
         d="M 616.53296,58.383376 C 615.73167,59.702681 615.20462,61.918938 615.5249,63.428923 C 615.76965,64.582797 616.7086,66.178305 617.79411,66.639812 C 619.25048,67.258985 620.74497,67.693367 622.10765,66.888702 C 625.80216,64.707078 629.31109,61.016842 630.59065,56.921522 C 631.55922,53.821551 631.4991,49.016078 630.0508,46.109127 C 629.38415,44.771072 628.72076,43.554275 627.34704,42.964619 C 625.96532,42.371533 622.23511,41.522019 622.23511,41.522019 C 622.23511,41.522019 624.17739,44.419109 624.45299,45.852461 C 624.761,47.454346 624.49124,49.728827 623.94587,51.26618 C 623.25926,53.201646 621.68298,53.848187 620.29609,55.362784 C 619.31846,56.430443 617.28444,57.146065 616.53296,58.383376 z"
         style="opacity:1;fill:#ffffff;fill-rule:evenodd;stroke:#000000;stroke-width:2.5;stroke-linecap:butt;stroke-linejoin:miter;stroke-miterlimit:4;stroke-dasharray:none;stroke-opacity:1" />
      <path
         sodipodi:nodetypes="cssssssssssc"
         id="path2569"
         d="M 595.83385,24.432099 C 595.83385,24.432099 599.64877,20.643887 602.57246,20.512306 C 605.51834,20.379724 609.60343,21.714829 611.92721,23.530265 C 613.51011,24.766893 615.03548,27.253193 615.46378,29.215689 C 616.28262,32.967689 616.06284,37.300092 614.33181,40.728146 C 613.6062,42.165101 612.60498,43.893173 611.13597,44.551463 C 609.44684,45.308388 607.4132,44.868811 605.90634,43.793872 C 604.8274,43.024184 604.45796,40.463318 604.3071,39.146585 C 603.91839,35.753966 607.15928,32.108761 606.07274,28.871412 C 605.73443,27.863443 604.70443,26.753865 603.8699,26.095076 C 603.12347,25.505842 601.85894,25.15712 600.9971,24.755137 C 599.70434,24.152164 595.83385,24.432099 595.83385,24.432099 z"
         style="opacity:1;fill:#ffffff;fill-opacity:1;fill-rule:evenodd;stroke:#000000;stroke-width:2.5;stroke-linecap:butt;stroke-linejoin:miter;stroke-miterlimit:4;stroke-dasharray:none;stroke-opacity:1" />
      <path
         sodipodi:nodetypes="cssssssscsss"
         id="path2571"
         d="M 574.06035,55.106279 C 574.93712,55.529488 576.17741,56.449814 577.11724,56.195751 C 578.47053,55.829912 579.79424,53.984208 580.129,52.622893 C 580.60241,50.697704 580.84945,49.002898 579.76702,47.341932 C 579.15606,46.404424 574.77731,44.361907 573.70458,44.043426 C 571.03768,43.251663 568.95018,43.298169 566.43496,44.486813 C 564.14457,45.569202 561.5335,48.300252 560.71324,50.697055 C 560.07132,52.57279 560.66277,55.39581 561.27435,57.281663 C 561.64831,58.434806 563.35947,60.743008 563.35947,60.743008 C 563.35947,60.743008 564.93879,55.662847 566.5916,54.246018 C 567.55457,53.420541 569.36171,52.806196 570.62025,52.963617 C 571.82669,53.114525 572.96539,54.577748 574.06035,55.106279 z"
         style="opacity:1;fill:#ffffff;fill-opacity:1;fill-rule:evenodd;stroke:#000000;stroke-width:2.5;stroke-linecap:butt;stroke-linejoin:miter;stroke-miterlimit:4;stroke-dasharray:none;stroke-opacity:1" />
      <path
         sodipodi:nodetypes="csssssscsss"
         id="path2573"
         d="M 561.33717,76.615996 C 562.90033,76.615788 564.20112,79.266508 564.42414,80.813686 C 564.6599,82.449191 563.78606,84.898745 562.54699,85.991985 C 561.15903,87.2166 558.37494,87.501205 556.52968,87.35581 C 553.9367,87.151501 550.30626,85.989362 548.47859,84.138721 C 546.53368,82.169381 545.14356,78.29694 545.16239,75.529165 C 545.1827,72.543746 546.96238,68.592527 548.86536,66.292128 C 549.69324,65.291345 552.51079,63.956538 552.51079,63.956538 C 552.51079,63.956538 550.92021,68.122308 551.20094,69.93756 C 551.59021,72.454598 553.54906,75.585843 555.43757,77.294804 C 556.42755,78.190661 560.40466,76.616122 561.33717,76.615996 z"
         style="opacity:1;fill:#ffffff;fill-opacity:1;fill-rule:evenodd;stroke:#000000;stroke-width:2.5;stroke-linecap:butt;stroke-linejoin:miter;stroke-miterlimit:4;stroke-dasharray:none;stroke-opacity:1" />
    </g>
    <g
       style="opacity:1"
       id="g2532"
       transform="matrix(0.5956876,-0.8032161,0.8032161,0.5956876,-370.20668,547.24461)">
      <path
         sodipodi:nodetypes="cssscsccc"
         id="path2534"
         d="M 594.41671,75.267107 C 594.41671,75.267107 604.32544,67.975919 609.20647,68.364002 C 610.69229,68.482141 611.35277,70.490388 613.31996,71.150371 C 615.43526,71.86005 619.94649,73.715091 621.69537,72.329618 C 623.48471,70.91209 624.14629,65.125846 624.14629,65.125846 C 624.14629,65.125846 622.15566,56.67849 619.61037,54.208727 C 616.83752,51.518161 607.57382,49.627664 607.57382,49.627664 L 599.46699,56.466072 L 594.41671,75.267107 z"
         style="opacity:1;fill:#f8de00;fill-opacity:1;fill-rule:evenodd;stroke:#000000;stroke-width:3;stroke-linecap:butt;stroke-linejoin:miter;stroke-miterlimit:4;stroke-dasharray:none;stroke-opacity:1" />
      <path
         sodipodi:nodetypes="cscsscssscscssscsssscssscsccsccccsccscccccccsscsscssssccs"
         id="path2536"
         d="M 565.5045,212.19192 C 558.54981,206.74049 551.994,196.04105 549.20863,187.65489 C 547.80358,183.42458 548.39029,172.81896 548.39029,172.81896 C 548.39029,172.81896 540.20648,171.40863 537.32722,173.061 C 535.21329,174.27415 533.81696,177.66235 533.07602,179.9843 C 532.27376,182.49846 532.48626,188.76138 532.48626,188.76138 C 532.48626,188.76138 527.59435,182.28022 527.12858,178.96233 C 526.63718,175.46177 528.25027,170.68362 529.71619,167.46702 C 531.05921,164.52012 533.1764,162.34339 536.13108,161.01757 C 538.28465,160.05123 543.57552,158.7847 543.57552,158.7847 C 543.57552,158.7847 544.14379,149.84367 544.87193,145.78323 C 545.51007,142.22464 548.28659,134.22594 548.28659,134.22594 C 548.28659,134.22594 545.5016,133.01842 544.22559,132.91581 C 543.08428,132.82403 541.46721,132.96125 540.45273,133.49211 C 539.00686,134.24871 536.85917,135.81644 536.71253,137.4417 C 536.55712,139.16406 539.86297,142.26919 539.86297,142.26919 C 539.86297,142.26919 536.66583,143.09917 535.54647,142.44591 C 533.20109,141.07715 531.33758,137.10353 531.42015,134.38921 C 531.54386,130.32277 535.16454,125.2799 538.32426,122.71719 C 540.24315,121.16086 543.66613,120.31427 546.12547,120.07773 C 548.64997,119.83492 554.50298,121.21113 554.50298,121.21113 C 554.50298,121.21113 553.89616,115.3163 554.69317,112.97769 C 555.28081,111.25342 557.64142,109.78745 558.2893,108.08489 C 559.12879,105.87878 557.71194,102.21381 559.02313,100.25103 C 562.89514,94.454819 579.56446,89.391601 579.56446,89.391601 C 579.56446,89.391601 567.20029,95.480762 561.93154,94.015447 C 559.55919,93.355668 556.20694,88.133319 556.20694,88.133319 L 559.99326,75.007087 C 559.99326,75.007087 563.09659,71.722507 564.82075,71.856643 C 568.87681,72.1722 574.8945,80.935321 574.8945,80.935321 L 569.4254,73.566341 L 575.41895,65.41167 L 583.39688,67.088721 C 583.39688,67.088721 573.89116,65.632959 571.61344,62.614682 C 570.31737,60.897226 571.00448,55.46854 571.00448,55.46854 L 578.62897,48.512579 C 578.62897,48.512579 583.12808,46.080025 584.68782,47.104489 C 588.87646,49.855668 587.68074,63.538698 587.68074,63.538698 L 586.89505,52.076059 L 591.46705,50.412466 L 593.05187,60.787824 L 591.86662,49.868821 L 596.80553,44.288302 L 598.98011,45.886581 C 598.98011,45.886581 595.66163,41.837686 595.81878,39.934662 C 596.00277,37.70659 597.23962,35.234603 599.31885,34.413055 C 602.53559,33.14206 610.49975,37.048684 610.49975,37.048684 C 610.49975,37.048684 617.19249,41.571647 617.5889,44.491949 C 617.92566,46.972828 616.95778,49.320822 615.22414,51.127103 C 613.78114,52.630564 608.68054,53.574463 608.68054,53.574463 C 608.68054,53.574463 603.38774,64.847187 602.1824,70.010586 C 600.7777,76.028016 600.20221,84.366047 600.4919,90.538463 C 600.76708,96.401807 603.66348,103.938 603.91703,109.80232 C 604.3054,118.78452 602.68342,130.7774 601.23721,139.65091 C 599.39886,150.93045 598.32337,173.33746 598.32337,173.33746 L 639.4651,252.28806 C 639.4651,252.28806 603.34729,241.85498 565.5045,212.19192 z"
         style="opacity:1;fill:#f8de00;fill-opacity:1;fill-rule:evenodd;stroke:#000000;stroke-width:3;stroke-linecap:butt;stroke-linejoin:miter;stroke-miterlimit:4;stroke-dasharray:none;stroke-opacity:1" />
      <path
         sodipodi:nodetypes="csss"
         id="path2538"
         d="M 542.90871,159.42684 C 542.90871,159.42684 548.35161,158.70316 550.47223,158.27152 C 552.19829,157.92019 554.55053,157.54329 556.30943,157.6379 C 557.37359,157.69513 559.7795,158.39784 559.7795,158.39784"
         style="opacity:1;fill:none;fill-rule:evenodd;stroke:#000000;stroke-width:2.5;stroke-linecap:butt;stroke-linejoin:miter;stroke-miterlimit:4;stroke-dasharray:none;stroke-opacity:1" />
      <path
         sodipodi:nodetypes="cssss"
         id="path2540"
         d="M 548.07431,134.12785 C 548.07431,134.12785 551.40459,135.05664 552.7069,135.74223 C 554.62185,136.75033 556.43404,139.43608 558.51945,140.01436 C 561.03061,140.71069 564.64701,139.86738 567.16845,139.20923 C 568.85664,138.76857 572.48396,136.84929 572.48396,136.84929"
         style="opacity:1;fill:none;fill-rule:evenodd;stroke:#000000;stroke-width:2.5;stroke-linecap:butt;stroke-linejoin:miter;stroke-miterlimit:4;stroke-dasharray:none;stroke-opacity:1" />
      <path
         sodipodi:nodetypes="cs"
         id="path2542"
         d="M 553.78932,120.87092 C 553.78932,120.87092 558.03555,124.03785 560.95226,123.87005"
         style="opacity:1;fill:none;fill-rule:evenodd;stroke:#000000;stroke-width:2.5;stroke-linecap:butt;stroke-linejoin:miter;stroke-miterlimit:4;stroke-dasharray:none;stroke-opacity:1" />
      <path
         sodipodi:nodetypes="css"
         id="path2544"
         d="M 573.15532,98.993502 C 573.15532,98.993502 565.99009,113.50692 567.52555,120.55676 C 568.60912,125.53185 574.56803,131.89372 574.56803,131.89372"
         style="opacity:1;fill:none;fill-rule:evenodd;stroke:#000000;stroke-width:2.5;stroke-linecap:butt;stroke-linejoin:miter;stroke-miterlimit:4;stroke-dasharray:none;stroke-opacity:1" />
      <path
         sodipodi:nodetypes="csssssscssss"
         id="path2546"
         d="M 616.53296,58.383376 C 615.73167,59.702681 615.20462,61.918938 615.5249,63.428923 C 615.76965,64.582797 616.7086,66.178305 617.79411,66.639812 C 619.25048,67.258985 620.74497,67.693367 622.10765,66.888702 C 625.80216,64.707078 629.31109,61.016842 630.59065,56.921522 C 631.55922,53.821551 631.4991,49.016078 630.0508,46.109127 C 629.38415,44.771072 628.72076,43.554275 627.34704,42.964619 C 625.96532,42.371533 622.23511,41.522019 622.23511,41.522019 C 622.23511,41.522019 624.17739,44.419109 624.45299,45.852461 C 624.761,47.454346 624.49124,49.728827 623.94587,51.26618 C 623.25926,53.201646 621.68298,53.848187 620.29609,55.362784 C 619.31846,56.430443 617.28444,57.146065 616.53296,58.383376 z"
         style="opacity:1;fill:#ffffff;fill-rule:evenodd;stroke:#000000;stroke-width:2.5;stroke-linecap:butt;stroke-linejoin:miter;stroke-miterlimit:4;stroke-dasharray:none;stroke-opacity:1" />
      <path
         sodipodi:nodetypes="cssssssssssc"
         id="path2548"
         d="M 595.83385,24.432099 C 595.83385,24.432099 599.64877,20.643887 602.57246,20.512306 C 605.51834,20.379724 609.60343,21.714829 611.92721,23.530265 C 613.51011,24.766893 615.03548,27.253193 615.46378,29.215689 C 616.28262,32.967689 616.06284,37.300092 614.33181,40.728146 C 613.6062,42.165101 612.60498,43.893173 611.13597,44.551463 C 609.44684,45.308388 607.4132,44.868811 605.90634,43.793872 C 604.8274,43.024184 604.45796,40.463318 604.3071,39.146585 C 603.91839,35.753966 607.15928,32.108761 606.07274,28.871412 C 605.73443,27.863443 604.70443,26.753865 603.8699,26.095076 C 603.12347,25.505842 601.85894,25.15712 600.9971,24.755137 C 599.70434,24.152164 595.83385,24.432099 595.83385,24.432099 z"
         style="opacity:1;fill:#ffffff;fill-opacity:1;fill-rule:evenodd;stroke:#000000;stroke-width:2.5;stroke-linecap:butt;stroke-linejoin:miter;stroke-miterlimit:4;stroke-dasharray:none;stroke-opacity:1" />
      <path
         sodipodi:nodetypes="cssssssscsss"
         id="path2550"
         d="M 574.06035,55.106279 C 574.93712,55.529488 576.17741,56.449814 577.11724,56.195751 C 578.47053,55.829912 579.79424,53.984208 580.129,52.622893 C 580.60241,50.697704 580.84945,49.002898 579.76702,47.341932 C 579.15606,46.404424 574.77731,44.361907 573.70458,44.043426 C 571.03768,43.251663 568.95018,43.298169 566.43496,44.486813 C 564.14457,45.569202 561.5335,48.300252 560.71324,50.697055 C 560.07132,52.57279 560.66277,55.39581 561.27435,57.281663 C 561.64831,58.434806 563.35947,60.743008 563.35947,60.743008 C 563.35947,60.743008 564.93879,55.662847 566.5916,54.246018 C 567.55457,53.420541 569.36171,52.806196 570.62025,52.963617 C 571.82669,53.114525 572.96539,54.577748 574.06035,55.106279 z"
         style="opacity:1;fill:#ffffff;fill-opacity:1;fill-rule:evenodd;stroke:#000000;stroke-width:2.5;stroke-linecap:butt;stroke-linejoin:miter;stroke-miterlimit:4;stroke-dasharray:none;stroke-opacity:1" />
      <path
         sodipodi:nodetypes="csssssscsss"
         id="path2552"
         d="M 561.33717,76.615996 C 562.90033,76.615788 564.20112,79.266508 564.42414,80.813686 C 564.6599,82.449191 563.78606,84.898745 562.54699,85.991985 C 561.15903,87.2166 558.37494,87.501205 556.52968,87.35581 C 553.9367,87.151501 550.30626,85.989362 548.47859,84.138721 C 546.53368,82.169381 545.14356,78.29694 545.16239,75.529165 C 545.1827,72.543746 546.96238,68.592527 548.86536,66.292128 C 549.69324,65.291345 552.51079,63.956538 552.51079,63.956538 C 552.51079,63.956538 550.92021,68.122308 551.20094,69.93756 C 551.59021,72.454598 553.54906,75.585843 555.43757,77.294804 C 556.42755,78.190661 560.40466,76.616122 561.33717,76.615996 z"
         style="opacity:1;fill:#ffffff;fill-opacity:1;fill-rule:evenodd;stroke:#000000;stroke-width:2.5;stroke-linecap:butt;stroke-linejoin:miter;stroke-miterlimit:4;stroke-dasharray:none;stroke-opacity:1" />
    </g>
    <g
       id="g2483">
      <g
         transform="matrix(0.9337156,-0.3580157,0.3580157,0.9337156,-443.10749,220.55969)"
         id="g2518">
        <path
           style="fill:#f8de00;fill-opacity:1;fill-rule:evenodd;stroke:#000000;stroke-width:3;stroke-linecap:butt;stroke-linejoin:miter;stroke-miterlimit:4;stroke-dasharray:none;stroke-opacity:1"
           d="M 521.36703,331.47895 C 521.36703,331.47895 508.74138,324.86209 508.06976,320.19428 C 507.86111,318.74409 509.42445,317.8859 509.73862,316.45485 C 510.11065,314.76024 510.06395,313.04812 508.78952,311.87085 C 506.76918,310.00455 502.56584,311.28487 500.02522,312.33846 C 496.63357,313.74497 491.6458,320.21409 491.6458,320.21409 L 491.80432,329.39893 L 506.26355,338.54161 L 521.36703,331.47895 z"
           id="path8117"
           sodipodi:nodetypes="csssscccc" />
        <path
           style="fill:#f8de00;fill-opacity:1;fill-rule:evenodd;stroke:#000000;stroke-width:3;stroke-linecap:butt;stroke-linejoin:miter;stroke-miterlimit:4;stroke-dasharray:none;stroke-opacity:1"
           d="M 654.94725,333.66641 C 654.94725,333.66641 616.78712,333.83775 600.81783,336.94384 C 597.00655,337.68515 591.57739,338.63257 588.54779,341.06094 C 585.89274,343.18909 583.65075,347.50792 582.68556,350.77086 C 581.61529,354.38908 580.12341,360.24741 582.28265,363.3417 C 584.25542,366.16877 593.18955,366.95907 593.18955,366.95907 C 593.18955,366.95907 585.49013,370.88743 581.98097,370.52079 C 579.39019,370.2501 576.2046,368.14254 574.42805,366.23749 C 573.09319,364.80607 571.61319,360.35182 571.61319,360.35182 C 571.61319,360.35182 568.93009,364.09848 567.0001,364.86488 C 564.43237,365.88453 558.45978,365.80955 558.45978,365.80955 C 558.45978,365.80955 560.62782,363.10814 561.41883,361.9629 C 562.76586,360.0126 563.90572,357.41532 564.07764,355.05131 C 564.18158,353.62207 562.08691,350.7092 562.08691,350.7092 C 562.08691,350.7092 561.81051,353.62936 561.38414,354.79899 C 560.47343,357.29733 558.7655,360.54549 556.91125,362.45149 C 555.86593,363.52599 553.42615,363.79747 552.66823,365.09083 C 551.65331,366.82274 550.85686,367.68166 551.63903,369.53037 C 552.23806,370.94623 553.07531,372.77577 554.58565,373.06272 C 555.57169,373.25006 557.80994,373.829 558.61321,373.22721 C 559.28156,372.72649 560.99179,371.7843 560.99179,371.7843 C 560.99179,371.7843 560.3998,374.83976 558.72544,376.86605 C 557.81565,377.96708 556.04347,378.36529 555.11779,378.7192 C 554.63792,378.90266 552.83434,379.95108 550.66778,379.10933 C 548.56118,378.29089 546.60708,376.49783 546.26603,376.13283 C 546.26603,376.13283 542.92082,373.35603 542.14265,371.71974 C 540.94993,369.21176 540.61082,365.31215 540.88434,362.5485 C 541.03683,361.00774 542.49305,359.21829 542.57453,357.67213 C 542.64206,356.39068 541.47299,354.78202 541.60625,353.50572 C 541.75366,352.09397 541.70174,352.16765 541.70174,352.16765 C 541.70174,352.16765 542.60361,353.11642 541.71586,355.31415 C 540.73226,357.74916 537.9035,364.02742 537.9035,364.02742 L 533.52341,359.537 L 532.16653,354.4653 C 532.16653,354.4653 531.67589,352.7642 532.12945,352.29833 C 532.61491,351.79968 533.8731,352.66642 534.44912,352.27587 C 535.8741,351.30971 535.15222,348.18581 535.15222,348.18581 C 535.15222,348.18581 535.6668,351.2945 534.21589,352.2679 C 533.68672,352.6229 532.49004,351.84879 532.09334,352.34746 C 530.65947,354.14994 532.29186,356.47732 533.53841,359.88774 C 534.44429,362.36618 536.13116,364.69238 535.60629,366.36954 C 535.13231,367.88407 531.46233,369.65749 531.46233,369.65749 L 519.19296,367.54917 C 519.19296,367.54917 515.15038,364.81563 514.50873,362.95476 C 513.47309,359.95131 513.9352,351.59309 513.9352,351.59309 L 513.09924,351.55459 L 508.97774,357.1622 C 508.97774,357.1622 510.39017,364.27557 508.31988,365.89131 C 506.84776,367.04021 502.18519,364.83716 502.18519,364.83716 L 490.0466,357.06707 C 490.0466,357.06707 488.78913,353.38274 489.25401,351.87821 C 489.95735,349.60191 494.67273,346.07246 494.67273,346.07246 L 489.08757,344.27062 C 489.08757,344.27062 483.23642,348.68548 480.40336,348.25208 C 479.02064,348.04055 477.71331,346.296 476.93972,345.13057 C 475.44516,342.87895 473.98072,336.62206 473.98072,336.62206 L 481.05728,319.94322 C 481.05728,319.94322 484.64324,318.87241 485.97137,319.52447 C 488.77905,320.90295 491.62389,328.2853 491.62389,328.2853 C 491.62389,328.2853 501.87021,331.96863 506.41107,331.66836 C 511.22612,331.34996 516.79402,327.19051 521.48228,326.04756 C 524.63915,325.27793 528.99409,324.48757 532.23383,324.73715 C 533.41952,324.82849 535.01085,325.23345 536.04886,325.81376 C 538.24914,327.04382 540.65236,329.53995 542.22845,331.50724 C 543.74828,333.40429 544.56651,336.80277 546.28654,338.52039 C 547.17839,339.41099 549.92587,340.61945 549.92587,340.61945 C 549.92587,340.61945 544.11137,334.18214 541.85462,331.23247 C 539.07262,327.59628 536.62393,321.73821 533.28799,318.60246 C 532.26878,317.64442 530.03625,317.40204 529.27482,316.22863 C 527.82734,313.99796 527.57895,309.99293 528.26162,307.42289 C 528.36882,307.01934 529.14897,306.71415 529.08592,306.30138 C 528.85474,304.78789 525.91218,304.48863 524.97368,303.27895 C 522.86649,300.56285 521.09513,296.0632 520.695,292.64891 C 520.34715,289.68078 520.40072,285.20143 522.17716,282.79828 C 523.58368,280.89554 526.95581,279.78018 529.28938,279.3888 C 532.60948,278.83196 540.43724,280.67282 540.43724,280.67282 C 540.43724,280.67282 535.01616,282.42738 533.32501,284.0823 C 532.11479,285.26659 530.77154,287.42464 530.77548,289.11791 C 530.77766,290.0516 531.60141,291.16669 532.19423,291.88804 C 534.75858,295.00829 542.76084,300.23011 542.76084,300.23011 C 542.76084,300.23011 550.7032,296.48133 554.31424,295.47851 C 558.86612,294.21443 565.15721,293.17194 569.88081,293.10074 C 572.43564,293.06223 575.83983,293.58294 578.33517,294.13244 C 581.34409,294.79504 585.03817,297.5338 588.10918,297.28566 C 589.97049,297.13526 592.07326,295.44957 593.64943,294.44817 C 595.35996,293.3614 597.81819,291.96583 598.99153,290.31347 C 601.36162,286.97579 611.75417,254.60195 611.75417,254.60195 L 640.68765,273.5574 L 661.39799,308.03756 L 654.94725,333.66641 z"
           id="path8042"
           sodipodi:nodetypes="csssscsscscsscsssssscsssssssscscccsscssssccscccsccsccssccscsssssscssssssssscssscsssssscccc" />
        <path
           style="fill:none;fill-rule:evenodd;stroke:#000000;stroke-width:2.5;stroke-linecap:butt;stroke-linejoin:miter;stroke-miterlimit:4;stroke-dasharray:none;stroke-opacity:1"
           d="M 529.30979,305.51368 C 529.30979,305.51368 532.77907,306.73037 534.33306,306.90307 C 535.75867,307.06149 539.10872,306.67129 539.10872,306.67129"
           id="path8120"
           sodipodi:nodetypes="css" />
        <path
           style="fill:none;fill-rule:evenodd;stroke:#000000;stroke-width:2.5;stroke-linecap:butt;stroke-linejoin:miter;stroke-miterlimit:4;stroke-dasharray:none;stroke-opacity:1"
           d="M 545.23743,312.03929 C 545.23743,312.03929 542.12996,310.62984 540.72525,310.73773 C 539.14177,310.85933 536.96718,311.76822 535.92253,312.96443 C 534.80802,314.2406 534.25844,318.36146 534.25844,318.36146"
           id="path8122"
           sodipodi:nodetypes="csss" />
        <path
           style="fill:none;fill-rule:evenodd;stroke:#000000;stroke-width:2.5;stroke-linecap:butt;stroke-linejoin:miter;stroke-miterlimit:4;stroke-dasharray:none;stroke-opacity:1"
           d="M 546.80444,315.78148 C 546.80444,315.78148 543.36019,315.37767 542.21567,316.15062 C 540.51885,317.29657 539.66482,320.27084 539.16682,322.25688 C 538.89925,323.32397 539.06314,325.92249 539.06314,325.92249"
           id="path8124"
           sodipodi:nodetypes="csss" />
        <path
           style="fill:none;fill-rule:evenodd;stroke:#000000;stroke-width:2.5;stroke-linecap:butt;stroke-linejoin:miter;stroke-miterlimit:4;stroke-dasharray:none;stroke-opacity:1"
           d="M 551.35029,320.56177 C 551.35029,320.56177 547.52092,321.03749 546.26163,322.00265 C 545.09668,322.8955 544.12461,324.78243 543.75097,326.20181 C 543.25852,328.07254 543.90615,332.64815 543.90615,332.64815"
           id="path8126"
           sodipodi:nodetypes="csss" />
        <path
           style="fill:none;fill-rule:evenodd;stroke:#000000;stroke-width:2.5;stroke-linecap:butt;stroke-linejoin:miter;stroke-miterlimit:4;stroke-dasharray:none;stroke-opacity:1"
           d="M 512.91456,351.31756 C 512.91456,351.31756 515.58786,348.37468 516.63431,347.4314 C 518.05999,346.14629 522.93207,346.30353 522.93207,346.30353"
           id="path8128"
           sodipodi:nodetypes="css" />
        <path
           style="fill:none;fill-rule:evenodd;stroke:#000000;stroke-width:2.5;stroke-linecap:butt;stroke-linejoin:miter;stroke-miterlimit:4;stroke-dasharray:none;stroke-opacity:1"
           d="M 496.25062,345.40212 C 496.25062,345.40212 497.78962,343.12588 498.82202,342.68677 C 500.24366,342.08212 503.97144,342.7297 503.97144,342.7297"
           id="path8130"
           sodipodi:nodetypes="csc" />
        <path
           style="fill:#ffffff;fill-rule:evenodd;stroke:#000000;stroke-width:2.5;stroke-linecap:butt;stroke-linejoin:miter;stroke-miterlimit:4;stroke-dasharray:none;stroke-opacity:1"
           d="M 494.48562,319.8953 C 492.8076,318.90526 491.74253,316.19881 490.18365,315.03012 C 487.83349,313.26821 481.32472,310.861 481.32472,310.861 C 481.32472,310.861 486.25821,309.28721 488.44664,309.28226 C 491.0961,309.27627 494.89765,309.64856 497.07746,311.15458 C 498.75261,312.31194 500.58989,314.82109 500.76982,316.84919 C 500.88675,318.16725 500.23496,320.3077 499.05919,320.91475 C 497.8101,321.55965 495.69635,320.60963 494.48562,319.8953 z"
           id="path8162"
           sodipodi:nodetypes="cscsssss" />
        <path
           style="fill:#ffffff;fill-opacity:1;fill-rule:evenodd;stroke:#000000;stroke-width:2.5;stroke-linecap:butt;stroke-linejoin:miter;stroke-miterlimit:4;stroke-dasharray:none;stroke-opacity:1"
           d="M 480.13497,326.39072 C 481.35917,327.23204 482.65448,328.86425 483.28999,330.22304 C 483.9397,331.61212 484.85902,333.82469 484.26846,335.29328 C 483.89187,336.22979 482.49796,336.95971 481.55022,337.26817 C 480.87326,337.48849 479.88634,337.4167 479.21034,337.251 C 477.78335,336.90121 476.35346,335.14189 474.88171,335.01542 C 473.59386,334.90476 471.81523,335.58133 470.69051,336.28606 C 469.09991,337.28268 468.21745,337.62219 467.25006,339.24355 C 466.50943,340.4849 465.34698,345.03359 465.34698,345.03359 C 465.34698,345.03359 462.70804,340.31145 462.5517,338.24966 C 462.32329,335.237 463.02552,332.2008 464.95927,329.80354 C 466.18067,328.2894 468.65835,327.08294 470.4774,326.48133 C 472.72202,325.73898 475.94039,325.4968 478.24646,325.75941 C 478.84393,325.82744 479.6446,326.0537 480.13497,326.39072 z"
           id="path8164"
           sodipodi:nodetypes="cssssssscsssss" />
        <path
           style="fill:#ffffff;fill-opacity:1;fill-rule:evenodd;stroke:#000000;stroke-width:2.5;stroke-linecap:butt;stroke-linejoin:miter;stroke-miterlimit:4;stroke-dasharray:none;stroke-opacity:1"
           d="M 495.2249,355.34353 C 496.06315,355.12817 497.34129,355.41756 498.05388,355.90873 C 499.81259,357.12096 501.9198,359.80278 501.84206,361.93738 C 501.78307,363.55714 499.85606,365.21647 498.6424,366.29076 C 496.83765,367.88826 493.95416,369.55705 491.63916,370.22781 C 489.49791,370.84824 484.2181,370.61337 484.2181,370.61337 C 484.2181,370.61337 488.14854,367.14592 489.25529,365.23131 C 490.28147,363.45609 490.11926,360.40496 491.24864,358.69354 C 492.10776,357.39166 493.71415,355.73164 495.2249,355.34353 z"
           id="path8166"
           sodipodi:nodetypes="csssscsss" />
        <path
           style="fill:#ffffff;fill-opacity:1;fill-rule:evenodd;stroke:#000000;stroke-width:2.5;stroke-linecap:butt;stroke-linejoin:miter;stroke-miterlimit:4;stroke-dasharray:none;stroke-opacity:1"
           d="M 525.28277,363.59281 C 527.11431,362.95266 529.81123,364.76237 531.26725,366.04467 C 532.51424,367.14287 532.97445,368.34517 533.11817,370.00058 C 533.30701,372.17588 532.12845,375.22723 530.67474,376.85643 C 529.77169,377.86849 527.94837,378.59567 526.61562,378.84778 C 525.04725,379.14447 523.71713,379.74741 522.19276,379.27403 C 520.43375,378.72779 516.86479,376.22323 516.86479,376.22323 C 516.86479,376.22323 520.81928,375.50411 522.07615,374.42988 C 523.44204,373.26247 524.71862,370.92836 524.88331,369.13913 C 524.97245,368.17067 523.81258,367.01358 523.9122,366.04615 C 523.99856,365.20752 524.48692,363.87097 525.28277,363.59281 z"
           id="path8168"
           sodipodi:nodetypes="cssssscssss" />
      </g>
      <g
         transform="translate(-23.614458,-0.8433735)"
         id="g2672">
        <g
           id="g3339"
           style="fill:#f8c300;fill-opacity:1"
           transform="matrix(0.8057704,0.5922281,-0.5922281,0.8057704,177.29681,-138.68326)">
          <path
             sodipodi:nodetypes="cscssscss"
             id="path3303"
             d="M 293.24787,262.97598 C 289.05389,264.64325 284.62796,269.17118 281.66359,272.57438 C 280.05282,274.42359 277.36086,279.52495 277.36086,279.52495 C 277.36086,279.52495 283.87945,278.77665 286.62828,278.20103 C 292.07503,277.06046 298.94457,273.53978 304.50118,273.23634 C 309.42366,272.96753 315.98277,274.51687 320.71918,275.88418 C 326.1056,277.43913 337.93011,283.16573 337.93011,283.16573 C 337.93011,283.16573 326.79421,264.65805 318.7333,261.32108 C 311.65417,258.39054 300.36764,260.1456 293.24787,262.97598 z"
             style="fill:#f8de00;fill-opacity:1;fill-rule:evenodd;stroke:#000000;stroke-width:3;stroke-linecap:butt;stroke-linejoin:miter;stroke-miterlimit:4;stroke-dasharray:none;stroke-opacity:1" />
        </g>
        <path
           style="fill:#f8de00;fill-opacity:1;fill-rule:evenodd;stroke:#000000;stroke-width:3;stroke-linecap:butt;stroke-linejoin:miter;stroke-miterlimit:4;stroke-dasharray:none;stroke-opacity:1"
           d="M 273.21358,374.83029 C 273.21358,374.83029 265.35608,370.33974 263.76409,367.0255 C 262.67246,364.7529 264.7599,360.87962 263.63657,358.62252 C 262.55604,356.45137 259.63156,354.16822 257.26221,353.65093 C 255.486,353.26314 251.36507,355.04715 251.36507,355.04715 L 247.7404,366.99589 L 251.84426,371.15827 L 259.87859,376.83415 L 273.21358,374.83029 z"
           id="path7851"
           sodipodi:nodetypes="csssccccc" />
        <path
           style="fill:#f8de00;fill-opacity:1;fill-rule:evenodd;stroke:#000000;stroke-width:3;stroke-linecap:butt;stroke-linejoin:miter;stroke-miterlimit:4;stroke-dasharray:none;stroke-opacity:1"
           d="M 190.8499,144.16595 C 190.8499,144.16595 148.11011,206.1923 153.56849,208.39615 C 159.88056,210.94469 162.88365,221.63598 168.50134,225.48032 C 173.89996,229.17474 182.6847,231.21161 189.00161,232.91174 C 199.12539,235.63644 213.17976,236.74622 223.39589,239.10109 C 231.07986,240.87229 241.4671,243.08238 248.69277,246.23995 C 256.67109,249.72642 268.20056,254.43802 273.45181,261.38306 C 276.70322,265.68321 279.02189,273.34607 278.29569,278.68794 C 277.19713,286.76884 268.27109,294.21995 263.52085,300.84889 C 262.72885,301.95413 259.72396,301.97398 257.39374,305.59561 C 254.96841,309.36507 253.19849,316.72411 251.48617,317.00876 C 248.48313,317.50798 242.73735,314.78265 242.73735,314.78265 C 242.73735,314.78265 243.64429,318.68477 246.2937,321.28358 C 248.40534,323.3549 252.22089,324.26408 253.2325,324.13598 C 255.7537,323.81671 259.01283,321.94137 259.75921,321.56999 C 263.56014,319.67876 268.14012,310.16713 268.14012,310.16713 C 268.14012,310.16713 259.05975,322.87389 259.58576,329.07846 C 259.81757,331.81271 262.40997,333.73479 262.26969,336.47526 C 262.11841,339.43051 261.67961,342.63262 258.78334,343.23925 C 254.56568,344.12262 248.72717,343.07859 248.72717,343.07859 C 248.72717,343.07859 251.71433,347.22204 255.99457,348.94662 C 258.65797,350.01976 261.76959,349.90316 264.32804,348.59946 C 269.97994,345.71945 276.29501,339.20611 279.1961,333.565 C 280.89499,330.26155 281.29309,321.36154 281.29309,321.36154 C 281.29309,321.36154 276.50453,335.20562 278.52688,340.70909 C 279.93332,344.53647 286.10435,348.44808 286.10435,348.44808 C 286.10435,348.44808 279.28429,351.73601 276.1969,354.26849 C 271.32574,358.26414 265.29505,372.21806 265.29505,372.21806 C 265.29505,372.21806 256.882,370.09445 253.68897,368.26935 C 251.59952,367.07504 249.98183,363.43448 247.60827,363.03654 C 245.89086,362.74861 242.21428,365.18081 242.21428,365.18081 L 240.04546,382.67664 C 240.04546,382.67664 242.75273,387.24212 244.77023,387.67647 C 248.16317,388.40693 251.87356,384.04124 255.4723,383.28266 C 259.03002,382.53272 266.50733,383.0358 266.50733,383.0358 L 254.29159,392.38372 L 254.21975,397.67609 L 265.62261,406.05701 C 265.62261,406.05701 272.30557,404.42171 273.83009,402.16263 C 275.92081,399.06454 274.57114,389.72616 274.57114,389.72616 C 274.57114,389.72616 277.32659,392.18204 278.17768,394.06209 C 279.23795,396.40424 278.4953,401.00991 278.4953,401.00991 L 283.94884,405.01817 L 294.0378,404.79745 C 294.0378,404.79745 298.03506,401.37431 298.04607,399.34391 C 298.06552,395.75827 291.0725,389.63687 291.0725,389.63687 L 301.86338,386.87766 L 302.7656,378.37763 C 302.7656,378.37763 307.21341,388.75417 311.25336,390.72476 C 313.84481,391.98881 318.26368,391.42113 320.84655,390.13964 C 323.00247,389.06999 326.07936,384.05894 326.07936,384.05894 C 326.07936,384.05894 322.0088,386.15143 320.18961,385.83883 C 318.55234,385.55748 315.93011,384.20821 315.72761,382.55933 C 315.34445,379.43941 322.41798,374.49553 322.41798,374.49553 C 322.41798,374.49553 329.38359,377.4318 332.53674,377.35107 C 334.78914,377.29339 338.27705,376.72974 339.65104,374.94401 C 341.11866,373.0366 340.18887,366.93976 340.18887,366.93976 C 340.18887,366.93976 338.57982,370.19413 336.7619,370.56348 C 334.91718,370.93826 331.34886,370.48421 330.36268,368.88082 C 328.48505,365.82804 330.73934,356.94013 330.73934,356.94013 C 330.73934,356.94013 337.91802,358.18245 340.85698,356.31377 C 342.01975,355.57445 343.89407,352.93487 343.91584,350.75117 C 343.94855,347.47001 343.15291,345.96336 343.15291,345.96336 C 343.15291,345.96336 341.72109,350.18876 339.41281,350.33387 C 337.08257,350.48035 333.76867,349.4754 332.00594,347.94432 C 329.01383,345.34543 326.65227,340.00385 326.23007,336.0632 C 325.7188,331.29131 327.68525,326.47704 328.79795,321.80861 C 329.12388,320.44117 329.97552,317.99247 329.97552,317.99247 C 329.97552,317.99247 335.59373,321.5539 338.52255,322.08366 C 340.57754,322.45537 345.06372,321.13324 346.6235,319.74463 C 348.95451,317.66943 350.50341,312.62105 349.37378,309.71176 C 348.43604,307.29666 344.36248,305.69997 344.36248,305.69997 C 344.36248,305.69997 345.16971,309.67907 345.09772,311.48244 C 345.04662,312.76258 341.86991,313.91261 340.68441,314.39839 C 339.71627,314.79509 338.2452,313.64652 337.55393,312.86113 C 334.13701,308.97902 333.48599,302.27698 333.48281,297.10531 C 333.48054,293.42749 337.43151,285.49923 337.43151,285.49923 C 337.43151,285.49923 345.75103,290.71242 349.79615,291.53265 C 356.35124,292.86184 343.46493,273.1346 343.46493,273.1346 C 343.46493,273.1346 327.1398,261.02647 323.62407,257.07954 C 314.08867,246.37461 310.15521,236.00135 299.70718,226.18513 C 295.66919,222.39131 288.8171,216.45039 284.44102,213.0521 C 277.00439,207.27709 264.5783,199.39757 257.56805,193.11183 C 245.70603,182.47579 218.91676,158.21191 218.91676,158.21191 L 205.47269,141.93234 L 190.8499,144.16595 z"
           id="path3268"
           sodipodi:nodetypes="csssssssssscssscssscssscscscssccssccccscscccscccsscsscsscsscsscsssscssscsssscscssssccc" />
        <path
           style="fill:none;fill-rule:evenodd;stroke:#000000;stroke-width:2.5;stroke-linecap:butt;stroke-linejoin:miter;stroke-miterlimit:4;stroke-dasharray:none;stroke-opacity:1"
           d="M 337.8261,286.19475 C 337.8261,286.19475 334.25517,279.76985 331.98662,277.03688 C 329.98323,274.62336 325.59487,273.23343 323.56184,270.84481 C 321.8571,268.8419 319.56529,263.04146 319.56529,263.04146"
           id="path7912"
           sodipodi:nodetypes="cssc" />
        <path
           style="fill:none;fill-rule:evenodd;stroke:#000000;stroke-width:2.5;stroke-linecap:butt;stroke-linejoin:miter;stroke-miterlimit:4;stroke-dasharray:none;stroke-opacity:1"
           d="M 311.70146,274.29248 C 311.70146,274.29248 316.45542,279.33352 317.33163,282.08002 C 318.65461,286.22693 316.00576,291.72125 316.47556,296.04866 C 316.78309,298.88137 317.97133,301.95874 317.778,304.25746 C 317.61301,306.21909 316.20761,310.62861 316.20761,310.62861 C 316.20761,310.62861 320.44338,307.87603 321.85263,305.83565 C 322.39685,305.0477 325.93687,300.16411 325.93687,300.16411 C 325.93687,300.16411 325.71868,310.64292 327.44953,314.65723 C 327.96732,315.85812 330.29159,317.96258 330.29159,317.96258"
           id="path7914"
           sodipodi:nodetypes="cssscscss" />
        <path
           style="fill:none;fill-rule:evenodd;stroke:#000000;stroke-width:2.5;stroke-linecap:butt;stroke-linejoin:miter;stroke-miterlimit:4;stroke-dasharray:none;stroke-opacity:1"
           d="M 321.69163,346.46906 C 321.69163,346.46906 323.71062,351.32448 325.07973,353.08439 C 326.24077,354.57682 329.81067,357.24907 329.81067,357.24907"
           id="path7916"
           sodipodi:nodetypes="css" />
        <path
           style="fill:none;fill-rule:evenodd;stroke:#000000;stroke-width:2.5;stroke-linecap:butt;stroke-linejoin:miter;stroke-miterlimit:4;stroke-dasharray:none;stroke-opacity:1"
           d="M 319.73309,376.88472 C 319.73309,376.88472 321.69193,371.2841 321.79677,368.77619 C 321.91294,365.99709 321.39145,362.17583 320.26782,359.63136 C 319.84974,358.68463 318.13631,356.91888 318.13631,356.91888"
           id="path7918"
           sodipodi:nodetypes="cssc" />
        <path
           style="fill:none;fill-rule:evenodd;stroke:#000000;stroke-width:2.5;stroke-linecap:butt;stroke-linejoin:miter;stroke-miterlimit:4;stroke-dasharray:none;stroke-opacity:1"
           d="M 309.56511,360.47365 C 309.56511,360.47365 312.85627,365.47697 312.96214,368.01223 C 313.11844,371.75523 310.76166,376.48647 310.19917,380.19027 C 309.91527,382.05971 309.38218,384.61089 309.70599,386.47383 C 309.95664,387.91582 311.70656,390.92348 311.70656,390.92348"
           id="path7920"
           sodipodi:nodetypes="csssc" />
        <path
           style="fill:none;fill-rule:evenodd;stroke:#000000;stroke-width:2.5;stroke-linecap:butt;stroke-linejoin:miter;stroke-miterlimit:4;stroke-dasharray:none;stroke-opacity:1"
           d="M 302.47603,379.78488 C 302.47603,379.78488 303.09246,370.43875 303.10383,368.32928 C 303.11335,366.56262 301.79885,363.245 301.79885,363.245"
           id="path7922"
           sodipodi:nodetypes="csc" />
        <path
           style="fill:none;fill-rule:evenodd;stroke:#000000;stroke-width:2.5;stroke-linecap:butt;stroke-linejoin:miter;stroke-miterlimit:4;stroke-dasharray:none;stroke-opacity:1"
           d="M 226.55879,177.90504 L 224.30565,189.73098"
           id="path7926"
           sodipodi:nodetypes="cc" />
        <path
           style="fill:none;fill-rule:evenodd;stroke:#000000;stroke-width:2.5;stroke-linecap:butt;stroke-linejoin:miter;stroke-miterlimit:4;stroke-dasharray:none;stroke-opacity:1"
           d="M 232.81952,180.44435 L 230.35274,189.54949"
           id="path7928"
           sodipodi:nodetypes="cc" />
        <path
           style="fill:none;fill-rule:evenodd;stroke:#000000;stroke-width:2.5;stroke-linecap:butt;stroke-linejoin:miter;stroke-miterlimit:4;stroke-dasharray:none;stroke-opacity:1"
           d="M 238.0844,183.78817 L 237.50357,190.25992"
           id="path7930"
           sodipodi:nodetypes="cc" />
        <path
           style="fill:none;fill-rule:evenodd;stroke:#000000;stroke-width:2.5;stroke-linecap:butt;stroke-linejoin:miter;stroke-miterlimit:4;stroke-dasharray:none;stroke-opacity:1"
           d="M 301.9874,347.10974 L 296.37006,349.05768 L 287.23092,348.59928 C 287.23092,348.59928 287.06866,350.75395 287.60642,352.05859 C 287.95051,352.89334 289.18591,354.23895 290.04571,354.5146 C 291.64798,355.02828 294.00692,355.48152 295.62994,355.0377 C 296.44173,354.8157 297.90125,353.39113 297.90125,353.39113"
           id="path7934"
           sodipodi:nodetypes="cccsssc" />
        <path
           style="fill:none;fill-rule:evenodd;stroke:#000000;stroke-width:2.5;stroke-linecap:butt;stroke-linejoin:miter;stroke-miterlimit:4;stroke-dasharray:none;stroke-opacity:1"
           d="M 291.97101,315.97787 C 291.97101,315.97787 289.03553,321.74939 289.16716,324.41274 C 289.29007,326.89947 291.09034,329.97391 292.5489,331.99172 C 293.80165,333.72481 295.07856,335.25235 297.13814,335.82777 C 298.94382,336.33227 303.95154,335.5877 303.95154,335.5877 C 303.95154,335.5877 299.93704,338.83155 297.84316,339.27856 C 295.08232,339.86796 291.05896,339.3258 288.50391,338.12522 C 286.8369,337.34192 285.08625,335.42757 284.03543,333.91487 C 282.62264,331.88112 280.82756,326.30933 280.82756,326.30933"
           id="path7936"
           sodipodi:nodetypes="cssscsssc" />
        <path
           style="fill:none;fill-rule:evenodd;stroke:#000000;stroke-width:2.5;stroke-linecap:butt;stroke-linejoin:miter;stroke-miterlimit:4;stroke-dasharray:none;stroke-opacity:1"
           d="M 272.59809,319.02601 C 272.59809,319.02601 269.01248,324.35328 268.84523,327.07207 C 268.71463,329.19509 270.07583,331.87318 270.08142,334.0002 C 270.08666,335.99588 269.82929,338.10328 269.21916,340.0034 C 268.56579,342.03822 265.61515,348.02747 265.61515,348.02747"
           id="path7938"
           sodipodi:nodetypes="csssc" />
        <path
           style="fill:none;fill-rule:evenodd;stroke:#000000;stroke-width:2.5;stroke-linecap:butt;stroke-linejoin:miter;stroke-miterlimit:4;stroke-dasharray:none;stroke-opacity:1"
           d="M 327.03954,281.51077 C 327.03954,281.51077 328.39029,288.27758 328.1789,291.19535 C 327.95219,294.32462 325.47257,301.29737 325.47257,301.29737"
           id="path7940"
           sodipodi:nodetypes="csc" />
        <path
           style="fill:none;fill-rule:evenodd;stroke:#000000;stroke-width:2.5;stroke-linecap:butt;stroke-linejoin:miter;stroke-miterlimit:4;stroke-dasharray:none;stroke-opacity:1"
           d="M 192.84801,233.57774 C 192.84801,233.57774 185.12515,226.9971 183.4096,223.30601 C 182.3954,221.12392 181.49725,217.95978 181.33027,215.55931 C 181.14346,212.87386 182.43414,206.65434 182.43414,206.65434"
           id="path7944"
           sodipodi:nodetypes="csss" />
        <path
           style="fill:none;fill-rule:evenodd;stroke:#000000;stroke-width:2.5;stroke-linecap:butt;stroke-linejoin:miter;stroke-miterlimit:4;stroke-dasharray:none;stroke-opacity:1"
           d="M 203.77168,236.16534 C 203.77168,236.16534 194.75324,225.68065 191.96974,220.49537 C 190.62636,217.99284 189.47748,209.95005 189.47748,209.95005"
           id="path7946"
           sodipodi:nodetypes="css" />
        <path
           style="fill:none;fill-rule:evenodd;stroke:#000000;stroke-width:2.5;stroke-linecap:butt;stroke-linejoin:miter;stroke-miterlimit:4;stroke-dasharray:none;stroke-opacity:1"
           d="M 204.50197,214.54893 C 204.50197,214.54893 204.74797,217.61549 205.35617,218.67463 C 206.1306,220.02322 208.06567,221.41401 209.08953,222.58454 C 210.07919,223.71597 213.12694,225.55197 213.12694,225.55197"
           id="path7950"
           sodipodi:nodetypes="csss" />
        <path
           style="fill:none;fill-rule:evenodd;stroke:#000000;stroke-width:2.5;stroke-linecap:butt;stroke-linejoin:miter;stroke-miterlimit:4;stroke-dasharray:none;stroke-opacity:1"
           d="M 212.68023,218.22791 C 212.68023,218.22791 216.38128,222.0689 217.99449,223.68841 C 218.93216,224.62974 221.1563,226.7896 221.1563,226.7896"
           id="path7952"
           sodipodi:nodetypes="css" />
        <path
           style="fill:none;fill-rule:evenodd;stroke:#000000;stroke-width:2.5;stroke-linecap:butt;stroke-linejoin:miter;stroke-miterlimit:4;stroke-dasharray:none;stroke-opacity:1"
           d="M 223.36672,222.19579 C 223.36672,222.19579 228.95675,226.85147 231.13749,229.07314 C 232.28684,230.24406 234.68539,233.23538 234.68539,233.23538"
           id="path7954"
           sodipodi:nodetypes="css" />
        <path
           style="fill:none;fill-rule:evenodd;stroke:#000000;stroke-width:2.5;stroke-linecap:butt;stroke-linejoin:miter;stroke-miterlimit:4;stroke-dasharray:none;stroke-opacity:1"
           d="M 233.09558,224.29386 C 233.09558,224.29386 238.15837,229.34507 240.05762,231.74276 C 241.4232,233.46673 244.12534,237.84169 244.12534,237.84169 C 244.12534,237.84169 244.12534,237.84169 244.12534,237.84169"
           id="path7956"
           sodipodi:nodetypes="csss" />
        <path
           style="fill:none;fill-rule:evenodd;stroke:#000000;stroke-width:2.5;stroke-linecap:butt;stroke-linejoin:miter;stroke-miterlimit:4;stroke-dasharray:none;stroke-opacity:1"
           d="M 245.36297,229.81233 C 245.36297,229.81233 248.9021,233.22883 250.17255,234.9019 C 251.35914,236.46455 252.91837,238.6463 253.54522,240.50558 C 254.15457,242.31299 254.23404,246.82602 254.23404,246.82602"
           id="path7958"
           sodipodi:nodetypes="csss" />
        <path
           style="fill:#ffffff;fill-rule:evenodd;stroke:#000000;stroke-width:2.5;stroke-linecap:butt;stroke-linejoin:miter;stroke-miterlimit:4;stroke-dasharray:none;stroke-opacity:1"
           d="M 255.25763,358.50176 C 254.96191,356.50873 252.34149,354.65502 250.57348,353.68871 C 248.49267,352.55144 247.44463,352.25969 245.07473,352.17825 C 243.00663,352.10718 240.01798,352.03622 238.23765,353.09097 C 236.33778,354.21653 233.87834,359.02214 233.87834,359.02214 C 233.87834,359.02214 240.23752,357.18368 242.99148,357.49848 C 245.98466,357.84062 247.10049,360.53748 250.02122,361.27609 C 251.07683,361.54304 252.67402,362.16395 253.63179,361.64601 C 254.56587,361.14088 255.41349,359.55218 255.25763,358.50176 z"
           id="path8213"
           sodipodi:nodetypes="cssscssss" />
        <path
           style="fill:#ffffff;fill-rule:evenodd;stroke:#000000;stroke-width:2.5;stroke-linecap:butt;stroke-linejoin:miter;stroke-miterlimit:4;stroke-dasharray:none;stroke-opacity:1"
           d="M 244.33601,368.87674 C 245.92882,370.15553 246.98065,370.35598 247.2408,372.38199 C 247.46777,374.14955 246.67367,376.9621 245.19685,377.9595 C 244.30854,378.55943 242.68868,377.98391 241.62557,377.84684 C 239.83538,377.61603 237.56138,376.38401 235.76043,376.50499 C 234.24792,376.6066 232.23824,377.36564 231.02964,378.28066 C 230.06131,379.01377 229.11794,380.4297 228.63202,381.5428 C 228.11828,382.71962 228.56106,383.98716 228.41038,385.26236 C 228.36367,385.65771 225.87587,383.39273 225.13933,381.94468 C 224.37812,380.44811 223.9169,378.09368 224.16583,376.4332 C 224.52241,374.05465 226.21761,372.69484 227.79265,370.87719 C 229.27889,369.16202 231.70141,369.00149 233.84015,368.24222 C 236.01839,367.46893 239.24603,367.35582 241.52761,367.72614 C 242.42634,367.87201 243.62602,368.30672 244.33601,368.87674 z"
           id="path8215"
           sodipodi:nodetypes="csssssscssssss" />
        <path
           style="fill:#ffffff;fill-rule:evenodd;stroke:#000000;stroke-width:2.5;stroke-linecap:butt;stroke-linejoin:miter;stroke-miterlimit:4;stroke-dasharray:none;stroke-opacity:1"
           d="M 257.41441,396.75952 C 257.41441,396.75952 261.20624,397.29573 262.61675,398.07099 C 263.39686,398.49976 263.85861,398.84449 264.17814,399.67534 C 264.85452,401.43407 264.73932,404.37427 263.68666,405.93712 C 262.26596,408.04638 258.4493,408.7434 256.10451,409.72793 C 254.49485,410.40378 251.19505,412.05743 251.19505,412.05743 C 251.19505,412.05743 253.47105,401.73924 254.45982,400.00275 C 255.64546,397.92051 257.21471,396.86181 257.41441,396.75952 z"
           id="path8217"
           sodipodi:nodetypes="csssscss" />
        <path
           style="fill:#ffffff;fill-rule:evenodd;stroke:#000000;stroke-width:2.5;stroke-linecap:butt;stroke-linejoin:miter;stroke-miterlimit:4;stroke-dasharray:none;stroke-opacity:1"
           d="M 292.60006,400.46758 C 293.86117,400.87766 295.38689,402.08291 296.04978,403.23145 C 296.86934,404.65146 297.34344,407.06274 296.875,408.63394 C 296.22524,410.81336 293.70746,413.01836 291.8136,414.27746 C 289.30142,415.94764 282.31272,417.57155 282.31272,417.57155 C 282.31272,417.57155 285.24021,413.78189 286.1968,411.97625 C 286.78614,410.86382 287.73077,409.31884 287.70475,408.06021 C 287.67305,406.52663 285.49967,404.89293 285.67181,403.36871 C 285.78332,402.38128 286.75757,401.16896 287.6335,400.69969 C 288.94828,399.99529 291.18157,400.00634 292.60006,400.46758 z"
           id="path8219"
           sodipodi:nodetypes="cssscsssss" />
        <path
           style="fill:none;fill-rule:evenodd;stroke:#000000;stroke-width:2.20000005;stroke-linecap:butt;stroke-linejoin:miter;stroke-miterlimit:4;stroke-dasharray:none;stroke-opacity:1"
           d="M 336.72618,284.11187 L 338.85663,286.18474"
           id="path2473" />
      </g>
      <g
         transform="translate(-23.614458,-0.8433735)"
         style="opacity:1;fill:#f8de00;fill-opacity:1;stroke:#000000"
         id="g3623">
        <path
           style="fill:#f8de00;fill-opacity:1;fill-rule:evenodd;stroke:#000000;stroke-width:3;stroke-linecap:butt;stroke-linejoin:miter;stroke-miterlimit:4;stroke-dasharray:none;stroke-opacity:1"
           d="M 339.90507,270.49288 C 339.90507,270.49288 348.21349,278.23565 352.68346,278.15991 C 356.56404,278.09416 361.41547,274.37648 363.54509,271.1318 C 364.82459,269.18236 366.29958,256.19846 365.46185,253.24206 C 364.37447,249.40463 360.56213,244.09385 357.79482,242.38043 C 355.02751,240.66701 351.92455,240.45191 349.48886,241.10259 C 348.30312,241.41935 347.18044,242.80914 346.29427,243.65827 C 345.62597,244.29863 344.31764,245.05888 344.26589,245.98301 C 344.23561,246.52379 344.90994,247.08505 345.29355,247.46741 C 346.70677,248.87604 350.7744,251.23549 350.7744,251.23549 C 350.7744,251.23549 345.70999,253.68293 343.4666,253.29081 C 341.43468,252.93565 338.81544,251.12847 337.87157,249.29436 C 336.64895,246.91858 336.92501,242.88661 337.87157,240.38798 C 338.71408,238.164 341.10751,235.71114 343.12405,234.45039 C 345.29453,233.0934 351.34532,232.1667 351.34532,232.1667 C 351.34532,232.1667 342.04875,233.4174 338.21412,232.50926 C 334.96314,231.73934 330.88071,229.48818 328.39426,227.25677 C 327.1285,226.12084 325.59031,224.22987 325.1971,222.57522 C 324.7177,220.55789 325.10477,217.53738 326.11058,215.72415 C 327.10201,213.93685 329.37849,211.87391 331.36306,211.38515 C 333.30052,210.90799 336.15261,211.74214 337.87157,212.75536 C 339.31516,213.60627 341.52547,216.98018 341.52547,216.98018 C 341.52547,216.98018 338.23643,216.37151 336.95809,216.866 C 335.94125,217.25933 334.36047,218.28816 334.33185,219.37805 C 334.28986,220.9769 336.63811,222.39896 337.98575,223.26032 C 339.5374,224.25208 343.80915,225.20146 343.80915,225.20146 L 351.00277,224.97309 L 356.71199,225.77238 C 356.71199,225.77238 349.98738,211.40424 347.17593,205.96973 C 345.57077,202.86697 343.15015,194.83267 342.15182,191.48499 C 340.82826,187.0467 341.16228,186.548 339.69852,182.15395 C 338.01184,177.0907 334.99688,170.18435 331.0205,166.62487 C 328.72143,164.56685 323.64662,162.34666 320.66934,161.5361 C 318.16848,160.85524 315.52714,161.01039 312.97937,161.48657 C 311.02029,161.85272 308.28478,163.04123 307.15597,164.68374 C 305.8636,166.56424 305.36509,170.06956 306.12831,172.21991 C 306.3796,172.92791 307.31259,173.54358 307.95526,173.93267 C 309.28977,174.74061 311.31386,175.48094 312.86519,175.64544 C 315.06227,175.87841 318.16924,175.6628 320.17299,174.73196 C 320.72262,174.47663 321.65739,173.36175 321.65739,173.36175 C 321.65739,173.36175 320.27656,178.70283 318.68859,180.327 C 317.00594,182.04801 313.77467,183.38829 311.38079,183.63834 C 308.69423,183.91897 304.87086,183.14207 302.58859,181.69721 C 299.65921,179.84267 296.4326,175.90429 295.50916,172.56246 C 294.44312,168.70459 295.18222,162.82592 297.10774,159.31707 C 298.77047,156.28708 302.8188,153.3266 306.01413,152.00927 C 308.01834,151.183 313.20774,151.32416 313.20774,151.32416 L 316.29072,152.35182 C 316.29072,152.35182 312.49482,151.2626 310.92405,150.63906 C 309.22942,149.96635 306.81701,149.21156 305.4432,148.01282 C 302.72288,145.63916 299.65043,141.47823 298.82051,137.96459 C 298.28918,135.71508 298.96596,132.49432 299.73399,130.31424 C 300.70042,127.57102 302.59709,123.9048 304.87228,122.09296 C 307.16883,120.26411 311.18798,119.01794 314.12122,118.8958 C 315.92254,118.82079 318.46097,119.35591 319.94462,120.3802 C 321.90761,121.73541 324.20222,124.52355 324.51199,126.88871 C 324.65413,127.974 323.25597,130.31424 323.25597,130.31424 C 323.25597,130.31424 320.72157,127.05865 319.14533,126.43197 C 317.52191,125.78653 314.91282,125.71007 313.32193,126.43197 C 312.32714,126.88338 311.35793,128.16984 310.92405,129.1724 C 310.09012,131.09934 309.3874,134.21842 310.23895,136.13764 C 311.17257,138.24181 314.34007,139.68734 316.4049,140.70502 C 318.4181,141.69726 323.59852,142.76034 323.59852,142.76034 L 331.13469,148.35537 C 331.13469,148.35537 329.92411,138.4574 329.99284,134.19651 C 330.05177,130.54273 330.56358,125.65869 331.36306,122.09296 C 332.43193,117.32576 334.49799,111.08087 336.61554,106.67807 C 339.7334,100.19543 346.59537,93.040248 349.51837,86.46744 C 350.51455,84.227371 351.45401,81.029127 351.68788,78.588718 C 351.98287,75.510531 351.86382,71.246604 350.88859,68.312124 C 350.26218,66.427269 348.5549,64.295235 347.34887,62.71709 C 346.02387,60.98327 344.44581,58.207312 342.43894,57.350424 C 341.05242,56.758409 338.78505,56.960522 337.41483,57.464608 C 336.04461,57.968694 334.49832,59.3072 333.76093,60.433402 C 333.02354,61.559604 332.28742,63.517675 332.61909,64.54404 C 332.95076,65.570405 335.46313,67.938206 336.28967,67.682442 C 337.11621,67.426678 343.00986,66.142621 343.00986,66.142621 C 343.00986,66.142621 341.36303,71.087534 339.47015,72.536946 C 337.57727,73.986358 332.28228,74.244488 328.74683,73.79631 C 325.21138,73.348132 320.71299,69.719322 317.77512,67.398649 C 314.83725,65.077976 312.26288,62.601997 311.26661,60.090849 C 310.27034,57.579701 310.44824,54.016767 311.03824,51.869574 C 311.62824,49.722381 313.01402,47.498952 314.57795,46.27454 C 315.77207,45.339657 319.3737,44.675958 319.3737,44.675958 C 319.3737,44.675958 313.75483,42.464586 311.83753,40.79369 C 309.81709,39.032906 307.47887,36.050009 306.69923,33.48589 C 305.81211,30.568285 305.64163,26.088561 306.9276,23.32348 C 308.71867,19.472355 312.30903,14.945224 315.95484,12.766429 C 318.49472,11.248556 323.83735,10.591248 326.79568,10.53483 C 328.886,10.494966 331.92061,11.245669 333.41838,12.704333 C 334.87766,14.125509 336.06992,17.095183 335.70206,19.098658 C 335.42561,20.604283 332.39072,22.980927 332.39072,22.980927 C 332.39072,22.980927 333.19655,19.00808 332.39072,17.614261 C 331.73784,16.485003 329.92547,15.380967 328.62263,15.444758 C 326.85669,15.531223 324.53142,17.248674 323.82689,18.870289 C 323.30372,20.07447 323.85788,22.012533 324.39781,23.209296 C 325.7058,26.108482 331.36306,31.202202 331.36306,31.202202 L 343.23823,34.627733 L 350.88859,39.651846 L 353.05809,42.734824 L 356.94036,33.714258 C 356.94036,33.714258 364.26213,26.292741 368.24461,24.465324 C 370.39444,23.478845 373.68107,22.676829 376.00915,23.095111 C 378.27587,23.50237 381.0124,25.339914 382.63184,26.97738 C 383.79705,28.15556 385.60287,30.132197 385.37227,31.773124 C 385.11269,33.620237 380.91908,36.11213 380.91908,36.11213 C 380.91908,36.11213 381.88767,32.33016 381.03326,31.088018 C 380.16746,29.829315 377.76247,29.283168 376.23752,29.375252 C 374.70836,29.46759 372.85873,30.69245 371.67014,31.65894 C 370.2132,32.843628 368.60963,34.880418 367.78787,36.568868 C 366.89344,38.406636 366.09165,41.150026 366.18929,43.191561 C 366.33471,46.232187 368.41377,49.939589 369.50064,52.783049 C 371.07933,56.913206 374.23499,62.058208 375.20986,66.37099 C 375.69376,68.511728 375.80963,71.499167 375.55241,73.67879 C 375.39359,75.024594 374.29638,78.017796 374.29638,78.017796 C 374.29638,78.017796 374.29638,78.017796 374.29638,78.017796 C 374.29638,78.017796 371.70502,83.165025 371.70502,83.165025 C 371.70502,83.165025 378.30478,77.044707 381.87545,75.900431 C 384.57349,75.035805 388.78006,74.644004 391.31942,75.900431 C 394.43188,77.440415 397.08203,81.866241 398.34187,85.10225 C 398.92408,86.597715 399.19488,88.867747 398.82617,90.429618 C 398.41394,92.175843 396.90437,94.204993 395.67818,95.514833 C 394.82402,96.427262 392.28804,97.936364 392.28804,97.936364 C 392.28804,97.936364 394.59947,92.554279 394.22526,90.187465 C 393.90417,88.156671 392.43112,85.296889 390.59297,84.37579 C 388.24674,83.200091 384.05932,83.646997 381.87545,85.10225 C 380.03683,86.327441 379.00873,89.49384 378.48531,91.640384 C 377.88296,94.110612 379.19619,97.674532 378.48531,100.11574 C 377.69084,102.84398 375.27675,105.97311 373.40009,108.1068 C 370.77707,111.08908 365.88425,113.62794 363.22966,116.58215 C 361.12884,118.92008 353.99483,129.32053 353.05923,131.35349 C 351.90274,133.86642 350.53313,137.5687 350.87986,140.31316 C 351.03466,141.5384 352.81708,143.94546 352.81708,143.94546 C 352.81708,143.94546 354.24976,139.91327 355.48076,138.61809 C 358.12522,135.83575 363.08144,133.81024 366.61981,132.32211 C 369.26894,131.20797 373.95964,131.84753 375.82163,129.65842 C 377.38622,127.81896 377.74745,123.88442 376.79024,121.66737 C 376.11064,120.09331 373.37646,118.46472 372.18933,118.27723 C 371.0022,118.08974 370.00995,119.00368 370.00995,119.00368 C 370.00995,119.00368 372.97928,115.24103 374.85301,114.88708 C 377.26848,114.4308 380.95668,115.72433 382.60191,117.55077 C 383.89928,118.99103 385.35888,121.53183 385.64674,123.44877 C 385.94958,125.46543 385.29713,128.73387 384.53914,130.62703 C 383.7363,132.6322 380.64218,133.85171 379.21177,135.4701 C 378.21067,136.60276 375.91266,138.12709 376.30593,139.5867 C 376.80489,141.43857 380.47598,141.2587 382.11761,142.25038 C 384.86627,143.9108 388.48984,146.36181 390.59297,148.78852 C 391.84996,150.23891 393.29145,152.49214 393.74096,154.35804 C 394.55835,157.751 394.25808,162.63812 393.25665,165.98139 C 392.64892,168.0103 391.30486,170.74615 389.62435,172.03522 C 388.78509,172.679 387.28949,172.93175 386.23421,173.00383 C 384.18425,173.14386 381.16569,173.17179 379.45392,172.03522 C 378.04236,171.09798 376.54809,167.19215 376.54809,167.19215 L 375.82163,165.49708 C 375.82163,165.49708 380.7936,168.52431 383.08622,168.16077 C 384.36368,167.9582 386.06358,166.72287 386.47636,165.49708 C 387.02744,163.8606 386.23589,161.15708 385.02344,159.92756 C 383.48896,158.37147 380.15391,158.36592 378.001,157.99034 C 376.25284,157.68537 373.96638,156.88159 372.103,157.5397 C 369.88972,158.32138 366.83511,159.21151 364.83841,160.44554 C 363.35016,161.36533 361.72833,163.09454 360.47965,164.31999 C 359.56236,165.22022 358.03131,166.26692 357.57382,167.46798 C 356.09964,171.33818 356.94178,179.54458 357.41799,183.65857 C 357.7342,186.39034 358.44814,190.02212 359.35521,192.61823 C 361.84135,199.73375 364.09438,203.77001 366.91246,210.76072 C 369.24894,216.55674 374.93275,229.02822 376.79024,234.99502 C 377.60306,237.60604 378.98862,241.0178 379.45392,243.71254 C 379.99836,246.8656 379.84272,251.16898 379.93823,254.36727 C 380.09004,259.45074 381.06651,264.40715 379.7824,269.3281 C 378.977,272.41456 376.66606,277.89536 374.85301,280.51981 C 372.82806,283.45099 370.28535,287.70818 367.34627,289.72163 C 364.63607,291.57828 360.21022,292.87384 356.93368,293.11177 C 354.36076,293.29861 350.8624,292.5944 348.45832,291.65885 C 344.83398,290.24843 337.79175,285.55769 337.79175,285.55769"
           id="path2839"
           sodipodi:nodetypes="cssszsssscsssscsssssscssscccssssssssssscssssssccsssssssscsssssccsssssssszzzzczzzzzscssssssscsssscccccsssscsssssssssscssssscssssssssscssssscsssssssssssssccsssssssssssssssssssc" />
        <path
           style="fill:#f8de00;fill-opacity:1;fill-rule:evenodd;stroke:#000000;stroke-width:2.5;stroke-linecap:butt;stroke-linejoin:miter;stroke-miterlimit:4;stroke-dasharray:none;stroke-opacity:1"
           d="M 314.15155,14.311947 C 314.15155,14.311947 313.68317,20.926914 314.15155,23.705908 C 314.71649,27.057841 315.91477,31.626864 317.86544,34.410655 C 319.41616,36.623672 322.48443,38.795939 324.85629,40.090724 C 328.73108,42.205954 338.838,44.678473 338.838,44.678473"
           id="path3611"
           sodipodi:nodetypes="csssc" />
        <path
           style="fill:#f8de00;fill-opacity:1;fill-rule:evenodd;stroke:#000000;stroke-width:2.5;stroke-linecap:butt;stroke-linejoin:miter;stroke-miterlimit:4;stroke-dasharray:none;stroke-opacity:1"
           d="M 331.19175,51.669328 C 331.19175,51.669328 325.42921,54.697557 323.54551,56.694005 C 322.19543,58.124895 320.66194,60.446539 320.26854,62.374075 C 319.83288,64.508697 321.1424,69.583394 321.1424,69.583394"
           id="path3613"
           sodipodi:nodetypes="cssc" />
        <path
           style="fill:#f8de00;fill-opacity:1;fill-rule:evenodd;stroke:#000000;stroke-width:2.5;stroke-linecap:butt;stroke-linejoin:miter;stroke-miterlimit:4;stroke-dasharray:none;stroke-opacity:1"
           d="M 372.69996,81.81739 C 372.69996,81.81739 367.80842,91.72369 364.83524,95.362172 C 363.8365,96.5844 362.15798,97.900483 360.90289,98.857599 C 359.65976,99.805597 356.5336,101.69763 356.5336,101.69763"
           id="path3615"
           sodipodi:nodetypes="csss" />
        <path
           style="fill:#f8de00;fill-opacity:1;fill-rule:evenodd;stroke:#000000;stroke-width:2.5;stroke-linecap:butt;stroke-linejoin:miter;stroke-miterlimit:4;stroke-dasharray:none;stroke-opacity:1"
           d="M 367.01989,112.18392 C 367.01989,112.18392 362.6017,110.88219 360.68442,111.0916 C 359.13578,111.26075 357.1323,112.13357 355.87821,113.05777 C 354.71629,113.91404 352.81971,116.77166 352.81971,116.77166"
           id="path3617"
           sodipodi:nodetypes="csss" />
        <path
           style="fill:none;fill-opacity:1;fill-rule:evenodd;stroke:#000000;stroke-width:2.5;stroke-linecap:butt;stroke-linejoin:miter;stroke-miterlimit:4;stroke-dasharray:none;stroke-opacity:1"
           d="M 393.67252,161.77529 C 393.67252,161.77529 388.13198,155.40722 385.15242,153.25519 C 382.12353,151.06753 377.30287,148.90024 373.57381,148.66744 C 369.3854,148.40597 363.68996,150.11135 360.02903,152.16287 C 357.56258,153.54503 355.09349,156.56744 353.25664,158.71679 C 351.33112,160.96989 347.57657,166.79997 347.57657,166.79997"
           id="path3619"
           sodipodi:nodetypes="csssss" />
        <path
           style="fill:#f8de00;fill-opacity:1;fill-rule:evenodd;stroke:#000000;stroke-width:2.5;stroke-linecap:butt;stroke-linejoin:miter;stroke-miterlimit:4;stroke-dasharray:none;stroke-opacity:1"
           d="M 356.5336,225.34838 C 356.5336,225.34838 360.48202,230.31352 361.55828,232.33924 C 362.40433,233.93166 363.52446,238.01931 363.52446,238.01931"
           id="path3621"
           sodipodi:nodetypes="csc" />
      </g>
    </g>
    <g
       style="opacity:1"
       id="g2674"
       transform="matrix(0.9866864,0.1626348,-0.1626348,0.9866864,235.36949,11.634538)">
      <g
         transform="translate(-176.76768,-4.2424243)"
         id="g6176">
        <path
           style="fill:#ff2a2a;fill-opacity:1;fill-rule:evenodd;stroke:#000000;stroke-width:2.5;stroke-linecap:butt;stroke-linejoin:miter;stroke-miterlimit:4;stroke-dasharray:none;stroke-opacity:1"
           d="M 134.43287,106.73789 C 134.43287,106.73789 124.88537,101.01476 120.17727,100.44602 C 116.83138,100.04184 112.22665,100.03865 108.9213,100.64743 C 104.17441,101.52171 97.200259,106.80176 92.405339,107.44368 C 90.147959,107.74589 88.259066,108.02125 86.635751,106.61309 C 83.730477,104.09287 85.923737,99.07968 84.125625,95.86181 C 83.246343,94.288261 81.062291,92.662713 79.301637,91.833633 C 77.121917,90.807215 73.718227,89.963812 71.261666,90.222363 C 69.731687,90.383391 66.667396,92.236451 66.667396,92.236451 C 66.667396,92.236451 70.724339,94.225698 71.721093,95.660402 C 73.907992,98.808169 72.294218,104.4814 74.247941,107.74494 C 75.017954,109.03117 76.854274,110.26697 78.153069,111.16888 C 79.48733,112.09542 81.339958,113.37887 82.977056,113.78719 C 86.622682,114.6965 91.908419,114.49673 95.611299,113.78719 C 100.13011,112.9213 105.10502,107.88179 109.62382,107.0159 C 113.05739,106.35798 117.88001,107.60268 121.33921,108.14775 C 123.87163,108.54679 129.37917,110.76606 129.37917,110.76606 L 134.43287,106.73789 z"
           id="path6066"
           sodipodi:nodetypes="cssssssscssssssscc" />
        <path
           style="fill:#ffffff;fill-rule:evenodd;stroke:#000000;stroke-width:2.5;stroke-linecap:butt;stroke-linejoin:miter;stroke-miterlimit:4;stroke-dasharray:none;stroke-opacity:1"
           d="M 101.32901,87.929025 C 101.78121,86.468636 102.19672,86.950396 103.63785,86.440139 C 105.08929,85.926231 105.06144,85.650321 106.21624,86.668763 C 107.26275,87.591698 107.55351,87.241967 107.71782,88.627602 C 108.14178,92.202789 107.69561,95.787299 106.32772,99.117554 C 105.74687,100.53171 104.15578,102.35641 104.15578,102.35641 C 104.15578,102.35641 102.98993,100.97867 102.45378,99.282672 C 101.32065,95.698207 100.21706,91.520121 101.32901,87.929025 z"
           id="path6139"
           sodipodi:nodetypes="csssscss" />
        <path
           style="opacity:1;fill:#ffffff;fill-rule:evenodd;stroke:#000000;stroke-width:2.5;stroke-linecap:butt;stroke-linejoin:miter;stroke-miterlimit:4;stroke-dasharray:none;stroke-opacity:1"
           d="M 103.2283,115.38629 C 103.18621,116.91451 103.73471,116.59218 104.93482,117.53927 C 106.1435,118.49314 106.0283,118.74539 107.44951,118.153 C 108.73745,117.61616 108.90013,118.04089 109.50183,116.78194 C 111.05433,113.53363 111.78603,109.99635 111.56324,106.40302 C 111.46864,104.87714 110.54978,102.63732 110.54978,102.63732 C 110.54978,102.63732 109.00242,103.56632 107.94875,104.99938 C 105.72186,108.02813 103.3318,111.6284 103.2283,115.38629 z"
           id="path6141"
           sodipodi:nodetypes="csssscss" />
        <g
           style="opacity:1"
           id="g6049"
           transform="translate(-537.30128,8.114194)">
          <path
             sodipodi:nodetypes="cssssssssscsssscssscssscsssssscssssscsssscssssscscsssssssssccccc"
             id="path5995"
             d="M 688.4389,102.204 C 688.4389,102.204 673.8908,117.3264 666.38925,122.15367 C 659.27057,126.73456 647.59341,128.74946 640.48967,133.35349 C 633.31795,138.00158 624.63652,145.7803 619.49001,152.60318 C 615.95537,157.28915 612.91924,164.6528 610.74015,170.1029 C 608.7426,175.09895 608.8751,183.07011 605.49023,187.25262 C 604.13011,188.93325 601.25778,190.12001 599.19034,190.75257 C 594.55434,192.17102 587.39767,189.92686 583.0906,192.15255 C 579.05362,194.23868 574.49945,199.32193 573.29075,203.70236 C 572.61122,206.16504 573.08888,210.11208 574.69073,212.10222 C 576.46341,214.3046 583.44059,215.60217 583.44059,215.60217 C 583.44059,215.60217 580.32758,210.23392 580.99063,207.90229 C 581.5202,206.04005 584.01228,204.17193 585.89055,203.70236 C 588.70795,202.99801 592.4586,205.44304 595.3404,205.80233 C 598.88445,206.24419 603.68131,206.45196 607.24021,206.15232 C 609.90771,205.92773 615.99006,204.40235 615.99006,204.40235 C 615.99006,204.40235 613.33852,212.80827 614.24009,216.30216 C 614.9327,218.98627 618.90113,221.04384 619.84,223.65204 C 620.72977,226.12383 620.91738,229.87755 620.19,232.4019 C 618.95623,236.68363 611.79013,244.6517 611.79013,244.6517 C 611.79013,244.6517 622.88943,241.23662 626.4899,238.00181 C 629.57085,235.23376 632.67221,230.16229 633.48978,226.102 C 634.26362,222.25889 630.51379,216.87581 631.73981,213.15221 C 633.29568,208.42679 643.28962,201.2524 643.28962,201.2524 C 643.28962,201.2524 643.7707,209.91929 644.6896,213.5022 C 645.30962,215.91974 648.41296,218.77306 647.83955,221.20208 C 647.07024,224.46095 640.91779,225.54742 639.43969,228.55196 C 637.95361,231.57271 638.16604,236.43451 638.7397,239.75178 C 639.14848,242.11562 640.28975,245.31415 641.88965,247.10166 C 644.30427,249.79942 648.88857,252.12858 652.38948,253.05156 C 653.60783,253.37277 656.58941,253.05156 656.58941,253.05156 C 656.58941,253.05156 649.4787,248.51779 648.18955,245.35169 C 647.47572,243.59856 647.73916,240.76713 648.53954,239.05179 C 649.51324,236.96498 652.38042,235.28803 654.13945,233.80187 C 656.65793,231.67407 660.8025,229.70453 662.88931,227.15198 C 665.0294,224.53424 666.93877,220.27465 667.78923,217.00215 C 668.68872,213.54101 668.48922,205.10234 668.48922,205.10234 C 668.48922,205.10234 668.21667,211.54967 669.92306,214.56348 C 670.94731,216.3725 675.0447,219.46656 676.18909,221.20208 C 677.12289,222.61822 678.45317,224.76365 678.28906,226.45199 C 678.08337,228.56807 675.5383,230.58203 674.43912,232.4019 C 673.44259,234.05182 671.28917,238.00181 671.28917,238.00181 C 671.28917,238.00181 680.69223,233.64034 683.88897,230.65192 C 686.76095,227.9671 690.57742,223.67754 691.23885,219.8021 C 691.58591,217.76862 690.1226,215.11535 689.48888,213.15221 C 689.03961,211.76047 688.16688,210.00072 687.73891,208.60228 C 687.32896,207.26275 686.2609,205.38621 686.68892,204.05235 C 687.41626,201.78571 692.63883,198.80244 692.63883,198.80244 C 692.63883,198.80244 691.35972,203.20005 691.58885,205.10234 C 691.97135,208.27796 695.78878,214.90218 695.78878,214.90218 C 695.78878,214.90218 696.22957,208.92856 697.88874,207.2023 C 700.78818,204.18562 707.53123,205.03494 711.18853,203.00237 C 715.41925,200.65112 720.45962,196.3176 723.43833,192.50254 C 726.76157,188.24622 729.98727,181.59003 731.4882,176.4028 C 732.36809,173.36188 731.06483,168.70487 732.53818,165.90297 C 734.20256,162.73778 739.59806,161.14028 741.63804,158.20309 C 743.22951,155.91167 743.02865,151.61843 744.78799,149.45323 C 746.80941,146.96549 752.50111,146.74329 753.88784,143.85332 C 755.35272,140.80049 753.48409,135.88973 752.48786,132.65351 C 750.99575,127.80644 744.78799,117.60375 744.78799,117.60375 L 743.03802,94.854115 L 731.4882,81.204335 L 682.139,94.854115 L 688.4389,102.204 z"
             style="opacity:1;fill:#f8de00;fill-opacity:1;fill-rule:evenodd;stroke:#000000;stroke-width:3;stroke-linecap:butt;stroke-linejoin:miter;stroke-miterlimit:4;stroke-dasharray:none;stroke-opacity:1" />
          <path
             sodipodi:nodetypes="csscscscssscssssssssscssssssscscssscsssssssscccscscsscscscsscssssscssssscsscsc"
             id="path5193"
             d="M 729.60318,47.735499 C 729.60318,47.735499 732.24825,44.269376 733.04677,41.322563 C 733.53356,39.526117 733.18283,34.258858 732.87163,31.642389 C 732.58006,29.191036 731.75403,28.225806 731.75403,28.225806 C 731.75403,28.225806 731.26886,31.223122 730.57986,32.770179 C 729.42117,35.371868 724.69758,40.221774 724.69758,40.221774 C 724.69758,40.221774 725.50524,36.775678 725.40323,35.282258 C 725.08815,30.669549 721.16935,20.46371 721.16935,20.46371 C 721.16935,20.46371 719.41438,30.458301 716.93548,33.870968 C 714.79501,36.817726 711.95439,35.852058 708.51279,37.043843 C 699.90181,40.025721 684.22043,37.753376 674.38912,41.700717 C 670.3392,43.326792 662.02526,49.084862 662.02526,49.084862 C 662.02526,49.084862 651.67677,52.636266 645.92038,51.588613 C 643.80577,51.203757 641.33659,49.273281 639.22525,49.675719 C 635.48312,50.389002 632.47141,50.314048 629.34196,51.269797 C 625.40434,52.472365 625.18829,60.748331 626.47262,64.660051 C 626.90292,65.970626 628.67863,67.150147 629.02315,68.485839 C 629.59845,70.716268 627.70196,73.937746 628.38552,76.137413 C 629.19232,78.733675 631.66736,81.987112 634.1242,83.151355 C 637.49502,84.748715 642.70602,83.391005 646.23919,82.194908 C 650.11679,80.882211 654.31442,81.229401 656.44129,77.73149 C 657.29909,76.320727 659.94826,71.036363 659.94826,71.036363 C 659.94826,71.036363 666.15995,75.52935 667.59983,79.325568 C 668.85531,82.635615 668.78452,87.916731 667.28102,91.121745 C 665.0647,95.84628 659.07408,100.70967 654.20958,102.59911 C 649.84005,104.2963 642.88295,101.04086 638.58762,102.91792 C 635.1786,104.40767 631.80126,105.76737 630.61723,109.29424 C 629.85077,111.57729 629.37363,116.38841 630.93604,118.22107 C 632.743,120.34058 636.55699,118.35975 637.94999,120.77159 C 638.73892,122.13754 638.58762,127.46672 638.58762,127.46672 C 638.58762,127.46672 644.77572,123.44772 646.23919,120.77159 C 647.16727,119.07448 647.19564,114.39528 647.19564,114.39528 C 647.19564,114.39528 662.36525,115.41571 668.8751,115.35173 C 673.37933,115.30746 681.1044,116.40695 685.13469,114.39528 C 688.2906,112.82005 690.79276,108.92175 691.511,105.46845 C 691.7759,104.1948 690.23574,101.32384 690.23574,101.32384 C 690.23574,101.32384 692.55274,99.89701 693.74272,101.00502 C 696.69016,103.74944 697.79814,107.1808 697.88731,111.20713 C 698.04408,118.28568 697.15769,128.75086 694.06153,135.11829 C 692.24519,138.85369 688.99499,143.75995 685.42525,147.28986 C 683.9747,148.72422 682.47139,149.93132 680.99009,150.74026 C 677.37955,152.71197 671.40758,152.70518 667.91865,154.88486 C 665.56629,156.35448 662.84168,159.12946 661.54234,161.57999 C 660.48776,163.56891 659.8032,166.66622 659.94826,168.91275 C 660.1315,171.75056 663.13642,177.83958 663.13642,177.83958 L 665.6008,170.56846 L 678.13094,164.55399 C 678.13094,164.55399 694.66931,160.86719 700.68518,157.03591 C 707.32387,152.80798 707.4836,150.40644 707.4836,150.40644 C 707.4836,150.40644 706.00382,159.47115 698.17915,166.55882 C 695.73253,168.77499 688.65625,172.07208 688.65625,172.07208 C 688.65625,172.07208 702.13338,171.08946 707.20085,168.56364 C 713.2025,165.57219 719.84121,158.98302 723.74063,153.52747 C 727.26523,148.59632 732.75345,131.75389 732.75345,131.75389 C 732.75345,131.75389 728.47675,115.96083 725.24425,108.41899 C 723.48606,104.31692 717.22496,95.888851 717.22496,95.888851 C 717.22496,95.888851 723.33249,104.56779 725.22814,108.67765 C 729.42713,117.78126 735.26835,140.55149 735.26835,140.55149 C 735.26835,140.55149 740.04931,125.94866 740.78161,119.44551 C 741.32029,114.66182 741.53579,108.05428 740.28041,103.40693 C 739.21015,99.444866 733.76474,91.378002 733.76474,91.378002 C 733.76474,91.378002 738.90131,99.790013 740.22505,103.76723 C 741.7301,108.28919 740.1751,115.45877 742.78644,119.44551 C 745.82585,124.0858 752.77702,129.4105 758.3238,129.46961 C 760.61884,129.49407 763.34543,127.20228 764.83947,125.45997 C 766.85727,123.10685 769.20523,119.01633 768.84912,115.93707 C 768.61417,113.90547 764.83947,110.42381 764.83947,110.42381 C 764.83947,110.42381 762.99203,115.28375 761.67523,116.75933 C 760.53375,118.03845 758.34092,117.54288 756.88258,116.64157 C 755.5782,115.83542 755.76176,111.88264 755.51987,110.36845 C 754.32538,102.89124 758.90482,94.082934 756.29583,88.010465 C 755.40749,85.942815 752.49435,80.42972 749.91596,78.778481 C 748.22899,77.698129 741.78403,74.838223 741.78403,74.838223 C 741.78403,74.838223 746.07556,72.080751 747.29728,70.327374 C 749.93417,66.542993 751.54705,60.341442 752.30934,55.792417 C 752.85604,52.52995 752.30934,44.765898 752.30934,44.765898 C 752.30934,44.765898 742.09446,45.104104 737.77438,45.768309 C 735.28226,46.151468 729.60318,47.735499 729.60318,47.735499 z"
             style="opacity:1;fill:#f8de00;fill-opacity:1;fill-rule:evenodd;stroke:#000000;stroke-width:3;stroke-linecap:butt;stroke-linejoin:miter;stroke-miterlimit:4;stroke-dasharray:none;stroke-opacity:1" />
          <g
             transform="translate(149.02369,7.1978252)"
             id="g5187"
             style="opacity:1">
            <path
               sodipodi:type="arc"
               style="fill:#ffffff;fill-opacity:1;fill-rule:evenodd;stroke:#000000;stroke-width:2.5;stroke-linecap:butt;stroke-linejoin:miter;marker:none;marker-start:none;marker-mid:none;marker-end:none;stroke-miterlimit:4;stroke-dasharray:none;stroke-dashoffset:0;stroke-opacity:1;visibility:visible;display:inline;overflow:visible;enable-background:accumulate"
               id="path3163"
               sodipodi:cx="136.84087"
               sodipodi:cy="142.89806"
               sodipodi:rx="12.504578"
               sodipodi:ry="7.3608503"
               d="M 149.34544,142.89806 A 12.504578,7.3608503 0 1 1 124.33629,142.89806 A 12.504578,7.3608503 0 1 1 149.34544,142.89806 z"
               transform="matrix(-0.9158702,-0.4014745,-0.4014745,0.9158702,719.27797,-20.238666)" />
            <path
               sodipodi:type="arc"
               style="fill:#ffffff;fill-opacity:1;fill-rule:evenodd;stroke:#000000;stroke-width:2.5;stroke-linecap:butt;stroke-linejoin:miter;marker:none;marker-start:none;marker-mid:none;marker-end:none;stroke-miterlimit:4;stroke-dasharray:none;stroke-dashoffset:0;stroke-opacity:1;visibility:visible;display:inline;overflow:visible;enable-background:accumulate"
               id="path3179"
               sodipodi:cx="141.94682"
               sodipodi:cy="141.35471"
               sodipodi:rx="8.0072575"
               sodipodi:ry="8.0072575"
               d="M 149.95408,141.35471 A 8.0072575,8.0072575 0 1 1 133.93957,141.35471 A 8.0072575,8.0072575 0 1 1 149.95408,141.35471 z"
               transform="translate(391.31753,-88.325583)" />
            <path
               style="fill:#000000;fill-opacity:1;fill-rule:evenodd;stroke:none;stroke-width:3.5;stroke-linecap:butt;stroke-linejoin:miter;stroke-miterlimit:4;stroke-dasharray:none;stroke-opacity:1"
               d="M 533.92275,46.139841 C 533.31906,46.138131 532.77751,46.232281 532.23525,46.296091 C 531.15073,46.423711 530.23525,46.608591 530.23525,46.608591 L 531.0165,50.014841 C 531.0165,50.014841 531.76269,49.868251 532.6415,49.764841 C 533.52031,49.661431 534.62239,49.809301 534.454,49.733591 C 534.37759,49.699231 535.08646,50.492851 535.1415,50.671091 C 535.31812,51.243091 535.21539,53.377731 534.92867,53.956641 C 534.82818,54.159541 534.01078,54.877491 533.95992,54.894141 C 534.22007,54.808951 533.35632,54.883991 532.70992,54.769141 C 532.06353,54.654291 531.52242,54.519141 531.52242,54.519141 C 531.52242,54.519141 529.75144,54.308521 529.5004,54.887361 C 529.16761,55.654701 530.5165,57.483591 530.5165,57.483591 C 530.5165,57.483591 531.21311,57.647801 532.04775,57.796091 C 532.88239,57.944381 533.73386,58.205891 534.98525,57.796091 C 536.47701,57.307571 537.39657,56.360291 538.0165,55.108591 C 538.84857,53.428551 539.05237,51.476461 538.48525,49.639841 C 538.08242,48.335281 537.38331,47.216851 535.8915,46.546091 C 535.18438,46.228151 534.52644,46.141551 533.92275,46.139841 z"
               id="path3183"
               sodipodi:nodetypes="csccsssssscscsssssc" />
            <path
               style="fill:#f8de00;fill-opacity:1;fill-rule:evenodd;stroke:#000000;stroke-width:2.5;stroke-linecap:butt;stroke-linejoin:miter;stroke-miterlimit:4;stroke-dasharray:none;stroke-opacity:1"
               d="M 532.47164,40.771801 C 532.47164,40.771801 529.7101,41.202371 528.56951,41.658651 C 526.32936,42.554801 524.06991,44.584411 523.78052,46.979741 C 523.62922,48.232081 524.11404,49.296811 525.02211,50.172401 C 525.99869,51.114051 527.56902,50.997911 528.92425,51.059251 C 530.90892,51.149091 533.37186,49.586261 535.30956,49.817661 C 538.09936,50.150821 541.71683,51.860581 543.82332,53.719801 C 544.80864,54.589461 545.02696,56.728741 546.12912,57.444571 C 547.11996,58.088101 548.97587,58.507761 550.03126,57.976681 C 551.1162,57.430731 551.68017,55.605661 551.98233,54.429281 C 552.12795,53.862361 552.14727,53.039811 551.98233,52.478211 C 551.73277,51.628491 550.99851,50.634671 550.386,49.995031 C 549.6202,49.195311 547.37071,47.866591 547.37071,47.866591"
               id="path3167"
               sodipodi:nodetypes="csssssssssssc" />
          </g>
          <path
             sodipodi:nodetypes="csssc"
             id="path6013"
             d="M 630.76519,66.030669 C 630.76519,66.030669 635.53134,59.267881 637.76028,58.344623 C 639.98922,57.421365 640.82474,57.55126 641.26446,58.344623 C 641.70418,59.137986 641.56838,60.389031 639.91669,62.02259 C 638.265,63.656149 630.76519,66.030669 630.76519,66.030669 z"
             style="opacity:1;fill:none;fill-rule:evenodd;stroke:#000000;stroke-width:2.5;stroke-linecap:butt;stroke-linejoin:miter;stroke-miterlimit:4;stroke-dasharray:none;stroke-opacity:1" />
          <path
             sodipodi:nodetypes="cscssscsc"
             id="path6022"
             d="M 729.18784,59.26477 C 729.18784,59.26477 731.91427,54.879424 733.76034,53.803164 C 736.67227,52.105508 744.81057,51.770939 744.81057,51.770939 C 744.81057,51.770939 746.19035,58.845105 744.30251,60.788939 C 743.36995,61.749157 740.80409,60.224076 739.85702,61.169981 C 738.61216,62.413303 740.60685,65.782495 739.34896,67.012629 C 738.50268,67.840231 735.41153,67.266657 735.41153,67.266657 C 735.41153,67.266657 735.46636,62.260708 734.14138,60.788939 C 733.10109,59.633403 729.18784,59.26477 729.18784,59.26477 z"
             style="opacity:1;fill:#000000;fill-rule:evenodd;stroke:#000000;stroke-width:2.5;stroke-linecap:butt;stroke-linejoin:miter;stroke-miterlimit:4;stroke-dasharray:none;stroke-opacity:1" />
          <path
             sodipodi:nodetypes="cssccsssc"
             id="path6018"
             d="M 721.78715,61.84739 C 721.78715,61.84739 716.30988,72.901406 712.6506,76.606426 C 710.71883,78.562341 707.54322,80.704897 704.91968,81.526104 C 699.88525,83.101956 686.7598,83.997718 686.7598,83.997718 L 685.94378,85.040161 C 685.94378,85.040161 700.69876,81.220282 704.91968,85.040161 C 706.49078,86.461988 706.49702,90.138212 705.62249,92.068273 C 704.87392,93.720335 702.84625,96.022524 701.29241,96.958064 C 698.869,98.417156 692.46561,100.19226 692.46561,100.19226"
             style="opacity:1;fill:none;fill-rule:evenodd;stroke:#000000;stroke-width:2.5;stroke-linecap:butt;stroke-linejoin:miter;stroke-miterlimit:4;stroke-dasharray:none;stroke-opacity:1" />
          <path
             sodipodi:nodetypes="csss"
             id="path6020"
             d="M 717.57028,118.07229 C 717.57028,118.07229 718.39379,126.53163 717.57028,130.02008 C 716.27045,135.52626 713.83908,140.28667 710.99942,145.17992 C 709.85472,147.15245 706.78255,151.50522 706.78255,151.50522"
             style="opacity:1;fill:none;fill-rule:evenodd;stroke:#000000;stroke-width:2.5;stroke-linecap:butt;stroke-linejoin:miter;stroke-miterlimit:4;stroke-dasharray:none;stroke-opacity:1" />
          <path
             sodipodi:nodetypes="css"
             id="path6039"
             d="M 629.01606,189.75904 C 629.01606,189.75904 622.68178,194.0192 620.38193,196.56699 C 618.68071,198.45162 615.66265,204.51807 615.66265,204.51807"
             style="fill:none;fill-rule:evenodd;stroke:#000000;stroke-width:2.5;stroke-linecap:butt;stroke-linejoin:miter;stroke-miterlimit:4;stroke-dasharray:none;stroke-opacity:1" />
          <path
             sodipodi:nodetypes="cssc"
             id="path6041"
             d="M 694.37751,179.21687 C 694.37751,179.21687 682.14701,183.09808 677.08243,186.54981 C 674.73845,188.14734 672.62873,191.5314 671.41337,194.09445 C 669.51414,198.0997 668.37349,205.54265 668.37349,205.54265"
             style="fill:none;fill-rule:evenodd;stroke:#000000;stroke-width:2.5;stroke-linecap:butt;stroke-linejoin:miter;stroke-miterlimit:4;stroke-dasharray:none;stroke-opacity:1" />
          <path
             sodipodi:nodetypes="csss"
             id="path6043"
             d="M 693.01423,198.29015 C 693.01423,198.29015 699.96033,191.46178 702.81124,189.05622 C 706.6551,185.81282 714.04467,184.08221 716.86747,179.91968 C 718.6777,177.25031 718.9759,169.37751 718.9759,169.37751"
             style="fill:none;fill-rule:evenodd;stroke:#000000;stroke-width:2.5;stroke-linecap:butt;stroke-linejoin:miter;stroke-miterlimit:4;stroke-dasharray:none;stroke-opacity:1" />
          <path
             sodipodi:nodetypes="cssss"
             id="path6037"
             d="M 627.61044,153.91566 C 627.61044,153.91566 627.06848,163.52816 625.50201,167.26908 C 623.17286,172.83138 618.17043,179.55369 613.55422,183.43373 C 611.02788,185.55718 603.71486,188.35341 603.71486,188.35341 C 603.71486,188.35341 603.71486,188.35341 603.71486,188.35341"
             style="opacity:1;fill:none;fill-rule:evenodd;stroke:#000000;stroke-width:2.5;stroke-linecap:butt;stroke-linejoin:miter;stroke-miterlimit:4;stroke-dasharray:none;stroke-opacity:1" />
        </g>
      </g>
      <path
         sodipodi:nodetypes="css"
         id="path6197"
         d="M -71.217589,207.30666 C -71.217589,207.30666 -68.994759,198.3666 -67.133379,194.66594 C -65.920099,192.25377 -61.510889,187.63783 -61.510889,187.63783"
         style="opacity:1;fill:none;fill-rule:evenodd;stroke:#000000;stroke-width:2.5;stroke-linecap:butt;stroke-linejoin:miter;stroke-miterlimit:4;stroke-dasharray:none;stroke-opacity:1" />
    </g>
  </g>
</svg>
