<svg xmlns="http://www.w3.org/2000/svg" version="1.0" width="458.5" height="560.5"><defs><linearGradient id="a"><stop offset="0" stop-color="#fff" stop-opacity=".314"/><stop offset=".19" stop-color="#fff" stop-opacity=".251"/><stop offset=".6" stop-color="#6b6b6b" stop-opacity=".125"/><stop offset="1" stop-opacity=".125"/></linearGradient></defs><g fill="#787850" stroke="#000" stroke-width="3.369"><path d="M135.44 557.27s-13.964 6.774-8.544 27.632c0 0 6.808-14.546 15.35-14.546 8.54 0 4.523-8.775 4.523-8.775l-5.256-6.406zM119.948 532.47s5.813-15.597 16.138-18.673c6.268-1.867 11.903-2.34 13.487.03 1.583 2.37 2.384 5.305 2.384 5.305l-4.668 10.802-5.045-.928c.001 0-8.292-4.538-22.296 3.463zM191.969 596.526s3.849 7.21-9 14.287c0 0 11.172 1.862 19.323-2.55 5.322-2.88 6.65-8.738 4.855-12.26-1.795-3.52-4.855-4.81-4.855-4.81l-9.34.967zM167.427 610.76s-2.284-15.324 4.652-19.99l1.35-8.285-10.27-3.2-4.934 2.801-.278 3.973c0-.001-7.058 13.097 9.48 24.7z" fill="#848401" stroke-linecap="round" stroke-linejoin="round" transform="matrix(.88959 0 0 .89122 -35.77 -53.893)"/><path d="M358.414 388.733c-10.368 7.845-32.976 17.796-51.296 20.412-18.319 2.616-29.833 12.039-46.583 33.498-16.75 21.46-28.787 26.695-35.592 26.695 0 0 16.226 9.42 28.788 0 0 0-3.14 13.085-12.562 21.983 0 0 12.562 1.047 20.414-10.468 0 0-4.188 12.56-10.47 20.935 0 0 12.564-2.617 18.32-12.038 0 0 4.187 13.608-6.28 24.077-10.468 10.469-36.635 19.366-64.38 19.366-18.843 0-27.74-14.656-32.975-17.796-5.235-3.14-13.085-3.665-16.225-1.571 0 0-1.047 8.897-7.328 15.179 0 0 1.047 12.04 15.18 13.086 0 0-16.75-3.665-21.984 15.179 0 0 7.852 3.141 6.804 13.086 0 0 7.47 6.046 15.958-.334 0 0-6.538 9.23-.257 16.036 0 0 9.945-3.664 14.133 4.711 0 0 10.753-.094 9.421-9.421-.523-3.664 5.233-10.467 11.515-6.28 6.282 4.187 4.188 6.803 4.188 6.803s-12.561 3.664-5.234 14.656c0 0 7.327-5.235 15.179-.523 0 0 13.085-1.571 7.327-14.656 0 0 19.367 2.617 31.929-14.133 0 0-.525 6.804-6.281 13.61 0 0 18.843-3.14 28.788-19.366 0 0-2.617 10.99-7.327 15.702 0 0 17.272-5.233 28.264-25.647 0 0 0 10.467-1.57 13.608 0 0 12.039-7.327 19.89-21.983 0 0 0 6.281-1.047 11.516 0 0 12.561-6.281 14.655-18.843 0 0 .524 7.329 0 10.992 0 0 12.038-9.422 14.656-18.32 2.618-8.896 0-20.413-7.327-31.403-7.327-10.991-12.56-25.646 5.759-38.209 18.319-12.563 30.357-14.657 50.248-12.563 19.89 2.094-7.332-72.232-26.698-57.576z" fill="#214263" stroke-linecap="round" stroke-linejoin="round" transform="matrix(.88959 0 0 .89122 -35.77 -53.893)"/><path d="M377.255 437.932l-28.788-35.069s-10.047-12.927 28.788 12.039c7.329 4.71 0 23.03 0 23.03z" fill="#214263" stroke-linecap="round" stroke-linejoin="round" transform="matrix(.88959 0 0 .89122 -35.77 -53.893)"/><path d="M98.788 87.181s-16.231-14.741-33.946-2.62c0 0 16.259.688 23.379 12.728l4.28 3.432 5.904-4.662 2.487-4.663zM78.412 116.365l-4.893-2.536s-21.837-2.582-28.377 18.176c0 0 12.98-8.675 20.566-1.636 7.585 7.04 9.292.498 9.292.498l4.265-8.53zM66.167 155.637s-19.274.488-17.072 26.47c0 0 8.58-14.63 19.37-11.769 10.79 2.862 4.85-7.828 4.85-7.828l-3.082-7.486zM91.436 196.067s-11.246 3.555-17.746-9.444c0 0-3.893 12.435 3.647 19.975 3.487 3.487 9.327 5.932 14.559 3.712 5.232-2.22 6.685-7.834 6.685-7.834l-2.22-5.548z" fill="#848401" stroke-linecap="round" stroke-linejoin="round" transform="matrix(.88959 0 0 .89122 -35.77 -53.893)"/><path d="M236.619 244.768s-13.55-7.62-34-11.026c-2.756-.46-18.377-17-36.754-30.782-18.377-13.784-35.836-28.485-35.836-28.485s-11.026-13.324-11.485-25.27c-.46-11.944-4.136-25.268-6.892-28.943-2.756-3.675 11.486-27.107-12.864-33.08 0 0-3.216 9.649-10.567 10.108 0 0-5.513 9.189-.46 14.242 0 0-9.648-3.676-14.242 2.298 0 0 .46 11.026-7.811 16.54 0 0 1.377 10.567 11.945 9.648 10.568-.92 10.568 1.838 10.568 1.838s-1.377 4.134-7.81 5.973c-6.434 1.838-11.488 0-14.244 7.81 0 0 5.515 5.513 2.298 14.703 0 0 1.837 8.27 11.026 7.35 9.19-.918 9.188-9.189 13.324-5.512 4.136 3.676 13.783 12.864 12.864 15.162-.919 2.297-1.378 4.594-5.053 4.594s-9.648-1.379-9.188 4.134c0 0 5.513 7.81.46 14.243 0 0 2.755 9.188 10.566 10.107 7.81.92 14.702-6.432 14.702-6.432s9.19 13.324 14.703 13.324c0 0-10.567-.92-14.242-2.757 0 0 6.891 15.162 27.565 16.54 0 0-9.188.92-17.458-1.838 0 0 9.188 14.242 34.917 15.62 0 0-9.19.92-17.459-.919 0 0 9.19 13.782 31.701 14.701 0 0-8.27 2.298-17.459-.46 0 0 9.19 12.865 33.999 13.784 0 0-9.188 1.379-18.378-.46 0 0 10.108 13.784 29.404 11.946 0 0-5.973 2.298-13.324 1.379 0 0 13.147 13.889 24.771 13.708l37.107-3.025 17.48-60.036z" fill="#214263" stroke-linecap="round" stroke-linejoin="round" transform="matrix(.88959 0 0 .89122 -35.77 -53.893)"/><path d="M329.338 161.229s-30.754-8.831-59.984-8.527c-29.231.305-52.068 11.876-67.902 4.263-15.834-7.612-4.263-31.058-.305-31.971 0 0-17.902-3.5-31.059 17.964-5.785 9.44-.956 31.047 18.27 35.93 19.182 4.872 29.84-7.611 54.199-11.875 22.295-3.9 37.147-6.09 85.867 3.045z" fill="#840101" stroke-linecap="round" stroke-linejoin="round" transform="matrix(.88959 0 0 .89122 -35.77 -53.893)"/><path d="M234.87 139.703s-.852 7.95 7.667 13.912c0 0-1.136-11.64 3.975-21.01 0 0-11.642-1.988-11.642 7.098zM244.203 178.258s-1.975-7.748 5.607-14.862c0 0 .534 11.684 6.926 20.232 0-.001-11.241 3.623-12.533-5.37zM250.486 131.752l7.099 15.048s4.543-13.628 7.666-16.184zM292.399 132.906s.284 6.915 3.975 8.45c3.691 1.536 5.963 4.61 5.963 4.61s5.111-8.708 3.692-12.549l-13.061-.511M259.12 183.78l5.973-14.017s3.876 12.28 7.149 14.64z" fill="#848484" stroke-linecap="round" stroke-linejoin="round" transform="matrix(.88959 0 0 .89122 -35.77 -53.893)"/><path transform="matrix(1.01184 0 0 1.0137 .107 .107)" fill="#848484" stroke-width="2.962" stroke-linecap="round" stroke-linejoin="round" d="M209.666 62.735l-12.731.499 6.74 12.481zM222.354 62.563l-12.731.5 6.74 12.481zM216.966 109.244l-11.733.249 4.993-14.478z"/><path d="M289.784 181.323s-.136-6.919 3.456-8.676c3.592-1.757 5.67-4.962 5.67-4.962s5.631 8.381 4.447 12.3l-13.005 1.304" fill="#848484" stroke-linecap="round" stroke-linejoin="round" transform="matrix(.88959 0 0 .89122 -35.77 -53.893)"/><path d="M65.188 333.555s-8.822-3.862-23.293-.493c0 0 4.188-11.975 16.256-14.472 5.748-1.188 11.818-.528 13.404 1.653 1.587 2.18 3.248 7.665 3.248 7.665l-4.758 7.533zM62.004 355.55s-20.529.886-16.345 25.485c0 0 8.114-13.16 15.476-10.147 7.364 3.013 6.612-4.58 6.612-4.58l-.836-9.204zM73.87 396.065s-5.073 10.4-1.128 21.61c0 0 8.97-7.91 13.283-16.112 4.326-8.227.136-5.755.136-5.755l-7.266-4.152zM111.202 406.193s-2.772 8.604-16.894 13.156c0 0 10.773 5.868 20.919 1.113 5.718-2.68 9.823-6.365 10.155-11.086l-1.48-5.728-7.248-2.215-5.637.604zM315.221 610.213s-9.556-1.454-13.26 8.422c-2.234 5.959.559 15.083.559 15.083s5.626-12.675 12.701-11.929c7.076.746 7.224-1.291 7.224-1.291l-2.42-7.822-.93-3.166zM316.09 642.914s-6.45 6.654-3.07 15.493c1.766 4.62 8.696 10.463 8.696 10.463s-2.633-15.065 3.345-16.696c5.979-1.63 3.449-6.27 3.449-6.27l-9.784-7.609zM349.37 665.488s-4.94 10.077 4.311 18.357c2.725 2.438 9.036 3.298 9.036 3.298s-6.064-12.252 1.701-17.315c7.766-5.063-3.423-9.221-3.423-9.221l-10.615.574zM393.647 654.491s3.385 8.166-12.914 18.818c0 0 8.951 4.738 20.535-3.466 6.16-4.363 8-11.31 5.69-15.93-2.31-4.622-5.049-5.631-5.049-5.631l-8.085 2.44z" fill="#848401" stroke-linecap="round" stroke-linejoin="round" transform="matrix(.88959 0 0 .89122 -35.77 -53.893)"/><path d="M323.567 82.082s7.564-6.415 12.717-12.255c5.154-5.84 6.985-7.672 6.985-7.672s4.874 7.478-1.767 24.08a26.315 26.315 0 012.955 1.625c5.488-6.672 14.635-15.527 26.696-19.19 0 0 6.178 16.394-.607 33.488 0 0 31.93 1.322 41.55 28.005 6.894 5.042 14.109 14.278 14.109 26.428 2.52 3.656 3.527 10.157 3.017 16.347 0 0-4.322-9.542-17.056-11.567 0 0 15.866 11.662 12.683 27.868 0 0-8.921-9.348-14.71-10.505 0 0 12.797 12.983 8.745 32.372 0 0-11.638-11.826-15.4-13.852 0 0 12.73 10.708 10.127 32.412 0 0-2.444-3.564-5.581-7.13 0 0 2.397 15.811-3.101 25.94 0 0-3.763-10.708-9.839-15.048 0 0 4.053 14.469-4.629 28.07 0 0-2.315-13.312-8.103-18.232 0 0 1.736 13.313-4.34 22.573 0 0-2.026-11.576-7.525-12.444 0 0-6.657-1.447-6.657 20.836 0 22.282 20.548 72.347 50.066 96.946 29.519 24.599 52.96 54.693 67.139 65.113 14.18 10.42 39.357 4.92 41.962-10.128 2.605-15.048-8.682-42.54-28.36-62.798-19.68-20.258-28.071-68.007-5.788-90.29s63.666-57.88 63.666-57.88 3.738 12.532-4.498 24.181c0 0 4.5 10.747-.711 19.658 0 0 4.873 11.124-2.962 21.225 0 0 4.119 16.835-8.035 26.675-12.153 9.84-38.488 26.044-20.835 52.67 0 0-.201-15.12 6.945-20.837 8.682-6.945 11.577-15.337 11.577-15.337s2.359 15.764-6.945 28.65c-3.763 5.209-4.34 17.073-4.34 17.073s2.314-9.55 8.681-13.022c6.367-3.473 8.972-10.708 8.972-10.708s6.367 13.601-2.026 21.993c-8.393 8.392-6.945 17.654-6.945 17.654s2.315-6.367 8.103-9.55c5.789-3.182 7.813-11.286 7.813-11.286s4.63 15.916-3.762 23.44c-8.392 7.524-6.498 11.719-3.183 22.573 3.183 10.418 3.183 43.699-25.178 52.09-28.36 8.393-54.695-9.55-66.27-21.994-5.987-6.434-9.805-11.244-12.9-14.588-.412 12.273-4.175 18.06-4.175 29.637 0 11.575-1.737 35.305 25.756 35.305 17.075 0 21.996-8.104 28.94-5.5 6.944 2.605 9.725 14.208.579 31.256-6.367 11.865.579 40.225.579 53.247 0 8.102-5.789 14.47-5.789 14.47s-1.159-7.813-6.945-13.023c0 0 5.498 17.364-5.498 35.306 0 0-1.446-10.709-5.499-15.917 0 0 2.026 17.653-13.022 29.228 0 0 .87-12.442-3.763-17.653 0 0 2.606 13.022-12.732 26.334 0 0 2.316-11.576.58-17.074 0 0-16.498 21.414-22.864 22.862 0 0 5.788 4.34 3.473 10.13-2.314 5.788-8.682 9.549-8.682 9.549s-7.522-4.052-13.31.579c0 0-5.876-5.817-4.341-10.419 1.158-3.472-10.304-3.866-12.156.58 0 0-1.734 6.656-.868 11.576.867 4.92-4.051 12.732-11.865 13.601 0 0-8.393-8.103-15.049-4.34 0 0-6.655-6.079.29-12.734 6.946-6.655 3.183-14.76-1.736-13.022-4.92 1.738-5.236 10.923-13.602 13.312-4.051 1.158-9.26-.869-9.26-.869s0-7.235-8.971-9.26c0 0-.772-8.631 6.01-13.97 0 0-6.59-2.237-6.88-7.156 0 0 2.605-6.366 0-11.576 0 0 4.341-9.26 13.602-8.103 9.26 1.158 19.969 13.023 35.596 13.023 15.627 0 40.225-28.07 48.328-43.698 8.103-15.627 8.972-36.463 4.34-44.856 0 0 0 7.524-4.053 16.785 0 0 .87-7.235-4.919-10.418 0 0-2.316 10.418-6.367 14.76 0 0-.29-8.104-3.763-9.84 0 0-1.445 7.526-6.944 12.734 0 0 .87-8.392-11.286-11.866-12.156-3.474-16.787-19.68-17.075-42.54-.29-22.862 15.338-60.774 11.576-78.716-3.761-17.942-15.584-29.287-67.137-32.411-19.1-1.158-45.725-18.52-58.168-6.656-12.444 11.864-21.126 10.419-21.126 10.419s10.129-11.576 10.129-16.206c0 0-10.708 16.494-30.096 15.915 0 0 8.682-8.97 8.682-14.18 0 0-10.997 13.603-24.598 15.627 0 0 4.34-6.945 4.92-12.733 0 0-11.576 14.47-29.808 15.627 0 0 6.945-7.234 8.682-12.155 0 0-10.418 13.022-27.492 13.312 0 0 8.392-6.369 9.55-10.13 0 0-16.785 6.945-26.335 4.341 0 0 6.656 8.393 4.052 13.313-2.605 4.92-10.13 7.813-10.13 7.813s-7.233-4.34-14.18-3.183c0 0-6.946-4.052-1.157-9.262 5.788-5.21 13.601-10.995 2.604-15.626-10.996-4.63-10.128 1.157-9.838 5.787.29 4.63-3.473 16.206-16.785 14.47 0 0-4.34-7.233-12.155-5.498 0 0-5.787-9.26 2.605-13.6 8.392-4.341 13.601-8.104 9.839-10.998 0 0-2.315-1.735-10.13 2.316-7.813 4.052-14.758 1.447-15.047-2.893 0 0 4.63-8.393.868-15.339 0 0 .869-8.103 7.235-4.919 6.366 3.184 12.443 0 12.443 0s-6.367-4.92-10.419-5.498c-4.051-.58-10.128-6.656-6.077-11.576 0 0 6.367-4.051 6.367-13.312 0 0 10.708-4.92 15.337 6.945 4.63 11.864 9.55 17.364 16.495 18.52 6.946 1.157 67.508-.368 92.316-9.838 11.3-4.313 17.388-8.529 17.388-15.083 0-6.555 3.277-19.2 15.452-28.097 0 0-11.238 2.81-16.858 16.389 0 0-7.024-19.199 14.984-31.842 0 0-4.682.467-10.77 4.214 0 0-2.093-11.55 11.238-21.072 6.556-4.683 17.325-6.088 17.325-6.088s-9.365-1.404-16.858 2.81c0 0 5.152-19.199 30.907-20.136 0 0-11.708-3.278-20.136 2.34 0 0 7.492-17.324 33.715-17.324 0 0-1.873-2.81-12.175-1.405 0 0 8.963-9.68 23.125-10.218 0 0 1.225-11.79 19.02-13.663 2.572-.271 5.242-.552 7.967-.892-14.523 2.296-23.888-5.665-33.253-4.26-9.364 1.405-26.69 4.215-22.945 10.77 0 0-18.478-6.267-13.58-23.412.936-3.278 3.278-1.874 3.278-1.874s-2.342 3.278 4.214 3.746c6.557.467 50.573 6.556 65.09-10.77 14.517-17.327-1.404-35.59-15.452-35.59-14.049 0-56.019-2.156-60.969 4.097-1.863 2.353-18.17-3.531-18.17-12.526 0-5.49 3.851-9.191 4.988-10.084-4.394-3.295 0-13.182 10.984-12.083 10.984 1.099 28.192 4.76 37.346 1.83 9.154-2.93 16.844-23.8 45.403-23.8 2.363.004 4.56.086 6.606.235z" fill="#214263" stroke-linecap="round" stroke-linejoin="round" transform="matrix(.88959 0 0 .89122 -35.77 -53.893)"/><path d="M323.567 82.082c8.254.6 14.012 2.296 17.935 4.153M234.58 111.876s-6.956 7.322-11.35 4.027M364.562 86.611s0 12.45-6.957 20.87M338.566 96.131s2.048-3.6 5.89-8.27M400.3 123.75s5.718 1.97 11.795 6.414M408.03 222.54c-2.15-2.445-4.625-4.89-6.861-6.184M548.023 239.378a31.526 31.526 0 01-4.473 5.047c-13.891 12.734-30.386 26.045-30.386 26.045M547.312 259.035a17.83 17.83 0 01-3.762 4.49c-10.707 9.261-28.94 22.283-28.94 22.283M544.351 280.259c-1.323 1.706-3.008 3.381-5.141 4.97-14.76 10.997-28.65 23.152-28.65 23.152M436.022 425.754c-2.888-3.124-5.143-4.97-7.938-5.668M322.1 628.945c2.512-1.977 6.059-3.504 11.064-3.972M283.043 210.36a32.855 32.855 0 016.376.384" stroke-linecap="round" stroke-linejoin="round" transform="matrix(.88959 0 0 .89122 -35.77 -53.893)"/><path d="M310.03 195.805c16.129-2.01 34.198-6.098 45.415-22.522" fill="#214263" stroke-linecap="round" stroke-linejoin="round" transform="matrix(.88959 0 0 .89122 -35.77 -53.893)"/><path d="M370.545 102.157c-1.637 4.127-4.03 8.295-7.448 12.281M408.693 145.455s11.429 2.314 17.512 11.137M87.761 111.531c5.054 5.054 9.189 8.27 10.567 13.783M158.203 570.022c1.809-1.359 3.663-3.282 5.5-5.947M316.887 107.57c1.618 1.046 3.386 1.87 5.368 2.154M302.676 93.372s-1.722 2.152-4.734 3.012c-2.918.834-7.346.343-4.734 2.152.974.676 1.904 1.115 2.802 1.394" stroke-linecap="round" stroke-linejoin="round" transform="matrix(.88959 0 0 .89122 -35.77 -53.893)"/><path d="M296.013 99.93c4.255 1.324 7.816-.945 12.257 1.188 2.634 1.265 5.317 4.319 8.617 6.451 0 0-4.958 6.887-13.565 7.319-8.607.43-8.587-11.129-7.31-14.958z" fill="#848484" stroke-linecap="round" stroke-linejoin="round" transform="matrix(.88959 0 0 .89122 -35.77 -53.893)"/><path d="M302.193 100.214c-2.019.133-4.009.392-6.182-.284-1.165 3.495-1.28 13.422 5.25 14.804 1.901-1.37 3.219-4.29 3.219-7.683 0-2.805-.901-5.286-2.287-6.837zm.222 8.167c-.569.168-1.362-.979-1.77-2.56-.411-1.58-.282-2.997.287-3.162.57-.166 1.361.98 1.772 2.562.41 1.578.281 2.996-.289 3.16z" fill="#848484" transform="matrix(.88959 0 0 .89122 -35.77 -53.893)"/></g></svg>