<?xml version="1.0" encoding="UTF-8" standalone="no"?>
<svg
   xmlns:dc="http://purl.org/dc/elements/1.1/"
   xmlns:cc="http://creativecommons.org/ns#"
   xmlns:rdf="http://www.w3.org/1999/02/22-rdf-syntax-ns#"
   xmlns:svg="http://www.w3.org/2000/svg"
   xmlns="http://www.w3.org/2000/svg"
   xmlns:sodipodi="http://sodipodi.sourceforge.net/DTD/sodipodi-0.dtd"
   xmlns:inkscape="http://www.inkscape.org/namespaces/inkscape"
   version="1.0"
   inkscape:output_extension="org.inkscape.output.svg.inkscape"
   sodipodi:docname="variant-lion-rampant-queue-saltire-reverse-1.svg"
   inkscape:version="1.0rc1 (09960d6, 2020-04-09)"
   sodipodi:version="0.32"
   id="svg2"
   height="420"
   width="425">
  <defs
     id="defs4">
    <linearGradient
       id="linearGradient3252">
      <stop
         id="stop3254"
         offset="0"
         style="stop-color:#ffff00;stop-opacity:1;" />
      <stop
         id="stop3256"
         offset="1"
         style="stop-color:#ff0000;stop-opacity:1;" />
    </linearGradient>
    <linearGradient
       id="linearGradient3242">
      <stop
         id="stop3244"
         offset="0"
         style="stop-color:#ff0000;stop-opacity:1;" />
      <stop
         id="stop3246"
         offset="1"
         style="stop-color:#00ff16;stop-opacity:1;" />
    </linearGradient>
    <inkscape:perspective
       id="perspective10"
       inkscape:persp3d-origin="372.04724 : 350.78739 : 1"
       inkscape:vp_z="744.09448 : 526.18109 : 1"
       inkscape:vp_y="0 : 1000 : 0"
       inkscape:vp_x="0 : 526.18109 : 1"
       sodipodi:type="inkscape:persp3d" />
    <inkscape:perspective
       sodipodi:type="inkscape:persp3d"
       inkscape:vp_x="0 : 526.18109 : 1"
       inkscape:vp_y="0 : 1000 : 0"
       inkscape:vp_z="744.09448 : 526.18109 : 1"
       inkscape:persp3d-origin="372.04724 : 350.78739 : 1"
       id="perspective2498" />
    <inkscape:perspective
       sodipodi:type="inkscape:persp3d"
       inkscape:vp_x="0 : 526.18109 : 1"
       inkscape:vp_y="0 : 1000 : 0"
       inkscape:vp_z="744.09448 : 526.18109 : 1"
       inkscape:persp3d-origin="372.04724 : 350.78739 : 1"
       id="perspective2831" />
    <inkscape:perspective
       sodipodi:type="inkscape:persp3d"
       inkscape:vp_x="0 : 526.18109 : 1"
       inkscape:vp_y="0 : 1000 : 0"
       inkscape:vp_z="744.09448 : 526.18109 : 1"
       inkscape:persp3d-origin="372.04724 : 350.78739 : 1"
       id="perspective4998" />
    <inkscape:perspective
       sodipodi:type="inkscape:persp3d"
       inkscape:vp_x="0 : 526.18109 : 1"
       inkscape:vp_y="0 : 1000 : 0"
       inkscape:vp_z="744.09448 : 526.18109 : 1"
       inkscape:persp3d-origin="372.04724 : 350.78739 : 1"
       id="perspective2560" />
    <inkscape:perspective
       sodipodi:type="inkscape:persp3d"
       inkscape:vp_x="0 : 526.18109 : 1"
       inkscape:vp_y="0 : 1000 : 0"
       inkscape:vp_z="744.09448 : 526.18109 : 1"
       inkscape:persp3d-origin="372.04724 : 350.78739 : 1"
       id="perspective2992" />
  </defs>
  <sodipodi:namedview
     inkscape:window-maximized="0"
     inkscape:document-rotation="0"
     inkscape:guide-bbox="true"
     showguides="true"
     inkscape:window-y="25"
     inkscape:window-x="0"
     inkscape:window-height="713"
     inkscape:window-width="1280"
     showgrid="false"
     inkscape:current-layer="layer3"
     inkscape:document-units="px"
     inkscape:cy="94.386198"
     inkscape:cx="201.48791"
     inkscape:zoom="3.1474548"
     inkscape:pageshadow="2"
     inkscape:pageopacity="0.0"
     objecttolerance="10"
     guidetolerance="10"
     gridtolerance="10000"
     borderopacity="1.0"
     bordercolor="#666666"
     pagecolor="#ffffff"
     id="base" />
  <metadata
     id="metadata7">
    <rdf:RDF>
      <cc:Work
         rdf:about="">
        <dc:format>image/svg+xml</dc:format>
        <dc:type
           rdf:resource="http://purl.org/dc/dcmitype/StillImage" />
      </cc:Work>
    </rdf:RDF>
  </metadata>
  <g
     style="opacity:1"
     inkscape:label="Main"
     id="layer3"
     inkscape:groupmode="layer">
    <g
       transform="translate(-2.5301205,0)"
       id="g3369">
      <g
         id="g3351"
         transform="matrix(0.9985421,5.3979154e-2,-5.3979154e-2,0.9985421,6.0829089,-27.518744)">
        <path
           sodipodi:nodetypes="csssscccc"
           id="path8117"
           d="M 137.15432,305.29546 C 137.15432,305.29546 125.38302,297.25642 125.25831,292.54219 C 125.21957,291.07757 126.87204,290.40684 127.35035,289.022 C 127.91677,287.38208 128.06932,285.67614 126.94031,284.35876 C 125.15051,282.27036 120.82687,283.05361 118.18104,283.80486 C 114.64894,284.80776 108.94329,290.65352 108.94329,290.65352 L 108.03352,299.79457 L 121.33251,310.55537 L 137.15432,305.29546 z"
           style="fill:#214263;fill-opacity:1;fill-rule:evenodd;stroke:#000000;stroke-width:3.00000024;stroke-linecap:butt;stroke-linejoin:miter;stroke-miterlimit:4;stroke-dasharray:none;stroke-opacity:1" />
        <path
           sodipodi:nodetypes="csssscsscscsscsssssscsssssssscscccsscssssccscccsccsccssccscsssssscssssssssscssscssssssscccc"
           id="path8042"
           d="M 269.5756,322.98911 C 269.5756,322.98911 231.65403,318.72537 215.432,319.95492 C 211.5604,320.24836 206.05793,320.55854 202.76669,322.61845 C 199.88235,324.42369 197.15373,328.45276 195.81595,331.58145 C 194.33252,335.0508 192.17005,340.69611 193.95513,344.02034 C 195.58606,347.05748 204.36785,348.88049 204.36785,348.88049 C 204.36785,348.88049 196.26413,351.88763 192.82134,351.11574 C 190.27956,350.54586 187.36043,348.08243 185.81727,345.98386 C 184.65776,344.40704 183.70534,339.81099 183.70534,339.81099 C 183.70534,339.81099 180.60508,343.22052 178.59911,343.75748 C 175.9303,344.47187 170.00688,343.70343 170.00688,343.70343 C 170.00688,343.70343 172.47412,341.27223 173.39283,340.22665 C 174.95735,338.44608 176.39128,335.99884 176.83671,333.67081 C 177.10602,332.26333 175.36398,329.12681 175.36398,329.12681 C 175.36398,329.12681 174.75015,331.99507 174.19077,333.10724 C 172.99595,335.48283 170.92217,338.51055 168.85901,340.18819 C 167.69592,341.13395 165.24113,341.12011 164.33806,342.31665 C 163.12878,343.91889 162.23793,344.67945 162.79999,346.60653 C 163.23045,348.0824 163.84945,349.99683 165.31622,350.45733 C 166.27382,350.75797 168.42964,351.59306 169.29739,351.08868 C 170.0194,350.669 171.82752,349.93191 171.82752,349.93191 C 171.82752,349.93191 170.88451,352.89789 168.98606,354.71591 C 167.95449,355.70377 166.14805,355.89337 165.18752,356.13733 C 164.68958,356.26378 162.7764,357.09554 160.72232,356.00776 C 158.72509,354.95009 156.99256,352.94212 156.69623,352.53996 C 156.69623,352.53996 153.69632,349.39329 153.11355,347.67767 C 152.22032,345.04808 152.33661,341.13548 152.92939,338.42233 C 153.25987,336.90972 154.91415,335.3016 155.17473,333.77539 C 155.3907,332.51046 154.41645,330.77686 154.69711,329.52468 C 155.00756,328.13962 154.94743,328.20677 154.94743,328.20677 C 154.94743,328.20677 155.73295,329.25391 154.59585,331.3336 C 153.33598,333.63783 149.7969,339.54489 149.7969,339.54489 L 145.96823,334.57595 L 145.20983,329.38094 C 145.20983,329.38094 144.92017,327.63435 145.42479,327.22434 C 145.9649,326.78548 147.11386,327.79254 147.73135,327.47156 C 149.25895,326.67751 148.90492,323.4909 148.90492,323.4909 C 148.90492,323.4909 149.05482,326.63832 147.50063,327.43654 C 146.9338,327.72766 145.83517,326.81974 145.38322,327.26894 C 143.74962,328.89261 145.10053,331.39389 145.94237,334.92606 C 146.55414,337.49296 147.9593,339.99941 147.24311,341.60422 C 146.59636,343.05342 142.74519,344.38841 142.74519,344.38841 L 130.80389,340.86876 C 130.80389,340.86876 127.10631,337.68402 126.68522,335.76119 C 126.00557,332.65776 127.43572,324.40984 127.43572,324.40984 L 126.60989,324.27447 L 121.86474,329.36522 C 121.86474,329.36522 122.44109,336.59452 120.19708,337.95876 C 118.60144,338.92883 114.22643,336.19894 114.22643,336.19894 L 103.07288,327.07108 C 103.07288,327.07108 102.25203,323.26559 102.88857,321.82527 C 103.85163,319.64611 108.94517,316.68845 108.94517,316.68845 L 103.6072,314.24987 C 103.6072,314.24987 97.282709,317.95497 94.519199,317.19531 C 93.170422,316.82455 92.074644,314.93992 91.441714,313.6925 C 90.218896,311.28247 89.491374,304.89781 89.491374,304.89781 L 98.457966,289.15418 C 98.457966,289.15418 102.14405,288.50728 103.38742,289.30925 C 106.01591,291.00462 107.98371,298.66751 107.98371,298.66751 C 107.98371,298.66751 117.73266,303.51645 122.27765,303.74582 C 127.09709,303.98905 133.11056,300.50472 137.89987,299.91425 C 141.12479,299.51664 145.54207,299.23764 148.73086,299.86196 C 149.89791,300.09045 151.43141,300.67758 152.39496,301.37456 C 154.43741,302.85195 156.53433,305.6104 157.87116,307.7475 C 159.16026,309.8083 159.57808,313.27883 161.08688,315.18467 C 161.86921,316.17286 164.45766,317.69238 164.45766,317.69238 C 164.45766,317.69238 159.43052,310.62306 157.53178,307.43116 C 155.19113,303.49635 153.43968,297.39344 150.49068,293.89132 C 149.5897,292.82134 147.40045,292.3212 146.78052,291.06727 C 145.60203,288.68352 145.82068,284.67675 146.79735,282.20344 C 146.95071,281.81508 147.76104,281.6026 147.74637,281.1853 C 147.69261,279.6552 144.80475,279.01606 144.01317,277.70553 C 142.23584,274.76299 140.9993,270.088 140.9986,266.65034 C 140.99798,263.6619 141.57165,259.21911 143.61528,257.03865 C 145.23337,255.31222 148.71225,254.59623 151.07549,254.47865 C 154.4378,254.31135 161.99865,257.04926 161.99865,257.04926 C 161.99865,257.04926 156.41042,258.16206 154.53844,259.60927 C 153.19881,260.64492 151.61391,262.63228 151.42108,264.31454 C 151.31475,265.24216 152.00336,266.44541 152.50835,267.23075 C 154.69278,270.62783 162.03411,276.74407 162.03411,276.74407 C 162.03411,276.74407 170.35824,273.94353 174.06135,273.36708 C 178.72927,272.64045 185.09889,272.33601 189.79877,272.81413 C 192.34076,273.07274 195.66139,273.98546 198.07598,274.82118 C 200.98754,275.8289 204.33837,278.97834 207.41741,279.0887 C 209.28359,279.15559 211.56798,277.72565 213.24983,276.91417 C 215.07505,276.03351 217.67878,274.93302 219.03616,273.42819 C 220.26536,272.06547 272.06629,251.93494 256.42225,242.51992 L 223.80054,222.88728 L 273.59498,250.04517 L 297.51039,282.07773 L 269.5756,322.98911 z"
           style="fill:#214263;fill-opacity:1;fill-rule:evenodd;stroke:#000000;stroke-width:3.00000024;stroke-linecap:butt;stroke-linejoin:miter;stroke-miterlimit:4;stroke-dasharray:none;stroke-opacity:1" />
        <path
           sodipodi:nodetypes="css"
           id="path8120"
           d="M 148.06025,280.42895 C 148.06025,280.42895 151.36466,282.04051 152.88806,282.39259 C 154.28561,282.71559 157.65831,282.71728 157.65831,282.71728"
           style="fill:none;fill-rule:evenodd;stroke:#000000;stroke-width:2.50000024;stroke-linecap:butt;stroke-linejoin:miter;stroke-miterlimit:4;stroke-dasharray:none;stroke-opacity:1" />
        <path
           sodipodi:nodetypes="csss"
           id="path8122"
           d="M 163.12178,288.76103 C 163.12178,288.76103 160.19913,287.00006 158.7914,286.944 C 157.20451,286.8808 154.93905,287.53086 153.76248,288.59758 C 152.50723,289.73562 151.48256,293.7647 151.48256,293.7647"
           style="fill:none;fill-rule:evenodd;stroke:#000000;stroke-width:2.50000024;stroke-linecap:butt;stroke-linejoin:miter;stroke-miterlimit:4;stroke-dasharray:none;stroke-opacity:1" />
        <path
           sodipodi:nodetypes="csss"
           id="path8124"
           d="M 164.24336,292.65995 C 164.24336,292.65995 160.86936,291.85868 159.64278,292.49341 C 157.82431,293.43444 156.63047,296.28933 155.90509,298.20406 C 155.51534,299.23283 155.37619,301.83279 155.37619,301.83279"
           style="fill:none;fill-rule:evenodd;stroke:#000000;stroke-width:2.50000024;stroke-linecap:butt;stroke-linejoin:miter;stroke-miterlimit:4;stroke-dasharray:none;stroke-opacity:1" />
        <path
           sodipodi:nodetypes="csss"
           id="path8126"
           d="M 168.20299,297.93605 C 168.20299,297.93605 164.34429,297.96361 162.98137,298.77591 C 161.72058,299.52735 160.53584,301.28856 159.99981,302.65491 C 159.29334,304.45576 159.40492,309.07562 159.40492,309.07562"
           style="fill:none;fill-rule:evenodd;stroke:#000000;stroke-width:2.50000024;stroke-linecap:butt;stroke-linejoin:miter;stroke-miterlimit:4;stroke-dasharray:none;stroke-opacity:1" />
        <path
           sodipodi:nodetypes="css"
           id="path8128"
           d="M 126.454,324.01758 C 126.454,324.01758 129.45114,321.40525 130.6001,320.58996 C 132.16545,319.47921 136.98626,320.20148 136.98626,320.20148"
           style="fill:none;fill-rule:evenodd;stroke:#000000;stroke-width:2.50000024;stroke-linecap:butt;stroke-linejoin:miter;stroke-miterlimit:4;stroke-dasharray:none;stroke-opacity:1" />
        <path
           sodipodi:nodetypes="csc"
           id="path8130"
           d="M 110.59026,316.206 C 110.59026,316.206 112.38332,314.12399 113.45975,313.80781 C 114.94201,313.37244 118.5693,314.44877 118.5693,314.44877"
           style="fill:none;fill-rule:evenodd;stroke:#000000;stroke-width:2.50000024;stroke-linecap:butt;stroke-linejoin:miter;stroke-miterlimit:4;stroke-dasharray:none;stroke-opacity:1" />
        <path
           sodipodi:nodetypes="cscsssss"
           id="path8162"
           d="M 111.80092,290.66686 C 110.2493,289.48855 109.50591,286.67668 108.09338,285.33477 C 105.96387,283.31172 99.778881,280.16455 99.778881,280.16455 C 99.778881,280.16455 104.86181,279.17465 107.036,279.42402 C 109.66821,279.72592 113.40075,280.5374 115.39081,282.2865 C 116.92013,283.63065 118.45343,286.33628 118.39649,288.37156 C 118.35948,289.69427 117.4634,291.74449 116.22505,292.21082 C 114.90949,292.70622 112.92044,291.51702 111.80092,290.66686 z"
           style="fill:#848401;fill-rule:evenodd;stroke:#000000;stroke-width:2.50000024;stroke-linecap:butt;stroke-linejoin:miter;stroke-miterlimit:4;stroke-dasharray:none;stroke-opacity:1" />
        <path
           sodipodi:nodetypes="cssssssscsssss"
           id="path8164"
           d="M 96.792754,295.45084 C 97.910906,296.42871 99.007788,298.20037 99.481117,299.62379 C 99.965022,301.07896 100.62103,303.38336 99.86383,304.77339 C 99.380973,305.6598 97.911695,306.22281 96.93454,306.41906 C 96.236556,306.55923 95.264664,306.37325 94.612498,306.13013 C 93.235819,305.6169 92.020037,303.70335 90.572942,303.40673 C 89.306674,303.14719 87.461485,303.61252 86.262496,304.18178 C 84.566867,304.98684 83.650934,305.22151 82.501713,306.71949 C 81.621864,307.86637 79.938765,312.24919 79.938765,312.24919 C 79.938765,312.24919 77.866367,307.25241 77.95066,305.18642 C 78.073843,302.16762 79.124097,299.23358 81.323296,297.07725 C 82.712356,295.71528 85.313434,294.80488 87.190067,294.41871 C 89.505733,293.94219 92.730449,294.0756 94.990383,294.60437 C 95.575906,294.74137 96.344856,295.05913 96.792754,295.45084 z"
           style="fill:#848401;fill-opacity:1;fill-rule:evenodd;stroke:#000000;stroke-width:2.50000024;stroke-linecap:butt;stroke-linejoin:miter;stroke-miterlimit:4;stroke-dasharray:none;stroke-opacity:1" />
        <path
           sodipodi:nodetypes="csssscsss"
           id="path8166"
           d="M 108.41637,325.96088 C 109.27397,325.84439 110.50983,326.28032 111.16052,326.85096 C 112.76647,328.25933 114.54779,331.16783 114.22256,333.27894 C 113.97576,334.88087 111.86901,336.30506 110.53874,337.23106 C 108.5606,338.60804 105.50274,339.93048 103.12548,340.32772 C 100.92665,340.69514 95.709889,339.84839 95.709889,339.84839 C 95.709889,339.84839 100.0166,336.86111 101.33831,335.08807 C 102.56381,333.44411 102.75722,330.39479 104.0778,328.82619 C 105.08237,327.63295 106.87076,326.17083 108.41637,325.96088 z"
           style="fill:#848401;fill-opacity:1;fill-rule:evenodd;stroke:#000000;stroke-width:2.50000024;stroke-linecap:butt;stroke-linejoin:miter;stroke-miterlimit:4;stroke-dasharray:none;stroke-opacity:1" />
        <path
           sodipodi:nodetypes="cssssscssss"
           id="path8168"
           d="M 137.31215,337.64679 C 139.20566,337.22378 141.67404,339.3346 142.97121,340.77739 C 144.08215,342.01305 144.39955,343.26067 144.34994,344.92157 C 144.28476,347.10407 142.75964,349.99782 141.12647,351.44708 C 140.11194,352.34736 138.21647,352.85775 136.86346,352.9533 C 135.27124,353.06574 133.88007,353.51005 132.42103,352.86276 C 130.7374,352.11584 127.48363,349.21356 127.48363,349.21356 C 127.48363,349.21356 131.49489,348.95879 132.86807,348.03787 C 134.36035,347.03708 135.89948,344.8671 136.27096,343.10912 C 136.47202,342.15758 135.45445,340.87357 135.6658,339.92426 C 135.84903,339.10134 136.48937,337.83059 137.31215,337.64679 z"
           style="fill:#848401;fill-opacity:1;fill-rule:evenodd;stroke:#000000;stroke-width:2.50000024;stroke-linecap:butt;stroke-linejoin:miter;stroke-miterlimit:4;stroke-dasharray:none;stroke-opacity:1" />
      </g>
      <g
         id="g3408"
         transform="matrix(0.6657292,-0.7461935,0.7461935,0.6657292,-307.59483,389.16572)">
        <path
           sodipodi:nodetypes="cssscsccc"
           id="path3264"
           d="M 510.84293,71.577612 C 510.84293,71.577612 521.53173,65.487128 526.33461,66.439722 C 527.79664,66.729701 528.2193,68.801089 530.09648,69.685174 C 532.11499,70.635828 536.38012,73.002475 538.27814,71.829593 C 540.22007,70.629575 541.54949,64.959392 541.54949,64.959392 C 541.54949,64.959392 540.55385,56.337956 538.31277,53.589178 C 535.87133,50.594652 526.89003,47.640587 526.89003,47.640587 L 518.04354,53.490725 L 510.84293,71.577612 z"
           style="opacity:1;fill:#214263;fill-opacity:1;fill-rule:evenodd;stroke:#000000;stroke-width:3.00000024;stroke-linecap:butt;stroke-linejoin:miter;stroke-miterlimit:4;stroke-dasharray:none;stroke-opacity:1" />
        <path
           sodipodi:nodetypes="csscsscssscscssscsssscssscsccsccccsccscccccccsscsscssssccc"
           id="path3269"
           d="M 563.22262,215.8068 C 563.22262,215.8068 500.35677,238.07481 466.21693,204.21562 C 459.94275,197.99303 454.67455,186.60432 452.88245,177.95133 C 451.97844,173.58641 453.79348,163.1208 453.79348,163.1208 C 453.79348,163.1208 445.82897,160.76913 442.77721,162.07575 C 440.53664,163.03507 438.75608,166.23808 437.75037,168.45821 C 436.66142,170.86212 436.14478,177.10731 436.14478,177.10731 C 436.14478,177.10731 432.03906,170.10165 431.96197,166.75211 C 431.88062,163.21816 434.03797,158.6598 435.86772,155.63532 C 437.54405,152.86443 439.89981,150.94845 442.98853,149.97492 C 445.2398,149.26535 450.64199,148.62216 450.64199,148.62216 C 450.64199,148.62216 452.24529,139.80772 453.44029,135.85938 C 454.48759,132.39904 458.1747,124.77713 458.1747,124.77713 C 458.1747,124.77713 455.54887,123.2542 454.29342,123.00402 C 453.17051,122.78025 451.54845,122.72865 450.47916,123.13804 C 448.95518,123.72151 446.63987,125.02908 446.30538,126.62629 C 445.95089,128.31893 448.87356,131.78714 448.87356,131.78714 C 448.87356,131.78714 445.60164,132.24002 444.56577,131.46113 C 442.39531,129.82912 441.00613,125.66589 441.40353,122.97955 C 441.99888,118.95502 446.18099,114.367 449.61707,112.18878 C 451.7038,110.86596 455.20196,110.42283 457.67212,110.47365 C 460.20774,110.52581 465.8612,112.57277 465.8612,112.57277 C 465.8612,112.57277 465.94343,106.64736 467.00676,104.4172 C 467.79077,102.77288 470.30573,101.59113 471.14704,99.975385 C 472.23719,97.881752 471.25577,94.076983 472.78613,92.279848 C 477.3054,86.972793 494.45012,83.880718 494.45012,83.880718 C 494.45012,83.880718 481.46219,88.492014 476.39937,86.424434 C 474.11975,85.493475 471.39701,79.916993 471.39701,79.916993 L 476.68285,67.319609 C 476.68285,67.319609 480.14681,64.417861 481.8437,64.751421 C 485.83563,65.536126 490.79435,74.939102 490.79435,74.939102 L 486.21851,66.984565 L 493.11897,59.581533 L 500.84801,62.174199 C 500.84801,62.174199 491.57582,59.623805 489.66423,56.361318 C 488.5765,54.504902 489.88972,49.192822 489.88972,49.192822 L 498.2708,43.169883 C 498.2708,43.169883 503.02208,41.276568 504.45222,42.475323 C 508.29282,45.694555 505.51533,59.145973 505.51533,59.145973 L 506.06684,47.669683 L 510.80117,46.54859 L 511.16972,57.037817 L 511.2612,46.055054 L 516.81508,41.086197 L 518.78922,42.92632 C 518.78922,42.92632 515.96366,38.519267 516.34087,36.647392 C 516.7825,34.45579 518.29819,32.144259 520.4588,31.569867 C 523.80143,30.681241 531.25773,35.486779 531.25773,35.486779 C 531.25773,35.486779 537.37961,40.756753 537.43401,43.703335 C 537.48023,46.206539 536.24609,48.426169 534.31431,50.018779 C 532.70639,51.344392 527.53067,51.689246 527.53067,51.689246 C 527.53067,51.689246 520.96392,62.270635 519.16679,67.25901 C 517.07243,73.072466 515.53202,81.287154 515.10255,87.451422 C 514.69459,93.307026 516.69573,101.12871 516.26618,106.98277 C 515.60825,115.94926 509.69881,130.72911 507.23136,139.37448 C 504.09487,150.36401 507.7124,168.25228 507.7124,168.25228 L 571.35155,209.39961 C 571.35155,209.39961 563.22262,215.8068 563.22262,215.8068 z"
           style="opacity:1;fill:#214263;fill-opacity:1;fill-rule:evenodd;stroke:#000000;stroke-width:3.00000024;stroke-linecap:butt;stroke-linejoin:miter;stroke-miterlimit:4;stroke-dasharray:none;stroke-opacity:1" />
        <path
           sodipodi:nodetypes="csss"
           id="path3283"
           d="M 449.90509,149.18247 C 449.90509,149.18247 455.39521,149.09611 457.55161,148.9138 C 459.3068,148.7654 461.6869,148.66437 463.4229,148.96271 C 464.4732,149.1432 466.78117,150.1207 466.78117,150.1207"
           style="opacity:1;fill:none;fill-rule:evenodd;stroke:#000000;stroke-width:2.50000024;stroke-linecap:butt;stroke-linejoin:miter;stroke-miterlimit:4;stroke-dasharray:none;stroke-opacity:1" />
        <path
           sodipodi:nodetypes="cssss"
           id="path3285"
           d="M 457.97525,124.65504 C 457.97525,124.65504 461.17505,125.96449 462.38888,126.79675 C 464.17373,128.02053 465.66158,130.89866 467.66567,131.71532 C 470.07891,132.69872 473.76881,132.28132 476.34964,131.9206 C 478.0776,131.67908 481.90336,130.19427 481.90336,130.19427"
           style="opacity:1;fill:none;fill-rule:evenodd;stroke:#000000;stroke-width:2.50000024;stroke-linecap:butt;stroke-linejoin:miter;stroke-miterlimit:4;stroke-dasharray:none;stroke-opacity:1" />
        <path
           sodipodi:nodetypes="cs"
           id="path3287"
           d="M 465.1919,112.15194 C 465.1919,112.15194 469.0414,115.7908 471.95785,115.96304"
           style="opacity:1;fill:none;fill-rule:evenodd;stroke:#000000;stroke-width:2.50000024;stroke-linecap:butt;stroke-linejoin:miter;stroke-miterlimit:4;stroke-dasharray:none;stroke-opacity:1" />
        <path
           sodipodi:nodetypes="css"
           id="path3289"
           d="M 486.96872,92.67289 C 486.96872,92.67289 478.16568,106.25546 478.87159,113.43595 C 479.36976,118.50326 484.54911,125.51441 484.54911,125.51441"
           style="opacity:1;fill:none;fill-rule:evenodd;stroke:#000000;stroke-width:2.50000024;stroke-linecap:butt;stroke-linejoin:miter;stroke-miterlimit:4;stroke-dasharray:none;stroke-opacity:1" />
        <path
           sodipodi:nodetypes="csssssscssss"
           id="path3291"
           d="M 534.77114,57.377979 C 533.82199,58.595245 533.04099,60.73525 533.18366,62.272223 C 533.29268,63.446719 534.03988,65.140519 535.06442,65.725028 C 536.43897,66.509226 537.87288,67.114315 539.31982,66.473433 C 543.24279,64.735859 547.15673,61.47833 548.90347,57.559424 C 550.22568,54.59299 550.72432,49.81308 549.62359,46.757537 C 549.11694,45.351086 548.59942,44.065449 547.30352,43.320171 C 546.00007,42.570557 542.39384,41.293375 542.39384,41.293375 C 542.39384,41.293375 543.98634,44.39652 544.09353,45.852187 C 544.21333,47.479011 543.68111,49.706741 542.96081,51.170313 C 542.05396,53.012892 540.41324,53.471902 538.85976,54.815094 C 537.76469,55.761928 535.6613,56.236365 534.77114,57.377979 z"
           style="opacity:1;fill:#848401;fill-rule:evenodd;stroke:#000000;stroke-width:2.50000024;stroke-linecap:butt;stroke-linejoin:miter;stroke-miterlimit:4;stroke-dasharray:none;stroke-opacity:1" />
        <path
           sodipodi:nodetypes="cssssssssssc"
           id="path3293"
           d="M 518.15711,21.251583 C 518.15711,21.251583 522.38635,17.932294 525.30554,18.141315 C 528.24686,18.351919 532.14916,20.152638 534.24625,22.225783 C 535.67475,23.637956 536.9009,26.284653 537.09827,28.283621 C 537.47561,32.105351 536.75393,36.382874 534.6363,39.586575 C 533.74865,40.929487 532.55342,42.529521 531.01787,43.012663 C 529.25223,43.568197 527.28344,42.895305 525.91169,41.652561 C 524.92948,40.762721 524.8601,38.176274 524.86326,36.850932 C 524.87138,33.436127 528.51386,30.192177 527.81083,26.850508 C 527.59194,25.810059 526.69784,24.588318 525.94551,23.837025 C 525.2726,23.165052 524.05716,22.671763 523.24786,22.172364 C 522.03392,21.423267 518.15711,21.251583 518.15711,21.251583 z"
           style="opacity:1;fill:#848401;fill-opacity:1;fill-rule:evenodd;stroke:#000000;stroke-width:2.50000024;stroke-linecap:butt;stroke-linejoin:miter;stroke-miterlimit:4;stroke-dasharray:none;stroke-opacity:1" />
        <path
           sodipodi:nodetypes="cssssssscsss"
           id="path3295"
           d="M 492.96699,49.188084 C 493.78865,49.710301 494.9136,50.768504 495.87658,50.625364 C 497.26321,50.419245 498.79241,48.739847 499.28308,47.426648 C 499.97698,45.569507 500.41927,43.914885 499.53716,42.139399 C 499.03927,41.137252 494.9275,38.599791 493.89904,38.158824 C 491.34221,37.062551 489.26344,36.86619 486.62715,37.754533 C 484.2265,38.563465 481.31579,40.972631 480.2226,43.257892 C 479.36707,45.046335 479.62651,47.918956 480.01482,49.863097 C 480.25226,51.051881 481.68364,53.543273 481.68364,53.543273 C 481.68364,53.543273 483.84254,48.681025 485.64878,47.465838 C 486.70114,46.757841 488.56742,46.357633 489.79915,46.660221 C 490.97988,46.950286 491.94086,48.535907 492.96699,49.188084 z"
           style="opacity:1;fill:#848401;fill-opacity:1;fill-rule:evenodd;stroke:#000000;stroke-width:2.50000024;stroke-linecap:butt;stroke-linejoin:miter;stroke-miterlimit:4;stroke-dasharray:none;stroke-opacity:1" />
        <path
           sodipodi:nodetypes="csssssscsss"
           id="path3297"
           d="M 477.83071,69.073772 C 479.38332,69.255194 480.3673,72.039102 480.40904,73.601714 C 480.45317,75.253534 479.30063,77.584963 477.94293,78.526828 C 476.42207,79.581878 473.62377,79.541065 471.80791,79.18225 C 469.25623,78.67804 465.78541,77.101944 464.18514,75.051474 C 462.48224,72.86949 461.55148,68.861757 461.89177,66.114917 C 462.25883,63.152078 464.48555,59.434407 466.64293,57.370701 C 467.58149,56.47289 470.53506,55.474502 470.53506,55.474502 C 470.53506,55.474502 468.47122,59.427243 468.53913,61.262819 C 468.6333,63.808038 470.21505,67.145678 471.8922,69.062494 C 472.77139,70.067312 476.9045,68.965547 477.83071,69.073772 z"
           style="opacity:1;fill:#848401;fill-opacity:1;fill-rule:evenodd;stroke:#000000;stroke-width:2.50000024;stroke-linecap:butt;stroke-linejoin:miter;stroke-miterlimit:4;stroke-dasharray:none;stroke-opacity:1" />
      </g>
      <g
         id="g3524"
         transform="matrix(0.9991947,4.0125333e-2,-4.0125333e-2,0.9991947,-776.70066,74.904763)">
        <path
           sodipodi:nodetypes="csssccccss"
           id="path3426"
           d="M 823.32114,58.238612 C 824.61141,58.012389 826.4729,58.124611 827.66693,58.663367 C 828.61542,59.091323 829.67853,60.130346 830.20418,61.028375 C 831.61065,63.431222 831.19145,67.536802 832.39774,70.046119 C 834.35965,74.127332 841.62359,81.99274 841.62359,81.99274 L 824.29752,83.972956 L 810.05056,72.924563 L 811.4883,66.594291 C 811.4883,66.594291 814.24972,62.975688 815.79589,61.823356 C 817.80093,60.329035 820.85808,58.670458 823.32114,58.238612 z"
           style="opacity:1;fill:#214263;fill-opacity:1;fill-rule:evenodd;stroke:#000000;stroke-width:3;stroke-linecap:butt;stroke-linejoin:miter;stroke-miterlimit:4;stroke-dasharray:none;stroke-opacity:1" />
        <path
           id="path3428"
           d="M 823.3262,58.382797 L 823.3262,58.382797 z"
           style="opacity:1;fill:#f8c300;fill-opacity:1;fill-rule:evenodd;stroke:#000000;stroke-width:1px;stroke-linecap:butt;stroke-linejoin:miter;stroke-opacity:1" />
        <path
           sodipodi:nodetypes="cccccsccsccsssssccssssccssscsccscsscscssscscssssccc"
           id="path3432"
           d="M 980.46929,27.152631 L 913.66344,40.207039 L 844.8663,70.662335 L 825.59047,79.611052 L 820.25063,76.315955 C 820.25063,76.315955 816.31829,69.109777 813.40778,67.414264 C 811.4609,66.280109 805.97031,66.369581 805.97031,66.369581 L 800.43306,82.236334 C 800.43306,82.236334 801.23075,86.18436 802.3556,87.392844 C 803.54868,88.674643 807.66488,89.818341 807.66488,89.818341 L 813.24093,87.445715 C 813.91022,86.727679 829.58867,87.839345 832.3107,89.237122 C 832.96751,89.574392 834.31733,88.098031 833.9888,87.436801 C 833.63045,86.715497 831.16635,87.870974 829.08343,87.88809 C 826.36552,87.910421 824.90212,88.785552 823.66383,88.700859 C 818.91532,88.376058 818.82782,88.934413 815.55243,91.282552 C 814.12924,92.302839 813.12695,96.59184 813.12695,96.59184 L 825.85138,111.81696 C 825.85138,111.81696 832.74871,113.50345 834.9975,111.93094 C 837.63931,110.0836 836.89072,104.55117 838.55935,101.793 C 839.80144,99.739877 842.01082,94.619598 844.01317,95.941964 C 845.91493,97.1979 840.14636,98.421534 838.26097,101.6182 C 835.94499,105.54493 837.15624,111.41975 837.15624,111.41975 L 842.58774,117.32365 C 842.58774,117.32365 853.98402,117.97459 858.21006,115.90406 C 858.87309,115.57921 859.81419,114.83837 859.88816,114.10375 C 860.0428,112.56792 861.64091,108.04308 860.2826,106.16422 C 858.6065,103.84577 855.50856,102.54179 855.50856,102.54179 C 855.50856,102.54179 854.76761,102.84217 855.73649,102.62004 C 857.89549,102.12505 860.48277,106.24676 860.48277,106.24676 L 870.64304,98.053675 C 870.64304,98.053675 871.33961,100.64309 871.1585,101.7471 C 870.85076,103.62306 868.32341,107.41427 868.32341,107.41427 C 868.32341,107.41427 874.7289,106.40228 877.94731,104.50197 C 880.33149,103.09423 884.86194,100.00142 886.01244,97.483006 C 886.77945,95.804065 887.93315,94.231485 887.93315,94.231485 C 887.93315,94.231485 888.55926,99.861367 887.51676,103.09082 C 886.89045,105.03104 884.30113,107.80385 884.30113,107.80385 C 884.30113,107.80385 888.01467,107.86571 891.16056,107.05823 C 894.02969,106.32178 896.31691,104.72751 897.06941,104.38594 C 897.21649,104.31918 900.77517,102.42403 903.0908,98.074676 C 905.27498,93.97226 904.03496,94.168691 906.76516,92.638455 C 907.46572,92.245802 907.79906,95.719696 907.08969,99.334886 C 906.4606,102.54097 904.81163,105.91109 904.84864,106.00585 C 908.34722,105.44104 918.61334,102.12941 922.73063,99.071169 C 929.63576,93.942163 932.14567,82.888017 933.59766,83.491243 C 939.8839,86.102826 955.80968,85.870539 960.94264,90.341569 C 965.87543,94.638249 977.49819,86.602569 983.57478,89.025159 C 993.31339,92.907709 1006.714,44.364609 1006.714,44.364609 L 995.25257,26.633207 L 980.46929,27.152631 z"
           style="opacity:1;fill:#214263;fill-opacity:1;fill-rule:evenodd;stroke:#000000;stroke-width:3;stroke-linecap:butt;stroke-linejoin:miter;stroke-miterlimit:4;stroke-dasharray:none;stroke-opacity:1" />
        <path
           sodipodi:nodetypes="csssscssssss"
           id="path3474"
           d="M 825.91971,63.654006 C 826.01158,60.781656 824.6893,57.838834 822.52091,55.952879 C 820.65603,54.330899 817.08365,53.801771 814.61852,53.623686 C 812.07037,53.439603 808.37521,53.510796 806.18873,54.832274 C 805.04474,55.523675 804.38063,56.343331 804.0717,57.643845 C 803.78044,58.869977 803.6882,61.567591 803.6882,61.567591 C 803.6882,61.567591 805.78836,59.87798 806.88327,59.760877 C 808.53,59.584762 810.68383,60.639112 812.15458,61.400459 C 813.68315,62.191746 815.25316,63.971524 816.70883,64.890024 C 817.72963,65.534125 819.10337,66.511363 820.29235,66.719251 C 821.56791,66.942282 823.50842,66.912604 824.57462,66.177761 C 825.28105,65.690885 825.89229,64.511508 825.91971,63.654006 z"
           style="opacity:1;fill:#848401;fill-rule:evenodd;stroke:#000000;stroke-width:2.5;stroke-linecap:butt;stroke-linejoin:miter;stroke-miterlimit:4;stroke-dasharray:none;stroke-opacity:1" />
        <path
           sodipodi:nodetypes="cssssscssssss"
           id="path3476"
           d="M 812.75589,74.804596 C 812.40229,76.312111 810.79806,78.096226 809.37363,78.70337 C 808.11079,79.241644 806.07597,78.988106 804.80355,78.472921 C 803.16351,77.808894 802.03267,75.181552 800.36575,74.588231 C 798.37769,73.8806 795.36052,74.240042 793.33595,74.835224 C 792.0104,75.224905 790.32076,76.18002 789.37807,77.190109 C 788.16088,78.494334 786.69704,82.498005 786.69704,82.498005 C 786.69704,82.498005 785.39593,74.964036 786.59147,72.074327 C 787.54317,69.774016 790.34212,67.479321 792.51332,66.261529 C 794.46533,65.166682 797.51136,64.504231 799.74862,64.443199 C 801.83333,64.386343 804.70156,64.84711 806.57296,65.767526 C 808.35895,66.645935 810.50768,68.45894 811.54977,70.154658 C 812.30431,71.382487 813.08499,73.401532 812.75589,74.804596 z"
           style="opacity:1;fill:#848401;fill-rule:evenodd;stroke:#000000;stroke-width:2.5;stroke-linecap:butt;stroke-linejoin:miter;stroke-miterlimit:4;stroke-dasharray:none;stroke-opacity:1" />
        <path
           sodipodi:nodetypes="csssssscssss"
           id="path3478"
           d="M 824.23161,104.64084 C 825.46889,102.99789 825.26598,100.77576 824.1651,99.038452 C 822.95192,97.123902 820.27524,94.686221 818.01208,94.562319 C 816.37789,94.472842 814.87763,96.74453 813.56092,97.716584 C 811.93822,98.914552 809.62837,100.36009 808.23052,101.81414 C 806.8005,103.30167 805.06311,105.5288 804.25681,107.42815 C 803.77151,108.57135 803.19299,110.28925 803.48733,111.4958 C 803.91156,113.23476 807.17148,116.18903 807.17148,116.18903 C 807.17148,116.18903 806.38488,112.10541 807.10498,110.58663 C 807.75123,109.22362 809.6571,108.0636 811.0354,107.45066 C 813.26759,106.45799 816.63479,106.31913 819.07008,106.12562 C 821.01943,105.97072 823.05523,106.20292 824.23161,104.64084 z"
           style="opacity:1;fill:#848401;fill-rule:evenodd;stroke:#000000;stroke-width:2.5;stroke-linecap:butt;stroke-linejoin:miter;stroke-miterlimit:4;stroke-dasharray:none;stroke-opacity:1" />
        <path
           sodipodi:nodetypes="cssscssssss"
           id="path3480"
           d="M 852.60948,114.72286 C 853.42349,116.9562 854.14829,119.31188 853.50281,121.59961 C 852.79746,124.0995 849.98758,126.912 847.59924,127.93314 C 846.08838,128.57911 844.43022,128.9981 842.8054,128.75329 C 841.09462,128.49552 837.27372,127.12286 837.27372,127.12286 C 837.27372,127.12286 840.06472,125.53899 841.09684,124.64236 C 842.30747,123.59066 844.11233,122.13503 844.6047,120.60884 C 845.24163,118.63455 843.17508,115.63834 843.97174,113.72292 C 844.46401,112.53936 845.99882,111.2005 847.26498,111.00036 C 848.6132,110.78726 850.47285,111.77175 851.49483,112.67654 C 852.01824,113.13993 852.37009,114.06606 852.60948,114.72286 z"
           style="opacity:1;fill:#848401;fill-rule:evenodd;stroke:#000000;stroke-width:2.5;stroke-linecap:butt;stroke-linejoin:miter;stroke-miterlimit:4;stroke-dasharray:none;stroke-opacity:1" />
      </g>
      <g
         id="g2507"
         transform="translate(-1.686747,0.8433735)">
        <g
           transform="matrix(0.8168394,0.5768652,-0.5768652,0.8168394,164.39684,-142.18342)"
           style="fill:#f8c300;fill-opacity:1"
           id="g3339">
          <path
             style="fill:#214263;fill-opacity:1;fill-rule:evenodd;stroke:#000000;stroke-width:3;stroke-linecap:butt;stroke-linejoin:miter;stroke-miterlimit:4;stroke-dasharray:none;stroke-opacity:1"
             d="M 289.05502,263.42538 C 284.86104,265.09265 280.43511,269.62058 277.47074,273.02378 C 275.85997,274.87299 273.16801,279.97435 273.16801,279.97435 C 273.16801,279.97435 279.6866,279.22605 282.43543,278.65043 C 287.88218,277.50986 294.75172,273.98918 300.30833,273.68574 C 305.23081,273.41693 311.78992,274.96627 316.52633,276.33358 C 321.91275,277.88853 333.73726,283.61513 333.73726,283.61513 C 333.73726,283.61513 322.60136,265.10745 314.54045,261.77048 C 307.46132,258.83994 296.17479,260.595 289.05502,263.42538 z"
             id="path3303"
             sodipodi:nodetypes="cscssscss" />
        </g>
        <path
           sodipodi:nodetypes="csssccccc"
           id="path7851"
           d="M 253.60855,371.89153 C 253.60855,371.89153 246.32604,366.51841 245.12992,363.04165 C 244.30974,360.6576 246.83309,357.0531 245.97962,354.68076 C 245.15868,352.39877 242.5193,349.79128 240.2261,349.0022 C 238.50698,348.41065 234.20667,349.70376 234.20667,349.70376 L 229.2182,361.1504 L 232.81063,365.76143 L 240.13105,372.33239 L 253.60855,371.89153 z"
           style="fill:#214263;fill-opacity:1;fill-rule:evenodd;stroke:#000000;stroke-width:3;stroke-linecap:butt;stroke-linejoin:miter;stroke-miterlimit:4;stroke-dasharray:none;stroke-opacity:1" />
        <path
           sodipodi:nodetypes="cssssssssscssscssscssscscscssccssccccscscccscccsscsscsscsscsscsssscssscsssscsscssssccc"
           id="path3268"
           d="M 164.66479,131.52254 C 164.66479,131.52254 134.93959,190.9827 140.07255,195.45374 C 145.00534,199.75041 173.3076,207.14948 179.38418,209.57207 C 189.1228,213.45462 210.02567,225.27779 219.89899,228.80375 C 227.32511,231.45577 237.3852,237.34729 244.19504,241.32304 C 251.71422,245.71291 262.61815,251.73224 267.02687,259.24039 C 269.75661,263.88921 271.16921,271.76957 269.82725,276.99088 C 267.79719,284.8894 258.06584,291.25291 252.57755,297.28501 C 251.66249,298.29074 248.67565,297.96131 245.9404,301.28765 C 243.09352,304.74978 240.48052,311.85332 238.74673,311.93708 C 235.70602,312.08399 230.31582,308.7095 230.31582,308.7095 C 230.31582,308.7095 230.76322,312.69057 233.09272,315.57962 C 234.94939,317.88227 238.63346,319.22863 239.6531,319.21894 C 242.19432,319.19477 245.64927,317.71082 246.43375,317.42868 C 250.42868,315.9919 256.08282,307.07686 256.08282,307.07686 C 256.08282,307.07686 245.58752,318.64248 245.38905,324.86614 C 245.30159,327.60881 247.6531,329.81908 247.19535,332.52469 C 246.70171,335.44235 245.89382,338.57178 242.94669,338.83778 C 238.65495,339.22511 232.9773,337.50976 232.9773,337.50976 C 232.9773,337.50976 235.46279,341.97223 239.51365,344.18246 C 242.03432,345.5578 245.13841,345.80353 247.83101,344.80594 C 253.77927,342.60214 260.80836,336.86668 264.34526,331.60087 C 266.41648,328.51719 267.84599,319.72372 267.84599,319.72372 C 267.84599,319.72372 261.48129,332.91763 262.85048,338.61881 C 263.80268,342.58368 269.47742,347.18582 269.47742,347.18582 C 269.47742,347.18582 262.32152,349.65904 258.96079,351.81564 C 253.65835,355.21823 246.04717,368.37692 246.04717,368.37692 C 246.04717,368.37692 237.93785,365.29016 234.97851,363.10642 C 233.04199,361.67742 231.85826,357.87355 229.54701,357.20252 C 227.87469,356.71699 223.94041,358.70553 223.94041,358.70553 L 219.7534,375.83085 C 219.7534,375.83085 221.91186,380.67997 223.86522,381.3458 C 227.15031,382.46554 231.34283,378.56054 235.00533,378.22525 C 238.62609,377.89377 245.9943,379.26225 245.9943,379.26225 L 232.77515,387.12747 L 232.08886,392.37565 L 242.44069,402.02473 C 242.44069,402.02473 249.26839,401.17701 251.04507,399.11037 C 253.4816,396.27619 253.22613,386.84424 253.22613,386.84424 C 253.22613,386.84424 255.67756,389.60365 256.30443,391.56986 C 257.08538,394.01934 255.81262,398.50752 255.81262,398.50752 L 260.76349,403.12229 L 270.80976,404.07533 C 270.80976,404.07533 275.17769,401.13983 275.42454,399.12446 C 275.86049,395.56537 269.62609,388.67289 269.62609,388.67289 L 280.66448,387.18619 L 282.54823,378.84856 C 282.54823,378.84856 285.76024,389.67162 289.54386,392.09828 C 291.97088,393.65487 296.42578,393.60447 299.14005,392.63177 C 301.40566,391.81987 305.04395,387.20027 305.04395,387.20027 C 305.04395,387.20027 300.75783,388.80562 298.98729,388.28376 C 297.3938,387.81408 294.9461,386.16927 294.93656,384.50803 C 294.91851,381.36472 302.51857,377.27621 302.51857,377.27621 C 302.51857,377.27621 309.09583,381.00195 312.237,381.28814 C 314.48084,381.49256 318.01062,381.338 319.58279,379.72401 C 321.2621,378.00004 321.04701,371.83646 321.04701,371.83646 C 321.04701,371.83646 319.07073,374.88183 317.22221,375.03745 C 315.34643,375.19535 311.85504,374.32977 311.06184,372.62265 C 309.55164,369.37238 312.82337,360.8066 312.82337,360.8066 C 312.82337,360.8066 319.80908,362.87462 322.94526,361.36008 C 324.18605,360.76087 326.35438,358.35695 326.62973,356.19057 C 327.04346,352.93544 326.42828,351.34654 326.42828,351.34654 C 326.42828,351.34654 324.51519,355.37696 322.20569,355.25288 C 319.87421,355.12761 316.69953,353.74442 315.12663,352.01889 C 312.45676,349.08994 310.73185,343.51015 310.77038,339.54713 C 310.81703,334.74816 313.32954,330.19499 314.97714,325.68746 C 315.45975,324.36716 316.59014,322.034 316.59014,322.034 C 316.59014,322.034 321.75649,326.2241 324.60392,327.09057 C 326.6018,327.69854 331.21121,326.90663 332.92177,325.70866 C 335.47812,323.91836 337.60311,319.08414 336.81917,316.0633 C 336.1684,313.5556 332.30795,311.49641 332.30795,311.49641 C 332.30795,311.49641 332.64737,315.54235 332.36633,317.32514 C 332.16684,318.59068 328.87802,319.36381 327.6441,319.70855 C 326.63643,319.99007 325.30878,318.67836 324.71345,317.81797 C 321.77074,313.56513 321.90286,306.83284 322.50061,301.69583 C 322.92569,298.04266 327.7711,290.62717 327.7711,290.62717 C 327.7711,290.62717 343.17809,291.10859 347.1005,292.39327 C 349.96497,293.33146 346.55962,292.23591 345.07965,287.81299 C 343.27556,282.42144 335.20033,279.04733 335.20033,279.04733 C 335.20033,279.04733 320.39265,265.12435 317.35933,260.79566 C 309.13235,249.05529 306.43083,238.29526 297.19414,227.33154 C 293.62431,223.09424 287.50892,216.3974 283.55734,212.51366 C 276.84209,205.91368 265.41571,196.64371 259.18329,189.58601 C 248.63745,177.64374 224.84891,150.43149 224.84891,150.43149 L 213.38746,132.70009 L 164.66479,131.52254 z"
           style="fill:#214263;fill-opacity:1;fill-rule:evenodd;stroke:#000000;stroke-width:3;stroke-linecap:butt;stroke-linejoin:miter;stroke-miterlimit:4;stroke-dasharray:none;stroke-opacity:1" />
        <path
           sodipodi:nodetypes="cssc"
           id="path7912"
           d="M 328.0822,291.36383 C 328.0822,291.36383 325.28199,284.56753 323.34635,281.58948 C 321.63696,278.95953 317.43983,277.06912 315.69811,274.46046 C 314.23764,272.27304 312.63532,266.2456 312.63532,266.2456"
           style="fill:none;fill-rule:evenodd;stroke:#000000;stroke-width:2.5;stroke-linecap:butt;stroke-linejoin:miter;stroke-miterlimit:4;stroke-dasharray:none;stroke-opacity:1" />
        <path
           sodipodi:nodetypes="cssscscss"
           id="path7914"
           d="M 303.51747,276.50669 C 303.51747,276.50669 307.6535,282.06596 308.20465,284.89567 C 309.03683,289.16821 305.76752,294.31754 305.73133,298.67022 C 305.70764,301.51948 306.53026,304.71407 306.07115,306.97476 C 305.67935,308.90393 303.77111,313.12029 303.77111,313.12029 C 303.77111,313.12029 308.29802,310.87852 309.9348,309.0157 C 310.56689,308.29632 314.65037,303.85713 314.65037,303.85713 C 314.65037,303.85713 313.2161,314.23961 314.46879,318.42785 C 314.84354,319.68076 316.90755,322.04103 316.90755,322.04103"
           style="fill:none;fill-rule:evenodd;stroke:#000000;stroke-width:2.5;stroke-linecap:butt;stroke-linejoin:miter;stroke-miterlimit:4;stroke-dasharray:none;stroke-opacity:1" />
        <path
           sodipodi:nodetypes="css"
           id="path7916"
           d="M 305.0536,349.35518 C 305.0536,349.35518 306.49475,354.4123 307.6501,356.31937 C 308.62987,357.9366 311.86509,361.00554 311.86509,361.00554"
           style="fill:none;fill-rule:evenodd;stroke:#000000;stroke-width:2.5;stroke-linecap:butt;stroke-linejoin:miter;stroke-miterlimit:4;stroke-dasharray:none;stroke-opacity:1" />
        <path
           sodipodi:nodetypes="cssc"
           id="path7918"
           d="M 299.57426,379.33726 C 299.57426,379.33726 302.17058,374.00218 302.56611,371.52343 C 303.0044,368.77666 302.93045,364.92068 302.11008,362.26289 C 301.80483,361.274 300.30817,359.32112 300.30817,359.32112"
           style="fill:none;fill-rule:evenodd;stroke:#000000;stroke-width:2.5;stroke-linecap:butt;stroke-linejoin:miter;stroke-miterlimit:4;stroke-dasharray:none;stroke-opacity:1" />
        <path
           sodipodi:nodetypes="csssc"
           id="path7920"
           d="M 291.38199,361.8559 C 291.38199,361.8559 294.06951,367.20774 293.88009,369.73813 C 293.60042,373.47394 290.70987,377.89929 289.72083,381.51265 C 289.22164,383.33644 288.39574,385.8084 288.50089,387.69635 C 288.5823,389.15769 289.9709,392.34831 289.9709,392.34831"
           style="fill:none;fill-rule:evenodd;stroke:#000000;stroke-width:2.5;stroke-linecap:butt;stroke-linejoin:miter;stroke-miterlimit:4;stroke-dasharray:none;stroke-opacity:1" />
        <path
           sodipodi:nodetypes="csc"
           id="path7922"
           d="M 282.09711,380.21264 C 282.09711,380.21264 283.79531,371.00143 284.05171,368.90757 C 284.26644,367.15399 283.34632,363.7061 283.34632,363.7061"
           style="fill:none;fill-rule:evenodd;stroke:#000000;stroke-width:2.5;stroke-linecap:butt;stroke-linejoin:miter;stroke-miterlimit:4;stroke-dasharray:none;stroke-opacity:1" />
        <g
           transform="matrix(0.9558356,0.2939019,-0.2939019,0.9558356,69.224149,-63.141087)"
           id="g2519">
          <path
             style="opacity:1;fill:none;fill-rule:evenodd;stroke:#000000;stroke-width:2.5;stroke-linecap:butt;stroke-linejoin:miter;stroke-miterlimit:4;stroke-dasharray:none;stroke-opacity:1"
             d="M 240.27146,181.84304 L 236.6595,193.32708"
             id="path7926"
             sodipodi:nodetypes="cc" />
          <path
             style="opacity:1;fill:none;fill-rule:evenodd;stroke:#000000;stroke-width:2.5;stroke-linecap:butt;stroke-linejoin:miter;stroke-miterlimit:4;stroke-dasharray:none;stroke-opacity:1"
             d="M 246.19474,185.0926 L 242.68672,193.84945"
             id="path7928"
             sodipodi:nodetypes="cc" />
          <path
             style="opacity:1;fill:none;fill-rule:evenodd;stroke:#000000;stroke-width:2.5;stroke-linecap:butt;stroke-linejoin:miter;stroke-miterlimit:4;stroke-dasharray:none;stroke-opacity:1"
             d="M 251.03543,189.02551 L 249.70657,195.38594"
             id="path7930"
             sodipodi:nodetypes="cc" />
          <path
             style="opacity:1;fill:none;fill-rule:evenodd;stroke:#000000;stroke-width:2.5;stroke-linecap:butt;stroke-linejoin:miter;stroke-miterlimit:4;stroke-dasharray:none;stroke-opacity:1"
             d="M 255.83342,191.85691 L 254.20348,198.00282"
             id="path7932"
             sodipodi:nodetypes="cc" />
        </g>
        <path
           sodipodi:nodetypes="cccsssc"
           id="path7934"
           d="M 285.40839,347.70204 L 279.60276,348.98409 L 270.57879,347.4669 C 270.57879,347.4669 270.16727,349.58812 270.5498,350.94641 C 270.79457,351.81548 271.86525,353.29552 272.6872,353.66921 C 274.21893,354.36558 276.50923,355.08984 278.17282,354.83761 C 279.00491,354.71144 280.62007,353.4661 280.62007,353.4661"
           style="fill:none;fill-rule:evenodd;stroke:#000000;stroke-width:2.5;stroke-linecap:butt;stroke-linejoin:miter;stroke-miterlimit:4;stroke-dasharray:none;stroke-opacity:1" />
        <path
           sodipodi:nodetypes="cssscsssc"
           id="path7936"
           d="M 279.07713,315.61721 C 279.07713,315.61721 275.49093,321.00855 275.31221,323.66916 C 275.14534,326.15333 276.57619,329.41612 277.79042,331.58974 C 278.83331,333.45665 279.92409,335.12221 281.90286,335.93304 C 283.63769,336.64393 288.698,336.48626 288.698,336.48626 C 288.698,336.48626 284.33378,339.24168 282.20214,339.44237 C 279.39152,339.70699 275.45841,338.70102 273.06016,337.21169 C 271.49546,336.24001 269.9791,334.13521 269.11116,332.51066 C 267.94424,330.32653 266.80872,324.5839 266.80872,324.5839"
           style="fill:none;fill-rule:evenodd;stroke:#000000;stroke-width:2.5;stroke-linecap:butt;stroke-linejoin:miter;stroke-miterlimit:4;stroke-dasharray:none;stroke-opacity:1" />
        <path
           sodipodi:nodetypes="csssc"
           id="path7938"
           d="M 259.48126,316.39371 C 259.48126,316.39371 255.30095,321.26828 254.81893,323.94922 C 254.44253,326.04269 255.48334,328.8608 255.24175,330.97406 C 255.01507,332.95683 254.51458,335.02005 253.6878,336.83641 C 252.80243,338.78153 249.17587,344.38737 249.17587,344.38737"
           style="fill:none;fill-rule:evenodd;stroke:#000000;stroke-width:2.5;stroke-linecap:butt;stroke-linejoin:miter;stroke-miterlimit:4;stroke-dasharray:none;stroke-opacity:1" />
        <path
           sodipodi:nodetypes="csc"
           id="path7940"
           d="M 317.91295,285.45826 C 317.91295,285.45826 318.4683,292.33618 317.91932,295.20963 C 317.33054,298.29136 314.05754,304.92877 314.05754,304.92877"
           style="fill:none;fill-rule:evenodd;stroke:#000000;stroke-width:2.5;stroke-linecap:butt;stroke-linejoin:miter;stroke-miterlimit:4;stroke-dasharray:none;stroke-opacity:1" />
        <path
           sodipodi:nodetypes="css"
           id="path7952"
           d="M 209.24254,207.89379 C 209.24254,207.89379 213.69156,211.73236 215.10567,213.52834 C 215.92761,214.57224 219.51152,219.82101 219.51152,219.82101"
           style="fill:none;fill-rule:evenodd;stroke:#000000;stroke-width:2.5;stroke-linecap:butt;stroke-linejoin:miter;stroke-miterlimit:4;stroke-dasharray:none;stroke-opacity:1" />
        <path
           sodipodi:nodetypes="css"
           id="path7954"
           d="M 220.61494,212.87326 C 220.61494,212.87326 226.64228,218.55337 228.5501,221.01338 C 229.55562,222.30991 231.79357,226.779 231.79357,226.779"
           style="fill:none;fill-rule:evenodd;stroke:#000000;stroke-width:2.5;stroke-linecap:butt;stroke-linejoin:miter;stroke-miterlimit:4;stroke-dasharray:none;stroke-opacity:1" />
        <path
           sodipodi:nodetypes="csss"
           id="path7956"
           d="M 231.25347,217.71332 C 231.25347,217.71332 235.69505,223.31858 237.30285,225.9207 C 238.45886,227.79167 240.63436,232.45096 240.63436,232.45096 C 240.63436,232.45096 240.63436,232.45096 240.63436,232.45096"
           style="fill:none;fill-rule:evenodd;stroke:#000000;stroke-width:2.5;stroke-linecap:butt;stroke-linejoin:miter;stroke-miterlimit:4;stroke-dasharray:none;stroke-opacity:1" />
        <path
           sodipodi:nodetypes="csss"
           id="path7958"
           d="M 242.79656,224.61979 C 242.79656,224.61979 245.91475,228.42437 246.9822,230.23372 C 247.97918,231.92366 249.27435,234.27181 249.68092,236.19133 C 250.07613,238.0573 249.63068,242.54899 249.63068,242.54899"
           style="fill:none;fill-rule:evenodd;stroke:#000000;stroke-width:2.5;stroke-linecap:butt;stroke-linejoin:miter;stroke-miterlimit:4;stroke-dasharray:none;stroke-opacity:1" />
        <path
           sodipodi:nodetypes="cssscssss"
           id="path8213"
           d="M 237.67147,353.58725 C 237.60933,351.57336 235.22204,349.42773 233.57829,348.26254 C 231.64371,346.8912 230.63667,346.47965 228.29229,346.1234 C 226.24645,345.81251 223.28629,345.39477 221.39546,346.23552 C 219.37768,347.13271 216.37652,351.62 216.37652,351.62 C 216.37652,351.62 222.90625,350.53288 225.60498,351.16554 C 228.53813,351.85314 229.33305,354.66139 232.14817,355.73436 C 233.16561,356.12216 234.67984,356.92444 235.6913,356.5213 C 236.67775,356.12812 237.70422,354.64867 237.67147,353.58725 z"
           style="fill:#848401;fill-rule:evenodd;stroke:#000000;stroke-width:2.5;stroke-linecap:butt;stroke-linejoin:miter;stroke-miterlimit:4;stroke-dasharray:none;stroke-opacity:1" />
        <path
           sodipodi:nodetypes="csssssscssssss"
           id="path8215"
           d="M 225.61833,362.62295 C 227.05177,364.07815 228.07318,364.39946 228.09616,366.44197 C 228.11622,368.22393 227.0007,370.92516 225.41799,371.74421 C 224.46599,372.23687 222.92397,371.47703 221.88399,371.21736 C 220.13275,370.78011 218.0173,369.29221 216.21449,369.20312 C 214.70042,369.1283 212.61616,369.64868 211.30943,370.41708 C 210.26247,371.03271 209.16097,372.32944 208.54901,373.37854 C 207.90201,374.48769 208.19451,375.79809 207.89669,377.04715 C 207.80436,377.43439 205.59658,374.89569 205.03328,373.37187 C 204.45112,371.79699 204.26659,369.40492 204.70677,367.78461 C 205.3373,365.4636 207.17902,364.30997 208.95459,362.68764 C 210.63005,361.15678 213.05481,361.27881 215.26729,360.77319 C 217.52063,360.25823 220.73955,360.52092 222.96264,361.15383 C 223.83834,361.40314 224.97938,361.9743 225.61833,362.62295 z"
           style="fill:#848401;fill-rule:evenodd;stroke:#000000;stroke-width:2.5;stroke-linecap:butt;stroke-linejoin:miter;stroke-miterlimit:4;stroke-dasharray:none;stroke-opacity:1" />
        <path
           sodipodi:nodetypes="csssscss"
           id="path8217"
           d="M 235.36838,391.83648 C 235.36838,391.83648 239.07222,392.80964 240.3831,393.74354 C 241.10811,394.26005 241.52667,394.6561 241.7475,395.51845 C 242.21495,397.34386 241.7589,400.25076 240.53178,401.68071 C 238.87562,403.61061 235.00382,403.85944 232.56052,404.56485 C 230.88324,405.0491 227.41364,406.30813 227.41364,406.30813 C 227.41364,406.30813 230.87312,396.32429 232.05696,394.71445 C 233.47651,392.78407 235.15815,391.91488 235.36838,391.83648 z"
           style="fill:#848401;fill-rule:evenodd;stroke:#000000;stroke-width:2.5;stroke-linecap:butt;stroke-linejoin:miter;stroke-miterlimit:4;stroke-dasharray:none;stroke-opacity:1" />
        <path
           sodipodi:nodetypes="cssscsssss"
           id="path8219"
           d="M 269.88486,399.60773 C 271.08978,400.16157 272.46512,401.53593 272.99007,402.75371 C 273.63909,404.25933 273.8298,406.70937 273.18197,408.21549 C 272.28338,410.30466 269.52645,412.20217 267.49912,413.23269 C 264.8099,414.59966 257.67985,415.40054 257.67985,415.40054 C 257.67985,415.40054 261.02784,411.9767 262.18775,410.29444 C 262.90235,409.25802 264.0201,407.83327 264.1405,406.58014 C 264.28721,405.05326 262.31837,403.1781 262.66645,401.6842 C 262.89193,400.71642 264.00045,399.62551 264.92497,399.26119 C 266.31269,398.71433 268.52957,398.9848 269.88486,399.60773 z"
           style="fill:#848401;fill-rule:evenodd;stroke:#000000;stroke-width:2.5;stroke-linecap:butt;stroke-linejoin:miter;stroke-miterlimit:4;stroke-dasharray:none;stroke-opacity:1" />
      </g>
      <g
         style="opacity:1"
         id="g2674"
         transform="matrix(0.9999919,4.0009699e-3,-4.0009699e-3,0.9999919,231.66149,-17.23253)">
        <g
           transform="translate(-176.76768,-4.2424243)"
           id="g6176">
          <path
             style="fill:#840101;fill-opacity:1;fill-rule:evenodd;stroke:#000000;stroke-width:2.5;stroke-linecap:butt;stroke-linejoin:miter;stroke-miterlimit:4;stroke-dasharray:none;stroke-opacity:1"
             d="M 134.43287,106.73789 C 134.43287,106.73789 124.88537,101.01476 120.17727,100.44602 C 116.83138,100.04184 112.22665,100.03865 108.9213,100.64743 C 104.17441,101.52171 97.200259,106.80176 92.405339,107.44368 C 90.147959,107.74589 88.259066,108.02125 86.635751,106.61309 C 83.730477,104.09287 85.923737,99.07968 84.125625,95.86181 C 83.246343,94.288261 81.062291,92.662713 79.301637,91.833633 C 77.121917,90.807215 73.718227,89.963812 71.261666,90.222363 C 69.731687,90.383391 66.667396,92.236451 66.667396,92.236451 C 66.667396,92.236451 70.724339,94.225698 71.721093,95.660402 C 73.907992,98.808169 72.294218,104.4814 74.247941,107.74494 C 75.017954,109.03117 76.854274,110.26697 78.153069,111.16888 C 79.48733,112.09542 81.339958,113.37887 82.977056,113.78719 C 86.622682,114.6965 91.908419,114.49673 95.611299,113.78719 C 100.13011,112.9213 105.10502,107.88179 109.62382,107.0159 C 113.05739,106.35798 117.88001,107.60268 121.33921,108.14775 C 123.87163,108.54679 129.37917,110.76606 129.37917,110.76606 L 134.43287,106.73789 z"
             id="path6066"
             sodipodi:nodetypes="cssssssscssssssscc" />
          <path
             style="fill:#848484;fill-rule:evenodd;stroke:#000000;stroke-width:2.5;stroke-linecap:butt;stroke-linejoin:miter;stroke-miterlimit:4;stroke-dasharray:none;stroke-opacity:1;fill-opacity:1"
             d="M 101.32901,87.929025 C 101.78121,86.468636 102.19672,86.950396 103.63785,86.440139 C 105.08929,85.926231 105.06144,85.650321 106.21624,86.668763 C 107.26275,87.591698 107.55351,87.241967 107.71782,88.627602 C 108.14178,92.202789 107.69561,95.787299 106.32772,99.117554 C 105.74687,100.53171 104.15578,102.35641 104.15578,102.35641 C 104.15578,102.35641 102.98993,100.97867 102.45378,99.282672 C 101.32065,95.698207 100.21706,91.520121 101.32901,87.929025 z"
             id="path6139"
             sodipodi:nodetypes="csssscss" />
          <path
             style="opacity:1;fill:#848484;fill-rule:evenodd;stroke:#000000;stroke-width:2.5;stroke-linecap:butt;stroke-linejoin:miter;stroke-miterlimit:4;stroke-dasharray:none;stroke-opacity:1;fill-opacity:1"
             d="M 103.2283,115.38629 C 103.18621,116.91451 103.73471,116.59218 104.93482,117.53927 C 106.1435,118.49314 106.0283,118.74539 107.44951,118.153 C 108.73745,117.61616 108.90013,118.04089 109.50183,116.78194 C 111.05433,113.53363 111.78603,109.99635 111.56324,106.40302 C 111.46864,104.87714 110.54978,102.63732 110.54978,102.63732 C 110.54978,102.63732 109.00242,103.56632 107.94875,104.99938 C 105.72186,108.02813 103.3318,111.6284 103.2283,115.38629 z"
             id="path6141"
             sodipodi:nodetypes="csssscss" />
          <g
             style="opacity:1"
             id="g6049"
             transform="translate(-537.30128,8.114194)">
            <path
               sodipodi:nodetypes="csssssssscsscssscssscsssssscssssscsssscssssscscsssssssccccc"
               id="path5995"
               d="M 688.4389,102.204 C 688.4389,102.204 673.8908,117.3264 666.38925,122.15367 C 659.27057,126.73456 647.59341,128.74946 640.48967,133.35349 C 633.31795,138.00158 624.63652,145.7803 619.49001,152.60318 C 615.95537,157.28915 612.91924,164.6528 610.74015,170.1029 C 608.7426,175.09895 613.58194,182.04265 611.5145,182.67521 C 608.78804,183.5094 603.89306,187.00686 600.72516,192.44266 C 598.50643,196.24978 597.53554,202.1241 597.03768,203.92838 C 596.35815,206.39106 596.83581,210.3381 598.43766,212.32824 C 600.21034,214.53062 607.18752,215.82819 607.18752,215.82819 C 607.18752,215.82819 604.07451,210.45994 604.73756,208.12831 C 605.26713,206.26607 607.75921,204.39795 609.63748,203.92838 C 612.45488,203.22403 615.99006,204.40235 615.99006,204.40235 C 615.99006,204.40235 613.33852,212.80827 614.24009,216.30216 C 614.9327,218.98627 618.90113,221.04384 619.84,223.65204 C 620.72977,226.12383 620.91738,229.87755 620.19,232.4019 C 618.95623,236.68363 611.79013,244.6517 611.79013,244.6517 C 611.79013,244.6517 622.88943,241.23662 626.4899,238.00181 C 629.57085,235.23376 632.67221,230.16229 633.48978,226.102 C 634.26362,222.25889 630.51379,216.87581 631.73981,213.15221 C 633.29568,208.42679 643.28962,201.2524 643.28962,201.2524 C 643.28962,201.2524 643.7707,209.91929 644.6896,213.5022 C 645.30962,215.91974 648.41296,218.77306 647.83955,221.20208 C 647.07024,224.46095 640.91779,225.54742 639.43969,228.55196 C 637.95361,231.57271 638.16604,236.43451 638.7397,239.75178 C 639.14848,242.11562 640.28975,245.31415 641.88965,247.10166 C 644.30427,249.79942 648.88857,252.12858 652.38948,253.05156 C 653.60783,253.37277 656.58941,253.05156 656.58941,253.05156 C 656.58941,253.05156 649.4787,248.51779 648.18955,245.35169 C 647.47572,243.59856 647.73916,240.76713 648.53954,239.05179 C 649.51324,236.96498 652.38042,235.28803 654.13945,233.80187 C 656.65793,231.67407 660.8025,229.70453 662.88931,227.15198 C 665.0294,224.53424 666.93877,220.27465 667.78923,217.00215 C 668.68872,213.54101 668.48922,205.10234 668.48922,205.10234 C 668.48922,205.10234 668.21667,211.54967 669.92306,214.56348 C 670.94731,216.3725 675.0447,219.46656 676.18909,221.20208 C 677.12289,222.61822 678.45317,224.76365 678.28906,226.45199 C 678.08337,228.56807 675.5383,230.58203 674.43912,232.4019 C 673.44259,234.05182 671.28917,238.00181 671.28917,238.00181 C 671.28917,238.00181 680.69223,233.64034 683.88897,230.65192 C 686.76095,227.9671 690.57742,223.67754 691.23885,219.8021 C 691.58591,217.76862 690.1226,215.11535 689.48888,213.15221 C 689.03961,211.76047 688.16688,210.00072 687.73891,208.60228 C 687.32896,207.26275 686.2609,205.38621 686.68892,204.05235 C 687.41626,201.78571 692.63883,198.80244 692.63883,198.80244 C 692.63883,198.80244 691.35972,203.20005 691.58885,205.10234 C 691.97135,208.27796 695.78878,214.90218 695.78878,214.90218 C 695.78878,214.90218 696.22957,208.92856 697.88874,207.2023 C 700.78818,204.18562 707.53123,205.03494 711.18853,203.00237 C 715.41925,200.65112 722.59655,193.40795 725.57526,189.59289 C 726.21849,188.76906 732.00932,196.32435 735.61023,193.55987 C 741.37102,189.13722 745.7061,183.75232 750.01912,175.06749 C 753.34215,168.37616 749.16782,158.81589 749.46592,150.18387 C 749.78856,140.84109 752.54279,129.05968 752.28554,128.22403 C 750.79343,123.37696 744.78799,117.60375 744.78799,117.60375 L 743.03802,94.854115 L 731.4882,81.204335 L 682.139,94.854115 L 688.4389,102.204 z"
               style="opacity:1;fill:#214263;fill-opacity:1;fill-rule:evenodd;stroke:#000000;stroke-width:3;stroke-linecap:butt;stroke-linejoin:miter;stroke-miterlimit:4;stroke-dasharray:none;stroke-opacity:1" />
            <path
               sodipodi:nodetypes="csscscscssscssssssssscssssssscscssscsssssssscccscscsscscscsscssssscssssscsscsc"
               id="path5193"
               d="M 729.60318,47.735499 C 729.60318,47.735499 732.24825,44.269376 733.04677,41.322563 C 733.53356,39.526117 733.18283,34.258858 732.87163,31.642389 C 732.58006,29.191036 731.75403,28.225806 731.75403,28.225806 C 731.75403,28.225806 731.26886,31.223122 730.57986,32.770179 C 729.42117,35.371868 724.69758,40.221774 724.69758,40.221774 C 724.69758,40.221774 725.50524,36.775678 725.40323,35.282258 C 725.08815,30.669549 721.16935,20.46371 721.16935,20.46371 C 721.16935,20.46371 719.41438,30.458301 716.93548,33.870968 C 714.79501,36.817726 711.95439,35.852058 708.51279,37.043843 C 699.90181,40.025721 684.22043,37.753376 674.38912,41.700717 C 670.3392,43.326792 662.02526,49.084862 662.02526,49.084862 C 662.02526,49.084862 651.67677,52.636266 645.92038,51.588613 C 643.80577,51.203757 641.33659,49.273281 639.22525,49.675719 C 635.48312,50.389002 632.47141,50.314048 629.34196,51.269797 C 625.40434,52.472365 625.18829,60.748331 626.47262,64.660051 C 626.90292,65.970626 628.67863,67.150147 629.02315,68.485839 C 629.59845,70.716268 627.70196,73.937746 628.38552,76.137413 C 629.19232,78.733675 631.66736,81.987112 634.1242,83.151355 C 637.49502,84.748715 642.70602,83.391005 646.23919,82.194908 C 650.11679,80.882211 654.31442,81.229401 656.44129,77.73149 C 657.29909,76.320727 659.94826,71.036363 659.94826,71.036363 C 659.94826,71.036363 666.15995,75.52935 667.59983,79.325568 C 668.85531,82.635615 668.78452,87.916731 667.28102,91.121745 C 665.0647,95.84628 659.07408,100.70967 654.20958,102.59911 C 649.84005,104.2963 642.88295,101.04086 638.58762,102.91792 C 635.1786,104.40767 631.80126,105.76737 630.61723,109.29424 C 629.85077,111.57729 629.37363,116.38841 630.93604,118.22107 C 632.743,120.34058 636.55699,118.35975 637.94999,120.77159 C 638.73892,122.13754 638.58762,127.46672 638.58762,127.46672 C 638.58762,127.46672 644.77572,123.44772 646.23919,120.77159 C 647.16727,119.07448 647.19564,114.39528 647.19564,114.39528 C 647.19564,114.39528 662.36525,115.41571 668.8751,115.35173 C 673.37933,115.30746 681.1044,116.40695 685.13469,114.39528 C 688.2906,112.82005 690.79276,108.92175 691.511,105.46845 C 691.7759,104.1948 690.23574,101.32384 690.23574,101.32384 C 690.23574,101.32384 692.55274,99.89701 693.74272,101.00502 C 696.69016,103.74944 697.79814,107.1808 697.88731,111.20713 C 698.04408,118.28568 697.15769,128.75086 694.06153,135.11829 C 692.24519,138.85369 688.99499,143.75995 685.42525,147.28986 C 683.9747,148.72422 682.47139,149.93132 680.99009,150.74026 C 677.37955,152.71197 671.40758,152.70518 667.91865,154.88486 C 665.56629,156.35448 662.84168,159.12946 661.54234,161.57999 C 660.48776,163.56891 659.8032,166.66622 659.94826,168.91275 C 660.1315,171.75056 663.13642,177.83958 663.13642,177.83958 L 665.6008,170.56846 L 678.13094,164.55399 C 678.13094,164.55399 694.66931,160.86719 700.68518,157.03591 C 707.32387,152.80798 707.4836,150.40644 707.4836,150.40644 C 707.4836,150.40644 706.00382,159.47115 698.17915,166.55882 C 695.73253,168.77499 688.65625,172.07208 688.65625,172.07208 C 688.65625,172.07208 702.13338,171.08946 707.20085,168.56364 C 713.2025,165.57219 719.84121,158.98302 723.74063,153.52747 C 727.26523,148.59632 732.75345,131.75389 732.75345,131.75389 C 732.75345,131.75389 728.47675,115.96083 725.24425,108.41899 C 723.48606,104.31692 717.22496,95.888851 717.22496,95.888851 C 717.22496,95.888851 723.33249,104.56779 725.22814,108.67765 C 729.42713,117.78126 735.26835,140.55149 735.26835,140.55149 C 735.26835,140.55149 740.04931,125.94866 740.78161,119.44551 C 741.32029,114.66182 741.53579,108.05428 740.28041,103.40693 C 739.21015,99.444866 733.76474,91.378002 733.76474,91.378002 C 733.76474,91.378002 738.90131,99.790013 740.22505,103.76723 C 741.7301,108.28919 740.1751,115.45877 742.78644,119.44551 C 745.82585,124.0858 752.77702,129.4105 758.3238,129.46961 C 760.61884,129.49407 763.34543,127.20228 764.83947,125.45997 C 766.85727,123.10685 769.20523,119.01633 768.84912,115.93707 C 768.61417,113.90547 764.83947,110.42381 764.83947,110.42381 C 764.83947,110.42381 762.99203,115.28375 761.67523,116.75933 C 760.53375,118.03845 758.34092,117.54288 756.88258,116.64157 C 755.5782,115.83542 755.76176,111.88264 755.51987,110.36845 C 754.32538,102.89124 758.90482,94.082934 756.29583,88.010465 C 755.40749,85.942815 752.49435,80.42972 749.91596,78.778481 C 748.22899,77.698129 741.78403,74.838223 741.78403,74.838223 C 741.78403,74.838223 746.07556,72.080751 747.29728,70.327374 C 749.93417,66.542993 751.54705,60.341442 752.30934,55.792417 C 752.85604,52.52995 752.30934,44.765898 752.30934,44.765898 C 752.30934,44.765898 742.09446,45.104104 737.77438,45.768309 C 735.28226,46.151468 729.60318,47.735499 729.60318,47.735499 z"
               style="opacity:1;fill:#214263;fill-opacity:1;fill-rule:evenodd;stroke:#000000;stroke-width:3;stroke-linecap:butt;stroke-linejoin:miter;stroke-miterlimit:4;stroke-dasharray:none;stroke-opacity:1" />
            <g
               transform="translate(149.02369,7.1978252)"
               id="g5187"
               style="opacity:1">
              <path
                 sodipodi:type="arc"
                 style="fill:#848484;fill-opacity:1;fill-rule:evenodd;stroke:#000000;stroke-width:2.5;stroke-linecap:butt;stroke-linejoin:miter;marker:none;marker-start:none;marker-mid:none;marker-end:none;stroke-miterlimit:4;stroke-dasharray:none;stroke-dashoffset:0;stroke-opacity:1;visibility:visible;display:inline;overflow:visible;enable-background:accumulate"
                 id="path3163"
                 sodipodi:cx="136.84087"
                 sodipodi:cy="142.89806"
                 sodipodi:rx="12.504578"
                 sodipodi:ry="7.3608503"
                 d="M 149.34544,142.89806 A 12.504578,7.3608503 0 1 1 124.33629,142.89806 A 12.504578,7.3608503 0 1 1 149.34544,142.89806 z"
                 transform="matrix(-0.9158702,-0.4014745,-0.4014745,0.9158702,719.27797,-20.238666)" />
              <path
                 sodipodi:type="arc"
                 style="fill:#848484;fill-opacity:1;fill-rule:evenodd;stroke:#000000;stroke-width:2.5;stroke-linecap:butt;stroke-linejoin:miter;marker:none;marker-start:none;marker-mid:none;marker-end:none;stroke-miterlimit:4;stroke-dasharray:none;stroke-dashoffset:0;stroke-opacity:1;visibility:visible;display:inline;overflow:visible;enable-background:accumulate"
                 id="path3179"
                 sodipodi:cx="141.94682"
                 sodipodi:cy="141.35471"
                 sodipodi:rx="8.0072575"
                 sodipodi:ry="8.0072575"
                 d="M 149.95408,141.35471 A 8.0072575,8.0072575 0 1 1 133.93957,141.35471 A 8.0072575,8.0072575 0 1 1 149.95408,141.35471 z"
                 transform="translate(391.31753,-88.325583)" />
              <path
                 style="fill:#000000;fill-opacity:1;fill-rule:evenodd;stroke:none;stroke-width:3.5;stroke-linecap:butt;stroke-linejoin:miter;stroke-miterlimit:4;stroke-dasharray:none;stroke-opacity:1"
                 d="M 533.92275,46.139841 C 533.31906,46.138131 532.77751,46.232281 532.23525,46.296091 C 531.15073,46.423711 530.23525,46.608591 530.23525,46.608591 L 531.0165,50.014841 C 531.0165,50.014841 531.76269,49.868251 532.6415,49.764841 C 533.52031,49.661431 534.62239,49.809301 534.454,49.733591 C 534.37759,49.699231 535.08646,50.492851 535.1415,50.671091 C 535.31812,51.243091 535.21539,53.377731 534.92867,53.956641 C 534.82818,54.159541 534.01078,54.877491 533.95992,54.894141 C 534.22007,54.808951 533.35632,54.883991 532.70992,54.769141 C 532.06353,54.654291 531.52242,54.519141 531.52242,54.519141 C 531.52242,54.519141 529.75144,54.308521 529.5004,54.887361 C 529.16761,55.654701 530.5165,57.483591 530.5165,57.483591 C 530.5165,57.483591 531.21311,57.647801 532.04775,57.796091 C 532.88239,57.944381 533.73386,58.205891 534.98525,57.796091 C 536.47701,57.307571 537.39657,56.360291 538.0165,55.108591 C 538.84857,53.428551 539.05237,51.476461 538.48525,49.639841 C 538.08242,48.335281 537.38331,47.216851 535.8915,46.546091 C 535.18438,46.228151 534.52644,46.141551 533.92275,46.139841 z"
                 id="path3183"
                 sodipodi:nodetypes="csccsssssscscsssssc" />
              <path
                 style="fill:#214263;fill-opacity:1;fill-rule:evenodd;stroke:#000000;stroke-width:2.5;stroke-linecap:butt;stroke-linejoin:miter;stroke-miterlimit:4;stroke-dasharray:none;stroke-opacity:1"
                 d="M 532.47164,40.771801 C 532.47164,40.771801 529.7101,41.202371 528.56951,41.658651 C 526.32936,42.554801 524.06991,44.584411 523.78052,46.979741 C 523.62922,48.232081 524.11404,49.296811 525.02211,50.172401 C 525.99869,51.114051 527.56902,50.997911 528.92425,51.059251 C 530.90892,51.149091 533.37186,49.586261 535.30956,49.817661 C 538.09936,50.150821 541.71683,51.860581 543.82332,53.719801 C 544.80864,54.589461 545.02696,56.728741 546.12912,57.444571 C 547.11996,58.088101 548.97587,58.507761 550.03126,57.976681 C 551.1162,57.430731 551.68017,55.605661 551.98233,54.429281 C 552.12795,53.862361 552.14727,53.039811 551.98233,52.478211 C 551.73277,51.628491 550.99851,50.634671 550.386,49.995031 C 549.6202,49.195311 547.37071,47.866591 547.37071,47.866591"
                 id="path3167"
                 sodipodi:nodetypes="csssssssssssc" />
            </g>
            <path
               sodipodi:nodetypes="csssc"
               id="path6013"
               d="M 630.67617,65.733999 C 630.67617,65.733999 635.53134,59.267881 637.76028,58.344623 C 639.98922,57.421365 640.82474,57.55126 641.26446,58.344623 C 641.70418,59.137986 641.56838,60.389031 639.91669,62.02259 C 638.265,63.656149 630.67617,65.733999 630.67617,65.733999 z"
               style="opacity:1;fill:none;fill-rule:evenodd;stroke:#000000;stroke-width:2.5;stroke-linecap:butt;stroke-linejoin:miter;stroke-miterlimit:4;stroke-dasharray:none;stroke-opacity:1" />
            <path
               sodipodi:nodetypes="cscssscsc"
               id="path6022"
               d="M 729.18784,59.26477 C 729.18784,59.26477 731.91427,54.879424 733.76034,53.803164 C 736.67227,52.105508 744.81057,51.770939 744.81057,51.770939 C 744.81057,51.770939 746.19035,58.845105 744.30251,60.788939 C 743.36995,61.749157 740.80409,60.224076 739.85702,61.169981 C 738.61216,62.413303 740.60685,65.782495 739.34896,67.012629 C 738.50268,67.840231 735.41153,67.266657 735.41153,67.266657 C 735.41153,67.266657 735.46636,62.260708 734.14138,60.788939 C 733.10109,59.633403 729.18784,59.26477 729.18784,59.26477 z"
               style="opacity:1;fill:#000000;fill-rule:evenodd;stroke:#000000;stroke-width:2.5;stroke-linecap:butt;stroke-linejoin:miter;stroke-miterlimit:4;stroke-dasharray:none;stroke-opacity:1" />
            <path
               sodipodi:nodetypes="cssccsssc"
               id="path6018"
               d="M 721.78715,61.84739 C 721.78715,61.84739 716.30988,72.901406 712.6506,76.606426 C 710.71883,78.562341 707.54322,80.704897 704.91968,81.526104 C 699.88525,83.101956 686.7598,83.997718 686.7598,83.997718 L 685.94378,85.040161 C 685.94378,85.040161 700.69876,81.220282 704.91968,85.040161 C 706.49078,86.461988 706.49702,90.138212 705.62249,92.068273 C 704.87392,93.720335 702.84625,96.022524 701.29241,96.958064 C 698.869,98.417156 692.46561,100.19226 692.46561,100.19226"
               style="opacity:1;fill:none;fill-rule:evenodd;stroke:#000000;stroke-width:2.5;stroke-linecap:butt;stroke-linejoin:miter;stroke-miterlimit:4;stroke-dasharray:none;stroke-opacity:1" />
            <path
               sodipodi:nodetypes="csss"
               id="path6020"
               d="M 717.57028,118.07229 C 717.57028,118.07229 718.39379,126.53163 717.57028,130.02008 C 716.27045,135.52626 713.83908,140.28667 710.99942,145.17992 C 709.85472,147.15245 706.78255,151.50522 706.78255,151.50522"
               style="opacity:1;fill:none;fill-rule:evenodd;stroke:#000000;stroke-width:2.5;stroke-linecap:butt;stroke-linejoin:miter;stroke-miterlimit:4;stroke-dasharray:none;stroke-opacity:1" />
            <path
               sodipodi:nodetypes="css"
               id="path6039"
               d="M 629.01606,189.75904 C 629.01606,189.75904 622.68178,194.0192 620.38193,196.56699 C 618.68071,198.45162 616.12404,204.11747 616.12404,204.11747"
               style="fill:none;fill-rule:evenodd;stroke:#000000;stroke-width:2.5;stroke-linecap:butt;stroke-linejoin:miter;stroke-miterlimit:4;stroke-dasharray:none;stroke-opacity:1" />
            <path
               sodipodi:nodetypes="cssc"
               id="path6041"
               d="M 694.37751,179.21687 C 694.37751,179.21687 682.14701,183.09808 677.08243,186.54981 C 674.73845,188.14734 672.62873,191.5314 671.41337,194.09445 C 669.51414,198.0997 668.37349,205.54265 668.37349,205.54265"
               style="fill:none;fill-rule:evenodd;stroke:#000000;stroke-width:2.5;stroke-linecap:butt;stroke-linejoin:miter;stroke-miterlimit:4;stroke-dasharray:none;stroke-opacity:1" />
            <path
               sodipodi:nodetypes="csss"
               id="path6043"
               d="M 693.01423,198.29015 C 693.01423,198.29015 699.96033,191.46178 702.81124,189.05622 C 706.6551,185.81282 714.04467,184.08221 716.86747,179.91968 C 718.6777,177.25031 718.9759,169.37751 718.9759,169.37751"
               style="fill:none;fill-rule:evenodd;stroke:#000000;stroke-width:2.5;stroke-linecap:butt;stroke-linejoin:miter;stroke-miterlimit:4;stroke-dasharray:none;stroke-opacity:1" />
            <path
               sodipodi:nodetypes="csss"
               id="path6037"
               d="M 627.61044,153.91566 C 627.61044,153.91566 627.06848,163.52816 625.50201,167.26908 C 624.72456,169.12572 622.84353,172.43235 620.83245,174.73117 C 616.81853,179.31939 611.95024,182.76574 611.95024,182.76574"
               style="opacity:1;fill:none;fill-rule:evenodd;stroke:#000000;stroke-width:2.5;stroke-linecap:butt;stroke-linejoin:miter;stroke-miterlimit:4;stroke-dasharray:none;stroke-opacity:1" />
          </g>
        </g>
        <path
           sodipodi:nodetypes="css"
           id="path6197"
           d="M -71.217589,207.30666 C -71.217589,207.30666 -68.994759,198.3666 -67.133379,194.66594 C -65.920099,192.25377 -61.510889,187.63783 -61.510889,187.63783"
           style="opacity:1;fill:none;fill-rule:evenodd;stroke:#000000;stroke-width:2.5;stroke-linecap:butt;stroke-linejoin:miter;stroke-miterlimit:4;stroke-dasharray:none;stroke-opacity:1" />
      </g>
    </g>
    <g
       transform="translate(-2.5301205,0)"
       id="g3269">
      <g
         id="g3257">
        <path
           sodipodi:nodetypes="cssssssccsscssssscssssssssssss"
           id="path2475"
           d="M 345.47062,295.10596 C 345.47062,295.10596 351.00088,305.52504 354.71099,308.81748 C 357.64248,311.41894 362.45095,314.26155 366.33597,314.77901 C 369.32618,315.17729 375.774,314.1543 378.5571,312.99056 C 383.20213,311.04827 388.35254,307.47916 391.37439,303.4521 C 394.46411,299.33459 394.61475,292.16647 395.24939,287.0579 C 395.66889,283.68108 396.30726,276.21467 395.6016,272.88587 C 394.92658,269.70159 391.72661,262.75127 391.72661,262.75127 L 398.20302,246.22154 C 398.20302,246.22154 404.1585,259.59898 405.95301,265.59651 C 407.36563,270.31771 407.42954,278.85122 407.47052,283.77906 C 407.51514,289.14574 405.38399,301.36557 405.38399,301.36557 C 405.38399,301.36557 412.08446,301.54933 414.32628,302.85595 C 417.13534,304.49318 420.0111,306.9766 421.18204,310.00979 C 422.39475,313.15118 423.11358,317.10415 422.67242,320.44246 C 422.29515,323.29728 420.93692,327.75542 418.79743,329.68283 C 417.03211,331.27316 412.51693,333.01822 410.15321,333.25975 C 407.63705,333.51686 401.80707,332.06744 401.80707,332.06744 C 401.80707,332.06744 409.79903,328.61651 411.64359,325.80784 C 413.21517,323.41483 413.70665,320.21834 412.23974,317.75978 C 411.31766,316.21436 408.67269,315.14485 406.87437,315.07709 C 404.75032,314.99705 402.25229,315.39108 400.31669,316.26939 C 398.31374,317.17827 395.42823,318.86265 393.46092,319.84631 C 390.06285,321.54534 385.70097,324.2019 382.13402,325.50976 C 378.59087,326.80889 373.97941,327.99125 370.21096,328.19246 C 366.15709,328.40889 360.51755,328.02944 356.79752,326.404 C 353.71297,325.05621 351.28374,323.2541 348.74945,321.03862 C 346.36728,318.95611 342.91119,314.91568 340.99947,312.39439 C 338.14822,308.634 335.48638,303.7324 333.24948,299.57711 C 331.78789,296.86205 328.18218,290.63482 328.18218,290.63482"
           style="fill:#214263;fill-opacity:1;fill-rule:evenodd;stroke:#000000;stroke-width:3;stroke-linecap:butt;stroke-linejoin:miter;stroke-miterlimit:4;stroke-dasharray:none;stroke-opacity:1" />
        <path
           sodipodi:nodetypes="cssssssssssssccsssscssssscssscsssc"
           id="path3247"
           d="M 326.2205,291.13751 C 326.2205,291.13751 326.13729,293.14973 327.4095,294.09951 C 330.31311,296.26721 335.53912,298.1885 338.56365,299.38912 C 341.5152,300.56077 345.86768,300.70707 349.03469,300.94039 C 353.09575,301.23958 359.03944,299.964 362.99608,299.00131 C 366.68702,298.10327 371.17644,295.42621 374.24276,293.18406 C 379.82107,289.1051 384.38446,285.36944 388.20414,279.61049 C 390.42532,276.26161 393.74943,270.17817 395.18484,266.42474 C 396.90687,261.92183 399.58246,256.00914 400.61426,251.2999 C 402.33889,243.42853 404.20236,233.31805 404.38404,225.26201 C 404.57307,216.88004 402.06985,203.65358 399.97411,195.53564 C 397.568,186.21547 390.5565,175.10368 385.62491,166.83723 C 382.20176,161.09926 378.30776,156.4582 374.26985,151.1349 C 371.27188,147.18258 364.15953,136.89408 364.15953,136.89408 L 355.62757,145.81386 C 355.62757,145.81386 367.07606,162.16982 371.52804,169.47065 C 376.29945,177.29531 383.71095,187.42838 386.26506,196.22998 C 388.37662,203.50652 390.61489,216.02614 390.70209,223.60236 C 390.80661,232.68337 388.69606,241.48715 386.29216,250.24483 C 385.0657,254.71295 379.28437,265.26129 379.28437,265.26129 C 379.28437,265.26129 375.11564,259.11836 372.69149,257.11714 C 371.16622,255.85798 368.85062,254.09128 366.87424,254.01461 C 364.84389,253.93585 361.13491,253.96386 359.50573,255.17806 C 357.91712,256.36203 356.81254,259.83241 356.4032,261.77094 C 355.97726,263.7881 356.99497,266.80334 358.34228,268.36382 C 359.43091,269.62469 363.3839,270.69071 363.3839,270.69071 C 363.3839,270.69071 361.96872,266.51382 362.60826,264.87347 C 362.93834,264.02686 364.02858,262.9962 364.93516,262.93439 C 366.03021,262.85974 367.3587,264.01109 368.03769,264.87347 C 369.63086,266.89696 370.75241,273.01761 370.75241,273.01761 C 370.75241,273.01761 369.05477,277.44266 367.64988,278.83486 C 365.506,280.95938 358.97485,284.83493 356.01539,285.42773 C 352.00799,286.23044 348.36512,285.56291 344.3809,284.6521 C 339.28335,283.48678 328.98194,275.66535 328.98194,275.66535"
           style="fill:#214263;fill-opacity:1;fill-rule:evenodd;stroke:#000000;stroke-width:3;stroke-linecap:butt;stroke-linejoin:miter;stroke-miterlimit:4;stroke-dasharray:none;stroke-opacity:1" />
        <path
           id="path3250"
           d="M 325.51496,288.79348 L 327.10672,292.54549 L 327.10672,292.54549 L 327.10672,292.54549"
           style="fill:none;fill-rule:evenodd;stroke:#000000;stroke-width:1.5;stroke-linecap:butt;stroke-linejoin:miter;stroke-miterlimit:4;stroke-dasharray:none;stroke-opacity:1" />
        <path
           sodipodi:nodetypes="csssscssscssssssscsssscssscsscsssscc"
           id="path3252"
           d="M 359.11961,127.59834 C 359.11961,127.59834 353.95989,116.34998 354.35404,111.25925 C 354.63264,107.661 357.13722,103.12871 359.46001,100.36653 C 361.06456,98.458462 363.80438,95.983177 366.26796,95.600958 C 367.95956,95.33851 370.44374,96.155782 371.71433,97.302947 C 374.02333,99.387658 375.7991,106.83408 375.7991,106.83408 C 375.7991,106.83408 381.45669,98.408899 382.26666,94.239367 C 382.91194,90.917628 382.59516,86.109249 381.24546,83.006242 C 380.207,80.61877 377.62632,77.98085 375.4587,76.538685 C 373.11946,74.982338 366.60836,73.475105 366.60836,73.475105 C 366.60836,73.475105 375.39251,72.367022 378.52228,70.411526 C 381.594,68.492302 384.5536,64.365095 386.35143,61.220787 C 387.74605,58.78167 389.1768,55.170003 389.41501,52.370446 C 390.26617,42.367168 389.58537,27.673072 383.96865,19.351865 C 382.43031,17.072812 378.88419,14.751398 376.1395,14.586297 C 373.67613,14.438118 370.33557,16.187068 368.65075,17.990274 C 366.86373,19.902863 365.58709,22.270811 366.26797,24.798229 C 366.6455,26.199654 369.33154,29.2234 369.33154,29.2234 C 369.33154,29.2234 371.04754,23.83826 373.07592,23.436638 C 374.65982,23.123024 376.98474,24.970359 377.50109,26.500218 C 378.87462,30.569759 375.60239,36.642697 373.07592,40.116127 C 370.10812,44.196299 362.09735,45.686489 359.46001,49.987661 C 358.43322,51.662233 358.43882,56.455218 358.43882,56.455218 C 358.43882,56.455218 354.5492,46.93854 351.29046,44.2009 C 349.03919,42.309629 344.9966,40.293755 342.09972,40.796923 C 338.81474,41.3675 335.21893,45.036241 333.58978,47.945275 C 332.58065,49.74718 332.56859,54.75323 332.56859,54.75323 C 332.56859,54.75323 338.35723,49.795337 341.41893,49.647264 C 342.6514,49.587658 344.36349,50.409659 345.1633,51.349252 C 346.67274,53.122483 347.20569,58.838003 347.20569,58.838003 C 347.20569,58.838003 338.89424,70.372772 336.31296,75.857889 C 333.89272,81.000795 331.09853,88.243928 330.5262,93.898969 C 329.9573,99.520138 330.7551,107.26991 332.56859,112.62084 C 333.83342,116.35287 337.08759,120.6464 339.37654,123.85397 C 342.15629,127.74931 349.58847,136.10829 349.58847,136.10829 L 359.11961,127.59834 z"
           style="fill:#214263;fill-opacity:1;fill-rule:evenodd;stroke:#000000;stroke-width:3;stroke-linecap:butt;stroke-linejoin:miter;stroke-miterlimit:4;stroke-dasharray:none;stroke-opacity:1" />
        <path
           sodipodi:nodetypes="csssss"
           id="path3254"
           d="M 389.07462,41.477719 C 389.07462,41.477719 386.68046,47.857353 385.33024,49.987661 C 383.97671,52.123202 381.34147,54.337238 379.54348,56.114821 C 378.2587,57.385022 376.47199,59.003095 375.1183,60.199594 C 373.8153,61.351292 371.79194,62.596069 370.69313,63.943969 C 369.88464,64.935733 368.65075,67.688344 368.65075,67.688344"
           style="fill:none;fill-rule:evenodd;stroke:#000000;stroke-width:2.5;stroke-linecap:butt;stroke-linejoin:miter;stroke-miterlimit:4;stroke-dasharray:none;stroke-opacity:1" />
      </g>
      <path
         style="fill:#214263;fill-opacity:1;fill-rule:evenodd;stroke:#000000;stroke-width:3;stroke-linecap:butt;stroke-linejoin:miter;stroke-miterlimit:4;stroke-dasharray:none;stroke-opacity:1"
         d="M 388.80534,237.29279 C 388.80534,237.29279 378.09253,225.22655 372.82697,217.85116 C 370.99691,215.28783 366.89589,208.59501 366.25103,205.51217 C 365.88178,203.74694 365.95989,197.98603 366.83868,196.41119 C 367.80933,194.67172 370.14252,193.01982 371.93957,192.16045 C 373.11279,191.5994 376.1903,191.3103 376.1903,191.3103 C 376.1903,191.3103 371.92704,186.31286 369.38912,185.35927 C 366.7629,184.37251 362.57812,184.16931 360.0375,185.35927 C 358.2336,186.20417 355.78676,190.46015 355.78676,190.46015 C 355.78676,190.46015 353.42012,178.01423 353.23632,172.60705 C 353.11903,169.15651 353.43706,164.52096 354.08647,161.13006 C 354.96649,156.53506 356.04618,150.06185 358.76228,146.25248 C 360.87966,143.28281 365.13018,140.32328 368.53898,139.02623 C 372.48833,137.5235 382.56641,137.751 382.56641,137.751 C 382.56641,137.751 389.89516,141.36582 390.64281,143.70204 C 391.23099,145.53998 391.05862,148.63983 390.21774,150.50322 C 389.2534,152.64017 388.51744,156.87933 388.51744,156.87933 C 388.51744,156.87933 392.87579,155.31 395.7437,153.47873 C 398.19461,151.91373 401.0683,148.66708 401.69473,145.82741 C 402.42774,142.50459 401.27074,137.43193 399.14429,134.77549 C 396.93436,132.01476 388.51744,129.6746 388.51744,129.6746 C 388.51744,129.6746 397.63031,130.85393 401.26966,129.6746 C 405.61323,128.26707 411.07064,124.55151 413.5968,120.74805 C 416.71154,116.0584 417.84753,102.46988 417.84753,102.46988 L 408.92099,104.59525 C 408.92099,104.59525 413.99567,100.35968 414.87202,97.794068 C 416.23477,93.804437 415.00082,87.867353 414.02187,83.766633 C 412.82822,78.766556 408.51195,73.014667 407.22069,68.038903 C 406.57685,65.55792 405.50884,61.951403 406.37054,59.537427 C 406.85557,58.178653 408.53787,56.885571 409.77113,56.136837 C 411.94305,54.818222 417.84753,53.586394 417.84753,53.586394 C 417.84753,53.586394 415.33982,49.798541 413.5968,49.335656 C 410.78626,48.589276 406.81445,48.398747 404.24517,49.76073 C 402.16763,50.862039 399.46692,54.948941 398.29414,56.986984 C 395.83656,61.257733 395.76681,68.23284 395.31862,73.139788 C 395.17943,74.66371 395.31862,78.240674 395.31862,78.240674 C 395.31862,78.240674 392.17865,75.991112 390.64281,76.115305 C 388.80964,76.263541 385.54193,79.515895 385.54193,79.515895 C 385.54193,79.515895 390.28836,79.803227 391.49296,81.21619 C 393.5761,83.659664 393.38206,88.691338 392.76818,91.843035 C 391.96068,95.988784 388.6609,100.91714 385.967,104.17017 C 379.20836,112.33161 366.6735,119.6492 358.76228,126.69909 C 355.59751,129.5193 351.10763,133.08733 348.56051,136.47578 C 344.9275,141.30879 340.8582,148.51197 339.20888,154.32888 C 337.22119,161.33917 336.84463,171.30176 337.50859,178.55809 C 338.25262,186.68952 340.89369,195.37082 344.30977,202.78729 C 347.56589,209.85647 354.02589,219.36163 359.18735,225.74128 C 366.10669,234.2937 385.11685,251.67078 385.11685,251.67078 C 385.11685,251.67078 386.91791,246.32004 387.6673,244.01945 C 388.57915,241.22014 388.80534,237.29279 388.80534,237.29279 z"
         id="path3265"
         sodipodi:nodetypes="csssscsscsssscsscssscssccssssscsssscscssssssssscsc" />
      <path
         style="fill:none;fill-rule:evenodd;stroke:#000000;stroke-width:2.5;stroke-linecap:butt;stroke-linejoin:miter;stroke-miterlimit:4;stroke-dasharray:none;stroke-opacity:1"
         d="M 409.34606,104.59525 C 409.34606,104.59525 402.26157,108.7708 399.99444,111.39643 C 398.01871,113.68459 395.31862,120.32298 395.31862,120.32298"
         id="path3267"
         sodipodi:nodetypes="css" />
    </g>
  </g>
</svg>
