<?xml version="1.0" encoding="UTF-8" standalone="no"?>
<svg
   xmlns:dc="http://purl.org/dc/elements/1.1/"
   xmlns:cc="http://creativecommons.org/ns#"
   xmlns:rdf="http://www.w3.org/1999/02/22-rdf-syntax-ns#"
   xmlns:svg="http://www.w3.org/2000/svg"
   xmlns="http://www.w3.org/2000/svg"
   xmlns:sodipodi="http://sodipodi.sourceforge.net/DTD/sodipodi-0.dtd"
   xmlns:inkscape="http://www.inkscape.org/namespaces/inkscape"
   version="1.0"
   inkscape:output_extension="org.inkscape.output.svg.inkscape"
   sodipodi:docname="variant-lion-sejant-1.svg"
   inkscape:version="1.0rc1 (09960d6, 2020-04-09)"
   sodipodi:version="0.32"
   id="svg2"
   height="420"
   width="380">
  <defs
     id="defs4">
    <inkscape:perspective
       id="perspective10"
       inkscape:persp3d-origin="372.04724 : 350.78739 : 1"
       inkscape:vp_z="744.09448 : 526.18109 : 1"
       inkscape:vp_y="0 : 1000 : 0"
       inkscape:vp_x="0 : 526.18109 : 1"
       sodipodi:type="inkscape:persp3d" />
    <inkscape:perspective
       sodipodi:type="inkscape:persp3d"
       inkscape:vp_x="0 : 526.18109 : 1"
       inkscape:vp_y="0 : 1000 : 0"
       inkscape:vp_z="744.09448 : 526.18109 : 1"
       inkscape:persp3d-origin="372.04724 : 350.78739 : 1"
       id="perspective2498" />
    <inkscape:perspective
       sodipodi:type="inkscape:persp3d"
       inkscape:vp_x="0 : 526.18109 : 1"
       inkscape:vp_y="0 : 1000 : 0"
       inkscape:vp_z="744.09448 : 526.18109 : 1"
       inkscape:persp3d-origin="372.04724 : 350.78739 : 1"
       id="perspective2831" />
    <inkscape:perspective
       sodipodi:type="inkscape:persp3d"
       inkscape:vp_x="0 : 526.18109 : 1"
       inkscape:vp_y="0 : 1000 : 0"
       inkscape:vp_z="744.09448 : 526.18109 : 1"
       inkscape:persp3d-origin="372.04724 : 350.78739 : 1"
       id="perspective2556" />
  </defs>
  <sodipodi:namedview
     inkscape:window-maximized="0"
     inkscape:document-rotation="0"
     inkscape:guide-bbox="true"
     showguides="true"
     inkscape:window-y="25"
     inkscape:window-x="0"
     inkscape:window-height="710"
     inkscape:window-width="1280"
     showgrid="false"
     inkscape:current-layer="layer3"
     inkscape:document-units="px"
     inkscape:cy="129.13295"
     inkscape:cx="160.18828"
     inkscape:zoom="2.9726021"
     inkscape:pageshadow="2"
     inkscape:pageopacity="0.0"
     objecttolerance="10"
     guidetolerance="10"
     gridtolerance="10000"
     borderopacity="1.0"
     bordercolor="#666666"
     pagecolor="#ffffff"
     id="base" />
  <metadata
     id="metadata7">
    <rdf:RDF>
      <cc:Work
         rdf:about="">
        <dc:format>image/svg+xml</dc:format>
        <dc:type
           rdf:resource="http://purl.org/dc/dcmitype/StillImage" />
      </cc:Work>
    </rdf:RDF>
  </metadata>
  <g
     inkscape:label="bottom"
     id="layer1"
     inkscape:groupmode="layer" />
  <g
     style="opacity:1"
     inkscape:label="Main"
     id="layer3"
     inkscape:groupmode="layer">
    <g
       transform="translate(-42.386525,-14.975235)"
       id="g3266">
      <g
         id="g2431">
        <path
           sodipodi:nodetypes="cssssssssccccccscsssssscscscscsscscsscscscscscscsccscscscscsscscsccccccccccsscccccc"
           id="path2564"
           d="M 204.29666,170.51885 C 204.29666,170.51885 246.65776,199.23311 262.22663,214.52881 C 270.86011,223.0108 280.04096,236.45482 287.19645,246.21598 C 293.80676,255.23343 303.1969,267.00957 308.1711,277.02296 C 311.51745,283.75938 312.37114,294.29133 316.16144,300.78833 C 320.45428,308.14674 328.25115,315.89861 330.92164,323.59986 C 333.17155,330.08824 333.30152,336.98674 333.51917,344.96138 C 333.63003,349.02348 335.01274,354.61388 334.13971,358.00128 C 332.54518,364.18814 327.80188,372.61805 322.1542,375.60527 C 320.03525,376.72605 314.16385,375.60527 314.16385,375.60527 L 313.16506,380.00625 L 212.05021,385.93884 L 196.97692,372.22246 L 198.27633,359.9314 L 210.62599,357.41163 C 210.62599,357.41163 203.33608,357.50933 223.31192,361.91033 C 243.28778,366.31133 253.97929,362.52311 253.97929,362.52311 C 253.97929,362.52311 241.67507,353.43231 237.29011,347.60066 C 232.12524,340.7318 229.46238,328.96069 228.05885,320.48206 C 227.1101,314.75074 227.39148,306.88853 228.05885,301.11768 C 228.69365,295.62841 229.42491,287.92577 232.26286,283.18435 C 234.92937,278.72935 240.39012,273.57652 245.24716,271.74175 C 247.7699,270.78877 251.84509,269.96272 254.51172,270.36462 C 260.71302,271.29927 274.21214,277.90315 274.21214,277.90315 C 274.21214,277.90315 257.04587,269.05026 249.24233,269.98136 C 243.67633,270.64548 237.28156,276.39987 237.28156,276.39987 C 237.28156,276.39987 221.42703,264.12476 211.00925,259.60474 C 206.8956,257.81993 193.00623,257.58723 193.00623,257.58723 C 193.00623,257.58723 198.36232,265.68499 201.99536,267.26943 C 203.64329,267.98812 207.98812,267.26943 207.98812,267.26943 C 207.98812,267.26943 200.44141,271.17201 197.00141,270.79022 C 194.5891,270.52249 190.55005,267.18159 187.90829,265.27108 C 186.01097,263.89894 185.01589,263.74862 185.01589,263.74862 C 185.01589,263.74862 191.385,273.61877 195.47012,276.34368 C 198.0496,278.06428 205.34866,279.38323 205.34866,279.38323 C 205.34866,279.38323 197.02738,283.95508 193.19045,283.56262 C 191.48185,283.38786 187.42485,280.23029 185.35728,278.81328 C 183.11841,277.27887 182.93197,277.48351 182.93197,277.48351 C 182.93197,277.48351 188.47555,283.54164 190.1509,286.60217 C 191.82982,289.66923 193.07567,293.9969 193.07567,293.9969 C 193.07567,293.9969 190.00067,292.42674 187.49129,291.54144 C 186.08979,291.04699 182.55202,291.92139 182.55202,291.92139 C 182.55202,291.92139 185.24697,295.61 186.73141,296.86066 C 188.45066,298.30915 193.19045,300.6601 193.19045,300.6601 C 182.47811,271.20116 181.2523,282.74284 186.35146,302.93976 C 186.77092,304.60116 180.6523,302.55982 180.6523,302.55982 C 180.6523,302.55982 182.12821,306.78972 183.31191,308.25898 C 185.19982,310.60234 191.29073,314.33808 191.29073,314.33808 C 191.29073,314.33808 184.05139,316.16566 181.03225,315.47792 C 177.88688,314.76143 172.66331,307.65455 172.66331,307.65455 L 171.53365,307.49909 C 171.53365,307.49909 175.05963,315.49301 177.61275,318.13752 C 179.56808,320.16284 185.59157,323.0768 185.59157,323.0768 C 185.59157,323.0768 180.27768,324.00299 177.99269,323.83668 C 176.58652,323.73433 173.43337,322.69685 173.43337,322.69685 C 173.43337,322.69685 175.93616,325.53862 177.23281,326.49629 C 178.99644,327.79886 183.69185,329.91579 183.69185,329.91579 C 183.69185,329.91579 178.36387,333.6728 175.71303,333.71523 C 173.72265,333.74709 169.63393,331.05562 169.63393,331.05562 C 169.63393,331.05562 169.90832,332.62899 171.19759,334.4731 C 172.28969,336.03519 174.32177,337.82684 175.33309,338.6545 C 177.38478,340.33359 183.31191,342.45394 183.31191,342.45394 C 183.31191,342.45394 174.4778,345.22163 170.77376,344.35366 C 169.41911,344.03622 166.97432,341.69405 166.97432,341.69405 C 168.69984,347.11595 171.1537,351.5726 171.1537,351.5726 L 165.45454,355.37204 L 169.96276,378.40891 L 140.23989,390.52203 L 127.70174,389.3822 L 123.98953,386.76768 L 113.53257,388.00176 L 105.37227,386.38773 L 104.99233,382.20835 L 100.81295,385.62784 L 93.594013,380.68857 C 93.594013,380.68857 95.452583,373.32298 97.393453,370.81003 C 100.73849,366.47902 107.082,362.07884 112.21127,360.1716 C 119.39796,357.49934 137.66751,357.89193 137.66751,357.89193 L 136.14774,310.39893 L 139.94718,293.68139 L 140.70707,246.94828 L 139.94718,192.23634 L 204.29666,170.51885 z"
           style="fill:#214263;fill-opacity:1;fill-rule:evenodd;stroke:#000000;stroke-width:3.33525825;stroke-linecap:butt;stroke-linejoin:miter;stroke-miterlimit:4;stroke-dasharray:none;stroke-opacity:1" />
        <path
           sodipodi:nodetypes="csssssssscsccccccscsssssscscscscsscscsscscscscscscsccscscscscsscscsccccccccccsscccccc"
           id="path2407"
           d="M 218.72091,166.27643 C 218.72091,166.27643 263.62746,204.32402 279.19633,219.61972 C 287.82981,228.10171 297.01066,241.54573 304.16615,251.30689 C 310.77646,260.32434 320.1666,272.10048 325.1408,282.11387 C 328.48715,288.85029 329.34084,299.38224 333.13114,305.87924 C 337.42398,313.23765 345.22085,320.98952 347.89134,328.69077 C 350.14125,335.17915 350.27122,342.07765 350.48887,350.05229 C 350.59973,354.11439 351.98244,359.70479 351.10941,363.09219 C 349.51488,369.27905 344.77158,377.70896 339.1239,380.69618 C 337.00495,381.81696 331.13355,380.69618 331.13355,380.69618 C 331.13355,380.69618 335.50747,385.33464 334.79939,387.55873 C 334.27827,389.19557 329.67815,390.11992 329.67815,390.11992 L 223.26393,395.65956 L 210.34493,398.4271 L 193.30016,379.81597 L 196.29654,368.37339 L 213.27601,364.85258 C 213.27601,364.85258 203.28809,364.85258 223.26393,369.25358 C 243.23979,373.65458 274.20237,366.61298 274.20237,366.61298 C 274.20237,366.61298 258.64477,358.52322 254.25981,352.69157 C 249.09494,345.82271 246.43208,334.0516 245.02855,325.57297 C 244.0798,319.84165 244.36118,311.97944 245.02855,306.20859 C 245.66335,300.71932 246.39461,293.01668 249.23256,288.27526 C 251.89907,283.82026 257.35982,278.66743 262.21686,276.83266 C 264.7396,275.87968 268.81479,275.05363 271.48142,275.45553 C 277.68272,276.39018 291.18184,282.99406 291.18184,282.99406 C 291.18184,282.99406 274.01557,274.14117 266.21203,275.07227 C 260.64603,275.73639 250.23134,284.75447 250.23134,284.75447 C 250.23134,284.75447 241.16469,278.41875 230.74691,273.89873 C 226.63326,272.11392 216.76381,268.61753 216.76381,268.61753 C 216.76381,268.61753 222.1199,276.71529 225.75294,278.29973 C 227.40087,279.01842 231.7457,278.29973 231.7457,278.29973 C 231.7457,278.29973 224.19899,282.20231 220.75899,281.82052 C 218.34668,281.55279 214.30763,278.21189 211.66587,276.30138 C 209.76855,274.92924 208.77347,274.77892 208.77347,274.77892 C 208.77347,274.77892 215.14258,284.64907 219.2277,287.37398 C 221.80718,289.09458 229.10624,290.41353 229.10624,290.41353 C 229.10624,290.41353 220.78496,294.98538 216.94803,294.59292 C 215.23943,294.41816 211.18243,291.26059 209.11486,289.84358 C 206.87599,288.30917 206.68955,288.51381 206.68955,288.51381 C 206.68955,288.51381 212.23313,294.57194 213.90848,297.63247 C 215.5874,300.69953 216.83325,305.0272 216.83325,305.0272 C 216.83325,305.0272 213.75825,303.45704 211.24887,302.57174 C 209.84737,302.07729 206.3096,302.95169 206.3096,302.95169 C 206.3096,302.95169 209.00455,306.6403 210.48899,307.89096 C 212.20824,309.33945 216.94803,311.6904 216.94803,311.6904 C 216.94803,311.6904 212.25414,313.69487 210.10904,313.97006 C 208.40943,314.1881 204.40988,313.59012 204.40988,313.59012 C 204.40988,313.59012 205.88579,317.82002 207.06949,319.28928 C 208.9574,321.63264 215.04831,325.36838 215.04831,325.36838 C 215.04831,325.36838 207.80897,327.19596 204.78983,326.50822 C 201.64446,325.79173 196.42089,318.68485 196.42089,318.68485 L 195.29123,318.52939 C 195.29123,318.52939 198.81721,326.52331 201.37033,329.16782 C 203.32566,331.19314 209.34915,334.1071 209.34915,334.1071 C 209.34915,334.1071 204.03526,335.03329 201.75027,334.86698 C 200.3441,334.76463 197.19095,333.72715 197.19095,333.72715 C 197.19095,333.72715 199.69374,336.56892 200.99039,337.52659 C 202.75402,338.82916 207.44943,340.94609 207.44943,340.94609 C 207.44943,340.94609 202.12145,344.7031 199.47061,344.74553 C 197.48023,344.77739 193.39151,342.08592 193.39151,342.08592 C 193.39151,342.08592 193.6659,343.65929 194.95517,345.5034 C 196.04727,347.06549 198.07935,348.85714 199.09067,349.6848 C 201.14236,351.36389 207.06949,353.48424 207.06949,353.48424 C 207.06949,353.48424 198.23538,356.25193 194.53134,355.38396 C 193.17669,355.06652 190.7319,352.72435 190.7319,352.72435 C 192.45742,358.14625 194.91128,362.6029 194.91128,362.6029 L 189.21212,366.40234 L 186.93246,383.49982 L 155.3971,400.5973 L 142.85895,399.45747 L 140.95923,391.85859 L 135.26007,396.03797 L 122.34197,391.47864 L 121.96203,387.29926 L 117.78265,390.71875 L 110.56371,385.77948 C 110.56371,385.77948 112.42228,378.41389 114.36315,375.90094 C 117.70819,371.56993 124.0517,367.16975 129.18097,365.26251 C 136.36766,362.59025 154.63721,362.98284 154.63721,362.98284 L 153.11744,315.48984 L 156.91688,298.7723 L 157.67677,252.03919 L 154.37143,187.99392 L 218.72091,166.27643 z"
           style="opacity:1;fill:#214263;fill-opacity:1;fill-rule:evenodd;stroke:#000000;stroke-width:3.33525825;stroke-linecap:butt;stroke-linejoin:miter;stroke-miterlimit:4;stroke-dasharray:none;stroke-opacity:1" />
      </g>
      <path
         style="fill:none;fill-rule:evenodd;stroke:#000000;stroke-width:2.5;stroke-linecap:butt;stroke-linejoin:miter;stroke-miterlimit:4;stroke-dasharray:none;stroke-opacity:1"
         d="M 228.8955,382.40098 L 218.07432,383.13462 C 218.07432,383.13462 213.75677,380.6859 211.83838,381.11711 C 209.33187,381.68051 206.6703,384.64963 205.60245,386.98623 C 205.05308,388.18834 204.50199,391.57147 204.50199,391.57147"
         id="path2457"
         sodipodi:nodetypes="ccssc" />
      <path
         style="fill:none;fill-rule:evenodd;stroke:#000000;stroke-width:2.5;stroke-linecap:butt;stroke-linejoin:miter;stroke-miterlimit:4;stroke-dasharray:none;stroke-opacity:1"
         d="M 198.63287,384.23508 C 198.63287,384.23508 200.41088,377.41373 202.30107,375.61481 C 203.67774,374.30461 206.26999,373.26321 208.17019,373.23049 C 209.92808,373.20022 213.67248,375.24799 213.67248,375.24799 L 224.86048,375.24799"
         id="path2459"
         sodipodi:nodetypes="csscc" />
      <path
         style="fill:none;fill-rule:evenodd;stroke:#000000;stroke-width:2.5;stroke-linecap:butt;stroke-linejoin:miter;stroke-miterlimit:4;stroke-dasharray:none;stroke-opacity:1"
         d="M 104.8981,382.39075 C 104.8981,382.39075 107.53109,374.52217 109.6559,371.74234 C 110.82918,370.20737 114.64026,367.66423 114.64026,367.66423"
         id="path3231"
         sodipodi:nodetypes="css" />
      <path
         style="fill:none;fill-rule:evenodd;stroke:#000000;stroke-width:2.5;stroke-linecap:butt;stroke-linejoin:miter;stroke-miterlimit:4;stroke-dasharray:none;stroke-opacity:1"
         d="M 121.89023,386.92198 C 121.89023,386.92198 123.9742,380.21838 125.96835,378.08607 C 128.2952,375.598 141.82767,371.9689 141.82767,371.9689"
         id="path3233"
         sodipodi:nodetypes="csc" />
      <path
         style="fill:none;fill-rule:evenodd;stroke:#000000;stroke-width:2.5;stroke-linecap:butt;stroke-linejoin:miter;stroke-miterlimit:4;stroke-dasharray:none;stroke-opacity:1"
         d="M 140.69486,393.9454 C 140.69486,393.9454 144.21117,382.46478 148.1714,378.99232 C 149.63483,377.70914 162.67136,374.91421 162.67136,374.91421"
         id="path3235"
         sodipodi:nodetypes="csc" />
      <path
         style="fill:#848401;fill-rule:evenodd;stroke:#000000;stroke-width:2.5;stroke-linecap:butt;stroke-linejoin:miter;stroke-miterlimit:4;stroke-dasharray:none;stroke-opacity:1"
         d="M 94.249698,378.76575 C 95.16026,378.00425 97.177946,378.4711 98.32781,378.76576 C 99.21361,378.99276 100.17022,379.99422 100.59343,380.80481 C 101.10066,381.77633 101.45057,383.41103 101.04655,384.4298 C 100.10335,386.80814 94.678727,388.59106 93.343451,390.77353 C 92.689378,391.84259 89.945025,396.21102 89.945025,396.21102 C 89.945025,396.21102 88.193404,390.1472 88.359092,387.82823 C 88.517467,385.61161 92.544995,380.1914 94.249698,378.76575 z"
         id="path3237"
         sodipodi:nodetypes="csssscss" />
      <path
         style="opacity:1;fill:#848401;fill-rule:evenodd;stroke:#000000;stroke-width:2.5;stroke-linecap:butt;stroke-linejoin:miter;stroke-miterlimit:4;stroke-dasharray:none;stroke-opacity:1"
         d="M 146.02918,393.33116 C 146.93974,392.56966 148.95743,393.03651 150.10729,393.33117 C 150.99309,393.55817 151.9497,394.55963 152.37291,395.37022 C 152.88014,396.34174 153.23005,397.97644 152.82603,398.99521 C 151.88283,401.37355 146.45821,403.15647 145.12293,405.33894 C 144.46886,406.408 141.72451,410.77643 141.72451,410.77643 C 141.72451,410.77643 139.97288,404.71261 140.13857,402.39364 C 140.29695,400.17702 144.32448,394.75681 146.02918,393.33116 z"
         id="path3239"
         sodipodi:nodetypes="csssscss" />
      <path
         style="opacity:1;fill:#848401;fill-rule:evenodd;stroke:#000000;stroke-width:2.5;stroke-linecap:butt;stroke-linejoin:miter;stroke-miterlimit:4;stroke-dasharray:none;stroke-opacity:1"
         d="M 126.54486,389.25305 C 127.45542,388.49155 129.47311,388.9584 130.62297,389.25306 C 131.50877,389.48006 132.46538,390.48152 132.88859,391.29211 C 133.39582,392.26363 133.74573,393.89833 133.34171,394.9171 C 132.39851,397.29544 126.97389,399.07836 125.63861,401.26083 C 124.98454,402.32989 122.24019,406.69832 122.24019,406.69832 C 122.24019,406.69832 120.48856,400.6345 120.65425,398.31553 C 120.81263,396.09891 124.84016,390.6787 126.54486,389.25305 z"
         id="path3241"
         sodipodi:nodetypes="csssscss" />
      <path
         style="opacity:1;fill:#848401;fill-rule:evenodd;stroke:#000000;stroke-width:2.5;stroke-linecap:butt;stroke-linejoin:miter;stroke-miterlimit:4;stroke-dasharray:none;stroke-opacity:1"
         d="M 113.40428,382.90932 C 114.31484,382.14782 116.33253,382.61467 117.48239,382.90933 C 118.36819,383.13633 119.3248,384.13779 119.74801,384.94838 C 120.25524,385.9199 120.60515,387.5546 120.20113,388.57337 C 119.25793,390.95171 113.83331,392.73463 112.49803,394.9171 C 111.84396,395.98616 109.09961,400.35459 109.09961,400.35459 C 109.09961,400.35459 107.34798,394.29077 107.51367,391.9718 C 107.67205,389.75518 111.69958,384.33497 113.40428,382.90932 z"
         id="path3243"
         sodipodi:nodetypes="csssscss" />
      <path
         style="opacity:1;fill:#848401;fill-rule:evenodd;stroke:#000000;stroke-width:2.5;stroke-linecap:butt;stroke-linejoin:miter;stroke-miterlimit:4;stroke-dasharray:none;stroke-opacity:1"
         d="M 191.11497,376.33902 C 192.02553,375.57752 194.04322,376.04437 195.19308,376.33903 C 196.07888,376.56603 197.03549,377.56749 197.4587,378.37808 C 197.96593,379.3496 198.31584,380.9843 197.91182,382.00307 C 196.96862,384.38141 191.544,386.16433 190.20872,388.3468 C 189.55465,389.41586 186.8103,393.78429 186.8103,393.78429 C 186.8103,393.78429 185.05867,387.72047 185.22436,385.4015 C 185.38274,383.18488 189.41027,377.76467 191.11497,376.33902 z"
         id="path3245"
         sodipodi:nodetypes="csssscss" />
      <path
         style="opacity:1;fill:#848401;fill-rule:evenodd;stroke:#000000;stroke-width:2.5;stroke-linecap:butt;stroke-linejoin:miter;stroke-miterlimit:4;stroke-dasharray:none;stroke-opacity:1"
         d="M 197.00557,384.04213 C 197.91613,383.28063 199.93382,383.74748 201.08368,384.04214 C 201.96948,384.26914 202.92609,385.2706 203.3493,386.08119 C 203.85653,387.05271 204.20644,388.68741 203.80242,389.70618 C 202.85922,392.08452 197.4346,393.86744 196.09932,396.04991 C 195.44525,397.11897 192.7009,401.4874 192.7009,401.4874 C 192.7009,401.4874 190.94927,395.42358 191.11496,393.10461 C 191.27334,390.88799 195.30087,385.46778 197.00557,384.04213 z"
         id="path3247"
         sodipodi:nodetypes="csssscss" />
      <path
         style="opacity:1;fill:#848401;fill-rule:evenodd;stroke:#000000;stroke-width:2.5;stroke-linecap:butt;stroke-linejoin:miter;stroke-miterlimit:4;stroke-dasharray:none;stroke-opacity:1"
         d="M 203.80242,391.51866 C 204.71298,390.75716 206.73067,391.22401 207.88053,391.51867 C 208.76633,391.74567 209.72294,392.74713 210.14615,393.55772 C 210.65338,394.52924 211.00329,396.16394 210.59927,397.18271 C 209.65607,399.56105 204.23145,401.34397 202.89617,403.52644 C 202.2421,404.5955 199.49775,408.96393 199.49775,408.96393 C 199.49775,408.96393 197.74612,402.90011 197.91181,400.58114 C 198.07019,398.36452 202.09772,392.94431 203.80242,391.51866 z"
         id="path3249"
         sodipodi:nodetypes="csssscss" />
      <path
         style="fill:none;fill-rule:evenodd;stroke:#000000;stroke-width:2.5;stroke-linecap:butt;stroke-linejoin:miter;stroke-miterlimit:4;stroke-dasharray:none;stroke-opacity:1"
         d="M 328.28949,379.01806 C 328.28949,379.01806 329.2823,374.70111 329.33396,372.37988 C 329.43203,367.97328 332.96602,362.60388 333.18672,358.20172 C 333.24304,357.07823 332.57028,354.50307 332.57028,354.50307"
         id="path3251"
         sodipodi:nodetypes="csss" />
    </g>
    <g
       transform="translate(-452.26604,10.32597)"
       id="g3261">
      <path
         style="fill:#214263;fill-opacity:1;fill-rule:evenodd;stroke:#000000;stroke-width:3;stroke-linecap:butt;stroke-linejoin:miter;stroke-miterlimit:4;stroke-dasharray:none;stroke-opacity:1"
         d="M 671.46417,251.0137 C 671.46417,251.0137 670.27943,241.33004 671.98916,236.25296 C 673.71872,231.11698 678.98604,225.68829 682.48899,221.5532 C 686.8081,216.45466 692.52897,209.27453 698.23874,205.80345 C 704.02727,202.2845 713.00663,198.49254 719.76339,198.97856 C 725.17337,199.36771 732.65521,202.61373 736.03813,206.85344 C 737.3487,208.49593 737.90663,211.59765 737.6131,213.67833 C 737.38659,215.28396 736.33809,217.5049 734.98815,218.40325 C 733.80083,219.19339 731.44758,219.72281 730.26322,218.92824 C 728.35888,217.65064 728.16326,211.57836 728.16326,211.57836 C 728.16326,211.57836 723.95799,216.77578 723.96332,219.45323 C 723.96795,221.77865 725.57161,225.21203 727.63826,226.27812 C 731.02371,228.02452 738.34821,227.86123 741.81303,226.27812 C 745.66756,224.51695 749.01378,219.12455 750.73789,215.2533 C 752.08349,212.23195 751.90763,207.32217 750.73789,204.22848 C 749.47504,200.88854 745.79486,197.34183 742.86302,195.30362 C 741.06183,194.05144 736.03813,192.67867 736.03813,192.67867 C 736.03813,192.67867 743.79335,190.98593 747.06295,190.05371 C 750.89466,188.96123 756.55475,188.34693 759.66275,185.85378 C 761.81183,184.12985 763.94636,180.69841 764.38767,177.9789 C 764.85286,175.11229 764.45288,170.46449 762.28771,168.52906 C 758.98105,165.57326 751.47973,164.82694 747.58794,166.95408 C 746.0428,167.79861 744.96298,172.204 744.96298,172.204 C 744.96298,172.204 750.07108,171.08831 751.78787,172.204 C 753.08851,173.04925 754.27842,175.42773 753.88784,176.92892 C 753.49127,178.45315 751.21497,179.69333 749.68791,180.07887 C 746.59963,180.85858 742.36859,178.33129 739.18808,178.5039 C 736.09829,178.67158 729.21324,181.12885 729.21324,181.12885 C 729.21324,181.12885 737.50395,172.74235 740.23806,168.52906 C 742.69312,164.74579 744.7304,159.01125 746.53796,154.87928 C 748.51905,150.35063 750.2656,143.87553 752.83786,139.65452 C 754.23357,137.3642 756.12882,133.84137 758.61276,132.82963 C 761.68972,131.57634 767.13394,131.69554 769.63759,133.87961 C 771.71033,135.68777 771.91303,140.0595 771.73755,142.80447 C 771.6517,144.14739 771.2358,146.19262 770.16258,147.0044 C 768.65002,148.1485 763.86268,147.52939 763.86268,147.52939 C 763.86268,147.52939 765.09008,151.43199 766.48764,152.25432 C 768.52378,153.45239 772.22601,153.26259 774.36251,152.25432 C 777.49928,150.774 780.05741,146.37769 781.71239,143.32946 C 783.20972,140.5716 785.10963,136.48298 784.86234,133.35462 C 784.47381,128.4395 780.67163,122.44022 777.51246,118.65486 C 775.99872,116.84108 773.43841,114.72166 771.21256,113.92994 C 767.49985,112.60934 761.86898,112.29561 758.08777,113.40495 C 756.24302,113.94616 752.83786,117.07989 752.83786,117.07989 C 752.83786,117.07989 754.50502,106.39162 753.88784,101.85513 C 753.50508,99.041722 751.15636,95.738594 750.73789,92.930275 C 749.66911,85.757739 749.26921,75.580952 751.78787,68.780665 C 753.73575,63.521473 758.13916,56.185338 763.33769,54.080902 C 766.57917,52.768704 772.04408,53.620184 774.8875,55.655877 C 776.60562,56.885934 778.03745,59.842725 778.03745,61.955775 C 778.03745,63.71665 776.68557,65.989161 775.41249,67.20569 C 774.29102,68.27734 772.17083,69.759589 770.68757,69.305656 C 769.26679,68.870844 768.06261,65.105724 768.06261,65.105724 C 768.06261,65.105724 764.59082,69.698678 764.91266,71.930614 C 765.39056,75.244777 768.95922,79.782656 772.26254,80.330479 C 776.92639,81.103931 782.89323,76.093576 785.91232,72.455606 C 789.85681,67.702528 793.50766,59.159311 792.73721,53.030919 C 792.17054,48.523479 788.23097,42.771597 784.33735,40.431122 C 778.91093,37.169279 773.87703,34.623123 767.55456,34.957662 C 763.69886,35.161678 756.94042,38.714873 753.79639,40.956114 C 752.54413,41.848796 749.4574,44.612643 748.11293,45.359269 C 745.3586,46.888837 743.1095,45.008268 740.18725,46.185707 C 738.1213,47.018126 732.00165,54.600482 731.39111,56.289253 C 728.12293,65.329125 727.63826,87.155368 727.63826,87.155368 C 727.63826,87.155368 717.18801,77.652684 715.43645,73.639377 C 714.67003,71.883299 715.08808,69.067553 715.91571,67.339478 C 716.78058,65.533628 721.73296,65.159917 721.73296,65.159917 C 721.73296,65.159917 718.492,61.576169 716.37466,60.82281 C 714.48581,60.150746 711.44281,60.823143 709.78855,61.955775 C 707.51526,63.512244 706.01554,67.245241 705.06363,69.830648 C 703.7396,73.426726 704.05625,78.662981 705.04839,82.364398 C 705.9464,85.714653 708.13632,88.655238 710.31354,91.355301 C 712.70675,94.32322 715.65489,98.481069 718.18842,101.33014 C 719.96455,103.32747 722.46912,105.8788 724.48831,107.63004 C 726.27304,109.17793 730.78821,112.35496 730.78821,112.35496 C 730.78821,112.35496 719.70854,109.92058 715.03847,110.77999 C 711.22852,111.48112 705.85562,113.48817 703.48865,116.55489 C 701.62018,118.97574 700.6092,123.5727 701.38869,126.52973 C 702.29886,129.9825 705.93755,134.15549 709.26356,135.45459 C 713.54068,137.12519 724.48831,133.87961 724.48831,133.87961 C 724.48831,133.87961 719.13724,130.45923 717.13843,128.6297 C 716.06732,127.6493 713.8526,126.40044 713.98848,124.95476 C 714.17722,122.94666 717.22206,120.8045 719.2384,120.75483 C 722.73435,120.66872 726.58015,124.78956 728.68825,127.57972 C 730.91083,130.52141 732.16944,133.98958 732.16166,137.67649 C 732.15493,140.86556 730.54771,146.20792 729.21324,149.10437 C 727.32486,153.20306 724.52672,158.58611 721.86336,162.22916 C 717.91755,167.62638 711.31631,173.72703 706.6386,178.5039 C 700.32672,184.94958 691.53234,193.16392 685.11395,199.50356 C 679.56762,204.98184 671.58301,211.76996 666.73925,217.87826 C 663.39912,222.09038 659.40271,228.16011 657.2894,233.10301 C 655.30713,237.73941 653.84334,244.39204 653.08947,249.37775 C 652.59443,252.65173 652.68129,255.80546 653.33672,259.05114 C 654.13155,262.9871 656.79489,268.42309 656.79489,268.42309"
         id="path3254"
         sodipodi:nodetypes="csssssssscsssssscssssscsssscssssssscssssssscsssssssscsssssssssscsscssssssscsssscsssssssssssssc" />
      <path
         style="fill:none;fill-rule:evenodd;stroke:#000000;stroke-width:2.5;stroke-linecap:butt;stroke-linejoin:miter;stroke-miterlimit:4;stroke-dasharray:none;stroke-opacity:1"
         d="M 748.67688,45.55233 C 748.67688,45.55233 744.18926,51.224281 742.55988,53.85397 C 741.1241,56.171204 739.14366,59.312 738.40906,61.937146 C 737.91328,63.70886 737.97213,68.054144 737.97213,68.054144"
         id="path3256"
         sodipodi:nodetypes="csss" />
      <path
         style="fill:none;fill-rule:evenodd;stroke:#000000;stroke-width:2.5;stroke-linecap:butt;stroke-linejoin:miter;stroke-miterlimit:4;stroke-dasharray:none;stroke-opacity:1"
         d="M 727.04892,86.842067 C 727.04892,86.842067 732.08668,92.613984 733.38438,95.580636 C 734.18796,97.417684 734.69517,102.13456 734.69517,102.13456"
         id="path3258"
         sodipodi:nodetypes="csc" />
    </g>
    <g
       transform="translate(180.50356,0.1133258)"
       id="g2674">
      <g
         id="g6176"
         transform="translate(-176.76768,-4.2424243)">
        <path
           sodipodi:nodetypes="cssssssscssssssscc"
           id="path6066"
           d="M 134.43287,106.73789 C 134.43287,106.73789 124.88537,101.01476 120.17727,100.44602 C 116.83138,100.04184 112.22665,100.03865 108.9213,100.64743 C 104.17441,101.52171 97.200259,106.80176 92.405339,107.44368 C 90.147959,107.74589 88.259066,108.02125 86.635751,106.61309 C 83.730477,104.09287 85.923737,99.07968 84.125625,95.86181 C 83.246343,94.288261 81.062291,92.662713 79.301637,91.833633 C 77.121917,90.807215 73.718227,89.963812 71.261666,90.222363 C 69.731687,90.383391 66.667396,92.236451 66.667396,92.236451 C 66.667396,92.236451 70.724339,94.225698 71.721093,95.660402 C 73.907992,98.808169 72.294218,104.4814 74.247941,107.74494 C 75.017954,109.03117 76.854274,110.26697 78.153069,111.16888 C 79.48733,112.09542 81.339958,113.37887 82.977056,113.78719 C 86.622682,114.6965 91.908419,114.49673 95.611299,113.78719 C 100.13011,112.9213 105.10502,107.88179 109.62382,107.0159 C 113.05739,106.35798 117.88001,107.60268 121.33921,108.14775 C 123.87163,108.54679 129.37917,110.76606 129.37917,110.76606 L 134.43287,106.73789 z"
           style="fill:#840101;fill-opacity:1;fill-rule:evenodd;stroke:#000000;stroke-width:2.5;stroke-linecap:butt;stroke-linejoin:miter;stroke-miterlimit:4;stroke-dasharray:none;stroke-opacity:1" />
        <path
           sodipodi:nodetypes="csssscss"
           id="path6139"
           d="M 101.32901,87.929025 C 101.78121,86.468636 102.19672,86.950396 103.63785,86.440139 C 105.08929,85.926231 105.06144,85.650321 106.21624,86.668763 C 107.26275,87.591698 107.55351,87.241967 107.71782,88.627602 C 108.14178,92.202789 107.69561,95.787299 106.32772,99.117554 C 105.74687,100.53171 104.15578,102.35641 104.15578,102.35641 C 104.15578,102.35641 102.98993,100.97867 102.45378,99.282672 C 101.32065,95.698207 100.21706,91.520121 101.32901,87.929025 z"
           style="fill:#848484;fill-rule:evenodd;stroke:#000000;stroke-width:2.5;stroke-linecap:butt;stroke-linejoin:miter;stroke-miterlimit:4;stroke-dasharray:none;stroke-opacity:1;fill-opacity:1" />
        <path
           sodipodi:nodetypes="csssscss"
           id="path6141"
           d="M 103.2283,115.38629 C 103.18621,116.91451 103.73471,116.59218 104.93482,117.53927 C 106.1435,118.49314 106.0283,118.74539 107.44951,118.153 C 108.73745,117.61616 108.90013,118.04089 109.50183,116.78194 C 111.05433,113.53363 111.78603,109.99635 111.56324,106.40302 C 111.46864,104.87714 110.54978,102.63732 110.54978,102.63732 C 110.54978,102.63732 109.00242,103.56632 107.94875,104.99938 C 105.72186,108.02813 103.3318,111.6284 103.2283,115.38629 z"
           style="opacity:1;fill:#848484;fill-rule:evenodd;stroke:#000000;stroke-width:2.5;stroke-linecap:butt;stroke-linejoin:miter;stroke-miterlimit:4;stroke-dasharray:none;stroke-opacity:1;fill-opacity:1" />
        <g
           transform="translate(-537.30128,8.114194)"
           id="g6049"
           style="opacity:1">
          <path
             style="opacity:1;fill:#214263;fill-opacity:1;fill-rule:evenodd;stroke:#000000;stroke-width:3;stroke-linecap:butt;stroke-linejoin:miter;stroke-miterlimit:4;stroke-dasharray:none;stroke-opacity:1"
             d="M 688.4389,102.204 C 688.4389,102.204 673.8908,117.3264 666.38925,122.15367 C 659.27057,126.73456 647.59341,128.74946 640.48967,133.35349 C 633.31795,138.00158 624.63652,145.7803 619.49001,152.60318 C 615.95537,157.28915 612.91924,164.6528 610.74015,170.1029 C 608.7426,175.09895 608.8751,183.07011 605.49023,187.25262 C 604.13011,188.93325 601.25778,190.12001 599.19034,190.75257 C 594.55434,192.17102 587.39767,189.92686 583.0906,192.15255 C 579.05362,194.23868 574.49945,199.32193 573.29075,203.70236 C 572.61122,206.16504 573.08888,210.11208 574.69073,212.10222 C 576.46341,214.3046 583.44059,215.60217 583.44059,215.60217 C 583.44059,215.60217 580.32758,210.23392 580.99063,207.90229 C 581.5202,206.04005 584.01228,204.17193 585.89055,203.70236 C 588.70795,202.99801 592.4586,205.44304 595.3404,205.80233 C 598.88445,206.24419 603.68131,206.45196 607.24021,206.15232 C 609.90771,205.92773 615.99006,204.40235 615.99006,204.40235 C 615.99006,204.40235 613.33852,212.80827 614.24009,216.30216 C 614.9327,218.98627 618.90113,221.04384 619.84,223.65204 C 620.72977,226.12383 620.91738,229.87755 620.19,232.4019 C 618.95623,236.68363 611.79013,244.6517 611.79013,244.6517 C 611.79013,244.6517 622.88943,241.23662 626.4899,238.00181 C 629.57085,235.23376 632.67221,230.16229 633.48978,226.102 C 634.26362,222.25889 630.51379,216.87581 631.73981,213.15221 C 633.29568,208.42679 643.28962,201.2524 643.28962,201.2524 C 643.28962,201.2524 643.7707,209.91929 644.6896,213.5022 C 645.30962,215.91974 648.41296,218.77306 647.83955,221.20208 C 647.07024,224.46095 640.91779,225.54742 639.43969,228.55196 C 637.95361,231.57271 638.16604,236.43451 638.7397,239.75178 C 639.14848,242.11562 640.28975,245.31415 641.88965,247.10166 C 644.30427,249.79942 648.88857,252.12858 652.38948,253.05156 C 653.60783,253.37277 656.58941,253.05156 656.58941,253.05156 C 656.58941,253.05156 649.4787,248.51779 648.18955,245.35169 C 647.47572,243.59856 647.73916,240.76713 648.53954,239.05179 C 649.51324,236.96498 652.38042,235.28803 654.13945,233.80187 C 656.65793,231.67407 660.8025,229.70453 662.88931,227.15198 C 665.0294,224.53424 666.93877,220.27465 667.78923,217.00215 C 668.68872,213.54101 668.48922,205.10234 668.48922,205.10234 C 668.48922,205.10234 668.21667,211.54967 669.92306,214.56348 C 670.94731,216.3725 675.0447,219.46656 676.18909,221.20208 C 677.12289,222.61822 678.45317,224.76365 678.28906,226.45199 C 678.08337,228.56807 675.5383,230.58203 674.43912,232.4019 C 673.44259,234.05182 671.28917,238.00181 671.28917,238.00181 C 671.28917,238.00181 680.69223,233.64034 683.88897,230.65192 C 686.76095,227.9671 690.57742,223.67754 691.23885,219.8021 C 691.58591,217.76862 690.1226,215.11535 689.48888,213.15221 C 689.03961,211.76047 688.16688,210.00072 687.73891,208.60228 C 687.32896,207.26275 686.2609,205.38621 686.68892,204.05235 C 687.41626,201.78571 692.63883,198.80244 692.63883,198.80244 C 692.63883,198.80244 691.35972,203.20005 691.58885,205.10234 C 691.97135,208.27796 695.78878,214.90218 695.78878,214.90218 C 695.78878,214.90218 696.22957,208.92856 697.88874,207.2023 C 700.78818,204.18562 707.53123,205.03494 711.18853,203.00237 C 715.41925,200.65112 720.45962,196.3176 723.43833,192.50254 C 726.76157,188.24622 729.98727,181.59003 731.4882,176.4028 C 732.36809,173.36188 731.06483,168.70487 732.53818,165.90297 C 734.20256,162.73778 739.59806,161.14028 741.63804,158.20309 C 743.22951,155.91167 743.02865,151.61843 744.78799,149.45323 C 746.80941,146.96549 752.50111,146.74329 753.88784,143.85332 C 755.35272,140.80049 753.48409,135.88973 752.48786,132.65351 C 750.99575,127.80644 744.78799,117.60375 744.78799,117.60375 L 743.03802,94.854115 L 731.4882,81.204335 L 682.139,94.854115 L 688.4389,102.204 z"
             id="path5995"
             sodipodi:nodetypes="cssssssssscsssscssscssscsssssscssssscsssscssssscscsssssssssccccc" />
          <path
             style="opacity:1;fill:#214263;fill-opacity:1;fill-rule:evenodd;stroke:#000000;stroke-width:3;stroke-linecap:butt;stroke-linejoin:miter;stroke-miterlimit:4;stroke-dasharray:none;stroke-opacity:1"
             d="M 729.60318,47.735499 C 729.60318,47.735499 732.24825,44.269376 733.04677,41.322563 C 733.53356,39.526117 733.18283,34.258858 732.87163,31.642389 C 732.58006,29.191036 731.75403,28.225806 731.75403,28.225806 C 731.75403,28.225806 731.26886,31.223122 730.57986,32.770179 C 729.42117,35.371868 724.69758,40.221774 724.69758,40.221774 C 724.69758,40.221774 725.50524,36.775678 725.40323,35.282258 C 725.08815,30.669549 721.16935,20.46371 721.16935,20.46371 C 721.16935,20.46371 719.41438,30.458301 716.93548,33.870968 C 714.79501,36.817726 711.95439,35.852058 708.51279,37.043843 C 699.90181,40.025721 684.22043,37.753376 674.38912,41.700717 C 670.3392,43.326792 662.02526,49.084862 662.02526,49.084862 C 662.02526,49.084862 651.67677,52.636266 645.92038,51.588613 C 643.80577,51.203757 641.33659,49.273281 639.22525,49.675719 C 635.48312,50.389002 632.47141,50.314048 629.34196,51.269797 C 625.40434,52.472365 625.18829,60.748331 626.47262,64.660051 C 626.90292,65.970626 628.67863,67.150147 629.02315,68.485839 C 629.59845,70.716268 627.70196,73.937746 628.38552,76.137413 C 629.19232,78.733675 631.66736,81.987112 634.1242,83.151355 C 637.49502,84.748715 642.70602,83.391005 646.23919,82.194908 C 650.11679,80.882211 654.31442,81.229401 656.44129,77.73149 C 657.29909,76.320727 659.94826,71.036363 659.94826,71.036363 C 659.94826,71.036363 666.15995,75.52935 667.59983,79.325568 C 668.85531,82.635615 668.78452,87.916731 667.28102,91.121745 C 665.0647,95.84628 659.07408,100.70967 654.20958,102.59911 C 649.84005,104.2963 642.88295,101.04086 638.58762,102.91792 C 635.1786,104.40767 631.80126,105.76737 630.61723,109.29424 C 629.85077,111.57729 629.37363,116.38841 630.93604,118.22107 C 632.743,120.34058 636.55699,118.35975 637.94999,120.77159 C 638.73892,122.13754 638.58762,127.46672 638.58762,127.46672 C 638.58762,127.46672 644.77572,123.44772 646.23919,120.77159 C 647.16727,119.07448 647.19564,114.39528 647.19564,114.39528 C 647.19564,114.39528 662.36525,115.41571 668.8751,115.35173 C 673.37933,115.30746 681.1044,116.40695 685.13469,114.39528 C 688.2906,112.82005 690.79276,108.92175 691.511,105.46845 C 691.7759,104.1948 690.23574,101.32384 690.23574,101.32384 C 690.23574,101.32384 692.55274,99.89701 693.74272,101.00502 C 696.69016,103.74944 697.79814,107.1808 697.88731,111.20713 C 698.04408,118.28568 697.15769,128.75086 694.06153,135.11829 C 692.24519,138.85369 688.99499,143.75995 685.42525,147.28986 C 683.9747,148.72422 682.47139,149.93132 680.99009,150.74026 C 677.37955,152.71197 671.40758,152.70518 667.91865,154.88486 C 665.56629,156.35448 662.84168,159.12946 661.54234,161.57999 C 660.48776,163.56891 659.8032,166.66622 659.94826,168.91275 C 660.1315,171.75056 663.13642,177.83958 663.13642,177.83958 L 665.6008,170.56846 L 678.13094,164.55399 C 678.13094,164.55399 694.66931,160.86719 700.68518,157.03591 C 707.32387,152.80798 707.4836,150.40644 707.4836,150.40644 C 707.4836,150.40644 706.00382,159.47115 698.17915,166.55882 C 695.73253,168.77499 688.65625,172.07208 688.65625,172.07208 C 688.65625,172.07208 702.13338,171.08946 707.20085,168.56364 C 713.2025,165.57219 719.84121,158.98302 723.74063,153.52747 C 727.26523,148.59632 732.75345,131.75389 732.75345,131.75389 C 732.75345,131.75389 728.47675,115.96083 725.24425,108.41899 C 723.48606,104.31692 717.22496,95.888851 717.22496,95.888851 C 717.22496,95.888851 723.33249,104.56779 725.22814,108.67765 C 729.42713,117.78126 735.26835,140.55149 735.26835,140.55149 C 735.26835,140.55149 740.04931,125.94866 740.78161,119.44551 C 741.32029,114.66182 741.53579,108.05428 740.28041,103.40693 C 739.21015,99.444866 733.76474,91.378002 733.76474,91.378002 C 733.76474,91.378002 738.90131,99.790013 740.22505,103.76723 C 741.7301,108.28919 740.1751,115.45877 742.78644,119.44551 C 745.82585,124.0858 752.77702,129.4105 758.3238,129.46961 C 760.61884,129.49407 763.34543,127.20228 764.83947,125.45997 C 766.85727,123.10685 769.20523,119.01633 768.84912,115.93707 C 768.61417,113.90547 764.83947,110.42381 764.83947,110.42381 C 764.83947,110.42381 762.99203,115.28375 761.67523,116.75933 C 760.53375,118.03845 758.34092,117.54288 756.88258,116.64157 C 755.5782,115.83542 755.76176,111.88264 755.51987,110.36845 C 754.32538,102.89124 758.90482,94.082934 756.29583,88.010465 C 755.40749,85.942815 752.49435,80.42972 749.91596,78.778481 C 748.22899,77.698129 741.78403,74.838223 741.78403,74.838223 C 741.78403,74.838223 746.07556,72.080751 747.29728,70.327374 C 749.93417,66.542993 751.54705,60.341442 752.30934,55.792417 C 752.85604,52.52995 752.30934,44.765898 752.30934,44.765898 C 752.30934,44.765898 742.09446,45.104104 737.77438,45.768309 C 735.28226,46.151468 729.60318,47.735499 729.60318,47.735499 z"
             id="path5193"
             sodipodi:nodetypes="csscscscssscssssssssscssssssscscssscsssssssscccscscsscscscsscssssscssssscsscsc" />
          <g
             style="opacity:1"
             id="g5187"
             transform="translate(149.02369,7.1978252)">
            <path
               transform="matrix(-0.9158702,-0.4014745,-0.4014745,0.9158702,719.27797,-20.238666)"
               d="M 149.34544,142.89806 A 12.504578,7.3608503 0 1 1 124.33629,142.89806 A 12.504578,7.3608503 0 1 1 149.34544,142.89806 z"
               sodipodi:ry="7.3608503"
               sodipodi:rx="12.504578"
               sodipodi:cy="142.89806"
               sodipodi:cx="136.84087"
               id="path3163"
               style="fill:#848484;fill-opacity:1;fill-rule:evenodd;stroke:#000000;stroke-width:2.5;stroke-linecap:butt;stroke-linejoin:miter;marker:none;marker-start:none;marker-mid:none;marker-end:none;stroke-miterlimit:4;stroke-dasharray:none;stroke-dashoffset:0;stroke-opacity:1;visibility:visible;display:inline;overflow:visible;enable-background:accumulate"
               sodipodi:type="arc" />
            <path
               transform="translate(391.31753,-88.325583)"
               d="M 149.95408,141.35471 A 8.0072575,8.0072575 0 1 1 133.93957,141.35471 A 8.0072575,8.0072575 0 1 1 149.95408,141.35471 z"
               sodipodi:ry="8.0072575"
               sodipodi:rx="8.0072575"
               sodipodi:cy="141.35471"
               sodipodi:cx="141.94682"
               id="path3179"
               style="fill:#848484;fill-opacity:1;fill-rule:evenodd;stroke:#000000;stroke-width:2.5;stroke-linecap:butt;stroke-linejoin:miter;marker:none;marker-start:none;marker-mid:none;marker-end:none;stroke-miterlimit:4;stroke-dasharray:none;stroke-dashoffset:0;stroke-opacity:1;visibility:visible;display:inline;overflow:visible;enable-background:accumulate"
               sodipodi:type="arc" />
            <path
               sodipodi:nodetypes="csccsssssscscsssssc"
               id="path3183"
               d="M 533.92275,46.139841 C 533.31906,46.138131 532.77751,46.232281 532.23525,46.296091 C 531.15073,46.423711 530.23525,46.608591 530.23525,46.608591 L 531.0165,50.014841 C 531.0165,50.014841 531.76269,49.868251 532.6415,49.764841 C 533.52031,49.661431 534.62239,49.809301 534.454,49.733591 C 534.37759,49.699231 535.08646,50.492851 535.1415,50.671091 C 535.31812,51.243091 535.21539,53.377731 534.92867,53.956641 C 534.82818,54.159541 534.01078,54.877491 533.95992,54.894141 C 534.22007,54.808951 533.35632,54.883991 532.70992,54.769141 C 532.06353,54.654291 531.52242,54.519141 531.52242,54.519141 C 531.52242,54.519141 529.75144,54.308521 529.5004,54.887361 C 529.16761,55.654701 530.5165,57.483591 530.5165,57.483591 C 530.5165,57.483591 531.21311,57.647801 532.04775,57.796091 C 532.88239,57.944381 533.73386,58.205891 534.98525,57.796091 C 536.47701,57.307571 537.39657,56.360291 538.0165,55.108591 C 538.84857,53.428551 539.05237,51.476461 538.48525,49.639841 C 538.08242,48.335281 537.38331,47.216851 535.8915,46.546091 C 535.18438,46.228151 534.52644,46.141551 533.92275,46.139841 z"
               style="fill:#000000;fill-opacity:1;fill-rule:evenodd;stroke:none;stroke-width:3.5;stroke-linecap:butt;stroke-linejoin:miter;stroke-miterlimit:4;stroke-dasharray:none;stroke-opacity:1" />
            <path
               sodipodi:nodetypes="csssssssssssc"
               id="path3167"
               d="M 532.47164,40.771801 C 532.47164,40.771801 529.7101,41.202371 528.56951,41.658651 C 526.32936,42.554801 524.06991,44.584411 523.78052,46.979741 C 523.62922,48.232081 524.11404,49.296811 525.02211,50.172401 C 525.99869,51.114051 527.56902,50.997911 528.92425,51.059251 C 530.90892,51.149091 533.37186,49.586261 535.30956,49.817661 C 538.09936,50.150821 541.71683,51.860581 543.82332,53.719801 C 544.80864,54.589461 545.02696,56.728741 546.12912,57.444571 C 547.11996,58.088101 548.97587,58.507761 550.03126,57.976681 C 551.1162,57.430731 551.68017,55.605661 551.98233,54.429281 C 552.12795,53.862361 552.14727,53.039811 551.98233,52.478211 C 551.73277,51.628491 550.99851,50.634671 550.386,49.995031 C 549.6202,49.195311 547.37071,47.866591 547.37071,47.866591"
               style="fill:#214263;fill-opacity:1;fill-rule:evenodd;stroke:#000000;stroke-width:2.5;stroke-linecap:butt;stroke-linejoin:miter;stroke-miterlimit:4;stroke-dasharray:none;stroke-opacity:1" />
          </g>
          <path
             style="opacity:1;fill:none;fill-rule:evenodd;stroke:#000000;stroke-width:2.5;stroke-linecap:butt;stroke-linejoin:miter;stroke-miterlimit:4;stroke-dasharray:none;stroke-opacity:1"
             d="M 630.76519,66.030669 C 630.76519,66.030669 635.53134,59.267881 637.76028,58.344623 C 639.98922,57.421365 640.82474,57.55126 641.26446,58.344623 C 641.70418,59.137986 641.56838,60.389031 639.91669,62.02259 C 638.265,63.656149 630.76519,66.030669 630.76519,66.030669 z"
             id="path6013"
             sodipodi:nodetypes="csssc" />
          <path
             style="opacity:1;fill:#000000;fill-rule:evenodd;stroke:#000000;stroke-width:2.5;stroke-linecap:butt;stroke-linejoin:miter;stroke-miterlimit:4;stroke-dasharray:none;stroke-opacity:1"
             d="M 729.18784,59.26477 C 729.18784,59.26477 731.91427,54.879424 733.76034,53.803164 C 736.67227,52.105508 744.81057,51.770939 744.81057,51.770939 C 744.81057,51.770939 746.19035,58.845105 744.30251,60.788939 C 743.36995,61.749157 740.80409,60.224076 739.85702,61.169981 C 738.61216,62.413303 740.60685,65.782495 739.34896,67.012629 C 738.50268,67.840231 735.41153,67.266657 735.41153,67.266657 C 735.41153,67.266657 735.46636,62.260708 734.14138,60.788939 C 733.10109,59.633403 729.18784,59.26477 729.18784,59.26477 z"
             id="path6022"
             sodipodi:nodetypes="cscssscsc" />
          <path
             style="opacity:1;fill:none;fill-rule:evenodd;stroke:#000000;stroke-width:2.5;stroke-linecap:butt;stroke-linejoin:miter;stroke-miterlimit:4;stroke-dasharray:none;stroke-opacity:1"
             d="M 721.78715,61.84739 C 721.78715,61.84739 716.30988,72.901406 712.6506,76.606426 C 710.71883,78.562341 707.54322,80.704897 704.91968,81.526104 C 699.88525,83.101956 686.7598,83.997718 686.7598,83.997718 L 685.94378,85.040161 C 685.94378,85.040161 700.69876,81.220282 704.91968,85.040161 C 706.49078,86.461988 706.49702,90.138212 705.62249,92.068273 C 704.87392,93.720335 702.84625,96.022524 701.29241,96.958064 C 698.869,98.417156 692.46561,100.19226 692.46561,100.19226"
             id="path6018"
             sodipodi:nodetypes="cssccsssc" />
          <path
             style="opacity:1;fill:none;fill-rule:evenodd;stroke:#000000;stroke-width:2.5;stroke-linecap:butt;stroke-linejoin:miter;stroke-miterlimit:4;stroke-dasharray:none;stroke-opacity:1"
             d="M 717.57028,118.07229 C 717.57028,118.07229 718.39379,126.53163 717.57028,130.02008 C 716.27045,135.52626 713.83908,140.28667 710.99942,145.17992 C 709.85472,147.15245 706.78255,151.50522 706.78255,151.50522"
             id="path6020"
             sodipodi:nodetypes="csss" />
          <path
             style="fill:none;fill-rule:evenodd;stroke:#000000;stroke-width:2.5;stroke-linecap:butt;stroke-linejoin:miter;stroke-miterlimit:4;stroke-dasharray:none;stroke-opacity:1"
             d="M 629.01606,189.75904 C 629.01606,189.75904 622.68178,194.0192 620.38193,196.56699 C 618.68071,198.45162 615.66265,204.51807 615.66265,204.51807"
             id="path6039"
             sodipodi:nodetypes="css" />
          <path
             style="fill:none;fill-rule:evenodd;stroke:#000000;stroke-width:2.5;stroke-linecap:butt;stroke-linejoin:miter;stroke-miterlimit:4;stroke-dasharray:none;stroke-opacity:1"
             d="M 694.37751,179.21687 C 694.37751,179.21687 682.14701,183.09808 677.08243,186.54981 C 674.73845,188.14734 672.62873,191.5314 671.41337,194.09445 C 669.51414,198.0997 668.37349,205.54265 668.37349,205.54265"
             id="path6041"
             sodipodi:nodetypes="cssc" />
          <path
             style="fill:none;fill-rule:evenodd;stroke:#000000;stroke-width:2.5;stroke-linecap:butt;stroke-linejoin:miter;stroke-miterlimit:4;stroke-dasharray:none;stroke-opacity:1"
             d="M 693.01423,198.29015 C 693.01423,198.29015 699.96033,191.46178 702.81124,189.05622 C 706.6551,185.81282 714.04467,184.08221 716.86747,179.91968 C 718.6777,177.25031 718.9759,169.37751 718.9759,169.37751"
             id="path6043"
             sodipodi:nodetypes="csss" />
          <path
             style="opacity:1;fill:none;fill-rule:evenodd;stroke:#000000;stroke-width:2.5;stroke-linecap:butt;stroke-linejoin:miter;stroke-miterlimit:4;stroke-dasharray:none;stroke-opacity:1"
             d="M 627.61044,153.91566 C 627.61044,153.91566 627.06848,163.52816 625.50201,167.26908 C 623.17286,172.83138 618.17043,179.55369 613.55422,183.43373 C 611.02788,185.55718 603.71486,188.35341 603.71486,188.35341 C 603.71486,188.35341 603.71486,188.35341 603.71486,188.35341"
             id="path6037"
             sodipodi:nodetypes="cssss" />
        </g>
      </g>
      <path
         style="opacity:1;fill:none;fill-rule:evenodd;stroke:#000000;stroke-width:2.5;stroke-linecap:butt;stroke-linejoin:miter;stroke-miterlimit:4;stroke-dasharray:none;stroke-opacity:1"
         d="M -71.217589,207.30666 C -71.217589,207.30666 -68.994759,198.3666 -67.133379,194.66594 C -65.920099,192.25377 -61.510889,187.63783 -61.510889,187.63783"
         id="path6197"
         sodipodi:nodetypes="css" />
    </g>
    <path
       sodipodi:nodetypes="cc"
       id="path3314"
       d="M 225.81641,260.0763 C 212.6434,262.25469 207.28594,271.42596 203.80741,282.27836"
       style="fill:none;fill-rule:evenodd;stroke:#000000;stroke-width:3;stroke-linecap:butt;stroke-linejoin:miter;stroke-miterlimit:4;stroke-dasharray:none;stroke-opacity:1" />
  </g>
</svg>
