<?xml version="1.0" encoding="UTF-8" standalone="no"?>
<!-- Created with Inkscape (http://www.inkscape.org/) -->

<svg
   xmlns:dc="http://purl.org/dc/elements/1.1/"
   xmlns:cc="http://web.resource.org/cc/"
   xmlns:rdf="http://www.w3.org/1999/02/22-rdf-syntax-ns#"
   xmlns:svg="http://www.w3.org/2000/svg"
   xmlns="http://www.w3.org/2000/svg"
   version="1.0"
   width="655.7738"
   height="536.6991"
   id="svg20">
  <defs
     id="defs29" />
  <metadata 
     id="metadata1880"><rdf:RDF><cc:Work
         rdf:about=""><dc:title>Heraldic Wolf Passant</dc:title><dc:date>2011-06-01</dc:date><dc:creator><cc:Agent><dc:title>Lokal_Profil and Delta-9</dc:title></cc:Agent></dc:creator><cc:license
         rdf:resource="http://creativecommons.org/licenses/by-sa/2.5/" /><dc:rights><cc:Agent><dc:title>cc-by-sa-2.5</dc:title></cc:Agent></dc:rights><dc:format>image/svg+xml</dc:format><dc:type
         rdf:resource="http://purl.org/dc/dcmitype/StillImage" /></cc:Work><cc:License
         rdf:about="http://creativecommons.org/licenses/by-sa/2.5/"><cc:permits
         rdf:resource="http://web.resource.org/cc/Reproduction" /><cc:permits
         rdf:resource="http://web.resource.org/cc/Distribution" /><cc:requires
         rdf:resource="http://web.resource.org/cc/Notice" /><cc:requires
         rdf:resource="http://web.resource.org/cc/Attribution" /><cc:permits
         rdf:resource="http://web.resource.org/cc/DerivativeWorks" /><cc:requires
         rdf:resource="http://web.resource.org/cc/ShareAlike" /></cc:License></rdf:RDF>
  </metadata>
  <g
     transform="matrix(0.72348492,-0.69034019,0.69034019,0.72348492,-103.9129,264.01373)"
     id="Wolf"
     style="fill:#cccccc;stroke:#000000;stroke-width:2.75;stroke-linecap:round;stroke-linejoin:round">
    <g
       transform="matrix(0.99006637,0.14060079,-0.14060079,0.99006637,50.398447,12.026031)"
       id="Claws-Front-L" style="fill:#e60000">
      <path
         d="m 65.188125,333.55524 c 0,0 -8.821869,-3.8627 -23.293327,-0.49364 0,0 4.187999,-11.97481 16.256078,-14.47146 5.748546,-1.18861 11.817846,-0.52777 13.404554,1.65268 1.586708,2.18044 3.247348,7.6651 3.247348,7.6651 l -4.757849,7.53317 -4.856804,-1.88585 z"
         id="path3000" />
      <path
         d="m 62.004472,355.54963 c 0,0 -20.529384,0.88605 -16.345935,25.48514 0,0 8.11439,-13.16001 15.476942,-10.14697 7.36369,3.01304 6.611852,-4.57927 6.611852,-4.57927 l -0.836007,-9.20404 -4.906852,-1.55486 z"
         id="path3002" />
      <path
         d="m 73.87009,396.0647 c 0,0 -5.072916,10.39948 -1.128326,21.60994 0,0 8.969734,-7.90965 13.282849,-16.11162 4.326765,-8.227 0.136491,-5.75537 0.136491,-5.75537 l -7.265871,-4.1516 -5.025143,4.40865 z"
         id="path3004" />
      <path
         d="m 111.20152,406.19347 c 0,0 -2.77191,8.60349 -16.89304,13.15546 0,0 10.77255,5.86798 20.91838,1.11354 5.71784,-2.67977 9.82281,-6.36503 10.15493,-11.08648 l -1.47979,-5.72807 -7.24767,-2.21457 -5.63708,0.60397 0.18427,4.15615 z"
         id="path3006" />
    </g>
    <g
       id="g3185">
      <g
         id="Claws-Front-R" style="fill:#e60000">
        <path
           d="m 98.787659,87.181022 c 0,0 -16.231055,-14.741028 -33.945311,-2.620628 0,0 16.258352,0.688143 23.378633,12.728924 l 4.28013,3.431612 5.904373,-4.662306 2.486416,-4.662305 -2.104241,-4.215297 z"
           id="path2966" />
        <path
           d="m 78.411828,116.36507 -4.893203,-2.53646 c 0,0 -21.836285,-2.58195 -28.376478,18.17606 0,0 12.980294,-8.67514 20.565781,-1.63562 7.585487,7.03952 9.291625,0.49819 9.291625,0.49819 l 4.265344,-8.53069 -0.853069,-5.97148 z"
           id="path2968" />
        <path
           d="m 66.167448,155.63695 c 0,0 -19.274804,0.48795 -17.07275,26.47015 0,0 8.580735,-14.6307 19.370348,-11.76894 10.789614,2.86176 4.84998,-7.82776 4.84998,-7.82776 l -3.082421,-7.48653 -4.065157,0.61308 z"
           id="path2970" />
        <path
           d="m 91.436481,196.06672 c 0,0 -11.246858,3.55559 -17.746104,-9.44404 0,0 -3.893406,12.43546 3.646584,19.97545 3.487345,3.48735 9.326885,5.93168 14.55904,3.71142 5.232155,-2.22025 6.684647,-7.83344 6.684647,-7.83344 l -2.219116,-5.54836 -4.925051,-0.86103 z"
           id="path2972" />
      </g>
      <path
         d="m 236.61855,244.76784 c 0,0 -13.54901,-7.61961 -33.99877,-11.02619 -2.75712,-0.45952 -18.37738,-16.99882 -36.75476,-30.78214 -18.37737,-13.78331 -35.83571,-28.48453 -35.83571,-28.48453 0,0 -11.0262,-13.3238 -11.48572,-25.26904 -0.45952,-11.94523 -4.13567,-25.26903 -6.89165,-28.94405 -2.75598,-3.67502 11.48571,-27.107112 -12.864281,-33.079731 0,0 -3.2155,9.648776 -10.566678,10.108296 0,0 -5.513099,9.188115 -0.45952,14.241695 0,0 -9.648776,-3.67615 -14.242836,2.2976 0,0 0.45952,11.0262 -7.810697,16.54044 0,0 1.377422,10.56667 11.945237,9.64764 10.567816,-0.91904 10.567816,1.83807 10.567816,1.83807 0,0 -1.377422,4.13454 -7.810698,5.97262 -6.433275,1.83808 -11.486855,0 -14.242835,7.8107 0,0 5.514236,5.5131 2.297598,14.70236 0,0 1.836942,8.27021 11.026198,7.35117 9.189257,-0.91904 9.188119,-9.18925 13.323797,-5.5131 4.135677,3.67616 13.783319,12.86428 12.864279,15.16188 -0.91904,2.2976 -1.37856,4.59406 -5.05358,4.59406 -3.675022,0 -9.647641,-1.37856 -9.188121,4.13454 0,0 5.513099,7.8107 0.45952,14.24284 0,0 2.75598,9.18811 10.566681,10.10715 7.81069,0.91904 14.70235,-6.43213 14.70235,-6.43213 0,0 9.18926,13.32379 14.70236,13.32379 0,0 -10.56668,-0.91904 -14.2417,-2.75712 0,0 6.89166,15.16188 27.56549,16.54044 0,0 -9.18811,0.91904 -17.45833,-1.83808 0,0 9.18812,14.2417 34.91667,15.62026 0,0 -9.18926,0.91904 -17.45834,-0.91904 0,0 9.18926,13.78218 31.70118,14.70122 0,0 -8.27022,2.29759 -17.45948,-0.45952 0,0 9.18926,12.86427 33.99877,13.78331 0,0 -9.18812,1.37856 -18.37737,-0.45952 0,0 10.10716,13.78332 29.40357,11.94524 0,0 -5.97262,2.2976 -13.3238,1.37856 0,0 13.14636,13.8891 24.77085,13.70824 l 37.10735,-3.02441 17.47881,-60.0367 -33.87365,-0.72682 z"
         id="path2974" />
      <path
         d="m 87.761461,111.53102 c 5.05358,5.05358 9.188119,8.27021 10.566679,13.78331"
         id="path3048"
         style="fill:none" />
    </g>
    <g
       transform="matrix(0.98329761,0.18200497,-0.18200497,0.98329761,121.42264,-56.946524)"
       id="Claws-Back-L" style="fill:#e60000">
      <path
         d="m 315.22144,610.2134 c 0,0 -9.55665,-1.45477 -13.2601,8.42149 -2.23391,5.95897 0.55847,15.08339 0.55847,15.08339 0,0 5.62571,-12.67546 12.70163,-11.92931 7.07592,0.74615 7.22378,-1.29098 7.22378,-1.29098 l -2.42044,-7.82207 -0.93041,-3.16545 -3.87293,0.70293 z"
         id="path3008" />
      <path
         d="m 316.09043,642.91436 c 0,0 -6.45034,6.65394 -3.07105,15.49287 1.76642,4.62022 8.69675,10.46317 8.69675,10.46317 0,0 -2.63313,-15.06519 3.34517,-16.69626 5.97831,-1.63107 3.44867,-6.26948 3.44867,-6.26948 l -9.78413,-7.60938 -2.63541,4.61908 z"
         id="path3010" />
      <path
         d="m 349.37035,665.4877 c 0,0 -4.94098,10.07759 4.31084,18.3569 2.72527,2.43864 9.0357,3.29854 9.0357,3.29854 0,0 -6.06361,-12.25235 1.70159,-17.31502 7.7652,-5.06268 -3.42365,-9.22111 -3.42365,-9.22111 l -10.61445,0.5744 -1.01003,4.30629 z"
         id="path3012" />
      <path
         d="m 393.64689,654.49108 c 0,0 3.38498,8.16557 -12.91432,18.81756 0,0 8.95153,4.73851 20.53507,-3.46574 6.16029,-4.36316 8.00065,-11.30941 5.69054,-15.93077 -2.31011,-4.62136 -5.04903,-5.63026 -5.04903,-5.63026 l -8.08482,2.43978 -0.17744,3.76943 z"
         id="path3014" />
    </g>
    <g
       transform="translate(2.64095,-3.0042276)"
       id="g2944">
      <g
         transform="matrix(0.98348703,0.18097862,-0.18097862,0.98348703,155.0818,-74.668891)"
         id="Claws-Back-R" style="fill:#e60000">
        <path
           d="m 135.44004,557.26967 c 0,0 -13.96416,6.77451 -8.54433,27.63261 0,0 6.80862,-14.54653 15.34955,-14.54653 8.54092,0 4.52354,-8.77523 4.52354,-8.77523 l -5.25605,-6.40598 -6.07271,2.09513 z"
           id="path2954" />
        <path
           d="m 119.94831,532.46926 c 0,0 5.81225,-15.59637 16.13779,-18.67197 6.26835,-1.86765 11.90315,-2.34082 13.48645,0.0296 1.58329,2.3704 2.38404,5.30495 2.38404,5.30495 l -4.66799,10.80213 -5.04448,-0.92814 c 10e-4,0 -8.29183,-4.53832 -22.29581,3.46346 z"
           id="path2956" />
        <path
           d="m 191.96893,596.52562 c 0,0 3.84904,7.21014 -9.00045,14.2872 0,0 11.17293,1.86196 19.32372,-2.54897 5.32201,-2.87996 6.64938,-8.73884 4.85453,-12.2603 -1.79486,-3.52147 -4.85453,-4.81017 -4.85453,-4.81017 l -9.34054,0.96681 -0.98273,4.36543 z"
           id="path2958" />
        <path
           d="m 167.42671,610.75936 c 0,0 -2.28395,-15.32339 4.65207,-19.99024 l 1.35012,-8.28387 -10.26981,-3.20071 -4.93415,2.80147 -0.27753,3.97303 c -0.001,-10e-4 -7.05886,13.09745 9.4793,24.70032 z"
           id="path2960" />
      </g>
      <path
         d="m 383.08225,383.30189 c -18.49031,-0.74253 -31.51959,6.44049 -51.87649,24.51459 -20.3569,18.07408 -33.14281,21.04357 -39.83565,19.81197 0,0 14.2535,12.20237 28.31284,5.21005 0,0 -5.45666,12.30052 -16.33274,19.34662 0,0 12.1647,3.30366 21.97072,-6.6005 0,0 -6.39204,11.59524 -14.08486,18.69511 0,0 12.82907,-0.3004 20.19558,-8.52431 0,0 1.65493,14.14117 -10.53457,22.54273 -12.18952,8.40155 -39.53405,12.41601 -66.8211,7.39472 -18.53144,-3.41011 -24.6302,-19.43418 -29.20984,-23.47007 -4.57965,-4.03589 -12.20563,-5.97236 -15.67317,-4.48129 0,0 -2.6393,8.56065 -9.95335,13.6022 0,0 -1.14977,12.03022 12.55998,15.61705 0,0 -15.80989,-6.63561 -24.36707,10.94983 0,0 7.15343,4.51067 4.32342,14.10138 0,0 6.25183,7.29852 15.75487,2.5603 0,0 -8.10043,7.89457 -3.15488,15.72411 0,0 10.44334,-1.8034 13.04651,7.1911 0,0 10.59273,1.85326 10.97077,-7.56067 0.14846,-3.69783 7.0411,-9.34663 12.46163,-4.092 5.42054,5.25463 2.88766,7.44854 2.88766,7.44854 0,0 -13.01733,1.32975 -7.80037,13.46639 0,0 8.15362,-3.82191 15.02298,2.23249 0,0 13.15314,0.82324 9.85867,-13.08763 0,0 18.57347,6.079 33.9591,-8.12073 0,0 -1.74709,6.59683 -8.64014,12.24786 0,0 19.09979,0.32153 31.81765,-13.83596 0,0 -4.56313,10.33578 -10.04805,14.11678 0,0 17.93371,-2.02105 32.43865,-20.108 0,0 -1.89423,10.29375 -4.00652,13.09937 0,0 13.1658,-5.02758 23.54017,-18.02032 0,0 -1.13768,6.17696 -3.11429,11.13555 0,0 13.49099,-3.90374 17.82381,-15.87906 0,0 -0.81172,7.3021 -1.98933,10.81057 0,0 13.54386,-7.08833 17.72913,-15.36449 4.18527,-8.27616 3.69438,-20.07629 -1.52279,-32.21181 -5.21717,-12.13553 -7.71189,-27.49524 12.57858,-36.53523 27.6983,-20.68961 21.92783,-52.28179 -18.28751,-53.92724 z"
         id="path2962"
         style="stroke-width:2.75" />
      <path
         d="m 436.02166,425.75377 c -2.88792,-3.12337 -5.1423,-4.96941 -7.93809,-5.66779"
         id="path3036"
         style="fill:none" />
      <path
         d="m 207.1091,514.68495 c 2.13384,-0.75155 4.48097,-2.02738 7.03622,-4.01519"
         id="path3050"
         style="fill:none;stroke-width:2.75" />
    </g>
    <path
       d="m 377.25546,437.93218 -28.78823,-35.06909 c 0,0 -10.04687,-12.92683 28.78823,12.03851 7.32843,4.71121 0,23.03058 0,23.03058 z"
       id="path2964" />
    <path
       d="m 379.75027,139.36481 c 0,0 -24.71516,-20.32085 -51.6617,-31.65263 -26.94655,-11.331789 -52.50108,-9.784689 -64.00819,-23.060956 -11.5071,-13.276276 8.42534,-30.196353 12.4207,-29.462186 0,0 -15.03861,-10.3232 -35.63908,4.148673 -9.05865,6.364771 -13.21096,28.112471 2.49324,40.2309 15.66907,12.090819 30.40859,4.868379 54.45677,10.632449 22.00994,5.27594 36.50962,9.16758 77.59148,36.90376 l 4.34678,-7.74001 z"
       id="Tongue"
       style="fill:#e60000;stroke-width:2.75" />
    <g
       transform="matrix(0.91771572,0.39723779,-0.39723779,0.91771572,141.55766,-139.42265)"
       id="Teeth">
      <path
         d="m 234.87032,139.70276 c 0,0 -0.85193,7.94946 7.66625,13.91184 0,0 -1.13515,-11.6404 3.9753,-21.01051 0,10e-4 -11.64155,-1.98708 -11.64155,7.09867 z"
         id="path2982" />
      <path
         d="m 244.2029,178.25805 c 0,0 -1.97457,-7.74814 5.6075,-14.86159 0,0 0.53345,11.68363 6.92578,20.23138 0,-0.001 -11.24117,3.6227 -12.53328,-5.36979 z"
         id="path2984" />
      <path
         d="m 250.48603,131.75216 7.09867,15.04813 c 0,0 4.54288,-13.62863 7.66625,-16.18442 l -14.76492,1.13629 z"
         id="path2986" />
      <path
         d="m 292.39901,132.90551 c 0,0 0.28435,6.91554 3.9753,8.45106 3.69094,1.53553 5.96238,4.60999 5.96238,4.60999 0,0 5.11159,-8.70813 3.69208,-12.54921 l -13.06105,-0.51184"
         id="path2988" />
      <path
         d="m 259.11909,183.77911 5.97375,-14.01648 c 0,0 3.87635,12.27964 7.14872,14.64093 l -13.12247,-0.62445 z"
         id="path2990" />
      <path
         d="m 264.32963,132.51537 7.66625,14.1962 6.81431,-14.76377 -14.48056,0.56757 z"
         id="path22" />
      <path
         d="m 278.76128,132.32087 7.66625,14.1962 6.81431,-14.76491 -14.48056,0.56871 z"
         id="path24" />
      <path
         d="m 273.76799,185.13152 5.67916,-16.46764 7.66624,16.18442 -13.3454,0.28322 z"
         id="path26" />
      <path
         d="m 289.78407,181.32341 c 0,0 -0.1365,-6.91895 3.45549,-8.67627 3.59199,-1.75733 5.6712,-4.96259 5.6712,-4.96259 0,0 5.63026,8.38169 4.4462,12.30125 l -13.00532,1.30349"
         id="path2998" />
    </g>
    <path
       d="m 181.55863,341.72791 c 8.36886,-3.62341 28.37067,-4.89665 31.53225,-20.94144 0,-6.55498 6.41013,-16.90388 6.41013,-16.90388 0,0 -8.59237,-1.73243 -15.02896,3.77503 0,0 -4.38439,-7.42846 4.85648,-21.932 0,0 -4.26354,1.9923 -8.76626,7.54395 0,0 -5.80048,-10.2041 3.62313,-23.60481 4.63477,-6.59014 14.33058,-11.48288 14.33058,-11.48288 0,0 -9.30211,1.77696 -14.97538,8.23505 0,0 -1.49907,-19.8211 22.49112,-29.23679 0,0 -12.13239,0.78517 -18.22359,8.87874 0,0 1.33015,-18.82891 26.64617,-26.80259 0.57321,0.71293 -10.85588,-1.17287 -21.40785,9.05697 0,0 1.18075,-20.4089 26.4004,-23.26971 0,0 -4.48316,-1.43115 -11.55808,-0.41096 0,0 2.66721,-11.43045 18.68363,-14.87399 7.87684,-1.69311 18.31786,1.29565 18.31786,1.29565 0,0 -8.03693,-5.00948 -16.58668,-4.11828 0,0 12.35394,-15.5725 36.36174,-6.20189 0,0 -9.44199,-7.65898 -19.40882,-5.8505 0,0 13.75797,-12.92348 37.82354,-2.50657 0,0 -0.60273,-3.32347 -10.61519,-6.12551 0,0 12.07047,-5.32262 25.28095,-0.19063 0,0 5.80786,-10.33376 22.88278,-4.98409 2.46764,0.77315 5.02912,1.57577 7.66523,2.34624 -14.2399,-3.66144 -19.67246,-14.68758 -28.82436,-17.11835 -9.15187,-2.43077 -26.16906,-6.73417 -25.33559,0.76932 0,0 -14.46747,-13.09147 -3.16187,-26.88063 2.16125,-2.63643 3.7525,-0.41698 3.7525,-0.41698 0,0 -3.45143,2.07801 2.37952,5.11136 5.83095,3.03335 43.80656,26.10584 64.0117,15.97181 20.20516,-10.13401 12.84918,-33.21804 -0.0432,-38.79857 -12.89237,-5.580529 -50.5521,-24.231646 -57.57856,-20.460048 -2.64463,1.41959 -15.27276,-10.458017 -11.6997,-18.712641 2.18097,-5.03858 7.18564,-6.90533 8.58312,-7.273354 -2.72338,-4.769395 5.23623,-12.09698 14.88006,-6.725335 9.64383,5.371647 23.98154,15.567451 33.54622,16.514859 9.56467,0.947394 24.91217,-15.150041 51.12072,-3.805536 2.16774,0.942018 4.15188,1.890119 5.96951,2.83925 0,0 9.4898,-2.882563 16.53909,-6.194368 7.0493,-3.3118 9.45776,-4.265973 9.45776,-4.265973 0,0 1.50251,8.798242 -11.18732,21.395802 0.82685,0.94166 1.50735,1.834854 2.06621,2.665483 7.68692,-3.94307 19.59891,-8.435686 32.12259,-7.005649 0,0 -0.84313,17.498651 -13.85967,30.4902 0,0 28.77804,13.89816 27.0063,42.20654 4.32371,7.36585 7.2759,18.70771 2.44947,29.85793 0.86096,4.35614 -0.7979,10.72255 -3.72439,16.20068 0,0 -0.17617,-10.47366 -11.05717,-17.39095 0,0 9.92783,17.00497 0.56849,30.61283 0,0 -4.47366,-12.1219 -9.32577,-15.48388 0,0 6.58551,16.99842 -4.83449,33.18218 0,0 -5.98284,-15.47584 -8.63113,-18.82955 0,0 7.4301,14.88396 -3.58101,33.76814 0,0 -0.82717,-4.24235 -2.29003,-8.75987 0,0 -4.08001,15.46173 -13.14943,22.57293 0,0 0.80051,-11.32129 -3.05147,-17.71822 0,0 -2.02853,14.88846 -15.39907,23.92181 0,0 3.164,-13.13649 -0.1939,-19.95043 0,0 -3.69531,12.90651 -12.9498,18.99069 0,0 2.73919,-11.42778 -1.96195,-14.40838 -11.67654,-0.51976 -16.51302,25.09952 -17.07107,33.93444 0,22.28216 20.54758,72.34706 50.06604,96.94616 29.51845,24.59908 52.95964,54.69307 67.13878,65.11302 14.17914,10.41995 39.35718,4.9205 41.96187,-10.12763 2.60472,-15.04814 -8.68195,-42.5397 -28.36054,-62.79837 -19.67859,-20.25754 -28.07051,-68.00664 -5.78722,-90.28994 22.28329,-22.28329 63.66623,-57.87901 63.66623,-57.87901 0,0 3.73758,12.53101 -4.49852,24.18052 0,0 4.50079,10.74639 -0.71089,19.65812 0,0 4.87273,11.12401 -2.96185,21.22435 0,0 4.11861,16.83503 -8.03477,26.67489 -12.15339,9.83986 -38.48819,26.04476 -20.83535,52.6696 0,0 -0.20133,-15.11979 6.94511,-20.83649 8.68197,-6.94511 11.57671,-15.33704 11.57671,-15.33704 0,0 2.35902,15.76471 -6.94511,28.64946 -3.7626,5.20941 -4.34042,17.07389 -4.34042,17.07389 0,0 2.31466,-9.54982 8.68197,-13.02238 6.3673,-3.47256 8.97201,-10.70772 8.97201,-10.70772 0,0 6.36729,13.60133 -2.02576,21.99325 -8.39306,8.39193 -6.94511,17.65398 -6.94511,17.65398 0,0 2.31466,-6.36731 8.10301,-9.54982 5.78836,-3.18252 7.81297,-11.28667 7.81297,-11.28667 0,0 4.62932,15.91599 -3.7626,23.44005 -8.39192,7.52407 -6.49811,11.71889 -3.18251,22.57334 3.18251,10.41767 3.18251,43.69872 -25.17804,52.09065 -28.36056,8.39192 -54.69536,-9.54982 -66.27093,-21.99439 -5.98626,-6.43441 -9.80461,-11.24458 -12.8984,-14.58861 -0.41289,12.27282 -4.17549,18.06117 -4.17549,29.63675 0,11.57557 -1.73685,35.30567 25.75585,35.30567 17.07503,0 21.99553,-8.10415 28.93951,-5.49945 6.94398,2.6047 9.72498,14.20758 0.57895,31.2553 -6.36617,11.86448 0.57894,40.22504 0.57894,53.24742 0,8.10187 -5.78835,14.46918 -5.78835,14.46918 0,0 -1.15904,-7.81297 -6.94512,-13.02238 0,0 5.49831,17.36393 -5.49831,35.30567 0,0 -1.44567,-10.70885 -5.49831,-15.91712 0,0 2.02575,17.65283 -13.02238,29.22842 0,0 0.86898,-12.44231 -3.7626,-17.65285 0,0 2.60584,13.02124 -12.73234,26.33366 0,0 2.3158,-11.57557 0.57895,-17.07388 0,0 -16.49721,21.4143 -22.86338,22.86224 5.74716,5.77429 3.3207,11.48881 0.67718,18.06886 -3.32951,5.2704 -10.27507,7.81015 -10.27507,7.81015 0,0 -6.65989,-5.35305 -13.19432,-1.85343 0,0 -4.718,-6.78888 -2.37165,-11.03477 1.77058,-3.20382 -9.42818,-5.67691 -12.05821,-1.642 0,0 -2.91707,6.22933 -2.96017,11.22428 -0.0431,4.99494 -6.30119,11.78228 -14.14295,11.21456 0,0 -6.77808,-9.49526 -14.00681,-7.00676 0,0 -5.43762,-7.18814 2.60275,-12.468 8.04038,-5.27988 5.81582,-13.93461 0.6623,-13.12099 -5.15352,0.81361 -7.13611,9.78735 -15.79708,10.61456 -4.19458,0.40116 -8.94807,-2.54001 -8.94807,-2.54001 0,0 1.31782,-7.11413 -7.1355,-10.73898 0,0 0.81254,-8.62699 8.45234,-12.64265 0,0 -6.07317,-3.39828 -5.46189,-8.28806 0,0 3.71987,-5.78577 2.10681,-11.38223 0,0 5.95345,-8.31625 14.84893,-5.49217 8.8955,2.82409 17.26498,16.43926 30.94168,19.73073 13.93771,0.44727 38.53566,-27.62324 46.63868,-43.25032 8.10302,-15.62709 8.97201,-36.46357 4.34041,-44.85663 0,0 -9.9e-4,7.52406 -4.05264,16.78498 0,0 0.86899,-7.23403 -4.91936,-10.41768 0,0 -2.3158,10.41767 -6.36731,14.75923 0,0 -0.29004,-8.10302 -3.7626,-9.83873 0,0 -1.44567,7.52521 -6.94398,12.73347 0,0 0.86899,-8.39192 -11.28667,-11.86561 -12.15566,-3.4737 -16.78613,-19.67973 -17.07502,-42.54084 -0.28891,-22.8611 15.33817,-60.77375 11.57671,-78.71549 -3.76147,-17.94174 -15.58386,-29.28642 -67.13765,-32.41093 -51.55379,-3.12452 -56.65252,-20.79779 -67.57643,-7.52101 -10.92392,13.27678 -19.71681,12.88727 -19.71681,12.88727 0,0 8.6609,-12.7112 8.10322,-17.30795 0,0 -8.64316,17.66449 -27.9603,19.42487 0,0 7.53834,-9.95121 6.91092,-15.1227 0,0 -9.27832,14.82787 -22.5368,18.47587 0,0 3.47236,-7.41732 3.34996,-13.23327 0,0 -9.74853,15.75913 -27.70829,19.10327 0,0 6.02331,-8.01782 7.1549,-13.11169 0,0 -8.77359,14.18115 -25.68827,16.52543 0,0 7.56383,-7.3328 8.26042,-11.2052 0,0 -15.82648,8.91498 -25.62035,7.48053 0,0 8.76447,21.14104 5.49398,25.64532 -3.27049,4.50427 -11.12667,6.31124 -11.12667,6.31124 0,0 -6.55205,-5.31328 -13.59195,-5.14465 0,0 -6.307445,-4.98905 0.15585,-9.33285 6.46331,-4.34382 15.01219,-8.97391 4.77585,-15.1045 -10.236341,-6.13059 -10.190788,-0.27885 -10.554675,4.34639 -0.363886,4.62524 -5.716642,15.5568 -18.652782,11.9666 0,0 -3.280189,-7.77242 -11.260718,-7.15263 0,0 -4.42764,-9.98259 4.491187,-13.1 8.918824,-3.11738 14.605506,-6.11015 11.287125,-9.50404 0,0 -2.047625,-2.04391 -10.353756,0.86867 -8.306133,2.91259 -14.816039,-0.64272 -14.491808,-4.98064 0,0 5.764529,-7.65863 3.015795,-15.06379 0,0 1.999649,-7.90034 7.854955,-3.85323 5.855304,4.04712 12.31982,1.74956 12.31982,1.74956 0,0 -5.612386,-5.76575 -9.542247,-6.9086 -3.929855,-1.14286 -9.092287,-8.01419 -4.389359,-12.31504 0,0 6.873701,-3.11602 8.17579,-12.28493 0,0 11.293021,-3.36499 14.208199,9.03252 2.915178,12.39751 7.013575,18.53415 13.727064,20.65591 6.71348,2.12177 51.76582,-15.10559 75.92525,-25.56576 z"
       id="use2972"
       style="stroke-width:2.75" />
    <path
       d="m 405.89388,64.438174 c 7.33653,3.83006 11.94673,7.673566 14.80953,10.935458"
       id="path3018"
       style="fill:none;stroke-width:2.75" />
    <path
       d="m 312.39443,56.431554 c 0,0 -9.29295,3.956813 -12.01633,-0.812582"
       id="path3020"
       style="fill:none;stroke-width:2.75" />
    <path
       d="m 441.71652,84.879508 c 0,0 -4.94526,11.424749 -14.67467,16.389902"
       id="path3022"
       style="fill:none;stroke-width:2.75" />
    <path
       d="m 414.07792,83.289854 c 0,0 3.31043,-2.491033 8.6917,-5.250736"
       id="path3024"
       style="fill:none;stroke-width:2.75" />
    <path
       d="m 459.7617,133.15963 c 0,0 4.46419,4.07777 8.27564,10.57118"
       id="path3026"
       style="fill:none;stroke-width:2.75" />
    <path
       d="m 427.61295,226.89027 c -1.00291,-3.09761 -2.30331,-6.32399 -3.84131,-8.40017"
       id="path3028"
       style="fill:none;stroke-width:2.75" />
    <path
       d="m 317.74747,166.06286 c 1.88621,0.73342 3.79688,1.67946 5.69901,2.88576"
       id="path3040"
       style="fill:none;stroke-width:2.75" />
    <path
       d="m 348.29504,163.42605 c 15.60143,4.56188 33.80718,7.98913 50.62586,-2.62788"
       id="path3042"
       style="fill:none;stroke-width:2.75" />
    <path
       d="m 441.03149,101.52323 c -3.1413,3.13684 -6.99302,6.0108 -11.7134,8.31169"
       id="path3044"
       style="fill:none;stroke-width:2.75" />
    <path
       d="m 458.84131,156.41164 c 0,0 9.56896,6.66417 11.64655,17.17755"
       id="path3046"
       style="fill:none;stroke-width:2.75" />
    <path
       d="m 389.63889,85.174787 c 1.06968,1.603284 2.36422,3.062201 4.07112,4.109653"
       id="path3058"
       style="fill:none;stroke-width:2.75" />
    <path
       d="m 382.23696,66.500528 c 0,0 -2.43522,1.290865 -5.54087,0.883561 -3.00863,-0.393811 -6.87753,-2.602668 -5.1993,0.09442 0.62618,1.007257 1.30458,1.779317 2.01806,2.393046"
       id="path3060"
       style="fill:none;stroke-width:2.75" />
    <path
       d="m 373.51694,69.872457 c 3.37905,2.905311 7.54869,2.23754 10.77664,5.958665 1.91508,2.207177 3.16433,6.075727 5.34531,9.343665 0,0 -7.28589,4.350889 -15.35582,1.327525 -8.06947,-3.024424 -3.4592,-13.623715 -0.76613,-16.629855 z"
       id="path3062"
       style="fill:none;stroke-width:2.75" />
    <path
       d="m 379.07662,72.587609 c -1.90567,-0.679865 -3.83539,-1.232572 -5.56072,-2.715601 -2.45794,2.743533 -6.50589,11.808915 -1.06221,15.671117 2.28824,-0.50176 4.65685,-2.658061 6.0051,-5.772861 1.11421,-2.574092 1.27293,-5.208535 0.61783,-7.182655 z m -3.04103,7.583872 c -0.58833,-0.07247 -0.86149,-1.440039 -0.60818,-3.05317 0.25122,-1.614036 0.93274,-2.862095 1.52018,-2.78754 0.58892,0.07397 0.85999,1.440622 0.60877,3.054659 -0.25136,1.611501 -0.93229,2.861058 -1.52077,2.786051 z"
       id="path3066"
       style="stroke-width:2.75" />
    <path
       d="m 548.02276,239.37759 c -1.21363,1.71637 -2.68773,3.41341 -4.47235,5.04789 -13.89137,12.73347 -30.38631,26.04476 -30.38631,26.04476"
       id="path3030"
       style="fill:none" />
    <path
       d="m 547.31187,259.03456 c -0.92359,1.57761 -2.15087,3.09721 -3.76146,4.49056 -10.70772,9.26091 -28.93951,22.28329 -28.93951,22.28329"
       id="path3032"
       style="fill:none" />
    <path
       d="m 544.35115,280.25892 c -1.32282,1.70613 -3.00848,3.38156 -5.14116,4.97054 -14.76036,10.99663 -28.64946,23.15115 -28.64946,23.15115"
       id="path3034"
       style="fill:none" />
    <path
       d="m 323.67234,620.11702 c 2.82929,-1.48673 6.59436,-2.34219 11.60186,-1.8919"
       id="path3038"
       style="fill:none;stroke-width:2.75" />
  </g>
</svg>
