<?xml version="1.0" encoding="UTF-8" standalone="no"?>
<!-- Created with Inkscape (http://www.inkscape.org/) -->
<svg
   xmlns:dc="http://purl.org/dc/elements/1.1/"
   xmlns:cc="http://creativecommons.org/ns#"
   xmlns:rdf="http://www.w3.org/1999/02/22-rdf-syntax-ns#"
   xmlns:svg="http://www.w3.org/2000/svg"
   xmlns="http://www.w3.org/2000/svg"
   xmlns:sodipodi="http://sodipodi.sourceforge.net/DTD/sodipodi-0.dtd"
   xmlns:inkscape="http://www.inkscape.org/namespaces/inkscape"
   width="490"
   height="290"
   id="svg2"
   sodipodi:version="0.32"
   inkscape:version="0.46"
   sodipodi:docname="Lion_Couchant.svg"
   inkscape:output_extension="org.inkscape.output.svg.inkscape"
   version="1.0">
  <defs
     id="defs4">
    <linearGradient
       id="linearGradient3252">
      <stop
         style="stop-color:#ffff00;stop-opacity:1;"
         offset="0"
         id="stop3254" />
      <stop
         style="stop-color:#ff0000;stop-opacity:1;"
         offset="1"
         id="stop3256" />
    </linearGradient>
    <linearGradient
       id="linearGradient3242">
      <stop
         style="stop-color:#ff0000;stop-opacity:1;"
         offset="0"
         id="stop3244" />
      <stop
         style="stop-color:#00ff16;stop-opacity:1;"
         offset="1"
         id="stop3246" />
    </linearGradient>
    <inkscape:perspective
       sodipodi:type="inkscape:persp3d"
       inkscape:vp_x="0 : 526.18109 : 1"
       inkscape:vp_y="0 : 1000 : 0"
       inkscape:vp_z="744.09448 : 526.18109 : 1"
       inkscape:persp3d-origin="372.04724 : 350.78739 : 1"
       id="perspective10" />
    <inkscape:perspective
       id="perspective2498"
       inkscape:persp3d-origin="372.04724 : 350.78739 : 1"
       inkscape:vp_z="744.09448 : 526.18109 : 1"
       inkscape:vp_y="0 : 1000 : 0"
       inkscape:vp_x="0 : 526.18109 : 1"
       sodipodi:type="inkscape:persp3d" />
    <inkscape:perspective
       id="perspective2831"
       inkscape:persp3d-origin="372.04724 : 350.78739 : 1"
       inkscape:vp_z="744.09448 : 526.18109 : 1"
       inkscape:vp_y="0 : 1000 : 0"
       inkscape:vp_x="0 : 526.18109 : 1"
       sodipodi:type="inkscape:persp3d" />
    <inkscape:perspective
       id="perspective4998"
       inkscape:persp3d-origin="372.04724 : 350.78739 : 1"
       inkscape:vp_z="744.09448 : 526.18109 : 1"
       inkscape:vp_y="0 : 1000 : 0"
       inkscape:vp_x="0 : 526.18109 : 1"
       sodipodi:type="inkscape:persp3d" />
    <inkscape:perspective
       id="perspective2560"
       inkscape:persp3d-origin="372.04724 : 350.78739 : 1"
       inkscape:vp_z="744.09448 : 526.18109 : 1"
       inkscape:vp_y="0 : 1000 : 0"
       inkscape:vp_x="0 : 526.18109 : 1"
       sodipodi:type="inkscape:persp3d" />
    <inkscape:perspective
       id="perspective2694"
       inkscape:persp3d-origin="372.04724 : 350.78739 : 1"
       inkscape:vp_z="744.09448 : 526.18109 : 1"
       inkscape:vp_y="0 : 1000 : 0"
       inkscape:vp_x="0 : 526.18109 : 1"
       sodipodi:type="inkscape:persp3d" />
    <inkscape:perspective
       id="perspective2786"
       inkscape:persp3d-origin="372.04724 : 350.78739 : 1"
       inkscape:vp_z="744.09448 : 526.18109 : 1"
       inkscape:vp_y="0 : 1000 : 0"
       inkscape:vp_x="0 : 526.18109 : 1"
       sodipodi:type="inkscape:persp3d" />
  </defs>
  <sodipodi:namedview
     id="base"
     pagecolor="#ffffff"
     bordercolor="#666666"
     borderopacity="1.0"
     gridtolerance="10000"
     guidetolerance="10"
     objecttolerance="10"
     inkscape:pageopacity="0.0"
     inkscape:pageshadow="2"
     inkscape:zoom="1.7172414"
     inkscape:cx="245"
     inkscape:cy="145"
     inkscape:document-units="px"
     inkscape:current-layer="layer3"
     showgrid="false"
     inkscape:window-width="1280"
     inkscape:window-height="713"
     inkscape:window-x="0"
     inkscape:window-y="0"
     showguides="true"
     inkscape:guide-bbox="true" />
  <metadata
     id="metadata7">
    <rdf:RDF>
      <cc:Work
         rdf:about="">
        <dc:format>image/svg+xml</dc:format>
        <dc:type
           rdf:resource="http://purl.org/dc/dcmitype/StillImage" />
      </cc:Work>
    </rdf:RDF>
  </metadata>
  <g
     inkscape:groupmode="layer"
     id="layer3"
     inkscape:label="Main"
     style="opacity:1">
    <path
       style="fill:#f8de00;fill-opacity:1;fill-rule:evenodd;stroke:#000000;stroke-width:3;stroke-linecap:butt;stroke-linejoin:miter;stroke-miterlimit:4;stroke-dasharray:none;stroke-opacity:1"
       d="M 228.55421,131.56626 C 228.55421,131.56626 255.23766,142.79092 267.34939,145.06024 C 274.317,146.36573 283.87612,145.77708 290.96385,145.90361 C 310.1897,146.24682 335.83132,145.90361 355.06023,145.90361 C 364.9277,145.90361 378.42209,143.34402 387.9518,145.90361 C 398.68103,148.78538 411.36503,157.46794 419.99999,164.45783 C 428.21494,171.10772 436.20224,183.06812 443.61445,190.60241 C 447.2552,194.30312 451.59903,200.13399 456.26505,202.40964 C 460.63933,204.54301 465.59815,203.17565 469.62524,205.90845 C 476.19589,210.36732 484.23258,219.92299 485.78313,227.71084 C 486.48182,231.22009 485.56718,236.2562 484.09638,239.51807 C 481.41229,245.47073 473.56056,249.44167 468.04857,252.94261 C 465.61346,254.48927 461.63072,255.08982 458.77146,255.47273 C 456.5145,255.77498 453.81316,255.01855 451.66545,254.26187 C 446.96557,252.60601 444.43391,249.68167 440.1766,248.20922 C 438.26368,247.54761 435.1268,247.10626 433.42961,248.20922 C 431.34019,249.56708 431.084,249.67969 430.96385,252.16867 C 430.88669,253.767 433.51812,255.88429 432.65059,257.22891 C 428.85951,263.10487 418.1264,261.82422 407.40645,261.71599 C 395.51005,261.59589 383.73493,262.28916 383.73493,262.28916 C 383.73493,262.28916 376.44935,262.18083 373.87115,263.69303 C 372.68149,264.39081 371.28531,265.98492 371.08433,267.3494 C 370.76932,269.48806 373.61445,274.09638 373.61445,274.09638 C 373.61445,274.09638 369.43956,274.48143 367.71084,274.09638 C 365.22439,273.54256 361.87968,272.23588 360.02226,270.49257 C 357.76519,268.37418 357.51122,263.33644 355.06023,261.44578 C 352.58223,259.53428 344.93975,258.91566 344.93975,258.91566 C 344.93975,258.91566 338.91971,268.08422 334.81927,269.87952 C 333.19688,270.58985 328.91566,269.87952 328.91566,269.87952 L 315.42168,259.75903 L 318.53437,255.637 L 310.39192,258.03842 L 298.32728,250.28548 L 286.74698,249.63855 C 286.74698,249.63855 282.66126,244.03054 282.53011,241.20482 C 282.30357,236.3236 288.43373,226.0241 288.43373,226.0241 L 281.68674,236.98795 C 281.68674,236.98795 274.23929,232.35448 270.6253,231.61035 C 259.32501,229.2836 232.20883,233.39357 232.20883,233.39357 L 166.98794,196.50602 L 225.18072,128.19277 L 228.55421,131.56626 z"
       id="path3741"
       sodipodi:nodetypes="csssssssssssssssssscsscssscsccccccsccscccc" />
    <path
       style="fill:none;fill-rule:evenodd;stroke:#000000;stroke-width:3;stroke-linecap:butt;stroke-linejoin:miter;stroke-miterlimit:4;stroke-dasharray:none;stroke-opacity:1"
       d="M 288.27078,226.42394 C 288.27078,226.42394 289.63675,225.11343 291.54303,224.17477 C 303.16584,218.45168 321.7736,223.99735 334.72782,224.17477 C 344.18795,224.30434 356.80864,224.47247 366.25271,225.03847 C 373.26599,225.45879 382.80473,225.31089 389.5725,227.19771 C 394.14927,228.47369 401.30097,230.08087 403.82348,234.10727 C 405.26789,236.41282 401.11117,242.96327 403.82348,243.17608 C 406.30787,243.37101 403.43645,236.80922 405.11902,234.97097 C 407.28297,232.60679 415.48337,232.37988 415.48337,232.37988"
       id="path3743"
       sodipodi:nodetypes="cssssssss" />
    <path
       sodipodi:nodetypes="cssssssscsssss"
       id="path3745"
       d="M 288.62516,236.85159 C 290.02313,237.35378 291.69108,238.60273 292.65137,239.75512 C 293.63309,240.9332 295.08509,242.83907 294.88759,244.4096 C 294.76165,245.4111 293.59932,246.47164 292.76124,247.01105 C 292.16259,247.39636 291.18989,247.57802 290.49397,247.58977 C 289.02495,247.61452 287.19452,246.27688 285.73901,246.52901 C 284.46537,246.74964 282.91742,247.85646 282.00899,248.82414 C 280.72428,250.19265 279.95724,250.74549 279.43418,252.55963 C 279.03374,253.94854 279.0668,258.64331 279.0668,258.64331 C 279.0668,258.64331 275.3133,254.74795 274.63757,252.79378 C 273.65019,249.93835 273.55686,246.82339 274.81709,244.01305 C 275.61309,242.23798 277.70229,240.44086 279.30844,239.39627 C 281.29032,238.10727 284.34117,237.05426 286.63817,236.72151 C 287.23329,236.63532 288.06518,236.65043 288.62516,236.85159 z"
       style="fill:#ffffff;fill-opacity:1;fill-rule:evenodd;stroke:#000000;stroke-width:2.50000024;stroke-linecap:butt;stroke-linejoin:miter;stroke-miterlimit:4;stroke-dasharray:none;stroke-opacity:1" />
    <path
       sodipodi:nodetypes="cssssssscsssss"
       id="path3747"
       d="M 306.48625,247.79981 C 307.88422,248.302 309.55217,249.55095 310.51246,250.70334 C 311.49418,251.88142 312.94618,253.78729 312.74868,255.35782 C 312.62274,256.35932 311.46041,257.41986 310.62233,257.95927 C 310.02368,258.34458 309.05098,258.52624 308.35506,258.53799 C 306.88604,258.56274 305.05561,257.2251 303.6001,257.47723 C 302.32646,257.69786 300.77851,258.80468 299.87008,259.77236 C 298.58537,261.14087 297.81833,261.69371 297.29527,263.50785 C 296.89483,264.89676 296.92789,269.59153 296.92789,269.59153 C 296.92789,269.59153 293.17439,265.69617 292.49866,263.742 C 291.51128,260.88657 291.41795,257.77161 292.67818,254.96127 C 293.47418,253.1862 295.56338,251.38908 297.16953,250.34449 C 299.15141,249.05549 302.20226,248.00248 304.49926,247.66973 C 305.09438,247.58354 305.92627,247.59865 306.48625,247.79981 z"
       style="fill:#ffffff;fill-opacity:1;fill-rule:evenodd;stroke:#000000;stroke-width:2.50000024;stroke-linecap:butt;stroke-linejoin:miter;stroke-miterlimit:4;stroke-dasharray:none;stroke-opacity:1" />
    <path
       sodipodi:nodetypes="cssssssscsssss"
       id="path3749"
       d="M 322.03277,260.3234 C 323.43074,260.82559 325.09869,262.07454 326.05898,263.22693 C 327.0407,264.40501 328.4927,266.31088 328.2952,267.88141 C 328.16926,268.88291 327.00693,269.94345 326.16885,270.48286 C 325.5702,270.86817 324.5975,271.04983 323.90158,271.06158 C 322.43256,271.08633 320.60213,269.74869 319.14662,270.00082 C 317.87298,270.22145 316.32503,271.32827 315.4166,272.29595 C 314.13189,273.66446 313.36485,274.2173 312.84179,276.03144 C 312.44135,277.42035 312.47441,282.11512 312.47441,282.11512 C 312.47441,282.11512 308.72091,278.21976 308.04518,276.26559 C 307.0578,273.41016 306.96447,270.2952 308.2247,267.48486 C 309.0207,265.70979 311.1099,263.91267 312.71605,262.86808 C 314.69793,261.57908 317.74878,260.52607 320.04578,260.19332 C 320.6409,260.10713 321.47279,260.12224 322.03277,260.3234 z"
       style="fill:#ffffff;fill-opacity:1;fill-rule:evenodd;stroke:#000000;stroke-width:2.50000024;stroke-linecap:butt;stroke-linejoin:miter;stroke-miterlimit:4;stroke-dasharray:none;stroke-opacity:1" />
    <path
       style="fill:none;fill-rule:evenodd;stroke:#000000;stroke-width:2.5;stroke-linecap:butt;stroke-linejoin:miter;stroke-miterlimit:4;stroke-dasharray:none;stroke-opacity:1"
       d="M 318.75378,255.39182 C 318.75378,255.39182 327.97135,247.83336 333.00043,246.19901 C 337.20589,244.83232 343.26558,245.09799 347.68326,244.90347"
       id="path3753"
       sodipodi:nodetypes="css" />
    <path
       style="fill:none;fill-rule:evenodd;stroke:#000000;stroke-width:2.5;stroke-linecap:butt;stroke-linejoin:miter;stroke-miterlimit:4;stroke-dasharray:none;stroke-opacity:1"
       d="M 300.74452,248.60626 C 300.74452,248.60626 301.06076,246.04563 302.7273,244.13579 C 304.75148,241.81609 308.35515,239.98498 310.54433,238.8576 C 315.31696,236.39981 320.3763,235.16226 325.71451,234.59461"
       id="path3755"
       sodipodi:nodetypes="csss" />
    <path
       style="fill:#000000;fill-rule:evenodd;stroke:#000000;stroke-width:5;stroke-linecap:butt;stroke-linejoin:miter;stroke-miterlimit:4;stroke-dasharray:none;stroke-opacity:1"
       d="M 447.19963,219.95113 C 447.19963,219.95113 451.64002,221.58478 453.26209,222.79581 C 454.76602,223.91863 455.86391,226.39861 456.43948,228.18503 C 456.98846,229.88889 457.96771,231.19891 457.46407,232.91673 C 456.94418,234.68997 455.15982,237.4398 453.7959,238.68655 C 451.80496,240.50645 450.37644,241.78219 448.16156,243.32172 C 447.24538,243.95854 445.58163,244.97293 444.04952,245.88415 C 442.24345,246.95832 440.62031,247.88914 440.62031,247.88914 C 440.62031,247.88914 447.22873,240.64355 448.82033,236.69836 C 449.79238,234.28887 449.61761,230.64006 449.36057,228.05463 C 449.11166,225.55097 447.19963,219.95113 447.19963,219.95113 z"
       id="path3759"
       sodipodi:nodetypes="csssssscssc" />
    <path
       style="fill:none;fill-rule:evenodd;stroke:#000000;stroke-width:3;stroke-linecap:butt;stroke-linejoin:miter;stroke-miterlimit:4;stroke-dasharray:none;stroke-opacity:1"
       d="M 361.93953,166.37394 C 361.93953,166.37394 362.68269,173.0696 361.14682,175.23504 C 358.71842,178.65891 351.61799,178.12849 348.46362,180.87393 C 346.10864,182.92361 342.9567,185.87906 341.82594,188.81301 C 339.8867,193.84469 339.0742,202.09644 339.74391,207.45724 C 340.17273,210.88982 342.07546,215.50018 344.50011,217.92945 C 347.83583,221.27152 357.49849,224.5583 357.49849,224.5583"
       id="path3757"
       sodipodi:nodetypes="cssssss" />
    <path
       style="fill:#f8de00;fill-opacity:1;fill-rule:evenodd;stroke:#000000;stroke-width:3;stroke-linecap:butt;stroke-linejoin:miter;stroke-miterlimit:4;stroke-dasharray:none;stroke-opacity:1"
       d="M 344.01509,217.27971 C 344.01509,217.27971 331.52462,211.60022 327.26786,207.52679 C 323.4605,203.8834 319.0718,197.80562 317.54366,192.61058 C 316.6255,189.48923 316.25694,184.68118 317.54366,181.71026 C 318.79239,178.82705 322.22438,175.66309 325.10693,174.82585 C 327.80557,174.04203 328.31802,174.7399 330.72433,176.25561 C 332.50944,177.38003 332.8514,186.36281 332.8514,186.36281 C 332.8514,186.36281 339.51045,173.22898 336.20287,169.71649 C 335.1493,168.59765 333.55269,166.04557 331.50658,164.85243 C 328.96446,163.37005 325.87764,163.35183 324.02646,163.35183 C 320.01707,163.35183 311.06086,166.79404 311.06086,166.79404 C 311.06086,166.79404 314.76575,154.29712 317.54366,149.58302 C 320.09985,145.24515 323.94157,139.03178 328.34833,136.96159 C 335.16623,133.75872 346.11648,139.43333 353.19905,136.96159 C 356.83285,135.69343 360.32062,131.24496 363.46349,128.92979 C 367.12015,126.23614 371.59271,121.55737 375.88885,120.32427 C 379.02188,119.42502 383.97624,119.01338 386.69351,120.89797 C 388.21062,121.95018 389.64601,124.72933 389.39468,126.63499 C 389.02874,129.40966 383.45211,133.5194 383.45211,133.5194 C 383.45211,133.5194 395.27192,133.30016 398.03841,129.50348 C 400.41881,126.23667 399.70409,119.46741 398.03841,115.73467 C 397.05201,113.52417 394.22906,111.49427 392.09585,110.57137 C 386.97289,108.35498 379.25951,108.80071 373.72792,108.85026 C 370.63169,108.878 363.46349,109.99766 363.46349,109.99766 C 363.46349,109.99766 369.94421,102.61038 369.91808,98.168831 C 369.89924,94.967461 368.2819,91.731541 365.62442,90.219961 C 362.4781,88.430331 356.83099,90.740671 356.83099,90.740671 C 356.83099,90.740671 361.17565,93.783411 361.69309,95.903971 C 361.98905,97.116891 361.45193,99.039241 360.61262,99.919891 C 359.29812,101.2991 356.48922,101.29644 354.67005,101.64099 C 350.9865,102.33865 339.15299,100.81845 339.15299,100.81845 C 339.15299,100.81845 351.43176,87.351011 356.20613,80.655971 C 358.87677,76.910971 361.77087,71.129931 364.05361,67.106031 C 365.56134,64.448311 367.86603,60.310511 370.48652,58.938301 C 372.67174,57.794011 376.46758,58.241401 378.59002,59.511991 C 380.31337,60.543671 382.37165,65.249001 382.37165,65.249001 C 382.37165,65.249001 384.44243,56.004771 382.96178,52.899464 C 381.38982,49.60265 377.72445,46.954475 374.34626,46.068044 C 371.67151,45.366191 367.13458,47.041937 364.54395,48.037983 C 363.35375,48.495588 361.30255,50.90648 361.30255,50.90648 C 361.30255,50.90648 363.47228,43.084147 362.38302,40.006167 C 361.36199,37.120994 359.61819,33.507188 357.02841,30.979951 C 354.29686,28.314374 350.67054,26.783727 347.79672,25.663647 C 344.29405,24.298473 338.95932,25.150274 335.37136,26.237349 C 332.51032,27.104183 329.0443,29.418219 326.72763,31.400656 C 323.6884,34.001406 322.02548,37.797186 320.78506,41.72727 C 319.49331,45.819994 319.46305,52.587972 321.86553,56.069791 C 325.1742,60.864921 331.35596,64.340641 336.65793,62.433481 C 339.68548,61.344441 341.85416,53.774988 341.85416,53.774988 C 341.85416,53.774988 336.30584,56.718331 334.29089,55.496091 C 332.95581,54.686251 332.58516,51.963068 332.67019,50.332783 C 332.79851,47.872308 333.95696,44.202782 335.91159,42.874671 C 337.82283,41.576038 341.45736,41.772107 343.47486,42.874671 C 345.95418,44.229617 348.29204,48.011317 348.87719,50.90648 C 349.57089,54.338693 347.98126,59.137341 346.71626,62.380501 C 344.92729,66.967021 341.20299,72.462341 338.07253,76.149321 C 333.98715,80.960971 326.91773,85.557401 322.40576,89.918131 C 318.33751,93.850011 312.85803,99.109791 309.44016,103.68695 C 306.00306,108.28987 302.27137,115.11417 299.71596,120.32427 C 296.86506,126.13685 293.05835,134.03245 291.61247,140.4038 C 289.93788,147.78297 288.8733,156.96821 289.16732,164.55223 C 289.38984,170.29182 290.78303,179.20427 292.69293,184.57876 C 294.59768,189.93876 298.98103,198.67726 301.8769,203.51089 C 304.65266,208.14404 307.93303,213.17238 311.6011,216.13231 C 314.4191,218.40628 318.14465,222.40374 320.05839,222.96689"
       id="path3762"
       sodipodi:nodetypes="cssssscssscssssssscsssscsscssscsssscssscsssssssscssssssssssssssss" />
    <path
       style="fill:none;fill-rule:evenodd;stroke:#000000;stroke-width:3;stroke-linecap:butt;stroke-linejoin:miter;stroke-miterlimit:4;stroke-dasharray:none;stroke-opacity:1"
       d="M 340.56031,101.07203 C 340.56031,101.07203 334.68248,101.66825 332.4839,102.87765 C 330.32059,104.06764 328.32691,106.99549 326.53287,108.74595 C 325.13688,110.10802 323.50316,115.60986 323.50316,112.09464"
       id="path3765"
       sodipodi:nodetypes="csss" />
    <path
       style="fill:none;fill-rule:evenodd;stroke:#000000;stroke-width:3;stroke-linecap:butt;stroke-linejoin:miter;stroke-miterlimit:4;stroke-dasharray:none;stroke-opacity:1"
       d="M 364.36444,110.55158 C 364.36444,110.55158 357.62938,115.17938 354.58774,116.87129 C 352.36262,118.10901 349.40584,119.99415 346.93641,120.48255 C 344.42595,120.97906 340.9495,119.55861 338.43494,120.03113 C 334.88991,120.6973 328.75477,128.49276 328.75477,128.49276"
       id="path3767"
       sodipodi:nodetypes="cssss" />
    <path
       style="fill:none;fill-rule:evenodd;stroke:#000000;stroke-width:3;stroke-linecap:butt;stroke-linejoin:miter;stroke-miterlimit:4;stroke-dasharray:none;stroke-opacity:1"
       d="M 311.71286,166.64297 C 311.71286,166.64297 304.73739,171.53817 304.61368,179.50686 C 304.47416,188.49362 308.16664,196.01501 308.16664,196.01501"
       id="path3785"
       sodipodi:nodetypes="css" />
    <g
       id="g3692"
       transform="translate(-504.65864,-60.421687)">
      <g
         id="g3682">
        <path
           style="fill:#f8de00;fill-opacity:1;fill-rule:evenodd;stroke:#000000;stroke-width:3;stroke-linecap:butt;stroke-linejoin:miter;stroke-miterlimit:4;stroke-dasharray:none;stroke-opacity:1"
           d="M 736.15329,212.33367 C 741.82468,228.6805 734.85266,269.99468 734.85266,269.99468 C 734.85266,269.99468 736.72216,274.15388 737.02037,276.06426 C 737.6225,279.92158 738.87953,285.91059 736.58683,289.0705 C 734.7988,291.53485 730.04743,292.01057 727.04892,292.53883 C 719.23544,293.91537 706.43549,295.79113 698.86872,293.40591 C 694.32622,291.97401 686.29603,286.46925 686.29603,286.46925 C 686.29603,286.46925 685.21231,290.10437 685.42895,291.67175 C 685.76352,294.09239 686.12115,294.05926 687.59665,296.00716 C 689.15549,298.06508 693.66623,299.90903 693.66623,299.90903 C 693.66623,299.90903 683.47634,302.18871 678.05874,300.77612 C 672.99319,299.45532 666.49074,296.30206 662.45125,292.97237 C 660.80519,291.61555 652.04626,287.76987 652.04626,287.76987 L 641.64126,286.90279 C 641.64126,286.90279 641.41647,291.56481 642.07481,293.40591 C 643.20495,296.56645 652.04626,300.34257 652.04626,300.34257 C 652.04626,300.34257 639.66471,302.01706 635.13815,300.34258 C 632.54091,299.3818 628.39197,299.08496 625.06409,297.0428 C 621.40203,294.79557 618.55133,290.80065 615.62878,289.93758 C 613.3697,289.27044 607.82504,289.0705 607.82504,289.0705 C 607.82504,289.0705 601.03091,291.67566 600.88837,294.273 C 600.73206,297.12121 607.82504,300.77612 607.82504,300.77612 C 607.82504,300.77612 599.18108,301.79882 595.68588,300.77612 C 591.98076,299.69199 587.27516,296.84094 584.84734,293.83945 C 583.44962,292.11147 582.24609,288.20341 582.24609,288.20341 C 582.24609,288.20341 578.02009,296.36953 574.44235,298.60841 C 571.99431,300.14034 564.90444,299.90903 564.90444,299.90903 C 564.90444,299.90903 552.56585,297.09713 549.73049,292.97237 C 548.54936,291.25411 549.29695,286.03571 549.29695,286.03571 C 549.29695,286.03571 542.32589,289.95095 539.32549,289.0705 C 536.04964,288.10922 531.95529,280.39967 531.95529,280.39967 L 532.82237,270.86176 L 523.28446,273.02947 C 523.28446,273.02947 520.01813,268.51954 520.68321,266.52635 C 523.1402,259.163 535.33673,255.24232 542.79383,253.08656 C 557.78945,248.75151 579.34251,250.18329 594.81879,252.21948 C 597.63513,252.59002 601.09691,254.53554 603.92316,254.82073 C 629.10271,257.36153 688.03019,248.31761 688.03019,248.31761 C 688.03019,248.31761 684.75499,222.48322 689.76436,213.20075 C 692.59361,207.95808 700.10641,203.23062 705.80539,201.49514 C 712.15575,199.5613 721.96708,199.41652 727.916,202.36222 C 731.3932,204.08401 734.88148,208.66789 736.15329,212.33367 z"
           id="path3673"
           sodipodi:nodetypes="ccsssscsscssccscssscscsscscscscccsssscssss" />
        <path
           sodipodi:nodetypes="cssssssscsssss"
           id="path3676"
           d="M 521.70563,261.99882 C 523.16403,262.28088 525.00364,263.25953 526.12916,264.25118 C 527.2798,265.26494 529.00666,266.92584 529.05212,268.50808 C 529.08111,269.51705 528.09499,270.74315 527.34946,271.40461 C 526.81692,271.87709 525.88353,272.20564 525.19763,272.32387 C 523.74975,272.57341 521.73598,271.53201 520.33628,272.00417 C 519.1115,272.41734 517.7514,273.74826 517.00196,274.8437 C 515.9421,276.39289 515.26882,277.05673 515.02989,278.92958 C 514.84698,280.36345 515.59896,284.99773 515.59896,284.99773 C 515.59896,284.99773 511.29295,281.72345 510.32578,279.89588 C 508.91257,277.22545 508.34308,274.16158 509.15784,271.19133 C 509.67247,269.31526 511.46166,267.21926 512.88879,265.94091 C 514.64978,264.36348 517.50327,262.85546 519.72217,262.17471 C 520.29706,261.99835 521.12144,261.88582 521.70563,261.99882 z"
           style="opacity:1;fill:#ffffff;fill-opacity:1;fill-rule:evenodd;stroke:#000000;stroke-width:2.50000024;stroke-linecap:butt;stroke-linejoin:miter;stroke-miterlimit:4;stroke-dasharray:none;stroke-opacity:1" />
        <path
           sodipodi:nodetypes="cssssssscsssss"
           id="path3678"
           d="M 536.65351,276.95699 C 538.11191,277.23905 539.95152,278.2177 541.07704,279.20935 C 542.22768,280.22311 543.95454,281.88401 544,283.46625 C 544.02899,284.47522 543.04287,285.70132 542.29734,286.36278 C 541.7648,286.83526 540.83141,287.16381 540.14551,287.28204 C 538.69763,287.53158 536.68386,286.49018 535.28416,286.96234 C 534.05938,287.37551 532.69928,288.70643 531.94984,289.80187 C 530.88998,291.35106 530.2167,292.0149 529.97777,293.88775 C 529.79486,295.32162 530.54684,299.9559 530.54684,299.9559 C 530.54684,299.9559 526.24083,296.68162 525.27366,294.85405 C 523.86045,292.18362 523.29096,289.11975 524.10572,286.1495 C 524.62035,284.27343 526.40954,282.17743 527.83667,280.89908 C 529.59766,279.32165 532.45115,277.81363 534.67005,277.13288 C 535.24494,276.95652 536.06932,276.84399 536.65351,276.95699 z"
           style="opacity:1;fill:#ffffff;fill-opacity:1;fill-rule:evenodd;stroke:#000000;stroke-width:2.50000024;stroke-linecap:butt;stroke-linejoin:miter;stroke-miterlimit:4;stroke-dasharray:none;stroke-opacity:1" />
        <path
           sodipodi:nodetypes="cssssssscsssss"
           id="path3680"
           d="M 558.01357,291.01707 C 559.4834,290.80235 561.54285,291.11952 562.93245,291.68448 C 564.35305,292.26202 566.53107,293.26045 567.09583,294.73917 C 567.45597,295.68212 566.92941,297.16485 566.44375,298.03518 C 566.09683,298.65686 565.32403,299.27487 564.7155,299.61271 C 563.43093,300.32581 561.18638,300.00684 560.02072,300.91422 C 559.00073,301.70822 558.15569,303.41324 557.80947,304.69456 C 557.31985,306.50663 556.90318,307.35538 557.29531,309.20224 C 557.59554,310.6162 559.83388,314.74317 559.83388,314.74317 C 559.83388,314.74317 554.68891,313.07227 553.17311,311.66594 C 550.95823,309.61102 549.41011,306.9064 549.19966,303.83363 C 549.06675,301.8928 550.06454,299.32399 550.99021,297.64648 C 552.13241,295.57652 554.32888,293.21177 556.1991,291.83729 C 556.68366,291.48119 557.4248,291.10307 558.01357,291.01707 z"
           style="opacity:1;fill:#ffffff;fill-opacity:1;fill-rule:evenodd;stroke:#000000;stroke-width:2.50000024;stroke-linecap:butt;stroke-linejoin:miter;stroke-miterlimit:4;stroke-dasharray:none;stroke-opacity:1" />
      </g>
      <path
         sodipodi:nodetypes="css"
         id="path3688"
         d="M 532.84947,271.14966 C 532.84947,271.14966 542.71083,264.72763 546.74989,263.33067 C 550.01868,262.20011 554.61391,261.45857 558.04399,261.01393"
         style="fill:none;fill-rule:evenodd;stroke:#000000;stroke-width:2.5;stroke-linecap:butt;stroke-linejoin:miter;stroke-miterlimit:4;stroke-dasharray:none;stroke-opacity:1" />
      <path
         sodipodi:nodetypes="cssc"
         id="path3690"
         d="M 549.9354,285.62926 C 549.9354,285.62926 557.13425,279.49238 560.65031,277.52069 C 562.92991,276.24236 566.19788,274.85661 568.75889,274.33517 C 574.97578,273.06936 578.34083,273.6459 578.34083,273.6459"
         style="fill:none;fill-rule:evenodd;stroke:#000000;stroke-width:2.5;stroke-linecap:butt;stroke-linejoin:miter;stroke-miterlimit:4;stroke-dasharray:none;stroke-opacity:1" />
    </g>
    <g
       id="g3701"
       transform="translate(-486.9478,-36.807229)">
      <g
         id="g3703">
        <path
           style="fill:#f8de00;fill-opacity:1;fill-rule:evenodd;stroke:#000000;stroke-width:3;stroke-linecap:butt;stroke-linejoin:miter;stroke-miterlimit:4;stroke-dasharray:none;stroke-opacity:1"
           d="M 736.15329,212.33367 C 741.82468,228.6805 734.85266,269.99468 734.85266,269.99468 C 734.85266,269.99468 736.72216,274.15388 737.02037,276.06426 C 737.6225,279.92158 738.87953,285.91059 736.58683,289.0705 C 734.7988,291.53485 730.04743,292.01057 727.04892,292.53883 C 719.23544,293.91537 706.43549,295.79113 698.86872,293.40591 C 694.32622,291.97401 686.29603,286.46925 686.29603,286.46925 C 686.29603,286.46925 685.21231,290.10437 685.42895,291.67175 C 685.76352,294.09239 686.12115,294.05926 687.59665,296.00716 C 689.15549,298.06508 693.66623,299.90903 693.66623,299.90903 C 693.66623,299.90903 683.47634,302.18871 678.05874,300.77612 C 672.99319,299.45532 666.49074,296.30206 662.45125,292.97237 C 660.80519,291.61555 652.04626,287.76987 652.04626,287.76987 L 641.64126,286.90279 C 641.64126,286.90279 641.41647,291.56481 642.07481,293.40591 C 643.20495,296.56645 652.04626,300.34257 652.04626,300.34257 C 652.04626,300.34257 639.66471,302.01706 635.13815,300.34258 C 632.54091,299.3818 628.39197,299.08496 625.06409,297.0428 C 621.40203,294.79557 618.55133,290.80065 615.62878,289.93758 C 613.3697,289.27044 607.82504,289.0705 607.82504,289.0705 C 607.82504,289.0705 601.03091,291.67566 600.88837,294.273 C 600.73206,297.12121 607.82504,300.77612 607.82504,300.77612 C 607.82504,300.77612 599.18108,301.79882 595.68588,300.77612 C 591.98076,299.69199 587.27516,296.84094 584.84734,293.83945 C 583.44962,292.11147 582.24609,288.20341 582.24609,288.20341 C 582.24609,288.20341 578.02009,296.36953 574.44235,298.60841 C 571.99431,300.14034 564.90444,299.90903 564.90444,299.90903 C 564.90444,299.90903 552.56585,297.09713 549.73049,292.97237 C 548.54936,291.25411 549.29695,286.03571 549.29695,286.03571 C 549.29695,286.03571 542.32589,289.95095 539.32549,289.0705 C 536.04964,288.10922 531.95529,280.39967 531.95529,280.39967 L 532.82237,270.86176 L 523.28446,273.02947 C 523.28446,273.02947 520.01813,268.51954 520.68321,266.52635 C 523.1402,259.163 535.33673,255.24232 542.79383,253.08656 C 557.78945,248.75151 579.34251,250.18329 594.81879,252.21948 C 597.63513,252.59002 601.09691,254.53554 603.92316,254.82073 C 629.10271,257.36153 688.03019,248.31761 688.03019,248.31761 C 688.03019,248.31761 684.75499,222.48322 689.76436,213.20075 C 692.59361,207.95808 700.10641,203.23062 705.80539,201.49514 C 712.15575,199.5613 721.96708,199.41652 727.916,202.36222 C 731.3932,204.08401 734.88148,208.66789 736.15329,212.33367 z"
           id="path3705"
           sodipodi:nodetypes="ccsssscsscssccscssscscsscscscscccsssscssss" />
        <path
           sodipodi:nodetypes="cssssssscsssss"
           id="path3707"
           d="M 521.70563,261.99882 C 523.16403,262.28088 525.00364,263.25953 526.12916,264.25118 C 527.2798,265.26494 529.00666,266.92584 529.05212,268.50808 C 529.08111,269.51705 528.09499,270.74315 527.34946,271.40461 C 526.81692,271.87709 525.88353,272.20564 525.19763,272.32387 C 523.74975,272.57341 521.73598,271.53201 520.33628,272.00417 C 519.1115,272.41734 517.7514,273.74826 517.00196,274.8437 C 515.9421,276.39289 515.26882,277.05673 515.02989,278.92958 C 514.84698,280.36345 515.59896,284.99773 515.59896,284.99773 C 515.59896,284.99773 511.29295,281.72345 510.32578,279.89588 C 508.91257,277.22545 508.34308,274.16158 509.15784,271.19133 C 509.67247,269.31526 511.46166,267.21926 512.88879,265.94091 C 514.64978,264.36348 517.50327,262.85546 519.72217,262.17471 C 520.29706,261.99835 521.12144,261.88582 521.70563,261.99882 z"
           style="opacity:1;fill:#ffffff;fill-opacity:1;fill-rule:evenodd;stroke:#000000;stroke-width:2.50000024;stroke-linecap:butt;stroke-linejoin:miter;stroke-miterlimit:4;stroke-dasharray:none;stroke-opacity:1" />
        <path
           sodipodi:nodetypes="cssssssscsssss"
           id="path3709"
           d="M 536.65351,276.95699 C 538.11191,277.23905 539.95152,278.2177 541.07704,279.20935 C 542.22768,280.22311 543.95454,281.88401 544,283.46625 C 544.02899,284.47522 543.04287,285.70132 542.29734,286.36278 C 541.7648,286.83526 540.83141,287.16381 540.14551,287.28204 C 538.69763,287.53158 536.68386,286.49018 535.28416,286.96234 C 534.05938,287.37551 532.69928,288.70643 531.94984,289.80187 C 530.88998,291.35106 530.2167,292.0149 529.97777,293.88775 C 529.79486,295.32162 530.54684,299.9559 530.54684,299.9559 C 530.54684,299.9559 526.24083,296.68162 525.27366,294.85405 C 523.86045,292.18362 523.29096,289.11975 524.10572,286.1495 C 524.62035,284.27343 526.40954,282.17743 527.83667,280.89908 C 529.59766,279.32165 532.45115,277.81363 534.67005,277.13288 C 535.24494,276.95652 536.06932,276.84399 536.65351,276.95699 z"
           style="opacity:1;fill:#ffffff;fill-opacity:1;fill-rule:evenodd;stroke:#000000;stroke-width:2.50000024;stroke-linecap:butt;stroke-linejoin:miter;stroke-miterlimit:4;stroke-dasharray:none;stroke-opacity:1" />
        <path
           sodipodi:nodetypes="cssssssscsssss"
           id="path3711"
           d="M 558.01357,291.01707 C 559.4834,290.80235 561.54285,291.11952 562.93245,291.68448 C 564.35305,292.26202 566.53107,293.26045 567.09583,294.73917 C 567.45597,295.68212 566.92941,297.16485 566.44375,298.03518 C 566.09683,298.65686 565.32403,299.27487 564.7155,299.61271 C 563.43093,300.32581 561.18638,300.00684 560.02072,300.91422 C 559.00073,301.70822 558.15569,303.41324 557.80947,304.69456 C 557.31985,306.50663 556.90318,307.35538 557.29531,309.20224 C 557.59554,310.6162 559.83388,314.74317 559.83388,314.74317 C 559.83388,314.74317 554.68891,313.07227 553.17311,311.66594 C 550.95823,309.61102 549.41011,306.9064 549.19966,303.83363 C 549.06675,301.8928 550.06454,299.32399 550.99021,297.64648 C 552.13241,295.57652 554.32888,293.21177 556.1991,291.83729 C 556.68366,291.48119 557.4248,291.10307 558.01357,291.01707 z"
           style="opacity:1;fill:#ffffff;fill-opacity:1;fill-rule:evenodd;stroke:#000000;stroke-width:2.50000024;stroke-linecap:butt;stroke-linejoin:miter;stroke-miterlimit:4;stroke-dasharray:none;stroke-opacity:1" />
      </g>
      <path
         sodipodi:nodetypes="css"
         id="path3713"
         d="M 532.84947,271.14966 C 532.84947,271.14966 542.71083,264.72763 546.74989,263.33067 C 550.01868,262.20011 554.61391,261.45857 558.04399,261.01393"
         style="fill:none;fill-rule:evenodd;stroke:#000000;stroke-width:2.5;stroke-linecap:butt;stroke-linejoin:miter;stroke-miterlimit:4;stroke-dasharray:none;stroke-opacity:1" />
      <path
         sodipodi:nodetypes="cssc"
         id="path3715"
         d="M 549.9354,285.62926 C 549.9354,285.62926 557.13425,279.49238 560.65031,277.52069 C 562.92991,276.24236 566.19788,274.85661 568.75889,274.33517 C 574.97578,273.06936 578.34083,273.6459 578.34083,273.6459"
         style="fill:none;fill-rule:evenodd;stroke:#000000;stroke-width:2.5;stroke-linecap:butt;stroke-linejoin:miter;stroke-miterlimit:4;stroke-dasharray:none;stroke-opacity:1" />
    </g>
    <g
       id="g3648"
       transform="translate(-485.78314,-45.542169)">
      <g
         transform="matrix(0.9999919,4.0009699e-3,-4.0009699e-3,0.9999919,705.63739,31.683133)"
         id="g2674"
         style="opacity:1">
        <g
           id="g6176"
           transform="translate(-176.76768,-4.2424243)">
          <path
             sodipodi:nodetypes="cssssssscssssssscc"
             id="path6066"
             d="M 134.43287,106.73789 C 134.43287,106.73789 124.88537,101.01476 120.17727,100.44602 C 116.83138,100.04184 112.22665,100.03865 108.9213,100.64743 C 104.17441,101.52171 97.200259,106.80176 92.405339,107.44368 C 90.147959,107.74589 88.259066,108.02125 86.635751,106.61309 C 83.730477,104.09287 85.923737,99.07968 84.125625,95.86181 C 83.246343,94.288261 81.062291,92.662713 79.301637,91.833633 C 77.121917,90.807215 73.718227,89.963812 71.261666,90.222363 C 69.731687,90.383391 66.667396,92.236451 66.667396,92.236451 C 66.667396,92.236451 70.724339,94.225698 71.721093,95.660402 C 73.907992,98.808169 72.294218,104.4814 74.247941,107.74494 C 75.017954,109.03117 76.854274,110.26697 78.153069,111.16888 C 79.48733,112.09542 81.339958,113.37887 82.977056,113.78719 C 86.622682,114.6965 91.908419,114.49673 95.611299,113.78719 C 100.13011,112.9213 105.10502,107.88179 109.62382,107.0159 C 113.05739,106.35798 117.88001,107.60268 121.33921,108.14775 C 123.87163,108.54679 129.37917,110.76606 129.37917,110.76606 L 134.43287,106.73789 z"
             style="fill:#ff2a2a;fill-opacity:1;fill-rule:evenodd;stroke:#000000;stroke-width:2.5;stroke-linecap:butt;stroke-linejoin:miter;stroke-miterlimit:4;stroke-dasharray:none;stroke-opacity:1" />
          <path
             sodipodi:nodetypes="csssscss"
             id="path6139"
             d="M 101.32901,87.929025 C 101.78121,86.468636 102.19672,86.950396 103.63785,86.440139 C 105.08929,85.926231 105.06144,85.650321 106.21624,86.668763 C 107.26275,87.591698 107.55351,87.241967 107.71782,88.627602 C 108.14178,92.202789 107.69561,95.787299 106.32772,99.117554 C 105.74687,100.53171 104.15578,102.35641 104.15578,102.35641 C 104.15578,102.35641 102.98993,100.97867 102.45378,99.282672 C 101.32065,95.698207 100.21706,91.520121 101.32901,87.929025 z"
             style="fill:#ffffff;fill-rule:evenodd;stroke:#000000;stroke-width:2.5;stroke-linecap:butt;stroke-linejoin:miter;stroke-miterlimit:4;stroke-dasharray:none;stroke-opacity:1" />
          <path
             sodipodi:nodetypes="csssscss"
             id="path6141"
             d="M 103.2283,115.38629 C 103.18621,116.91451 103.73471,116.59218 104.93482,117.53927 C 106.1435,118.49314 106.0283,118.74539 107.44951,118.153 C 108.73745,117.61616 108.90013,118.04089 109.50183,116.78194 C 111.05433,113.53363 111.78603,109.99635 111.56324,106.40302 C 111.46864,104.87714 110.54978,102.63732 110.54978,102.63732 C 110.54978,102.63732 109.00242,103.56632 107.94875,104.99938 C 105.72186,108.02813 103.3318,111.6284 103.2283,115.38629 z"
             style="opacity:1;fill:#ffffff;fill-rule:evenodd;stroke:#000000;stroke-width:2.5;stroke-linecap:butt;stroke-linejoin:miter;stroke-miterlimit:4;stroke-dasharray:none;stroke-opacity:1" />
          <g
             transform="translate(-537.30128,8.114194)"
             id="g6049"
             style="opacity:1">
            <path
               style="opacity:1;fill:#f8de00;fill-opacity:1;fill-rule:evenodd;stroke:#000000;stroke-width:3;stroke-linecap:butt;stroke-linejoin:miter;stroke-miterlimit:4;stroke-dasharray:none;stroke-opacity:1"
               d="M 688.4389,102.204 C 688.4389,102.204 673.8908,117.3264 666.38925,122.15367 C 659.27057,126.73456 647.59341,128.74946 640.48967,133.35349 C 633.31795,138.00158 624.63652,145.7803 619.49001,152.60318 C 615.95537,157.28915 612.91924,164.6528 610.74015,170.1029 C 608.7426,175.09895 613.58194,182.04265 611.5145,182.67521 C 608.78804,183.5094 603.89306,187.00686 600.72516,192.44266 C 598.50643,196.24978 597.53554,202.1241 597.03768,203.92838 C 596.35815,206.39106 596.83581,210.3381 598.43766,212.32824 C 600.21034,214.53062 607.18752,215.82819 607.18752,215.82819 C 607.18752,215.82819 604.07451,210.45994 604.73756,208.12831 C 605.26713,206.26607 607.75921,204.39795 609.63748,203.92838 C 612.45488,203.22403 615.99006,204.40235 615.99006,204.40235 C 615.99006,204.40235 613.33852,212.80827 614.24009,216.30216 C 614.9327,218.98627 618.90113,221.04384 619.84,223.65204 C 620.72977,226.12383 620.91738,229.87755 620.19,232.4019 C 618.95623,236.68363 611.79013,244.6517 611.79013,244.6517 C 611.79013,244.6517 622.88943,241.23662 626.4899,238.00181 C 629.57085,235.23376 632.67221,230.16229 633.48978,226.102 C 634.26362,222.25889 630.51379,216.87581 631.73981,213.15221 C 633.29568,208.42679 643.28962,201.2524 643.28962,201.2524 C 643.28962,201.2524 643.7707,209.91929 644.6896,213.5022 C 645.30962,215.91974 648.41296,218.77306 647.83955,221.20208 C 647.07024,224.46095 640.91779,225.54742 639.43969,228.55196 C 637.95361,231.57271 638.16604,236.43451 638.7397,239.75178 C 639.14848,242.11562 640.28975,245.31415 641.88965,247.10166 C 644.30427,249.79942 648.88857,252.12858 652.38948,253.05156 C 653.60783,253.37277 656.58941,253.05156 656.58941,253.05156 C 656.58941,253.05156 649.4787,248.51779 648.18955,245.35169 C 647.47572,243.59856 647.73916,240.76713 648.53954,239.05179 C 649.51324,236.96498 652.38042,235.28803 654.13945,233.80187 C 656.65793,231.67407 660.8025,229.70453 662.88931,227.15198 C 665.0294,224.53424 666.93877,220.27465 667.78923,217.00215 C 668.68872,213.54101 668.48922,205.10234 668.48922,205.10234 C 668.48922,205.10234 668.21667,211.54967 669.92306,214.56348 C 670.94731,216.3725 675.0447,219.46656 676.18909,221.20208 C 677.12289,222.61822 678.45317,224.76365 678.28906,226.45199 C 678.08337,228.56807 675.5383,230.58203 674.43912,232.4019 C 673.44259,234.05182 671.28917,238.00181 671.28917,238.00181 C 671.28917,238.00181 680.69223,233.64034 683.88897,230.65192 C 686.76095,227.9671 690.57742,223.67754 691.23885,219.8021 C 691.58591,217.76862 690.1226,215.11535 689.48888,213.15221 C 689.03961,211.76047 688.16688,210.00072 687.73891,208.60228 C 687.32896,207.26275 686.2609,205.38621 686.68892,204.05235 C 687.41626,201.78571 692.63883,198.80244 692.63883,198.80244 C 692.63883,198.80244 691.35972,203.20005 691.58885,205.10234 C 691.97135,208.27796 695.78878,214.90218 695.78878,214.90218 C 695.78878,214.90218 696.22957,208.92856 697.88874,207.2023 C 700.78818,204.18562 710.32101,204.40326 713.97831,202.37069 C 716.17026,201.1525 722.36433,200.62087 727.15695,197.71746 C 731.61462,195.01696 734.7084,189.96462 736.14383,188.12616 C 736.47836,187.6977 742.31743,197.94593 753.84614,198.27449 C 764.48415,198.57767 769.33244,188.32003 770.54406,186.7023 C 770.35697,187.08711 760.17281,191.1993 756.53401,187.64585 C 752.62854,183.83197 756.1709,174.75437 755.33114,173.4091 C 750.33625,165.40736 744.74824,161.15618 749.29181,154.74985 C 754.42787,156.43287 759.71272,157.11755 765.04331,155.08189 C 774.10995,151.61949 773.46152,143.88369 772.68617,140.48869 C 772.3708,139.93976 768.51643,146.92802 761.81681,143.97078 C 754.62428,140.79596 752.42113,128.6645 752.28554,128.22403 C 750.79343,123.37696 744.78799,117.60375 744.78799,117.60375 L 743.03802,94.854115 L 731.4882,81.204335 L 682.139,94.854115 L 688.4389,102.204 z"
               id="path5995"
               sodipodi:nodetypes="csssssssscsscssscssscsssssscssssscsssscssssscscssssscsscscssccccc" />
            <path
               style="opacity:1;fill:#f8de00;fill-opacity:1;fill-rule:evenodd;stroke:#000000;stroke-width:3;stroke-linecap:butt;stroke-linejoin:miter;stroke-miterlimit:4;stroke-dasharray:none;stroke-opacity:1"
               d="M 729.60318,47.735499 C 729.60318,47.735499 732.24825,44.269376 733.04677,41.322563 C 733.53356,39.526117 733.18283,34.258858 732.87163,31.642389 C 732.58006,29.191036 731.75403,28.225806 731.75403,28.225806 C 731.75403,28.225806 731.26886,31.223122 730.57986,32.770179 C 729.42117,35.371868 724.69758,40.221774 724.69758,40.221774 C 724.69758,40.221774 725.50524,36.775678 725.40323,35.282258 C 725.08815,30.669549 721.16935,20.46371 721.16935,20.46371 C 721.16935,20.46371 719.41438,30.458301 716.93548,33.870968 C 714.79501,36.817726 711.95439,35.852058 708.51279,37.043843 C 699.90181,40.025721 684.22043,37.753376 674.38912,41.700717 C 670.3392,43.326792 662.02526,49.084862 662.02526,49.084862 C 662.02526,49.084862 651.67677,52.636266 645.92038,51.588613 C 643.80577,51.203757 641.33659,49.273281 639.22525,49.675719 C 635.48312,50.389002 632.47141,50.314048 629.34196,51.269797 C 625.40434,52.472365 625.18829,60.748331 626.47262,64.660051 C 626.90292,65.970626 628.67863,67.150147 629.02315,68.485839 C 629.59845,70.716268 627.70196,73.937746 628.38552,76.137413 C 629.19232,78.733675 631.66736,81.987112 634.1242,83.151355 C 637.49502,84.748715 642.70602,83.391005 646.23919,82.194908 C 650.11679,80.882211 654.31442,81.229401 656.44129,77.73149 C 657.29909,76.320727 659.94826,71.036363 659.94826,71.036363 C 659.94826,71.036363 666.15995,75.52935 667.59983,79.325568 C 668.85531,82.635615 668.78452,87.916731 667.28102,91.121745 C 665.0647,95.84628 659.07408,100.70967 654.20958,102.59911 C 649.84005,104.2963 642.88295,101.04086 638.58762,102.91792 C 635.1786,104.40767 631.80126,105.76737 630.61723,109.29424 C 629.85077,111.57729 629.37363,116.38841 630.93604,118.22107 C 632.743,120.34058 636.55699,118.35975 637.94999,120.77159 C 638.73892,122.13754 638.58762,127.46672 638.58762,127.46672 C 638.58762,127.46672 644.77572,123.44772 646.23919,120.77159 C 647.16727,119.07448 647.19564,114.39528 647.19564,114.39528 C 647.19564,114.39528 662.36525,115.41571 668.8751,115.35173 C 673.37933,115.30746 681.1044,116.40695 685.13469,114.39528 C 688.2906,112.82005 690.79276,108.92175 691.511,105.46845 C 691.7759,104.1948 690.23574,101.32384 690.23574,101.32384 C 690.23574,101.32384 692.55274,99.89701 693.74272,101.00502 C 696.69016,103.74944 697.79814,107.1808 697.88731,111.20713 C 698.04408,118.28568 697.15769,128.75086 694.06153,135.11829 C 692.24519,138.85369 688.99499,143.75995 685.42525,147.28986 C 683.9747,148.72422 682.47139,149.93132 680.99009,150.74026 C 677.37955,152.71197 671.40758,152.70518 667.91865,154.88486 C 665.56629,156.35448 662.84168,159.12946 661.54234,161.57999 C 660.48776,163.56891 659.8032,166.66622 659.94826,168.91275 C 660.1315,171.75056 663.13642,177.83958 663.13642,177.83958 L 665.6008,170.56846 L 678.13094,164.55399 C 678.13094,164.55399 694.66931,160.86719 700.68518,157.03591 C 707.32387,152.80798 707.4836,150.40644 707.4836,150.40644 C 707.4836,150.40644 706.00382,159.47115 698.17915,166.55882 C 695.73253,168.77499 688.65625,172.07208 688.65625,172.07208 C 688.65625,172.07208 702.13338,171.08946 707.20085,168.56364 C 713.2025,165.57219 719.84121,158.98302 723.74063,153.52747 C 727.26523,148.59632 732.75345,131.75389 732.75345,131.75389 C 732.75345,131.75389 728.47675,115.96083 725.24425,108.41899 C 723.48606,104.31692 717.22496,95.888851 717.22496,95.888851 C 717.22496,95.888851 723.33249,104.56779 725.22814,108.67765 C 729.42713,117.78126 735.26835,140.55149 735.26835,140.55149 C 735.26835,140.55149 740.04931,125.94866 740.78161,119.44551 C 741.32029,114.66182 741.53579,108.05428 740.28041,103.40693 C 739.21015,99.444866 733.76474,91.378002 733.76474,91.378002 C 733.76474,91.378002 738.90131,99.790013 740.22505,103.76723 C 741.7301,108.28919 740.1751,115.45877 742.78644,119.44551 C 745.82585,124.0858 752.77702,129.4105 758.3238,129.46961 C 760.61884,129.49407 763.34543,127.20228 764.83947,125.45997 C 766.85727,123.10685 769.20523,119.01633 768.84912,115.93707 C 768.61417,113.90547 764.83947,110.42381 764.83947,110.42381 C 764.83947,110.42381 762.99203,115.28375 761.67523,116.75933 C 760.53375,118.03845 758.34092,117.54288 756.88258,116.64157 C 755.5782,115.83542 755.76176,111.88264 755.51987,110.36845 C 754.32538,102.89124 758.90482,94.082934 756.29583,88.010465 C 755.40749,85.942815 752.49435,80.42972 749.91596,78.778481 C 748.22899,77.698129 741.78403,74.838223 741.78403,74.838223 C 741.78403,74.838223 746.07556,72.080751 747.29728,70.327374 C 749.93417,66.542993 751.54705,60.341442 752.30934,55.792417 C 752.85604,52.52995 752.30934,44.765898 752.30934,44.765898 C 752.30934,44.765898 742.09446,45.104104 737.77438,45.768309 C 735.28226,46.151468 729.60318,47.735499 729.60318,47.735499 z"
               id="path5193"
               sodipodi:nodetypes="csscscscssscssssssssscssssssscscssscsssssssscccscscsscscscsscssssscssssscsscsc" />
            <g
               style="opacity:1"
               id="g5187"
               transform="translate(149.02369,7.1978252)">
              <path
                 transform="matrix(-0.9158702,-0.4014745,-0.4014745,0.9158702,719.27797,-20.238666)"
                 d="M 149.34544,142.89806 A 12.504578,7.3608503 0 1 1 124.33629,142.89806 A 12.504578,7.3608503 0 1 1 149.34544,142.89806 z"
                 sodipodi:ry="7.3608503"
                 sodipodi:rx="12.504578"
                 sodipodi:cy="142.89806"
                 sodipodi:cx="136.84087"
                 id="path3163"
                 style="fill:#ffffff;fill-opacity:1;fill-rule:evenodd;stroke:#000000;stroke-width:2.5;stroke-linecap:butt;stroke-linejoin:miter;marker:none;marker-start:none;marker-mid:none;marker-end:none;stroke-miterlimit:4;stroke-dasharray:none;stroke-dashoffset:0;stroke-opacity:1;visibility:visible;display:inline;overflow:visible;enable-background:accumulate"
                 sodipodi:type="arc" />
              <path
                 transform="translate(391.31753,-88.325583)"
                 d="M 149.95408,141.35471 A 8.0072575,8.0072575 0 1 1 133.93957,141.35471 A 8.0072575,8.0072575 0 1 1 149.95408,141.35471 z"
                 sodipodi:ry="8.0072575"
                 sodipodi:rx="8.0072575"
                 sodipodi:cy="141.35471"
                 sodipodi:cx="141.94682"
                 id="path3179"
                 style="fill:#ffffff;fill-opacity:1;fill-rule:evenodd;stroke:#000000;stroke-width:2.5;stroke-linecap:butt;stroke-linejoin:miter;marker:none;marker-start:none;marker-mid:none;marker-end:none;stroke-miterlimit:4;stroke-dasharray:none;stroke-dashoffset:0;stroke-opacity:1;visibility:visible;display:inline;overflow:visible;enable-background:accumulate"
                 sodipodi:type="arc" />
              <path
                 sodipodi:nodetypes="csccsssssscscsssssc"
                 id="path3183"
                 d="M 533.92275,46.139841 C 533.31906,46.138131 532.77751,46.232281 532.23525,46.296091 C 531.15073,46.423711 530.23525,46.608591 530.23525,46.608591 L 531.0165,50.014841 C 531.0165,50.014841 531.76269,49.868251 532.6415,49.764841 C 533.52031,49.661431 534.62239,49.809301 534.454,49.733591 C 534.37759,49.699231 535.08646,50.492851 535.1415,50.671091 C 535.31812,51.243091 535.21539,53.377731 534.92867,53.956641 C 534.82818,54.159541 534.01078,54.877491 533.95992,54.894141 C 534.22007,54.808951 533.35632,54.883991 532.70992,54.769141 C 532.06353,54.654291 531.52242,54.519141 531.52242,54.519141 C 531.52242,54.519141 529.75144,54.308521 529.5004,54.887361 C 529.16761,55.654701 530.5165,57.483591 530.5165,57.483591 C 530.5165,57.483591 531.21311,57.647801 532.04775,57.796091 C 532.88239,57.944381 533.73386,58.205891 534.98525,57.796091 C 536.47701,57.307571 537.39657,56.360291 538.0165,55.108591 C 538.84857,53.428551 539.05237,51.476461 538.48525,49.639841 C 538.08242,48.335281 537.38331,47.216851 535.8915,46.546091 C 535.18438,46.228151 534.52644,46.141551 533.92275,46.139841 z"
                 style="fill:#000000;fill-opacity:1;fill-rule:evenodd;stroke:none;stroke-width:3.5;stroke-linecap:butt;stroke-linejoin:miter;stroke-miterlimit:4;stroke-dasharray:none;stroke-opacity:1" />
              <path
                 sodipodi:nodetypes="csssssssssssc"
                 id="path3167"
                 d="M 532.47164,40.771801 C 532.47164,40.771801 529.7101,41.202371 528.56951,41.658651 C 526.32936,42.554801 524.06991,44.584411 523.78052,46.979741 C 523.62922,48.232081 524.11404,49.296811 525.02211,50.172401 C 525.99869,51.114051 527.56902,50.997911 528.92425,51.059251 C 530.90892,51.149091 533.37186,49.586261 535.30956,49.817661 C 538.09936,50.150821 541.71683,51.860581 543.82332,53.719801 C 544.80864,54.589461 545.02696,56.728741 546.12912,57.444571 C 547.11996,58.088101 548.97587,58.507761 550.03126,57.976681 C 551.1162,57.430731 551.68017,55.605661 551.98233,54.429281 C 552.12795,53.862361 552.14727,53.039811 551.98233,52.478211 C 551.73277,51.628491 550.99851,50.634671 550.386,49.995031 C 549.6202,49.195311 547.37071,47.866591 547.37071,47.866591"
                 style="fill:#f8de00;fill-opacity:1;fill-rule:evenodd;stroke:#000000;stroke-width:2.5;stroke-linecap:butt;stroke-linejoin:miter;stroke-miterlimit:4;stroke-dasharray:none;stroke-opacity:1" />
            </g>
            <path
               style="opacity:1;fill:none;fill-rule:evenodd;stroke:#000000;stroke-width:2.5;stroke-linecap:butt;stroke-linejoin:miter;stroke-miterlimit:4;stroke-dasharray:none;stroke-opacity:1"
               d="M 630.67617,65.733999 C 630.67617,65.733999 635.53134,59.267881 637.76028,58.344623 C 639.98922,57.421365 640.82474,57.55126 641.26446,58.344623 C 641.70418,59.137986 641.56838,60.389031 639.91669,62.02259 C 638.265,63.656149 630.67617,65.733999 630.67617,65.733999 z"
               id="path6013"
               sodipodi:nodetypes="csssc" />
            <path
               style="opacity:1;fill:#000000;fill-rule:evenodd;stroke:#000000;stroke-width:2.5;stroke-linecap:butt;stroke-linejoin:miter;stroke-miterlimit:4;stroke-dasharray:none;stroke-opacity:1"
               d="M 729.18784,59.26477 C 729.18784,59.26477 731.91427,54.879424 733.76034,53.803164 C 736.67227,52.105508 744.81057,51.770939 744.81057,51.770939 C 744.81057,51.770939 746.19035,58.845105 744.30251,60.788939 C 743.36995,61.749157 740.80409,60.224076 739.85702,61.169981 C 738.61216,62.413303 740.60685,65.782495 739.34896,67.012629 C 738.50268,67.840231 735.41153,67.266657 735.41153,67.266657 C 735.41153,67.266657 735.46636,62.260708 734.14138,60.788939 C 733.10109,59.633403 729.18784,59.26477 729.18784,59.26477 z"
               id="path6022"
               sodipodi:nodetypes="cscssscsc" />
            <path
               style="opacity:1;fill:none;fill-rule:evenodd;stroke:#000000;stroke-width:2.5;stroke-linecap:butt;stroke-linejoin:miter;stroke-miterlimit:4;stroke-dasharray:none;stroke-opacity:1"
               d="M 721.78715,61.84739 C 721.78715,61.84739 716.30988,72.901406 712.6506,76.606426 C 710.71883,78.562341 707.54322,80.704897 704.91968,81.526104 C 699.88525,83.101956 686.7598,83.997718 686.7598,83.997718 L 685.94378,85.040161 C 685.94378,85.040161 700.69876,81.220282 704.91968,85.040161 C 706.49078,86.461988 706.49702,90.138212 705.62249,92.068273 C 704.87392,93.720335 702.84625,96.022524 701.29241,96.958064 C 698.869,98.417156 692.46561,100.19226 692.46561,100.19226"
               id="path6018"
               sodipodi:nodetypes="cssccsssc" />
            <path
               style="opacity:1;fill:none;fill-rule:evenodd;stroke:#000000;stroke-width:2.5;stroke-linecap:butt;stroke-linejoin:miter;stroke-miterlimit:4;stroke-dasharray:none;stroke-opacity:1"
               d="M 717.57028,118.07229 C 717.57028,118.07229 718.39379,126.53163 717.57028,130.02008 C 716.27045,135.52626 713.83908,140.28667 710.99942,145.17992 C 709.85472,147.15245 706.78255,151.50522 706.78255,151.50522"
               id="path6020"
               sodipodi:nodetypes="csss" />
            <path
               style="fill:none;fill-rule:evenodd;stroke:#000000;stroke-width:2.5;stroke-linecap:butt;stroke-linejoin:miter;stroke-miterlimit:4;stroke-dasharray:none;stroke-opacity:1"
               d="M 629.01606,189.75904 C 629.01606,189.75904 622.68178,194.0192 620.38193,196.56699 C 618.68071,198.45162 616.12404,204.11747 616.12404,204.11747"
               id="path6039"
               sodipodi:nodetypes="css" />
            <path
               style="fill:none;fill-rule:evenodd;stroke:#000000;stroke-width:2.5;stroke-linecap:butt;stroke-linejoin:miter;stroke-miterlimit:4;stroke-dasharray:none;stroke-opacity:1"
               d="M 694.37751,179.21687 C 694.37751,179.21687 682.14701,183.09808 677.08243,186.54981 C 674.73845,188.14734 672.62873,191.5314 671.41337,194.09445 C 669.51414,198.0997 668.37349,205.54265 668.37349,205.54265"
               id="path6041"
               sodipodi:nodetypes="cssc" />
            <path
               style="fill:none;fill-rule:evenodd;stroke:#000000;stroke-width:2.5;stroke-linecap:butt;stroke-linejoin:miter;stroke-miterlimit:4;stroke-dasharray:none;stroke-opacity:1"
               d="M 693.01423,198.29015 C 693.01423,198.29015 699.96033,191.46178 702.81124,189.05622 C 706.6551,185.81282 714.04467,184.08221 716.86747,179.91968 C 718.6777,177.25031 718.9759,169.37751 718.9759,169.37751"
               id="path6043"
               sodipodi:nodetypes="csss" />
            <path
               style="opacity:1;fill:none;fill-rule:evenodd;stroke:#000000;stroke-width:2.5;stroke-linecap:butt;stroke-linejoin:miter;stroke-miterlimit:4;stroke-dasharray:none;stroke-opacity:1"
               d="M 627.61044,153.91566 C 627.61044,153.91566 627.06848,163.52816 625.50201,167.26908 C 624.72456,169.12572 622.84353,172.43235 620.83245,174.73117 C 616.81853,179.31939 611.95024,182.76574 611.95024,182.76574"
               id="path6037"
               sodipodi:nodetypes="csss" />
          </g>
        </g>
        <path
           style="opacity:1;fill:none;fill-rule:evenodd;stroke:#000000;stroke-width:2.5;stroke-linecap:butt;stroke-linejoin:miter;stroke-miterlimit:4;stroke-dasharray:none;stroke-opacity:1"
           d="M -71.217589,207.30666 C -71.217589,207.30666 -68.994759,198.3666 -67.133379,194.66594 C -65.920099,192.25377 -61.510889,187.63783 -61.510889,187.63783"
           id="path6197"
           sodipodi:nodetypes="css" />
      </g>
      <path
         sodipodi:nodetypes="csc"
         id="path2876"
         d="M 726.66299,207.41598 C 726.66299,207.41598 726.18263,214.75709 726.44016,217.88919 C 726.61851,220.05836 728.22284,225.0199 728.22284,225.0199"
         style="fill:none;fill-rule:evenodd;stroke:#000000;stroke-width:2.5;stroke-linecap:butt;stroke-linejoin:miter;stroke-miterlimit:4;stroke-dasharray:none;stroke-opacity:1" />
    </g>
    <path
       style="fill:none;fill-rule:evenodd;stroke:#000000;stroke-width:2.5;stroke-linecap:butt;stroke-linejoin:miter;stroke-miterlimit:4;stroke-dasharray:none;stroke-opacity:1"
       d="M 316.5172,222.51149 L 329.37647,223.69395"
       id="path3961" />
  </g>
</svg>
