<svg xmlns="http://www.w3.org/2000/svg" version="1.0" height="350" width="420"><g stroke="#000"><path d="M51.98 109.802s3.666-11.743 7.829-14.321c1.267-.785 2.989.442 4.965-.191 2.124-.681 6.858-1.858 7.447-4.01.602-2.202-2.292-7.256-2.292-7.256s-6.606-5.628-10.12-6.11c-3.828-.526-12.412 3.437-12.412 3.437l-2.482 10.31 7.065 18.141zM229.423 283.749s-14.092 2.145-17.397-1.218c-1.027-1.045-.276-2.662-.87-4.001-.704-1.586-1.756-2.938-3.48-3.132-2.733-.307-5.362 3.214-6.785 5.567-1.9 3.142-2.088 11.309-2.088 11.309l5.568 7.307 17.065-1.197 7.987-14.635z" fill="#214263" fill-rule="evenodd" stroke-width="3"/><path d="M338.354 206.401s-30.647 22.738-41.675 34.698c-2.632 2.855-6.446 6.833-7.449 10.584-.879 3.288-.128 8.095 1.027 11.296 1.28 3.55 3.548 9.153 7.12 10.368 3.264 1.11 10.931-3.545 10.931-3.545s-3.877 7.726-6.922 9.508c-2.248 1.317-6.063 1.505-8.623 1.022-1.923-.363-5.754-3.075-5.754-3.075s.057 4.607-1.044 6.368c-1.465 2.342-6.322 5.819-6.322 5.819s.147-3.46.106-4.852c-.07-2.37-.69-5.137-1.95-7.144-.763-1.213-4.176-2.32-4.176-2.32s1.506 2.517 1.856 3.712c.745 2.553 1.293 6.181.928 8.815-.206 1.485-2.012 3.149-1.856 4.64.208 1.996.075 3.16 1.8 4.187 1.32.786 3.079 1.764 4.466 1.1.905-.432 3.052-1.291 3.343-2.252.242-.8 1.062-2.571 1.062-2.571s1.332 2.812 1.183 5.437c-.081 1.426-1.273 2.796-1.81 3.63-.277.431-1.11 2.344-3.354 2.95-2.182.587-4.819.3-5.31.208 0 0-4.34-.257-5.936-1.114-2.446-1.315-5.029-4.256-6.445-6.645-.79-1.332-.676-3.636-1.526-4.93-.705-1.073-2.6-1.677-3.248-2.784-.717-1.225-.715-1.135-.715-1.135s1.288.23 1.875 2.527c.65 2.545 2.088 9.28 2.088 9.28l-6.189-1.025-4.097-3.283s-1.402-1.08-1.313-1.724c.096-.69 1.623-.736 1.856-1.392.576-1.623-1.856-3.712-1.856-3.712s2.256 2.2 1.663 3.843c-.216.6-1.639.685-1.663 1.322-.088 2.301 2.606 3.21 5.63 5.22 2.198 1.46 4.935 2.335 5.505 3.998.515 1.5-1.392 5.103-1.392 5.103l-11.135 5.568s-4.876.191-6.495-.928c-2.613-1.807-7.191-8.815-7.191-8.815l-.696.464v6.959s5.35 4.895 4.64 7.423c-.507 1.798-5.568 2.784-5.568 2.784l-14.383.928s-3.195-2.224-3.711-3.712c-.782-2.25.927-7.887.927-7.887l-5.567 1.856s-2.1 7.022-4.64 8.35c-1.239.65-3.326.018-4.64-.463-2.537-.93-7.422-5.104-7.422-5.104l-4.176-17.63s2.255-2.986 3.712-3.247c3.078-.552 9.743 3.711 9.743 3.711s10.437-3.1 13.918-6.031c3.692-3.108 5.715-9.757 8.815-13.455 2.088-2.49 5.13-5.706 7.888-7.423 1.01-.629 2.531-1.245 3.711-1.392 2.502-.312 5.916.276 8.351.928 2.349.628 5.02 2.882 7.424 3.248 1.246.189 4.175-.464 4.175-.464s-8.497-1.744-12.062-2.784c-4.396-1.282-9.838-4.553-14.383-5.104-1.389-.168-3.331.959-4.64.464-2.487-.94-5.059-4.02-6.031-6.495-.153-.389.295-1.097 0-1.392-1.083-1.082-3.63.42-5.103 0-3.307-.94-7.4-3.517-9.744-6.031-2.038-2.186-4.647-5.827-4.64-8.815.007-2.367 2.064-5.262 3.713-6.96 2.345-2.415 9.743-5.567 9.743-5.567s-3.33 4.624-3.712 6.96c-.274 1.67-.078 4.205.928 5.567.555.75 1.879 1.161 2.784 1.391 3.914.996 13.454.464 13.454.464s4.18-7.724 6.496-10.67c2.919-3.715 7.37-8.28 11.135-11.135 2.035-1.544 5.087-3.141 7.423-4.176 2.817-1.248 7.415-1.229 9.743-3.248 1.41-1.223 2.107-3.827 2.784-5.567.734-1.889 1.889-4.47 1.855-6.496-.067-4.093-4.175-12.99-4.175-12.99s-105.582 47.128-153.642 45.638c-8.832-.274-20.451-5.013-27.662-10.12-3.638-2.577-9.446-11.47-9.446-11.47s-7.43 3.71-8.77 6.747c-.986 2.229-.104 5.786.674 8.096.842 2.5 4.723 7.421 4.723 7.421s-7.78-2.325-10.12-4.722c-2.47-2.53-4-7.335-4.723-10.795-.663-3.17-.247-6.178 1.349-8.996 1.163-2.054 4.676-6.208 4.676-6.208s-4.837-7.541-6.655-11.244c-1.593-3.246-4.093-11.335-4.093-11.335s-2.96.676-4.048 1.35c-.974.601-2.196 1.67-2.7 2.698-.716 1.466-1.518 4.001-.674 5.398.895 1.48 5.398 2.024 5.398 2.024s-2.085 2.562-3.374 2.698c-2.7.286-6.555-1.812-8.096-4.048-2.309-3.35-2.378-9.557-1.35-13.494.625-2.39 2.882-5.1 4.723-6.746 1.89-1.691 7.422-4.049 7.422-4.049s-3.98-4.39-4.723-6.746c-.547-1.738.486-4.317 0-6.073-.63-2.274-3.942-4.388-4.048-6.747-.313-6.963 10.12-20.915 10.12-20.915s-6.356 12.229-11.47 14.169c-2.302.873-8.096-1.35-8.096-1.35L24.09 129.98s.555-4.484 2.024-5.397c3.455-2.148 13.493 1.349 13.493 1.349l-8.77-2.699v-10.12l7.421-3.374s-8.522 4.457-12.144 3.374c-2.062-.616-4.723-5.398-4.723-5.398l2.024-10.12s2.185-4.625 4.048-4.723c5.004-.264 12.144 11.47 12.144 11.47l-7.421-8.771 2.699-4.048 7.421 7.421-7.421-8.096.674-7.421h2.7s-5.073-1.298-6.073-2.924c-1.171-1.904-1.639-4.629-.45-6.522 1.84-2.93 10.57-4.498 10.57-4.498s8.072-.32 10.12 1.8c1.741 1.799 2.352 4.264 2.025 6.746-.273 2.066-3.824 5.847-3.824 5.847s2.412 12.218 4.498 17.092c2.432 5.681 6.906 12.74 10.795 17.542 3.694 4.562 10.491 8.92 14.169 13.494 5.632 7.008 11.428 17.632 15.518 25.638 5.198 10.178 14.843 35.084 14.843 35.084l126.167-28.337 54.65 2.024 37.107 15.518 9.98 24.471z" fill="#214263" fill-rule="evenodd" stroke-width="3"/><path d="M220.446 258.123s3.516-1.074 4.87-1.856c1.243-.716 3.711-3.015 3.711-3.015M237.145 253.948s-3.34.705-4.407 1.624c-1.204 1.035-2.418 3.056-2.551 4.638-.142 1.689 1.855 5.334 1.855 5.334M240.623 256.036s-3.014 1.714-3.478 3.015c-.689 1.928.384 4.83 1.16 6.725.416 1.019 2.087 3.015 2.087 3.015M247.117 257.195s-2.803 2.651-3.247 4.175c-.41 1.41-.075 3.505.464 4.87.711 1.8 3.943 5.103 3.943 5.103M234.361 304.74s.412-3.955.696-5.334c.388-1.88 4.407-4.639 4.407-4.639M217.43 309.842s-.107-2.745.465-3.71c.787-1.33 4.174-3.016 4.174-3.016M60.318 208.12s3.957-3.807 5.41-5.41c1.183-1.306 2.855-3.002 4.329-3.968.89-.584 3.246-1.442 3.246-1.442M49.498 184.676s3.233-1.224 4.689-1.443c2.14-.322 5.19.769 7.213 0 2.436-.926 4.85-3.747 6.492-5.771 1.1-1.355 2.886-5.05 2.886-5.05M46.251 170.609s5.298.037 7.548-1.825M48.9 141.512s2.821 15.938 8.234 20.709c3.82 3.367 12.388 4.964 12.388 4.964" fill="none" stroke-width="2.5"/><path d="M59.802 83.1c.135 1.537 1.023 3.635 2.175 4.662.881.785 2.582 1.515 3.73 1.244 1.54-.364 3.002-.899 3.624-2.354 1.685-3.946 2.326-8.998.932-13.055-1.055-3.072-3.95-6.908-6.838-8.393-1.33-.683-2.585-1.271-4.041-.933-1.465.34-4.974 1.865-4.974 1.865s3.281 1.185 4.352 2.176c1.197 1.109 2.327 3.101 2.798 4.663.593 1.966-.295 3.42-.515 5.462-.156 1.44-1.37 3.22-1.243 4.663zM23.016 68.001s.83-5.311 3.108-7.149c2.295-1.851 6.378-3.195 9.325-3.108 2.008.059 4.71 1.159 6.217 2.487 2.882 2.538 5.27 6.159 5.906 9.946.266 1.588.483 3.573-.31 4.974-.914 1.61-2.813 2.46-4.663 2.486-1.326.02-3.14-1.825-4.041-2.797-2.323-2.504-1.87-7.36-4.663-9.325-.87-.612-2.356-.896-3.419-.933-.95-.032-2.176.435-3.108.622-1.4.28-4.352 2.797-4.352 2.797zM23.638 105.613c.957-.179 2.501-.171 3.108-.933.874-1.096.847-3.367.31-4.662-.758-1.832-1.563-3.344-3.418-4.041-1.048-.394-5.786.554-6.839.932-2.618.942-4.272 2.215-5.595 4.663-1.204 2.228-1.69 5.975-.932 8.392.593 1.892 2.742 3.816 4.351 4.974.985.708 3.73 1.554 3.73 1.554s-1.736-5.029-1.243-7.15c.287-1.235 1.38-2.8 2.487-3.418 1.061-.593 2.845-.089 4.04-.311zM26.124 130.48c1.26-.926 3.878.44 4.974 1.554 1.158 1.178 1.905 3.67 1.554 5.284-.393 1.809-2.468 3.687-4.041 4.663-2.21 1.37-5.824 2.584-8.393 2.175-2.733-.435-6.147-2.732-7.77-4.973-1.752-2.418-2.658-6.655-2.487-9.636.074-1.297 1.554-4.04 1.554-4.04s1.185 4.298 2.487 5.594c1.804 1.798 5.237 3.16 7.77 3.42 1.329.135 3.601-3.489 4.352-4.041zM200.903 290.335c-1.939.196-4.4-1.354-6.348-1.372-2.937-.028-9.607 1.887-9.607 1.887s3.043-4.19 4.803-5.49c2.132-1.574 5.415-3.526 8.064-3.603 2.035-.06 5.001.874 6.347 2.402.875.993 1.618 3.103 1.03 4.289-.625 1.26-2.89 1.746-4.29 1.887zM193.186 304.068c1.485-.047 3.495.5 4.812 1.22 1.346.734 3.397 1.972 3.791 3.505.251.978-.44 2.391-1.02 3.201-.415.579-1.253 1.105-1.896 1.372-1.357.563-3.551-.007-4.812.762-1.103.674-2.136 2.272-2.625 3.506-.69 1.745-1.2 2.542-1.02 4.42.138 1.44 1.895 5.793 1.895 5.793s-4.923-2.242-6.27-3.81c-1.968-2.293-3.2-5.155-3.062-8.232.088-1.943 1.37-4.383 2.48-5.945 1.368-1.927 3.818-4.028 5.832-5.183.521-.299 1.3-.59 1.895-.61zM222.492 318.46c.548-.67 1.75-1.193 2.614-1.22 2.135-.064 5.421.849 6.623 2.615.912 1.34.342 3.818 0 5.402-.508 2.356-1.843 5.409-3.311 7.32-1.358 1.768-5.752 4.706-5.752 4.706s1.114-5.122.872-7.32c-.225-2.038-2.163-4.4-2.266-6.449-.079-1.557.232-3.846 1.22-5.054zM251.597 307.306c1.097-1.6 4.342-1.74 6.274-1.568 1.655.146 2.738.842 3.835 2.091 1.44 1.641 2.297 4.798 2.09 6.971-.127 1.35-1.166 3.016-2.09 4.009-1.089 1.168-1.803 2.441-3.312 2.963-1.74.601-6.1.697-6.1.697s2.76-2.922 3.137-4.532c.41-1.75.056-4.386-.871-5.925-.502-.833-2.122-1.079-2.614-1.917-.427-.727-.825-2.093-.349-2.789z" fill="#848401" fill-rule="evenodd" stroke-width="2.5"/></g><path d="M268.084 197.448c-4.194 1.667-8.62 6.195-11.584 9.598-1.61 1.85-4.303 6.951-4.303 6.951s6.519-.748 9.268-1.324c5.446-1.14 12.316-4.661 17.872-4.965 4.923-.268 11.482 1.28 16.218 2.648 5.387 1.555 17.211 7.282 17.211 7.282s-11.135-18.508-19.196-21.845c-7.08-2.93-18.366-1.175-25.486 1.655zM59.51 284.247c.79-1.046 2.228-2.233 3.469-2.653.985-.334 2.471-.298 3.468 0 2.667.799 5.16 4.088 7.753 5.1 4.218 1.649 14.895 2.45 14.895 2.45L77.77 302.404l-17.955 1.633-3.264-5.611s-.448-4.53-.102-6.427c.447-2.46 1.553-5.758 3.06-7.753z" fill="#214263" fill-rule="evenodd" stroke="#000" stroke-width="3"/><path d="M59.612 284.349h0z" fill="#f8c300" fill-rule="evenodd" stroke="#000"/><path d="M356.24 291.441s-8.99 1.036-12.236-.692c-2.226-1.185-2.837-5.542-5.08-6.696-2.156-1.109-5.864-1.217-8.08-.23-1.66.739-3.925 4.617-3.925 4.617l4.156 11.775 5.772.923 9.835-.185 9.558-9.512z" fill="#214263" fill-rule="evenodd" stroke="#000" stroke-width="3"/><path d="M153.268 154.357L83.741 278.644l-7.998 19.69-6.153 1.23s-7.79-2.59-11.075-1.846c-2.198.498-6.153 4.307-6.153 4.307l6.768 15.382s3.275 2.344 4.922 2.461c1.747.124 5.538-1.846 5.538-1.846l2.46-5.537c0-.982 12.228-10.859 15.172-11.693.71-.2.691-2.201 0-2.46-.754-.284-1.769 2.241-3.28 3.674-1.974 1.87-2.447 3.508-3.41 4.29-3.696 3-3.38 3.468-4.174 7.42-.345 1.716 1.846 5.537 1.846 5.537l19.689 2.46s6.195-3.468 6.768-6.152c.673-3.153-3.647-6.69-4.307-9.844-.491-2.35-2.366-7.601 0-8 2.247-.377-1.138 4.451-.338 8.075.984 4.452 5.875 7.923 5.875 7.923l8 .615s8.78-7.294 10.459-11.69c.263-.69.447-1.873 0-2.461-2.087-2.745-11.075-3.076-11.075-3.076s-.348-1.431.21-2.254c1.24-1.834 5.943-.823 5.943-.823l1.846-12.92 3.076 7.998s4.27-5.847 5.328-9.431c.784-2.656.876-6.603 0-9.23-.583-1.75-.812-3.688-.812-3.688s4.297 3.692 5.736 6.765c.865 1.846.204 7.796.204 7.796s2.611-3.155 3.277-4.755c1.416-3.4 2.775-8.42 2.264-12.068-.4-2.862-2.529-6.337-4.307-8.614-2.094-2.683-2.854-3.476-2.854-3.476s1.284.138 3.174 1.474c2.081 1.472 4.854 4.268 6.448 6.924 1.547 2.576 1.846 9.844 1.846 9.844l3.215-6.312 1.092-7.224-2.46-15.997s9.063-11.464 14.766-12.921c6.595-1.685 15.347 5.151 22.15 4.922 6.538-.22 14.823-3.781 20.92-6.153 9.77-3.8 21.753-11.229 31.38-15.382 7.24-3.123 16.918-7.494 24.61-9.229 8.494-1.916 20.574-4.947 28.919-2.461 5.166 1.54 11.573 6.34 14.151 11.075 3.9 7.162 1.121 18.452 1.22 26.607.016 1.36-2.394 3.155-2.127 7.453.279 4.474 3.21 11.452 2 12.695-2.125 2.18-8.368 3.388-8.368 3.388s3.041 2.607 6.715 3.132c2.928.418 6.541-1.109 7.28-1.811 1.843-1.75 3.358-5.192 3.74-5.933 1.943-3.775 0-14.152 0-14.152s.209 15.617 4.307 20.305c1.806 2.066 5.033 2.08 6.543 4.37 1.628 2.471 3.171 5.311 1.197 7.515-2.876 3.21-8.198 5.826-8.198 5.826s4.86 1.57 9.33.425c2.782-.713 5.22-2.65 6.51-5.215 2.848-5.668 4.08-14.656 3.076-20.92-.587-3.668-5.537-11.075-5.537-11.075s4.34 13.991 9.23 17.228c3.399 2.251 10.688 1.748 10.688 1.748s-3.548 6.689-4.536 10.558c-1.559 6.104 1.846 20.92 1.846 20.92s-8.037 3.27-11.69 3.69c-2.392.276-5.851-1.7-8-.614-1.554.785-3.076 4.922-3.076 4.922l8.614 15.382s4.886 2.075 6.768 1.23c3.167-1.42 3.571-7.135 6.022-9.878 2.422-2.711 8.745-6.734 8.745-6.734l-4.307 14.767 3.077 4.307h14.151s4.417-5.276 4.307-8c-.15-3.734-6.768-10.459-6.768-10.459s3.675.347 5.474 1.358c2.241 1.26 4.37 5.41 4.37 5.41h6.769l7.998-6.153s1.194-5.125 0-6.768c-2.108-2.9-11.368-3.691-11.368-3.691l7.061-8.614-4.307-7.384s9.73 5.727 14.152 4.923c2.837-.517 6.06-3.591 7.383-6.153 1.104-2.139.615-7.999.615-7.999s-2.04 4.097-3.691 4.922c-1.486.743-4.398 1.209-5.538 0-2.156-2.287.616-10.46.616-10.46s7.351-1.759 9.844-3.691c1.78-1.38 4.257-3.9 4.307-6.153.053-2.406-4.307-6.768-4.307-6.768s.63 3.575-.615 4.95c-1.265 1.394-4.409 3.141-6.153 2.433-3.321-1.348-6.768-9.844-6.768-9.844s6.52-3.25 7.781-6.497c.5-1.284.446-4.521-.83-6.294-1.916-2.663-3.45-3.406-3.45-3.406s1.35 4.253-.425 5.737c-1.79 1.498-5.056 2.65-7.383 2.461-3.95-.322-9.017-3.228-11.69-6.153-3.239-3.542-4.505-8.586-6.373-13.006-.548-1.295-1.312-3.773-1.312-3.773s6.637-.457 9.31-1.765c1.876-.918 4.708-4.64 5.143-6.682.649-3.053-1.093-8.038-3.726-9.713-2.186-1.391-6.414-.265-6.414-.265s3.007 2.728 4.017 4.224c.717 1.062-1.162 3.87-1.83 4.963-.544.893-2.41.839-3.432.615-5.052-1.104-9.546-6.119-12.611-10.284-2.18-2.962-3.692-11.69-3.692-11.69s9.79-.727 13.536-2.462c6.07-2.81 13.348-8.703 17.228-14.151 3.083-4.329 5.295-11.368 6.153-16.613.984-6.014.515-14.316-.615-20.304-1.019-5.393-3.341-12.515-6.153-17.228-2.545-4.265-11.075-12.306-11.075-12.306s-4.627-2.894-5.538-4.922c-.832-1.852-1.223-5.147 0-6.768.81-1.073 3.234-2.04 4.307-1.23 1.032.777 3.072 7.383 3.072 7.383s2.871-1.612 4.311-4.307c1.145-2.141-.289-5.76-1.23-7.999-.716-1.701-2.064-4.051-3.692-4.922-2.934-1.57-8.18-1.997-11.444-1.354-4.212.83-8.63 3.649-11.444 6.891-2.028 2.338-3.887 6.765-4.184 9.845-.16 1.664.246 5.907.246 5.907s-21.008-2.015-31.01-1.6c-10.002.415-24.48 3.88-35.071 4.307-4.43.178-10.425.28-14.767-.615-6.58-1.358-15.603-3.89-20.92-8-2.513-1.94-4.981-5.661-6.153-8.613-1.512-3.81-1.9-9.268-.127-12.963 1.397-2.911 4.376-5.336 7.51-6.11 3.231-.8 8.295-1.213 11.076.615 1.38.906 2.788 3.303 2.46 4.922-.336 1.668-2.66 3.261-4.306 3.691-1.821.476-6.153-1.23-6.153-1.23s-.83 3.386.615 5.31c1.895 2.521 6.715 4.08 9.845 3.691 2.896-.359 7.054-2.998 8.943-5.222 2.787-3.28 5.208-10.584 5.208-10.584s15.138 1.537 21.535.616c8.262-1.19 16.899-2.615 24.306-6.463 4.095-2.127 10.543-5.665 13.113-9.498 2.866-4.277 4.101-11.054 2.962-16.075-1.014-4.471-4.823-7.887-9.237-9.13-3.37-.95-9.531 1.938-9.531 1.938s5.53.51 7.383 1.846c1.952 1.407 4.172 3.382 4.845 5.692.31 1.064-.51 4.353-1.076 5.305-1.18 1.99-3.605 3.234-5.692 4.23-3.063 1.46-7.873 1.588-11.267 1.618-4.558.04-11.607-3.908-16.034-5-3.245-.8-12.15.114-12.15.114s5.802-7.86 5.843-10.843c.051-3.737-.244-8.868-2.694-11.69-1.787-2.058-5.313-3.844-7.999-4.307-2.392-.412-4.12-.488-5.7 1.355-.961 1.12-2.554 3.344-2.298 4.798.375 2.128 1.343 3.352 1.343 3.352s1.291-2.075 2.964-3.352c.88-.672 2.793-.648 3.691 0 .947.682 2.7 3.803 2.49 4.951-.682 3.744-6.895 7.963-10.202 9.845-5.05 2.873-12.618.003-18.214 1.562-5.978 1.665-14.204 4.153-19.074 7.999-4.665 3.683-9.775 10.37-11.69 15.997-2.048 6.015-1.995 14.99-.53 21.174 1.445 6.107 5.629 13.809 9.844 18.459 4.916 5.424 13.632 10.522 20.304 13.536 5.223 2.36 12.745 3.898 18.458 4.35 5.365.423 12.488-.748 17.844-1.274 7.933-.78 26.457-2.46 26.457-2.46s-13.365 4.21-17.843 7.998c-3.05 2.579-6.854 7.117-7.384 11.075-.387 2.893.969 7.21 3.077 9.23 1.94 1.858 8.614 2.46 8.614 2.46s-4.57-4.376-4.307-6.768c.085-.778 1.096-1.619 1.845-1.846 1.802-.545 4.28 1.421 6.153 1.23 5.185-.527 12.39-3.007 15.998-6.767 2.183-2.276 3.691-9.845 3.691-9.845s-2.628 11.59 0 15.382c1.797 2.593 7.016 5.377 10.104 6.022 3.438.717 8.152-.457 11.431-1.715 2.194-.841 5.333-3.197 5.538-5.537.196-2.245-4.307-6.153-4.307-6.153s.913 3.393 0 4.307c-1.175 1.175-3.983.584-5.538 0-1.837-.69-4.111-2.52-4.922-4.307-.687-1.513-.676-4.02 0-5.538 1.01-2.268 3.872-4.556 6.153-5.537 4.252-1.83 10.985-2.678 15.382-1.23 5.344 1.758 11.451 7.369 14.151 12.305 3.044 5.565 4.5 14.738 3.077 20.92-1.103 4.79-5.364 10.5-9.23 13.536-3.72 2.921-14.766 5.537-14.766 5.537s-20.325-.088-25.496-1.186c-14.023-2.979-23.336-9.008-37.568-10.73-5.5-.665-14.54-1.394-20.079-1.54-9.412-.25-24.09.76-33.462-.153-15.857-1.545-51.813-5.231-51.813-5.231l-20.474-5.156-10.46 10.46z" fill="#214263" fill-rule="evenodd" stroke="#000" stroke-width="3"/><path d="M246.618 53.707s7.483-1.014 10.707-.945c3.62.078 7.48.879 10.708 2.52 2.442 1.241 6.425 4.734 7.21 7.36.302 1.011-.63 3.463-.63 3.463M279.37 53.707s8.72 4.962 12.68 6.564c3.37 1.364 15.034 3.199 15.034 3.199M301.415 52.762s6.185 3.655 9.133 4.41c3.574.914 12.282.63 12.282.63M285.984 39.535s-5.56 3.476-8.188 4.41c-1.904.675-4.643 1.7-6.614 1.26-1.254-.282-3.464-2.52-3.464-2.52M339.945 96.397s3.656-.341 5.168 0c5.026 1.136 15.505 7.384 15.505 7.384s-2.425-7.693-2.215-11.075c.196-3.146 1.258-7.587 3.323-9.968 1.622-1.87 4.973-3.123 7.383-3.692.647-.152 2.215 0 2.215 0M297.983 136.208s1.911-4.59 3.596-6.07c1.878-1.649 6.934-3.157 9.202-4.207 1.507-.698 3.606-1.88 4.43-3.323.497-.87.369-3.322.369-3.322M327.711 113.142l-2.94 9.148M355.81 181.756s-6.682-3.062-10.128-3.92c-3.044-.759-7.403.72-10.456 0-2.56-.605-7.841-3.921-7.841-3.921M327.711 187.637s6.816 1.247 9.149 2.941c3.522 2.558 4.641 8.554 7.583 11.763 1.925 2.1 4.705 3.876 5.91 5.843 1.03 1.678 2.509 6.063 2.509 6.063s1.783-4.726 1.71-7.205c-.028-.957-.068-6.989-.068-6.989s6.03 8.573 9.802 10.783c1.128.66 4.247.98 4.247.98M378.506 239.879s4.503 2.716 6.648 3.324c1.82.515 6.278.554 6.278.554M394.941 265.547s-1.738-5.673-3.14-7.756c-1.551-2.308-4.235-5.078-6.647-6.463-.898-.515-3.324-.924-3.324-.924M377.029 258.345s5.615 2.082 7.202 4.062c2.342 2.924 3.245 8.132 4.986 11.45.878 1.674 1.96 4.045 3.323 5.355 1.056 1.013 4.248 2.4 4.248 2.4M382.753 278.104s-5.038-7.896-6.278-9.603c-1.039-1.429-4.063-3.324-4.063-3.324M202.023 160.395l5.188 10.864M208.571 158.734l3.405 8.797M214.794 158.31l3.365 5.559M220.234 157.11l2.998 5.607M363.009 252.064l-3.373 4.897-7.636 5.043s1.146 1.832 2.352 2.565c.771.469 2.564.821 3.42.534 1.595-.535 3.764-1.567 4.809-2.885.523-.66.855-2.672.855-2.672M336.5 232.911s1.053 6.39 2.737 8.457c1.571 1.931 4.843 3.342 7.213 4.104 2.036.655 3.97 1.13 5.97.374 1.753-.663 5.347-4.229 5.347-4.229s-1.313 4.991-2.736 6.592c-1.875 2.11-5.438 4.055-8.208 4.601-1.807.356-4.351-.15-6.094-.746-2.343-.802-7.089-4.229-7.089-4.229M322.696 246.84s.265 6.417 1.74 8.706c1.153 1.788 3.836 3.14 5.1 4.85 1.186 1.606 2.227 3.456 2.86 5.349.679 2.026 1.848 8.6 1.848 8.6" fill="none" stroke="#000" stroke-width="2.5"/><path d="M344.345 184.37s5.096 4.653 6.654 7.129c1.67 2.656 3.802 9.743 3.802 9.743M198.122 230.543s-8.619-1.44-11.9-3.132c-2.609-1.345-5.861-3.839-7.516-6.263-1.842-2.7-3.445-10.334-3.445-10.334M207.83 225.22s-10.12-.73-13.688-2.688c-2.11-1.158-4.707-3.175-6.263-5.01-1.741-2.054-4.385-7.83-4.385-7.83M218.165 220.835s-13.476-3.107-18.79-5.637c-2.565-1.221-8.253-7.021-8.253-7.021M197.405 204.843s3.625 3.985 5.728 4.718c1.896.66 4.359 1.421 6.345 1.714 1.776.263 5.258.396 5.258.396M205.951 202.984s2.015 2.326 3.132 2.819c1.423.628 3.806.603 5.324.94 1.467.325 5.01 0 5.01 0M214.72 201.105s5.257.904 7.516 1.253c1.313.203 4.384.626 4.384.626M225.68 197.974s7.262.44 10.335.94c1.62.262 5.324 1.252 5.324 1.252M234.763 193.903s7.07 1.071 10.02 1.879c2.122.58 6.89 2.505 6.89 2.505s0 0 0 0M247.915 191.084s4.875.657 6.89 1.253c1.882.556 4.43 1.39 6.036 2.518 1.562 1.095 4.298 4.685 4.298 4.685" fill="none" stroke="#000" stroke-width="2.5"/><path d="M65.103 286.436c-1.891-2.164-4.865-3.415-7.737-3.316-2.47.085-5.444 2.134-7.369 3.685-1.99 1.602-4.644 4.174-5.342 6.631-.365 1.286-.292 2.339.368 3.5.623 1.096 2.395 3.132 2.395 3.132s.385-2.668 1.106-3.5c1.084-1.252 3.379-1.949 4.974-2.395 1.657-.463 4.02-.232 5.71-.552 1.186-.225 2.857-.447 3.869-1.106 1.085-.706 2.484-2.051 2.763-3.316.185-.837-.172-2.117-.737-2.763zM63.077 303.568c.77 1.344.812 3.743.184 5.158-.557 1.255-2.218 2.457-3.5 2.948-1.652.632-4.271-.518-5.895.184-1.937.838-3.899 3.158-4.974 4.974-.704 1.189-1.289 3.04-1.29 4.421 0 1.784 1.659 5.711 1.659 5.711s-6.09-4.624-7.185-7.553c-.872-2.331-.39-5.918.368-8.29.682-2.132 2.458-4.693 4.053-6.263 1.486-1.463 3.899-3.082 5.895-3.684 1.906-.576 4.714-.715 6.632-.185 1.39.384 3.337 1.329 4.053 2.58zM91.815 317.569c-.215-2.045-1.879-3.533-3.869-4.053-2.192-.573-5.813-.531-7.553.921-1.256 1.05-.805 3.734-1.105 5.343-.37 1.982-1.074 4.615-1.105 6.631-.032 2.064.216 4.877.92 6.817.425 1.167 1.174 2.818 2.212 3.5 1.496.982 5.894.92 5.894.92s-3.36-2.45-3.868-4.052c-.457-1.438.146-3.586.737-4.974.956-2.248 3.324-4.646 4.974-6.448 1.32-1.442 2.968-2.66 2.763-4.605zM119.448 305.595c2.118 1.078 4.254 2.307 5.342 4.421 1.189 2.31 1.05 6.283 0 8.658-.665 1.503-1.592 2.94-2.947 3.869-1.428.978-5.159 2.579-5.159 2.579s.962-3.062 1.106-4.421c.168-1.595.496-3.89-.184-5.343-.88-1.878-4.435-2.66-5.159-4.605-.447-1.202-.237-3.227.553-4.237.841-1.075 2.873-1.623 4.237-1.658.699-.018 1.588.42 2.21.737zM332.102 288.918c-1.419-1.43-4.628-1.372-6.625-1.104-2.35.316-3.367.702-5.325 2.04-1.709 1.167-4.159 2.88-4.969 4.784-.864 2.032 0 7.361 0 7.361s4.035-5.247 6.44-6.625c2.615-1.497 5.112.016 7.902-1.119 1.01-.41 2.664-.856 3.129-1.84.453-.96.195-2.742-.552-3.497zM329.446 303.746c2.04.087 3.007-.374 4.416 1.104 1.23 1.29 2.256 4.027 1.656 5.705-.36 1.01-2.006 1.505-2.944 2.024-1.579.875-4.141 1.229-5.52 2.393-1.16.977-2.329 2.78-2.76 4.232-.347 1.164-.269 2.864 0 4.049.282 1.252 1.39 2.011 2.023 3.128.197.346-3.15-.005-4.6-.736-1.5-.755-3.266-2.38-4.049-3.865-1.12-2.127-.56-4.227-.368-6.624.182-2.263 2.04-3.827 3.313-5.705 1.297-1.913 3.83-3.916 5.888-4.969.811-.414 2.035-.774 2.945-.736zM356.497 318.468s3.373-1.813 4.969-2.024c.882-.117 1.458-.112 2.208.368 1.586 1.016 3.235 3.454 3.312 5.337.105 2.54-2.558 5.362-3.864 7.544-.897 1.498-2.577 4.785-2.577 4.785s-4.276-9.662-4.508-11.647c-.278-2.38.36-4.162.46-4.363zM387.044 300.618c1.26-.416 3.203-.349 4.417.184 1.501.659 3.311 2.321 3.864 3.864.768 2.141.045 5.41-.736 7.545-1.035 2.834-5.704 8.281-5.704 8.281s.114-4.787-.184-6.808c-.184-1.246-.338-3.05-1.104-4.049-.934-1.217-3.653-1.246-4.417-2.576-.495-.862-.428-2.416 0-3.313.642-1.346 2.448-2.66 3.864-3.128z" fill="#848401" fill-rule="evenodd" stroke="#000" stroke-width="2.5"/><g><path d="M81.977 80.956s-1.471-4.889-1.071-6.964c.778-4.033 5.881-7.824 6.964-11.786.72-2.635 0-9.107 0-9.107s7.762.718 10.714 2.143c2.465 1.19 5.436 3.71 5.436 3.71s.25-3.187.993-5.317c.86-2.47 3.59-4.584 4.364-7.084.672-2.17.457-6.844.457-6.844s6.743 2.506 8.571 4.821c.725.918 1.072 3.75 1.072 3.75s5.067-5.95 5.357-9.107c.172-1.873-2.143-5.893-2.143-5.893s7.705 1.783 9.643 4.286c1.795 2.319 1.607 9.643 1.607 9.643s1.751-5.188 3.214-6.965c2.268-2.754 9.643-6.964 9.643-6.964l-1.072 10.714s4.52-2.16 6.429-1.607c4.476 1.299 8.565 7.114 10.714 11.25.756 1.454 1.071 5.357 1.071 5.357s4.235-5.833 6.965-6.964c1.93-.8 6.964 0 6.964 0s-1.472 5.637-1.072 8.036c.77 4.607 6.455 9.284 6.964 13.928.217 1.976-1.607 6.428-1.607 6.428s7.494 11.547 9.107 17.143c1.83 6.348-.687 14.638 2.481 20.435.77 1.41 2.68 3.132 4.286 3.214 1.871.097 4.483-1.685 4.483-1.685s-.335 4.901-1.607 6.428c-1.243 1.492-5.893 2.679-5.893 2.679s.93 3.926 1.072 6.428c.14 2.503-.832 8.013.774 10.615 1.474 2.389 4.3 4.125 7.043 3.532.681-.147 2.539.095 3.264-.694 1.524-1.657 1.776-4.881 1.776-4.881s1.24 4.626.535 6.428c-.953 2.437-2.506 4.002-4.681 5.456-2.212 1.479-8.516 1.847-9.783 4.187-2.164 3.997 2.969 10.53 2.143 15-.6 3.254-4.902 6.364-5.357 9.642-.386 2.78.153 5.896 1.706 8.234 1.21 1.82 2.88 4.059 5.02 4.504 1.45.301 4.185-.05 5.258-1.072 1.326-1.264 2.137-3.437 2.48-5.237.273-1.43.536-4.822.536-4.822s2.552 4.663 2.559 6.965c.006 1.941-.79 4.393-2.023 5.892-1.757 2.135-4.915 4.377-7.5 5.357-2.871 1.09-7.165 1.66-10.179 1.072-2.681-.523-8.035-4.286-8.035-4.286s-.173 4.155-.536 5.893c-.52 2.487-.785 6.34-2.679 8.035-1.714 1.535-7.5 1.608-7.5 1.608s2.333 9.23 4.822 12.32c1.09 1.355 3.18 2.643 4.821 3.215 1.828.637 4.596 1.158 6.429.536 2.262-.768 4.666-3.307 5.892-5.357.68-1.138 1.072-4.286 1.072-4.286s1.256 7.395 0 10.178c-1.499 3.322-5.658 6.862-9.107 8.036-2.287.779-5.718.148-8.036-.536-1.587-.468-3.233-2.213-4.821-2.678-2.473-.724-8.571-.536-8.571-.536s.749 5.254.535 7.5c-.235 2.484-1.382 5.66-2.142 8.036-.419 1.307-1.166 2.982-.734 4.285.842 2.539 3.952 4.78 6.626 4.822 1.874.029 4.493-1.552 5.357-3.215 1.041-2.001-.535-7.5-.535-7.5s3.93 5.77 3.75 8.572c-.12 1.87-1.709 4.241-3.215 5.357-2.13 1.578-5.923 2.02-8.57 2.143-2.112.097-5.017-.252-6.965-1.072-2.222-.934-4.752-3.089-6.429-4.821-2.728-2.82-5.689-7.234-7.5-10.714-.868-1.669-3.33-4.535-3.33-4.535s-3.29-.156-5.24-.287c-2.182-.145-5.252-.784-6.965-2.142-1.75-1.388-2.808-4.405-3.75-6.429-1.008-2.166-2.678-7.5-2.678-7.5s-8.21 5.395-9.643 9.107c-.755 1.955-.188 4.998.536 6.964.755 2.052 2.81 4.28 4.285 5.893 1.153 1.261 4.286 3.75 4.286 3.75s-7.22.755-10.178 0c-3.903-.995-10.21-5.045-13.063-7.888-2.599-2.59-4.718-6.576-6.075-9.984-1.414-3.55-1.755-11.592-1.755-11.592l.9-7.476s-3.534 3.568-4.114 5.87c-.511 2.025 0 6.963 0 6.963s-3.978-8.442-4.822-12.32c-.616-2.832-1.122-6.806-.535-9.644.437-2.111 3.214-6.428 3.214-6.428s-5.075-8.762-6.429-12.857c-1.74-5.268-3.557-12.676-3.214-18.214.27-4.363 4.286-13.928 4.286-13.928l-5.893 1.607s-6.8-6.854-7.5-10.714c-.916-5.063 2.35-11.84 4.286-16.607.975-2.401 3.264-5.119 4.286-7.5 1.323-3.084 3.214-10.714 3.214-10.714s-5.644-2.218-6.964-4.286c-1.48-2.319-1.072-9.107-1.072-9.107s3.881 3.164 5.893 3.75c1.543.45 4.047-1.747 4.047-1.747s-3.062-6.245-3.511-10.038c-.249-2.1.116-5.079 1.071-6.965.925-1.824 4.821-4.821 4.821-4.821z" fill="#214263" fill-rule="evenodd" stroke="#000" stroke-width="3"/><path d="M118.374 110.352s-.342 9.77.054 12.675c.313 2.288 2.622 5.328 2.622 5.328s2.572-2.577 2.893-4.899c.41-2.955.27-12.86.27-12.86l-5.84-.244zM149.693 110.282s-.342 9.77.054 12.674c.313 2.288 2.622 5.329 2.622 5.329s2.571-2.577 2.893-4.9c.41-2.955.27-12.86.27-12.86l-5.84-.243z" fill="#848484" fill-rule="evenodd" stroke="#000" stroke-width="2.5"/><path d="M125.258 73.28a12.505 7.36-23.67 11-22.905 10.041 12.505 7.36-23.67 1122.905-10.04zM142.616 71.995a7.36 12.505-66.33 1022.905 10.04 7.36 12.505-66.33 10-22.905-10.04z" style="marker:none" fill="#848484" fill-rule="evenodd" stroke="#000" stroke-width="2.5" overflow="visible"/><path d="M136.287 70.899s3.965 1.207 4.877 2.146c1.759 1.81 1.996 5.639 3.96 7.224.933.755 2.832 1.911 3.844 2.557.564.36 1.332 1.613 3.045 2.206 2.074.719 5.268.107 6.373.565 3.585 1.485 9.132 7.5 10.316 11.195.382 1.193-.444 2.908-.887 4.08-1.12 2.963-3.921 6.3-5.144 9.223-.513 1.227-1.09 2.935-1.242 4.257-.109.953.034 2.244.178 3.192.098.651.166 1.582.532 2.129.699 1.043 2.558 1.042 3.192 2.127" fill="none" stroke="#000" stroke-width="2.5"/><path d="M125.246 73.734s.95 1.618-.054 4.132c-.804 2.01-3.455 4.946-4.428 5.485-3.117 1.727-7.54 3.02-9.985 4.027-2.487 1.024-5.037 2.452-5.409 2.674-.964.575-2.73.479-3.519 1.28-1.853 1.881-3.215 5.698-2.88 8.318.616 4.806 8.2 8.652 8.959 13.437.89 5.613-5.196 12.555-5.119 18.237.04 2.914 3.36 3.844 2.88 6.718-.295 1.761-3.52 7.359-3.52 7.359s6.646-3.863 8.638-6.399c1.223-1.556 2.56-6.079 2.56-6.079s-2.138 9.48-1.28 13.438c.938 4.328 4.81 9.738 4.81 9.738s.371-4 1.21-6.149c.591-1.517 4.858-2.31 4.858-2.31s-1.43 4.201-1.6 6.08c-.113 1.246-.131 2.991.32 4.158.79 2.042 2.854 4.293 4.48 5.76.672.606 2.559 1.599 2.559 1.599s-1.546-4.234-1.28-6.079c.202-1.403 2.24-4.16 2.24-4.16s.95 6.167 1.92 8.64c.486 1.24 1.493 2.823 1.899 4.093.968 3.03.208 4.52-.23 7.67-.184 1.323-1.6 5.178-1.6 5.178s5.996-3.035 7.419-5.51c.953-1.657 1.25-4.762 1.325-6.673.05-1.28.06-1.355.06-1.355s2.193 2.504 2.559 3.84c.483 1.76.17 2.173-.235 3.954-.554 2.433-1.895 4.079-1.925 6.574-.022 1.853 1.03 4.354 2.24 5.759 2.455 2.85 9.608 5.459 9.608 5.459s-2.837-5.44-3.2-7.999c-.27-1.91 1.24-3.827 1.915-5.634.99-2.644 4.395-5.056 5.44-7.678.753-1.892 1.042-4.685.96-6.719-.09-2.164-.78-5.035-1.6-7.039-.9-2.193-4.16-6.718-4.16-6.718s-.64-.439 1.104 1.017c1.34 1.12 5.06 4.018 5.615 5.062.956 1.797 2.064 6.038 2.064 6.038s1.984-4.967 2.095-7.638c.1-2.398-2.58-7.084-2.58-7.084l-1.26-3.154s4.36 2.91 5.44 4.799c1.26 2.207 2.45 7.469 2.45 7.469s3.512-6.445 3.244-9.389c-.148-1.625-.767-3.49-1.455-4.969-.654-1.406-3.28-4.629-3.28-4.629s4.272.917 5.258 2.143c1.13 1.405 3.416 5.986 3.416 5.986s2.314-4.11 2.69-8.455c.29-3.368-2.139-9.54-3.467-10.508l-8.809-6.426" fill="none" stroke="#000" stroke-width="2.5"/><path d="M123.988 114.184s.521 13.88 3.764 19.687c1.857 3.326 8.781 10.208 8.781 10.208s8.053-7.894 10.036-11.18c3.406-5.645 2.76-20.173 2.76-20.173l-5.27-7.291-15.555.243-4.516 8.506z" fill="#840101" fill-rule="evenodd" stroke="#000" stroke-width="2.5"/><path d="M111.363 99.72s-2.019 1.4-.767 4.017c.895 1.87 5.32 4.285 5.837 5.593.529 1.337 1.197 5.121 1.197 5.121s4.58 1.304 6.202.854c2.101-.582 4.239-2.859 6.234-3.74 1.786-.79 6.234-1.87 6.234-1.87l-.624-13.092c-.148.17-6.558-6.544-8.623-9.152-.743-.94-2.899.942-2.591 2.099 1.07 4.03 11.473 6.924 11.18 7.119 0 0 10.257-3.603 10.39-7.577.026-.793-1.219-2.322-1.871-1.87-2.593 1.793-8.112 9.824-8.518 9.38l.623 13.093s4.673 1.128 6.236 1.806c1.582.686 3.363 3.07 5.02 3.543 2.366.675 8.302-1.809 8.302-1.809s-.344-3.121.008-4.292c.542-1.8 4.212-4.164 5.453-6.472 1.122-2.086-.77-3.474-.77-3.474" fill="#214263" fill-rule="evenodd" stroke="#000" stroke-width="2.5"/><path d="M92.12 59.605s2.886 2.397 3.035 3.863c.169 1.658-2.856 3.344-2.483 4.968.304 1.323 3.525 1.403 3.587 2.76.14 3.042-7.45 6.898-7.45 6.898S92.6 69.391 92.947 65.4c.152-1.75-.828-5.795-.828-5.795zM172.681 57.54s-1.435 7.978.605 10.825c1.478 2.061 3.699 5.753 3.699 5.753s-1.965.01-2.649-.413c-1.68-1.042-1.778-2.48-2.745-4.613-.674-1.488-2.23-4.084-2.54-6.316-.263-1.894 3.63-5.236 3.63-5.236z" fill-rule="evenodd" stroke="#000" stroke-width="2.5"/><path d="M124.79 75.827a8.007 8.007 0 11-16.014 0 8.007 8.007 0 1116.014 0zM158.76 74.345a8.007 8.007 0 11-16.014 0 8.007 8.007 0 1116.015 0z" style="marker:none" fill="#848484" fill-rule="evenodd" stroke="#000" stroke-width="2.5" overflow="visible"/><path d="M151.412 67.456c-.604-.002-1.145.092-1.688.156-1.084.128-2 .313-2 .313l.781 3.406s.747-.147 1.625-.25c.88-.103 1.981.044 1.813-.031-.076-.035.632.759.687.937.177.572.074 2.707-.212 3.286-.1.203-.918.92-.97.937.261-.085-.603-.01-1.25-.125-.645-.115-1.187-.25-1.187-.25s-1.77-.21-2.022.368c-.332.768 1.016 2.597 1.016 2.597s.697.164 1.532.312c.834.148 1.686.41 2.937 0 1.492-.488 2.412-1.436 3.031-2.687.833-1.68 1.036-3.632.47-5.47-.404-1.304-1.103-2.422-2.595-3.093a4.7 4.7 0 00-1.968-.406z" fill-rule="evenodd"/><path d="M149.96 62.088s-2.76.43-3.901.887c-2.24.896-4.5 2.925-4.79 5.32-.15 1.253.334 2.318 1.242 3.193.977.942 2.547.826 3.902.887 1.985.09 4.448-1.473 6.386-1.241 2.79.333 6.407 2.043 8.513 3.902.986.87 1.204 3.009 2.306 3.725.991.643 2.847 1.063 3.902.532 1.085-.546 1.65-2.371 1.951-3.548.146-.567.165-1.39 0-1.95-.25-.85-.983-1.844-1.596-2.484-.766-.8-3.015-2.128-3.015-2.128" fill="#214263" fill-rule="evenodd" stroke="#000" stroke-width="2.5"/><path d="M117.38 68.58c-.603-.002-1.145.092-1.687.156-1.084.127-2 .312-2 .312l.781 3.407s.746-.147 1.625-.25c.88-.104 1.981.044 1.813-.032-.077-.034.632.76.687.938.177.572.074 2.706-.213 3.285-.1.203-.917.921-.968.938.26-.085-.604-.01-1.25-.125-.647-.115-1.188-.25-1.188-.25s-1.77-.21-2.022.368c-.333.767 1.016 2.596 1.016 2.596s.697.165 1.532.313c.834.148 1.686.41 2.937 0 1.492-.489 2.411-1.436 3.031-2.688.832-1.68 1.036-3.632.469-5.468-.403-1.305-1.102-2.423-2.594-3.094a4.7 4.7 0 00-1.968-.406z" fill-rule="evenodd"/><path d="M101.478 70.364s-2.321 4.861-2.838 7.095c-.324 1.403-.89 3.451-.354 4.789.56 1.399 2.23 3.568 3.725 3.37.877-.117 1.196-1.693 1.596-2.483.874-1.729 1.064-4.544 2.306-6.03 1.515-1.815 4.439-3.54 6.74-4.08 2.495-.586 5.952.798 8.513.709 1.4-.049 3.363-.077 4.612-.71 1.208-.612 3.193-3.192 3.193-3.192s-1.138-2.904-2.129-3.725c-1.257-1.041-3.524-1.567-5.143-1.774-2.013-.256-4.727.286-6.74.533-.964.118-3.193.532-3.193.532" fill="#214263" fill-rule="evenodd" stroke="#000" stroke-width="2.5"/><path d="M77.519 113.655s3.983.778 5.595.302c3.334-.983 7.348-3.982 9.376-6.805.444-.617.756-2.42.756-2.42M73.738 159.628s-1.12-7.164-.454-10.132c.596-2.654 2.429-5.982 4.235-8.015 3.66-4.12 15.122-10.435 15.122-10.435M93.246 141.33s-8.118 6.785-10.737 10.434c-1.29 1.797-3.176 6.654-3.176 6.654M94.002 159.174s-4.226 5.64-5.595 8.317c-1.673 3.272-3.393 7.917-4.234 11.494-.763 3.243-1.297 7.709-1.21 11.04.095 3.675 1.815 13.156 1.815 13.156M90.895 218.5s5.38-5.289 5.412-9.975c.024-3.414-4.188-7.982-4.81-11.34-.617-3.325.512-9.191 2.061-12.198.585-1.135 3.093-2.92 3.093-2.92M120.705 230.86s4.7-5.788 4.639-8.762c-.133-6.443-7.046-12.366-6.014-18.727.21-1.291 2.323-3.532 2.795-5.942.345-1.763-.31-4.887-.561-5.57-.73-1.989-5.842-3.608-5.842-3.608M113.776 255.67s-6.143-5.23-8.57-8.472c-2.229-2.975-3.67-6.274-3.808-7.983-.254-3.154-.229-5.612.39-8.716 1.247-6.25 7.578-13.057 8.512-19.362.275-1.857-1.14-4.525-.39-6.246.665-1.526 3.416-2.1 4.294-3.514.825-1.327 1.356-3.523 1.171-5.075-.123-1.04-1.561-3.123-1.561-3.123M105.225 175.221s-2.314 4.245-2.732 6.247c-.408 1.948-.9 4.86 0 6.636.984 1.943 4.87 2.351 5.855 4.294.953 1.88.943 5.142 0 7.027-.785 1.572-4.684 3.514-4.684 3.514s-2.143-7.605-1.952-10.93c.07-1.222 1.17-3.905 1.17-3.905M152.072 198.645s3.424 7.52 2.831 10.898c-.435 2.476-3.997 4.904-3.904 7.417.041 1.104 1.952 3.123 1.952 3.123s-2.791 1.215-3.904.78c-1.484-.579-2.57-2.8-3.123-4.294-1.019-2.754.274-5.922-1.274-8.419-.72-1.16-4.68-3.26-4.68-3.26s4.16 13.979 2.671 18.833c-.963 3.14-6.732 2.277-7.746 6.153-.6 2.29-.37 6.009 1.17 7.807 1.278 1.491 4.16 2.168 5.907 1.273 1.649-.843 3.124-3.343 3.124-3.343s1.2 4.763.17 6.466c-.837 1.382-3.752 4.023-3.752 4.023M159.646 224.134s-1.492 3.724-1.235 5.351c.562 3.556 6.174 10.29 6.174 10.29M171.17 217.549l-1.646-7.82-.823-12.76M173.64 179.681s-1.969 6.699-1.234 9.467c1.31 4.941 10.29 13.583 10.29 13.583M183.107 143.872s.245 6.14 1.647 8.232c1.982 2.96 11.113 5.762 11.113 5.762M175.287 154.985s9.455 9.982 11.936 15.23c2.434 5.145 4.116 18.521 4.116 18.521" fill="none" stroke="#000" stroke-width="2.5"/><path d="M135.149 110.472c-.456 16.569.156 22.781.156 22.781l1.065 3.377 1.248-3.595s-.58-6.003-.125-22.5l-2.344-.063z" fill-rule="evenodd"/></g></svg>