<?xml version="1.0" encoding="UTF-8" standalone="no"?>
<!-- Created with Inkscape (http://www.inkscape.org/) -->
<svg
   xmlns:dc="http://purl.org/dc/elements/1.1/"
   xmlns:cc="http://creativecommons.org/ns#"
   xmlns:rdf="http://www.w3.org/1999/02/22-rdf-syntax-ns#"
   xmlns:svg="http://www.w3.org/2000/svg"
   xmlns="http://www.w3.org/2000/svg"
   xmlns:sodipodi="http://sodipodi.sourceforge.net/DTD/sodipodi-0.dtd"
   xmlns:inkscape="http://www.inkscape.org/namespaces/inkscape"
   width="480"
   height="270"
   id="svg2"
   sodipodi:version="0.32"
   inkscape:version="0.46"
   sodipodi:docname="Lion_Dormant.svg"
   inkscape:output_extension="org.inkscape.output.svg.inkscape"
   version="1.0">
  <defs
     id="defs4">
    <linearGradient
       id="linearGradient3252">
      <stop
         style="stop-color:#ffff00;stop-opacity:1;"
         offset="0"
         id="stop3254" />
      <stop
         style="stop-color:#ff0000;stop-opacity:1;"
         offset="1"
         id="stop3256" />
    </linearGradient>
    <linearGradient
       id="linearGradient3242">
      <stop
         style="stop-color:#ff0000;stop-opacity:1;"
         offset="0"
         id="stop3244" />
      <stop
         style="stop-color:#00ff16;stop-opacity:1;"
         offset="1"
         id="stop3246" />
    </linearGradient>
    <inkscape:perspective
       sodipodi:type="inkscape:persp3d"
       inkscape:vp_x="0 : 526.18109 : 1"
       inkscape:vp_y="0 : 1000 : 0"
       inkscape:vp_z="744.09448 : 526.18109 : 1"
       inkscape:persp3d-origin="372.04724 : 350.78739 : 1"
       id="perspective10" />
    <inkscape:perspective
       id="perspective2498"
       inkscape:persp3d-origin="372.04724 : 350.78739 : 1"
       inkscape:vp_z="744.09448 : 526.18109 : 1"
       inkscape:vp_y="0 : 1000 : 0"
       inkscape:vp_x="0 : 526.18109 : 1"
       sodipodi:type="inkscape:persp3d" />
    <inkscape:perspective
       id="perspective2831"
       inkscape:persp3d-origin="372.04724 : 350.78739 : 1"
       inkscape:vp_z="744.09448 : 526.18109 : 1"
       inkscape:vp_y="0 : 1000 : 0"
       inkscape:vp_x="0 : 526.18109 : 1"
       sodipodi:type="inkscape:persp3d" />
    <inkscape:perspective
       id="perspective4998"
       inkscape:persp3d-origin="372.04724 : 350.78739 : 1"
       inkscape:vp_z="744.09448 : 526.18109 : 1"
       inkscape:vp_y="0 : 1000 : 0"
       inkscape:vp_x="0 : 526.18109 : 1"
       sodipodi:type="inkscape:persp3d" />
    <inkscape:perspective
       id="perspective2560"
       inkscape:persp3d-origin="372.04724 : 350.78739 : 1"
       inkscape:vp_z="744.09448 : 526.18109 : 1"
       inkscape:vp_y="0 : 1000 : 0"
       inkscape:vp_x="0 : 526.18109 : 1"
       sodipodi:type="inkscape:persp3d" />
    <inkscape:perspective
       id="perspective2694"
       inkscape:persp3d-origin="372.04724 : 350.78739 : 1"
       inkscape:vp_z="744.09448 : 526.18109 : 1"
       inkscape:vp_y="0 : 1000 : 0"
       inkscape:vp_x="0 : 526.18109 : 1"
       sodipodi:type="inkscape:persp3d" />
    <inkscape:perspective
       id="perspective2786"
       inkscape:persp3d-origin="372.04724 : 350.78739 : 1"
       inkscape:vp_z="744.09448 : 526.18109 : 1"
       inkscape:vp_y="0 : 1000 : 0"
       inkscape:vp_x="0 : 526.18109 : 1"
       sodipodi:type="inkscape:persp3d" />
    <inkscape:perspective
       id="perspective2632"
       inkscape:persp3d-origin="372.04724 : 350.78739 : 1"
       inkscape:vp_z="744.09448 : 526.18109 : 1"
       inkscape:vp_y="0 : 1000 : 0"
       inkscape:vp_x="0 : 526.18109 : 1"
       sodipodi:type="inkscape:persp3d" />
  </defs>
  <sodipodi:namedview
     id="base"
     pagecolor="#ffffff"
     bordercolor="#666666"
     borderopacity="1.0"
     gridtolerance="10000"
     guidetolerance="10"
     objecttolerance="10"
     inkscape:pageopacity="0.0"
     inkscape:pageshadow="2"
     inkscape:zoom="1.8444444"
     inkscape:cx="240"
     inkscape:cy="135"
     inkscape:document-units="px"
     inkscape:current-layer="layer3"
     showgrid="false"
     inkscape:window-width="1280"
     inkscape:window-height="713"
     inkscape:window-x="0"
     inkscape:window-y="0"
     showguides="true"
     inkscape:guide-bbox="true" />
  <metadata
     id="metadata7">
    <rdf:RDF>
      <cc:Work
         rdf:about="">
        <dc:format>image/svg+xml</dc:format>
        <dc:type
           rdf:resource="http://purl.org/dc/dcmitype/StillImage" />
      </cc:Work>
    </rdf:RDF>
  </metadata>
  <g
     inkscape:groupmode="layer"
     id="layer3"
     inkscape:label="Main"
     style="opacity:1">
    <g
       id="g3634">
      <g
         id="g3581">
        <path
           style="fill:#f8de00;fill-opacity:1;fill-rule:evenodd;stroke:#000000;stroke-width:3;stroke-linecap:butt;stroke-linejoin:miter;stroke-miterlimit:4;stroke-dasharray:none;stroke-opacity:1"
           d="M 214.66246,112.62296 C 214.66246,112.62296 241.34591,123.84762 253.45764,126.11694 C 260.42525,127.42243 269.98437,126.83378 277.0721,126.96031 C 296.29795,127.30352 321.93957,126.96031 341.16848,126.96031 C 351.03595,126.96031 364.53034,124.40072 374.06005,126.96031 C 384.78928,129.84208 397.47328,138.52464 406.10824,145.51453 C 414.32319,152.16442 422.31049,164.12482 429.7227,171.65911 C 433.36345,175.35982 437.70728,181.19069 442.3733,183.46634 C 446.74758,185.59971 451.7064,184.23235 455.73349,186.96515 C 462.30414,191.42402 470.34083,200.97969 471.89138,208.76754 C 472.59007,212.27679 471.67543,217.3129 470.20463,220.57477 C 467.52054,226.52743 459.66881,230.49837 454.15682,233.99931 C 451.72171,235.54597 447.73897,236.14652 444.87971,236.52943 C 442.62275,236.83168 439.92141,236.07525 437.7737,235.31857 C 433.07382,233.66271 430.54216,230.73837 426.28485,229.26592 C 424.37193,228.60431 421.23505,228.16296 419.53786,229.26592 C 417.44844,230.62378 417.19225,230.73639 417.0721,233.22537 C 416.99494,234.8237 419.62637,236.94099 418.75884,238.28561 C 414.96776,244.16157 404.23465,242.88092 393.5147,242.77269 C 381.6183,242.65259 369.84318,243.34586 369.84318,243.34586 C 369.84318,243.34586 362.5576,243.23753 359.9794,244.74973 C 358.78974,245.44751 357.39356,247.04162 357.19258,248.4061 C 356.87757,250.54476 359.7227,255.15308 359.7227,255.15308 C 359.7227,255.15308 355.54781,255.53813 353.81909,255.15308 C 351.33264,254.59926 347.98793,253.29258 346.13051,251.54927 C 343.87344,249.43088 343.61947,244.39314 341.16848,242.50248 C 338.69048,240.59098 331.048,239.97236 331.048,239.97236 C 331.048,239.97236 325.02796,249.14092 320.92752,250.93622 C 319.30513,251.64655 315.02391,250.93622 315.02391,250.93622 L 301.52993,240.81573 L 304.64262,236.6937 L 296.50017,239.09512 L 284.43553,231.34218 L 272.85523,230.69525 C 272.85523,230.69525 268.76951,225.08724 268.63836,222.26152 C 268.41182,217.3803 274.54198,207.0808 274.54198,207.0808 L 267.79499,218.04465 C 267.79499,218.04465 260.34754,213.41118 256.73355,212.66705 C 245.43326,210.3403 218.31708,214.45027 218.31708,214.45027 L 153.09619,177.56272 L 211.28897,109.24947 L 214.66246,112.62296 z"
           id="path3741"
           sodipodi:nodetypes="csssssssssssssssssscsscssscsccccccsccscccc" />
        <path
           style="fill:none;fill-rule:evenodd;stroke:#000000;stroke-width:3;stroke-linecap:butt;stroke-linejoin:miter;stroke-miterlimit:4;stroke-dasharray:none;stroke-opacity:1"
           d="M 274.37903,207.48064 C 274.37903,207.48064 275.745,206.17013 277.65128,205.23147 C 289.27409,199.50838 307.88185,205.05405 320.83607,205.23147 C 330.2962,205.36104 342.91689,205.52917 352.36096,206.09517 C 359.37424,206.51549 368.91298,206.36759 375.68075,208.25441 C 380.25752,209.53039 387.40922,211.13757 389.93173,215.16397 C 391.37614,217.46952 387.21942,224.01997 389.93173,224.23278 C 392.41612,224.42771 389.5447,217.86592 391.22727,216.02767 C 393.39122,213.66349 401.59162,213.43658 401.59162,213.43658"
           id="path3743"
           sodipodi:nodetypes="cssssssss" />
        <path
           sodipodi:nodetypes="cssssssscsssss"
           id="path3747"
           d="M 292.5945,228.85651 C 293.99247,229.3587 295.66042,230.60765 296.62071,231.76004 C 297.60243,232.93812 299.05443,234.84399 298.85693,236.41452 C 298.73099,237.41602 297.56866,238.47656 296.73058,239.01597 C 296.13193,239.40128 295.15923,239.58294 294.46331,239.59469 C 292.99429,239.61944 291.16386,238.2818 289.70835,238.53393 C 288.43471,238.75456 286.88676,239.86138 285.97833,240.82906 C 284.69362,242.19757 283.92658,242.75041 283.40352,244.56455 C 283.00308,245.95346 283.03614,250.64823 283.03614,250.64823 C 283.03614,250.64823 279.28264,246.75287 278.60691,244.7987 C 277.61953,241.94327 277.5262,238.82831 278.78643,236.01797 C 279.58243,234.2429 281.67163,232.44578 283.27778,231.40119 C 285.25966,230.11219 288.31051,229.05918 290.60751,228.72643 C 291.20263,228.64024 292.03452,228.65535 292.5945,228.85651 z"
           style="fill:#ffffff;fill-opacity:1;fill-rule:evenodd;stroke:#000000;stroke-width:2.50000024;stroke-linecap:butt;stroke-linejoin:miter;stroke-miterlimit:4;stroke-dasharray:none;stroke-opacity:1" />
        <path
           sodipodi:nodetypes="cssssssscsssss"
           id="path3749"
           d="M 308.14102,241.3801 C 309.53899,241.88229 311.20694,243.13124 312.16723,244.28363 C 313.14895,245.46171 314.60095,247.36758 314.40345,248.93811 C 314.27751,249.93961 313.11518,251.00015 312.2771,251.53956 C 311.67845,251.92487 310.70575,252.10653 310.00983,252.11828 C 308.54081,252.14303 306.71038,250.80539 305.25487,251.05752 C 303.98123,251.27815 302.43328,252.38497 301.52485,253.35265 C 300.24014,254.72116 299.4731,255.274 298.95004,257.08814 C 298.5496,258.47705 298.58266,263.17182 298.58266,263.17182 C 298.58266,263.17182 294.82916,259.27646 294.15343,257.32229 C 293.16605,254.46686 293.07272,251.3519 294.33295,248.54156 C 295.12895,246.76649 297.21815,244.96937 298.8243,243.92478 C 300.80618,242.63578 303.85703,241.58277 306.15403,241.25002 C 306.74915,241.16383 307.58104,241.17894 308.14102,241.3801 z"
           style="fill:#ffffff;fill-opacity:1;fill-rule:evenodd;stroke:#000000;stroke-width:2.50000024;stroke-linecap:butt;stroke-linejoin:miter;stroke-miterlimit:4;stroke-dasharray:none;stroke-opacity:1" />
        <path
           style="fill:none;fill-rule:evenodd;stroke:#000000;stroke-width:2.5;stroke-linecap:butt;stroke-linejoin:miter;stroke-miterlimit:4;stroke-dasharray:none;stroke-opacity:1"
           d="M 304.86203,236.44852 C 304.86203,236.44852 314.0796,228.89006 319.10868,227.25571 C 323.31414,225.88902 329.37383,226.15469 333.79151,225.96017"
           id="path3753"
           sodipodi:nodetypes="css" />
        <path
           style="fill:none;fill-rule:evenodd;stroke:#000000;stroke-width:2.5;stroke-linecap:butt;stroke-linejoin:miter;stroke-miterlimit:4;stroke-dasharray:none;stroke-opacity:1"
           d="M 286.85277,229.66296 C 286.85277,229.66296 287.16901,227.10233 288.83555,225.19249 C 290.85973,222.87279 294.4634,221.04168 296.65258,219.9143 C 301.42521,217.45651 306.48455,216.21896 311.82276,215.65131"
           id="path3755"
           sodipodi:nodetypes="csss" />
        <path
           style="fill:#000000;fill-rule:evenodd;stroke:#000000;stroke-width:5;stroke-linecap:butt;stroke-linejoin:miter;stroke-miterlimit:4;stroke-dasharray:none;stroke-opacity:1"
           d="M 433.30788,201.00783 C 433.30788,201.00783 437.74827,202.64148 439.37034,203.85251 C 440.87427,204.97533 441.97216,207.45531 442.54773,209.24173 C 443.09671,210.94559 444.07596,212.25561 443.57232,213.97343 C 443.05243,215.74667 441.26807,218.4965 439.90415,219.74325 C 437.91321,221.56315 436.48469,222.83889 434.26981,224.37842 C 433.35363,225.01524 431.68988,226.02963 430.15777,226.94085 C 428.3517,228.01502 426.72856,228.94584 426.72856,228.94584 C 426.72856,228.94584 433.33698,221.70025 434.92858,217.75506 C 435.90063,215.34557 435.72586,211.69676 435.46882,209.11133 C 435.21991,206.60767 433.30788,201.00783 433.30788,201.00783 z"
           id="path3759"
           sodipodi:nodetypes="csssssscssc" />
        <path
           style="fill:none;fill-rule:evenodd;stroke:#000000;stroke-width:3;stroke-linecap:butt;stroke-linejoin:miter;stroke-miterlimit:4;stroke-dasharray:none;stroke-opacity:1"
           d="M 348.04778,147.43064 C 348.04778,147.43064 348.79094,154.1263 347.25507,156.29174 C 344.82667,159.71561 337.72624,159.18519 334.57187,161.93063 C 332.21689,163.98031 329.06495,166.93576 327.93419,169.86971 C 325.99495,174.90139 325.18245,183.15314 325.85216,188.51394 C 326.28098,191.94652 328.18371,196.55688 330.60836,198.98615 C 333.94408,202.32822 343.60674,205.615 343.60674,205.615"
           id="path3757"
           sodipodi:nodetypes="cssssss" />
        <path
           style="fill:#f8de00;fill-opacity:1;fill-rule:evenodd;stroke:#000000;stroke-width:3;stroke-linecap:butt;stroke-linejoin:miter;stroke-miterlimit:4;stroke-dasharray:none;stroke-opacity:1"
           d="M 330.12334,198.33641 C 330.12334,198.33641 317.63287,192.65692 313.37611,188.58349 C 309.56875,184.9401 305.18005,178.86232 303.65191,173.66728 C 302.73375,170.54593 302.36519,165.73788 303.65191,162.76696 C 304.90064,159.88375 308.33263,156.71979 311.21518,155.88255 C 313.91382,155.09873 314.42627,155.7966 316.83258,157.31231 C 318.61769,158.43673 318.95965,167.41951 318.95965,167.41951 C 318.95965,167.41951 325.6187,154.28568 322.31112,150.77319 C 321.25755,149.65435 319.66094,147.10227 317.61483,145.90913 C 315.07271,144.42675 311.98589,144.40853 310.13471,144.40853 C 306.12532,144.40853 297.16911,147.85074 297.16911,147.85074 C 297.16911,147.85074 300.874,135.35382 303.65191,130.63972 C 306.2081,126.30185 310.04982,120.08848 314.45658,118.01829 C 321.27448,114.81542 332.22473,120.49003 339.3073,118.01829 C 342.9411,116.75013 346.42887,112.30166 349.57174,109.98649 C 353.2284,107.29284 357.70096,102.61407 361.9971,101.38097 C 365.13013,100.48172 370.08449,100.07008 372.80176,101.95467 C 374.31887,103.00688 375.75426,105.78603 375.50293,107.69169 C 375.13699,110.46636 369.56036,114.5761 369.56036,114.5761 C 369.56036,114.5761 381.38017,114.35686 384.14666,110.56018 C 386.52706,107.29337 385.81234,100.52411 384.14666,96.791371 C 383.16026,94.580871 380.33731,92.550971 378.2041,91.628071 C 373.08114,89.411681 365.36776,89.857411 359.83617,89.906961 C 356.73994,89.934701 349.57174,91.054361 349.57174,91.054361 C 349.57174,91.054361 356.05246,83.667081 356.02633,79.225532 C 356.00749,76.024162 354.39015,72.788242 351.73267,71.276662 C 348.58635,69.487032 342.93924,71.797372 342.93924,71.797372 C 342.93924,71.797372 347.2839,74.840112 347.80134,76.960672 C 348.0973,78.173592 347.56018,80.095942 346.72087,80.976592 C 345.40637,82.355801 342.59747,82.353141 340.7783,82.697691 C 337.09475,83.395351 325.26124,81.875151 325.26124,81.875151 C 325.26124,81.875151 337.54001,68.407712 342.31438,61.712672 C 344.98502,57.967672 347.87912,52.186632 350.16186,48.162732 C 351.66959,45.505012 353.97428,41.367212 356.59477,39.995002 C 358.77999,38.850712 362.57583,39.298102 364.69827,40.568692 C 366.42162,41.600372 368.4799,46.305702 368.4799,46.305702 C 368.4799,46.305702 370.55068,37.061472 369.07003,33.956165 C 367.49807,30.659351 363.8327,28.011176 360.45451,27.124745 C 357.77976,26.422892 353.24283,28.098638 350.6522,29.094684 C 349.462,29.552289 347.4108,31.963181 347.4108,31.963181 C 347.4108,31.963181 349.58053,24.140848 348.49127,21.062868 C 347.47024,18.177695 345.72644,14.563889 343.13666,12.036652 C 340.40511,9.371075 336.77879,7.840428 333.90497,6.720348 C 330.4023,5.355174 325.06757,6.206975 321.47961,7.29405 C 318.61857,8.160884 315.15255,10.47492 312.83588,12.457357 C 309.79665,15.058107 308.13373,18.853887 306.89331,22.783971 C 305.60156,26.876695 305.5713,33.644673 307.97378,37.126492 C 311.28245,41.921622 317.46421,45.397342 322.76618,43.490182 C 325.79373,42.401142 327.96241,34.831689 327.96241,34.831689 C 327.96241,34.831689 322.41409,37.775032 320.39914,36.552792 C 319.06406,35.742952 318.69341,33.019769 318.77844,31.389484 C 318.90676,28.929009 320.06521,25.259483 322.01984,23.931372 C 323.93108,22.632739 327.56561,22.828808 329.58311,23.931372 C 332.06243,25.286318 334.40029,29.068018 334.98544,31.963181 C 335.67914,35.395394 334.08951,40.194042 332.82451,43.437202 C 331.03554,48.023722 327.31124,53.519042 324.18078,57.206022 C 320.0954,62.017672 313.02598,66.614102 308.51401,70.974832 C 304.44576,74.906712 298.96628,80.166492 295.54841,84.743651 C 292.11131,89.346571 288.37962,96.170871 285.82421,101.38097 C 282.97331,107.19355 279.1666,115.08915 277.72072,121.4605 C 276.04613,128.83967 274.98155,138.02491 275.27557,145.60893 C 275.49809,151.34852 276.89128,160.26097 278.80118,165.63546 C 280.70593,170.99546 285.08928,179.73396 287.98515,184.56759 C 290.76091,189.20074 294.04128,194.22908 297.70935,197.18901 C 300.52735,199.46298 304.2529,203.46044 306.16664,204.02359"
           id="path3762"
           sodipodi:nodetypes="cssssscssscssssssscsssscsscssscsssscssscsssssssscssssssssssssssss" />
        <path
           style="fill:none;fill-rule:evenodd;stroke:#000000;stroke-width:3;stroke-linecap:butt;stroke-linejoin:miter;stroke-miterlimit:4;stroke-dasharray:none;stroke-opacity:1"
           d="M 326.66856,82.128731 C 326.66856,82.128731 320.79073,82.724951 318.59215,83.934351 C 316.42884,85.124341 314.43516,88.052191 312.64112,89.802651 C 311.24513,91.164721 309.61141,96.666561 309.61141,93.151341"
           id="path3765"
           sodipodi:nodetypes="csss" />
        <path
           style="fill:none;fill-rule:evenodd;stroke:#000000;stroke-width:3;stroke-linecap:butt;stroke-linejoin:miter;stroke-miterlimit:4;stroke-dasharray:none;stroke-opacity:1"
           d="M 350.47269,91.608281 C 350.47269,91.608281 343.73763,96.236081 340.69599,97.927991 C 338.47087,99.165711 335.51409,101.05085 333.04466,101.53925 C 330.5342,102.03576 327.05775,100.61531 324.54319,101.08783 C 320.99816,101.754 314.86302,109.54946 314.86302,109.54946"
           id="path3767"
           sodipodi:nodetypes="cssss" />
        <path
           style="fill:none;fill-rule:evenodd;stroke:#000000;stroke-width:3;stroke-linecap:butt;stroke-linejoin:miter;stroke-miterlimit:4;stroke-dasharray:none;stroke-opacity:1"
           d="M 297.82111,147.69967 C 297.82111,147.69967 290.84564,152.59487 290.72193,160.56356 C 290.58241,169.55032 294.27489,177.07171 294.27489,177.07171"
           id="path3785"
           sodipodi:nodetypes="css" />
        <path
           style="fill:none;fill-rule:evenodd;stroke:#000000;stroke-width:2.5;stroke-linecap:butt;stroke-linejoin:miter;stroke-miterlimit:4;stroke-dasharray:none;stroke-opacity:1"
           d="M 302.62545,203.56819 L 315.48472,204.75065"
           id="path3961" />
      </g>
      <g
         id="g3596">
        <g
           id="g3692"
           transform="translate(-518.55039,-79.364986)">
          <g
             id="g3682">
            <path
               style="fill:#f8de00;fill-opacity:1;fill-rule:evenodd;stroke:#000000;stroke-width:3;stroke-linecap:butt;stroke-linejoin:miter;stroke-miterlimit:4;stroke-dasharray:none;stroke-opacity:1"
               d="M 736.15329,212.33367 C 741.82468,228.6805 734.85266,269.99468 734.85266,269.99468 C 734.85266,269.99468 736.72216,274.15388 737.02037,276.06426 C 737.6225,279.92158 738.87953,285.91059 736.58683,289.0705 C 734.7988,291.53485 730.04743,292.01057 727.04892,292.53883 C 719.23544,293.91537 706.43549,295.79113 698.86872,293.40591 C 694.32622,291.97401 686.29603,286.46925 686.29603,286.46925 C 686.29603,286.46925 685.21231,290.10437 685.42895,291.67175 C 685.76352,294.09239 686.12115,294.05926 687.59665,296.00716 C 689.15549,298.06508 693.66623,299.90903 693.66623,299.90903 C 693.66623,299.90903 683.47634,302.18871 678.05874,300.77612 C 672.99319,299.45532 666.49074,296.30206 662.45125,292.97237 C 660.80519,291.61555 652.04626,287.76987 652.04626,287.76987 L 641.64126,286.90279 C 641.64126,286.90279 641.41647,291.56481 642.07481,293.40591 C 643.20495,296.56645 652.04626,300.34257 652.04626,300.34257 C 652.04626,300.34257 639.66471,302.01706 635.13815,300.34258 C 632.54091,299.3818 628.39197,299.08496 625.06409,297.0428 C 621.40203,294.79557 618.55133,290.80065 615.62878,289.93758 C 613.3697,289.27044 607.82504,289.0705 607.82504,289.0705 C 607.82504,289.0705 601.03091,291.67566 600.88837,294.273 C 600.73206,297.12121 607.82504,300.77612 607.82504,300.77612 C 607.82504,300.77612 599.18108,301.79882 595.68588,300.77612 C 591.98076,299.69199 587.27516,296.84094 584.84734,293.83945 C 583.44962,292.11147 582.24609,288.20341 582.24609,288.20341 C 582.24609,288.20341 578.02009,296.36953 574.44235,298.60841 C 572.93557,299.55132 565.45396,291.7613 570.9807,277.82157 C 574.43318,269.1136 604.88509,251.76205 610.87838,252.08273 C 613.58178,252.22738 616.23391,243.76572 623.4979,252.9264 C 639.22197,272.75615 669.40598,225.85916 669.40598,225.85916 C 669.40598,225.85916 684.75499,222.48322 689.76436,213.20075 C 692.59361,207.95808 700.10641,203.23062 705.80539,201.49514 C 712.15575,199.5613 721.96708,199.41652 727.916,202.36222 C 731.3932,204.08401 734.88148,208.66789 736.15329,212.33367 z"
               id="path3673"
               sodipodi:nodetypes="ccsssscsscssccscssscscsscsssscssss" />
          </g>
          <path
             sodipodi:nodetypes="cssc"
             id="path3690"
             d="M 549.9354,285.62926 C 549.9354,285.62926 557.13425,279.49238 560.65031,277.52069 C 562.92991,276.24236 566.19788,274.85661 568.75889,274.33517 C 574.97578,273.06936 578.34083,273.6459 578.34083,273.6459"
             style="fill:none;fill-rule:evenodd;stroke:#000000;stroke-width:2.5;stroke-linecap:butt;stroke-linejoin:miter;stroke-miterlimit:4;stroke-dasharray:none;stroke-opacity:1" />
        </g>
        <g
           id="g3701"
           transform="translate(-500.83955,-55.750528)">
          <g
             id="g3703">
            <path
               style="fill:#f8de00;fill-opacity:1;fill-rule:evenodd;stroke:#000000;stroke-width:3;stroke-linecap:butt;stroke-linejoin:miter;stroke-miterlimit:4;stroke-dasharray:none;stroke-opacity:1"
               d="M 736.15329,212.33367 C 741.82468,228.6805 734.85266,269.99468 734.85266,269.99468 C 734.85266,269.99468 736.72216,274.15388 737.02037,276.06426 C 737.6225,279.92158 738.87953,285.91059 736.58683,289.0705 C 734.7988,291.53485 730.04743,292.01057 727.04892,292.53883 C 719.23544,293.91537 706.43549,295.79113 698.86872,293.40591 C 694.32622,291.97401 686.29603,286.46925 686.29603,286.46925 C 686.29603,286.46925 685.21231,290.10437 685.42895,291.67175 C 685.76352,294.09239 686.12115,294.05926 687.59665,296.00716 C 689.15549,298.06508 693.66623,299.90903 693.66623,299.90903 C 693.66623,299.90903 683.47634,302.18871 678.05874,300.77612 C 672.99319,299.45532 666.49074,296.30206 662.45125,292.97237 C 660.80519,291.61555 652.04626,287.76987 652.04626,287.76987 L 641.64126,286.90279 C 641.64126,286.90279 641.41647,291.56481 642.07481,293.40591 C 643.20495,296.56645 652.04626,300.34257 652.04626,300.34257 C 652.04626,300.34257 639.66471,302.01706 635.13815,300.34258 C 632.54091,299.3818 628.39197,299.08496 625.06409,297.0428 C 621.40203,294.79557 618.55133,290.80065 615.62878,289.93758 C 613.3697,289.27044 607.82504,289.0705 607.82504,289.0705 C 607.82504,289.0705 601.03091,291.67566 600.88837,294.273 C 600.73206,297.12121 607.82504,300.77612 607.82504,300.77612 C 607.82504,300.77612 599.18108,301.79882 595.68588,300.77612 C 591.98076,299.69199 587.27516,296.84094 584.84734,293.83945 C 583.44962,292.11147 582.24609,288.20341 582.24609,288.20341 C 582.24609,288.20341 578.02009,296.36953 574.44235,298.60841 C 571.99431,300.14034 564.90444,299.90903 564.90444,299.90903 C 564.90444,299.90903 552.56585,297.09713 549.73049,292.97237 C 548.54936,291.25411 549.29695,286.03571 549.29695,286.03571 C 549.29695,286.03571 542.56904,290.07253 539.56864,289.19208 C 536.29279,288.2308 531.95529,280.39967 531.95529,280.39967 L 532.94395,271.34807 C 532.94395,271.34807 527.13444,275.28594 524.62181,274.36682 C 522.14977,273.46255 520.01813,268.51954 520.68321,266.52635 C 523.1402,259.163 535.33673,255.24232 542.79383,253.08656 C 557.78945,248.75151 579.34251,250.18329 594.81879,252.21948 C 597.63513,252.59002 601.09691,254.53554 603.92316,254.82073 C 629.10271,257.36153 688.03019,248.31761 688.03019,248.31761 C 688.03019,248.31761 684.75499,222.48322 689.76436,213.20075 C 692.59361,207.95808 700.10641,203.23062 705.80539,201.49514 C 712.15575,199.5613 721.96708,199.41652 727.916,202.36222 C 731.3932,204.08401 734.88148,208.66789 736.15329,212.33367 z"
               id="path3705"
               sodipodi:nodetypes="ccsssscsscssccscssscscsscscscsccssssscssss" />
            <path
               sodipodi:nodetypes="cssssssscsssss"
               id="path3707"
               d="M 522.04312,263.51755 C 523.50152,263.79961 525.34113,264.77826 526.46665,265.76991 C 527.61729,266.78367 529.34415,268.44457 529.38961,270.02681 C 529.4186,271.03578 528.43248,272.26188 527.68695,272.92334 C 527.15441,273.39582 526.22102,273.72437 525.53512,273.8426 C 524.08724,274.09214 522.07347,273.05074 520.67377,273.5229 C 519.44899,273.93607 518.08889,275.26699 517.33945,276.36243 C 516.27959,277.91162 515.60631,278.57546 515.36738,280.44831 C 515.18447,281.88218 515.93645,286.51646 515.93645,286.51646 C 515.93645,286.51646 511.63044,283.24218 510.66327,281.41461 C 509.25006,278.74418 508.68057,275.68031 509.49533,272.71006 C 510.00996,270.83399 511.79915,268.73799 513.22628,267.45964 C 514.98727,265.88221 517.84076,264.37419 520.05966,263.69344 C 520.63455,263.51708 521.45893,263.40455 522.04312,263.51755 z"
               style="opacity:1;fill:#ffffff;fill-opacity:1;fill-rule:evenodd;stroke:#000000;stroke-width:2.50000024;stroke-linecap:butt;stroke-linejoin:miter;stroke-miterlimit:4;stroke-dasharray:none;stroke-opacity:1" />
            <path
               sodipodi:nodetypes="cssssssscsssss"
               id="path3709"
               d="M 536.65351,276.95699 C 538.11191,277.23905 539.95152,278.2177 541.07704,279.20935 C 542.22768,280.22311 543.95454,281.88401 544,283.46625 C 544.02899,284.47522 543.04287,285.70132 542.29734,286.36278 C 541.7648,286.83526 540.83141,287.16381 540.14551,287.28204 C 538.69763,287.53158 536.68386,286.49018 535.28416,286.96234 C 534.05938,287.37551 532.69928,288.70643 531.94984,289.80187 C 530.88998,291.35106 530.2167,292.0149 529.97777,293.88775 C 529.79486,295.32162 530.54684,299.9559 530.54684,299.9559 C 530.54684,299.9559 526.24083,296.68162 525.27366,294.85405 C 523.86045,292.18362 523.29096,289.11975 524.10572,286.1495 C 524.62035,284.27343 526.40954,282.17743 527.83667,280.89908 C 529.59766,279.32165 532.45115,277.81363 534.67005,277.13288 C 535.24494,276.95652 536.06932,276.84399 536.65351,276.95699 z"
               style="opacity:1;fill:#ffffff;fill-opacity:1;fill-rule:evenodd;stroke:#000000;stroke-width:2.50000024;stroke-linecap:butt;stroke-linejoin:miter;stroke-miterlimit:4;stroke-dasharray:none;stroke-opacity:1" />
            <path
               sodipodi:nodetypes="cssssssscsssss"
               id="path3711"
               d="M 558.01357,291.01707 C 559.4834,290.80235 561.54285,291.11952 562.93245,291.68448 C 564.35305,292.26202 566.53107,293.26045 567.09583,294.73917 C 567.45597,295.68212 566.92941,297.16485 566.44375,298.03518 C 566.09683,298.65686 565.32403,299.27487 564.7155,299.61271 C 563.43093,300.32581 561.18638,300.00684 560.02072,300.91422 C 559.00073,301.70822 558.15569,303.41324 557.80947,304.69456 C 557.31985,306.50663 556.90318,307.35538 557.29531,309.20224 C 557.59554,310.6162 559.83388,314.74317 559.83388,314.74317 C 559.83388,314.74317 554.68891,313.07227 553.17311,311.66594 C 550.95823,309.61102 549.41011,306.9064 549.19966,303.83363 C 549.06675,301.8928 550.06454,299.32399 550.99021,297.64648 C 552.13241,295.57652 554.32888,293.21177 556.1991,291.83729 C 556.68366,291.48119 557.4248,291.10307 558.01357,291.01707 z"
               style="opacity:1;fill:#ffffff;fill-opacity:1;fill-rule:evenodd;stroke:#000000;stroke-width:2.50000024;stroke-linecap:butt;stroke-linejoin:miter;stroke-miterlimit:4;stroke-dasharray:none;stroke-opacity:1" />
          </g>
          <path
             sodipodi:nodetypes="css"
             id="path3713"
             d="M 532.84947,271.14966 C 532.84947,271.14966 542.71083,264.72763 546.74989,263.33067 C 550.01868,262.20011 554.61391,261.45857 558.04399,261.01393"
             style="fill:none;fill-rule:evenodd;stroke:#000000;stroke-width:2.5;stroke-linecap:butt;stroke-linejoin:miter;stroke-miterlimit:4;stroke-dasharray:none;stroke-opacity:1" />
          <path
             sodipodi:nodetypes="cssc"
             id="path3715"
             d="M 549.9354,285.62926 C 549.9354,285.62926 557.13425,279.49238 560.65031,277.52069 C 562.92991,276.24236 566.19788,274.85661 568.75889,274.33517 C 574.97578,273.06936 578.34083,273.6459 578.34083,273.6459"
             style="fill:none;fill-rule:evenodd;stroke:#000000;stroke-width:2.5;stroke-linecap:butt;stroke-linejoin:miter;stroke-miterlimit:4;stroke-dasharray:none;stroke-opacity:1" />
        </g>
        <g
           id="g3525"
           transform="translate(-5.0515464,-19.574742)">
          <path
             sodipodi:nodetypes="cssssssccsccs"
             id="path3509"
             d="M 105.51838,188.82703 C 94.526227,192.23111 75.052131,195.74559 67.230458,204.18577 C 63.44346,208.27222 57.936545,215.51125 59.209011,220.93538 C 59.852197,223.67708 64.131878,225.36952 66.605621,226.7153 C 70.403818,228.78161 73.587548,228.14944 76.385111,231.44635 C 79.081499,234.62404 79.575918,242.22409 82.571689,245.12127 C 85.284888,247.74516 91.472595,248.0724 95.036582,246.82969 C 101.04676,244.73403 109.70829,231.50335 109.70829,231.50335 L 122.06655,232.5894 C 122.06655,232.5894 133.85522,223.89426 134.97775,218.20531 C 135.83385,213.86661 130.03592,204.31715 130.03592,204.31715 L 167.46397,172.53245 C 167.46397,172.53245 121.32785,183.93112 105.51838,188.82703 z"
             style="fill:#f8de00;fill-opacity:1;fill-rule:evenodd;stroke:#000000;stroke-width:3;stroke-linecap:butt;stroke-linejoin:miter;stroke-miterlimit:4;stroke-dasharray:none;stroke-opacity:1" />
          <path
             style="opacity:1;fill:#ffffff;fill-opacity:1;fill-rule:evenodd;stroke:#000000;stroke-width:2.50000024;stroke-linecap:butt;stroke-linejoin:miter;stroke-miterlimit:4;stroke-dasharray:none;stroke-opacity:1"
             d="M 60.304065,220.42485 C 61.51348,219.56241 63.490374,218.90377 64.98459,218.77155 C 66.512139,218.63635 68.905721,218.52957 70.083604,219.58699 C 70.834722,220.2613 71.043643,221.82082 71.009199,222.81689 C 70.984589,223.52839 70.579446,224.43117 70.192448,225.00968 C 69.375502,226.23084 67.233118,226.97244 66.610694,228.3121 C 66.066065,229.48435 66.093222,231.38711 66.370563,232.68508 C 66.762792,234.52068 66.779862,235.46604 67.972352,236.92981 C 68.885345,238.05047 72.761742,240.69916 72.761742,240.69916 C 72.761742,240.69916 67.421679,241.56308 65.430844,241.0045 C 62.521861,240.18831 59.909205,238.48959 58.318314,235.8523 C 57.313482,234.18653 57.027614,231.4456 57.084743,229.5305 C 57.155219,227.16736 58.028863,224.06039 59.064667,221.98336 C 59.333041,221.44524 59.8196,220.77031 60.304065,220.42485 z"
             id="path3515"
             sodipodi:nodetypes="cssssssscsssss" />
          <path
             style="opacity:1;fill:#ffffff;fill-opacity:1;fill-rule:evenodd;stroke:#000000;stroke-width:2.50000024;stroke-linecap:butt;stroke-linejoin:miter;stroke-miterlimit:4;stroke-dasharray:none;stroke-opacity:1"
             d="M 85.680682,237.1471 C 86.890092,236.28466 88.866992,235.62602 90.361202,235.4938 C 91.888752,235.3586 94.282332,235.25182 95.460222,236.30924 C 96.211342,236.98355 96.420262,238.54307 96.385812,239.53914 C 96.361202,240.25064 95.956062,241.15342 95.569062,241.73193 C 94.752122,242.95309 92.609732,243.69469 91.987312,245.03435 C 91.442682,246.2066 91.469842,248.10936 91.747182,249.40733 C 92.139412,251.24293 92.156482,252.18829 93.348972,253.65206 C 94.261962,254.77272 98.138362,257.42141 98.138362,257.42141 C 98.138362,257.42141 92.798292,258.28533 90.807462,257.72675 C 87.898472,256.91056 85.285822,255.21184 83.694932,252.57455 C 82.690102,250.90878 82.404232,248.16785 82.461362,246.25275 C 82.531832,243.88961 83.405482,240.78264 84.441282,238.70561 C 84.709652,238.16749 85.196212,237.49256 85.680682,237.1471 z"
             id="path3517"
             sodipodi:nodetypes="cssssssscsssss" />
          <path
             style="opacity:1;fill:#ffffff;fill-opacity:1;fill-rule:evenodd;stroke:#000000;stroke-width:2.50000024;stroke-linecap:butt;stroke-linejoin:miter;stroke-miterlimit:4;stroke-dasharray:none;stroke-opacity:1"
             d="M 115.98996,225.14968 C 117.19937,224.28724 119.17627,223.6286 120.67048,223.49638 C 122.19803,223.36118 124.59161,223.2544 125.7695,224.31182 C 126.52062,224.98613 126.72954,226.54565 126.69509,227.54172 C 126.67048,228.25322 126.26534,229.156 125.87834,229.73451 C 125.0614,230.95567 122.91901,231.69727 122.29659,233.03693 C 121.75196,234.20918 121.77912,236.11194 122.05646,237.40991 C 122.44869,239.24551 122.46576,240.19087 123.65825,241.65464 C 124.57124,242.7753 128.44764,245.42399 128.44764,245.42399 C 128.44764,245.42399 123.10757,246.28791 121.11674,245.72933 C 118.20775,244.91314 115.5951,243.21442 114.00421,240.57713 C 112.99938,238.91136 112.71351,236.17043 112.77064,234.25533 C 112.84111,231.89219 113.71476,228.78522 114.75056,226.70819 C 115.01893,226.17007 115.50549,225.49514 115.98996,225.14968 z"
             id="path3519"
             sodipodi:nodetypes="cssssssscsssss" />
          <path
             sodipodi:nodetypes="css"
             id="path3521"
             d="M 76.957469,232.34086 C 76.957469,232.34086 78.971076,222.50565 80.824742,219.27835 C 82.959619,215.56145 84.902497,212.41109 84.902497,212.41109"
             style="fill:none;fill-rule:evenodd;stroke:#000000;stroke-width:2.5;stroke-linecap:butt;stroke-linejoin:miter;stroke-miterlimit:4;stroke-dasharray:none;stroke-opacity:1" />
          <path
             sodipodi:nodetypes="css"
             id="path3523"
             d="M 110.12726,231.07798 C 110.12726,231.07798 109.93719,222.10379 109.2194,218.17269 C 108.83144,216.04795 106.97511,213.04253 106.97511,213.04253"
             style="fill:none;fill-rule:evenodd;stroke:#000000;stroke-width:2.5;stroke-linecap:butt;stroke-linejoin:miter;stroke-miterlimit:4;stroke-dasharray:none;stroke-opacity:1" />
        </g>
        <g
           style="opacity:1"
           id="g3492"
           transform="translate(-8.2087629,-24.626288)">
          <path
             style="fill:#ffffff;fill-opacity:1;fill-rule:evenodd;stroke:#000000;stroke-width:2.50000024;stroke-linecap:butt;stroke-linejoin:miter;stroke-miterlimit:4;stroke-dasharray:none;stroke-opacity:1"
             d="M 288.62516,236.85159 C 290.02313,237.35378 291.69108,238.60273 292.65137,239.75512 C 293.63309,240.9332 295.08509,242.83907 294.88759,244.4096 C 294.76165,245.4111 293.59932,246.47164 292.76124,247.01105 C 292.16259,247.39636 291.18989,247.57802 290.49397,247.58977 C 289.02495,247.61452 287.19452,246.27688 285.73901,246.52901 C 284.46537,246.74964 282.91742,247.85646 282.00899,248.82414 C 280.72428,250.19265 279.95724,250.74549 279.43418,252.55963 C 279.03374,253.94854 279.0668,258.64331 279.0668,258.64331 C 279.0668,258.64331 275.3133,254.74795 274.63757,252.79378 C 273.65019,249.93835 273.55686,246.82339 274.81709,244.01305 C 275.61309,242.23798 277.70229,240.44086 279.30844,239.39627 C 281.29032,238.10727 284.34117,237.05426 286.63817,236.72151 C 287.23329,236.63532 288.06518,236.65043 288.62516,236.85159 z"
             id="path3745"
             sodipodi:nodetypes="cssssssscsssss" />
          <g
             transform="translate(-686.1436,4.7265308)"
             id="g3473">
            <path
               style="fill:#f8de00;fill-opacity:1;fill-rule:evenodd;stroke:#000000;stroke-width:3;stroke-linecap:butt;stroke-linejoin:miter;stroke-miterlimit:4;stroke-dasharray:none;stroke-opacity:1"
               d="M 887.44129,97.774078 C 887.44129,97.774078 897.51733,97.596631 901.16598,95.578128 C 902.69792,94.730629 904.9878,92.936846 905.00889,91.186229 C 905.02438,89.900003 903.49324,88.271059 902.26395,87.892304 C 901.1181,87.539258 898.42104,88.990279 898.42104,88.990279 C 898.42104,88.990279 901.17795,83.793702 903.36193,82.951416 C 906.4696,81.752895 911.85239,82.385346 914.34168,84.598379 C 915.74509,85.846044 917.16041,90.492436 917.14394,92.370189 C 917.10783,96.487437 912.14573,103.81294 912.14573,103.81294 C 912.14573,103.81294 923.64532,106.2234 926.96839,103.26395 C 928.5861,101.82326 929.39322,97.839439 928.06636,96.127116 C 927.05254,94.818769 922.57649,95.578128 922.57649,95.578128 C 922.57649,95.578128 927.36706,92.048387 929.71333,92.284204 C 932.7615,92.590567 936.38152,95.690406 937.94814,98.323066 C 939.81817,101.4656 941.28039,107.15543 939.5951,110.40079 C 937.11694,115.17298 923.67446,118.6356 923.67446,118.6356 C 923.67446,118.6356 932.03019,119.77673 935.2032,121.38054 C 937.7063,122.64574 939.56196,127.0341 942.34004,127.4194 C 944.3112,127.69279 947.65994,126.53008 948.3789,124.67446 C 949.28519,122.33532 945.08498,116.98864 945.08498,116.98864 C 945.08498,116.98864 952.73512,119.69997 954.41776,122.47851 C 956.12616,125.29958 956.23729,130.41478 954.96675,133.45826 C 953.34914,137.33312 948.3841,141.11081 944.53599,142.79105 C 939.68488,144.90924 926.96839,144.43801 926.96839,144.43801 C 926.96839,144.43801 934.57635,146.9674 936.85016,149.3789 C 939.43161,152.11666 939.36069,158.03492 941.79105,160.90764 C 943.56147,163.0003 949.47688,165.84852 949.47688,165.84852 C 949.47688,165.84852 939.84367,166.88737 935.75219,166.39751 C 933.37118,166.11244 928.06636,164.20156 928.06636,164.20156 C 928.06636,164.20156 933.11117,169.92428 935.2032,172.43637 C 937.22778,174.86746 939.2862,178.73862 941.79105,180.67119 C 944.35957,182.65289 948.48095,184.48314 951.67283,185.06309 C 954.43232,185.56448 961.00561,184.5141 961.00561,184.5141 C 961.00561,184.5141 951.40967,190.63145 946.73194,191.65094 C 942.06252,192.66862 930.8113,191.10195 930.8113,191.10195 C 930.8113,191.10195 937.01991,201.68337 940.69308,205.37562 C 942.11094,206.80085 944.24865,208.67072 946.18295,209.21854 C 948.88149,209.9828 955.51574,208.66955 955.51574,208.66955 C 955.51574,208.66955 951.59704,214.63775 948.92789,215.80639 C 944.40181,217.78805 936.89092,217.98904 932.45826,215.80639 C 930.0349,214.61312 926.96839,208.66955 926.96839,208.66955 C 926.96839,208.66955 931.59082,217.29228 931.36029,221.29626 C 931.05544,226.59112 923.67446,237.2169 923.67446,237.2169 C 923.67446,237.2169 921.67276,227.72505 918.73358,225.13917 C 916.81398,223.45031 910.49876,222.94322 910.49876,222.94322 C 910.49876,222.94322 910.37972,230.1018 911.59674,232.825 C 913.30997,236.65853 920.92953,243.25576 920.92953,243.25576 C 920.92953,243.25576 909.54053,243.70203 905.00889,242.15778 C 897.13976,239.4762 881.95142,226.78613 881.95142,226.78613 C 881.95142,226.78613 872.558,231.01327 871.52065,234.47196 C 870.4833,237.93065 873.55152,242.95207 875.36357,244.90272 C 877.17562,246.85337 881.40243,247.64766 881.40243,247.64766 C 881.40243,247.64766 870.00794,249.7496 866.03078,247.64766 C 862.05362,245.54572 858.78954,239.8977 857.79597,235.56993 C 856.8024,231.24216 860.78157,225.69435 859.99192,220.74727 C 859.20227,215.80019 858.04899,208.60248 856.80865,204.27765 C 855.56831,199.95282 853.61589,198.74969 850.65913,192.74891 C 847.70237,186.74813 826.50368,170.24042 826.50368,170.24042 L 855.60002,104.36193 L 887.44129,97.774078 z"
               id="path2640"
               sodipodi:nodetypes="cssscssscsscssscssscssscsscscssscscsscsscscscscscsscsssssccc" />
            <g
               id="g3458"
               transform="matrix(0.9985337,-5.4134376e-2,5.4134376e-2,0.9985337,-5.1397361,43.146179)">
              <path
                 sodipodi:nodetypes="csscscscssscssssssssscssssscscssscsssssssscccscscsscscscsscssssscssssscsscsc"
                 id="path5193"
                 d="M 803.49046,103.76112 C 803.49046,103.76112 801.20442,100.04838 798.74045,98.245561 C 797.23835,97.146518 792.19607,95.583688 789.6422,94.935217 C 787.2495,94.327675 786.05213,94.752302 786.05213,94.752302 C 786.05213,94.752302 788.67569,96.280772 789.87245,97.47905 C 791.88504,99.494202 794.71679,105.6436 794.71679,105.6436 C 794.71679,105.6436 791.79008,103.65306 790.35952,103.21236 C 785.94099,101.85114 775.00865,101.84646 775.00865,101.84646 C 775.00865,101.84646 783.70773,107.07118 786.00351,110.60963 C 787.98586,113.665 786.06513,115.96987 785.94248,119.60991 C 785.63561,128.7174 777.88722,142.53882 778.04357,153.13183 C 778.10799,157.49552 780.49899,167.32201 780.49899,167.32201 C 780.49899,167.32201 780.10019,178.25566 777.05658,183.25267 C 775.93851,185.08832 773.25053,186.70026 772.8685,188.81539 C 772.19137,192.56422 771.04063,195.34843 770.80968,198.61242 C 770.5191,202.71931 778.16628,205.89088 782.27834,206.09585 C 783.65604,206.16452 785.39423,204.93037 786.76459,205.08812 C 789.0529,205.35155 791.37923,208.27778 793.67768,208.42912 C 796.39054,208.60776 805.98585,209.53239 807.9542,207.657 C 808.95373,206.70468 812.95072,204.20369 815.9719,200.22104 C 817.74933,197.87795 817.2153,194.95722 818.66099,192.29574 C 821.39735,187.25813 825.49218,182.83842 825.49218,182.83842 C 825.49218,182.83842 820.86776,186.64306 818.249,192.28487 C 815.19738,198.85924 814.09183,207.56736 814.20518,210.08751 C 814.37234,213.80408 822.5598,215.87388 825.42685,218.24469 C 827.28278,219.77939 831.60222,221.95127 833.87349,221.15059 C 836.50026,220.22459 836.02006,215.95381 838.77114,215.51911 C 840.32923,215.27291 845.24914,217.32656 845.24914,217.32656 C 845.24914,217.32656 843.7185,210.10838 841.7458,207.78204 C 840.49478,206.30676 836.13744,204.6011 836.13744,204.6011 C 836.13744,204.6011 842.53365,190.8081 844.81005,184.70891 C 846.38512,180.48881 850.18358,173.67286 849.75221,169.18911 C 849.41444,165.67812 846.67372,161.94369 843.70818,160.03404 C 842.61443,159.32972 839.382,159.73702 839.382,159.73702 C 839.382,159.73702 838.88169,157.06232 840.34293,156.34923 C 843.96226,154.58297 847.56268,154.78017 851.35282,156.14183 C 858.01614,158.5357 867.46616,163.11858 872.29838,168.29352 C 875.13316,171.32936 878.54626,176.12372 880.56001,180.72242 C 881.37828,182.59109 881.96551,184.42745 882.18898,186.10037 C 882.73369,190.17799 880.58425,195.74974 881.36671,199.78848 C 881.89428,202.51154 883.50667,206.05049 885.3277,208.14269 C 886.80569,209.84075 889.45104,211.59122 891.59998,212.26201 C 894.31453,213.10935 901.07631,212.48968 901.07631,212.48968 L 895.17387,207.58014 L 894.05657,193.72627 C 894.05657,193.72627 896.55029,176.96645 895.13306,169.97639 C 893.5691,162.26267 891.38485,161.25176 891.38485,161.25176 C 891.38485,161.25176 899.31473,165.88593 903.12235,175.73289 C 904.31291,178.81184 904.851,186.59996 904.851,186.59996 C 904.851,186.59996 908.77022,173.6679 908.23115,168.03156 C 907.5927,161.35616 903.82479,152.79506 900.13197,147.19759 C 896.79411,142.13818 883.04302,130.97146 883.04302,130.97146 C 883.04302,130.97146 866.76718,129.29581 858.56768,129.60654 C 854.1079,129.77555 843.99436,132.59512 843.99436,132.59512 C 843.99436,132.59512 854.28695,130.00892 858.80333,129.7144 C 868.80741,129.06201 892.15712,131.78117 892.15712,131.78117 C 892.15712,131.78117 880.24266,122.0783 874.43546,119.06107 C 870.16373,116.84159 864.07363,114.26927 859.28533,113.77328 C 855.2031,113.35043 845.71942,115.53826 845.71942,115.53826 C 845.71942,115.53826 855.41443,113.76256 859.60176,113.95426 C 864.36263,114.1722 870.49663,118.1965 875.15492,117.18977 C 880.57685,116.01802 888.04136,111.44068 890.08706,106.28458 C 890.93348,104.15118 890.32179,96.940863 889.23169,94.921093 C 887.75941,92.193254 883.68597,87.98478 880.68402,87.212152 C 878.70342,86.702392 874.09909,88.97624 874.09909,88.97624 C 874.09909,88.97624 877.97235,92.444662 878.8771,94.203274 C 879.66138,95.727747 878.4119,97.596676 877.04729,98.634432 C 875.82675,99.562632 872.20313,97.97281 870.70299,97.655206 C 863.29517,96.086864 857.26593,93.043417 850.66168,93.299462 C 848.41297,93.386636 842.22168,94.127313 839.75515,95.941396 C 838.14137,97.128311 833.15913,102.11767 833.15913,102.11767 C 833.15913,102.11767 832.12538,97.122459 830.92722,95.352895 C 828.34118,91.533584 823.1315,87.802651 819.15904,85.458681 C 816.31007,83.777628 808.86698,81.50171 808.86698,81.50171 C 808.86698,81.50171 805.51695,91.157561 804.58662,95.428241 C 804.04993,97.891872 803.49046,103.76112 803.49046,103.76112 z"
                 style="fill:#f8de00;fill-opacity:1;fill-rule:evenodd;stroke:#000000;stroke-width:2.99999976;stroke-linecap:butt;stroke-linejoin:miter;stroke-miterlimit:4;stroke-dasharray:none;stroke-opacity:1" />
              <g
                 transform="matrix(0.7377703,-0.6750517,0.6750517,0.7377703,369.43063,473.66576)"
                 id="g5187">
                <path
                   style="fill:#f8de00;fill-opacity:1;fill-rule:evenodd;stroke:#000000;stroke-width:2.5;stroke-linecap:butt;stroke-linejoin:miter;stroke-miterlimit:4;stroke-dasharray:none;stroke-opacity:1"
                   d="M 540.69049,65.74362 C 540.69049,65.74362 543.87117,66.172265 545.01176,65.715986 C 547.25191,64.819837 549.51136,62.790229 549.80075,60.394899 C 549.95205,59.142553 549.46723,58.07783 548.55916,57.202239 C 547.58258,56.260583 543.30743,54.327065 541.36973,54.095664 C 538.57993,53.762507 528.55431,50.645888 527.45215,49.930065 C 526.4613,49.286537 523.06905,48.930076 522.76689,50.106461 C 522.62126,50.673377 522.02634,52.060355 522.19128,52.621955 C 522.44085,53.471678 522.74481,54.746313 523.35731,55.385957 C 524.12312,56.185675 526.58008,58.157756 526.58008,58.157756"
                   id="path3167"
                   sodipodi:nodetypes="cssssssssc" />
              </g>
              <path
                 sodipodi:nodetypes="csssc"
                 id="path6013"
                 d="M 784.78924,202.55769 C 784.78924,202.55769 780.49614,195.70549 780.43426,193.29369 C 780.37237,190.8819 780.79345,190.14864 781.69177,190.02292 C 782.59008,189.8972 783.70907,190.4729 784.64109,192.60079 C 785.57311,194.72868 784.78924,202.55769 784.78924,202.55769 z"
                 style="fill:none;fill-rule:evenodd;stroke:#000000;stroke-width:2.49999976;stroke-linecap:butt;stroke-linejoin:miter;stroke-miterlimit:4;stroke-dasharray:none;stroke-opacity:1" />
              <path
                 sodipodi:nodetypes="cscssscsc"
                 id="path6022"
                 d="M 814.10274,108.28618 C 814.10274,108.28618 810.9879,104.16763 810.6458,102.0583 C 810.1062,98.731107 812.71442,91.014826 812.71442,91.014826 C 812.71442,91.014826 819.81253,92.265576 820.94943,94.725231 C 821.51103,95.940263 819.16674,97.787928 819.70978,99.011356 C 820.42356,100.61948 824.28415,99.966713 824.98094,101.58226 C 825.44972,102.66917 823.80506,105.34859 823.80506,105.34859 C 823.80506,105.34859 819.15223,103.50098 817.30301,104.20955 C 815.85112,104.76587 814.10274,108.28618 814.10274,108.28618 z"
                 style="fill:#000000;fill-rule:evenodd;stroke:#000000;stroke-width:2.49999976;stroke-linecap:butt;stroke-linejoin:miter;stroke-miterlimit:4;stroke-dasharray:none;stroke-opacity:1" />
              <path
                 sodipodi:nodetypes="cssccsssc"
                 id="path6018"
                 d="M 813.85753,116.12072 C 813.85753,116.12072 822.20969,125.19999 824.35475,129.94511 C 825.48716,132.45011 826.3474,136.18307 826.17243,138.92656 C 825.83666,144.19117 821.96257,156.76381 821.96257,156.76381 L 822.64274,157.89956 C 822.64274,157.89956 824.37226,142.75659 829.45242,140.18761 C 831.34335,139.23139 834.77694,140.54482 836.26461,142.05372 C 837.538,143.34528 838.95919,146.06406 839.27481,147.85013 C 839.76705,150.63572 839.126,157.24961 839.126,157.24961"
                 style="fill:none;fill-rule:evenodd;stroke:#000000;stroke-width:2.49999976;stroke-linecap:butt;stroke-linejoin:miter;stroke-miterlimit:4;stroke-dasharray:none;stroke-opacity:1" />
              <path
                 sodipodi:nodetypes="csss"
                 id="path6020"
                 d="M 864.82411,140.23353 C 864.82411,140.23353 873.01551,142.50059 875.97608,144.52111 C 880.64905,147.7103 884.21986,151.68803 887.76814,156.09454 C 889.19849,157.87085 892.15885,162.30042 892.15885,162.30042"
                 style="fill:none;fill-rule:evenodd;stroke:#000000;stroke-width:2.49999976;stroke-linecap:butt;stroke-linejoin:miter;stroke-miterlimit:4;stroke-dasharray:none;stroke-opacity:1" />
            </g>
          </g>
          <path
             sodipodi:nodetypes="csssssc"
             id="path3490"
             d="M 126.43525,188.98849 C 126.43525,188.98849 126.97349,185.28367 130.27545,180.7277 C 131.48437,179.05967 133.63861,176.35774 135.51473,174.90887 C 137.65896,173.25296 141.35491,172.51678 143.43571,172.56954 C 146.37784,172.64414 149.82025,176.16624 151.81473,178.81648 C 152.8718,180.22111 153.89937,182.62102 154.14793,184.50693 C 154.45133,186.80898 153.22898,192.19781 153.22898,192.19781"
             style="fill:none;fill-rule:evenodd;stroke:#000000;stroke-width:2.5;stroke-linecap:butt;stroke-linejoin:miter;stroke-miterlimit:4;stroke-dasharray:none;stroke-opacity:1" />
        </g>
      </g>
    </g>
    <path
       transform="matrix(0.700145,-0.7140006,0.7140006,0.700145,-304.96156,476.21875)"
       style="opacity:1;fill:#f8de00;fill-opacity:1;fill-rule:evenodd;stroke:#000000;stroke-width:2.50000000000000000;stroke-linecap:butt;stroke-linejoin:miter;stroke-miterlimit:4;stroke-dasharray:none;stroke-opacity:1"
       d="M 532.47164,40.771801 C 532.47164,40.771801 529.7101,41.202371 528.56951,41.658651 C 526.32936,42.554801 524.06991,44.584411 523.78052,46.979741 C 523.62922,48.232081 524.11404,49.296811 525.02211,50.172401 C 525.99869,51.114051 530.27384,53.047572 532.21154,53.278972 C 535.00134,53.612132 545.02696,56.728741 546.12912,57.444571 C 547.11996,58.088101 548.97587,58.507761 550.03126,57.976681 C 551.1162,57.430731 551.68017,55.605661 551.98233,54.429281 C 552.12795,53.862361 552.14727,53.039811 551.98233,52.478211 C 551.73277,51.628491 550.99851,50.634671 550.386,49.995031 C 549.6202,49.195311 547.37071,47.866591 547.37071,47.866591"
       id="path2448"
       sodipodi:nodetypes="csssssssssc" />
  </g>
</svg>
