<?xml version="1.0" encoding="UTF-8" standalone="no"?>
<svg
   xmlns:dc="http://purl.org/dc/elements/1.1/"
   xmlns:cc="http://creativecommons.org/ns#"
   xmlns:rdf="http://www.w3.org/1999/02/22-rdf-syntax-ns#"
   xmlns:svg="http://www.w3.org/2000/svg"
   xmlns="http://www.w3.org/2000/svg"
   xmlns:xlink="http://www.w3.org/1999/xlink"
   xmlns:sodipodi="http://sodipodi.sourceforge.net/DTD/sodipodi-0.dtd"
   xmlns:inkscape="http://www.inkscape.org/namespaces/inkscape"
   version="1.0"
   width="458.5"
   height="560.5"
   id="svg2"
   style="display:inline"
   sodipodi:docname="wolf-1.svg"
   inkscape:version="1.0rc1 (09960d6, 2020-04-09)">
  <metadata
     id="metadata2640">
    <rdf:RDF>
      <cc:Work
         rdf:about="">
        <dc:format>image/svg+xml</dc:format>
        <dc:type
           rdf:resource="http://purl.org/dc/dcmitype/StillImage" />
        <dc:title />
      </cc:Work>
    </rdf:RDF>
  </metadata>
  <sodipodi:namedview
     inkscape:document-rotation="0"
     pagecolor="#ffffff"
     bordercolor="#666666"
     borderopacity="1"
     objecttolerance="10"
     gridtolerance="10"
     guidetolerance="10"
     inkscape:pageopacity="0"
     inkscape:pageshadow="2"
     inkscape:window-width="1509"
     inkscape:window-height="894"
     id="namedview2638"
     showgrid="false"
     inkscape:zoom="2.4783063"
     inkscape:cx="191.65468"
     inkscape:cy="107.42209"
     inkscape:window-x="0"
     inkscape:window-y="25"
     inkscape:window-maximized="0"
     inkscape:current-layer="svg2" />
  <desc
     id="desc4">Blason Vide 3D</desc>
  <defs
     id="defs6">
    <linearGradient
       id="linearGradient2893">
      <stop
         id="stop2895"
         style="stop-color:#ffffff;stop-opacity:0.3137255"
         offset="0" />
      <stop
         id="stop2897"
         style="stop-color:#ffffff;stop-opacity:0.25098041"
         offset="0.19" />
      <stop
         id="stop2901"
         style="stop-color:#6b6b6b;stop-opacity:0.1254902"
         offset="0.60000002" />
      <stop
         id="stop2899"
         style="stop-color:#000000;stop-opacity:0.1254902"
         offset="1" />
    </linearGradient>
    <radialGradient
       cx="221.44487"
       cy="226.33101"
       r="300"
       fx="221.44487"
       fy="226.33101"
       id="radialGradient3163"
       xlink:href="#linearGradient2893"
       gradientUnits="userSpaceOnUse"
       gradientTransform="matrix(1.353218,0,0,1.348928,-77.62935,-85.74693)" />
  </defs>
  <g
     id="layer3"
     style="display:inline" />
  <g
     transform="matrix(0.8895883,0,0,0.8912175,-62.022854,51.113664)"
     id="layer145"
     style="display:inline;stroke:#000000;stroke-width:3.36926;stroke-miterlimit:4;stroke-dasharray:none;stroke-opacity:1">
    <g
       transform="translate(29.510592,-117.82349)"
       id="g3681"
       style="opacity:1;fill:#787850;fill-opacity:1;stroke:#000000;stroke-width:3.36926;stroke-miterlimit:4;stroke-dasharray:none;stroke-opacity:1">
      <path
         d="m 135.44004,557.26967 c 0,0 -13.96416,6.77451 -8.54433,27.63261 0,0 6.80862,-14.54653 15.34955,-14.54653 8.54092,0 4.52354,-8.77523 4.52354,-8.77523 l -5.25605,-6.40598 z"
         id="path2954"
         style="fill:#848401;fill-opacity:1;stroke:#000000;stroke-width:3.36926;stroke-linecap:round;stroke-linejoin:round;stroke-miterlimit:4;stroke-dasharray:none;stroke-opacity:1"
         inkscape:connector-curvature="0" />
      <path
         d="m 119.94831,532.46926 c 0,0 5.81225,-15.59637 16.13779,-18.67197 6.26835,-1.86765 11.90315,-2.34082 13.48645,0.0296 1.58329,2.3704 2.38404,5.30495 2.38404,5.30495 l -4.66799,10.80213 -5.04448,-0.92814 c 10e-4,0 -8.29183,-4.53832 -22.29581,3.46346 z"
         id="path3684"
         style="fill:#848401;fill-opacity:1;stroke:#000000;stroke-width:3.36926;stroke-linecap:round;stroke-linejoin:round;stroke-miterlimit:4;stroke-dasharray:none;stroke-opacity:1"
         inkscape:connector-curvature="0" />
      <path
         d="m 191.96893,596.52562 c 0,0 3.84904,7.21014 -9.00045,14.2872 0,0 11.17293,1.86196 19.32372,-2.54897 5.32201,-2.87996 6.64938,-8.73884 4.85453,-12.2603 -1.79486,-3.52147 -4.85453,-4.81017 -4.85453,-4.81017 l -9.34054,0.96681 z"
         id="path3686"
         style="fill:#848401;fill-opacity:1;stroke:#000000;stroke-width:3.36926;stroke-linecap:round;stroke-linejoin:round;stroke-miterlimit:4;stroke-dasharray:none;stroke-opacity:1"
         inkscape:connector-curvature="0" />
      <path
         d="m 167.42671,610.75936 c 0,0 -2.28395,-15.32339 4.65207,-19.99024 l 1.35012,-8.28387 -10.26981,-3.20071 -4.93415,2.80147 -0.27753,3.97303 c -0.001,-10e-4 -7.05886,13.09745 9.4793,24.70032 z"
         id="path3688"
         style="fill:#848401;fill-opacity:1;stroke:#000000;stroke-width:3.36926;stroke-linecap:round;stroke-linejoin:round;stroke-miterlimit:4;stroke-dasharray:none;stroke-opacity:1"
         inkscape:connector-curvature="0" />
      <path
         d="m 358.41401,388.73286 c -10.36762,7.84482 -32.97622,17.79615 -51.29559,20.41223 -18.31936,2.61608 -29.83352,12.03851 -46.58324,33.49831 -16.74972,21.45979 -28.78709,26.69422 -35.5923,26.69422 0,0 16.2265,9.42129 28.78822,0 0,0 -3.14043,13.08494 -12.56172,21.98302 0,0 12.56172,1.04756 20.41337,-10.46773 0,0 -4.188,12.56059 -10.46886,20.93545 0,0 12.56286,-2.61722 18.31937,-12.03851 0,0 4.18686,13.60815 -6.28086,24.07701 -10.46773,10.46886 -36.63419,19.3658 -64.3794,19.3658 -18.84258,0 -27.74065,-14.65572 -32.97508,-17.79615 -5.23443,-3.14043 -13.08494,-3.66478 -16.22537,-1.57078 0,0 -1.04643,8.89694 -7.32729,15.17893 0,0 1.04643,12.03965 15.17893,13.08608 0,0 -16.74972,-3.66479 -21.98301,15.17893 0,0 7.85164,3.14157 6.80408,13.08608 0,0 7.46947,6.04655 15.95807,-0.33327 0,0 -6.53792,9.23021 -0.25706,16.03542 0,0 9.94451,-3.66364 14.13251,4.71122 0,0 10.75321,-0.0944 9.42129,-9.4213 -0.52322,-3.66364 5.23329,-10.46658 11.51529,-6.27972 6.282,4.18686 4.188,6.80294 4.188,6.80294 0,0 -12.56172,3.66365 -5.23443,14.65572 0,0 7.32729,-5.23443 15.17893,-0.52321 0,0 13.08494,-1.57079 7.3273,-14.65573 0,0 19.36693,2.61722 31.92865,-14.1325 0,0 -0.52435,6.80408 -6.28086,13.60929 0,0 18.84258,-3.14043 28.78823,-19.3658 0,0 -2.61722,10.99094 -7.32729,15.70215 0,0 17.2718,-5.23329 28.26387,-25.64666 0,0 0,10.46659 -1.56965,13.60816 0,0 12.03851,-7.32729 19.89016,-21.98302 0,0 -0.001,6.28086 -1.04757,11.51529 0,0 12.56172,-6.28086 14.65572,-18.84258 0,0 0.52321,7.32843 0,10.99208 0,0 12.03737,-9.42243 14.65572,-18.31937 2.61835,-8.89694 0,-20.41337 -7.32729,-31.4043 -7.32729,-10.99094 -12.56059,-25.64553 5.75878,-38.20838 18.31937,-12.56286 30.35787,-14.65686 50.24802,-12.56286 19.89016,2.094 -7.33184,-72.23218 -26.69764,-57.57646 z"
         id="path3690"
         style="fill:#214263;fill-opacity:1;stroke:#000000;stroke-width:3.36926;stroke-linecap:round;stroke-linejoin:round;stroke-miterlimit:4;stroke-dasharray:none;stroke-opacity:1"
         inkscape:connector-curvature="0" />
      <path
         d="m 377.25546,437.93218 -28.78823,-35.06909 c 0,0 -10.04687,-12.92683 28.78823,12.03851 7.32843,4.71121 0,23.03058 0,23.03058 z"
         id="path3692"
         style="fill:#214263;fill-opacity:1;stroke:#000000;stroke-width:3.36926;stroke-linecap:round;stroke-linejoin:round;stroke-miterlimit:4;stroke-dasharray:none;stroke-opacity:1"
         inkscape:connector-curvature="0" />
      <path
         d="m 98.787659,87.181022 c 0,0 -16.231055,-14.741028 -33.945311,-2.620628 0,0 16.258352,0.688143 23.378633,12.728924 l 4.28013,3.431612 5.904373,-4.662306 2.486416,-4.662305 z"
         id="path3694"
         style="fill:#848401;fill-opacity:1;stroke:#000000;stroke-width:3.36926;stroke-linecap:round;stroke-linejoin:round;stroke-miterlimit:4;stroke-dasharray:none;stroke-opacity:1"
         inkscape:connector-curvature="0" />
      <path
         d="m 78.411828,116.36507 -4.893203,-2.53646 c 0,0 -21.836285,-2.58195 -28.376478,18.17606 0,0 12.980294,-8.67514 20.565781,-1.63562 7.585487,7.03952 9.291625,0.49819 9.291625,0.49819 l 4.265344,-8.53069 z"
         id="path3696"
         style="fill:#848401;fill-opacity:1;stroke:#000000;stroke-width:3.36926;stroke-linecap:round;stroke-linejoin:round;stroke-miterlimit:4;stroke-dasharray:none;stroke-opacity:1"
         inkscape:connector-curvature="0" />
      <path
         d="m 66.167448,155.63695 c 0,0 -19.274804,0.48795 -17.07275,26.47015 0,0 8.580735,-14.6307 19.370348,-11.76894 10.789614,2.86176 4.84998,-7.82776 4.84998,-7.82776 l -3.082421,-7.48653 z"
         id="path3698"
         style="fill:#848401;fill-opacity:1;stroke:#000000;stroke-width:3.36926;stroke-linecap:round;stroke-linejoin:round;stroke-miterlimit:4;stroke-dasharray:none;stroke-opacity:1"
         inkscape:connector-curvature="0" />
      <path
         d="m 91.436481,196.06672 c 0,0 -11.246858,3.55559 -17.746104,-9.44404 0,0 -3.893406,12.43546 3.646584,19.97545 3.487345,3.48735 9.326885,5.93168 14.55904,3.71142 5.232155,-2.22025 6.684647,-7.83344 6.684647,-7.83344 l -2.219116,-5.54836 z"
         id="path3700"
         style="fill:#848401;fill-opacity:1;stroke:#000000;stroke-width:3.36926;stroke-linecap:round;stroke-linejoin:round;stroke-miterlimit:4;stroke-dasharray:none;stroke-opacity:1"
         inkscape:connector-curvature="0" />
      <path
         d="m 236.61855,244.76784 c 0,0 -13.54901,-7.61961 -33.99877,-11.02619 -2.75712,-0.45952 -18.37738,-16.99882 -36.75476,-30.78214 -18.37737,-13.78331 -35.83571,-28.48453 -35.83571,-28.48453 0,0 -11.0262,-13.3238 -11.48572,-25.26904 -0.45952,-11.94523 -4.13567,-25.26903 -6.89165,-28.94405 -2.75598,-3.67502 11.48571,-27.107112 -12.864281,-33.079731 0,0 -3.2155,9.648776 -10.566678,10.108296 0,0 -5.513099,9.188115 -0.45952,14.241695 0,0 -9.648776,-3.67615 -14.242836,2.2976 0,0 0.45952,11.0262 -7.810697,16.54044 0,0 1.377422,10.56667 11.945237,9.64764 10.567816,-0.91904 10.567816,1.83807 10.567816,1.83807 0,0 -1.377422,4.13454 -7.810698,5.97262 -6.433275,1.83808 -11.486855,0 -14.242835,7.8107 0,0 5.514236,5.5131 2.297598,14.70236 0,0 1.836942,8.27021 11.026198,7.35117 9.189257,-0.91904 9.188119,-9.18925 13.323797,-5.5131 4.135677,3.67616 13.783319,12.86428 12.864279,15.16188 -0.91904,2.2976 -1.37856,4.59406 -5.05358,4.59406 -3.675022,0 -9.647641,-1.37856 -9.188121,4.13454 0,0 5.513099,7.8107 0.45952,14.24284 0,0 2.75598,9.18811 10.566681,10.10715 7.81069,0.91904 14.70235,-6.43213 14.70235,-6.43213 0,0 9.18926,13.32379 14.70236,13.32379 0,0 -10.56668,-0.91904 -14.2417,-2.75712 0,0 6.89166,15.16188 27.56549,16.54044 0,0 -9.18811,0.91904 -17.45833,-1.83808 0,0 9.18812,14.2417 34.91667,15.62026 0,0 -9.18926,0.91904 -17.45834,-0.91904 0,0 9.18926,13.78218 31.70118,14.70122 0,0 -8.27022,2.29759 -17.45948,-0.45952 0,0 9.18926,12.86427 33.99877,13.78331 0,0 -9.18812,1.37856 -18.37737,-0.45952 0,0 10.10716,13.78332 29.40357,11.94524 0,0 -5.97262,2.2976 -13.3238,1.37856 0,0 13.14636,13.8891 24.77085,13.70824 l 37.10735,-3.02441 17.47881,-60.0367 z"
         id="path3702"
         style="fill:#214263;fill-opacity:1;stroke:#000000;stroke-width:3.36926;stroke-linecap:round;stroke-linejoin:round;stroke-miterlimit:4;stroke-dasharray:none;stroke-opacity:1"
         inkscape:connector-curvature="0" />
      <path
         d="m 329.33802,161.22853 c 0,0 -30.7537,-8.83097 -59.98438,-8.52614 -29.23069,0.30483 -52.06791,11.87585 -67.902,4.26307 -15.83409,-7.61279 -4.26307,-31.05853 -0.30483,-31.97188 0,0 -17.90193,-3.49986 -31.05853,17.96449 -5.78494,9.43949 -0.95657,31.04715 18.26932,35.93012 19.18268,4.87159 29.84035,-7.61165 54.19944,-11.87472 22.29467,-3.90137 37.14716,-6.08977 85.86649,3.04489 z"
         id="path3704"
         style="fill:#840101;fill-opacity:1;stroke:#000000;stroke-width:3.36926;stroke-linecap:round;stroke-linejoin:round;stroke-miterlimit:4;stroke-dasharray:none;stroke-opacity:1"
         inkscape:connector-curvature="0" />
      <path
         d="m 234.87032,139.70276 c 0,0 -0.85193,7.94946 7.66625,13.91184 0,0 -1.13515,-11.6404 3.9753,-21.01051 0,10e-4 -11.64155,-1.98708 -11.64155,7.09867 z"
         id="path3706"
         style="fill:#848484;fill-opacity:1;stroke:#000000;stroke-width:3.36926;stroke-linecap:round;stroke-linejoin:round;stroke-miterlimit:4;stroke-dasharray:none;stroke-opacity:1"
         inkscape:connector-curvature="0" />
      <path
         d="m 244.2029,178.25805 c 0,0 -1.97457,-7.74814 5.6075,-14.86159 0,0 0.53345,11.68363 6.92578,20.23138 0,-0.001 -11.24117,3.6227 -12.53328,-5.36979 z"
         id="path3708"
         style="fill:#848484;fill-opacity:1;stroke:#000000;stroke-width:3.36926;stroke-linecap:round;stroke-linejoin:round;stroke-miterlimit:4;stroke-dasharray:none;stroke-opacity:1"
         inkscape:connector-curvature="0" />
      <path
         d="m 250.48603,131.75216 7.09867,15.04813 c 0,0 4.54288,-13.62863 7.66625,-16.18442 z"
         id="path3710"
         style="fill:#848484;fill-opacity:1;stroke:#000000;stroke-width:3.36926;stroke-linecap:round;stroke-linejoin:round;stroke-miterlimit:4;stroke-dasharray:none;stroke-opacity:1"
         inkscape:connector-curvature="0" />
      <path
         d="m 292.39901,132.90551 c 0,0 0.28435,6.91554 3.9753,8.45106 3.69094,1.53553 5.96238,4.60999 5.96238,4.60999 0,0 5.11159,-8.70813 3.69208,-12.54921 l -13.06105,-0.51184"
         id="path3712"
         style="fill:#848484;fill-opacity:1;stroke:#000000;stroke-width:3.36926;stroke-linecap:round;stroke-linejoin:round;stroke-miterlimit:4;stroke-dasharray:none;stroke-opacity:1"
         inkscape:connector-curvature="0" />
      <path
         d="m 259.11909,183.77911 5.97375,-14.01648 c 0,0 3.87635,12.27964 7.14872,14.64093 z"
         id="path3714"
         style="fill:#848484;fill-opacity:1;stroke:#000000;stroke-width:3.36926;stroke-linecap:round;stroke-linejoin:round;stroke-miterlimit:4;stroke-dasharray:none;stroke-opacity:1"
         inkscape:connector-curvature="0" />
      <polygon
         points="209.666,62.735 196.935,63.234 203.675,75.715 "
         transform="matrix(1.137425,0,0,1.137425,40.33084,60.59144)"
         id="polygon2992"
         style="fill:#848484;fill-opacity:1;stroke:#000000;stroke-width:2.96218;stroke-linecap:round;stroke-linejoin:round;stroke-miterlimit:4;stroke-dasharray:none;stroke-opacity:1" />
      <polygon
         points="222.354,62.563 209.623,63.063 216.363,75.544 "
         transform="matrix(1.137425,0,0,1.137425,40.33084,60.59144)"
         id="polygon2994"
         style="fill:#848484;fill-opacity:1;stroke:#000000;stroke-width:2.96218;stroke-linecap:round;stroke-linejoin:round;stroke-miterlimit:4;stroke-dasharray:none;stroke-opacity:1" />
      <polygon
         points="216.966,109.244 205.233,109.493 210.226,95.015 "
         transform="matrix(1.137425,0,0,1.137425,40.33084,60.59144)"
         id="polygon2996"
         style="fill:#848484;fill-opacity:1;stroke:#000000;stroke-width:2.96218;stroke-linecap:round;stroke-linejoin:round;stroke-miterlimit:4;stroke-dasharray:none;stroke-opacity:1" />
      <path
         d="m 289.78407,181.32341 c 0,0 -0.1365,-6.91895 3.45549,-8.67627 3.59199,-1.75733 5.6712,-4.96259 5.6712,-4.96259 0,0 5.63026,8.38169 4.4462,12.30125 l -13.00532,1.30349"
         id="path3719"
         style="fill:#848484;fill-opacity:1;stroke:#000000;stroke-width:3.36926;stroke-linecap:round;stroke-linejoin:round;stroke-miterlimit:4;stroke-dasharray:none;stroke-opacity:1"
         inkscape:connector-curvature="0" />
      <path
         d="m 65.188125,333.55524 c 0,0 -8.821869,-3.8627 -23.293327,-0.49364 0,0 4.187999,-11.97481 16.256078,-14.47146 5.748546,-1.18861 11.817846,-0.52777 13.404554,1.65268 1.586708,2.18044 3.247348,7.6651 3.247348,7.6651 l -4.757849,7.53317 z"
         id="path3000"
         style="fill:#848401;fill-opacity:1;stroke:#000000;stroke-width:3.36926;stroke-linecap:round;stroke-linejoin:round;stroke-miterlimit:4;stroke-dasharray:none;stroke-opacity:1"
         inkscape:connector-curvature="0" />
      <path
         d="m 62.004472,355.54963 c 0,0 -20.529384,0.88605 -16.345935,25.48514 0,0 8.11439,-13.16001 15.476942,-10.14697 7.36369,3.01304 6.611852,-4.57927 6.611852,-4.57927 l -0.836007,-9.20404 z"
         id="path3723"
         style="fill:#848401;fill-opacity:1;stroke:#000000;stroke-width:3.36926;stroke-linecap:round;stroke-linejoin:round;stroke-miterlimit:4;stroke-dasharray:none;stroke-opacity:1"
         inkscape:connector-curvature="0" />
      <path
         d="m 73.87009,396.0647 c 0,0 -5.072916,10.39948 -1.128326,21.60994 0,0 8.969734,-7.90965 13.282849,-16.11162 4.326765,-8.227 0.136491,-5.75537 0.136491,-5.75537 l -7.265871,-4.1516 z"
         id="path3726"
         style="fill:#848401;fill-opacity:1;stroke:#000000;stroke-width:3.36926;stroke-linecap:round;stroke-linejoin:round;stroke-miterlimit:4;stroke-dasharray:none;stroke-opacity:1"
         inkscape:connector-curvature="0" />
      <path
         d="m 111.20152,406.19347 c 0,0 -2.77191,8.60349 -16.89304,13.15546 0,0 10.77255,5.86798 20.91838,1.11354 5.71784,-2.67977 9.82281,-6.36503 10.15493,-11.08648 l -1.47979,-5.72807 -7.24767,-2.21457 -5.63708,0.60397 z"
         id="path3729"
         style="fill:#848401;fill-opacity:1;stroke:#000000;stroke-width:3.36926;stroke-linecap:round;stroke-linejoin:round;stroke-miterlimit:4;stroke-dasharray:none;stroke-opacity:1"
         inkscape:connector-curvature="0" />
      <path
         d="m 315.22144,610.2134 c 0,0 -9.55665,-1.45477 -13.2601,8.42149 -2.23391,5.95897 0.55847,15.08339 0.55847,15.08339 0,0 5.62571,-12.67546 12.70163,-11.92931 7.07592,0.74615 7.22378,-1.29098 7.22378,-1.29098 l -2.42044,-7.82207 -0.93041,-3.16545 z"
         id="path3731"
         style="fill:#848401;fill-opacity:1;stroke:#000000;stroke-width:3.36926;stroke-linecap:round;stroke-linejoin:round;stroke-miterlimit:4;stroke-dasharray:none;stroke-opacity:1"
         inkscape:connector-curvature="0" />
      <path
         d="m 316.09043,642.91436 c 0,0 -6.45034,6.65394 -3.07105,15.49287 1.76642,4.62022 8.69675,10.46317 8.69675,10.46317 0,0 -2.63313,-15.06519 3.34517,-16.69626 5.97831,-1.63107 3.44867,-6.26948 3.44867,-6.26948 l -9.78413,-7.60938 z"
         id="path3733"
         style="fill:#848401;fill-opacity:1;stroke:#000000;stroke-width:3.36926;stroke-linecap:round;stroke-linejoin:round;stroke-miterlimit:4;stroke-dasharray:none;stroke-opacity:1"
         inkscape:connector-curvature="0" />
      <path
         d="m 349.37035,665.4877 c 0,0 -4.94098,10.07759 4.31084,18.3569 2.72527,2.43864 9.0357,3.29854 9.0357,3.29854 0,0 -6.06361,-12.25235 1.70159,-17.31502 7.7652,-5.06268 -3.42365,-9.22111 -3.42365,-9.22111 l -10.61445,0.5744 z"
         id="path3735"
         style="fill:#848401;fill-opacity:1;stroke:#000000;stroke-width:3.36926;stroke-linecap:round;stroke-linejoin:round;stroke-miterlimit:4;stroke-dasharray:none;stroke-opacity:1"
         inkscape:connector-curvature="0" />
      <path
         d="m 393.64689,654.49108 c 0,0 3.38498,8.16557 -12.91432,18.81756 0,0 8.95153,4.73851 20.53507,-3.46574 6.16029,-4.36316 8.00065,-11.30941 5.69054,-15.93077 -2.31011,-4.62136 -5.04903,-5.63026 -5.04903,-5.63026 l -8.08482,2.43978 z"
         id="path3014"
         style="fill:#848401;fill-opacity:1;stroke:#000000;stroke-width:3.36926;stroke-linecap:round;stroke-linejoin:round;stroke-miterlimit:4;stroke-dasharray:none;stroke-opacity:1"
         inkscape:connector-curvature="0" />
      <path
         d="m 323.56673,82.081945 c 0,0 7.56387,-6.415077 12.71754,-12.254617 5.15368,-5.83954 6.98493,-7.671931 6.98493,-7.671931 0,0 4.87387,7.477432 -1.76756,24.079287 1.13288,0.535727 2.1122,1.085104 2.95503,1.62538 5.48808,-6.672135 14.63525,-15.526988 26.6965,-19.189497 0,0 6.17736,16.393707 -0.60738,33.486933 0,0 31.93093,1.32282 41.55014,28.00567 6.89393,5.04221 14.10861,14.2781 14.10861,26.42807 2.52054,3.65569 3.52716,10.15721 3.01759,16.34708 0,0 -4.32221,-9.54186 -17.05568,-11.56762 0,0 15.86594,11.66202 12.68228,27.86805 0,0 -8.92082,-9.34735 -14.70918,-10.50525 0,0 12.79604,12.9837 8.74453,32.37225 0,0 -11.63814,-11.82581 -15.40074,-13.85156 0,0 12.7312,10.70772 10.12764,32.41206 0,0 -2.44433,-3.56469 -5.58135,-7.12938 0,0 2.39769,15.81021 -3.10062,25.93898 0,0 -3.7626,-10.70772 -9.83873,-15.04813 0,0 4.05265,14.46918 -4.62932,28.07051 0,0 -2.31466,-13.31242 -8.10301,-18.23179 0,0 1.73571,13.31242 -4.34042,22.5722 0,0 -2.02575,-11.57557 -7.52406,-12.44343 0,0 -6.65735,-1.4468 -6.65735,20.83535 0,22.28216 20.54758,72.34706 50.06604,96.94615 29.51845,24.59909 52.95964,54.69308 67.13878,65.11303 14.17914,10.41995 39.35718,4.9205 41.96188,-10.12763 2.60471,-15.04814 -8.68196,-42.5397 -28.36055,-62.79837 -19.67859,-20.25754 -28.07051,-68.00665 -5.78722,-90.28994 22.28329,-22.28329 63.66623,-57.87901 63.66623,-57.87901 0,0 3.73758,12.53101 -4.49852,24.18052 0,0 4.50079,10.74639 -0.71089,19.65812 0,0 4.87273,11.12401 -2.96185,21.22435 0,0 4.11861,16.83503 -8.03477,26.67489 -12.15339,9.83986 -38.48819,26.04476 -20.83535,52.6696 0,0 -0.20133,-15.11979 6.94511,-20.83649 8.68197,-6.94511 11.57671,-15.33704 11.57671,-15.33704 0,0 2.35902,15.76471 -6.94511,28.64946 -3.7626,5.20941 -4.34042,17.07389 -4.34042,17.07389 0,0 2.31466,-9.54982 8.68197,-13.02238 6.3673,-3.47256 8.97201,-10.70772 8.97201,-10.70772 0,0 6.3673,13.60133 -2.02576,21.99325 -8.39306,8.39193 -6.94511,17.65398 -6.94511,17.65398 0,0 2.31466,-6.36731 8.10301,-9.54982 5.78836,-3.18252 7.81297,-11.28667 7.81297,-11.28667 0,0 4.62932,15.91599 -3.7626,23.44005 -8.39192,7.52407 -6.49811,11.71889 -3.18251,22.57334 3.18251,10.41767 3.18251,43.69873 -25.17804,52.09065 -28.36056,8.39192 -54.69536,-9.54982 -66.27093,-21.99439 -5.98627,-6.43441 -9.80461,-11.24458 -12.8984,-14.58861 -0.41289,12.27282 -4.17549,18.06117 -4.17549,29.63675 0,11.57557 -1.73685,35.30567 25.75585,35.30567 17.07503,0 21.99553,-8.10415 28.93951,-5.49945 6.94398,2.6047 9.72498,14.20758 0.57895,31.2553 -6.36617,11.86448 0.57894,40.22504 0.57894,53.24742 0,8.10187 -5.78835,14.46918 -5.78835,14.46918 0,0 -1.15904,-7.81297 -6.94512,-13.02238 0,0 5.49831,17.36393 -5.49831,35.30567 0,0 -1.44567,-10.70885 -5.49831,-15.91712 0,0 2.02575,17.65283 -13.02238,29.22841 0,0 0.86899,-12.4423 -3.7626,-17.65284 0,0 2.60584,13.02124 -12.73234,26.33366 0,0 2.3158,-11.57557 0.57895,-17.07388 0,0 -16.49721,21.4143 -22.86338,22.86224 0,0 5.78836,4.34041 3.4737,10.12877 -2.31466,5.78836 -8.68197,9.54982 -8.68197,9.54982 0,0 -7.52293,-4.05151 -13.31128,0.57895 0,0 -5.8748,-5.81679 -4.34042,-10.41881 1.1579,-3.47256 -10.30393,-3.86611 -12.15566,0.58008 0,0 -1.73457,6.65621 -0.86785,11.57558 0.86671,4.91936 -4.05151,12.73233 -11.86562,13.60133 0,0 -8.39306,-8.10302 -15.04813,-4.34042 0,0 -6.65508,-6.0784 0.29004,-12.73347 6.94512,-6.65508 3.18251,-14.76037 -1.73685,-13.02238 -4.91936,1.73799 -5.23557,10.92269 -13.60133,13.31242 -4.0515,1.1579 -9.26091,-0.86899 -9.26091,-0.86899 0,0 0.001,-7.23516 -8.97087,-9.26092 0,0 -0.77118,-8.63078 6.01015,-13.96985 0,0 -6.59024,-2.23618 -6.87914,-7.15554 0,0 2.6047,-6.36617 0,-11.57557 0,0 4.34041,-9.26092 13.60132,-8.10302 9.26092,1.1579 19.96864,13.02238 35.59572,13.02238 15.62708,0 40.22503,-28.07051 48.32805,-43.69759 8.10302,-15.62709 8.97201,-36.46357 4.34041,-44.85663 0,0 -10e-4,7.52406 -4.05264,16.78498 0,0 0.86899,-7.23403 -4.91936,-10.41768 0,0 -2.3158,10.41768 -6.36731,14.75923 0,0 -0.29004,-8.10302 -3.7626,-9.83873 0,0 -1.44567,7.52521 -6.94398,12.73347 0,0 0.86899,-8.39192 -11.28667,-11.86561 -12.15566,-3.4737 -16.78612,-19.67973 -17.07502,-42.54084 -0.28891,-22.8611 15.33817,-60.77375 11.57671,-78.71549 -3.76147,-17.94174 -15.58386,-29.28642 -67.13765,-32.41093 -19.09964,-1.1579 -45.72449,-18.52069 -58.16791,-6.65621 -12.44343,11.86448 -21.1254,10.41881 -21.1254,10.41881 0,0 10.12877,-11.57557 10.12877,-16.20603 0,0 -10.70772,16.49494 -30.09627,15.91599 0,0 8.68197,-8.97087 8.68197,-14.18028 0,0 -10.99663,13.60247 -24.59795,15.62709 0,0 4.34041,-6.94512 4.91936,-12.73348 0,0 -11.57557,14.47032 -29.80736,15.62708 0,0 6.94512,-7.23402 8.68197,-12.15452 0,0 -10.41768,13.02124 -27.49157,13.31129 0,0 8.39192,-6.36845 9.54982,-10.12877 0,0 -16.78498,6.94398 -26.3348,4.34041 0,0 6.65621,8.39306 4.05151,13.31242 -2.6047,4.91937 -10.12877,7.81297 -10.12877,7.81297 0,0 -7.23402,-4.33927 -14.18028,-3.18251 0,0 -6.94625,-4.05265 -1.1579,-9.26205 5.78836,-5.20941 13.60133,-10.99549 2.60471,-15.62595 -10.99663,-4.63045 -10.12877,1.15676 -9.83873,5.78722 0.29004,4.63046 -3.472557,16.20603 -16.784979,14.47032 0,0 -4.340414,-7.23402 -12.154524,-5.49831 0,0 -5.787218,-9.26091 2.604703,-13.60133 8.391922,-4.34041 13.601329,-8.10301 9.838727,-10.99662 0,0 -2.31466,-1.73571 -10.12877,2.31579 -7.81411,4.05151 -14.759227,1.44681 -15.048133,-2.89361 0,0 4.630457,-8.39305 0.867856,-15.33817 0,0 0.868992,-8.10302 7.23516,-4.91936 6.366168,3.18365 12.443429,0 12.443429,0 0,0 -6.367305,-4.91937 -10.418813,-5.49832 -4.051507,-0.57895 -10.128769,-6.65621 -6.077261,-11.57557 0,0 6.367305,-4.05151 6.367305,-13.31242 0,0 10.707719,-4.91937 15.337039,6.94511 4.629319,11.86448 9.54982,17.36393 16.494941,18.52069 6.94511,1.15677 67.50731,-0.36852 92.31568,-9.83872 11.30032,-4.31312 17.38782,-8.52841 17.38782,-15.08339 0,-6.55498 3.27692,-19.1986 15.45192,-28.09668 0,0 -11.23776,2.80944 -16.85778,16.38916 0,0 -7.0236,-19.1986 14.98444,-31.84221 0,0 -4.68278,0.46748 -10.77028,4.21416 0,0 -2.09286,-11.54942 11.23776,-21.07194 6.55612,-4.68278 17.32526,-6.0875 17.32526,-6.0875 0,0 -9.36556,-1.40472 -16.85778,2.80944 0,0 5.1514,-19.19859 30.90611,-20.13583 0,0 -11.70751,-3.27806 -20.13583,2.34082 0,0 7.49222,-17.32526 33.71555,-17.32526 0,0 -1.87334,-2.81058 -12.175,-1.40472 0,0 8.96291,-9.67949 23.12499,-10.21749 0,0 1.22501,-11.79055 19.02002,-13.66388 2.57172,-0.27071 5.24126,-0.55166 7.96653,-0.89175 -14.52264,2.29647 -23.8882,-5.66437 -33.25262,-4.25965 -9.36442,1.40472 -26.69082,4.21529 -22.94528,10.77028 0,0 -18.47747,-6.26722 -13.57971,-23.41276 0.9361,-3.27806 3.27806,-1.87334 3.27806,-1.87334 0,0 -2.34196,3.27806 4.21415,3.74554 6.55612,0.46748 50.5722,6.55612 65.08915,-10.77028 14.51696,-17.32639 -1.40358,-35.58889 -15.45192,-35.58889 -14.04833,0 -56.01818,-2.15656 -60.96825,4.09587 -1.86311,2.35333 -18.17037,-3.53057 -18.17037,-12.52532 0,-5.49035 3.85132,-9.19154 4.98761,-10.08441 -4.39387,-3.29512 0,-13.18162 10.98411,-12.08287 10.98412,1.09875 28.19222,4.76012 37.34622,1.83012 9.15399,-2.93001 16.84412,-23.799484 45.40259,-23.799484 2.36357,0.0034 4.56107,0.08531 6.60617,0.234309 z"
         id="path3016"
         style="fill:#214263;fill-opacity:1;stroke:#000000;stroke-width:3.36926;stroke-linecap:round;stroke-linejoin:round;stroke-miterlimit:4;stroke-dasharray:none;stroke-opacity:1"
         inkscape:connector-curvature="0" />
      <path
         d="m 323.56673,82.081945 c 8.25429,0.600561 14.01193,2.296461 17.93491,4.152739"
         id="path3018"
         style="fill:#787850;fill-opacity:1;stroke:#000000;stroke-width:3.36926;stroke-linecap:round;stroke-linejoin:round;stroke-miterlimit:4;stroke-dasharray:none;stroke-opacity:1"
         inkscape:connector-curvature="0" />
      <path
         d="m 234.58028,111.87566 c 0,0 -6.95649,7.32274 -11.35036,4.02762"
         id="path3741"
         style="fill:#787850;fill-opacity:1;stroke:#000000;stroke-width:3.36926;stroke-linecap:round;stroke-linejoin:round;stroke-miterlimit:4;stroke-dasharray:none;stroke-opacity:1"
         inkscape:connector-curvature="0" />
      <path
         d="m 364.5618,86.611172 c 0,0 0,12.449116 -6.95649,20.870608"
         id="path3743"
         style="fill:#787850;fill-opacity:1;stroke:#000000;stroke-width:3.36926;stroke-linecap:round;stroke-linejoin:round;stroke-miterlimit:4;stroke-dasharray:none;stroke-opacity:1"
         inkscape:connector-curvature="0" />
      <path
         d="m 338.56595,96.131419 c 0,0 2.0485,-3.601088 5.89072,-8.271355"
         id="path3745"
         style="fill:#787850;fill-opacity:1;stroke:#000000;stroke-width:3.36926;stroke-linecap:round;stroke-linejoin:round;stroke-miterlimit:4;stroke-dasharray:none;stroke-opacity:1"
         inkscape:connector-curvature="0" />
      <path
         d="m 400.30083,123.75037 c 0,0 5.7167,1.96889 11.79396,6.41394"
         id="path3026"
         style="fill:#787850;fill-opacity:1;stroke:#000000;stroke-width:3.36926;stroke-linecap:round;stroke-linejoin:round;stroke-miterlimit:4;stroke-dasharray:none;stroke-opacity:1"
         inkscape:connector-curvature="0" />
      <path
         d="m 408.03077,222.53915 c -2.15087,-2.44433 -4.62591,-4.88866 -6.86209,-6.18305"
         id="path3028"
         style="fill:#787850;fill-opacity:1;stroke:#000000;stroke-width:3.36926;stroke-linecap:round;stroke-linejoin:round;stroke-miterlimit:4;stroke-dasharray:none;stroke-opacity:1"
         inkscape:connector-curvature="0" />
      <path
         d="m 548.02276,239.37759 c -1.21363,1.71637 -2.68773,3.41341 -4.47235,5.04789 -13.89137,12.73347 -30.38631,26.04476 -30.38631,26.04476"
         id="path3030"
         style="fill:#787850;fill-opacity:1;stroke:#000000;stroke-width:3.36926;stroke-linecap:round;stroke-linejoin:round;stroke-miterlimit:4;stroke-dasharray:none;stroke-opacity:1"
         inkscape:connector-curvature="0" />
      <path
         d="m 547.31187,259.03456 c -0.92359,1.57761 -2.15087,3.09721 -3.76146,4.49056 -10.70772,9.26091 -28.93951,22.28329 -28.93951,22.28329"
         id="path3032"
         style="fill:#787850;fill-opacity:1;stroke:#000000;stroke-width:3.36926;stroke-linecap:round;stroke-linejoin:round;stroke-miterlimit:4;stroke-dasharray:none;stroke-opacity:1"
         inkscape:connector-curvature="0" />
      <path
         d="m 544.35115,280.25892 c -1.32282,1.70613 -3.00848,3.38156 -5.14116,4.97054 -14.76036,10.99663 -28.64946,23.15115 -28.64946,23.15115"
         id="path3034"
         style="fill:#787850;fill-opacity:1;stroke:#000000;stroke-width:3.36926;stroke-linecap:round;stroke-linejoin:round;stroke-miterlimit:4;stroke-dasharray:none;stroke-opacity:1"
         inkscape:connector-curvature="0" />
      <path
         d="m 436.02166,425.75377 c -2.88792,-3.12337 -5.1423,-4.96941 -7.93809,-5.66779"
         id="path3036"
         style="fill:#787850;fill-opacity:1;stroke:#000000;stroke-width:3.36926;stroke-linecap:round;stroke-linejoin:round;stroke-miterlimit:4;stroke-dasharray:none;stroke-opacity:1"
         inkscape:connector-curvature="0" />
      <path
         d="m 322.10058,628.94451 c 2.51144,-1.97684 6.05793,-3.50327 11.06374,-3.97189"
         id="path3038"
         style="fill:#787850;fill-opacity:1;stroke:#000000;stroke-width:3.36926;stroke-linecap:round;stroke-linejoin:round;stroke-miterlimit:4;stroke-dasharray:none;stroke-opacity:1"
         inkscape:connector-curvature="0" />
      <path
         d="m 283.04255,210.3596 c 2.02234,-0.0762 4.1516,0.033 6.3764,0.38445"
         id="path3040"
         style="fill:#787850;fill-opacity:1;stroke:#000000;stroke-width:3.36926;stroke-linecap:round;stroke-linejoin:round;stroke-miterlimit:4;stroke-dasharray:none;stroke-opacity:1"
         inkscape:connector-curvature="0" />
      <path
         d="m 310.02909,195.80511 c 16.12983,-2.01097 34.19896,-6.09774 45.41625,-22.52215"
         id="path3042"
         style="fill:#214263;fill-opacity:1;stroke:#000000;stroke-width:3.36926;stroke-linecap:round;stroke-linejoin:round;stroke-miterlimit:4;stroke-dasharray:none;stroke-opacity:1"
         inkscape:connector-curvature="0" />
      <path
         d="m 370.54465,102.1575 c -1.63675,4.12657 -4.02989,8.2941 -7.44786,12.28077"
         id="path3044"
         style="fill:#787850;fill-opacity:1;stroke:#000000;stroke-width:3.36926;stroke-linecap:round;stroke-linejoin:round;stroke-miterlimit:4;stroke-dasharray:none;stroke-opacity:1"
         inkscape:connector-curvature="0" />
      <path
         d="m 408.69275,145.45472 c 0,0 11.42885,2.31466 17.51179,11.13766"
         id="path3046"
         style="fill:#787850;fill-opacity:1;stroke:#000000;stroke-width:3.36926;stroke-linecap:round;stroke-linejoin:round;stroke-miterlimit:4;stroke-dasharray:none;stroke-opacity:1"
         inkscape:connector-curvature="0" />
      <path
         d="m 87.761461,111.53102 c 5.05358,5.05358 9.188119,8.27021 10.566679,13.78331"
         id="path3048"
         style="fill:#787850;fill-opacity:1;stroke:#000000;stroke-width:3.36926;stroke-linecap:round;stroke-linejoin:round;stroke-miterlimit:4;stroke-dasharray:none;stroke-opacity:1"
         inkscape:connector-curvature="0" />
      <path
         d="m 158.20333,570.02248 c 1.8085,-1.35922 3.66251,-3.2826 5.50059,-5.94759"
         id="path3050"
         style="fill:#787850;fill-opacity:1;stroke:#000000;stroke-width:3.36926;stroke-linecap:round;stroke-linejoin:round;stroke-miterlimit:4;stroke-dasharray:none;stroke-opacity:1"
         inkscape:connector-curvature="0" />
      <path
         d="m 316.88663,107.56936 c 1.61855,1.04644 3.38611,1.87107 5.36864,2.15429"
         id="path3058"
         style="fill:#787850;fill-opacity:1;stroke:#000000;stroke-width:3.36926;stroke-linecap:round;stroke-linejoin:round;stroke-miterlimit:4;stroke-dasharray:none;stroke-opacity:1"
         inkscape:connector-curvature="0" />
      <path
         d="m 302.67564,93.372026 c 0,0 -1.72206,2.152008 -4.73396,3.011901 -2.9175,0.833733 -7.34549,0.343503 -4.73397,2.152008 0.97478,0.675631 1.90405,1.114677 2.80262,1.394483"
         id="path3060"
         style="fill:#787850;fill-opacity:1;stroke:#000000;stroke-width:3.36926;stroke-linecap:round;stroke-linejoin:round;stroke-miterlimit:4;stroke-dasharray:none;stroke-opacity:1"
         inkscape:connector-curvature="0" />
      <path
         d="m 296.0126,99.930418 c 4.25511,1.323962 7.81639,-0.9452 12.2569,1.187472 2.63427,1.26482 5.31746,4.3188 8.61713,6.45147 0,0 -4.95804,6.88711 -13.56493,7.3182 -8.6069,0.42994 -8.58642,-11.12857 -7.3091,-14.957142 z"
         id="path3062"
         style="fill:#848484;fill-opacity:1;stroke:#000000;stroke-width:3.36926;stroke-linecap:round;stroke-linejoin:round;stroke-miterlimit:4;stroke-dasharray:none;stroke-opacity:1"
         inkscape:connector-curvature="0" />
      <path
         d="m 302.19337,100.21364 c -2.01893,0.13308 -4.00942,0.39241 -6.1819,-0.283222 -1.16586,3.494172 -1.27961,13.421612 5.25035,14.803582 1.90064,-1.36945 3.21778,-4.28922 3.21778,-7.6833 0,-2.80489 -0.90084,-5.28561 -2.28623,-6.83706 z m 0.2218,8.16785 c -0.56871,0.1672 -1.36264,-0.97933 -1.77097,-2.56035 -0.41061,-1.58102 -0.28094,-2.99711 0.28777,-3.16204 0.56985,-0.16606 1.3615,0.98046 1.77211,2.56148 0.40947,1.57875 0.28094,2.99598 -0.28891,3.16091 z"
         id="path3066"
         style="fill:#848484;fill-opacity:1;stroke:#000000;stroke-width:3.36926;stroke-miterlimit:4;stroke-dasharray:none;stroke-opacity:1"
         inkscape:connector-curvature="0" />
    </g>
  </g>
  <g
     id="layer2"
     style="display:inline" />
  <g
     id="layer1"
     style="display:inline" />
</svg>
