<?xml version="1.0" encoding="UTF-8" standalone="no"?>
<svg
   xmlns:dc="http://purl.org/dc/elements/1.1/"
   xmlns:cc="http://creativecommons.org/ns#"
   xmlns:rdf="http://www.w3.org/1999/02/22-rdf-syntax-ns#"
   xmlns:svg="http://www.w3.org/2000/svg"
   xmlns="http://www.w3.org/2000/svg"
   xmlns:sodipodi="http://sodipodi.sourceforge.net/DTD/sodipodi-0.dtd"
   xmlns:inkscape="http://www.inkscape.org/namespaces/inkscape"
   version="1.0"
   inkscape:output_extension="org.inkscape.output.svg.inkscape"
   sodipodi:docname="variant-lion-sejant-erect-1.svg"
   inkscape:version="1.0rc1 (09960d6, 2020-04-09)"
   sodipodi:version="0.32"
   id="svg2"
   height="380"
   width="390">
  <defs
     id="defs4">
    <inkscape:perspective
       id="perspective10"
       inkscape:persp3d-origin="372.04724 : 350.78739 : 1"
       inkscape:vp_z="744.09448 : 526.18109 : 1"
       inkscape:vp_y="0 : 1000 : 0"
       inkscape:vp_x="0 : 526.18109 : 1"
       sodipodi:type="inkscape:persp3d" />
    <inkscape:perspective
       sodipodi:type="inkscape:persp3d"
       inkscape:vp_x="0 : 526.18109 : 1"
       inkscape:vp_y="0 : 1000 : 0"
       inkscape:vp_z="744.09448 : 526.18109 : 1"
       inkscape:persp3d-origin="372.04724 : 350.78739 : 1"
       id="perspective2498" />
    <inkscape:perspective
       sodipodi:type="inkscape:persp3d"
       inkscape:vp_x="0 : 526.18109 : 1"
       inkscape:vp_y="0 : 1000 : 0"
       inkscape:vp_z="744.09448 : 526.18109 : 1"
       inkscape:persp3d-origin="372.04724 : 350.78739 : 1"
       id="perspective2831" />
    <inkscape:perspective
       sodipodi:type="inkscape:persp3d"
       inkscape:vp_x="0 : 526.18109 : 1"
       inkscape:vp_y="0 : 1000 : 0"
       inkscape:vp_z="744.09448 : 526.18109 : 1"
       inkscape:persp3d-origin="372.04724 : 350.78739 : 1"
       id="perspective2556" />
    <inkscape:perspective
       sodipodi:type="inkscape:persp3d"
       inkscape:vp_x="0 : 526.18109 : 1"
       inkscape:vp_y="0 : 1000 : 0"
       inkscape:vp_z="744.09448 : 526.18109 : 1"
       inkscape:persp3d-origin="372.04724 : 350.78739 : 1"
       id="perspective2491" />
  </defs>
  <sodipodi:namedview
     inkscape:window-maximized="0"
     inkscape:document-rotation="0"
     inkscape:guide-bbox="true"
     showguides="true"
     inkscape:window-y="25"
     inkscape:window-x="0"
     inkscape:window-height="711"
     inkscape:window-width="1280"
     showgrid="false"
     inkscape:current-layer="layer3"
     inkscape:document-units="px"
     inkscape:cy="81.849891"
     inkscape:cx="191.46302"
     inkscape:zoom="2.8408886"
     inkscape:pageshadow="2"
     inkscape:pageopacity="0.0"
     objecttolerance="10"
     guidetolerance="10"
     gridtolerance="10000"
     borderopacity="1.0"
     bordercolor="#666666"
     pagecolor="#ffffff"
     id="base" />
  <metadata
     id="metadata7">
    <rdf:RDF>
      <cc:Work
         rdf:about="">
        <dc:format>image/svg+xml</dc:format>
        <dc:type
           rdf:resource="http://purl.org/dc/dcmitype/StillImage" />
      </cc:Work>
    </rdf:RDF>
  </metadata>
  <g
     inkscape:label="bottom"
     id="layer1"
     inkscape:groupmode="layer" />
  <g
     style="opacity:1"
     inkscape:label="Main"
     id="layer3"
     inkscape:groupmode="layer">
    <g
       transform="translate(-8.8353414,-12.048193)"
       id="g2497">
      <g
         id="g2495"
         transform="matrix(0.9761868,0.2169318,-0.2169318,0.9761868,46.145639,-40.260671)">
        <g
           transform="translate(10.208305,-24.068985)"
           id="g2431">
          <path
             style="fill:#214263;fill-opacity:1;fill-rule:evenodd;stroke:#000000;stroke-width:3.33525825;stroke-linecap:butt;stroke-linejoin:miter;stroke-miterlimit:4;stroke-dasharray:none;stroke-opacity:1"
             d="M 204.29666,170.51885 C 204.29666,170.51885 246.65776,199.23311 262.22663,214.52881 C 270.86011,223.0108 280.04096,236.45482 287.19645,246.21598 C 293.80676,255.23343 303.1969,267.00957 308.1711,277.02296 C 311.51745,283.75938 312.37114,294.29133 316.16144,300.78833 C 320.45428,308.14674 328.25115,315.89861 330.92164,323.59986 C 333.17155,330.08824 333.30152,336.98674 333.51917,344.96138 C 333.63003,349.02348 335.01274,354.61388 334.13971,358.00128 C 332.54518,364.18814 327.80188,372.61805 322.1542,375.60527 C 320.03525,376.72605 314.16385,375.60527 314.16385,375.60527 L 313.16506,380.00625 L 212.05021,385.93884 L 197.53325,382.60696 L 197.84984,372.9862 L 208.47493,368.22264 C 208.47493,368.22264 205.46862,366.31761 225.44446,370.71861 C 245.42032,375.11961 253.97929,362.52311 253.97929,362.52311 C 253.97929,362.52311 241.67507,353.43231 237.29011,347.60066 C 232.12524,340.7318 229.46238,328.96069 228.05885,320.48206 C 227.1101,314.75074 227.39148,306.88853 228.05885,301.11768 C 228.69365,295.62841 229.42491,287.92577 232.26286,283.18435 C 234.92937,278.72935 240.39012,273.57652 245.24716,271.74175 C 247.7699,270.78877 251.84509,269.96272 254.51172,270.36462 C 260.71302,271.29927 274.21214,277.90315 274.21214,277.90315 C 274.21214,277.90315 257.04587,269.05026 249.24233,269.98136 C 243.67633,270.64548 237.28156,276.39987 237.28156,276.39987 C 237.28156,276.39987 221.42703,264.12476 211.00925,259.60474 C 206.8956,257.81993 193.00623,257.58723 193.00623,257.58723 L 139.94718,192.23634 L 204.29666,170.51885 z"
             id="path2564"
             sodipodi:nodetypes="cssssssssccccccscsssssscscsccc" />
          <path
             style="opacity:1;fill:#214263;fill-opacity:1;fill-rule:evenodd;stroke:#000000;stroke-width:3.33525825;stroke-linecap:butt;stroke-linejoin:miter;stroke-miterlimit:4;stroke-dasharray:none;stroke-opacity:1"
             d="M 218.72091,166.27643 C 218.72091,166.27643 263.62746,204.32402 279.19633,219.61972 C 287.82981,228.10171 297.01066,241.54573 304.16615,251.30689 C 310.77646,260.32434 320.1666,272.10048 325.1408,282.11387 C 328.48715,288.85029 329.34084,299.38224 333.13114,305.87924 C 337.42398,313.23765 345.22085,320.98952 347.89134,328.69077 C 350.14125,335.17915 350.27122,342.07765 350.48887,350.05229 C 350.59973,354.11439 351.98244,359.70479 351.10941,363.09219 C 349.51488,369.27905 344.77158,377.70896 339.1239,380.69618 C 337.00495,381.81696 331.13355,380.69618 331.13355,380.69618 L 330.13476,385.09716 L 226.13892,404.89435 L 213.21992,407.66189 L 196.17515,389.05076 L 199.17153,377.60818 L 216.151,374.08737 C 216.151,374.08737 206.16308,374.08737 226.13892,378.48837 C 246.11478,382.88937 274.20237,366.61298 274.20237,366.61298 C 274.20237,366.61298 258.64477,358.52322 254.25981,352.69157 C 249.09494,345.82271 246.43208,334.0516 245.02855,325.57297 C 244.0798,319.84165 244.36118,311.97944 245.02855,306.20859 C 245.66335,300.71932 246.39461,293.01668 249.23256,288.27526 C 251.89907,283.82026 257.35982,278.66743 262.21686,276.83266 C 264.7396,275.87968 268.81479,275.05363 271.48142,275.45553 C 277.68272,276.39018 291.18184,282.99406 291.18184,282.99406 C 291.18184,282.99406 274.01557,274.14117 266.21203,275.07227 C 260.64603,275.73639 250.23134,284.75447 250.23134,284.75447 C 250.23134,284.75447 241.16469,278.41875 230.74691,273.89873 C 226.63326,272.11392 221.10227,269.75129 216.76381,268.61753 C 198.55435,263.85888 170.13773,264.48304 153.88415,254.99356 C 143.99354,249.21903 131.20579,229.17065 131.20579,229.17065 L 154.37143,187.99392 L 218.72091,166.27643 z"
             id="path2407"
             sodipodi:nodetypes="csssssssscccccccscsssssscscsssccc" />
        </g>
        <path
           sodipodi:nodetypes="ccssc"
           id="path2457"
           d="M 241.95955,366.45416 L 231.13837,367.1878 C 231.13837,367.1878 226.82082,364.73908 224.90244,365.17028 C 222.39593,365.73368 219.73435,368.70281 218.6665,371.0394 C 218.11713,372.24151 217.56605,375.62464 217.56605,375.62464"
           style="fill:none;fill-rule:evenodd;stroke:#000000;stroke-width:2.5;stroke-linecap:butt;stroke-linejoin:miter;stroke-miterlimit:4;stroke-dasharray:none;stroke-opacity:1" />
        <path
           sodipodi:nodetypes="csscc"
           id="path2459"
           d="M 211.08497,367.89883 C 211.08497,367.89883 212.86298,361.07748 214.75318,359.27857 C 216.12984,357.96837 218.72209,356.92696 220.62229,356.89424 C 222.38019,356.86398 226.12459,358.91175 226.12459,358.91175 L 237.31259,358.91175"
           style="fill:none;fill-rule:evenodd;stroke:#000000;stroke-width:2.5;stroke-linecap:butt;stroke-linejoin:miter;stroke-miterlimit:4;stroke-dasharray:none;stroke-opacity:1" />
        <path
           sodipodi:nodetypes="csssscss"
           id="path3245"
           d="M 203.47436,360.37366 C 204.38492,359.61215 206.40261,360.07901 207.55247,360.37366 C 208.43827,360.60066 209.39489,361.60213 209.8181,362.41272 C 210.32533,363.38424 210.67524,365.01893 210.27121,366.0377 C 209.32802,368.41604 203.90339,370.19897 202.56811,372.38144 C 201.91404,373.4505 199.1697,377.81893 199.1697,377.81893 C 199.1697,377.81893 197.41807,371.7551 197.58375,369.43613 C 197.74214,367.21952 201.76966,361.79931 203.47436,360.37366 z"
           style="fill:#848401;fill-rule:evenodd;stroke:#000000;stroke-width:2.5;stroke-linecap:butt;stroke-linejoin:miter;stroke-miterlimit:4;stroke-dasharray:none;stroke-opacity:1" />
        <path
           sodipodi:nodetypes="csssscss"
           id="path3247"
           d="M 209.0868,367.61316 C 209.99737,366.85166 212.01505,367.31852 213.16491,367.61318 C 214.05071,367.84017 215.00733,368.84164 215.43053,369.65222 C 215.93777,370.62374 216.28768,372.25845 215.88366,373.27721 C 214.94046,375.65555 209.51583,377.43848 208.18055,379.62095 C 207.52648,380.69 204.78213,385.05843 204.78213,385.05843 C 204.78213,385.05843 203.0305,378.99461 203.19619,376.67565 C 203.35457,374.45903 207.3821,369.03882 209.0868,367.61316 z"
           style="fill:#848401;fill-rule:evenodd;stroke:#000000;stroke-width:2.5;stroke-linecap:butt;stroke-linejoin:miter;stroke-miterlimit:4;stroke-dasharray:none;stroke-opacity:1" />
        <path
           sodipodi:nodetypes="csssscss"
           id="path3249"
           d="M 217.60823,374.18106 C 218.51878,373.41956 220.53647,373.8864 221.68634,374.18106 C 222.57214,374.40807 223.52875,375.40952 223.95195,376.22012 C 224.45918,377.19164 224.80909,378.82634 224.40507,379.8451 C 223.46187,382.22344 218.03725,384.00637 216.70198,386.18883 C 216.0479,387.25789 213.30355,391.62632 213.30355,391.62632 C 213.30355,391.62632 211.55192,385.5625 211.71761,383.24353 C 211.87599,381.02692 215.90353,375.6067 217.60823,374.18106 z"
           style="fill:#848401;fill-rule:evenodd;stroke:#000000;stroke-width:2.5;stroke-linecap:butt;stroke-linejoin:miter;stroke-miterlimit:4;stroke-dasharray:none;stroke-opacity:1" />
        <path
           sodipodi:nodetypes="csss"
           id="path3251"
           d="M 341.23748,355.8623 C 341.23748,355.8623 339.4906,350.63212 339.54226,348.3109 C 339.64033,343.90429 343.17432,338.5349 343.39502,334.13273 C 343.45135,333.00924 342.77859,330.43408 342.77859,330.43408"
           style="fill:none;fill-rule:evenodd;stroke:#000000;stroke-width:2.5;stroke-linecap:butt;stroke-linejoin:miter;stroke-miterlimit:4;stroke-dasharray:none;stroke-opacity:1" />
        <path
           sodipodi:nodetypes="cc"
           id="path3314"
           d="M 278.41124,250.98255 C 265.23823,253.16094 259.88077,262.33221 256.40224,273.18461"
           style="fill:none;fill-rule:evenodd;stroke:#000000;stroke-width:3;stroke-linecap:butt;stroke-linejoin:miter;stroke-miterlimit:4;stroke-dasharray:none;stroke-opacity:1" />
      </g>
      <g
         id="g3261"
         transform="translate(-399.67121,1.232221)">
        <path
           sodipodi:nodetypes="cssssssssscsssssscssssscsssscssssssscssssssscsssssssscssssssssssscsscssssssscsssscsssssssssssssc"
           id="path3254"
           d="M 673.30769,268.42471 C 673.30769,268.42471 668.33311,254.76568 668.41013,250.66204 C 668.45563,248.23793 671.35424,238.13836 671.98916,236.25296 C 673.71872,231.11698 678.98604,225.68829 682.48899,221.5532 C 686.8081,216.45466 692.52897,209.27453 698.23874,205.80345 C 704.02727,202.2845 713.00663,198.49254 719.76339,198.97856 C 725.17337,199.36771 732.65521,202.61373 736.03813,206.85344 C 737.3487,208.49593 737.90663,211.59765 737.6131,213.67833 C 737.38659,215.28396 736.33809,217.5049 734.98815,218.40325 C 733.80083,219.19339 731.44758,219.72281 730.26322,218.92824 C 728.35888,217.65064 728.16326,211.57836 728.16326,211.57836 C 728.16326,211.57836 723.95799,216.77578 723.96332,219.45323 C 723.96795,221.77865 725.57161,225.21203 727.63826,226.27812 C 731.02371,228.02452 738.34821,227.86123 741.81303,226.27812 C 745.66756,224.51695 749.01378,219.12455 750.73789,215.2533 C 752.08349,212.23195 751.90763,207.32217 750.73789,204.22848 C 749.47504,200.88854 745.79486,197.34183 742.86302,195.30362 C 741.06183,194.05144 736.03813,192.67867 736.03813,192.67867 C 736.03813,192.67867 743.79335,190.98593 747.06295,190.05371 C 750.89466,188.96123 756.55475,188.34693 759.66275,185.85378 C 761.81183,184.12985 763.94636,180.69841 764.38767,177.9789 C 764.85286,175.11229 764.45288,170.46449 762.28771,168.52906 C 758.98105,165.57326 751.47973,164.82694 747.58794,166.95408 C 746.0428,167.79861 744.96298,172.204 744.96298,172.204 C 744.96298,172.204 750.07108,171.08831 751.78787,172.204 C 753.08851,173.04925 754.27842,175.42773 753.88784,176.92892 C 753.49127,178.45315 751.21497,179.69333 749.68791,180.07887 C 746.59963,180.85858 742.36859,178.33129 739.18808,178.5039 C 736.09829,178.67158 729.21324,181.12885 729.21324,181.12885 C 729.21324,181.12885 737.50395,172.74235 740.23806,168.52906 C 742.69312,164.74579 744.7304,159.01125 746.53796,154.87928 C 748.51905,150.35063 750.2656,143.87553 752.83786,139.65452 C 754.23357,137.3642 756.12882,133.84137 758.61276,132.82963 C 761.68972,131.57634 767.13394,131.69554 769.63759,133.87961 C 771.71033,135.68777 771.91303,140.0595 771.73755,142.80447 C 771.6517,144.14739 771.2358,146.19262 770.16258,147.0044 C 768.65002,148.1485 763.86268,147.52939 763.86268,147.52939 C 763.86268,147.52939 765.09008,151.43199 766.48764,152.25432 C 768.52378,153.45239 772.22601,153.26259 774.36251,152.25432 C 777.49928,150.774 780.05741,146.37769 781.71239,143.32946 C 783.20972,140.5716 785.10963,136.48298 784.86234,133.35462 C 784.47381,128.4395 780.67163,122.44022 777.51246,118.65486 C 775.99872,116.84108 773.43841,114.72166 771.21256,113.92994 C 767.49985,112.60934 761.86898,112.29561 758.08777,113.40495 C 756.24302,113.94616 752.83786,117.07989 752.83786,117.07989 C 752.83786,117.07989 754.50502,106.39162 753.88784,101.85513 C 753.50508,99.041722 751.15636,95.738594 750.73789,92.930275 C 749.66911,85.757739 749.26921,75.580952 751.78787,68.780665 C 753.73575,63.521473 758.13916,56.185338 763.33769,54.080902 C 766.57917,52.768704 772.04408,53.620184 774.8875,55.655877 C 776.60562,56.885934 778.03745,59.842725 778.03745,61.955775 C 778.03745,63.71665 776.68557,65.989161 775.41249,67.20569 C 774.29102,68.27734 772.17083,69.759589 770.68757,69.305656 C 769.26679,68.870844 768.06261,65.105724 768.06261,65.105724 C 768.06261,65.105724 764.59082,69.698678 764.91266,71.930614 C 765.39056,75.244777 768.95922,79.782656 772.26254,80.330479 C 776.92639,81.103931 782.89323,76.093576 785.91232,72.455606 C 789.85681,67.702528 793.50766,59.159311 792.73721,53.030919 C 792.17054,48.523479 788.23097,42.771597 784.33735,40.431122 C 778.91093,37.169279 769.66016,37.996617 763.33769,38.331156 C 759.48199,38.535172 756.94042,38.714873 753.79639,40.956114 C 752.54413,41.848796 749.4574,44.612643 748.11293,45.359269 C 745.3586,46.888837 742.68048,46.123734 739.75823,47.301173 C 737.69228,48.133592 732.51648,55.58724 731.90594,57.276011 C 730.15286,62.1251 728.41653,69.124798 727.6096,76.135338 C 726.91223,82.194137 727.63826,87.155368 727.63826,87.155368 C 727.63826,87.155368 717.18801,77.652684 715.43645,73.639377 C 714.67003,71.883299 715.08808,69.067553 715.91571,67.339478 C 716.78058,65.533628 721.73296,65.159917 721.73296,65.159917 C 721.73296,65.159917 718.492,61.576169 716.37466,60.82281 C 714.48581,60.150746 711.44281,60.823143 709.78855,61.955775 C 707.51526,63.512244 706.01554,67.245241 705.06363,69.830648 C 703.7396,73.426726 704.05625,78.662981 705.04839,82.364398 C 705.9464,85.714653 708.13632,88.655238 710.31354,91.355301 C 712.70675,94.32322 715.65489,98.481069 718.18842,101.33014 C 719.96455,103.32747 722.46912,105.8788 724.48831,107.63004 C 726.27304,109.17793 730.78821,112.35496 730.78821,112.35496 C 730.78821,112.35496 719.70854,109.92058 715.03847,110.77999 C 711.22852,111.48112 705.85562,113.48817 703.48865,116.55489 C 701.62018,118.97574 700.6092,123.5727 701.38869,126.52973 C 702.29886,129.9825 705.93755,134.15549 709.26356,135.45459 C 713.54068,137.12519 724.48831,133.87961 724.48831,133.87961 C 724.48831,133.87961 719.13724,130.45923 717.13843,128.6297 C 716.06732,127.6493 713.8526,126.40044 713.98848,124.95476 C 714.17722,122.94666 717.22206,120.8045 719.2384,120.75483 C 722.73435,120.66872 726.58015,124.78956 728.68825,127.57972 C 730.91083,130.52141 732.16944,133.98958 732.16166,137.67649 C 732.15493,140.86556 730.54771,146.20792 729.21324,149.10437 C 727.32486,153.20306 724.52672,158.58611 721.86336,162.22916 C 717.91755,167.62638 711.31631,173.72703 706.6386,178.5039 C 700.32672,184.94958 691.53234,193.16392 685.11395,199.50356 C 679.56762,204.98184 671.58301,211.76996 666.73925,217.87826 C 663.39912,222.09038 659.40271,228.16011 657.2894,233.10301 C 655.30713,237.73941 653.84334,244.39204 653.08947,249.37775 C 652.59443,252.65173 652.68129,255.80546 653.33672,259.05114 C 654.13155,262.9871 655.15621,263.91671 655.15621,263.91671"
           style="fill:#214263;fill-opacity:1;fill-rule:evenodd;stroke:#000000;stroke-width:3;stroke-linecap:butt;stroke-linejoin:miter;stroke-miterlimit:4;stroke-dasharray:none;stroke-opacity:1" />
        <path
           sodipodi:nodetypes="csss"
           id="path3256"
           d="M 750.97523,42.947533 C 750.97523,42.947533 744.18926,51.224281 742.55988,53.85397 C 741.1241,56.171204 739.14366,59.312 738.40906,61.937146 C 737.91328,63.70886 737.97213,68.054144 737.97213,68.054144"
           style="fill:none;fill-rule:evenodd;stroke:#000000;stroke-width:2.5;stroke-linecap:butt;stroke-linejoin:miter;stroke-miterlimit:4;stroke-dasharray:none;stroke-opacity:1" />
        <path
           sodipodi:nodetypes="csc"
           id="path3258"
           d="M 727.04892,86.842067 C 727.04892,86.842067 732.08668,92.613984 733.38438,95.580636 C 734.18796,97.417684 734.69517,102.13456 734.69517,102.13456"
           style="fill:none;fill-rule:evenodd;stroke:#000000;stroke-width:2.5;stroke-linecap:butt;stroke-linejoin:miter;stroke-miterlimit:4;stroke-dasharray:none;stroke-opacity:1" />
      </g>
      <path
         style="fill:none;fill-rule:evenodd;stroke:#000000;stroke-width:3;stroke-linecap:butt;stroke-linejoin:miter;stroke-miterlimit:4;stroke-dasharray:none;stroke-opacity:1"
         d="M 276.93747,272.38754 C 270.66288,268.64728 266.46856,264.42308 253.3814,266.44731"
         id="path2511"
         sodipodi:nodetypes="cc" />
    </g>
    <g
       transform="matrix(0.7385056,-0.6742474,0.6742474,0.7385056,7.9806687,68.488838)"
       id="g3107"
       style="opacity:1">
      <path
         style="opacity:1;fill:#214263;fill-opacity:1;fill-rule:evenodd;stroke:#000000;stroke-width:3;stroke-linecap:butt;stroke-linejoin:miter;stroke-miterlimit:4;stroke-dasharray:none;stroke-opacity:1"
         d="M 49.865714,57.49293 C 49.865714,57.49293 59.774444,50.201742 64.655474,50.589825 C 66.141294,50.707964 66.801774,52.716211 68.768964,53.376194 C 70.884264,54.085873 75.395494,55.940914 77.144374,54.555441 C 78.933714,53.137913 79.595294,47.351669 79.595294,47.351669 C 79.595294,47.351669 77.604664,38.904313 75.059374,36.43455 C 72.286524,33.743984 63.022824,31.853487 63.022824,31.853487 L 54.915994,38.691895 L 49.865714,57.49293 z"
         id="path8115"
         sodipodi:nodetypes="cssscsccc" />
      <path
         style="opacity:1;fill:#214263;fill-opacity:1;fill-rule:evenodd;stroke:#000000;stroke-width:3;stroke-linecap:butt;stroke-linejoin:miter;stroke-miterlimit:4;stroke-dasharray:none;stroke-opacity:1"
         d="M 118.64895,194.65909 C 118.64895,194.65909 58.796294,224.0808 20.953505,194.41774 C 13.998811,188.96631 7.443008,178.26687 4.657633,169.88071 C 3.252581,165.6504 3.839296,155.04478 3.839296,155.04478 C 3.839296,155.04478 -4.344512,153.63445 -7.22378,155.28682 C -9.33771,156.49997 -10.734041,159.88817 -11.474974,162.21012 C -12.277241,164.72428 -12.064731,170.9872 -12.064731,170.9872 C -12.064731,170.9872 -16.956645,164.50604 -17.422412,161.18815 C -17.913821,157.68759 -16.300731,152.90944 -14.834803,149.69284 C -13.491784,146.74594 -11.374599,144.56921 -8.419919,143.24339 C -6.266344,142.27705 -0.975472,141.01052 -0.975472,141.01052 C -0.975472,141.01052 -0.407203,132.06949 0.320934,128.00905 C 0.959074,124.45046 3.735597,116.45176 3.735597,116.45176 C 3.735597,116.45176 0.950605,115.24424 -0.32541,115.14163 C -1.466714,115.04985 -3.083784,115.18707 -4.098269,115.71793 C -5.544131,116.47453 -7.691824,118.04226 -7.838471,119.66752 C -7.99388,121.38988 -4.688027,124.49501 -4.688027,124.49501 C -4.688027,124.49501 -7.885167,125.32499 -9.004524,124.67173 C -11.349905,123.30297 -13.213417,119.32935 -13.130842,116.61503 C -13.007136,112.54859 -9.386452,107.50572 -6.226735,104.94301 C -4.307847,103.38668 -0.884865,102.54009 1.574474,102.30355 C 4.098973,102.06074 9.951985,103.43695 9.951985,103.43695 C 9.951985,103.43695 9.345167,97.542125 10.142172,95.203517 C 10.729813,93.479238 13.090423,92.013274 13.7383,90.310718 C 14.577798,88.104598 13.160945,84.439634 14.47213,82.476854 C 18.344142,76.680642 35.013464,71.617424 35.013464,71.617424 C 35.013464,71.617424 22.649299,77.706585 17.380539,76.24127 C 15.008192,75.581491 11.655946,70.359142 11.655946,70.359142 L 15.44226,57.23291 C 15.44226,57.23291 18.545597,53.94833 20.269751,54.082466 C 24.325818,54.398023 30.343504,63.161144 30.343504,63.161144 L 24.874403,55.792164 L 30.867954,47.637493 L 38.845884,49.314544 C 38.845884,49.314544 29.340164,47.858782 27.062441,44.840505 C 25.766378,43.123049 26.453487,37.694363 26.453487,37.694363 L 34.077974,30.738402 C 34.077974,30.738402 38.577084,28.305848 40.136824,29.330312 C 44.325464,32.081491 43.129744,45.764521 43.129744,45.764521 L 42.344054,34.301882 L 46.916054,32.638289 L 48.500874,43.013647 L 47.315624,32.094644 L 52.254534,26.514125 L 54.429114,28.112404 C 54.429114,28.112404 51.110634,24.063509 51.267784,22.160485 C 51.451774,19.932413 52.688624,17.460426 54.767854,16.638878 C 57.984594,15.367883 65.948754,19.274507 65.948754,19.274507 C 65.948754,19.274507 72.641494,23.79747 73.037904,26.717772 C 73.374664,29.198651 72.406784,31.546645 70.673144,33.352926 C 69.230144,34.856387 64.129544,35.800286 64.129544,35.800286 C 64.129544,35.800286 58.836744,47.07301 57.631404,52.236409 C 56.226704,58.253839 55.651214,66.59187 55.940904,72.764286 C 56.216084,78.62763 59.112484,86.163822 59.366034,92.028139 C 59.754404,101.01034 55.602304,116.37671 54.156094,125.25022 C 52.317734,136.52976 57.989244,153.87653 57.989244,153.87653 L 122.45679,185.52207 C 122.45679,185.52207 118.64895,194.65909 118.64895,194.65909 z"
         id="path8042"
         sodipodi:nodetypes="csscsscssscscssscsssscssscsccsccccsccscccccccsscsscssssccc" />
      <path
         style="opacity:1;fill:none;fill-rule:evenodd;stroke:#000000;stroke-width:2.5;stroke-linecap:butt;stroke-linejoin:miter;stroke-miterlimit:4;stroke-dasharray:none;stroke-opacity:1"
         d="M 3.523318,116.35367 C 3.523318,116.35367 6.853593,117.28246 8.155901,117.96805 C 10.070854,118.97615 11.883047,121.6619 13.968453,122.24018 C 16.479612,122.93651 20.096015,122.0932 22.617455,121.43505 C 24.305644,120.99439 27.932967,119.07511 27.932967,119.07511"
         id="path8134"
         sodipodi:nodetypes="cssss" />
      <path
         style="opacity:1;fill:none;fill-rule:evenodd;stroke:#000000;stroke-width:2.5;stroke-linecap:butt;stroke-linejoin:miter;stroke-miterlimit:4;stroke-dasharray:none;stroke-opacity:1"
         d="M 9.238324,103.09674 C 9.238324,103.09674 13.484558,106.26367 16.401265,106.09587"
         id="path8136"
         sodipodi:nodetypes="cs" />
      <path
         style="opacity:1;fill:none;fill-rule:evenodd;stroke:#000000;stroke-width:2.5;stroke-linecap:butt;stroke-linejoin:miter;stroke-miterlimit:4;stroke-dasharray:none;stroke-opacity:1"
         d="M 28.604324,81.219325 C 28.604324,81.219325 21.439095,95.732743 22.974549,102.78258 C 24.058128,107.75767 30.017034,114.11954 30.017034,114.11954"
         id="path8152"
         sodipodi:nodetypes="css" />
      <path
         style="opacity:1;fill:#848401;fill-rule:evenodd;stroke:#000000;stroke-width:2.5;stroke-linecap:butt;stroke-linejoin:miter;stroke-miterlimit:4;stroke-dasharray:none;stroke-opacity:1"
         d="M 71.981964,40.609199 C 71.180674,41.928504 70.653624,44.144761 70.973904,45.654746 C 71.218654,46.80862 72.157604,48.404128 73.243114,48.865635 C 74.699484,49.484808 76.193974,49.91919 77.556654,49.114525 C 81.251164,46.932901 84.760094,43.242665 86.039654,39.147345 C 87.008224,36.047374 86.948104,31.241901 85.499804,28.33495 C 84.833154,26.996895 84.169764,25.780098 82.796044,25.190442 C 81.414324,24.597356 77.684114,23.747842 77.684114,23.747842 C 77.684114,23.747842 79.626394,26.644932 79.901994,28.078284 C 80.210004,29.680169 79.940244,31.95465 79.394874,33.492003 C 78.708264,35.427469 77.131984,36.07401 75.745094,37.588607 C 74.767464,38.656266 72.733444,39.371888 71.981964,40.609199 z"
         id="path8154"
         sodipodi:nodetypes="csssssscssss" />
      <path
         style="opacity:1;fill:#848401;fill-opacity:1;fill-rule:evenodd;stroke:#000000;stroke-width:2.5;stroke-linecap:butt;stroke-linejoin:miter;stroke-miterlimit:4;stroke-dasharray:none;stroke-opacity:1"
         d="M 51.282854,6.6579229 C 51.282854,6.6579229 55.097774,2.869711 58.021464,2.7381293 C 60.967344,2.6055472 65.052434,3.940652 67.376214,5.7560882 C 68.959114,6.992716 70.484484,9.479017 70.912784,11.441512 C 71.731624,15.193512 71.511844,19.525915 69.780814,22.953969 C 69.055204,24.390924 68.053984,26.118996 66.584974,26.777286 C 64.895844,27.534211 62.862204,27.094634 61.355344,26.019695 C 60.276404,25.250007 59.906964,22.689141 59.756104,21.372408 C 59.367394,17.979789 62.608284,14.334584 61.521744,11.097235 C 61.183434,10.089266 60.153434,8.9796886 59.318904,8.3208994 C 58.572474,7.7316652 57.307944,7.3829434 56.446104,6.980961 C 55.153344,6.3779879 51.282854,6.6579229 51.282854,6.6579229 z"
         id="path8156"
         sodipodi:nodetypes="cssssssssssc" />
      <path
         style="opacity:1;fill:#848401;fill-opacity:1;fill-rule:evenodd;stroke:#000000;stroke-width:2.5;stroke-linecap:butt;stroke-linejoin:miter;stroke-miterlimit:4;stroke-dasharray:none;stroke-opacity:1"
         d="M 29.509354,37.332102 C 30.386124,37.755311 31.626414,38.675637 32.566244,38.421574 C 33.919534,38.055735 35.243244,36.210031 35.578004,34.848716 C 36.051414,32.923527 36.298454,31.228721 35.216024,29.567755 C 34.605064,28.630247 30.226314,26.58773 29.153584,26.269249 C 26.486689,25.477486 24.399188,25.523992 21.883964,26.712636 C 19.593575,27.795025 16.982502,30.526075 16.162248,32.922878 C 15.520319,34.798613 16.111773,37.621633 16.723352,39.507486 C 17.097311,40.660629 18.808477,42.968831 18.808477,42.968831 C 18.808477,42.968831 20.387795,37.88867 22.040607,36.471841 C 23.003573,35.646364 24.810712,35.032019 26.069256,35.18944 C 27.275696,35.340348 28.414398,36.803571 29.509354,37.332102 z"
         id="path8158"
         sodipodi:nodetypes="cssssssscsss" />
      <path
         style="opacity:1;fill:#848401;fill-opacity:1;fill-rule:evenodd;stroke:#000000;stroke-width:2.5;stroke-linecap:butt;stroke-linejoin:miter;stroke-miterlimit:4;stroke-dasharray:none;stroke-opacity:1"
         d="M 16.78617,58.841819 C 18.349339,58.841611 19.650125,61.492331 19.873147,63.039509 C 20.108902,64.675014 19.235063,67.124568 17.995997,68.217808 C 16.608034,69.442423 13.823947,69.727028 11.978687,69.581633 C 9.385706,69.377324 5.755269,68.215185 3.927591,66.364544 C 1.982688,64.395204 0.592569,60.522763 0.611394,57.754988 C 0.631703,54.769569 2.411381,50.81835 4.314359,48.517951 C 5.142247,47.517168 7.959797,46.182361 7.959797,46.182361 C 7.959797,46.182361 6.369217,50.348131 6.649948,52.163383 C 7.039213,54.680421 8.998061,57.811666 10.886573,59.520627 C 11.876556,60.416484 15.853661,58.841945 16.78617,58.841819 z"
         id="path8160"
         sodipodi:nodetypes="csssssscsss" />
    </g>
    <g
       transform="matrix(0.9847973,0.1737077,-0.1737077,0.9847973,110.92574,-10.203235)"
       id="g3097"
       style="opacity:1">
      <path
         style="opacity:1;fill:#214263;fill-opacity:1;fill-rule:evenodd;stroke:#000000;stroke-width:3;stroke-linecap:butt;stroke-linejoin:miter;stroke-miterlimit:4;stroke-dasharray:none;stroke-opacity:1"
         d="M -33.040364,193.23746 C -31.78512,192.86285 -29.923198,192.75802 -28.674656,193.15439 C -27.682863,193.46924 -26.506232,194.3777 -25.879793,195.20857 C -24.203654,197.43172 -24.142979,201.5582 -22.653304,203.91036 C -20.230471,207.73597 -12.101836,214.70409 -12.101836,214.70409 L -29.080461,218.68405 L -44.514663,209.36588 L -43.822191,202.91143 C -43.822191,202.91143 -41.499929,198.99648 -40.098119,197.6723 C -38.280292,195.95513 -35.436566,193.95257 -33.040364,193.23746 z"
         id="path7806"
         sodipodi:nodetypes="csssccccss" />
      <path
         style="opacity:1;fill:#f8c300;fill-opacity:1;fill-rule:evenodd;stroke:#000000;stroke-width:1px;stroke-linecap:butt;stroke-linejoin:miter;stroke-opacity:1"
         d="M -33.018581,193.38008 L -33.018581,193.38008 z"
         id="path7808" />
      <path
         style="opacity:1;fill:#214263;fill-opacity:1;fill-rule:evenodd;stroke:#000000;stroke-width:3;stroke-linecap:butt;stroke-linejoin:miter;stroke-miterlimit:4;stroke-dasharray:none;stroke-opacity:1"
         d="M 119.43143,144.10261 L 54.594894,164.83093 L -10.197593,203.07365 L -28.303087,214.20146 L -33.989626,211.54913 C -33.989626,211.54913 -38.732636,204.84867 -41.820437,203.50282 C -43.885913,202.60256 -49.328915,203.32939 -49.328915,203.32939 L -52.985063,219.73206 C -52.985063,219.73206 -51.734049,223.56066 -50.476402,224.63026 C -49.142468,225.76475 -44.921257,226.42243 -44.921257,226.42243 L -39.658658,223.41798 C -39.077327,222.62704 -23.375905,221.90946 -20.509897,222.98149 C -19.818353,223.24016 -18.649218,221.61696 -19.052347,220.99838 C -19.492085,220.3236 -21.805235,221.75756 -23.872061,222.01658 C -26.568964,222.35456 -27.920774,223.3938 -29.160509,223.45356 C -33.914598,223.6827 -33.936632,224.24744 -36.917001,226.96025 C -38.211996,228.13899 -38.709156,232.5154 -38.709156,232.5154 L -24.301861,246.15891 C -24.301861,246.15891 -17.255294,247.03256 -15.204454,245.20941 C -12.79518,243.06763 -14.181529,237.65965 -12.844681,234.72628 C -11.849557,232.54274 -10.250084,227.20043 -8.107638,228.28118 C -6.072835,229.30764 -11.660152,231.19325 -13.161343,234.58733 C -15.00538,238.75656 -13.119732,244.45086 -13.119732,244.45086 L -7.039027,249.68367 C -7.039027,249.68367 4.355698,249.00604 8.312536,246.4585 C 8.93333,246.05881 9.781979,245.21364 9.770086,244.4754 C 9.714559,241.02752 2.668051,235.43754 2.668051,235.43754 C 2.668051,235.43754 3.234835,234.07876 4.171341,233.74555 C 6.258208,233.00306 9.447748,236.60254 9.447748,236.60254 L 18.587217,227.2844 L 16.32906,235.55143 C 16.32906,235.55143 23.232131,233.36887 26.207941,231.10748 C 28.412404,229.43225 30.823664,226.30587 31.673754,223.67083 C 32.240484,221.91414 33.203654,220.21816 33.203654,220.21816 C 33.203654,220.21816 34.479674,225.73716 33.819474,229.06587 C 33.422844,231.06572 29.366424,235.46887 29.366424,235.46887 C 29.366424,235.46887 33.339444,234.47252 34.823164,233.57797 C 37.977854,231.676 42.045794,228.43647 43.794754,225.19445 C 45.166514,222.65166 45.509784,218.59085 45.425754,215.70286 C 45.326764,212.30073 45.183734,211.21202 45.183734,211.21202 C 45.183734,211.21202 46.137404,212.08312 46.868604,214.2792 C 47.674084,216.69834 48.252224,220.59316 47.964194,223.67734 C 47.684784,226.66914 43.621314,232.70292 43.621314,232.70292 L 49.950084,229.52021 L 55.108274,224.34656 L 62.599244,209.99882 C 62.599244,209.99882 76.691645,206.12896 82.150024,208.33281 C 84.263485,209.18613 89.564758,218.45947 99.304811,210.9722 C 118.65444,196.09796 147.49829,158.14857 147.49829,158.14857 L 134.05422,141.869 L 119.43143,144.10261 z"
         id="path3268"
         sodipodi:nodetypes="cccccsccsccsssssccssssccsscscccsscscssscssccccssccc" />
      <path
         style="opacity:1;fill:#848401;fill-rule:evenodd;stroke:#000000;stroke-width:2.5;stroke-linecap:butt;stroke-linejoin:miter;stroke-miterlimit:4;stroke-dasharray:none;stroke-opacity:1"
         d="M -29.830166,198.31424 C -30.072662,195.45067 -31.727923,192.68142 -34.100762,191.06019 C -36.141464,189.66588 -39.751137,189.55542 -42.220258,189.66497 C -44.77254,189.77821 -48.434401,190.27827 -50.452524,191.84485 C -51.508425,192.66449 -52.072804,193.55576 -52.22853,194.88336 C -52.375354,196.13503 -52.153527,198.82509 -52.153527,198.82509 C -52.153527,198.82509 -50.263907,196.9029 -49.19002,196.65937 C -47.574904,196.29311 -45.313157,197.09006 -43.76391,197.67536 C -42.153753,198.28368 -40.387579,199.86898 -38.835041,200.61212 C -37.74632,201.13325 -36.268333,201.94425 -35.063254,202.01258 C -33.770421,202.08589 -31.846501,201.83094 -30.872902,200.97719 C -30.227836,200.41153 -29.75777,199.16912 -29.830166,198.31424 z"
         id="path8205"
         sodipodi:nodetypes="csssscssssss" />
      <path
         style="opacity:1;fill:#848401;fill-rule:evenodd;stroke:#000000;stroke-width:2.5;stroke-linecap:butt;stroke-linejoin:miter;stroke-miterlimit:4;stroke-dasharray:none;stroke-opacity:1"
         d="M -41.60921,210.91884 C -41.785252,212.45723 -43.171321,214.41566 -44.515556,215.1842 C -45.707299,215.86556 -47.757792,215.85017 -49.081458,215.48632 C -50.787538,215.01735 -52.216005,212.5392 -53.940566,212.14358 C -55.997383,211.67174 -58.952358,212.37932 -60.89406,213.20571 C -62.165347,213.74677 -63.732571,214.89174 -64.551507,216.00452 C -65.608915,217.44134 -66.597646,221.58798 -66.597646,221.58798 C -66.597646,221.58798 -68.765334,214.25622 -67.913647,211.24717 C -67.235675,208.85186 -64.722306,206.24749 -62.707308,204.78567 C -60.895735,203.47143 -57.947307,202.45954 -55.732299,202.13897 C -53.668308,201.84027 -50.765971,201.96465 -48.800305,202.66139 C -46.924339,203.32633 -44.57951,204.87739 -43.347454,206.44054 C -42.455355,207.57238 -41.445364,209.48704 -41.60921,210.91884 z"
         id="path8207"
         sodipodi:nodetypes="cssssscssssss" />
      <path
         style="opacity:1;fill:#848401;fill-rule:evenodd;stroke:#000000;stroke-width:2.5;stroke-linecap:butt;stroke-linejoin:miter;stroke-miterlimit:4;stroke-dasharray:none;stroke-opacity:1"
         d="M -26.744474,239.2196 C -25.70647,237.44402 -26.166205,235.26052 -27.461487,233.66289 C -28.888904,231.90227 -31.830694,229.79211 -34.092926,229.93201 C -35.726447,230.03302 -36.952592,232.46364 -38.14743,233.5821 C -39.619952,234.9605 -41.746196,236.66463 -42.96563,238.27126 C -44.21312,239.91487 -45.679967,242.32878 -46.260117,244.30896 C -46.609302,245.5008 -46.984293,247.27428 -46.551752,248.43846 C -45.928347,250.11635 -42.347239,252.67183 -42.347239,252.67183 C -42.347239,252.67183 -43.603,248.70727 -43.064246,247.11511 C -42.580742,245.68624 -40.822568,244.31263 -39.524821,243.54369 C -37.423092,242.29838 -34.094833,241.76922 -31.698526,241.29406 C -29.780375,240.91371 -27.731385,240.90779 -26.744474,239.2196 z"
         id="path8209"
         sodipodi:nodetypes="csssssscssss" />
      <path
         style="opacity:1;fill:#848401;fill-rule:evenodd;stroke:#000000;stroke-width:2.5;stroke-linecap:butt;stroke-linejoin:miter;stroke-miterlimit:4;stroke-dasharray:none;stroke-opacity:1"
         d="M 2.612635,245.93604 C 3.68063,248.05967 4.674241,250.31518 4.298944,252.66242 C 3.888841,255.22733 1.424789,258.34727 -0.828727,259.639 C -2.254298,260.45614 -3.852547,261.06496 -5.494809,261.0106 C -7.223948,260.95336 -11.178461,260.03395 -11.178461,260.03395 C -11.178461,260.03395 -8.590404,258.13652 -7.669452,257.12604 C -6.589222,255.94079 -4.965719,254.28531 -4.654013,252.71225 C -4.250794,250.67733 -6.65149,247.94153 -6.082783,245.94652 C -5.731363,244.71377 -4.362511,243.20565 -3.128191,242.85975 C -1.813863,242.49144 0.147586,243.25318 1.267778,244.0331 C 1.841482,244.43253 2.298555,245.31151 2.612635,245.93604 z"
         id="path8211"
         sodipodi:nodetypes="cssscssssss" />
    </g>
    <g
       transform="matrix(0.9973338,-7.2975072e-2,7.2975072e-2,0.9973338,223.51895,-18.178476)"
       id="g2674"
       style="opacity:1">
      <g
         id="g6176"
         transform="translate(-176.76768,-4.2424243)">
        <path
           sodipodi:nodetypes="cssssssscssssssscc"
           id="path6066"
           d="M 134.43287,106.73789 C 134.43287,106.73789 124.88537,101.01476 120.17727,100.44602 C 116.83138,100.04184 112.22665,100.03865 108.9213,100.64743 C 104.17441,101.52171 97.200259,106.80176 92.405339,107.44368 C 90.147959,107.74589 88.259066,108.02125 86.635751,106.61309 C 83.730477,104.09287 85.923737,99.07968 84.125625,95.86181 C 83.246343,94.288261 81.062291,92.662713 79.301637,91.833633 C 77.121917,90.807215 73.718227,89.963812 71.261666,90.222363 C 69.731687,90.383391 66.667396,92.236451 66.667396,92.236451 C 66.667396,92.236451 70.724339,94.225698 71.721093,95.660402 C 73.907992,98.808169 72.294218,104.4814 74.247941,107.74494 C 75.017954,109.03117 76.854274,110.26697 78.153069,111.16888 C 79.48733,112.09542 81.339958,113.37887 82.977056,113.78719 C 86.622682,114.6965 91.908419,114.49673 95.611299,113.78719 C 100.13011,112.9213 105.10502,107.88179 109.62382,107.0159 C 113.05739,106.35798 117.88001,107.60268 121.33921,108.14775 C 123.87163,108.54679 129.37917,110.76606 129.37917,110.76606 L 134.43287,106.73789 z"
           style="fill:#840101;fill-opacity:1;fill-rule:evenodd;stroke:#000000;stroke-width:2.5;stroke-linecap:butt;stroke-linejoin:miter;stroke-miterlimit:4;stroke-dasharray:none;stroke-opacity:1" />
        <path
           sodipodi:nodetypes="csssscss"
           id="path6139"
           d="M 101.32901,87.929025 C 101.78121,86.468636 102.19672,86.950396 103.63785,86.440139 C 105.08929,85.926231 105.06144,85.650321 106.21624,86.668763 C 107.26275,87.591698 107.55351,87.241967 107.71782,88.627602 C 108.14178,92.202789 107.69561,95.787299 106.32772,99.117554 C 105.74687,100.53171 104.15578,102.35641 104.15578,102.35641 C 104.15578,102.35641 102.98993,100.97867 102.45378,99.282672 C 101.32065,95.698207 100.21706,91.520121 101.32901,87.929025 z"
           style="fill:#848484;fill-rule:evenodd;stroke:#000000;stroke-width:2.5;stroke-linecap:butt;stroke-linejoin:miter;stroke-miterlimit:4;stroke-dasharray:none;stroke-opacity:1;fill-opacity:1" />
        <path
           sodipodi:nodetypes="csssscss"
           id="path6141"
           d="M 103.2283,115.38629 C 103.18621,116.91451 103.73471,116.59218 104.93482,117.53927 C 106.1435,118.49314 106.0283,118.74539 107.44951,118.153 C 108.73745,117.61616 108.90013,118.04089 109.50183,116.78194 C 111.05433,113.53363 111.78603,109.99635 111.56324,106.40302 C 111.46864,104.87714 110.54978,102.63732 110.54978,102.63732 C 110.54978,102.63732 109.00242,103.56632 107.94875,104.99938 C 105.72186,108.02813 103.3318,111.6284 103.2283,115.38629 z"
           style="opacity:1;fill:#848484;fill-rule:evenodd;stroke:#000000;stroke-width:2.5;stroke-linecap:butt;stroke-linejoin:miter;stroke-miterlimit:4;stroke-dasharray:none;stroke-opacity:1;fill-opacity:1" />
        <g
           transform="translate(-537.30128,8.114194)"
           id="g6049"
           style="opacity:1">
          <path
             style="opacity:1;fill:#214263;fill-opacity:1;fill-rule:evenodd;stroke:#000000;stroke-width:3;stroke-linecap:butt;stroke-linejoin:miter;stroke-miterlimit:4;stroke-dasharray:none;stroke-opacity:1"
             d="M 688.4389,102.204 C 688.4389,102.204 673.8908,117.3264 666.38925,122.15367 C 659.27057,126.73456 647.59341,128.74946 640.48967,133.35349 C 633.31795,138.00158 624.63652,145.7803 619.49001,152.60318 C 615.95537,157.28915 612.91924,164.6528 610.74015,170.1029 C 608.7426,175.09895 608.8751,183.07011 605.49023,187.25262 C 604.13011,188.93325 601.25778,190.12001 599.19034,190.75257 C 594.55434,192.17102 587.39767,189.92686 583.0906,192.15255 C 579.05362,194.23868 574.49945,199.32193 573.29075,203.70236 C 572.61122,206.16504 573.08888,210.11208 574.69073,212.10222 C 576.46341,214.3046 583.44059,215.60217 583.44059,215.60217 C 583.44059,215.60217 580.32758,210.23392 580.99063,207.90229 C 581.5202,206.04005 584.01228,204.17193 585.89055,203.70236 C 588.70795,202.99801 592.4586,205.44304 595.3404,205.80233 C 598.88445,206.24419 603.68131,206.45196 607.24021,206.15232 C 609.90771,205.92773 615.99006,204.40235 615.99006,204.40235 C 615.99006,204.40235 613.33852,212.80827 614.24009,216.30216 C 614.9327,218.98627 618.90113,221.04384 619.84,223.65204 C 620.72977,226.12383 620.91738,229.87755 620.19,232.4019 C 618.95623,236.68363 611.79013,244.6517 611.79013,244.6517 C 611.79013,244.6517 622.88943,241.23662 626.4899,238.00181 C 629.57085,235.23376 632.67221,230.16229 633.48978,226.102 C 634.26362,222.25889 630.51379,216.87581 631.73981,213.15221 C 633.29568,208.42679 643.28962,201.2524 643.28962,201.2524 C 643.28962,201.2524 643.7707,209.91929 644.6896,213.5022 C 645.30962,215.91974 648.41296,218.77306 647.83955,221.20208 C 647.07024,224.46095 640.91779,225.54742 639.43969,228.55196 C 637.95361,231.57271 638.16604,236.43451 638.7397,239.75178 C 639.14848,242.11562 640.28975,245.31415 641.88965,247.10166 C 644.30427,249.79942 648.88857,252.12858 652.38948,253.05156 C 653.60783,253.37277 656.58941,253.05156 656.58941,253.05156 C 656.58941,253.05156 649.4787,248.51779 648.18955,245.35169 C 647.47572,243.59856 647.73916,240.76713 648.53954,239.05179 C 649.51324,236.96498 652.38042,235.28803 654.13945,233.80187 C 656.65793,231.67407 660.8025,229.70453 662.88931,227.15198 C 665.0294,224.53424 666.93877,220.27465 667.78923,217.00215 C 668.68872,213.54101 668.48922,205.10234 668.48922,205.10234 C 668.48922,205.10234 668.21667,211.54967 669.92306,214.56348 C 670.94731,216.3725 675.0447,219.46656 676.18909,221.20208 C 677.12289,222.61822 678.45317,224.76365 678.28906,226.45199 C 678.08337,228.56807 675.5383,230.58203 674.43912,232.4019 C 673.44259,234.05182 671.28917,238.00181 671.28917,238.00181 C 671.28917,238.00181 680.69223,233.64034 683.88897,230.65192 C 686.76095,227.9671 690.57742,223.67754 691.23885,219.8021 C 691.58591,217.76862 690.1226,215.11535 689.48888,213.15221 C 689.03961,211.76047 688.16688,210.00072 687.73891,208.60228 C 687.32896,207.26275 686.2609,205.38621 686.68892,204.05235 C 687.41626,201.78571 692.63883,198.80244 692.63883,198.80244 C 692.63883,198.80244 691.35972,203.20005 691.58885,205.10234 C 691.97135,208.27796 695.78878,214.90218 695.78878,214.90218 C 695.78878,214.90218 696.22957,208.92856 697.88874,207.2023 C 700.78818,204.18562 707.53123,205.03494 711.18853,203.00237 C 715.41925,200.65112 720.45962,196.3176 723.43833,192.50254 C 726.76157,188.24622 729.98727,181.59003 731.4882,176.4028 C 732.36809,173.36188 731.06483,168.70487 732.53818,165.90297 C 734.20256,162.73778 739.59806,161.14028 741.63804,158.20309 C 743.22951,155.91167 743.02865,151.61843 744.78799,149.45323 C 746.80941,146.96549 752.50111,146.74329 753.88784,143.85332 C 755.35272,140.80049 753.48409,135.88973 752.48786,132.65351 C 750.99575,127.80644 744.78799,117.60375 744.78799,117.60375 L 743.03802,94.854115 L 731.4882,81.204335 L 682.139,94.854115 L 688.4389,102.204 z"
             id="path5995"
             sodipodi:nodetypes="cssssssssscsssscssscssscsssssscssssscsssscssssscscsssssssssccccc" />
          <path
             style="opacity:1;fill:#214263;fill-opacity:1;fill-rule:evenodd;stroke:#000000;stroke-width:3;stroke-linecap:butt;stroke-linejoin:miter;stroke-miterlimit:4;stroke-dasharray:none;stroke-opacity:1"
             d="M 729.60318,47.735499 C 729.60318,47.735499 732.24825,44.269376 733.04677,41.322563 C 733.53356,39.526117 733.18283,34.258858 732.87163,31.642389 C 732.58006,29.191036 731.75403,28.225806 731.75403,28.225806 C 731.75403,28.225806 731.26886,31.223122 730.57986,32.770179 C 729.42117,35.371868 724.69758,40.221774 724.69758,40.221774 C 724.69758,40.221774 725.50524,36.775678 725.40323,35.282258 C 725.08815,30.669549 721.16935,20.46371 721.16935,20.46371 C 721.16935,20.46371 719.41438,30.458301 716.93548,33.870968 C 714.79501,36.817726 711.95439,35.852058 708.51279,37.043843 C 699.90181,40.025721 684.22043,37.753376 674.38912,41.700717 C 670.3392,43.326792 662.02526,49.084862 662.02526,49.084862 C 662.02526,49.084862 651.67677,52.636266 645.92038,51.588613 C 643.80577,51.203757 641.33659,49.273281 639.22525,49.675719 C 635.48312,50.389002 632.47141,50.314048 629.34196,51.269797 C 625.40434,52.472365 625.18829,60.748331 626.47262,64.660051 C 626.90292,65.970626 628.67863,67.150147 629.02315,68.485839 C 629.59845,70.716268 627.70196,73.937746 628.38552,76.137413 C 629.19232,78.733675 631.66736,81.987112 634.1242,83.151355 C 637.49502,84.748715 642.70602,83.391005 646.23919,82.194908 C 650.11679,80.882211 654.31442,81.229401 656.44129,77.73149 C 657.29909,76.320727 659.94826,71.036363 659.94826,71.036363 C 659.94826,71.036363 666.15995,75.52935 667.59983,79.325568 C 668.85531,82.635615 668.78452,87.916731 667.28102,91.121745 C 665.0647,95.84628 659.07408,100.70967 654.20958,102.59911 C 649.84005,104.2963 642.88295,101.04086 638.58762,102.91792 C 635.1786,104.40767 631.80126,105.76737 630.61723,109.29424 C 629.85077,111.57729 629.37363,116.38841 630.93604,118.22107 C 632.743,120.34058 636.55699,118.35975 637.94999,120.77159 C 638.73892,122.13754 638.58762,127.46672 638.58762,127.46672 C 638.58762,127.46672 644.77572,123.44772 646.23919,120.77159 C 647.16727,119.07448 647.19564,114.39528 647.19564,114.39528 C 647.19564,114.39528 662.36525,115.41571 668.8751,115.35173 C 673.37933,115.30746 681.1044,116.40695 685.13469,114.39528 C 688.2906,112.82005 690.79276,108.92175 691.511,105.46845 C 691.7759,104.1948 690.23574,101.32384 690.23574,101.32384 C 690.23574,101.32384 692.55274,99.89701 693.74272,101.00502 C 696.69016,103.74944 697.79814,107.1808 697.88731,111.20713 C 698.04408,118.28568 697.15769,128.75086 694.06153,135.11829 C 692.24519,138.85369 688.99499,143.75995 685.42525,147.28986 C 683.9747,148.72422 682.47139,149.93132 680.99009,150.74026 C 677.37955,152.71197 671.40758,152.70518 667.91865,154.88486 C 665.56629,156.35448 662.84168,159.12946 661.54234,161.57999 C 660.48776,163.56891 659.8032,166.66622 659.94826,168.91275 C 660.1315,171.75056 663.13642,177.83958 663.13642,177.83958 L 665.6008,170.56846 L 678.13094,164.55399 C 678.13094,164.55399 694.66931,160.86719 700.68518,157.03591 C 707.32387,152.80798 707.4836,150.40644 707.4836,150.40644 C 707.4836,150.40644 706.00382,159.47115 698.17915,166.55882 C 695.73253,168.77499 688.65625,172.07208 688.65625,172.07208 C 688.65625,172.07208 702.13338,171.08946 707.20085,168.56364 C 713.2025,165.57219 719.84121,158.98302 723.74063,153.52747 C 727.26523,148.59632 732.75345,131.75389 732.75345,131.75389 C 732.75345,131.75389 728.47675,115.96083 725.24425,108.41899 C 723.48606,104.31692 717.22496,95.888851 717.22496,95.888851 C 717.22496,95.888851 723.33249,104.56779 725.22814,108.67765 C 729.42713,117.78126 735.26835,140.55149 735.26835,140.55149 C 735.26835,140.55149 740.04931,125.94866 740.78161,119.44551 C 741.32029,114.66182 741.53579,108.05428 740.28041,103.40693 C 739.21015,99.444866 733.76474,91.378002 733.76474,91.378002 C 733.76474,91.378002 738.90131,99.790013 740.22505,103.76723 C 741.7301,108.28919 740.1751,115.45877 742.78644,119.44551 C 745.82585,124.0858 752.77702,129.4105 758.3238,129.46961 C 760.61884,129.49407 763.34543,127.20228 764.83947,125.45997 C 766.85727,123.10685 769.20523,119.01633 768.84912,115.93707 C 768.61417,113.90547 764.83947,110.42381 764.83947,110.42381 C 764.83947,110.42381 762.99203,115.28375 761.67523,116.75933 C 760.53375,118.03845 758.34092,117.54288 756.88258,116.64157 C 755.5782,115.83542 755.76176,111.88264 755.51987,110.36845 C 754.32538,102.89124 758.90482,94.082934 756.29583,88.010465 C 755.40749,85.942815 752.49435,80.42972 749.91596,78.778481 C 748.22899,77.698129 741.78403,74.838223 741.78403,74.838223 C 741.78403,74.838223 746.07556,72.080751 747.29728,70.327374 C 749.93417,66.542993 751.54705,60.341442 752.30934,55.792417 C 752.85604,52.52995 752.30934,44.765898 752.30934,44.765898 C 752.30934,44.765898 742.09446,45.104104 737.77438,45.768309 C 735.28226,46.151468 729.60318,47.735499 729.60318,47.735499 z"
             id="path5193"
             sodipodi:nodetypes="csscscscssscssssssssscssssssscscssscsssssssscccscscsscscscsscssssscssssscsscsc" />
          <g
             style="opacity:1"
             id="g5187"
             transform="translate(149.02369,7.1978252)">
            <path
               transform="matrix(-0.9158702,-0.4014745,-0.4014745,0.9158702,719.27797,-20.238666)"
               d="M 149.34544,142.89806 A 12.504578,7.3608503 0 1 1 124.33629,142.89806 A 12.504578,7.3608503 0 1 1 149.34544,142.89806 z"
               sodipodi:ry="7.3608503"
               sodipodi:rx="12.504578"
               sodipodi:cy="142.89806"
               sodipodi:cx="136.84087"
               id="path3163"
               style="fill:#848484;fill-opacity:1;fill-rule:evenodd;stroke:#000000;stroke-width:2.5;stroke-linecap:butt;stroke-linejoin:miter;marker:none;marker-start:none;marker-mid:none;marker-end:none;stroke-miterlimit:4;stroke-dasharray:none;stroke-dashoffset:0;stroke-opacity:1;visibility:visible;display:inline;overflow:visible;enable-background:accumulate"
               sodipodi:type="arc" />
            <path
               transform="translate(391.31753,-88.325583)"
               d="M 149.95408,141.35471 A 8.0072575,8.0072575 0 1 1 133.93957,141.35471 A 8.0072575,8.0072575 0 1 1 149.95408,141.35471 z"
               sodipodi:ry="8.0072575"
               sodipodi:rx="8.0072575"
               sodipodi:cy="141.35471"
               sodipodi:cx="141.94682"
               id="path3179"
               style="fill:#848484;fill-opacity:1;fill-rule:evenodd;stroke:#000000;stroke-width:2.5;stroke-linecap:butt;stroke-linejoin:miter;marker:none;marker-start:none;marker-mid:none;marker-end:none;stroke-miterlimit:4;stroke-dasharray:none;stroke-dashoffset:0;stroke-opacity:1;visibility:visible;display:inline;overflow:visible;enable-background:accumulate"
               sodipodi:type="arc" />
            <path
               sodipodi:nodetypes="csccsssssscscsssssc"
               id="path3183"
               d="M 533.92275,46.139841 C 533.31906,46.138131 532.77751,46.232281 532.23525,46.296091 C 531.15073,46.423711 530.23525,46.608591 530.23525,46.608591 L 531.0165,50.014841 C 531.0165,50.014841 531.76269,49.868251 532.6415,49.764841 C 533.52031,49.661431 534.62239,49.809301 534.454,49.733591 C 534.37759,49.699231 535.08646,50.492851 535.1415,50.671091 C 535.31812,51.243091 535.21539,53.377731 534.92867,53.956641 C 534.82818,54.159541 534.01078,54.877491 533.95992,54.894141 C 534.22007,54.808951 533.35632,54.883991 532.70992,54.769141 C 532.06353,54.654291 531.52242,54.519141 531.52242,54.519141 C 531.52242,54.519141 529.75144,54.308521 529.5004,54.887361 C 529.16761,55.654701 530.5165,57.483591 530.5165,57.483591 C 530.5165,57.483591 531.21311,57.647801 532.04775,57.796091 C 532.88239,57.944381 533.73386,58.205891 534.98525,57.796091 C 536.47701,57.307571 537.39657,56.360291 538.0165,55.108591 C 538.84857,53.428551 539.05237,51.476461 538.48525,49.639841 C 538.08242,48.335281 537.38331,47.216851 535.8915,46.546091 C 535.18438,46.228151 534.52644,46.141551 533.92275,46.139841 z"
               style="fill:#000000;fill-opacity:1;fill-rule:evenodd;stroke:none;stroke-width:3.5;stroke-linecap:butt;stroke-linejoin:miter;stroke-miterlimit:4;stroke-dasharray:none;stroke-opacity:1" />
            <path
               sodipodi:nodetypes="csssssssssssc"
               id="path3167"
               d="M 532.47164,40.771801 C 532.47164,40.771801 529.7101,41.202371 528.56951,41.658651 C 526.32936,42.554801 524.06991,44.584411 523.78052,46.979741 C 523.62922,48.232081 524.11404,49.296811 525.02211,50.172401 C 525.99869,51.114051 527.56902,50.997911 528.92425,51.059251 C 530.90892,51.149091 533.37186,49.586261 535.30956,49.817661 C 538.09936,50.150821 541.71683,51.860581 543.82332,53.719801 C 544.80864,54.589461 545.02696,56.728741 546.12912,57.444571 C 547.11996,58.088101 548.97587,58.507761 550.03126,57.976681 C 551.1162,57.430731 551.68017,55.605661 551.98233,54.429281 C 552.12795,53.862361 552.14727,53.039811 551.98233,52.478211 C 551.73277,51.628491 550.99851,50.634671 550.386,49.995031 C 549.6202,49.195311 547.37071,47.866591 547.37071,47.866591"
               style="fill:#214263;fill-opacity:1;fill-rule:evenodd;stroke:#000000;stroke-width:2.5;stroke-linecap:butt;stroke-linejoin:miter;stroke-miterlimit:4;stroke-dasharray:none;stroke-opacity:1" />
          </g>
          <path
             style="opacity:1;fill:none;fill-rule:evenodd;stroke:#000000;stroke-width:2.5;stroke-linecap:butt;stroke-linejoin:miter;stroke-miterlimit:4;stroke-dasharray:none;stroke-opacity:1"
             d="M 630.76519,66.030669 C 630.76519,66.030669 635.53134,59.267881 637.76028,58.344623 C 639.98922,57.421365 640.82474,57.55126 641.26446,58.344623 C 641.70418,59.137986 641.56838,60.389031 639.91669,62.02259 C 638.265,63.656149 630.76519,66.030669 630.76519,66.030669 z"
             id="path6013"
             sodipodi:nodetypes="csssc" />
          <path
             style="opacity:1;fill:#000000;fill-rule:evenodd;stroke:#000000;stroke-width:2.5;stroke-linecap:butt;stroke-linejoin:miter;stroke-miterlimit:4;stroke-dasharray:none;stroke-opacity:1"
             d="M 729.18784,59.26477 C 729.18784,59.26477 731.91427,54.879424 733.76034,53.803164 C 736.67227,52.105508 744.81057,51.770939 744.81057,51.770939 C 744.81057,51.770939 746.19035,58.845105 744.30251,60.788939 C 743.36995,61.749157 740.80409,60.224076 739.85702,61.169981 C 738.61216,62.413303 740.60685,65.782495 739.34896,67.012629 C 738.50268,67.840231 735.41153,67.266657 735.41153,67.266657 C 735.41153,67.266657 735.46636,62.260708 734.14138,60.788939 C 733.10109,59.633403 729.18784,59.26477 729.18784,59.26477 z"
             id="path6022"
             sodipodi:nodetypes="cscssscsc" />
          <path
             style="opacity:1;fill:none;fill-rule:evenodd;stroke:#000000;stroke-width:2.5;stroke-linecap:butt;stroke-linejoin:miter;stroke-miterlimit:4;stroke-dasharray:none;stroke-opacity:1"
             d="M 721.78715,61.84739 C 721.78715,61.84739 716.30988,72.901406 712.6506,76.606426 C 710.71883,78.562341 707.54322,80.704897 704.91968,81.526104 C 699.88525,83.101956 686.7598,83.997718 686.7598,83.997718 L 685.94378,85.040161 C 685.94378,85.040161 700.69876,81.220282 704.91968,85.040161 C 706.49078,86.461988 706.49702,90.138212 705.62249,92.068273 C 704.87392,93.720335 702.84625,96.022524 701.29241,96.958064 C 698.869,98.417156 692.46561,100.19226 692.46561,100.19226"
             id="path6018"
             sodipodi:nodetypes="cssccsssc" />
          <path
             style="opacity:1;fill:none;fill-rule:evenodd;stroke:#000000;stroke-width:2.5;stroke-linecap:butt;stroke-linejoin:miter;stroke-miterlimit:4;stroke-dasharray:none;stroke-opacity:1"
             d="M 717.57028,118.07229 C 717.57028,118.07229 718.39379,126.53163 717.57028,130.02008 C 716.27045,135.52626 713.83908,140.28667 710.99942,145.17992 C 709.85472,147.15245 706.78255,151.50522 706.78255,151.50522"
             id="path6020"
             sodipodi:nodetypes="csss" />
          <path
             style="fill:none;fill-rule:evenodd;stroke:#000000;stroke-width:2.5;stroke-linecap:butt;stroke-linejoin:miter;stroke-miterlimit:4;stroke-dasharray:none;stroke-opacity:1"
             d="M 629.01606,189.75904 C 629.01606,189.75904 622.68178,194.0192 620.38193,196.56699 C 618.68071,198.45162 615.66265,204.51807 615.66265,204.51807"
             id="path6039"
             sodipodi:nodetypes="css" />
          <path
             style="fill:none;fill-rule:evenodd;stroke:#000000;stroke-width:2.5;stroke-linecap:butt;stroke-linejoin:miter;stroke-miterlimit:4;stroke-dasharray:none;stroke-opacity:1"
             d="M 694.37751,179.21687 C 694.37751,179.21687 682.14701,183.09808 677.08243,186.54981 C 674.73845,188.14734 672.62873,191.5314 671.41337,194.09445 C 669.51414,198.0997 668.37349,205.54265 668.37349,205.54265"
             id="path6041"
             sodipodi:nodetypes="cssc" />
          <path
             style="fill:none;fill-rule:evenodd;stroke:#000000;stroke-width:2.5;stroke-linecap:butt;stroke-linejoin:miter;stroke-miterlimit:4;stroke-dasharray:none;stroke-opacity:1"
             d="M 693.01423,198.29015 C 693.01423,198.29015 699.96033,191.46178 702.81124,189.05622 C 706.6551,185.81282 714.04467,184.08221 716.86747,179.91968 C 718.6777,177.25031 718.9759,169.37751 718.9759,169.37751"
             id="path6043"
             sodipodi:nodetypes="csss" />
          <path
             style="opacity:1;fill:none;fill-rule:evenodd;stroke:#000000;stroke-width:2.5;stroke-linecap:butt;stroke-linejoin:miter;stroke-miterlimit:4;stroke-dasharray:none;stroke-opacity:1"
             d="M 627.61044,153.91566 C 627.61044,153.91566 627.06848,163.52816 625.50201,167.26908 C 623.17286,172.83138 618.17043,179.55369 613.55422,183.43373 C 611.02788,185.55718 603.71486,188.35341 603.71486,188.35341 C 603.71486,188.35341 603.71486,188.35341 603.71486,188.35341"
             id="path6037"
             sodipodi:nodetypes="cssss" />
        </g>
      </g>
      <path
         style="opacity:1;fill:none;fill-rule:evenodd;stroke:#000000;stroke-width:2.5;stroke-linecap:butt;stroke-linejoin:miter;stroke-miterlimit:4;stroke-dasharray:none;stroke-opacity:1"
         d="M -71.217589,207.30666 C -71.217589,207.30666 -68.994759,198.3666 -67.133379,194.66594 C -65.920099,192.25377 -61.510889,187.63783 -61.510889,187.63783"
         id="path6197"
         sodipodi:nodetypes="css" />
    </g>
  </g>
</svg>
