<?xml version="1.0" encoding="UTF-8" standalone="no"?>
<svg
   xmlns:dc="http://purl.org/dc/elements/1.1/"
   xmlns:cc="http://creativecommons.org/ns#"
   xmlns:rdf="http://www.w3.org/1999/02/22-rdf-syntax-ns#"
   xmlns:svg="http://www.w3.org/2000/svg"
   xmlns="http://www.w3.org/2000/svg"
   xmlns:sodipodi="http://sodipodi.sourceforge.net/DTD/sodipodi-0.dtd"
   xmlns:inkscape="http://www.inkscape.org/namespaces/inkscape"
   inkscape:version="1.0rc1 (09960d6, 2020-04-09)"
   sodipodi:docname="variant-lion-rampant-queue-fourche-1.svg"
   id="svg999"
   version="1.1"
   width="410"
   height="420">
  <metadata
     id="metadata1005">
    <rdf:RDF>
      <cc:Work
         rdf:about="">
        <dc:format>image/svg+xml</dc:format>
        <dc:type
           rdf:resource="http://purl.org/dc/dcmitype/StillImage" />
      </cc:Work>
    </rdf:RDF>
  </metadata>
  <defs
     id="defs1003" />
  <sodipodi:namedview
     inkscape:current-layer="svg999"
     inkscape:window-maximized="0"
     inkscape:window-y="25"
     inkscape:window-x="0"
     inkscape:cy="209.94875"
     inkscape:cx="155.16101"
     inkscape:zoom="1.4619916"
     showgrid="false"
     id="namedview1001"
     inkscape:window-height="789"
     inkscape:window-width="1394"
     inkscape:pageshadow="2"
     inkscape:pageopacity="0"
     guidetolerance="10"
     gridtolerance="10"
     objecttolerance="10"
     borderopacity="1"
     bordercolor="#666666"
     pagecolor="#ffffff" />
  <g
     id="g963"
     fill="#214263"
     stroke="#000"
     stroke-width="2.5">
    <path
       id="path833"
       d="m126.6 284.7s-11.4-8.6-11.2-13.4c0-1.4 1.7-2 2.3-3.4 0.6-1.5 0.9-3.2-0.3-4.6-1.5-2.2-6-1.6-8.6-1.1-3.7 0.8-9.68 6.4-9.68 6.4l-1.39 9.1 12.67 11.5 16.2-4.5z"
       stroke-width="3" />
    <path
       id="path835"
       d="m257.8 309.6s-37.6-6.4-53.9-6c-3.8 0-9.3 0.1-12.7 1.9-3 1.7-6 5.6-7.5 8.7-1.7 3.4-4.1 8.8-2.5 12.2 1.4 3.2 10.1 5.5 10.1 5.5s-8.2 2.6-11.7 1.6c-2.4-0.8-5.2-3.3-6.7-5.5-1-1.7-1.7-6.3-1.7-6.3s-3.3 3.2-5.4 3.7c-2.7 0.6-8.5-0.6-8.5-0.6s2.6-2.2 3.6-3.3c1.6-1.7 3.2-4 3.7-6.3 0.4-1.4-1.2-4.6-1.2-4.6s-0.7 2.8-1.4 3.9c-1.3 2.3-3.6 5.2-5.6 6.8-1.3 0.8-3.8 0.7-4.7 1.8-1.3 1.6-2.3 2.3-1.8 4.3 0.3 1.5 0.8 3.4 2.3 4 1 0.3 3 1.2 4 0.8 0.7-0.4 2.5-1.1 2.5-1.1s-1 3-3 4.7c-1.1 0.9-3 1-3.9 1.2-0.5 0.1-2.4 0.8-4.5-0.4-1.9-1.1-3.5-3.3-3.8-3.7 0 0-2.8-3.2-3.3-5-0.8-2.7-0.5-6.6 0.3-9.3 0.5-1.4 2.1-3 2.5-4.4 0.3-1.3-0.6-3.1-0.2-4.4 0.3-1.3 0.2-1.2 0.2-1.2s0.8 1.1-0.4 3c-1.5 2.3-5.3 8-5.3 8l-3.5-5.1-0.5-5.3s-0.2-1.8 0.3-2.2c0.6-0.3 1.7 0.7 2.3 0.5 1.6-0.7 1.4-4 1.4-4s0 3.1-1.6 3.9c-0.6 0.2-1.7-0.7-2.1-0.3-1.8 1.5-0.5 4.1 0.1 7.7 0.5 2.6 1.8 5.2 0.9 6.7-0.7 1.5-4.6 2.6-4.6 2.6l-11.7-4.2s-3.5-3.4-3.8-5.3c-0.6-3.1 1.3-11.3 1.3-11.3l-0.8-0.2-5 4.9s0.1 7.2-2.1 8.5c-1.7 0.8-5.9-2.2-5.9-2.2l-10.64-9.6s-0.59-3.9 0.1-5.3c1.12-2.2 6.27-4.8 6.27-4.8l-5.16-2.8s-6.51 3.5-9.23 2.5c-1.32-0.5-2.32-2.4-2.88-3.7-1.09-2.4-1.48-8.8-1.48-8.8l9.81-15.2s3.67-0.5 4.93 0.3c2.5 1.9 4.08 9.7 4.08 9.7s9.4 5.3 14 5.7c4.8 0.6 11-2.6 15.8-2.9 3.2-0.2 7.6-0.3 10.8 0.6 1.2 0.2 2.6 0.9 3.6 1.7 1.9 1.6 3.8 4.4 5.1 6.5 1.2 2.2 1.4 5.7 2.8 7.7 0.8 1 3.3 2.7 3.3 2.7s-4.7-7.4-6.5-10.7c-2-4-3.5-10.2-6.2-13.8-0.9-1.2-3-1.8-3.6-3-1-2.5-0.6-6.5 0.5-8.9 0.2-0.4 1.1-0.6 1-1 0.1-1.5-2.8-2.3-3.5-3.7-1.7-3-2.6-7.7-2.4-11.1 0.1-3 1-7.5 3.1-9.6 1.7-1.6 5.2-2.1 7.6-2 3.3-0.1 10.8 3 10.8 3s-5.7 0.9-7.7 2.2c-1.3 1-3 2.9-3.3 4.6-0.2 0.9 0.5 2.1 0.9 2.9 2 3.5 9 10 9 10s8.5-2.3 12.3-2.6c4.6-0.6 11-0.5 15.7 0.2 2.4 0.5 5.8 1.5 8.1 2.5 2.9 1.1 6 4.5 9.1 4.8 1.9 0.2 4.3-1.2 5.9-1.9 2-0.8 4.6-1.8 6-3.2 1.4-1.2 54.2-18.6 39-28.8l-31.5-21.4 48.3 29.8 22.1 33.3-30.1 39.4z"
       stroke-width="3" />
    <path
       id="path837"
       d="m85.85 55.69s2.58-12.04 6.49-14.99c1.21-0.92 3.02 0.16 4.95-0.67 2.04-0.86 6.71-2.5 7.01-4.69 0.4-2.22-3-6.96-3-6.96s-6.98-5.07-10.56-5.18c-3.84-0.21-12.03 4.54-12.03 4.54l-1.56 10.54 8.7 17.41z"
       stroke-width="3" />
    <path
       id="path839"
       d="m228.4 112.6s-25.2 61.7-73.3 64.7c-8.8 0.5-20.8-3.2-28.4-7.6-3.9-2.2-10.5-10.5-10.5-10.5s-7 4.4-8.1 7.5c-0.8 2.3 0.4 5.7 1.5 8 1 2.4 5.3 7 5.3 7s-8-1.6-10.5-3.8c-2.7-2.3-4.66-6.9-5.71-10.4-0.95-3-0.85-6.1 0.55-9 0.96-2.1 3.96-6.6 3.96-6.6s-5.45-7.1-7.56-10.6c-1.88-3.1-5.09-10.9-5.09-10.9s-2.92 1-3.94 1.7c-0.88 0.7-2.09 1.9-2.45 2.9-0.56 1.5-1.18 4.2-0.19 5.4 1.07 1.4 5.61 1.6 5.61 1.6s-1.9 2.7-3.08 3c-2.74 0.5-6.73-1.2-8.48-3.3-2.58-3.1-3.22-9.3-2.6-13.3 0.43-2.4 2.39-5.4 4.13-7.2 1.66-1.8 7.02-4.7 7.02-4.7s-4.48-4-5.38-6.3c-0.67-1.6 0.1-4.3-0.57-6-0.84-2.2-4.27-4.1-4.62-6.37-0.96-6.9 8.18-21.79 8.18-21.79s-5.21 12.77-10.15 15.2c-2.23 1.1-8.18-0.6-8.18-0.6l-5.88-12.34s0.1-4.47 1.48-5.52c3.25-2.45 13.6 0.1 13.6 0.1l-9.01-1.86-0.92-10.08 7.05-4.02s-8.02 5.17-11.72 4.41c-2.12-0.41-5.22-4.92-5.22-4.92l1.1-10.27s1.72-4.77 3.61-5.09c4.93-0.7 13.11 10.35 13.11 10.35l-8.17-8.09 2.3-4.25 8.09 6.68-8.13-7.38v-7.41l2.7-0.27s-5.16-0.85-6.35-2.32c-1.3-1.83-2.03-4.49-1-6.51 1.54-3.06 10.12-5.45 10.12-5.45s7.99-1.04 10.19 0.91c1.94 1.6 2.73 4.05 2.65 6.52-0.1 2.08-3.28 6.19-3.28 6.19s3.57 11.89 6.09 16.56c2.94 5.43 8.01 12.1 12.34 16.5 4.1 4.2 11.2 7.89 15.3 12.12 6.2 6.44 13.3 20.7 18.2 28.3 6.1 9.7 21.9 18.9 21.9 18.9l73-20.2-0.6 10.4z"
       stroke-width="3" />
    <path
       id="path841"
       d="m43.61 166.1c1.3-0.2 3.2 0 4.38 0.6 0.88 0.5 1.94 1.6 2.4 2.5 1.3 2.4 0.74 6.5 1.84 9.1 1.83 4.1 8.71 12.3 8.71 12.3l-17.37 1.3-13.74-11.7 1.65-6.2s2.84-3.5 4.49-4.6c2.06-1.4 5.22-3 7.64-3.3z"
       stroke-width="3" />
    <path
       id="path843"
       d="m201.9 141.3-67.2 10.4-70.01 27.7-19.64 8.2-5.17-3.5s-3.7-7.4-6.53-9.2c-1.86-1.2-7.36-1.4-7.36-1.4l-6.23 15.7s0.64 3.9 1.79 5.2c1.05 1.3 5.2 2.6 5.2 2.6l5.59-2.1c0.73-0.7 16.37 1 19.02 2.5 0.68 0.4 2.04-1 1.77-1.7-0.37-0.7-2.82 0.3-4.92 0.3-2.7-0.1-4.23 0.7-5.43 0.6-4.78-0.6-4.9 0-8.19 2.2-1.54 1-2.71 5.2-2.71 5.2l12.18 15.7s6.72 2 9.08 0.5c2.67-1.7 2.2-7.2 4.01-10 1.28-2 3.68-7 5.63-5.6 1.85 1.3-4 2.3-5.92 5.4-2.56 3.8-1.5 9.8-1.5 9.8l5.16 6.1s11.37 1.2 15.65-0.8c0.71-0.3 1.64-1 1.77-1.7 0.16-1.5 1.94-6 0.71-7.9-1.6-2.5-4.64-3.9-4.64-3.9s-0.72 0.3 0.19 0.1c2.22-0.4 4.65 3.8 4.65 3.8l10.42-7.7s0.6 2.6 0.45 3.7c-0.37 1.8-3.12 5.5-3.12 5.5s6.43-0.7 9.71-2.5c2.45-1.3 7.19-4.2 8.39-6.7 0.8-1.6 2-3.1 2-3.1s0.5 5.6-0.7 8.8c-0.7 1.9-3.4 4.6-3.4 4.6s3.7 0.2 6.9-0.4c2.8-0.7 5.2-2.2 6-2.5 0.1-0.1 3.8-1.9 6.2-6.1 2.4-4 1.1-3.9 4-5.3 0.7-0.3 0.8 3.1 0 6.7-0.7 3.2-2.6 6.5-2.6 6.6 3.5-0.5 14-3.3 18.2-6.2 7.1-4.9 10-15.8 11.5-15.1 6.2 2.8 22.1 3.2 27 7.9 4.8 4.5 16.7-3.1 22.7-0.4 9.6 4.3 25.2-43.7 25.2-43.7l-11-18.2-14.8-0.1z"
       stroke-width="3" />
    <path
       id="path845"
       d="m246.9 240.5c-4.4-1-10.7 0.1-15 1.2-2.4 0.6-7.6 3.2-7.6 3.2s5.8 3.1 8.3 4.3c5.2 2.2 12.8 3.3 17.5 6.2 4.2 2.6 8.6 7.7 11.7 11.5 3.5 4.4 9.9 15.9 9.9 15.9s1.6-21.6-3.1-28.9c-4-6.5-14.3-11.6-21.7-13.4z"
       stroke-width="3" />
    <path
       id="path847"
       d="m251.9 372.7s-7.3-5.4-8.5-8.9c-0.8-2.3 1.7-5.9 0.9-8.3-0.8-2.3-3.5-4.9-5.8-5.7-1.7-0.6-6 0.7-6 0.7l-5 11.5 3.6 4.6 7.3 6.5 13.5-0.4z"
       stroke-width="3" />
    <path
       id="path849"
       d="m163 132.3s-29.8 59.5-24.6 64c4.9 4.3 33.2 11.6 39.3 14.1 9.7 3.9 30.6 15.7 40.5 19.2 7.4 2.7 17.5 8.5 24.3 12.5 7.5 4.4 18.4 10.4 22.8 17.9 2.8 4.7 4.2 12.6 2.8 17.8-2 7.9-11.7 14.3-17.2 20.3-0.9 1-3.9 0.7-6.7 4-2.8 3.4-5.4 10.6-7.2 10.6-3 0.2-8.4-3.2-8.4-3.2s0.5 4 2.8 6.9c1.8 2.3 5.5 3.6 6.6 3.6 2.5 0 5.9-1.5 6.7-1.8 4-1.4 9.7-10.3 9.7-10.3s-10.5 11.5-10.7 17.8c-0.1 2.7 2.3 4.9 1.8 7.6-0.5 2.9-1.3 6.1-4.3 6.3-4.2 0.4-9.9-1.3-9.9-1.3s2.5 4.5 6.5 6.7c2.5 1.4 5.6 1.6 8.3 0.6 6-2.2 13-7.9 16.5-13.2 2.1-3.1 3.5-11.9 3.5-11.9s-6.3 13.2-4.9 18.9c0.9 4 6.6 8.6 6.6 8.6s-7.2 2.5-10.5 4.6c-5.3 3.4-13 16.6-13 16.6s-8.1-3.1-11-5.3c-2-1.4-3.1-5.2-5.5-5.9-1.6-0.5-5.6 1.5-5.6 1.5l-4.1 17.1s2.1 4.9 4.1 5.5c3.3 1.2 7.4-2.7 11.1-3.1 3.6-0.3 11 1.1 11 1.1l-13.2 7.8-0.7 5.3 10.3 9.6s6.9-0.8 8.6-2.9c2.5-2.8 2.2-12.3 2.2-12.3s2.5 2.8 3.1 4.8c0.8 2.4-0.5 6.9-0.5 6.9l5 4.6 10 1s4.4-3 4.6-5c0.5-3.5-5.8-10.4-5.8-10.4l11.1-1.5 1.8-8.4s3.3 10.9 7 13.3c2.5 1.6 6.9 1.5 9.6 0.5 2.3-0.8 5.9-5.4 5.9-5.4s-4.2 1.6-6 1.1c-1.6-0.5-4.1-2.1-4.1-3.8 0-3.1 7.6-7.2 7.6-7.2s6.6 3.7 9.7 4c2.3 0.2 5.8 0 7.4-1.6 1.7-1.7 1.4-7.9 1.4-7.9s-1.9 3.1-3.8 3.2c-1.9 0.2-5.3-0.7-6.1-2.4-1.5-3.2 1.7-11.8 1.7-11.8s7 2.1 10.1 0.6c1.3-0.6 3.5-3 3.7-5.2 0.4-3.3-0.2-4.9-0.2-4.9s-1.9 4.1-4.2 4c-2.3-0.2-5.5-1.6-7.1-3.3-2.6-2.9-4.4-8.5-4.3-12.5 0-4.8 2.5-9.3 4.2-13.8 0.5-1.3 1.6-3.7 1.6-3.7s5.2 4.2 8 5.1c2 0.6 6.6-0.2 8.3-1.4 2.6-1.8 4.7-6.6 3.9-9.6-0.6-2.5-4.5-4.6-4.5-4.6s0.3 4 0.1 5.8c-0.2 1.3-3.5 2.1-4.8 2.4-1 0.3-2.3-1-2.9-1.9-2.9-4.2-2.8-11-2.2-16.1 0.4-3.7 5.3-11.1 5.3-11.1s15.4 0.5 19.3 1.8c2.9 0.9-0.5-0.2-2-4.6-1.8-5.4-9.9-8.8-9.9-8.8s-14.8-13.9-17.8-18.2c-8.3-11.7-11-22.5-20.2-33.5-3.6-4.2-9.7-10.9-13.6-14.8-6.8-6.6-18.2-15.9-24.4-22.9-10.6-12-34.4-39.2-34.4-39.2l-11.4-17.7-48.7-1.2z"
       stroke-width="3" />
    <path
       id="path851"
       d="m138.8 260.5s3.2 1.7 4.7 2.2c1.4 0.4 4.8 0.6 4.8 0.6"
       fill="none" />
    <path
       id="path853"
       d="m153.3 269.7s-2.8-2-4.1-2.2c-1.6-0.1-4 0.4-5.1 1.5-1.4 1-2.6 5-2.6 5"
       fill="none" />
    <path
       id="path855"
       d="m154.2 273.6s-3.2-1-4.6-0.4c-1.8 0.8-3.2 3.6-4 5.5-0.4 0.9-0.6 3.5-0.6 3.5"
       fill="none" />
    <path
       id="path857"
       d="m157.9 279s-3.9-0.1-5.2 0.6-2.6 2.4-3.2 3.8c-0.8 1.7-0.9 6.3-0.9 6.3"
       fill="none" />
    <path
       id="path859"
       d="m114.9 302.8s3.1-2.4 4.3-3.1c1.6-1.1 6.4-0.1 6.4-0.1"
       fill="none" />
    <path
       id="path861"
       d="m99.44 294.2s1.96-2 3.06-2.3c1.4-0.3 5 0.9 5 0.9"
       fill="none" />
    <path
       id="path863"
       d="m103.2 152.8s3.6-4.2 4.9-5.9c1.1-1.4 2.6-3.2 4-4.3 0.8-0.8 3.1-1.8 3.1-1.8"
       fill="none" />
    <path
       id="path865"
       d="m90.34 130.5s3.1-1.6 4.5-1.9c2.09-0.6 5.26 0.2 7.16-0.7 2.4-1.2 4.5-4.2 5.9-6.3 1-1.5 2.5-5.3 2.5-5.3"
       fill="none" />
    <path
       id="path867"
       d="m85.81 116.8s5.21-0.5 7.36-2.6"
       fill="none" />
    <path
       id="path869"
       d="m85.75 87.49s4.31 15.61 10.07 19.81c4.14 3.1 12.78 3.9 12.78 3.9"
       fill="none" />
    <path
       id="path871"
       d="m326.4 292.2s-2.8-6.8-4.8-9.8c-1.7-2.6-5.9-4.5-7.6-7.1-1.5-2.2-3.1-8.3-3.1-8.3"
       fill="none" />
    <path
       id="path873"
       d="m301.8 277.3s4.2 5.6 4.7 8.4c0.8 4.3-2.4 9.4-2.5 13.8 0 2.8 0.8 6 0.4 8.3-0.4 1.9-2.3 6.1-2.3 6.1s4.5-2.2 6.1-4.1c0.7-0.7 4.8-5.1 4.8-5.1s-1.5 10.3-0.2 14.5c0.3 1.3 2.4 3.6 2.4 3.6"
       fill="none" />
    <path
       id="path875"
       d="m303.4 350.2s1.4 5 2.6 6.9c0.9 1.6 4.2 4.7 4.2 4.7"
       fill="none" />
    <path
       id="path877"
       d="m297.9 380.1s2.6-5.3 3-7.8c0.4-2.7 0.3-6.6-0.5-9.2-0.3-1-1.8-3-1.8-3"
       fill="none" />
    <path
       id="path879"
       d="m289.7 362.7s2.7 5.3 2.5 7.8c-0.3 3.8-3.2 8.2-4.2 11.8-0.5 1.8-1.3 4.3-1.2 6.2 0.1 1.5 1.5 4.6 1.5 4.6"
       fill="none" />
    <path
       id="path881"
       d="m280.4 381s1.7-9.2 2-11.3c0.2-1.7-0.8-5.2-0.8-5.2"
       fill="none" />
    <path
       id="path883"
       d="m243.8 182.1-6.8 9.9"
       fill="none" />
    <path
       id="path885"
       d="m248.4 187-5.9 7.3"
       fill="none" />
    <path
       id="path887"
       d="m251.9 192.1-3.1 5.8"
       fill="none" />
    <path
       id="path889"
       d="m255.6 196.3-3.3 5.4"
       fill="none" />
    <path
       id="path891"
       d="m283.7 348.5-5.8 1.3-9-1.5s-0.4 2.1-0.1 3.4c0.3 0.9 1.4 2.4 2.2 2.8 1.5 0.7 3.8 1.4 5.5 1.1 0.8-0.1 2.4-1.3 2.4-1.3"
       fill="none" />
    <path
       id="path893"
       d="m277.4 316.4s-3.6 5.4-3.8 8.1c-0.2 2.5 1.3 5.7 2.5 7.9 1 1.9 2.1 3.5 4.1 4.3 1.7 0.7 6.8 0.6 6.8 0.6s-4.4 2.7-6.5 2.9c-2.8 0.3-6.7-0.7-9.1-2.2-1.6-1-3.1-3.1-4-4.7-1.2-2.2-2.3-7.9-2.3-7.9"
       fill="none" />
    <path
       id="path895"
       d="m257.8 317.2s-4.2 4.9-4.7 7.5c-0.4 2.1 0.7 5 0.4 7.1-0.2 2-0.7 4-1.5 5.8-0.9 2-4.5 7.6-4.5 7.6"
       fill="none" />
    <path
       id="path897"
       d="m316.2 286.3s0.6 6.8 0 9.7c-0.6 3.1-3.8 9.7-3.8 9.7"
       fill="none" />
    <path
       id="path899"
       d="m207.5 208.7s4.5 3.8 5.9 5.6c0.8 1.1 4.4 6.3 4.4 6.3"
       fill="none" />
    <path
       id="path901"
       d="m218.9 213.7s6 5.7 8 8.1c1 1.3 3.2 5.8 3.2 5.8"
       fill="none" />
    <path
       id="path903"
       d="m229.6 218.5s4.4 5.6 6 8.2c1.2 1.9 3.3 6.6 3.3 6.6"
       fill="none" />
    <path
       id="path905"
       d="m241.1 225.4s3.1 3.8 4.2 5.6c1 1.7 2.3 4.1 2.7 6s-0.1 6.3-0.1 6.3"
       fill="none" />
    <path
       id="path907"
       d="m188.9 85.06s-9.5-5.74-14.2-6.36c-3.4-0.41-8-0.43-11.3 0.16-4.7 0.88-11.7 6.15-16.5 6.73-2.3 0.29-4.2 0.58-5.8-0.82-2.9-2.52-0.7-7.53-2.4-10.75-0.9-1.58-3.1-3.22-4.8-4.05-2.2-1.03-5.6-1.9-8.1-1.64-1.5 0.15-4.6 2-4.6 2s4.1 2 5.1 3.44c2.1 3.16 0.5 8.84 2.4 12.05 0.8 1.3 2.6 2.61 3.9 3.51 1.4 0.91 3.2 2.22 4.8 2.62 3.7 0.92 9 0.74 12.7 0 4.5-0.88 9.5-5.86 14-6.74 3.5-0.59 8.3 0.63 11.7 1.15 2.6 0.41 8.1 2.73 8.1 2.73l5-4.08z"
       fill="#840101" />
    <path
       style="fill:#848484;fill-opacity:1"
       id="path909"
       d="m155.9 66.16c0.5-1.46 0.9-0.98 2.3-1.49 1.5-0.5 1.5-0.78 2.6 0.24 1.1 0.93 1.4 0.58 1.5 1.97 0.4 3.57-0.1 7.16-1.5 10.49-0.6 1.37-2.1 3.27-2.1 3.27s-1.2-1.41-1.7-3.13c-1.2-3.58-2.2-7.77-1.1-11.35z"
       fill="#fff" />
    <path
       style="fill:#848484;fill-opacity:1"
       id="path911"
       d="m157.7 93.63c0 1.5 0.5 1.2 1.7 2.11 1.1 1 1 1.2 2.4 0.71 1.3-0.6 1.5-0.19 2.2-1.39 1.6-3.3 2.3-6.79 2.1-10.39-0.1-1.5-1.1-3.81-1.1-3.81s-1.5 1-2.6 2.39c-2.2 2.99-4.6 6.58-4.7 10.38z"
       fill="#fff" />
    <path
       id="path913"
       d="m205.6 88.73s-14.6 15.07-22.1 19.87c-7.1 4.5-18.8 6.5-25.9 11.1-7.3 4.6-16 12.4-21.1 19.2-3.5 4.6-6.7 12-8.9 17.4-2 5 2.9 11.9 0.8 12.6-2.7 0.8-7.6 4.3-10.9 9.7-2.2 3.8-3.2 9.7-3.7 11.5-0.6 2.5-0.2 6.4 1.4 8.4 1.7 2.2 8.7 3.5 8.7 3.5s-3-5.3-2.4-7.7c0.6-1.8 3.1-3.7 4.9-4.2 2.9-0.7 6.4 0.5 6.4 0.5s-2.8 8.4-1.9 11.9c0.7 2.7 4.7 4.8 5.6 7.5 0.9 2.4 1.1 6.2 0.4 8.7-1.2 4.3-8.5 12.2-8.5 12.2s11.1-3.4 14.7-6.6c3.2-2.8 6.3-7.8 7.1-11.9 0.8-3.8-3-9.2-1.8-12.9 1.7-4.8 11.7-11.8 11.7-11.8s0.5 8.6 1.3 12.2c0.6 2.4 3.7 5.3 3.1 7.7-0.7 3.3-6.9 4.2-8.4 7.3-1.4 3-1.2 7.8-0.8 11.2 0.4 2.3 1.6 5.5 3.2 7.3 2.4 2.8 7 5.1 10.5 6.1 1.2 0.3 4.2 0 4.2 0s-7.1-4.6-8.4-7.7c-0.7-1.8-0.5-4.6 0.3-6.3 1.1-2.1 4-3.8 5.7-5.3 2.6-2.1 6.7-4.1 8.8-6.6 2.1-2.7 4-6.9 4.9-10.1 0.9-3.5 0.8-11.9 0.8-11.9s-0.3 6.4 1.3 9.5c1 1.8 5.1 4.9 6.3 6.6 0.9 1.4 2.3 3.6 2.1 5.3-0.2 2.1-2.8 4.1-3.9 5.9-1 1.7-3.2 5.6-3.2 5.6s9.5-4.4 12.7-7.3c2.9-2.7 6.7-7 7.3-10.9 0.4-2-1.1-4.7-1.7-6.6-0.4-1.4-1.2-3.2-1.7-4.6-0.4-1.3-1.4-3.2-1-4.5 0.7-2.3 5.9-5.2 5.9-5.2s-1.2 4.3-1 6.2c0.4 3.2 4.1 9.9 4.1 9.9s0.5-6 2.2-7.7c2.9-3 9.6-2.2 13.3-4.2 4.2-2.3 11.4-9.5 14.4-13.3 0.6-0.8 6.4 6.7 10 4 5.8-4.5 10.2-9.7 14.5-18.4 3.3-6.7-0.7-16.3-0.4-24.9 0.3-9.4 3.1-21.1 2.9-22-1.5-4.8-7.5-10.6-7.5-10.6l-1.7-22.8-11.4-13.69-49.5 13.45 6.3 7.37z"
       stroke-width="3" />
    <path
       id="path915"
       d="m247 34.44s2.6-3.46 3.4-6.41c0.5-1.79 0.3-7.06 0-9.68-0.3-2.45-1.1-3.41-1.1-3.41s-0.5 2.99-1.2 4.53c-1.2 2.6-6 7.43-6 7.43s0.9-3.44 0.8-4.94c-0.3-4.61-4.2-14.835-4.2-14.835s-1.8 9.995-4.3 13.395c-2.1 2.94-4.9 1.96-8.4 3.13-8.7 2.96-24.4 0.62-34.2 4.53-4.1 1.61-12.4 7.33-12.4 7.33s-10.3 3.52-16.1 2.44c-2.1-0.39-4.6-2.33-6.7-1.93-3.7 0.69-6.7 0.6-9.9 1.55-3.9 1.18-4.1 9.46-2.9 13.38 0.4 1.31 2.2 2.49 2.5 3.84 0.6 2.23-1.3 5.44-0.6 7.64 0.8 2.6 3.3 5.87 5.7 7.04 3.4 1.61 8.6 0.27 12.1-0.92 3.9-1.29 8.1-0.92 10.2-4.41 0.9-1.41 3.5-6.68 3.5-6.68s6.3 4.51 7.7 8.32c1.3 3.32 1.1 8.6-0.4 11.79-2.2 4.72-8.2 9.55-13.1 11.43-4.4 1.68-11.3-1.65-15.6 0.23-3.4 1.49-6.8 2.88-8 6.37-0.7 2.3-1.3 7.1 0.2 8.9 1.8 2.1 5.7 0.2 7 2.6 0.8 1.3 0.7 6.7 0.7 6.7s6.2-4 7.6-6.6c1-1.7 1-6.4 1-6.4s15.2 1 21.7 1.1c4.5-0.1 12.2 1 16.2-1 3.2-1.57 5.8-5.46 6.5-8.85 0.3-1.3-1.3-4.21-1.3-4.21s2.4-1.39 3.5-0.29c3 2.72 4.1 6.22 4.2 10.22 0 7.13-0.8 17.63-3.9 23.93-2 3.7-5.2 8.6-8.8 12.1-1.4 1.4-2.9 2.6-4.4 3.4-3.6 2-9.6 2-13.1 4.2-2.3 1.4-5.1 4.1-6.4 6.6-1.1 2-1.8 5.1-1.7 7.3 0.2 2.9 3.2 8.9 3.2 8.9l2.5-7.2 12.5-5.9s16.7-3.6 22.7-7.5c6.6-4.2 6.8-6.6 6.8-6.6s-1.5 9.1-9.4 16.2c-2.5 2.2-9.5 5.4-9.5 5.4s13.4-0.9 18.5-3.4c6-3 12.7-9.5 16.6-15 3.6-4.9 9.2-21.7 9.2-21.7s-4.3-15.8-7.5-23.42c-1.7-4.11-8-12.54-8-12.54s6.1 8.73 8 12.84c4.1 9.12 9.9 31.92 9.9 31.92s4.8-14.7 5.6-21.2c0.5-4.7 0.8-11.25-0.4-15.96-1.1-3.96-6.5-12.04-6.5-12.04s5.1 8.43 6.4 12.44c1.5 4.51-0.1 11.66 2.5 15.66 3 4.7 10 10 15.5 10.1 2.3 0 5-2.3 6.5-4 2.1-2.4 4.4-6.4 4-9.5-0.2-2-3.9-5.56-3.9-5.56s-1.9 4.86-3.2 6.36c-1.2 1.2-3.4 0.7-4.8-0.2-1.3-0.8-1-4.7-1.3-6.2-1.2-7.5 3.4-16.3 0.8-22.38-0.8-2.08-3.7-7.6-6.3-9.26-1.7-1.09-8.1-3.97-8.1-3.97s4.3-2.75 5.5-4.49c2.6-3.78 4.3-9.97 5.1-14.52 0.6-3.26 0-11.02 0-11.02s-10.2 0.29-14.5 0.94c-2.5 0.37-8.2 1.94-8.2 1.94z"
       stroke-width="3" />
    <path
       style="fill:#848484;fill-opacity:1"
       id="path917"
       d="m191.6 44.37a12.5 7.361 23.9 0 0 22.8 10.13 12.5 7.361 23.9 1 0 -22.8 -10.13z"
       fill="#fff" />
    <path
       style="fill:#848484;fill-opacity:1"
       id="path919"
       d="m207.7 46.81a8.05 8.05 0 1 1 -16.1 -0.1 8.05 8.05 0 1 1 16.1 0.1z"
       fill="#fff" />
    <path
       id="path921"
       d="m200.3 39.85c-0.6 0-1.1 0.1-1.7 0.15-1 0.12-2 0.3-2 0.3l0.8 3.41s0.8-0.14 1.6-0.25c0.9-0.1 2 0.11 1.9 0-0.1 0 0.6 0.76 0.6 0.94 0.2 0.58 0.1 2.71-0.2 3.29-0.1 0.2-0.9 0.92-0.9 0.93 0.2-0.1-0.6 0-1.3-0.13-0.6-0.12-1.2-0.25-1.2-0.25s-1.7-0.22-2 0.36c-0.3 0.76 1 2.6 1 2.6s0.7 0.17 1.5 0.32c0.9 0.15 1.7 0.42 3 0 1.5-0.48 2.4-1.43 3-2.67 0.8-1.68 1.1-3.63 0.5-5.47-0.4-1.3-1.1-2.43-2.6-3.1-0.7-0.33-1.4-0.42-2-0.42z"
       stroke="none"
       fill="#000" />
    <path
       id="path923"
       d="m198.9 34.47s-2.8 0.42-3.9 0.88c-2.3 0.88-4.5 2.9-4.8 5.3-0.2 1.25 0.3 2.32 1.2 3.19 1 0.95 2.6 0.84 3.9 0.91 2 0.11 4.5-1.45 6.4-1.21 2.8 0.34 6.4 2.06 8.5 3.93 1 0.87 1.2 3.01 2.3 3.73 1 0.65 2.9 1.08 3.9 0.55 1.1-0.54 1.7-2.36 2-3.54 0.1-0.57 0.1-1.39 0-1.95-0.3-0.85-1-1.85-1.6-2.48-0.8-0.81-3-2.15-3-2.15" />
    <path
       id="path925"
       d="m148 52.03s4.9-6.44 7.2-7.36c2.2-0.91 3-0.78 3.5 0 0.4 0.8 0.3 2.05-1.4 3.67-1.7 1.63-9.3 3.67-9.3 3.67z"
       fill="none" />
    <path
       id="path927"
       d="m246.6 45.96s2.7-4.37 4.6-5.44c2.9-1.68 11-1.99 11-1.99s1.4 7.08-0.5 9.02c-0.9 0.95-3.5-0.59-4.4 0.36-1.3 1.23 0.6 4.61-0.7 5.84-0.8 0.82-3.9 0.24-3.9 0.24s0.2-5.01-1.2-6.48c-1-1.17-4.9-1.55-4.9-1.55z"
       fill="#000" />
    <path
       id="path929"
       d="m239.2 48.52s-5.6 11.03-9.2 14.72c-2 1.94-5.2 4.07-7.8 4.89-5 1.55-18.1 2.4-18.1 2.4l-0.9 1.03s14.8-3.76 19 0.1c1.6 1.43 1.5 5.11 0.6 7.03-0.7 1.65-2.8 3.94-4.3 4.88-2.4 1.45-8.8 3.2-8.8 3.2"
       fill="none" />
    <path
       id="path931"
       d="m234.7 104.8s0.8 8.4 0 11.9c-1.3 5.4-3.9 10.2-6.7 15.1-1.1 2-4.2 6.3-4.2 6.3"
       fill="none" />
    <path
       id="path933"
       d="m145.8 176.1s-6.3 4.2-8.6 6.8c-1.7 1.9-4.3 7.4-4.3 7.4"
       fill="none" />
    <path
       id="path935"
       d="m211.3 165.8s-12.3 3.8-17.3 7.2c-2.5 1.6-4.6 5-5.8 7.6-1.9 4-3 11.4-3 11.4"
       fill="none" />
    <path
       id="path937"
       d="m209.8 184.9s7-6.8 9.8-9.2c4-3.3 11.3-5 14.2-9.2 1.8-2.5 2.1-10.4 2.1-10.4"
       fill="none" />
    <path
       id="path939"
       d="m144.6 140.2s-0.6 9.6-2.2 13.4c-0.8 1.8-2.7 5.1-4.7 7.4-4 4.5-8.8 8-8.8 8"
       fill="none" />
    <path
       id="path941"
       d="m159.7 189.8s2.2-8.9 4.1-12.6c1.2-2.4 5.6-7.1 5.6-7.1"
       fill="none" />
    <path
       id="path943"
       d="m327.2 291.1s11.4 5.5 16.4 5.1c4.2-0.3 9.8-2 13.1-4.5 3-2.5 4.5-5.2 7.1-8.1 2.3-2.5 4.2-7.1 7.3-8.6 1-0.5 2.9-0.6 3.9 0 2.5 1.5 4.3 5.7 4.6 8.6 0.2 1.5-1.3 4.6-1.3 4.6s7.1-4.7 8.6-7.9c1.2-2.5 1.3-6.5 0.7-9.2-0.6-2.3-2.1-5.3-4-6.6-1-0.7-4-0.7-4-0.7s9.5-3.1 12.6-5.9c2.5-2.3 5.2-6.5 5.9-9.9 0.8-3.7-1-8.8-1.3-12.5-0.2-2.4-1.7-5.7-0.7-8 1.1-2.3 7.3-5.2 7.3-5.2s-6.1-4.3-9.2-4c-3.2 0.3-9.3 5.9-9.3 5.9s3.6-6.7 4.6-9.9c2.5-7.4 4.7-17.8 5.3-25.7 0.6-8.1 0-19-1.3-27-0.8-5.1-2.9-11.7-4.6-16.5-3.2-9-12.6-29.1-12.6-29.1s-8.9-14.2-8.5-21.07c0.1-2.03 1.4-5.04 3.3-5.93 2.3-1.15 7.4-0.23 8.5 1.32 1.2 1.54 0.1 2.55-0.6 3.95-0.7 1.41-4.6 4.62-4.6 4.62s9.5 1.02 12.5-0.66 5.2-5.07 5.9-8.57c0.8-3.51-1.8-8.97-4-11.62-2.3-2.64-8.2-3.94-8.2-3.94s3.9-3.88 5.6-7.53c2-4.11 2.6-10.79 1.4-15.18-1.1-3.8-6.7-6.8-8-10.55-0.5-1.51-1.1-4.16 0-5.28 0.7-0.7 2.5-0.5 3.3 0 1.8 1.03 3.3 5.94 3.3 5.94s5.3-5.56 5.3-8.58c0-2.58-2.5-5.72-4.6-7.26-3-2.2-8.2-3.79-11.9-3.3-2.3 0.31-4.9 2.35-6.6 3.96-1.8 1.8-4.6 7.26-4.6 7.26s-3.3-10.59-6.6-13.86c-4.5-4.51-12.8-9.04-19.1-9.23-4.7-0.15-11 2.86-14.5 5.94-3 2.55-6.1 7.34-6.6 11.21-0.4 3.05 0.6 7.54 2.6 9.9 2.1 2.51 4.9 4.9 8.2 5.19 3.8 0.35 9.3-1.14 9.3-1.14s-5.1-3.98-6.9-7.35c-0.9-1.61-0.1-4.74 1.3-5.94 1.9-1.69 6.3-1.9 8.6-0.66 2.9 1.62 5.2 9.9 5.2 9.9s2 12.43 2 17.81c0 8.76-3.8 20.28-3.3 29.03 0.4 6.28 2 14.72 4.6 20.42 2.7 5.8 9.7 11.5 12.6 17.2 2.7 5.4 4 9.5 5.9 15.2 1.1 3.3 4.8 12.1 7.2 20.6 1.9 7 2.6 13.7 2.7 16.8 0 10.7-2.4 24.3-2.4 24.3s-1.8-17.7-4.8-30.8c-1.6-6.7-4.7-13.6-5.9-16.3-2.6-5.8-11.1-19.1-15.5-23.7-3.8-4.1-10.3-10.1-10.3-10.1l-7.9-8.6s-4-5.7-4-8.5c0-1.8 1-4.7 2.6-5.31 1.5-0.51 3.6 0.92 4.7 1.98 1.3 1.37 2.6 5.93 2.6 5.93s1.8-5.47 2-7.91c0.1-2.18 0.6-5.48-0.7-7.25-1.8-2.44-6.2-3.72-9.2-3.96-2.5-0.2-4.9 2.31-4.9 2.31s1-4.59 1.6-6.93c0.8-3.29 0.2-8.2-1.3-11.22-1.4-2.61-4.5-5.23-7.3-6.29-2.9-1.15-7.5-1.12-10.5-0.3-3.1 0.82-9.3 5.28-9.3 5.28s9.2 0.21 11.9 2.63c2.7 2.37 4.4 7.68 3.9 11.22-0.6 4.79-7.3 8.74-9.2 13.19-1.6 3.9-2.5 9.63-2.6 13.83-0.1 3 0.9 9.4 2.7 14.4 0.4 0.9-1.1 5.9-0.3 11.4 0.6 4.1 3.3 8.9 4.2 10.4 2.1 3.9 7.6 7.5 8.5 8 2.8 1.6 7.5 1.2 10.6 0.7 2.5-0.4 7.9-3.3 7.9-3.3s-9.7-0.7-11.2-4c-0.9-1.9-0.9-5.9 0.9-7.2 2.9-2 8.8-2.5 11.8-0.6 1.8 1.1 5.3 5 6.2 6.9 2.8 5.5 6.5 12.3 8.8 18.1 2.5 6.2 4.4 15.1 5.3 21.8 1.6 12.5 2.9 29.7 0.6 42.2-0.3 2.1-0.9 5.3-2.6 6.6-1.7 1.2-5.4-0.1-8.7-0.2-3-0.1-5.6 1.1-6.1 1.2-1.4 0.3-2.5 1.4-3.3 1.9-1.9 1.3-4.2 5.7-5 7.6-1.5 3.3 0.9 9.3 2 12.8 1.3 3.7 7.9 8.3 7.9 8.3s-3.9-9.8-1.3-12.5c1.8-1.8 6.3-0.6 8.6 0.7 1.8 1.1 3.3 3.9 3.9 5.9 1.5 4.9 2 12.4 0 17.2-0.9 2.3-3.6 5-5.9 5.9-2.2 0.8-6.7 0.4-9.7-0.6-1.7-0.6-3-2-3-2"
       stroke-width="3" />
    <path
       id="path945"
       d="m374.7 196.9s-0.8 20.7-2.4 29.3c-1 5.4-5.3 17.7-5.3 17.7"
       fill="none" />
    <path
       id="path947"
       d="m350 233.8s4.3 1.5 5.6 2.4c1.5 1 2.7 3.2 3.6 4.8 0.4 0.7 0.9 2.7 0.9 2.7"
       fill="none" />
    <path
       id="path949"
       d="m386.6 222.3s-5.7 8.7-7.5 12.7c-1 2.5-2.4 8.7-2.4 8.7"
       fill="none" />
    <path
       id="path951"
       d="m324.3 86.04s-5.7 5.61-7 8.68c-1.2 2.69-1.9 6.78-1.4 9.68 0.7 4 3.7 8.9 6.4 12 2.1 2.4 8.7 6.3 8.7 6.3"
       fill="none" />
    <path
       id="path953"
       d="m380.3 74.31s-4.4 0.14-8.7 1.56c-2 0.69-4.3 2.34-5.4 3.15-2.5 1.83-5 5.34-6.2 8.2-0.2 0.51-0.2 1.84-0.2 1.84"
       fill="none" />
    <path
       id="path955"
       d="m318.8 133.3s-7.4-1.4-9.9-3.3c-3.2-2.3-6.4-10.4-6.4-10.4"
       fill="none" />
    <path
       id="path957"
       d="m388.4 56.46s-6.5 7.99-10 9.17c-3.3 1.1-12.2 3.58-12.2 3.58"
       fill="none" />
    <path
       id="path959"
       d="m384.9 48.9s-5.2 7.53-7.6 8.44c-2.9 1.12-9.3 2.92-9.3 2.92"
       fill="none" />
    <path
       id="path961"
       d="m397.2 240.3s-4.7 6.9-7.2 8.8c-2.8 2.1-10.5 5-10.5 5"
       fill="none" />
  </g>
  <g
     id="g997"
     fill="#fff"
     stroke="#000"
     stroke-width="2.5">
    <path
       style="fill:#848401;fill-opacity:1"
       id="path965"
       d="m102 268.8c-1.5-1.3-2.06-4.1-3.39-5.6-1.98-2.1-8.03-5.6-8.03-5.6s5.17-0.7 7.25-0.4c2.67 0.5 6.37 1.5 8.27 3.4 1.4 1.4 2.8 4.1 2.6 6.2 0 1.3-1 3.3-2.4 3.7-1.3 0.4-3.2-0.9-4.3-1.7z" />
    <path
       style="fill:#848401;fill-opacity:1"
       id="path967"
       d="m86.77 272.8c1.07 0.9 2.07 2.8 2.47 4.2 0.4 1.5 0.91 3.9 0.1 5.2-0.52 0.9-2.02 1.3-3.01 1.5-0.7 0.1-1.67-0.1-2.3-0.5-1.34-0.5-2.45-2.5-3.89-2.9-1.24-0.4-3.11 0-4.34 0.6-1.73 0.7-2.66 0.8-3.89 2.3-0.95 1.1-2.86 5.3-2.86 5.3s-1.8-5-1.6-7.1c0.28-3 1.49-5.9 3.8-7.9 1.46-1.3 4.11-2.1 6-2.4 2.35-0.3 5.55 0 7.78 0.7 0.59 0.1 1.32 0.5 1.75 1z" />
    <path
       style="fill:#848401;fill-opacity:1"
       id="path969"
       d="m96.72 303.8c0.91-0.1 2.08 0.5 2.74 1.1 1.54 1.5 3.04 4.5 2.64 6.5-0.3 1.6-2.45 2.9-3.89 3.7-1.97 1.3-5.14 2.5-7.56 2.7-2.22 0.3-7.35-0.9-7.35-0.9s4.44-2.6 5.84-4.4c1.39-1.6 1.75-4.6 3.13-6.1 1.06-1.1 2.94-2.4 4.45-2.6z" />
    <path
       style="fill:#848401;fill-opacity:1"
       id="path971"
       d="m124.9 317c2-0.3 4.3 1.9 5.6 3.5 1 1.2 1.2 2.6 1 4.2-0.1 2.2-1.7 5-3.5 6.3-1.1 0.8-3 1.3-4.3 1.3-1.6 0.1-3 0.4-4.5-0.3-1.6-0.9-4.7-4-4.7-4s4 0.1 5.5-0.9c1.5-0.9 3.2-2.9 3.7-4.7 0.2-0.9-0.7-2.2-0.5-3.2 0.2-0.8 0.9-2.1 1.7-2.2z" />
    <path
       style="fill:#848401;fill-opacity:1"
       id="path973"
       d="m91.23 28.33c0.25 1.56 1.31 3.58 2.59 4.45 0.94 0.71 2.67 1.31 3.84 0.88 1.45-0.45 2.94-1.17 3.34-2.64 1.3-4.06 1.5-9.21-0.2-13.09-1.4-2.95-4.63-6.5-7.64-7.71-1.38-0.569-2.67-1.048-4.1-0.577-1.42 0.467-4.77 2.307-4.77 2.307s3.38 0.87 4.53 1.76c1.28 1.02 2.61 2.87 3.24 4.37 0.77 1.89 0 3.47 0 5.49 0 1.44-1.07 3.33-0.82 4.76z" />
    <path
       style="fill:#848401;fill-opacity:1"
       id="path975"
       d="m53.22 16.67s0.32-5.35 2.41-7.373c2.09-2.024 6.02-3.736 8.97-3.919 2.06-0.18 4.82 0.682 6.45 1.864 3.12 2.251 5.84 5.618 6.78 9.398 0.4 1.56 0.86 3.45 0.15 4.96-0.71 1.64-2.54 2.69-4.41 2.9-1.33 0.15-3.25-1.56-4.25-2.45-2.54-2.27-2.57-7.12-5.53-8.82-0.91-0.54-2.42-0.68-3.51-0.59-0.9 0-2.07 0.57-3.04 0.91-1.36 0.39-4.02 3.12-4.02 3.12z" />
    <path
       style="fill:#848401;fill-opacity:1"
       id="path977"
       d="m57.3 54.07c0.92-0.25 2.44-0.37 3-1.21 0.78-1.18 0.52-3.42-0.12-4.66-0.93-1.76-1.9-3.17-3.82-3.67-1.08-0.3-5.7 1.07-6.7 1.52-2.55 1.21-4.02 2.58-5.16 5.18-0.99 2.33-1.13 6.1-0.15 8.44 0.8 1.79 3.08 3.55 4.79 4.55 1.09 0.56 3.88 1.18 3.88 1.18s-2.23-4.81-1.93-6.95c0.2-1.3 1.16-2.98 2.19-3.68 1.01-0.7 2.8-0.31 4.02-0.7z" />
    <path
       style="fill:#848401;fill-opacity:1"
       id="path979"
       d="m62.01 78.65c1.21-1.07 3.95 0 5.11 1.07 1.3 1.02 2.24 3.47 2.02 5.15-0.22 1.82-2.11 3.88-3.58 4.98-2.04 1.54-5.54 3.1-8.14 2.92-2.76-0.18-6.35-2.18-8.2-4.23-1.94-2.27-3.26-6.39-3.39-9.33 0-1.34 1.17-4.17 1.17-4.17s1.63 4.13 2.99 5.35c1.97 1.62 5.53 2.65 8.09 2.65 1.35 0 3.25-3.8 3.92-4.4z" />
    <path
       style="fill:#848401;fill-opacity:1"
       id="path981"
       d="m45.99 171.6c0.21-2.8-0.97-5.8-3.09-7.8-1.74-1.7-5.31-2.4-7.8-2.7-2.49-0.2-6.19-0.3-8.44 0.9-1.23 0.7-1.86 1.5-2.21 2.7-0.35 1.3-0.56 3.9-0.56 3.9s2.16-1.6 3.27-1.6c1.6-0.1 3.76 1 5.23 1.8 1.47 0.9 2.99 2.7 4.35 3.7 0.98 0.7 2.34 1.7 3.53 2 1.29 0.2 3.19 0.3 4.32-0.4 0.72-0.5 1.36-1.6 1.4-2.5z" />
    <path
       style="fill:#848401;fill-opacity:1"
       id="path983"
       d="m32.45 182.2c-0.46 1.5-2.13 3.3-3.55 3.8-1.32 0.5-3.31 0.2-4.59-0.4-1.57-0.7-2.67-3.4-4.24-4.1-1.97-0.8-4.98-0.5-7.11 0-1.31 0.3-3.047 1.2-3.987 2.2-1.251 1.2-2.911 5.2-2.911 5.2s-0.996-7.6 0.319-10.4c0.991-2.3 3.879-4.5 6.129-5.6 2.04-1 5.07-1.6 7.27-1.5 2.09 0 4.98 0.6 6.84 1.6 1.76 0.9 3.79 2.8 4.72 4.5 0.75 1.3 1.47 3.3 1.11 4.7z" />
    <path
       style="fill:#848401;fill-opacity:1"
       id="path985"
       d="m42.65 212.5c1.36-1.6 1.25-3.8 0.22-5.6-1.12-2-3.72-4.5-6.02-4.7-1.59-0.2-3.18 2-4.52 3-1.75 1.1-4.1 2.5-5.56 3.8-1.46 1.5-3.24 3.6-4.12 5.5-0.55 1.1-1.22 2.8-0.96 4 0.33 1.7 3.5 4.9 3.5 4.9s-0.63-4.2 0.13-5.6c0.75-1.4 2.7-2.4 4.02-3 2.34-0.9 5.64-0.9 8.15-1 1.9-0.1 3.99 0.2 5.16-1.3z" />
    <path
       style="fill:#848401;fill-opacity:1"
       id="path987"
       d="m70.62 223.7c0.71 2.3 1.31 4.7 0.62 6.9-0.8 2.5-3.71 5.2-6.15 6.1-1.52 0.6-3.24 1-4.83 0.7-1.69-0.4-5.43-1.9-5.43-1.9s2.87-1.5 3.9-2.4c1.24-0.9 3.1-2.3 3.66-3.8 0.68-2-1.2-5.1-0.32-6.9 0.54-1.2 2.09-2.5 3.4-2.6 1.31-0.2 3.17 0.9 4.13 1.9 0.48 0.4 0.84 1.4 1.02 2z" />
    <path
       style="fill:#848401;fill-opacity:1"
       id="path989"
       d="m236 354.4c-0.1-2-2.5-4.2-4.1-5.3-2-1.4-3-1.8-5.3-2.2-2.1-0.3-5-0.7-6.9 0.1-2 0.9-5 5.4-5 5.4s6.5-1.1 9.2-0.4c2.9 0.7 3.7 3.5 6.5 4.5 1.1 0.4 2.6 1.2 3.6 0.8s2-1.9 2-2.9z" />
    <path
       style="fill:#848401;fill-opacity:1"
       id="path991"
       d="m223.9 363.4c1.5 1.5 2.5 1.8 2.5 3.8 0 1.8-1.1 4.5-2.7 5.3-0.9 0.5-2.5-0.2-3.5-0.5-1.8-0.4-3.9-1.9-5.7-2-1.5-0.1-3.6 0.4-4.9 1.2-1 0.6-2.1 1.9-2.8 3-0.6 1.1-0.3 2.4-0.6 3.6-0.1 0.4-2.3-2.1-2.9-3.6-0.5-1.6-0.7-4-0.3-5.6 0.6-2.3 2.5-3.5 4.3-5.1 1.6-1.5 4.1-1.4 6.3-1.9s5.4-0.3 7.7 0.4c0.8 0.2 2 0.8 2.6 1.4z" />
    <path
       style="fill:#848401;fill-opacity:1"
       id="path993"
       d="m233.7 392.6s3.7 1 5 1.9c0.7 0.6 1.1 1 1.3 1.8 0.5 1.8 0.1 4.8-1.2 6.2-1.6 1.9-5.5 2.2-7.9 2.9-1.7 0.4-5.2 1.7-5.2 1.7s3.5-10 4.7-11.6c1.4-1.9 3.1-2.8 3.3-2.9z" />
    <path
       style="fill:#848401;fill-opacity:1"
       id="path995"
       d="m268.2 400.4c1.2 0.6 2.6 1.9 3.1 3.2 0.6 1.5 0.8 3.9 0.2 5.4-0.9 2.1-3.7 4-5.7 5-2.7 1.4-9.8 2.2-9.8 2.2s3.3-3.4 4.5-5.1c0.7-1 1.8-2.5 1.9-3.7 0.2-1.5-1.8-3.4-1.4-4.9 0.2-1 1.3-2.1 2.2-2.4 1.4-0.6 3.6-0.3 5 0.3z" />
  </g>
</svg>
