<?xml version="1.0" encoding="UTF-8" standalone="no"?>
<!-- Created with Inkscape (http://www.inkscape.org/) -->
<svg
   xmlns:dc="http://purl.org/dc/elements/1.1/"
   xmlns:cc="http://creativecommons.org/ns#"
   xmlns:rdf="http://www.w3.org/1999/02/22-rdf-syntax-ns#"
   xmlns:svg="http://www.w3.org/2000/svg"
   xmlns="http://www.w3.org/2000/svg"
   xmlns:sodipodi="http://sodipodi.sourceforge.net/DTD/sodipodi-0.dtd"
   xmlns:inkscape="http://www.inkscape.org/namespaces/inkscape"
   width="420"
   height="350"
   id="svg2"
   sodipodi:version="0.32"
   inkscape:version="0.46"
   sodipodi:docname="Lion_Passant Reguardant.svg"
   inkscape:output_extension="org.inkscape.output.svg.inkscape"
   version="1.0">
  <defs
     id="defs4">
    <inkscape:perspective
       sodipodi:type="inkscape:persp3d"
       inkscape:vp_x="0 : 526.18109 : 1"
       inkscape:vp_y="0 : 1000 : 0"
       inkscape:vp_z="744.09448 : 526.18109 : 1"
       inkscape:persp3d-origin="372.04724 : 350.78739 : 1"
       id="perspective10" />
    <inkscape:perspective
       id="perspective2498"
       inkscape:persp3d-origin="372.04724 : 350.78739 : 1"
       inkscape:vp_z="744.09448 : 526.18109 : 1"
       inkscape:vp_y="0 : 1000 : 0"
       inkscape:vp_x="0 : 526.18109 : 1"
       sodipodi:type="inkscape:persp3d" />
    <inkscape:perspective
       id="perspective5147"
       inkscape:persp3d-origin="372.04724 : 350.78739 : 1"
       inkscape:vp_z="744.09448 : 526.18109 : 1"
       inkscape:vp_y="0 : 1000 : 0"
       inkscape:vp_x="0 : 526.18109 : 1"
       sodipodi:type="inkscape:persp3d" />
  </defs>
  <sodipodi:namedview
     id="base"
     pagecolor="#ffffff"
     bordercolor="#666666"
     borderopacity="1.0"
     gridtolerance="10000"
     guidetolerance="10"
     objecttolerance="10"
     inkscape:pageopacity="0.0"
     inkscape:pageshadow="2"
     inkscape:zoom="1.4228571"
     inkscape:cx="210"
     inkscape:cy="175"
     inkscape:document-units="px"
     inkscape:current-layer="layer3"
     showgrid="false"
     inkscape:window-width="1280"
     inkscape:window-height="713"
     inkscape:window-x="0"
     inkscape:window-y="0"
     showguides="true"
     inkscape:guide-bbox="true" />
  <metadata
     id="metadata7">
    <rdf:RDF>
      <cc:Work
         rdf:about="">
        <dc:format>image/svg+xml</dc:format>
        <dc:type
           rdf:resource="http://purl.org/dc/dcmitype/StillImage" />
      </cc:Work>
    </rdf:RDF>
  </metadata>
  <g
     inkscape:groupmode="layer"
     id="layer1"
     inkscape:label="Bottom" />
  <g
     inkscape:groupmode="layer"
     id="layer3"
     inkscape:label="Main"
     style="opacity:1">
    <g
       id="g2691">
      <g
         transform="translate(-25.163704,-65.527947)"
         id="g8301">
        <g
           id="g8182">
          <path
             sodipodi:nodetypes="cssscsccc"
             id="path8115"
             d="M 77.143693,175.33005 C 77.143693,175.33005 80.809805,163.5868 84.972632,161.00882 C 86.239825,160.22407 87.961362,161.4511 89.937326,160.81787 C 92.062062,160.13697 96.795684,158.96003 97.384365,156.80792 C 97.986664,154.60602 95.092968,149.55183 95.092968,149.55183 C 95.092968,149.55183 88.486214,143.92411 84.972632,143.44144 C 81.144925,142.91562 72.5609,146.87854 72.5609,146.87854 L 70.078553,157.18982 L 77.143693,175.33005 z"
             style="fill:#f8de00;fill-opacity:1;fill-rule:evenodd;stroke:#000000;stroke-width:3;stroke-linecap:butt;stroke-linejoin:miter;stroke-miterlimit:4;stroke-dasharray:none;stroke-opacity:1" />
          <path
             sodipodi:nodetypes="csssscccc"
             id="path8117"
             d="M 254.58692,349.27677 C 254.58692,349.27677 240.49486,351.42236 237.18928,348.05893 C 236.16231,347.01398 236.91376,345.39662 236.3194,344.05747 C 235.61557,342.47167 234.56398,341.11975 232.83987,340.9259 C 230.10667,340.61859 227.47798,344.13957 226.05479,346.49315 C 224.15487,349.6351 223.96707,357.80162 223.96707,357.80162 L 229.53432,365.10862 L 246.59969,363.91235 L 254.58692,349.27677 z"
             style="fill:#f8de00;fill-opacity:1;fill-rule:evenodd;stroke:#000000;stroke-width:3;stroke-linecap:butt;stroke-linejoin:miter;stroke-miterlimit:4;stroke-dasharray:none;stroke-opacity:1" />
          <path
             sodipodi:nodetypes="csssscsscscsscsssssscsssssssscscccsscssssccscccsccsccssccscsssssscssssssssscssscsssssscsscsscssscscssscsssscssscsccsccccsccscccccccsscsscssssccccc"
             id="path8042"
             d="M 363.51738,271.9294 C 363.51738,271.9294 332.87055,294.66696 321.84248,306.62722 C 319.21049,309.48169 315.39692,313.4604 314.39391,317.21132 C 313.5149,320.49852 314.2661,325.30627 315.42079,328.50706 C 316.7012,332.05636 318.96856,337.66036 322.54094,338.87489 C 325.80481,339.98453 333.4717,335.33028 333.4717,335.33028 C 333.4717,335.33028 329.59422,343.05545 326.54951,344.83825 C 324.30163,346.15447 320.48662,346.34285 317.9269,345.85994 C 316.00358,345.49709 312.17311,342.78448 312.17311,342.78448 C 312.17311,342.78448 312.23003,347.39244 311.12878,349.15298 C 309.66365,351.49526 304.80671,354.97198 304.80671,354.97198 C 304.80671,354.97198 304.9538,351.51129 304.91292,350.12003 C 304.8433,347.75079 304.22359,344.98292 302.96208,342.97625 C 302.1994,341.76306 298.78649,340.65648 298.78649,340.65648 C 298.78649,340.65648 300.29317,343.17315 300.64231,344.36811 C 301.38807,346.92054 301.93552,350.5493 301.57021,353.18324 C 301.36427,354.66811 299.55915,356.33176 299.7144,357.82278 C 299.92229,359.81936 299.78921,360.98313 301.51432,362.00955 C 302.83551,362.79564 304.59365,363.77399 305.98058,363.11074 C 306.88605,362.67773 309.03243,361.81867 309.32328,360.85805 C 309.56528,360.05876 310.38534,358.28673 310.38534,358.28673 C 310.38534,358.28673 311.71786,361.09932 311.56874,363.72365 C 311.48771,365.14963 310.29558,366.52003 309.75929,367.35341 C 309.48127,367.78543 308.6489,369.69835 306.40465,370.30319 C 304.22251,370.8913 301.58605,370.60378 301.09508,370.51165 C 301.09508,370.51165 296.75511,370.25532 295.15903,369.3977 C 292.71267,368.0832 290.12997,365.14184 288.71365,362.75299 C 287.92404,361.42118 288.03766,359.11688 287.18764,357.82278 C 286.48314,356.75023 284.58844,356.14638 283.93996,355.03905 C 283.22266,353.8142 283.22446,353.90432 283.22446,353.90432 C 283.22446,353.90432 284.51305,354.1347 285.09928,356.43132 C 285.7488,358.97589 287.18764,365.71 287.18764,365.71 L 280.99894,364.68576 L 276.902,361.40272 C 276.902,361.40272 275.49922,360.32259 275.58878,359.6786 C 275.68464,358.9893 277.21176,358.94256 277.4446,358.28673 C 278.02062,356.66431 275.58889,354.57469 275.58889,354.57469 C 275.58889,354.57469 277.84458,356.77482 277.25195,358.41843 C 277.03581,359.01787 275.6131,359.10282 275.58878,359.73957 C 275.50089,362.04114 278.19456,362.94972 281.21874,364.9595 C 283.41647,366.42006 286.15335,367.29543 286.72368,368.95768 C 287.23871,370.45875 285.33182,374.06118 285.33182,374.06118 L 274.19692,379.62863 C 274.19692,379.62863 269.32065,379.82015 267.70156,378.70072 C 265.08835,376.89397 260.51073,369.88548 260.51073,369.88548 L 259.81434,370.34954 L 259.81434,377.30886 C 259.81434,377.30886 265.16517,382.20412 264.45388,384.73212 C 263.9481,386.5297 258.88643,387.51585 258.88643,387.51585 L 244.50385,388.44376 C 244.50385,388.44376 241.30866,386.21974 240.79222,384.73212 C 240.01086,382.48141 241.72013,376.8449 241.72013,376.8449 L 236.15268,378.70072 C 236.15268,378.70072 234.0526,385.7233 231.51313,387.05189 C 230.2737,387.70033 228.18712,387.06887 226.87359,386.58794 C 224.33584,385.65877 219.45033,381.48444 219.45033,381.48444 L 215.27474,363.85418 C 215.27474,363.85418 217.53003,360.86765 218.98637,360.60651 C 222.06509,360.05446 228.72941,364.31814 228.72941,364.31814 C 228.72941,364.31814 239.16697,361.2179 242.64803,358.28673 C 246.33929,355.17856 248.36239,348.52954 251.46316,344.83206 C 253.55108,342.34233 256.59209,339.12636 259.35038,337.4088 C 260.35987,336.7802 261.88195,336.16408 263.06202,336.01693 C 265.56342,335.70501 268.97814,336.29306 271.41319,336.94484 C 273.76131,337.57335 276.43329,339.82716 278.83646,340.19252 C 280.08253,340.38196 283.01205,339.72857 283.01205,339.72857 C 283.01205,339.72857 274.51454,337.98508 270.94924,336.94484 C 266.55414,335.66248 261.11174,332.39241 256.56666,331.84135 C 255.17803,331.67299 253.23558,332.79986 251.92712,332.3053 C 249.43972,331.36513 246.86768,328.28509 245.89571,325.80994 C 245.74309,325.42128 246.19097,324.71334 245.89571,324.41808 C 244.8131,323.33547 242.26484,324.837 240.79222,324.41808 C 237.48576,323.47747 233.39363,320.90083 231.04918,318.38667 C 229.01108,316.20104 226.40145,312.55999 226.40964,309.57155 C 226.41612,307.20539 228.47273,304.3096 230.12127,302.61223 C 232.46673,300.19729 239.86431,297.04478 239.86431,297.04478 C 239.86431,297.04478 236.53527,301.66907 236.15268,304.0041 C 235.87889,305.67509 236.0746,308.2095 237.08058,309.57155 C 237.63529,310.3226 238.95943,310.73326 239.86431,310.96341 C 243.77849,311.95894 253.31898,311.42736 253.31898,311.42736 C 253.31898,311.42736 257.49856,303.70302 259.81434,300.75642 C 262.73348,297.04211 267.18527,292.47634 270.94924,289.62152 C 272.98504,288.07745 276.03641,286.48097 278.37251,285.44593 C 281.18942,284.19786 285.78797,284.21694 288.11554,282.19825 C 289.52626,280.97474 290.2223,278.37115 290.89927,276.6308 C 291.63395,274.74208 292.78822,272.16175 292.75509,270.13544 C 292.68817,266.0424 288.5795,257.14472 288.5795,257.14472 C 288.5795,257.14472 182.9977,304.27268 134.93781,302.78263 C 126.10543,302.50879 114.48645,297.77003 107.27556,292.66229 C 103.6381,290.08574 97.829915,281.19258 97.829915,281.19258 C 97.829915,281.19258 90.400409,284.90286 89.058957,287.93947 C 88.074077,290.16892 88.955544,293.72598 89.733646,296.03574 C 90.576159,298.5367 94.456469,303.45732 94.456469,303.45732 C 94.456469,303.45732 86.676384,301.13212 84.336133,298.7345 C 81.867041,296.20488 80.337066,291.39947 79.61331,287.93947 C 78.950236,284.76957 79.367081,281.76177 80.962688,278.94362 C 82.125677,276.88956 85.638834,272.73563 85.638834,272.73563 C 85.638834,272.73563 80.801601,265.19467 78.983602,261.49166 C 77.3903,258.24633 74.890486,250.15688 74.890486,250.15688 C 74.890486,250.15688 71.931297,250.83325 70.842352,251.50626 C 69.868369,252.10822 68.646647,253.17646 68.143596,254.20502 C 67.426639,255.67094 66.62455,258.2061 67.468907,259.60253 C 68.363717,261.0824 72.866419,261.6266 72.866419,261.6266 C 72.866419,261.6266 70.781796,264.18881 69.492974,264.32535 C 66.792515,264.61144 62.937663,262.51324 61.396705,260.27722 C 59.088123,256.92734 59.01903,250.71967 60.047327,246.78344 C 60.671811,244.39298 62.928576,241.68364 64.77015,240.03655 C 66.660516,238.34582 72.19173,235.98841 72.19173,235.98841 C 72.19173,235.98841 68.211693,231.59791 67.468907,229.24152 C 66.921244,227.50413 67.955169,224.92488 67.468907,223.16932 C 66.838824,220.89452 63.526671,218.7805 63.420772,216.42243 C 63.108045,209.4589 73.541108,195.50707 73.541108,195.50707 C 73.541108,195.50707 67.184605,207.73594 62.071394,209.67554 C 59.769087,210.54888 53.975125,208.32616 53.975125,208.32616 L 49.252302,195.50707 C 49.252302,195.50707 49.807658,191.02257 51.276369,190.10956 C 54.73151,187.96171 64.77015,191.45893 64.77015,191.45893 L 55.999192,188.76018 L 55.999192,178.63984 L 63.420772,175.2664 C 63.420772,175.2664 54.899195,179.72295 51.276369,178.63984 C 49.214914,178.02353 46.553546,173.24233 46.553546,173.24233 L 48.577613,163.12199 C 48.577613,163.12199 50.762238,158.49741 52.625747,158.39917 C 57.630152,158.13536 64.77015,169.86888 64.77015,169.86888 L 57.348571,161.09793 L 60.047327,157.04979 L 67.468907,164.47137 L 60.047327,156.3751 L 60.722016,148.95352 L 63.420772,148.95352 C 63.420772,148.95352 58.348967,147.65634 57.348571,146.02987 C 56.1773,144.12559 55.709936,141.40124 56.898778,139.50788 C 58.738007,136.57871 67.468907,135.00995 67.468907,135.00995 C 67.468907,135.00995 75.540345,134.69079 77.589243,136.80912 C 79.32984,138.6087 79.940498,141.07385 79.61331,143.55601 C 79.340975,145.62204 75.790071,149.40332 75.790071,149.40332 C 75.790071,149.40332 78.201316,161.62109 80.287999,166.49544 C 82.719823,172.17601 87.194125,179.23537 91.083024,184.03736 C 94.777191,188.5989 101.57417,192.95601 105.25149,197.53114 C 110.88394,204.53873 116.67951,215.16282 120.76934,223.16932 C 125.96811,233.34676 135.6125,258.25315 135.6125,258.25315 L 261.77936,229.91621 L 316.42917,231.94028 L 353.53707,247.45813 L 363.51738,271.9294 z"
             style="fill:#f8de00;fill-opacity:1;fill-rule:evenodd;stroke:#000000;stroke-width:3;stroke-linecap:butt;stroke-linejoin:miter;stroke-miterlimit:4;stroke-dasharray:none;stroke-opacity:1" />
          <path
             sodipodi:nodetypes="css"
             id="path8120"
             d="M 245.6096,323.6508 C 245.6096,323.6508 249.1256,322.57657 250.48004,321.7954 C 251.72258,321.07877 254.19086,318.78036 254.19086,318.78036"
             style="fill:none;fill-rule:evenodd;stroke:#000000;stroke-width:2.5;stroke-linecap:butt;stroke-linejoin:miter;stroke-miterlimit:4;stroke-dasharray:none;stroke-opacity:1" />
          <path
             sodipodi:nodetypes="csss"
             id="path8122"
             d="M 262.30827,319.47614 C 262.30827,319.47614 258.96965,320.18078 257.90167,321.09962 C 256.69777,322.13539 255.48382,324.1556 255.35049,325.73814 C 255.20824,327.42649 257.20589,331.07243 257.20589,331.07243"
             style="fill:none;fill-rule:evenodd;stroke:#000000;stroke-width:2.5;stroke-linecap:butt;stroke-linejoin:miter;stroke-miterlimit:4;stroke-dasharray:none;stroke-opacity:1" />
          <path
             sodipodi:nodetypes="csss"
             id="path8124"
             d="M 265.78715,321.56347 C 265.78715,321.56347 262.77273,323.27787 262.30827,324.57851 C 261.61969,326.50678 262.69298,329.40914 263.4679,331.30436 C 263.88426,332.32265 265.55523,334.3194 265.55523,334.3194"
             style="fill:none;fill-rule:evenodd;stroke:#000000;stroke-width:2.5;stroke-linecap:butt;stroke-linejoin:miter;stroke-miterlimit:4;stroke-dasharray:none;stroke-opacity:1" />
          <path
             sodipodi:nodetypes="csss"
             id="path8126"
             d="M 272.28108,322.7231 C 272.28108,322.7231 269.47723,325.37428 269.03412,326.89777 C 268.62421,328.30711 268.95844,330.40323 269.49797,331.76821 C 270.20907,333.56723 273.44071,336.87058 273.44071,336.87058"
             style="fill:none;fill-rule:evenodd;stroke:#000000;stroke-width:2.5;stroke-linecap:butt;stroke-linejoin:miter;stroke-miterlimit:4;stroke-dasharray:none;stroke-opacity:1" />
          <path
             sodipodi:nodetypes="css"
             id="path8128"
             d="M 259.52515,370.26792 C 259.52515,370.26792 259.93636,366.31343 260.22093,364.93363 C 260.60862,363.0538 264.62752,360.29511 264.62752,360.29511"
             style="fill:none;fill-rule:evenodd;stroke:#000000;stroke-width:2.5;stroke-linecap:butt;stroke-linejoin:miter;stroke-miterlimit:4;stroke-dasharray:none;stroke-opacity:1" />
          <path
             sodipodi:nodetypes="csc"
             id="path8130"
             d="M 242.59456,375.37029 C 242.59456,375.37029 242.48658,372.62472 243.05841,371.65948 C 243.84583,370.33034 247.23308,368.64444 247.23308,368.64444"
             style="fill:none;fill-rule:evenodd;stroke:#000000;stroke-width:2.5;stroke-linecap:butt;stroke-linejoin:miter;stroke-miterlimit:4;stroke-dasharray:none;stroke-opacity:1" />
          <path
             sodipodi:nodetypes="csss"
             id="path8132"
             d="M 85.481831,273.64795 C 85.481831,273.64795 89.438972,269.84139 90.892074,268.2377 C 92.074812,266.93239 93.746966,265.23563 95.220268,264.27019 C 96.111631,263.68609 98.466414,262.82746 98.466414,262.82746"
             style="fill:none;fill-rule:evenodd;stroke:#000000;stroke-width:2.5;stroke-linecap:butt;stroke-linejoin:miter;stroke-miterlimit:4;stroke-dasharray:none;stroke-opacity:1" />
          <path
             sodipodi:nodetypes="cssss"
             id="path8134"
             d="M 74.661347,250.20356 C 74.661347,250.20356 77.89484,248.97967 79.350223,248.76083 C 81.490262,248.43904 84.541052,249.52991 86.56388,248.76083 C 88.999689,247.83474 91.414247,245.01349 93.056171,242.9899 C 94.155495,241.63504 95.941634,237.94034 95.941634,237.94034"
             style="fill:none;fill-rule:evenodd;stroke:#000000;stroke-width:2.5;stroke-linecap:butt;stroke-linejoin:miter;stroke-miterlimit:4;stroke-dasharray:none;stroke-opacity:1" />
          <path
             sodipodi:nodetypes="cs"
             id="path8136"
             d="M 71.415201,236.13693 C 71.415201,236.13693 76.712236,236.17401 78.963059,234.31145"
             style="fill:none;fill-rule:evenodd;stroke:#000000;stroke-width:2.5;stroke-linecap:butt;stroke-linejoin:miter;stroke-miterlimit:4;stroke-dasharray:none;stroke-opacity:1" />
          <path
             sodipodi:nodetypes="css"
             id="path8152"
             d="M 74.063329,207.03967 C 74.063329,207.03967 76.885055,222.9776 82.297389,227.74881 C 86.116897,231.11587 94.686082,232.71304 94.686082,232.71304"
             style="fill:none;fill-rule:evenodd;stroke:#000000;stroke-width:2.5;stroke-linecap:butt;stroke-linejoin:miter;stroke-miterlimit:4;stroke-dasharray:none;stroke-opacity:1" />
          <path
             sodipodi:nodetypes="csssssscssss"
             id="path8154"
             d="M 84.965287,148.62778 C 85.100965,150.16538 85.98881,152.26331 87.141142,153.29033 C 88.021709,154.07514 89.723193,154.80468 90.871181,154.53368 C 92.411369,154.17009 93.872843,153.63502 94.494301,152.17963 C 96.179208,148.23375 96.82114,143.18218 95.42681,139.1245 C 94.371365,136.05302 91.476983,132.21652 88.588407,130.73191 C 87.258811,130.04855 86.003648,129.46097 84.547533,129.7994 C 83.082944,130.1398 79.574148,131.66442 79.574148,131.66442 C 79.574148,131.66442 82.854913,132.84854 83.92586,133.84027 C 85.122727,134.94861 86.252371,136.94108 86.723388,138.50282 C 87.316377,140.46899 86.429158,141.92347 86.208633,143.96524 C 86.053182,145.40451 84.838042,147.18574 84.965287,148.62778 z"
             style="fill:#ffffff;fill-rule:evenodd;stroke:#000000;stroke-width:2.5;stroke-linecap:butt;stroke-linejoin:miter;stroke-miterlimit:4;stroke-dasharray:none;stroke-opacity:1" />
          <path
             sodipodi:nodetypes="cssssssssssc"
             id="path8156"
             d="M 48.179661,133.52944 C 48.179661,133.52944 49.010123,128.21771 51.288025,126.38019 C 53.583204,124.52873 57.665539,123.18521 60.61312,123.27183 C 62.62094,123.33083 65.322496,124.43085 66.829851,125.75852 C 69.711689,128.29683 72.10037,131.91791 72.735745,135.7053 C 73.002078,137.29288 73.218738,139.27826 72.424909,140.67868 C 71.512128,142.28894 69.613153,143.13912 67.762361,143.16537 C 66.437149,143.18416 64.622851,141.33948 63.721486,140.36784 C 61.399075,137.86437 61.851689,133.00783 59.058938,131.04275 C 58.189398,130.43091 56.702331,130.14684 55.639737,130.11024 C 54.689324,130.07751 53.463881,130.54541 52.531371,130.73191 C 51.132607,131.01166 48.179661,133.52944 48.179661,133.52944 z"
             style="fill:#ffffff;fill-opacity:1;fill-rule:evenodd;stroke:#000000;stroke-width:2.5;stroke-linecap:butt;stroke-linejoin:miter;stroke-miterlimit:4;stroke-dasharray:none;stroke-opacity:1" />
          <path
             sodipodi:nodetypes="cssssssscsss"
             id="path8158"
             d="M 48.801333,171.14066 C 49.758447,170.96242 51.302874,170.96946 51.909698,170.20815 C 52.783481,169.11191 52.757007,166.84076 52.220535,165.5456 C 51.461849,163.71397 50.657197,162.20204 48.801334,161.50473 C 47.753824,161.11114 43.015919,162.05856 41.962929,162.43724 C 39.345121,163.37867 37.690617,164.65242 36.367873,167.09978 C 35.163366,169.32837 34.676846,173.07532 35.435363,175.49237 C 36.028979,177.38395 38.177427,179.30838 39.787074,180.46575 C 40.771323,181.17345 43.517112,182.01993 43.517112,182.01993 C 43.517112,182.01993 41.781065,176.99117 42.273766,174.87069 C 42.560825,173.63525 43.653132,172.06999 44.760458,171.45149 C 45.821944,170.8586 47.606038,171.36325 48.801333,171.14066 z"
             style="fill:#ffffff;fill-opacity:1;fill-rule:evenodd;stroke:#000000;stroke-width:2.5;stroke-linecap:butt;stroke-linejoin:miter;stroke-miterlimit:4;stroke-dasharray:none;stroke-opacity:1" />
          <path
             sodipodi:nodetypes="csssssscsss"
             id="path8160"
             d="M 51.288025,196.00758 C 52.547457,195.08166 55.165423,196.44717 56.26141,197.56176 C 57.419966,198.73998 58.166547,201.23127 57.815592,202.84598 C 57.422464,204.65473 55.34768,206.53287 53.774717,207.50853 C 51.564373,208.87954 47.950823,210.09317 45.382132,209.68438 C 42.648689,209.24937 39.235204,206.95234 37.611219,204.711 C 35.859534,202.29341 34.953523,198.05566 35.124526,195.07507 C 35.198921,193.77837 36.678709,191.03419 36.678709,191.03419 C 36.678709,191.03419 37.864153,195.33283 39.165401,196.62925 C 40.96972,198.42687 44.402513,199.78985 46.936314,200.04845 C 48.264565,200.18401 50.536712,196.55994 51.288025,196.00758 z"
             style="fill:#ffffff;fill-opacity:1;fill-rule:evenodd;stroke:#000000;stroke-width:2.5;stroke-linecap:butt;stroke-linejoin:miter;stroke-miterlimit:4;stroke-dasharray:none;stroke-opacity:1" />
          <path
             sodipodi:nodetypes="cscsssss"
             id="path8162"
             d="M 226.06652,355.86293 C 224.12809,356.05896 221.66705,354.50895 219.71882,354.49046 C 216.78168,354.46259 210.11149,356.37761 210.11149,356.37761 C 210.11149,356.37761 213.1547,352.18775 214.91515,350.88771 C 217.04646,349.3138 220.33011,347.3624 222.97845,347.28496 C 225.01365,347.22545 227.98007,348.15916 229.32615,349.68679 C 230.20096,350.67959 230.9434,352.79031 230.35551,353.97578 C 229.73096,355.23517 227.46513,355.72149 226.06652,355.86293 z"
             style="fill:#ffffff;fill-rule:evenodd;stroke:#000000;stroke-width:2.5;stroke-linecap:butt;stroke-linejoin:miter;stroke-miterlimit:4;stroke-dasharray:none;stroke-opacity:1" />
          <path
             sodipodi:nodetypes="cssssssscsssss"
             id="path8164"
             d="M 218.34996,369.5956 C 219.83464,369.54851 221.845,370.09658 223.16179,370.81508 C 224.50796,371.54959 226.55906,372.78796 226.95295,374.32106 C 227.20413,375.2987 226.51324,376.71236 225.93226,377.52218 C 225.51726,378.10063 224.67951,378.62726 224.03668,378.89409 C 222.6797,379.45734 220.48562,378.88655 219.22482,379.65626 C 218.12158,380.3298 217.0891,381.92831 216.60019,383.16225 C 215.90876,384.9073 215.39876,385.70348 215.57949,387.58284 C 215.71787,389.0217 217.47507,393.37534 217.47507,393.37534 C 217.47507,393.37534 212.5521,391.13324 211.20508,389.56449 C 209.23685,387.27225 208.00456,384.40989 208.143,381.33303 C 208.23045,379.38963 209.51239,376.95015 210.62184,375.3881 C 211.99084,373.46061 214.44069,371.35946 216.45437,370.20534 C 216.97609,369.90632 217.75524,369.61446 218.34996,369.5956 z"
             style="fill:#ffffff;fill-opacity:1;fill-rule:evenodd;stroke:#000000;stroke-width:2.5;stroke-linecap:butt;stroke-linejoin:miter;stroke-miterlimit:4;stroke-dasharray:none;stroke-opacity:1" />
          <path
             sodipodi:nodetypes="csssscsss"
             id="path8166"
             d="M 247.65564,383.98824 C 248.20354,383.31828 249.40481,382.79451 250.26988,382.76826 C 252.40491,382.70348 255.69109,383.61647 256.89262,385.3825 C 257.80435,386.72259 257.23433,389.20086 256.89262,390.78526 C 256.38449,393.1413 255.04936,396.19364 253.58125,398.10513 C 252.22333,399.87316 247.82992,402.81076 247.82992,402.81076 C 247.82992,402.81076 248.94343,397.68907 248.70133,395.49089 C 248.47686,393.45274 246.53919,391.09029 246.43566,389.04243 C 246.3569,387.48462 246.66818,385.19568 247.65564,383.98824 z"
             style="fill:#ffffff;fill-opacity:1;fill-rule:evenodd;stroke:#000000;stroke-width:2.5;stroke-linecap:butt;stroke-linejoin:miter;stroke-miterlimit:4;stroke-dasharray:none;stroke-opacity:1" />
          <path
             sodipodi:nodetypes="cssssscssss"
             id="path8168"
             d="M 276.76084,372.83415 C 277.85752,371.23365 281.10238,371.09467 283.03502,371.26561 C 284.69019,371.41201 285.77305,372.10823 286.86923,373.357 C 288.30967,374.99795 289.16712,378.15462 288.96062,380.32831 C 288.83234,381.67861 287.79381,383.34437 286.86923,384.33681 C 285.78119,385.5047 285.0665,386.77827 283.55786,387.29961 C 281.817,387.9012 277.45797,387.99674 277.45797,387.99674 C 277.45797,387.99674 280.2185,385.07533 280.59506,383.46539 C 281.00428,381.71581 280.65058,379.07903 279.72365,377.53978 C 279.22193,376.70663 277.60208,376.4612 277.10941,375.62267 C 276.68234,374.89578 276.2843,373.52961 276.76084,372.83415 z"
             style="fill:#ffffff;fill-opacity:1;fill-rule:evenodd;stroke:#000000;stroke-width:2.5;stroke-linecap:butt;stroke-linejoin:miter;stroke-miterlimit:4;stroke-dasharray:none;stroke-opacity:1" />
        </g>
      </g>
      <g
         transform="translate(-25.163704,-65.527947)"
         style="fill:#f8c300;fill-opacity:1"
         id="g3339">
        <path
           style="fill:#f8de00;fill-opacity:1;fill-rule:evenodd;stroke:#000000;stroke-width:3;stroke-linecap:butt;stroke-linejoin:miter;stroke-miterlimit:4;stroke-dasharray:none;stroke-opacity:1"
           d="M 293.24787,262.97598 C 289.05389,264.64325 284.62796,269.17118 281.66359,272.57438 C 280.05282,274.42359 277.36086,279.52495 277.36086,279.52495 C 277.36086,279.52495 283.87945,278.77665 286.62828,278.20103 C 292.07503,277.06046 298.94457,273.53978 304.50118,273.23634 C 309.42366,272.96753 315.98277,274.51687 320.71918,275.88418 C 326.1056,277.43913 337.93011,283.16573 337.93011,283.16573 C 337.93011,283.16573 326.79421,264.65805 318.7333,261.32108 C 311.65417,258.39054 300.36764,260.1456 293.24787,262.97598 z"
           id="path3303"
           sodipodi:nodetypes="cscssscss" />
      </g>
      <path
         sodipodi:nodetypes="csssccccss"
         id="path7806"
         d="M 59.51,284.24652 C 60.299585,283.20128 61.737784,282.01413 62.978562,281.59409 C 63.964183,281.26042 65.450289,281.29559 66.447123,281.59409 C 69.114316,282.39278 71.607022,285.68184 74.200378,286.69492 C 78.418256,288.34261 89.094786,289.14331 89.094786,289.14331 L 77.770956,302.40546 L 59.81605,304.03772 L 56.551521,298.42682 C 56.551521,298.42682 56.104188,293.89696 56.449505,291.99978 C 56.897302,289.53957 58.002719,286.24183 59.51,284.24652 z"
         style="fill:#f8de00;fill-opacity:1;fill-rule:evenodd;stroke:#000000;stroke-width:3;stroke-linecap:butt;stroke-linejoin:miter;stroke-miterlimit:4;stroke-dasharray:none;stroke-opacity:1" />
      <path
         id="path7808"
         d="M 59.612017,284.34854 L 59.612017,284.34854 z"
         style="fill:#f8c300;fill-opacity:1;fill-rule:evenodd;stroke:#000000;stroke-width:1px;stroke-linecap:butt;stroke-linejoin:miter;stroke-opacity:1" />
      <path
         sodipodi:nodetypes="csssccccc"
         id="path7851"
         d="M 356.24032,291.44144 C 356.24032,291.44144 347.24956,292.47652 344.00399,290.74882 C 341.77849,289.56413 341.16662,285.20691 338.92476,284.05347 C 336.76828,282.94395 333.05968,282.83621 330.84417,283.82259 C 329.18329,284.56204 326.91931,288.44007 326.91931,288.44007 L 331.07504,300.21465 L 336.84689,301.13815 L 346.68213,300.95345 L 356.24032,291.44144 z"
         style="fill:#f8de00;fill-opacity:1;fill-rule:evenodd;stroke:#000000;stroke-width:3;stroke-linecap:butt;stroke-linejoin:miter;stroke-miterlimit:4;stroke-dasharray:none;stroke-opacity:1" />
      <path
         sodipodi:nodetypes="ccccsccsccsssssccssssccsscscccsscscssscssccccsssssssssscssscssscssscscscssccssccccscscccscccsscsscsscsscsscsssscssscsssscssssscssscsssssscsssssssssscssscssssscsssssscssssscsssssssssssscssscsssscsssscssssssssscssssccc"
         id="path3268"
         d="M 153.26822,154.35704 L 83.741296,278.6441 L 75.742626,298.33314 L 69.589798,299.5637 C 69.589798,299.5637 61.79982,296.97361 58.514713,297.71785 C 56.317255,298.21568 52.361889,302.02483 52.361889,302.02483 L 59.129996,317.40689 C 59.129996,317.40689 62.405433,319.75098 64.052256,319.86802 C 65.798974,319.99216 69.589798,318.02218 69.589798,318.02218 L 72.050928,312.48463 C 72.050928,311.50303 84.277696,301.626 87.221926,300.79248 C 87.932346,300.59136 87.913096,298.59104 87.221926,298.33135 C 86.467976,298.04806 85.453336,300.57341 83.941346,302.00615 C 81.968426,303.87567 81.494646,305.51364 80.531096,306.296 C 76.836096,309.29614 77.152796,309.76424 76.357906,313.7152 C 76.012516,315.43192 78.203756,319.25274 78.203756,319.25274 L 97.892796,321.71387 C 97.892796,321.71387 104.08811,318.24465 104.6609,315.56105 C 105.3338,312.40843 101.01396,308.87187 100.35393,305.71653 C 99.862616,303.36776 97.987556,298.11583 100.35393,297.71785 C 102.60141,297.33987 99.216026,302.16821 100.01648,305.7921 C 100.99975,310.24364 105.89147,313.7152 105.89147,313.7152 L 113.89014,314.33048 C 113.89014,314.33048 122.67036,307.03619 124.34994,302.64011 C 124.61345,301.9504 124.79673,300.76679 124.34994,300.17898 C 122.26327,297.43367 113.27486,297.10257 113.27486,297.10257 C 113.27486,297.10257 112.92685,295.67204 113.48412,294.84892 C 114.72593,293.01474 119.42768,294.02616 119.42768,294.02616 L 121.27353,281.10523 L 124.34994,289.1039 C 124.34994,289.1039 128.61966,283.25707 129.67822,279.67255 C 130.46239,277.01715 130.55378,273.07 129.67822,270.44331 C 129.09451,268.69219 130.23748,268.53788 130.23748,268.53788 C 130.23748,268.53788 133.16288,270.44656 134.60227,273.51972 C 135.46704,275.36604 134.80617,281.31629 134.80617,281.31629 C 134.80617,281.31629 137.41744,278.16052 138.0832,276.56102 C 139.49876,273.16017 140.85804,268.14071 140.34729,264.4926 C 139.9467,261.6313 143.98917,255.00197 142.21111,252.72468 C 140.11651,250.04197 139.3565,249.24942 139.3565,249.24942 C 139.3565,249.24942 140.64083,249.38654 142.53059,250.72304 C 144.6123,252.19528 141.21397,258.14518 142.80842,260.8009 C 144.35511,263.37708 144.65426,270.64542 144.65426,270.64542 L 147.86891,264.33281 L 148.96124,257.10921 L 146.50011,241.11187 C 146.50011,241.11187 155.56351,229.64773 161.26689,228.19093 C 167.86229,226.50628 176.61377,233.34249 183.41706,233.11319 C 189.95505,232.89283 198.23982,229.33151 204.33667,226.96037 C 214.10775,223.16027 226.08959,215.7311 235.71607,211.57831 C 242.95654,208.45483 252.63514,204.08404 260.32737,202.34907 C 268.82086,200.43338 280.9013,197.40177 289.24565,199.88794 C 294.41221,201.4273 300.81868,206.22862 303.39714,210.96302 C 307.29769,218.12496 304.51811,229.4151 304.61635,237.56973 C 304.63273,238.92934 302.22324,240.72492 302.49045,245.02314 C 302.76857,249.49681 305.70065,256.4747 304.48949,257.71815 C 302.36538,259.89889 296.12159,261.10571 296.12159,261.10571 C 296.12159,261.10571 299.16332,263.71281 302.83722,264.2378 C 305.76541,264.65623 309.37831,263.12915 310.11757,262.42682 C 311.96,260.67644 313.47548,257.2352 313.85695,256.49393 C 315.79959,252.71901 313.85695,242.34243 313.85695,242.34243 C 313.85695,242.34243 314.06555,257.95881 318.16392,262.64675 C 319.97,264.71264 323.19719,264.72611 324.70714,267.01737 C 326.33542,269.48822 327.87823,272.32826 325.90376,274.53231 C 323.02846,277.74192 317.70565,280.3584 317.70565,280.3584 C 317.70565,280.3584 322.56648,281.92799 327.03672,280.78273 C 329.81835,280.07009 332.25655,278.13335 333.54599,275.56768 C 336.3945,269.89984 337.62561,260.91163 336.6224,254.64808 C 336.03492,250.98013 331.08486,243.573 331.08486,243.573 C 331.08486,243.573 335.42523,257.56406 340.31409,260.8009 C 343.71404,263.05196 351.00304,262.54916 351.00304,262.54916 C 351.00304,262.54916 347.45484,269.23751 346.46692,273.10655 C 344.90822,279.21096 348.31277,294.02616 348.31277,294.02616 C 348.31277,294.02616 340.27612,297.29746 336.6224,297.71785 C 334.23148,297.99294 330.77195,296.01753 328.62373,297.10257 C 327.06938,297.88766 325.54731,302.02483 325.54731,302.02483 L 334.16127,317.40689 C 334.16127,317.40689 339.04651,319.4823 340.92938,318.63746 C 344.09591,317.21665 344.50015,311.50151 346.95066,308.75899 C 349.37323,306.04773 355.69616,302.02483 355.69616,302.02483 L 351.38918,316.79161 L 354.46559,321.09859 L 368.61709,321.09859 C 368.61709,321.09859 373.03355,315.82308 372.92407,313.09992 C 372.77393,309.36538 366.15596,302.64011 366.15596,302.64011 C 366.15596,302.64011 369.83066,302.98713 371.62986,303.99798 C 373.87128,305.25729 376.00048,309.40822 376.00048,309.40822 L 382.76859,309.40822 L 390.76726,303.2554 C 390.76726,303.2554 391.96085,298.12985 390.76726,296.48729 C 388.65942,293.58657 379.39939,292.79559 379.39939,292.79559 L 386.46028,284.18164 L 382.1533,276.79825 C 382.1533,276.79825 391.88249,282.52524 396.3048,281.72051 C 399.14152,281.20431 402.36592,278.12992 403.68819,275.56768 C 404.79189,273.42899 404.30347,267.56901 404.30347,267.56901 C 404.30347,267.56901 402.26276,271.66578 400.61178,272.49127 C 399.1259,273.23421 396.21391,273.69996 395.07423,272.49127 C 392.91778,270.20425 395.68952,262.03147 395.68952,262.03147 C 395.68952,262.03147 403.04114,260.27221 405.53404,258.33977 C 407.3148,256.95936 409.79145,254.43955 409.84101,252.18695 C 409.89395,249.78084 405.53404,245.41884 405.53404,245.41884 C 405.53404,245.41884 406.16484,248.99404 404.91875,250.36827 C 403.65429,251.76275 400.51014,253.51015 398.76593,252.80223 C 395.44505,251.45438 391.99782,242.95771 391.99782,242.95771 C 391.99782,242.95771 398.51793,239.70732 399.77937,236.46106 C 400.27845,235.17671 400.22548,231.93979 398.94978,230.16734 C 397.03294,227.5041 395.49956,226.76129 395.49956,226.76129 C 395.49956,226.76129 396.84824,231.01396 395.07423,232.49791 C 393.28335,233.99597 390.01795,235.1488 387.69084,234.95904 C 383.74075,234.63694 378.67444,231.73144 376.00048,228.80622 C 372.76247,225.26396 371.49583,220.22018 369.62764,215.79952 C 369.08042,214.50465 368.31646,212.0272 368.31646,212.0272 C 368.31646,212.0272 374.95263,211.56963 377.62632,210.26197 C 379.50231,209.34446 382.33414,205.62228 382.76859,203.57963 C 383.41785,200.52701 381.67612,195.54188 379.04294,193.86665 C 376.85704,192.47599 372.62908,193.6019 372.62908,193.6019 C 372.62908,193.6019 375.63606,196.33008 376.64606,197.82581 C 377.36302,198.88758 375.4844,201.69558 374.81685,202.78909 C 374.27169,203.6821 372.40613,203.62782 371.384,203.40437 C 366.33165,202.29987 361.83794,197.28512 358.77257,193.11983 C 356.59263,190.15769 355.08087,181.42946 355.08087,181.42946 C 355.08087,181.42946 364.87189,180.70304 368.61709,178.96833 C 374.68617,176.15724 381.96466,170.26467 385.845,164.81684 C 388.92829,160.48803 391.13953,153.44908 391.99782,148.20421 C 392.98199,142.19011 392.51346,133.88813 391.38254,127.89989 C 390.36408,122.50712 388.04154,115.38503 385.22971,110.67198 C 382.68504,106.40672 374.15463,98.366333 374.15463,98.366333 C 374.15463,98.366333 369.52763,95.471703 368.61709,93.444073 C 367.78531,91.591833 367.39437,88.296953 368.61709,86.675963 C 369.42632,85.603143 371.85125,84.636173 372.92407,85.445403 C 373.95561,86.223493 375.99624,92.828793 375.99624,92.828793 C 375.99624,92.828793 378.86745,91.216623 380.30746,88.521813 C 381.45169,86.380523 380.01803,82.761143 379.07689,80.523143 C 378.36136,78.821623 377.01264,76.471863 375.3852,75.600883 C 372.4513,74.030703 367.20587,73.604233 363.94094,74.247263 C 359.72853,75.076893 355.31028,77.895523 352.49669,81.138423 C 350.46894,83.475583 348.60971,87.903023 348.31277,90.982943 C 348.15236,92.646713 348.55888,96.889653 348.55888,96.889653 C 348.55888,96.889653 327.55074,94.874603 317.54864,95.289923 C 307.54654,95.705243 293.06932,99.170063 282.47754,99.596893 C 278.04726,99.775423 272.05322,99.877353 267.71076,98.981613 C 261.13031,97.624233 252.10785,95.091173 246.79116,90.982943 C 244.27824,89.041193 241.81004,85.320643 240.63833,82.368993 C 239.12617,78.559713 238.73786,73.100633 240.51103,69.405623 C 241.908,66.494553 244.88725,64.070473 248.02172,63.295233 C 251.25204,62.496293 256.31577,62.083203 259.09681,63.910513 C 260.47659,64.817113 261.88474,67.214463 261.55794,68.832773 C 261.22108,70.500893 258.89745,72.094193 257.25096,72.524473 C 255.42972,73.000423 251.09813,71.293903 251.09813,71.293903 C 251.09813,71.293903 250.26768,74.679513 251.71342,76.603573 C 253.6082,79.125213 258.42773,80.683463 261.55794,80.295273 C 264.45429,79.936073 268.61166,77.296793 270.50139,75.072663 C 273.28768,71.793303 275.70943,64.489343 275.70943,64.489343 C 275.70943,64.489343 290.84728,66.026323 297.24432,65.104623 C 305.50624,63.914233 314.14296,62.490003 321.55027,58.641873 C 325.64527,56.514503 332.09337,52.976963 334.66262,49.143733 C 337.52915,44.866973 338.76428,38.089853 337.62509,33.068908 C 336.6106,28.597561 332.80171,25.182009 328.38847,23.938838 C 325.01742,22.989241 318.85669,25.876937 318.85669,25.876937 C 318.85669,25.876937 324.38786,26.387781 326.24008,27.722784 C 328.19249,29.130001 330.41198,31.104577 331.08486,33.415291 C 331.39451,34.478633 330.5746,37.768043 330.00926,38.720383 C 328.82864,40.709193 326.40437,41.954353 324.31675,42.949883 C 321.25366,44.410593 316.44367,44.537953 313.05025,44.567853 C 308.49152,44.608013 301.44271,40.659843 297.01645,39.568113 C 293.77075,38.767563 284.86576,39.682053 284.86576,39.682053 C 284.86576,39.682053 290.66764,31.821188 290.70866,28.839412 C 290.76008,25.102209 290.46527,19.971438 288.01508,17.149045 C 286.22845,15.091006 282.70219,13.304886 280.01641,12.842068 C 277.62384,12.429776 275.89688,12.354224 274.31604,14.196865 C 273.35453,15.317613 271.76153,17.540611 272.01774,18.994893 C 272.39259,21.122634 273.36078,22.34661 273.36078,22.34661 C 273.36078,22.34661 274.65219,20.272365 276.32472,18.994893 C 277.20486,18.322643 279.11795,18.347323 280.01641,18.994893 C 280.96347,19.677493 282.71602,22.797797 282.50669,23.946294 C 281.82437,27.689935 275.61083,31.908761 272.30352,33.790813 C 267.25423,36.664153 259.68622,33.794041 254.08968,35.352923 C 248.11232,37.017873 239.88562,39.506223 235.01592,43.351593 C 230.35091,47.035313 225.2408,53.721853 223.32556,59.348943 C 221.27816,65.364313 221.33132,74.339793 222.79514,80.523143 C 224.2409,86.630223 228.42474,94.331763 232.63966,98.981613 C 237.55638,104.40567 246.27232,109.50395 252.94398,112.51783 C 258.16684,114.87722 265.68917,116.41633 271.40246,116.86724 C 276.7673,117.29065 283.88991,116.12035 289.24565,115.59424 C 297.17887,114.81493 315.70279,113.13311 315.70279,113.13311 C 315.70279,113.13311 302.33834,117.34323 297.8596,121.13178 C 294.81087,123.71069 291.00624,128.24902 290.47621,132.20687 C 290.08882,135.09959 291.44457,139.4177 293.55263,141.4361 C 295.49388,143.29478 302.16658,143.89723 302.16658,143.89723 C 302.16658,143.89723 297.59699,139.52145 297.8596,137.12913 C 297.94505,136.35068 298.95592,135.51022 299.70545,135.28328 C 301.50708,134.73779 303.98554,136.70443 305.85827,136.51384 C 311.04254,135.98623 318.24804,133.50611 321.85562,129.74574 C 324.03924,127.46963 325.54731,119.90122 325.54731,119.90122 C 325.54731,119.90122 322.91885,131.49041 325.54731,135.28328 C 327.34392,137.87579 332.56297,140.66038 335.65067,141.30456 C 339.08862,142.02181 343.80336,140.84847 347.0822,139.59026 C 349.27563,138.74856 352.41482,136.39314 352.61974,134.05271 C 352.81627,131.80816 348.31277,127.89989 348.31277,127.89989 C 348.31277,127.89989 349.22642,131.29322 348.31277,132.20687 C 347.13808,133.38156 344.33033,132.79118 342.77522,132.20687 C 340.93843,131.51672 338.66376,129.6867 337.85296,127.89989 C 337.1665,126.38709 337.17709,123.87991 337.85296,122.36235 C 338.86328,120.09382 341.72465,117.8063 344.00579,116.8248 C 348.25823,114.99512 354.99053,114.14698 359.38785,115.59424 C 364.7319,117.35309 370.83945,122.964 373.53935,127.89989 C 376.58349,133.46511 378.03845,142.63771 376.61576,148.81949 C 375.51344,153.60923 371.25243,159.32068 367.38652,162.35571 C 363.66507,165.27732 352.61974,167.89325 352.61974,167.89325 C 352.61974,167.89325 332.29466,167.80508 327.1243,166.70687 C 313.1012,163.72829 303.7884,157.69933 289.55625,155.97732 C 284.05575,155.31179 275.01616,154.58277 269.47748,154.43616 C 260.06514,154.18702 245.38609,155.19701 236.01485,154.28382 C 220.15782,152.73863 184.20207,149.05287 184.20207,149.05287 L 163.72802,143.89723 L 153.26822,154.35704 z"
         style="fill:#f8de00;fill-opacity:1;fill-rule:evenodd;stroke:#000000;stroke-width:3;stroke-linecap:butt;stroke-linejoin:miter;stroke-miterlimit:4;stroke-dasharray:none;stroke-opacity:1" />
      <path
         sodipodi:nodetypes="csssc"
         id="path7898"
         d="M 246.61784,53.707103 C 246.61784,53.707103 254.10135,52.693283 257.32534,52.762323 C 260.94562,52.839843 264.80488,53.640793 268.03284,55.281733 C 270.47523,56.523323 274.45768,60.016183 275.24267,62.641183 C 275.54531,63.653193 274.61282,66.105373 274.61282,66.105373"
         style="fill:none;fill-rule:evenodd;stroke:#000000;stroke-width:2.5;stroke-linecap:butt;stroke-linejoin:miter;stroke-miterlimit:4;stroke-dasharray:none;stroke-opacity:1" />
      <path
         sodipodi:nodetypes="csc"
         id="path7900"
         d="M 279.3702,53.707103 C 279.3702,53.707103 288.08952,58.668523 292.04992,60.271373 C 295.41908,61.634953 307.08372,63.469813 307.08372,63.469813"
         style="fill:none;fill-rule:evenodd;stroke:#000000;stroke-width:2.5;stroke-linecap:butt;stroke-linejoin:miter;stroke-miterlimit:4;stroke-dasharray:none;stroke-opacity:1" />
      <path
         sodipodi:nodetypes="csc"
         id="path7902"
         d="M 301.41505,52.762323 C 301.41505,52.762323 307.60045,56.417113 310.54792,57.171293 C 314.12225,58.085863 322.83005,57.801143 322.83005,57.801143"
         style="fill:none;fill-rule:evenodd;stroke:#000000;stroke-width:2.5;stroke-linecap:butt;stroke-linejoin:miter;stroke-miterlimit:4;stroke-dasharray:none;stroke-opacity:1" />
      <path
         sodipodi:nodetypes="cssc"
         id="path7904"
         d="M 285.98365,39.535413 C 285.98365,39.535413 280.42475,43.011143 277.79557,43.944383 C 275.89221,44.619983 273.15301,45.645413 271.18211,45.204083 C 269.92813,44.923293 267.71792,42.684673 267.71792,42.684673"
         style="fill:none;fill-rule:evenodd;stroke:#000000;stroke-width:2.5;stroke-linecap:butt;stroke-linejoin:miter;stroke-miterlimit:4;stroke-dasharray:none;stroke-opacity:1" />
      <path
         sodipodi:nodetypes="cscssss"
         id="path7906"
         d="M 339.94492,96.397433 C 339.94492,96.397433 343.60091,96.055723 345.1133,96.397433 C 350.13863,97.532863 360.61842,103.78082 360.61842,103.78082 C 360.61842,103.78082 358.19286,96.087513 358.4034,92.705733 C 358.59926,89.559803 359.66071,85.119363 361.72592,82.738153 C 363.3485,80.867303 366.69909,79.615433 369.10931,79.046463 C 369.75604,78.893793 371.32433,79.046463 371.32433,79.046463"
         style="fill:none;fill-rule:evenodd;stroke:#000000;stroke-width:2.5;stroke-linecap:butt;stroke-linejoin:miter;stroke-miterlimit:4;stroke-dasharray:none;stroke-opacity:1" />
      <path
         sodipodi:nodetypes="cssss"
         id="path7908"
         d="M 297.9834,136.20768 C 297.9834,136.20768 299.89447,131.61765 301.57947,130.13788 C 303.45691,128.4891 308.51299,126.98051 310.78053,125.93098 C 312.28814,125.23318 314.3866,124.05098 315.21057,122.60846 C 315.708,121.73762 315.57974,119.28593 315.57974,119.28593"
         style="fill:none;fill-rule:evenodd;stroke:#000000;stroke-width:2.5;stroke-linecap:butt;stroke-linejoin:miter;stroke-miterlimit:4;stroke-dasharray:none;stroke-opacity:1" />
      <path
         sodipodi:nodetypes="cc"
         id="path7910"
         d="M 327.71141,113.1416 L 324.77079,122.29021"
         style="fill:none;fill-rule:evenodd;stroke:#000000;stroke-width:2.5;stroke-linecap:butt;stroke-linejoin:miter;stroke-miterlimit:4;stroke-dasharray:none;stroke-opacity:1" />
      <path
         sodipodi:nodetypes="cssc"
         id="path7912"
         d="M 355.81072,181.7562 C 355.81072,181.7562 349.12837,178.69401 345.6819,177.83537 C 342.63827,177.07709 338.2791,178.55603 335.22634,177.83537 C 332.66653,177.23108 327.38468,173.91453 327.38468,173.91453"
         style="fill:none;fill-rule:evenodd;stroke:#000000;stroke-width:2.5;stroke-linecap:butt;stroke-linejoin:miter;stroke-miterlimit:4;stroke-dasharray:none;stroke-opacity:1" />
      <path
         sodipodi:nodetypes="cssscscss"
         id="path7914"
         d="M 327.71141,187.63745 C 327.71141,187.63745 334.52745,188.88395 336.86003,190.57808 C 340.38196,193.13603 341.50149,199.13191 344.44285,202.34058 C 346.36826,204.44097 349.14822,206.21691 350.3538,208.18365 C 351.38259,209.86198 352.86161,214.24736 352.86161,214.24736 C 352.86161,214.24736 354.64451,209.52087 354.57167,207.04219 C 354.54354,206.08499 354.50378,200.05343 354.50378,200.05343 C 354.50378,200.05343 360.53382,208.62617 364.30587,210.83572 C 365.43429,211.49671 368.55344,211.81593 368.55344,211.81593"
         style="fill:none;fill-rule:evenodd;stroke:#000000;stroke-width:2.5;stroke-linecap:butt;stroke-linejoin:miter;stroke-miterlimit:4;stroke-dasharray:none;stroke-opacity:1" />
      <path
         sodipodi:nodetypes="css"
         id="path7916"
         d="M 378.50619,239.87874 C 378.50619,239.87874 383.00854,242.59539 385.154,243.20265 C 386.97339,243.71761 391.43249,243.75663 391.43249,243.75663"
         style="fill:none;fill-rule:evenodd;stroke:#000000;stroke-width:2.5;stroke-linecap:butt;stroke-linejoin:miter;stroke-miterlimit:4;stroke-dasharray:none;stroke-opacity:1" />
      <path
         sodipodi:nodetypes="cssc"
         id="path7918"
         d="M 394.94106,265.54668 C 394.94106,265.54668 393.20259,259.87379 391.80181,257.7909 C 390.24956,255.48278 387.5663,252.71256 385.154,251.32775 C 384.25645,250.8125 381.83009,250.40445 381.83009,250.40445"
         style="fill:none;fill-rule:evenodd;stroke:#000000;stroke-width:2.5;stroke-linecap:butt;stroke-linejoin:miter;stroke-miterlimit:4;stroke-dasharray:none;stroke-opacity:1" />
      <path
         sodipodi:nodetypes="csssc"
         id="path7920"
         d="M 377.0289,258.34489 C 377.0289,258.34489 382.64393,260.4273 384.23069,262.40744 C 386.57334,265.33087 387.47629,270.53892 389.21655,273.85645 C 390.09492,275.53092 391.17626,277.9023 392.54046,279.21163 C 393.59641,280.2251 396.78767,281.61223 396.78767,281.61223"
         style="fill:none;fill-rule:evenodd;stroke:#000000;stroke-width:2.5;stroke-linecap:butt;stroke-linejoin:miter;stroke-miterlimit:4;stroke-dasharray:none;stroke-opacity:1" />
      <path
         sodipodi:nodetypes="csc"
         id="path7922"
         d="M 382.75339,278.10366 C 382.75339,278.10366 377.71505,270.20776 376.47492,268.50127 C 375.43633,267.07211 372.41236,265.17736 372.41236,265.17736"
         style="fill:none;fill-rule:evenodd;stroke:#000000;stroke-width:2.5;stroke-linecap:butt;stroke-linejoin:miter;stroke-miterlimit:4;stroke-dasharray:none;stroke-opacity:1" />
      <path
         sodipodi:nodetypes="cc"
         id="path7926"
         d="M 193.5037,161.098 L 198.69184,171.96136"
         style="fill:none;fill-rule:evenodd;stroke:#000000;stroke-width:2.5;stroke-linecap:butt;stroke-linejoin:miter;stroke-miterlimit:4;stroke-dasharray:none;stroke-opacity:1" />
      <path
         sodipodi:nodetypes="cc"
         id="path7928"
         d="M 200.05226,159.43632 L 203.45692,168.23387"
         style="fill:none;fill-rule:evenodd;stroke:#000000;stroke-width:2.5;stroke-linecap:butt;stroke-linejoin:miter;stroke-miterlimit:4;stroke-dasharray:none;stroke-opacity:1" />
      <path
         sodipodi:nodetypes="cc"
         id="path7930"
         d="M 206.27485,159.01266 L 209.63959,164.57139"
         style="fill:none;fill-rule:evenodd;stroke:#000000;stroke-width:2.5;stroke-linecap:butt;stroke-linejoin:miter;stroke-miterlimit:4;stroke-dasharray:none;stroke-opacity:1" />
      <path
         sodipodi:nodetypes="cc"
         id="path7932"
         d="M 211.71514,157.81236 L 214.71338,163.41946"
         style="fill:none;fill-rule:evenodd;stroke:#000000;stroke-width:2.5;stroke-linecap:butt;stroke-linejoin:miter;stroke-miterlimit:4;stroke-dasharray:none;stroke-opacity:1" />
      <path
         sodipodi:nodetypes="cccsssc"
         id="path7934"
         d="M 363.00853,252.06438 L 359.63587,256.96072 L 352.00034,262.00381 C 352.00034,262.00381 353.14565,263.83607 354.35161,264.56883 C 355.12323,265.03767 356.91559,265.39029 357.77163,265.1032 C 359.36691,264.5682 361.5361,263.53638 362.58103,262.21756 C 363.10368,261.55791 363.43604,259.54567 363.43604,259.54567"
         style="fill:none;fill-rule:evenodd;stroke:#000000;stroke-width:2.5;stroke-linecap:butt;stroke-linejoin:miter;stroke-miterlimit:4;stroke-dasharray:none;stroke-opacity:1" />
      <path
         sodipodi:nodetypes="cssscsssc"
         id="path7936"
         d="M 336.50045,232.91123 C 336.50045,232.91123 337.55318,239.30022 339.23656,241.36831 C 340.80831,243.29926 344.07968,244.71038 346.44995,245.47247 C 348.48576,246.12703 350.41931,246.60165 352.41964,245.84557 C 354.17338,245.18271 357.7675,241.61704 357.7675,241.61704 C 357.7675,241.61704 356.45383,246.60834 355.03138,248.20858 C 353.15583,250.31855 349.59285,252.26444 346.82305,252.81022 C 345.01593,253.16631 342.47158,252.66057 340.72899,252.06401 C 338.38616,251.26196 333.63997,247.83548 333.63997,247.83548"
         style="fill:none;fill-rule:evenodd;stroke:#000000;stroke-width:2.5;stroke-linecap:butt;stroke-linejoin:miter;stroke-miterlimit:4;stroke-dasharray:none;stroke-opacity:1" />
      <path
         sodipodi:nodetypes="csssc"
         id="path7938"
         d="M 322.69552,246.84052 C 322.69552,246.84052 322.9613,253.25657 324.43668,255.54634 C 325.58876,257.33435 328.27161,258.68614 329.5358,260.39672 C 330.72192,262.00167 331.7626,263.85217 332.39628,265.74457 C 333.07489,267.77112 334.24435,274.34453 334.24435,274.34453"
         style="fill:none;fill-rule:evenodd;stroke:#000000;stroke-width:2.5;stroke-linecap:butt;stroke-linejoin:miter;stroke-miterlimit:4;stroke-dasharray:none;stroke-opacity:1" />
      <path
         sodipodi:nodetypes="csc"
         id="path7940"
         d="M 344.34525,184.37009 C 344.34525,184.37009 349.44114,189.02264 350.99879,191.49888 C 352.66936,194.15462 354.80081,201.24156 354.80081,201.24156"
         style="fill:none;fill-rule:evenodd;stroke:#000000;stroke-width:2.5;stroke-linecap:butt;stroke-linejoin:miter;stroke-miterlimit:4;stroke-dasharray:none;stroke-opacity:1" />
      <path
         sodipodi:nodetypes="csss"
         id="path7948"
         d="M 197.40517,204.84306 C 197.40517,204.84306 201.02982,208.82786 203.13295,209.56087 C 205.02947,210.22187 207.49157,210.98214 209.47845,211.27542 C 211.25411,211.53752 214.73571,211.6708 214.73571,211.6708"
         style="fill:none;fill-rule:evenodd;stroke:#000000;stroke-width:2.5;stroke-linecap:butt;stroke-linejoin:miter;stroke-miterlimit:4;stroke-dasharray:none;stroke-opacity:1" />
      <path
         sodipodi:nodetypes="csss"
         id="path7950"
         d="M 205.95143,202.98442 C 205.95143,202.98442 207.96575,205.30967 209.08307,205.8029 C 210.50576,206.43092 212.88864,206.40557 214.40686,206.74239 C 215.87437,207.06796 219.41748,206.74239 219.41748,206.74239"
         style="fill:none;fill-rule:evenodd;stroke:#000000;stroke-width:2.5;stroke-linecap:butt;stroke-linejoin:miter;stroke-miterlimit:4;stroke-dasharray:none;stroke-opacity:1" />
      <path
         sodipodi:nodetypes="css"
         id="path7952"
         d="M 214.72002,201.10544 C 214.72002,201.10544 219.97696,202.00853 222.23596,202.35809 C 223.54898,202.56127 226.62026,202.98442 226.62026,202.98442"
         style="fill:none;fill-rule:evenodd;stroke:#000000;stroke-width:2.5;stroke-linecap:butt;stroke-linejoin:miter;stroke-miterlimit:4;stroke-dasharray:none;stroke-opacity:1" />
      <path
         sodipodi:nodetypes="css"
         id="path7954"
         d="M 225.68077,197.97379 C 225.68077,197.97379 232.94227,198.41463 236.01518,198.91329 C 237.63475,199.17611 241.33897,200.16594 241.33897,200.16594"
         style="fill:none;fill-rule:evenodd;stroke:#000000;stroke-width:2.5;stroke-linecap:butt;stroke-linejoin:miter;stroke-miterlimit:4;stroke-dasharray:none;stroke-opacity:1" />
      <path
         sodipodi:nodetypes="csss"
         id="path7956"
         d="M 234.76253,193.90266 C 234.76253,193.90266 241.83345,194.97444 244.78378,195.78164 C 246.90511,196.36203 251.67339,198.28696 251.67339,198.28696 C 251.67339,198.28696 251.67339,198.28696 251.67339,198.28696"
         style="fill:none;fill-rule:evenodd;stroke:#000000;stroke-width:2.5;stroke-linecap:butt;stroke-linejoin:miter;stroke-miterlimit:4;stroke-dasharray:none;stroke-opacity:1" />
      <path
         sodipodi:nodetypes="csss"
         id="path7958"
         d="M 247.91542,191.08418 C 247.91542,191.08418 252.7905,191.74112 254.80503,192.33684 C 256.68659,192.89324 259.23507,193.72781 260.84128,194.85473 C 262.40267,195.95021 265.13945,199.53961 265.13945,199.53961"
         style="fill:none;fill-rule:evenodd;stroke:#000000;stroke-width:2.5;stroke-linecap:butt;stroke-linejoin:miter;stroke-miterlimit:4;stroke-dasharray:none;stroke-opacity:1" />
      <path
         sodipodi:nodetypes="csssscssssss"
         id="path8205"
         d="M 65.103289,286.43606 C 63.212012,284.2723 60.238222,283.02121 57.366118,283.12013 C 54.896034,283.2052 51.922046,285.25394 49.997384,286.8045 C 48.007895,288.40728 45.353426,290.97887 44.655052,293.43636 C 44.289656,294.72214 44.362731,295.77454 45.023489,296.9365 C 45.646456,298.03201 47.418327,300.06821 47.418327,300.06821 C 47.418327,300.06821 47.802552,297.40028 48.523637,296.56807 C 49.608139,295.31643 51.902564,294.61912 53.497533,294.17323 C 55.15521,293.70981 57.517199,293.94122 59.208302,293.62057 C 60.394189,293.39571 62.0654,293.17388 63.076887,292.51526 C 64.16203,291.80868 65.56128,290.46385 65.840162,289.19933 C 66.024936,288.36151 65.667913,287.08203 65.103289,286.43606 z"
         style="fill:#ffffff;fill-rule:evenodd;stroke:#000000;stroke-width:2.5;stroke-linecap:butt;stroke-linejoin:miter;stroke-miterlimit:4;stroke-dasharray:none;stroke-opacity:1" />
      <path
         sodipodi:nodetypes="cssssscssssss"
         id="path8207"
         d="M 63.076887,303.56836 C 63.846111,304.9122 63.889099,307.31112 63.261105,308.72648 C 62.704352,309.98128 61.043013,311.18324 59.760957,311.67397 C 58.108514,312.30648 55.489869,311.15564 53.865969,311.85819 C 51.929209,312.6961 49.96723,315.01627 48.892074,316.83208 C 48.188138,318.02094 47.603401,319.87168 47.602545,321.25332 C 47.601439,323.03729 49.26051,326.96409 49.26051,326.96409 C 49.26051,326.96409 43.171777,322.34014 42.075995,319.41114 C 41.203718,317.07956 41.686536,313.49255 42.444431,311.12132 C 43.125813,308.98948 44.902293,306.42798 46.497235,304.85789 C 47.983437,303.39485 50.395718,301.77623 52.392222,301.17352 C 54.297617,300.59831 57.105589,300.45943 59.024083,300.98931 C 60.413219,301.37299 62.360955,302.31762 63.076887,303.56836 z"
         style="fill:#ffffff;fill-rule:evenodd;stroke:#000000;stroke-width:2.5;stroke-linecap:butt;stroke-linejoin:miter;stroke-miterlimit:4;stroke-dasharray:none;stroke-opacity:1" />
      <path
         sodipodi:nodetypes="csssssscssss"
         id="path8209"
         d="M 91.814956,317.56896 C 91.599796,315.52351 89.936226,314.03638 87.946366,313.51616 C 85.753506,312.94286 82.133406,312.98477 80.393416,314.43725 C 79.136996,315.48606 79.588486,318.17074 79.288106,319.77958 C 78.917916,321.76232 78.213886,324.39468 78.182796,326.41144 C 78.150996,328.47461 78.398636,331.28837 79.103886,333.22752 C 79.528366,334.39467 80.276516,336.04577 81.314506,336.72767 C 82.810516,337.71046 87.209496,337.64876 87.209496,337.64876 C 87.209496,337.64876 83.849716,335.19793 83.340906,333.59595 C 82.884286,332.15827 83.487476,330.01021 84.077776,328.62206 C 85.033776,326.37392 87.402206,323.97645 89.051676,322.17442 C 90.372016,320.73197 92.019526,319.51373 91.814956,317.56896 z"
         style="fill:#ffffff;fill-rule:evenodd;stroke:#000000;stroke-width:2.5;stroke-linecap:butt;stroke-linejoin:miter;stroke-miterlimit:4;stroke-dasharray:none;stroke-opacity:1" />
      <path
         sodipodi:nodetypes="cssscssssss"
         id="path8211"
         d="M 119.4477,305.59476 C 121.56593,306.67342 123.70233,307.9024 124.79003,310.016 C 125.97859,312.3256 125.84085,316.29884 124.79003,318.67427 C 124.12528,320.17696 123.19802,321.61406 121.84254,322.54285 C 120.41535,323.52077 116.68442,325.12191 116.68442,325.12191 C 116.68442,325.12191 117.64609,322.0603 117.78973,320.70067 C 117.95821,319.10589 118.28596,316.81047 117.60551,315.35834 C 116.72528,313.47987 113.17065,312.6972 112.4474,310.75288 C 112.00049,309.55144 112.21032,307.52557 113.00005,306.51586 C 113.84097,305.4407 115.87257,304.89286 117.23708,304.85789 C 117.93591,304.83998 118.82476,305.27754 119.4477,305.59476 z"
         style="fill:#ffffff;fill-rule:evenodd;stroke:#000000;stroke-width:2.5;stroke-linecap:butt;stroke-linejoin:miter;stroke-miterlimit:4;stroke-dasharray:none;stroke-opacity:1" />
      <path
         sodipodi:nodetypes="cssscssss"
         id="path8213"
         d="M 332.10173,288.91841 C 330.68312,287.48762 327.47384,287.54584 325.47695,287.81428 C 323.12678,288.13022 322.10952,288.51581 320.15169,289.85371 C 318.44319,291.02123 315.993,292.73402 315.18311,294.63827 C 314.31884,296.67037 315.18311,301.99913 315.18311,301.99913 C 315.18311,301.99913 319.21837,296.75167 321.62386,295.37435 C 324.2383,293.87739 326.73456,295.38962 329.52542,294.25503 C 330.53409,293.84497 332.18879,293.39938 332.65379,292.41482 C 333.10729,291.45461 332.8494,289.6725 332.10173,288.91841 z"
         style="fill:#ffffff;fill-rule:evenodd;stroke:#000000;stroke-width:2.5;stroke-linecap:butt;stroke-linejoin:miter;stroke-miterlimit:4;stroke-dasharray:none;stroke-opacity:1" />
      <path
         sodipodi:nodetypes="csssssscssssss"
         id="path8215"
         d="M 329.44576,303.74635 C 331.48654,303.83346 332.45279,303.37205 333.86227,304.85048 C 335.09195,306.14031 336.11776,308.87687 335.51847,310.55515 C 335.15799,311.56464 333.51192,312.06023 332.57412,312.57939 C 330.99495,313.45361 328.43298,313.80761 327.05348,314.97167 C 325.89492,315.94929 324.72511,317.75109 324.29315,319.20416 C 323.94707,320.36835 324.02548,322.06795 324.29315,323.25263 C 324.57614,324.50513 325.68359,325.26425 326.31739,326.381 C 326.51389,326.72723 323.16791,326.37552 321.71685,325.64492 C 320.21718,324.88984 318.45118,323.26586 317.66838,321.78047 C 316.54706,319.65273 317.10768,317.55309 317.30034,315.15569 C 317.48213,312.89347 319.33906,311.32944 320.61273,309.45102 C 321.90993,307.53791 324.44368,305.53526 326.50142,304.48244 C 327.31198,304.06773 328.5361,303.70752 329.44576,303.74635 z"
         style="fill:#ffffff;fill-rule:evenodd;stroke:#000000;stroke-width:2.5;stroke-linecap:butt;stroke-linejoin:miter;stroke-miterlimit:4;stroke-dasharray:none;stroke-opacity:1" />
      <path
         sodipodi:nodetypes="csssscss"
         id="path8217"
         d="M 356.49692,318.46807 C 356.49692,318.46807 359.86982,316.6545 361.4655,316.44384 C 362.34802,316.32733 362.92424,316.33164 363.67376,316.81188 C 365.26034,317.82844 366.90878,320.26579 366.98614,322.14851 C 367.09055,324.68946 364.42799,327.51144 363.12169,329.69339 C 362.22494,331.19126 360.54539,334.47795 360.54539,334.47795 C 360.54539,334.47795 356.26861,324.81595 356.03693,322.83116 C 355.75912,320.45119 356.39658,318.66876 356.49692,318.46807 z"
         style="fill:#ffffff;fill-rule:evenodd;stroke:#000000;stroke-width:2.5;stroke-linecap:butt;stroke-linejoin:miter;stroke-miterlimit:4;stroke-dasharray:none;stroke-opacity:1" />
      <path
         sodipodi:nodetypes="cssscsssss"
         id="path8219"
         d="M 387.04449,300.61799 C 388.30351,300.20155 390.24668,300.26913 391.46101,300.80201 C 392.96236,301.46084 394.7724,303.12301 395.32546,304.66646 C 396.09261,306.80738 395.36972,310.0752 394.58938,312.21134 C 393.55427,315.04491 388.88471,320.49231 388.88471,320.49231 C 388.88471,320.49231 388.99925,315.70497 388.70069,313.68352 C 388.51675,312.43813 388.36292,310.6338 387.59656,309.63504 C 386.66279,308.4181 383.94402,308.38885 383.18004,307.05874 C 382.68511,306.19705 382.75216,304.64323 383.18004,303.74635 C 383.82229,302.40011 385.62835,301.0864 387.04449,300.61799 z"
         style="fill:#ffffff;fill-rule:evenodd;stroke:#000000;stroke-width:2.5;stroke-linecap:butt;stroke-linejoin:miter;stroke-miterlimit:4;stroke-dasharray:none;stroke-opacity:1" />
      <path
         sodipodi:nodetypes="css"
         id="path6197"
         d="M 106.25716,209.42787 C 106.25716,209.42787 108.47999,200.48781 110.34137,196.78715 C 111.55465,194.37498 115.96386,189.75904 115.96386,189.75904"
         style="fill:none;fill-rule:evenodd;stroke:#000000;stroke-width:2.5;stroke-linecap:butt;stroke-linejoin:miter;stroke-miterlimit:4;stroke-dasharray:none;stroke-opacity:1" />
    </g>
    <g
       style="opacity:1"
       id="g6176"
       transform="matrix(-0.9438465,-0.3303843,-0.3303843,0.9438465,326.32356,61.255146)">
      <path
         sodipodi:nodetypes="cssssssscssssssscc"
         id="path6066"
         d="M 145.746,106.73789 C 145.746,106.73789 136.1985,101.01476 131.4904,100.44602 C 128.14451,100.04184 123.53978,100.03865 120.23443,100.64743 C 115.48754,101.52171 108.51339,106.80176 103.71847,107.44368 C 101.46109,107.74589 99.572197,108.02125 97.948882,106.61309 C 95.043608,104.09287 97.236868,99.07968 95.438756,95.86181 C 94.559474,94.288261 92.375422,92.662713 90.614768,91.833633 C 88.435048,90.807215 85.031358,89.963812 82.574797,90.222363 C 81.044818,90.383391 77.980527,92.236451 77.980527,92.236451 C 77.980527,92.236451 82.03747,94.225698 83.034224,95.660402 C 85.221123,98.808169 83.607349,104.4814 85.561072,107.74494 C 86.331085,109.03117 88.167405,110.26697 89.4662,111.16888 C 90.800461,112.09542 92.653089,113.37887 94.290187,113.78719 C 97.935813,114.6965 103.22155,114.49673 106.92443,113.78719 C 111.44324,112.9213 116.41815,107.88179 120.93695,107.0159 C 124.37052,106.35798 129.19314,107.60268 132.65234,108.14775 C 135.18476,108.54679 140.6923,110.76606 140.6923,110.76606 L 145.746,106.73789 z"
         style="fill:#ff2a2a;fill-opacity:1;fill-rule:evenodd;stroke:#000000;stroke-width:2.5;stroke-linecap:butt;stroke-linejoin:miter;stroke-miterlimit:4;stroke-dasharray:none;stroke-opacity:1" />
      <path
         sodipodi:nodetypes="csssscss"
         id="path6139"
         d="M 101.32901,87.929025 C 101.78121,86.468636 102.19672,86.950396 103.63785,86.440139 C 105.08929,85.926231 105.06144,85.650321 106.21624,86.668763 C 107.26275,87.591698 107.55351,87.241967 107.71782,88.627602 C 108.14178,92.202789 107.69561,95.787299 106.32772,99.117554 C 105.74687,100.53171 104.15578,102.35641 104.15578,102.35641 C 104.15578,102.35641 102.98993,100.97867 102.45378,99.282672 C 101.32065,95.698207 100.21706,91.520121 101.32901,87.929025 z"
         style="fill:#ffffff;fill-rule:evenodd;stroke:#000000;stroke-width:2.5;stroke-linecap:butt;stroke-linejoin:miter;stroke-miterlimit:4;stroke-dasharray:none;stroke-opacity:1" />
      <path
         sodipodi:nodetypes="csssscss"
         id="path6141"
         d="M 103.2283,115.38629 C 103.18621,116.91451 103.73471,116.59218 104.93482,117.53927 C 106.1435,118.49314 106.0283,118.74539 107.44951,118.153 C 108.73745,117.61616 108.90013,118.04089 109.50183,116.78194 C 111.05433,113.53363 111.78603,109.99635 111.56324,106.40302 C 111.46864,104.87714 110.54978,102.63732 110.54978,102.63732 C 110.54978,102.63732 109.00242,103.56632 107.94875,104.99938 C 105.72186,108.02813 103.3318,111.6284 103.2283,115.38629 z"
         style="opacity:1;fill:#ffffff;fill-rule:evenodd;stroke:#000000;stroke-width:2.5;stroke-linecap:butt;stroke-linejoin:miter;stroke-miterlimit:4;stroke-dasharray:none;stroke-opacity:1" />
      <g
         transform="translate(-537.30128,8.114194)"
         id="g6049"
         style="opacity:1">
        <path
           style="opacity:1;fill:#f8de00;fill-opacity:1;fill-rule:evenodd;stroke:#000000;stroke-width:3;stroke-linecap:butt;stroke-linejoin:miter;stroke-miterlimit:4;stroke-dasharray:none;stroke-opacity:1"
           d="M 688.4389,102.204 C 688.4389,102.204 673.8908,117.3264 666.38925,122.15367 C 659.27057,126.73456 647.59341,128.74946 640.48967,133.35349 C 633.31795,138.00158 624.63652,145.7803 619.49001,152.60318 C 615.95537,157.28915 612.91924,164.6528 610.74015,170.1029 C 608.7426,175.09895 608.8751,183.07011 605.49023,187.25262 C 604.78969,188.11824 604.86808,193.86049 607.75486,198.0442 C 610.47282,201.98326 615.99006,204.40235 615.99006,204.40235 C 615.99006,204.40235 613.33852,212.80827 614.24009,216.30216 C 614.9327,218.98627 618.90113,221.04384 619.84,223.65204 C 620.72977,226.12383 620.91738,229.87755 620.19,232.4019 C 618.95623,236.68363 611.79013,244.6517 611.79013,244.6517 C 611.79013,244.6517 622.88943,241.23662 626.4899,238.00181 C 629.57085,235.23376 635.35829,229.44282 636.17586,225.38253 C 636.9497,221.53942 633.19987,216.15634 634.42589,212.43274 C 635.98176,207.70732 639.14066,206.91141 639.14066,206.91141 C 639.14066,206.91141 641.92808,210.22826 642.84698,213.81117 C 643.467,216.22871 644.97529,217.34246 644.40188,219.77148 C 643.63257,223.03035 640.91779,225.54742 639.43969,228.55196 C 637.95361,231.57271 638.16604,236.43451 638.7397,239.75178 C 639.14848,242.11562 640.28975,245.31415 641.88965,247.10166 C 644.30427,249.79942 648.88857,252.12858 652.38948,253.05156 C 653.60783,253.37277 656.58941,253.05156 656.58941,253.05156 C 656.58941,253.05156 649.4787,248.51779 648.18955,245.35169 C 647.47572,243.59856 647.73916,240.76713 648.53954,239.05179 C 649.51324,236.96498 652.38042,235.28803 654.13945,233.80187 C 656.65793,231.67407 660.8025,229.70453 662.88931,227.15198 C 665.0294,224.53424 666.93877,220.27465 667.78923,217.00215 C 668.68872,213.54101 668.48922,205.10234 668.48922,205.10234 C 668.48922,205.10234 668.21667,211.54967 669.92306,214.56348 C 670.94731,216.3725 675.0447,219.46656 676.18909,221.20208 C 677.12289,222.61822 678.45317,224.76365 678.28906,226.45199 C 678.08337,228.56807 675.5383,230.58203 674.43912,232.4019 C 673.44259,234.05182 671.28917,238.00181 671.28917,238.00181 C 671.28917,238.00181 680.69223,233.64034 683.88897,230.65192 C 686.76095,227.9671 690.57742,223.67754 691.23885,219.8021 C 691.58591,217.76862 690.1226,215.11535 689.48888,213.15221 C 689.03961,211.76047 688.16688,210.00072 687.73891,208.60228 C 687.32896,207.26275 686.2609,205.38621 686.68892,204.05235 C 687.41626,201.78571 692.63883,198.80244 692.63883,198.80244 C 692.63883,198.80244 691.35972,203.20005 691.58885,205.10234 C 691.97135,208.27796 695.78878,214.90218 695.78878,214.90218 C 695.78878,214.90218 696.22957,208.92856 697.88874,207.2023 C 700.78818,204.18562 707.53123,205.03494 711.18853,203.00237 C 713.05069,201.96746 718.07878,199.12386 721.97327,195.40839 C 726.9268,190.68253 730.78104,184.8033 731.96071,182.24395 C 734.44942,176.84455 734.10725,170.49719 734.92003,167.68822 C 735.42482,165.94367 741.43625,167.41671 747.6157,158.02281 C 752.20763,151.04224 753.19402,148.29264 753.78519,147.06062 C 755.25007,144.00779 753.48409,135.88973 752.48786,132.65351 C 750.99575,127.80644 744.78799,117.60375 744.78799,117.60375 L 743.03802,94.854115 L 731.4882,81.204335 L 682.139,94.854115 L 688.4389,102.204 z"
           id="path5995"
           sodipodi:nodetypes="csssssscssscssscsssssscssssscsssscssssscscssssssssccccc" />
        <path
           style="opacity:1;fill:#f8de00;fill-opacity:1;fill-rule:evenodd;stroke:#000000;stroke-width:3;stroke-linecap:butt;stroke-linejoin:miter;stroke-miterlimit:4;stroke-dasharray:none;stroke-opacity:1"
           d="M 729.60318,47.735499 C 729.60318,47.735499 732.24825,44.269376 733.04677,41.322563 C 733.53356,39.526117 733.18283,34.258858 732.87163,31.642389 C 732.58006,29.191036 731.75403,28.225806 731.75403,28.225806 C 731.75403,28.225806 731.26886,31.223122 730.57986,32.770179 C 729.42117,35.371868 724.69758,40.221774 724.69758,40.221774 C 724.69758,40.221774 725.50524,36.775678 725.40323,35.282258 C 725.08815,30.669549 721.16935,20.46371 721.16935,20.46371 C 721.16935,20.46371 719.41438,30.458301 716.93548,33.870968 C 714.79501,36.817726 711.95439,35.852058 708.51279,37.043843 C 699.90181,40.025721 684.22043,37.753376 674.38912,41.700717 C 670.3392,43.326792 662.02526,49.084862 662.02526,49.084862 C 662.02526,49.084862 651.67677,52.636266 645.92038,51.588613 C 643.80577,51.203757 641.33659,49.273281 639.22525,49.675719 C 635.48312,50.389002 632.47141,50.314048 629.34196,51.269797 C 625.40434,52.472365 625.18829,60.748331 626.47262,64.660051 C 626.90292,65.970626 628.67863,67.150147 629.02315,68.485839 C 629.59845,70.716268 627.70196,73.937746 628.38552,76.137413 C 629.19232,78.733675 631.66736,81.987112 634.1242,83.151355 C 637.49502,84.748715 642.70602,83.391005 646.23919,82.194908 C 650.11679,80.882211 654.31442,81.229401 656.44129,77.73149 C 657.29909,76.320727 659.94826,71.036363 659.94826,71.036363 C 659.94826,71.036363 666.15995,75.52935 667.59983,79.325568 C 668.85531,82.635615 668.78452,87.916731 667.28102,91.121745 C 665.0647,95.84628 659.07408,100.70967 654.20958,102.59911 C 649.84005,104.2963 642.88295,101.04086 638.58762,102.91792 C 635.1786,104.40767 631.80126,105.76737 630.61723,109.29424 C 629.85077,111.57729 629.37363,116.38841 630.93604,118.22107 C 632.743,120.34058 636.55699,118.35975 637.94999,120.77159 C 638.73892,122.13754 638.58762,127.46672 638.58762,127.46672 C 638.58762,127.46672 644.77572,123.44772 646.23919,120.77159 C 647.16727,119.07448 647.19564,114.39528 647.19564,114.39528 C 647.19564,114.39528 662.36525,115.41571 668.8751,115.35173 C 673.37933,115.30746 681.1044,116.40695 685.13469,114.39528 C 688.2906,112.82005 690.79276,108.92175 691.511,105.46845 C 691.7759,104.1948 690.23574,101.32384 690.23574,101.32384 C 690.23574,101.32384 692.55274,99.89701 693.74272,101.00502 C 696.69016,103.74944 697.79814,107.1808 697.88731,111.20713 C 698.04408,118.28568 697.15769,128.75086 694.06153,135.11829 C 692.24519,138.85369 688.99499,143.75995 685.42525,147.28986 C 683.9747,148.72422 682.47139,149.93132 680.99009,150.74026 C 677.37955,152.71197 671.40758,152.70518 667.91865,154.88486 C 665.56629,156.35448 662.84168,159.12946 661.54234,161.57999 C 660.48776,163.56891 659.8032,166.66622 659.94826,168.91275 C 660.1315,171.75056 663.13642,177.83958 663.13642,177.83958 L 665.6008,170.56846 L 678.13094,164.55399 C 678.13094,164.55399 694.66931,160.86719 700.68518,157.03591 C 707.32387,152.80798 707.4836,150.40644 707.4836,150.40644 C 707.4836,150.40644 706.00382,159.47115 698.17915,166.55882 C 695.73253,168.77499 688.65625,172.07208 688.65625,172.07208 C 688.65625,172.07208 702.13338,171.08946 707.20085,168.56364 C 713.2025,165.57219 719.84121,158.98302 723.74063,153.52747 C 727.26523,148.59632 732.75345,131.75389 732.75345,131.75389 C 732.75345,131.75389 728.47675,115.96083 725.24425,108.41899 C 723.48606,104.31692 717.22496,95.888851 717.22496,95.888851 C 717.22496,95.888851 723.33249,104.56779 725.22814,108.67765 C 729.42713,117.78126 735.26835,140.55149 735.26835,140.55149 C 735.26835,140.55149 740.04931,125.94866 740.78161,119.44551 C 741.32029,114.66182 741.53579,108.05428 740.28041,103.40693 C 739.21015,99.444866 733.76474,91.378002 733.76474,91.378002 C 733.76474,91.378002 738.90131,99.790013 740.22505,103.76723 C 741.7301,108.28919 740.1751,115.45877 742.78644,119.44551 C 745.82585,124.0858 752.77702,129.4105 758.3238,129.46961 C 760.61884,129.49407 763.34543,127.20228 764.83947,125.45997 C 766.85727,123.10685 769.20523,119.01633 768.84912,115.93707 C 768.61417,113.90547 764.83947,110.42381 764.83947,110.42381 C 764.83947,110.42381 762.99203,115.28375 761.67523,116.75933 C 760.53375,118.03845 758.34092,117.54288 756.88258,116.64157 C 755.5782,115.83542 755.76176,111.88264 755.51987,110.36845 C 754.32538,102.89124 758.90482,94.082934 756.29583,88.010465 C 755.40749,85.942815 752.49435,80.42972 749.91596,78.778481 C 748.22899,77.698129 741.78403,74.838223 741.78403,74.838223 C 741.78403,74.838223 746.07556,72.080751 747.29728,70.327374 C 749.93417,66.542993 751.54705,60.341442 752.30934,55.792417 C 752.85604,52.52995 752.30934,44.765898 752.30934,44.765898 C 752.30934,44.765898 742.09446,45.104104 737.77438,45.768309 C 735.28226,46.151468 729.60318,47.735499 729.60318,47.735499 z"
           id="path5193"
           sodipodi:nodetypes="csscscscssscssssssssscssssssscscssscsssssssscccscscsscscscsscssssscssssscsscsc" />
        <g
           style="opacity:1"
           id="g5187"
           transform="translate(149.02369,7.1978252)">
          <path
             transform="matrix(-0.9158702,-0.4014745,-0.4014745,0.9158702,719.27797,-20.238666)"
             d="M 149.34544,142.89806 A 12.504578,7.3608503 0 1 1 124.33629,142.89806 A 12.504578,7.3608503 0 1 1 149.34544,142.89806 z"
             sodipodi:ry="7.3608503"
             sodipodi:rx="12.504578"
             sodipodi:cy="142.89806"
             sodipodi:cx="136.84087"
             id="path3163"
             style="fill:#ffffff;fill-opacity:1;fill-rule:evenodd;stroke:#000000;stroke-width:2.5;stroke-linecap:butt;stroke-linejoin:miter;marker:none;marker-start:none;marker-mid:none;marker-end:none;stroke-miterlimit:4;stroke-dasharray:none;stroke-dashoffset:0;stroke-opacity:1;visibility:visible;display:inline;overflow:visible;enable-background:accumulate"
             sodipodi:type="arc" />
          <path
             transform="translate(391.31753,-88.325583)"
             d="M 149.95408,141.35471 A 8.0072575,8.0072575 0 1 1 133.93957,141.35471 A 8.0072575,8.0072575 0 1 1 149.95408,141.35471 z"
             sodipodi:ry="8.0072575"
             sodipodi:rx="8.0072575"
             sodipodi:cy="141.35471"
             sodipodi:cx="141.94682"
             id="path3179"
             style="fill:#ffffff;fill-opacity:1;fill-rule:evenodd;stroke:#000000;stroke-width:2.5;stroke-linecap:butt;stroke-linejoin:miter;marker:none;marker-start:none;marker-mid:none;marker-end:none;stroke-miterlimit:4;stroke-dasharray:none;stroke-dashoffset:0;stroke-opacity:1;visibility:visible;display:inline;overflow:visible;enable-background:accumulate"
             sodipodi:type="arc" />
          <path
             sodipodi:nodetypes="csccsssssscscsssssc"
             id="path3183"
             d="M 533.92275,46.139841 C 533.31906,46.138131 532.77751,46.232281 532.23525,46.296091 C 531.15073,46.423711 530.23525,46.608591 530.23525,46.608591 L 531.0165,50.014841 C 531.0165,50.014841 531.76269,49.868251 532.6415,49.764841 C 533.52031,49.661431 534.62239,49.809301 534.454,49.733591 C 534.37759,49.699231 535.08646,50.492851 535.1415,50.671091 C 535.31812,51.243091 535.21539,53.377731 534.92867,53.956641 C 534.82818,54.159541 534.01078,54.877491 533.95992,54.894141 C 534.22007,54.808951 533.35632,54.883991 532.70992,54.769141 C 532.06353,54.654291 531.52242,54.519141 531.52242,54.519141 C 531.52242,54.519141 529.75144,54.308521 529.5004,54.887361 C 529.16761,55.654701 530.5165,57.483591 530.5165,57.483591 C 530.5165,57.483591 531.21311,57.647801 532.04775,57.796091 C 532.88239,57.944381 533.73386,58.205891 534.98525,57.796091 C 536.47701,57.307571 537.39657,56.360291 538.0165,55.108591 C 538.84857,53.428551 539.05237,51.476461 538.48525,49.639841 C 538.08242,48.335281 537.38331,47.216851 535.8915,46.546091 C 535.18438,46.228151 534.52644,46.141551 533.92275,46.139841 z"
             style="fill:#000000;fill-opacity:1;fill-rule:evenodd;stroke:none;stroke-width:3.5;stroke-linecap:butt;stroke-linejoin:miter;stroke-miterlimit:4;stroke-dasharray:none;stroke-opacity:1" />
          <path
             sodipodi:nodetypes="csssssssssssc"
             id="path3167"
             d="M 532.47164,40.771801 C 532.47164,40.771801 529.7101,41.202371 528.56951,41.658651 C 526.32936,42.554801 524.06991,44.584411 523.78052,46.979741 C 523.62922,48.232081 524.11404,49.296811 525.02211,50.172401 C 525.99869,51.114051 527.56902,50.997911 528.92425,51.059251 C 530.90892,51.149091 533.37186,49.586261 535.30956,49.817661 C 538.09936,50.150821 541.71683,51.860581 543.82332,53.719801 C 544.80864,54.589461 545.02696,56.728741 546.12912,57.444571 C 547.11996,58.088101 548.97587,58.507761 550.03126,57.976681 C 551.1162,57.430731 551.68017,55.605661 551.98233,54.429281 C 552.12795,53.862361 552.14727,53.039811 551.98233,52.478211 C 551.73277,51.628491 550.99851,50.634671 550.386,49.995031 C 549.6202,49.195311 547.37071,47.866591 547.37071,47.866591"
             style="fill:#f8de00;fill-opacity:1;fill-rule:evenodd;stroke:#000000;stroke-width:2.5;stroke-linecap:butt;stroke-linejoin:miter;stroke-miterlimit:4;stroke-dasharray:none;stroke-opacity:1" />
        </g>
        <path
           style="opacity:1;fill:none;fill-rule:evenodd;stroke:#000000;stroke-width:2.5;stroke-linecap:butt;stroke-linejoin:miter;stroke-miterlimit:4;stroke-dasharray:none;stroke-opacity:1"
           d="M 630.52685,65.715528 C 630.52685,65.715528 635.53134,59.267881 637.76028,58.344623 C 639.98922,57.421365 640.82474,57.55126 641.26446,58.344623 C 641.70418,59.137986 641.56838,60.389031 639.91669,62.02259 C 638.265,63.656149 630.52685,65.715528 630.52685,65.715528 z"
           id="path6013"
           sodipodi:nodetypes="csssc" />
        <path
           style="opacity:1;fill:#000000;fill-rule:evenodd;stroke:#000000;stroke-width:2.5;stroke-linecap:butt;stroke-linejoin:miter;stroke-miterlimit:4;stroke-dasharray:none;stroke-opacity:1"
           d="M 729.18784,59.26477 C 729.18784,59.26477 731.91427,54.879424 733.76034,53.803164 C 736.67227,52.105508 744.81057,51.770939 744.81057,51.770939 C 744.81057,51.770939 746.19035,58.845105 744.30251,60.788939 C 743.36995,61.749157 740.80409,60.224076 739.85702,61.169981 C 738.61216,62.413303 740.60685,65.782495 739.34896,67.012629 C 738.50268,67.840231 735.41153,67.266657 735.41153,67.266657 C 735.41153,67.266657 735.46636,62.260708 734.14138,60.788939 C 733.10109,59.633403 729.18784,59.26477 729.18784,59.26477 z"
           id="path6022"
           sodipodi:nodetypes="cscssscsc" />
        <path
           style="opacity:1;fill:none;fill-rule:evenodd;stroke:#000000;stroke-width:2.5;stroke-linecap:butt;stroke-linejoin:miter;stroke-miterlimit:4;stroke-dasharray:none;stroke-opacity:1"
           d="M 721.78715,61.84739 C 721.78715,61.84739 716.30988,72.901406 712.6506,76.606426 C 710.71883,78.562341 707.54322,80.704897 704.91968,81.526104 C 699.88525,83.101956 686.7598,83.997718 686.7598,83.997718 L 685.94378,85.040161 C 685.94378,85.040161 700.69876,81.220282 704.91968,85.040161 C 706.49078,86.461988 706.49702,90.138212 705.62249,92.068273 C 704.87392,93.720335 702.84625,96.022524 701.29241,96.958064 C 698.869,98.417156 692.46561,100.19226 692.46561,100.19226"
           id="path6018"
           sodipodi:nodetypes="cssccsssc" />
        <path
           style="opacity:1;fill:none;fill-rule:evenodd;stroke:#000000;stroke-width:2.5;stroke-linecap:butt;stroke-linejoin:miter;stroke-miterlimit:4;stroke-dasharray:none;stroke-opacity:1"
           d="M 717.57028,118.07229 C 717.57028,118.07229 718.39379,126.53163 717.57028,130.02008 C 716.27045,135.52626 713.83908,140.28667 710.99942,145.17992 C 709.85472,147.15245 706.78255,151.50522 706.78255,151.50522"
           id="path6020"
           sodipodi:nodetypes="csss" />
        <path
           style="fill:none;fill-rule:evenodd;stroke:#000000;stroke-width:2.5;stroke-linecap:butt;stroke-linejoin:miter;stroke-miterlimit:4;stroke-dasharray:none;stroke-opacity:1"
           d="M 629.01606,189.75904 C 629.01606,189.75904 622.68178,194.0192 620.38193,196.56699 C 618.68071,198.45162 616.31764,204.10802 616.31764,204.10802"
           id="path6039"
           sodipodi:nodetypes="css" />
        <path
           style="fill:none;fill-rule:evenodd;stroke:#000000;stroke-width:2.5;stroke-linecap:butt;stroke-linejoin:miter;stroke-miterlimit:4;stroke-dasharray:none;stroke-opacity:1"
           d="M 694.37751,179.21687 C 694.37751,179.21687 682.14701,183.09808 677.08243,186.54981 C 674.73845,188.14734 672.62873,191.5314 671.41337,194.09445 C 669.51414,198.0997 668.37349,205.54265 668.37349,205.54265"
           id="path6041"
           sodipodi:nodetypes="cssc" />
        <path
           style="fill:none;fill-rule:evenodd;stroke:#000000;stroke-width:2.5;stroke-linecap:butt;stroke-linejoin:miter;stroke-miterlimit:4;stroke-dasharray:none;stroke-opacity:1"
           d="M 693.01423,198.29015 C 693.01423,198.29015 699.96033,191.46178 702.81124,189.05622 C 706.6551,185.81282 714.04467,184.08221 716.86747,179.91968 C 718.6777,177.25031 718.9759,169.37751 718.9759,169.37751"
           id="path6043"
           sodipodi:nodetypes="csss" />
        <path
           style="opacity:1;fill:none;fill-rule:evenodd;stroke:#000000;stroke-width:2.5;stroke-linecap:butt;stroke-linejoin:miter;stroke-miterlimit:4;stroke-dasharray:none;stroke-opacity:1"
           d="M 629.56723,156.83449 C 629.56723,156.83449 629.02527,166.44699 627.4588,170.18791 C 625.12965,175.75021 618.17043,179.55369 613.55422,183.43373 C 611.02788,185.55718 605.36943,187.67342 605.36943,187.67342"
           id="path6037"
           sodipodi:nodetypes="csss" />
      </g>
    </g>
    <path
       style="fill:none;fill-rule:evenodd;stroke:#000000;stroke-width:2.5;stroke-linecap:butt;stroke-linejoin:miter;stroke-opacity:1;stroke-miterlimit:4;stroke-dasharray:none"
       d="M 159.03433,230.42895 C 159.03433,230.42895 155.3425,226.73757 153.20341,222.72559 C 151.61786,219.7518 151.51304,216.69152 151.10442,214.35743 C 150.6666,211.85657 151.80723,205.92369 151.80723,205.92369"
       id="path2468"
       sodipodi:nodetypes="cssc" />
  </g>
</svg>
