<?xml version="1.0" encoding="UTF-8" standalone="no"?>
<svg
   xmlns:dc="http://purl.org/dc/elements/1.1/"
   xmlns:cc="http://creativecommons.org/ns#"
   xmlns:rdf="http://www.w3.org/1999/02/22-rdf-syntax-ns#"
   xmlns:svg="http://www.w3.org/2000/svg"
   xmlns="http://www.w3.org/2000/svg"
   xmlns:sodipodi="http://sodipodi.sourceforge.net/DTD/sodipodi-0.dtd"
   xmlns:inkscape="http://www.inkscape.org/namespaces/inkscape"
   sodipodi:docname="ermine.svg"
   inkscape:version="1.0rc1 (09960d6, 2020-04-09)"
   id="svg3887"
   version="1.1"
   viewBox="0 0 100 160"
   height="160"
   width="100">
  <defs
     id="defs3881" />
  <sodipodi:namedview
     inkscape:window-maximized="0"
     inkscape:window-y="25"
     inkscape:window-x="0"
     inkscape:window-height="895"
     inkscape:window-width="1252"
     units="px"
     showgrid="false"
     inkscape:document-rotation="0"
     inkscape:current-layer="layer1"
     inkscape:document-units="px"
     inkscape:cy="119.81758"
     inkscape:cx="38.798579"
     inkscape:zoom="2.0945846"
     inkscape:pageshadow="2"
     inkscape:pageopacity="0.0"
     borderopacity="1.0"
     bordercolor="#666666"
     pagecolor="#ffffff"
     id="base" />
  <metadata
     id="metadata3884">
    <rdf:RDF>
      <cc:Work
         rdf:about="">
        <dc:format>image/svg+xml</dc:format>
        <dc:type
           rdf:resource="http://purl.org/dc/dcmitype/StillImage" />
        <dc:title></dc:title>
      </cc:Work>
    </rdf:RDF>
  </metadata>
  <g
     id="layer1"
     inkscape:groupmode="layer"
     inkscape:label="Layer 1">
    <path
       style="stroke-width:0;stroke-miterlimit:4;stroke-dasharray:none;fill:#000000;fill-opacity:1"
       d="M 47.757634,0 C 60.324696,15.689314 25.136924,21.898666 44.167046,36.607392 52.24587,41.673746 71.273896,30.723464 54.57765,17.322176 52.423302,16.178163 62.11999,8.3349512 47.757634,0 Z m 21.182372,36.935142 c -3.23154,0.326846 -6.282816,2.290268 -9.155302,7.193166 -3.590588,8.33495 12.209402,22.716724 22.98117,5.06625 C 83.483996,47.069952 94.0755,53.93163 100,39.386326 89.946316,49.845864 79.713166,37.425428 70.377642,36.935142 Z M 29.80469,37.099022 C 20.469164,37.58931 10.053647,50.173186 0,39.55021 5.9244804,54.095512 16.51881,47.070414 17.416458,49.358438 28.0087,67.008916 43.805884,52.627142 40.215296,44.292192 36.983772,38.73555 33.395278,36.9356 29.80469,37.099026 Z m 21.003542,10.13249 c -8.25835,37.262136 -23.51556,63.576958 -40.211787,82.534868 7.001653,-1.96117 14.718613,-7.19213 22.258843,-11.93164 -4.667764,9.80582 -9.154602,18.14082 -13.822364,26.80264 2.692942,-0.98059 11.489886,-9.64435 23.338826,-22.3919 1.795296,17.48703 4.305204,25.8241 8.07532,37.75452 3.052012,-11.93042 5.208468,-19.9411 7.54234,-37.9184 7.181178,8.00805 14.001888,16.17984 23.696484,23.04393 L 68.221186,117.34659 c 7.001634,4.41265 14.72282,10.29262 22.083522,12.74406 C 72.710832,110.15215 57.989412,84.493648 50.808232,47.231516 Z"
       id="path3286"
       inkscape:connector-curvature="0"
       clip-path="none"
       mask="none"
       sodipodi:nodetypes="cccccccccccccccccccccccccc" />
  </g>
</svg>
