<?xml version="1.0" encoding="UTF-8" standalone="no"?>
<!-- Created with Inkscape (http://www.inkscape.org/) -->
<svg
   xmlns:dc="http://purl.org/dc/elements/1.1/"
   xmlns:cc="http://creativecommons.org/ns#"
   xmlns:rdf="http://www.w3.org/1999/02/22-rdf-syntax-ns#"
   xmlns:svg="http://www.w3.org/2000/svg"
   xmlns="http://www.w3.org/2000/svg"
   xmlns:sodipodi="http://sodipodi.sourceforge.net/DTD/sodipodi-0.dtd"
   xmlns:inkscape="http://www.inkscape.org/namespaces/inkscape"
   width="540"
   height="330"
   id="svg2"
   sodipodi:version="0.32"
   inkscape:version="0.46"
   sodipodi:docname="Lion_Courant.svg"
   inkscape:output_extension="org.inkscape.output.svg.inkscape"
   version="1.0">
  <defs
     id="defs4">
    <inkscape:perspective
       sodipodi:type="inkscape:persp3d"
       inkscape:vp_x="0 : 526.18109 : 1"
       inkscape:vp_y="0 : 1000 : 0"
       inkscape:vp_z="744.09448 : 526.18109 : 1"
       inkscape:persp3d-origin="372.04724 : 350.78739 : 1"
       id="perspective10" />
    <inkscape:perspective
       id="perspective2498"
       inkscape:persp3d-origin="372.04724 : 350.78739 : 1"
       inkscape:vp_z="744.09448 : 526.18109 : 1"
       inkscape:vp_y="0 : 1000 : 0"
       inkscape:vp_x="0 : 526.18109 : 1"
       sodipodi:type="inkscape:persp3d" />
    <inkscape:perspective
       id="perspective5147"
       inkscape:persp3d-origin="372.04724 : 350.78739 : 1"
       inkscape:vp_z="744.09448 : 526.18109 : 1"
       inkscape:vp_y="0 : 1000 : 0"
       inkscape:vp_x="0 : 526.18109 : 1"
       sodipodi:type="inkscape:persp3d" />
  </defs>
  <sodipodi:namedview
     id="base"
     pagecolor="#ffffff"
     bordercolor="#666666"
     borderopacity="1.0"
     gridtolerance="10000"
     guidetolerance="10"
     objecttolerance="10"
     inkscape:pageopacity="0.0"
     inkscape:pageshadow="2"
     inkscape:zoom="1.5090909"
     inkscape:cx="178.22289"
     inkscape:cy="159.78204"
     inkscape:document-units="px"
     inkscape:current-layer="layer3"
     showgrid="false"
     inkscape:window-width="1280"
     inkscape:window-height="713"
     inkscape:window-x="0"
     inkscape:window-y="0"
     showguides="true"
     inkscape:guide-bbox="true" />
  <metadata
     id="metadata7">
    <rdf:RDF>
      <cc:Work
         rdf:about="">
        <dc:format>image/svg+xml</dc:format>
        <dc:type
           rdf:resource="http://purl.org/dc/dcmitype/StillImage" />
      </cc:Work>
    </rdf:RDF>
  </metadata>
  <g
     inkscape:groupmode="layer"
     id="layer1"
     inkscape:label="Bottom" />
  <g
     inkscape:groupmode="layer"
     id="layer3"
     inkscape:label="Main"
     style="opacity:1">
    <g
       id="g2966"
       transform="matrix(0.1172452,-0.9931029,0.9931029,0.1172452,52.262351,963.12634)">
      <path
         sodipodi:nodetypes="csssscccc"
         id="path2537"
         d="M 735.05873,293.58818 C 735.05873,293.58818 720.96667,295.73377 717.66109,292.37034 C 716.63412,291.32539 717.38557,289.70803 716.79121,288.36888 C 716.08738,286.78308 715.03579,285.43116 713.31168,285.23731 C 710.57848,284.93 707.94979,288.45098 706.5266,290.80456 C 704.62668,293.94651 704.43888,302.11303 704.43888,302.11303 L 710.00613,309.42003 L 727.0715,308.22376 L 735.05873,293.58818 z"
         style="fill:#f8de00;fill-opacity:1;fill-rule:evenodd;stroke:#000000;stroke-width:3;stroke-linecap:butt;stroke-linejoin:miter;stroke-miterlimit:4;stroke-dasharray:none;stroke-opacity:1" />
      <path
         sodipodi:nodetypes="csssscsscscsscsssssscsssssssscscccsscssssccscccsccsccssccscsssssscssssssssscssscsssssscccc"
         id="path2539"
         d="M 829.79363,221.48128 C 829.79363,221.48128 813.34236,238.97837 802.31429,250.93863 C 799.6823,253.7931 795.86873,257.77181 794.86572,261.52273 C 793.98671,264.80993 794.73791,269.61768 795.8926,272.81847 C 797.17301,276.36777 799.44037,281.97177 803.01275,283.1863 C 806.27662,284.29594 813.94351,279.64169 813.94351,279.64169 C 813.94351,279.64169 810.06603,287.36686 807.02132,289.14966 C 804.77344,290.46588 800.95843,290.65426 798.39871,290.17135 C 796.47539,289.8085 792.64492,287.09589 792.64492,287.09589 C 792.64492,287.09589 792.70184,291.70385 791.60059,293.46439 C 790.13546,295.80667 785.27852,299.28339 785.27852,299.28339 C 785.27852,299.28339 785.42561,295.8227 785.38473,294.43144 C 785.31511,292.0622 784.6954,289.29433 783.43389,287.28766 C 782.67121,286.07447 779.2583,284.96789 779.2583,284.96789 C 779.2583,284.96789 780.76498,287.48456 781.11412,288.67952 C 781.85988,291.23195 782.40733,294.86071 782.04202,297.49465 C 781.83608,298.97952 780.03096,300.64317 780.18621,302.13419 C 780.3941,304.13077 780.26102,305.29454 781.98613,306.32096 C 783.30732,307.10705 785.06546,308.0854 786.45239,307.42215 C 787.35786,306.98914 789.50424,306.13008 789.79509,305.16946 C 790.03709,304.37017 790.85715,302.59814 790.85715,302.59814 C 790.85715,302.59814 792.18967,305.41073 792.04055,308.03506 C 791.95952,309.46104 790.76739,310.83144 790.2311,311.66482 C 789.95308,312.09684 789.12071,314.00976 786.87646,314.6146 C 784.69432,315.20271 782.05786,314.91519 781.56689,314.82306 C 781.56689,314.82306 777.22692,314.56673 775.63084,313.70911 C 773.18448,312.39461 770.60178,309.45325 769.18546,307.0644 C 768.39585,305.73259 768.50947,303.42829 767.65945,302.13419 C 766.95495,301.06164 765.06025,300.45779 764.41177,299.35046 C 763.69447,298.12561 763.69627,298.21573 763.69627,298.21573 C 763.69627,298.21573 764.98486,298.44611 765.57109,300.74273 C 766.22061,303.2873 767.65945,310.02141 767.65945,310.02141 L 761.47075,308.99717 L 757.37381,305.71413 C 757.37381,305.71413 755.97103,304.634 756.06059,303.99001 C 756.15645,303.30071 757.68357,303.25397 757.91641,302.59814 C 758.49243,300.97572 756.0607,298.8861 756.0607,298.8861 C 756.0607,298.8861 758.31639,301.08623 757.72376,302.72984 C 757.50762,303.32928 756.08491,303.41423 756.06059,304.05098 C 755.9727,306.35255 758.66637,307.26113 761.69055,309.27091 C 763.88828,310.73147 766.62516,311.60684 767.19549,313.26909 C 767.71052,314.77016 765.80363,318.37259 765.80363,318.37259 L 754.66873,323.94004 C 754.66873,323.94004 749.79246,324.13156 748.17337,323.01213 C 745.56016,321.20538 740.98254,314.19689 740.98254,314.19689 L 740.28615,314.66095 L 740.28615,321.62027 C 740.28615,321.62027 745.63698,326.51553 744.92569,329.04353 C 744.41991,330.84111 739.35824,331.82726 739.35824,331.82726 L 724.97566,332.75517 C 724.97566,332.75517 721.78047,330.53115 721.26403,329.04353 C 720.48267,326.79282 722.19194,321.15631 722.19194,321.15631 L 716.62449,323.01213 C 716.62449,323.01213 714.52441,330.03471 711.98494,331.3633 C 710.74551,332.01174 708.65893,331.38028 707.3454,330.89935 C 704.80765,329.97018 699.92214,325.79585 699.92214,325.79585 L 695.74655,308.16559 C 695.74655,308.16559 698.00184,305.17906 699.45818,304.91792 C 702.5369,304.36587 709.20122,308.62955 709.20122,308.62955 C 709.20122,308.62955 719.63878,305.52931 723.11984,302.59814 C 726.8111,299.48997 728.8342,292.84095 731.93497,289.14347 C 734.02289,286.65374 737.0639,283.43777 739.82219,281.72021 C 740.83168,281.09161 742.35376,280.47549 743.53383,280.32834 C 746.03523,280.01642 749.44995,280.60447 751.885,281.25625 C 754.23312,281.88476 756.9051,284.13857 759.30827,284.50393 C 760.55434,284.69337 763.48386,284.03998 763.48386,284.03998 C 763.48386,284.03998 754.98635,282.29649 751.42105,281.25625 C 747.02595,279.97389 741.58355,276.70382 737.03847,276.15276 C 735.64984,275.9844 733.70739,277.11127 732.39893,276.61671 C 729.91153,275.67654 727.33949,272.5965 726.36752,270.12135 C 726.2149,269.73269 726.66278,269.02475 726.36752,268.72949 C 725.28491,267.64688 722.73665,269.14841 721.26403,268.72949 C 717.95757,267.78888 713.86544,265.21224 711.52099,262.69808 C 709.48289,260.51245 706.87326,256.8714 706.88145,253.88296 C 706.88793,251.5168 708.94454,248.62101 710.59308,246.92364 C 712.93854,244.5087 720.33612,241.35619 720.33612,241.35619 C 720.33612,241.35619 717.00708,245.98048 716.62449,248.31551 C 716.3507,249.9865 716.54641,252.52091 717.55239,253.88296 C 718.1071,254.63401 719.43124,255.04467 720.33612,255.27482 C 724.2503,256.27035 733.79079,255.73877 733.79079,255.73877 C 733.79079,255.73877 737.97037,248.01443 740.28615,245.06783 C 743.20529,241.35352 747.65708,236.78775 751.42105,233.93293 C 753.45685,232.38886 756.50822,230.79238 758.84432,229.75734 C 761.66123,228.50927 766.25978,228.52835 768.58735,226.50966 C 769.99807,225.28615 770.69411,222.68256 771.37108,220.94221 C 772.10576,219.05349 773.26003,216.47316 773.2269,214.44685 C 773.15998,210.35381 777.71098,194.38525 777.71098,194.38525 L 796.90098,176.25169 L 834.00888,191.76954 L 829.79363,221.48128 z"
         style="fill:#f8de00;fill-opacity:1;fill-rule:evenodd;stroke:#000000;stroke-width:3;stroke-linecap:butt;stroke-linejoin:miter;stroke-miterlimit:4;stroke-dasharray:none;stroke-opacity:1" />
      <path
         sodipodi:nodetypes="css"
         id="path2541"
         d="M 726.08141,267.96221 C 726.08141,267.96221 729.59741,266.88798 730.95185,266.10681 C 732.19439,265.39018 734.66267,263.09177 734.66267,263.09177"
         style="fill:none;fill-rule:evenodd;stroke:#000000;stroke-width:2.5;stroke-linecap:butt;stroke-linejoin:miter;stroke-miterlimit:4;stroke-dasharray:none;stroke-opacity:1" />
      <path
         sodipodi:nodetypes="csss"
         id="path2543"
         d="M 742.78008,263.78755 C 742.78008,263.78755 739.44146,264.49219 738.37348,265.41103 C 737.16958,266.4468 735.95563,268.46701 735.8223,270.04955 C 735.68005,271.7379 737.6777,275.38384 737.6777,275.38384"
         style="fill:none;fill-rule:evenodd;stroke:#000000;stroke-width:2.5;stroke-linecap:butt;stroke-linejoin:miter;stroke-miterlimit:4;stroke-dasharray:none;stroke-opacity:1" />
      <path
         sodipodi:nodetypes="csss"
         id="path2545"
         d="M 746.25896,265.87488 C 746.25896,265.87488 743.24454,267.58928 742.78008,268.88992 C 742.0915,270.81819 743.16479,273.72055 743.93971,275.61577 C 744.35607,276.63406 746.02704,278.63081 746.02704,278.63081"
         style="fill:none;fill-rule:evenodd;stroke:#000000;stroke-width:2.5;stroke-linecap:butt;stroke-linejoin:miter;stroke-miterlimit:4;stroke-dasharray:none;stroke-opacity:1" />
      <path
         sodipodi:nodetypes="csss"
         id="path2547"
         d="M 752.75289,267.03451 C 752.75289,267.03451 749.94904,269.68569 749.50593,271.20918 C 749.09602,272.61852 749.43025,274.71464 749.96978,276.07962 C 750.68088,277.87864 753.91252,281.18199 753.91252,281.18199"
         style="fill:none;fill-rule:evenodd;stroke:#000000;stroke-width:2.5;stroke-linecap:butt;stroke-linejoin:miter;stroke-miterlimit:4;stroke-dasharray:none;stroke-opacity:1" />
      <path
         sodipodi:nodetypes="css"
         id="path2549"
         d="M 739.99696,314.57933 C 739.99696,314.57933 740.40817,310.62484 740.69274,309.24504 C 741.08043,307.36521 745.09933,304.60652 745.09933,304.60652"
         style="fill:none;fill-rule:evenodd;stroke:#000000;stroke-width:2.5;stroke-linecap:butt;stroke-linejoin:miter;stroke-miterlimit:4;stroke-dasharray:none;stroke-opacity:1" />
      <path
         sodipodi:nodetypes="csc"
         id="path2551"
         d="M 723.06637,319.6817 C 723.06637,319.6817 722.95839,316.93613 723.53022,315.97089 C 724.31764,314.64175 727.70489,312.95585 727.70489,312.95585"
         style="fill:none;fill-rule:evenodd;stroke:#000000;stroke-width:2.5;stroke-linecap:butt;stroke-linejoin:miter;stroke-miterlimit:4;stroke-dasharray:none;stroke-opacity:1" />
      <path
         sodipodi:nodetypes="cscsssss"
         id="path2553"
         d="M 706.53833,300.17434 C 704.5999,300.37037 702.13886,298.82036 700.19063,298.80187 C 697.25349,298.774 690.5833,300.68902 690.5833,300.68902 C 690.5833,300.68902 693.62651,296.49916 695.38696,295.19912 C 697.51827,293.62521 700.80192,291.67381 703.45026,291.59637 C 705.48546,291.53686 708.45188,292.47057 709.79796,293.9982 C 710.67277,294.991 711.41521,297.10172 710.82732,298.28719 C 710.20277,299.54658 707.93694,300.0329 706.53833,300.17434 z"
         style="fill:#ffffff;fill-rule:evenodd;stroke:#000000;stroke-width:2.5;stroke-linecap:butt;stroke-linejoin:miter;stroke-miterlimit:4;stroke-dasharray:none;stroke-opacity:1" />
      <path
         sodipodi:nodetypes="cssssssscsssss"
         id="path2555"
         d="M 698.82177,313.90701 C 700.30645,313.85992 702.31681,314.40799 703.6336,315.12649 C 704.97977,315.861 707.03087,317.09937 707.42476,318.63247 C 707.67594,319.61011 706.98505,321.02377 706.40407,321.83359 C 705.98907,322.41204 705.15132,322.93867 704.50849,323.2055 C 703.15151,323.76875 700.95743,323.19796 699.69663,323.96767 C 698.59339,324.64121 697.56091,326.23972 697.072,327.47366 C 696.38057,329.21871 695.87057,330.01489 696.0513,331.89425 C 696.18968,333.33311 697.94688,337.68675 697.94688,337.68675 C 697.94688,337.68675 693.02391,335.44465 691.67689,333.8759 C 689.70866,331.58366 688.47637,328.7213 688.61481,325.64444 C 688.70226,323.70104 689.9842,321.26156 691.09365,319.69951 C 692.46265,317.77202 694.9125,315.67087 696.92618,314.51675 C 697.4479,314.21773 698.22705,313.92587 698.82177,313.90701 z"
         style="fill:#ffffff;fill-opacity:1;fill-rule:evenodd;stroke:#000000;stroke-width:2.5;stroke-linecap:butt;stroke-linejoin:miter;stroke-miterlimit:4;stroke-dasharray:none;stroke-opacity:1" />
      <path
         sodipodi:nodetypes="csssscsss"
         id="path2557"
         d="M 728.12745,328.29965 C 728.67535,327.62969 729.87662,327.10592 730.74169,327.07967 C 732.87672,327.01489 736.1629,327.92788 737.36443,329.69391 C 738.27616,331.034 737.70614,333.51227 737.36443,335.09667 C 736.8563,337.45271 735.52117,340.50505 734.05306,342.41654 C 732.69514,344.18457 728.30173,347.12217 728.30173,347.12217 C 728.30173,347.12217 729.41524,342.00048 729.17314,339.8023 C 728.94867,337.76415 727.011,335.4017 726.90747,333.35384 C 726.82871,331.79603 727.13999,329.50709 728.12745,328.29965 z"
         style="fill:#ffffff;fill-opacity:1;fill-rule:evenodd;stroke:#000000;stroke-width:2.5;stroke-linecap:butt;stroke-linejoin:miter;stroke-miterlimit:4;stroke-dasharray:none;stroke-opacity:1" />
      <path
         sodipodi:nodetypes="cssssscssss"
         id="path2559"
         d="M 757.23265,317.14556 C 758.32933,315.54506 761.57419,315.40608 763.50683,315.57702 C 765.162,315.72342 766.24486,316.41964 767.34104,317.66841 C 768.78148,319.30936 769.63893,322.46603 769.43243,324.63972 C 769.30415,325.99002 768.26562,327.65578 767.34104,328.64822 C 766.253,329.81611 765.53831,331.08968 764.02967,331.61102 C 762.28881,332.21261 757.92978,332.30815 757.92978,332.30815 C 757.92978,332.30815 760.69031,329.38674 761.06687,327.7768 C 761.47609,326.02722 761.12239,323.39044 760.19546,321.85119 C 759.69374,321.01804 758.07389,320.77261 757.58122,319.93408 C 757.15415,319.20719 756.75611,317.84102 757.23265,317.14556 z"
         style="fill:#ffffff;fill-opacity:1;fill-rule:evenodd;stroke:#000000;stroke-width:2.5;stroke-linecap:butt;stroke-linejoin:miter;stroke-miterlimit:4;stroke-dasharray:none;stroke-opacity:1" />
    </g>
    <g
       id="g3247"
       transform="matrix(0.9996278,-2.7281113e-2,2.7281113e-2,0.9996278,46.382166,9.4534125)">
      <g
         transform="matrix(0.6337658,0.773525,-0.773525,0.6337658,-120.46641,-348.59539)"
         id="g2924">
        <path
           style="opacity:1;fill:#f8de00;fill-opacity:1;fill-rule:evenodd;stroke:#000000;stroke-width:3;stroke-linecap:butt;stroke-linejoin:miter;stroke-miterlimit:4;stroke-dasharray:none;stroke-opacity:1"
           d="M 482.75049,248.89298 C 483.54008,247.84774 484.97827,246.66059 486.21905,246.24055 C 487.20467,245.90688 488.69078,245.94205 489.68761,246.24055 C 492.35481,247.03924 494.84751,250.3283 497.44087,251.34138 C 501.65875,252.98907 512.33528,253.78977 512.33528,253.78977 L 501.01145,267.05192 L 483.05654,268.68418 L 479.79201,263.07328 C 479.79201,263.07328 479.34468,258.54342 479.69,256.64624 C 480.13779,254.18603 481.24321,250.88829 482.75049,248.89298 z"
           id="path2785"
           sodipodi:nodetypes="csssccccss" />
        <path
           style="opacity:1;fill:#f8c300;fill-opacity:1;fill-rule:evenodd;stroke:#000000;stroke-width:1px;stroke-linecap:butt;stroke-linejoin:miter;stroke-opacity:1"
           d="M 482.85251,248.995 L 482.85251,248.995 z"
           id="path2787" />
        <path
           style="opacity:1;fill:#f8de00;fill-opacity:1;fill-rule:evenodd;stroke:#000000;stroke-width:3;stroke-linecap:butt;stroke-linejoin:miter;stroke-miterlimit:4;stroke-dasharray:none;stroke-opacity:1"
           d="M 576.50871,119.0035 L 506.98179,243.29056 L 498.98312,262.9796 L 492.83029,264.21016 C 492.83029,264.21016 485.04031,261.62007 481.7552,262.36431 C 479.55775,262.86214 475.60238,266.67129 475.60238,266.67129 L 482.37049,282.05335 C 482.37049,282.05335 485.64592,284.39744 487.29275,284.51448 C 489.03946,284.63862 492.83029,282.66864 492.83029,282.66864 L 495.29142,277.13109 C 495.29142,276.14949 507.51819,266.27246 510.46242,265.43894 C 511.17284,265.23782 511.15359,263.2375 510.46242,262.97781 C 509.70847,262.69452 508.69383,265.21987 507.18184,266.65261 C 505.20892,268.52213 504.73514,270.1601 503.77159,270.94246 C 500.07659,273.9426 500.39329,274.4107 499.5984,278.36166 C 499.25301,280.07838 501.44425,283.8992 501.44425,283.8992 L 521.13329,286.36033 C 521.13329,286.36033 527.3286,282.89111 527.90139,280.20751 C 528.57429,277.05489 524.25445,273.51833 523.59442,270.36299 C 523.10311,268.01422 521.22805,262.76229 523.59442,262.36431 C 525.8419,261.98633 522.45652,266.81467 523.25697,270.43856 C 524.24024,274.8901 529.13196,278.36166 529.13196,278.36166 L 537.13063,278.97694 C 537.13063,278.97694 545.91085,271.68265 547.59043,267.28657 C 547.85394,266.59686 548.03722,265.41325 547.59043,264.82544 C 545.50376,262.08013 536.51535,261.74903 536.51535,261.74903 C 536.51535,261.74903 536.16734,260.3185 536.72461,259.49538 C 537.96642,257.6612 542.66817,258.67262 542.66817,258.67262 L 544.51402,245.75169 L 547.59043,253.75036 C 547.59043,253.75036 551.86015,247.90353 552.91871,244.31901 C 553.70288,241.66361 553.79427,237.71646 552.91871,235.08977 C 552.335,233.33865 552.10668,231.40166 552.10668,231.40166 C 552.10668,231.40166 556.40337,235.09302 557.84276,238.16618 C 558.70753,240.0125 558.04666,245.96275 558.04666,245.96275 C 558.04666,245.96275 560.65793,242.80698 561.32369,241.20748 C 562.73925,237.80663 564.09853,232.78717 563.58778,229.13906 C 563.18719,226.27776 561.05886,222.80239 559.2808,220.5251 C 557.1862,217.84239 556.42619,217.04984 556.42619,217.04984 C 556.42619,217.04984 557.71052,217.18696 559.60028,218.52346 C 561.68199,219.9957 564.45446,222.79164 566.04891,225.44736 C 567.5956,228.02354 567.89475,235.29188 567.89475,235.29188 L 571.1094,228.97927 L 572.20173,221.75567 L 569.7406,205.75833 C 569.7406,205.75833 578.804,194.29419 584.50738,192.83739 C 591.10278,191.15274 599.85426,197.98895 606.65755,197.75965 C 613.19554,197.53929 607.44256,113.69933 607.44256,113.69933 L 586.96851,108.54369 L 576.50871,119.0035 z"
           id="path2791"
           sodipodi:nodetypes="ccccsccsccsssssccssssccsscscccsscscssscssccccssccc" />
        <path
           style="opacity:1;fill:#ffffff;fill-rule:evenodd;stroke:#000000;stroke-width:2.5;stroke-linecap:butt;stroke-linejoin:miter;stroke-miterlimit:4;stroke-dasharray:none;stroke-opacity:1"
           d="M 488.34378,251.08252 C 486.4525,248.91876 483.47871,247.66767 480.60661,247.76659 C 478.13652,247.85166 475.16254,249.9004 473.23787,251.45096 C 471.24839,253.05374 468.59392,255.62533 467.89554,258.08282 C 467.53015,259.3686 467.60322,260.421 468.26398,261.58296 C 468.88695,262.67847 470.65882,264.71467 470.65882,264.71467 C 470.65882,264.71467 471.04304,262.04674 471.76413,261.21453 C 472.84863,259.96289 475.14305,259.26558 476.73802,258.81969 C 478.3957,258.35627 480.75769,258.58768 482.44879,258.26703 C 483.63468,258.04217 485.30589,257.82034 486.31738,257.16172 C 487.40252,256.45514 488.80177,255.11031 489.08065,253.84579 C 489.26543,253.00797 488.9084,251.72849 488.34378,251.08252 z"
           id="path2853"
           sodipodi:nodetypes="csssscssssss" />
        <path
           style="opacity:1;fill:#ffffff;fill-rule:evenodd;stroke:#000000;stroke-width:2.5;stroke-linecap:butt;stroke-linejoin:miter;stroke-miterlimit:4;stroke-dasharray:none;stroke-opacity:1"
           d="M 486.31738,268.21482 C 487.0866,269.55866 487.12959,271.95758 486.5016,273.37294 C 485.94484,274.62774 484.2835,275.8297 483.00145,276.32043 C 481.349,276.95294 478.73036,275.8021 477.10646,276.50465 C 475.1697,277.34256 473.20772,279.66273 472.13256,281.47854 C 471.42863,282.6674 470.84389,284.51814 470.84304,285.89978 C 470.84193,287.68375 472.501,291.61055 472.501,291.61055 C 472.501,291.61055 466.41227,286.9866 465.31649,284.0576 C 464.44421,281.72602 464.92703,278.13901 465.68492,275.76778 C 466.3663,273.63594 468.14278,271.07444 469.73773,269.50435 C 471.22393,268.04131 473.63621,266.42269 475.63271,265.81998 C 477.53811,265.24477 480.34608,265.10589 482.26457,265.63577 C 483.65371,266.01945 485.60145,266.96408 486.31738,268.21482 z"
           id="path2855"
           sodipodi:nodetypes="cssssscssssss" />
        <path
           style="opacity:1;fill:#ffffff;fill-rule:evenodd;stroke:#000000;stroke-width:2.5;stroke-linecap:butt;stroke-linejoin:miter;stroke-miterlimit:4;stroke-dasharray:none;stroke-opacity:1"
           d="M 515.05545,282.21542 C 514.84029,280.16997 513.17672,278.68284 511.18686,278.16262 C 508.994,277.58932 505.3739,277.63123 503.63391,279.08371 C 502.37749,280.13252 502.82898,282.8172 502.5286,284.42604 C 502.15841,286.40878 501.45438,289.04114 501.42329,291.0579 C 501.39149,293.12107 501.63913,295.93483 502.34438,297.87398 C 502.76886,299.04113 503.51701,300.69223 504.555,301.37413 C 506.05101,302.35692 510.44999,302.29522 510.44999,302.29522 C 510.44999,302.29522 507.09021,299.84439 506.5814,298.24241 C 506.12478,296.80473 506.72797,294.65667 507.31827,293.26852 C 508.27427,291.02038 510.6427,288.62291 512.29217,286.82088 C 513.61251,285.37843 515.26002,284.16019 515.05545,282.21542 z"
           id="path2857"
           sodipodi:nodetypes="csssssscssss" />
        <path
           style="opacity:1;fill:#ffffff;fill-rule:evenodd;stroke:#000000;stroke-width:2.5;stroke-linecap:butt;stroke-linejoin:miter;stroke-miterlimit:4;stroke-dasharray:none;stroke-opacity:1"
           d="M 542.68819,270.24122 C 544.80642,271.31988 546.94282,272.54886 548.03052,274.66246 C 549.21908,276.97206 549.08134,280.9453 548.03052,283.32073 C 547.36577,284.82342 546.43851,286.26052 545.08303,287.18931 C 543.65584,288.16723 539.92491,289.76837 539.92491,289.76837 C 539.92491,289.76837 540.88658,286.70676 541.03022,285.34713 C 541.1987,283.75235 541.52645,281.45693 540.846,280.0048 C 539.96577,278.12633 536.41114,277.34366 535.68789,275.39934 C 535.24098,274.1979 535.45081,272.17203 536.24054,271.16232 C 537.08146,270.08716 539.11306,269.53932 540.47757,269.50435 C 541.1764,269.48644 542.06525,269.924 542.68819,270.24122 z"
           id="path2859"
           sodipodi:nodetypes="cssscssssss" />
      </g>
      <path
         id="path7808"
         d="M 59.612017,284.34854 L 59.612017,284.34854 z"
         style="fill:#f8c300;fill-opacity:1;fill-rule:evenodd;stroke:#000000;stroke-width:1px;stroke-linecap:butt;stroke-linejoin:miter;stroke-opacity:1" />
      <g
         transform="translate(-25.163704,-65.527947)"
         style="fill:#f8c300;fill-opacity:1"
         id="g3339">
        <path
           style="fill:#f8de00;fill-opacity:1;fill-rule:evenodd;stroke:#000000;stroke-width:3;stroke-linecap:butt;stroke-linejoin:miter;stroke-miterlimit:4;stroke-dasharray:none;stroke-opacity:1"
           d="M 301.26828,263.39017 C 297.0743,265.05744 292.64837,269.58537 289.684,272.98857 C 288.07323,274.83778 285.38127,279.93914 285.38127,279.93914 C 285.38127,279.93914 291.89986,279.19084 294.64869,278.61522 C 300.09544,277.47465 306.96498,273.95397 312.52159,273.65053 C 317.44407,273.38172 324.00318,274.93106 328.73959,276.29837 C 334.12601,277.85332 345.95052,283.57992 345.95052,283.57992 C 345.95052,283.57992 334.81462,265.07224 326.75371,261.73527 C 319.67458,258.80473 308.38805,260.55979 301.26828,263.39017 z"
           id="path3303"
           sodipodi:nodetypes="cscssscss" />
      </g>
      <path
         sodipodi:nodetypes="csssssssccssssscssscsssssscsssssssssscssscssssscsssssscssssscsssssssssssscssscsssscsssscssssssssscssssccc"
         id="path3268"
         d="M 153.26822,154.35704 C 153.26822,154.35704 112.68834,214.75692 115.37917,236.29009 C 116.49236,245.19831 159.59788,228.61724 161.26689,228.19093 C 167.86229,226.50628 176.61377,233.34249 183.41706,233.11319 C 189.95505,232.89283 198.23982,229.33151 204.33667,226.96037 C 214.10775,223.16027 226.08959,215.7311 235.71607,211.57831 C 242.95654,208.45483 252.63514,204.08404 260.32737,202.34907 C 268.82086,200.43338 280.9013,197.40177 289.24565,199.88794 C 294.41221,201.4273 327.58439,210.14484 327.58439,210.14484 C 327.58439,210.14484 355.08087,181.42946 355.08087,181.42946 C 355.08087,181.42946 364.87189,180.70304 368.61709,178.96833 C 374.68617,176.15724 381.96466,170.26467 385.845,164.81684 C 388.92829,160.48803 391.13953,153.44908 391.99782,148.20421 C 392.98199,142.19011 392.51346,133.88813 391.38254,127.89989 C 390.36408,122.50712 388.04154,115.38503 385.22971,110.67198 C 382.68504,106.40672 374.15463,98.366333 374.15463,98.366333 C 374.15463,98.366333 369.52763,95.471703 368.61709,93.444073 C 367.78531,91.591833 367.39437,88.296953 368.61709,86.675963 C 369.42632,85.603143 371.85125,84.636173 372.92407,85.445403 C 373.95561,86.223493 375.99624,92.828793 375.99624,92.828793 C 375.99624,92.828793 378.86745,91.216623 380.30746,88.521813 C 381.45169,86.380523 380.01803,82.761143 379.07689,80.523143 C 378.36136,78.821623 377.01264,76.471863 375.3852,75.600883 C 372.4513,74.030703 367.20587,73.604233 363.94094,74.247263 C 359.72853,75.076893 355.31028,77.895523 352.49669,81.138423 C 350.46894,83.475583 348.60971,87.903023 348.31277,90.982943 C 348.15236,92.646713 348.55888,96.889653 348.55888,96.889653 C 348.55888,96.889653 327.55074,94.874603 317.54864,95.289923 C 307.54654,95.705243 293.06932,99.170063 282.47754,99.596893 C 278.04726,99.775423 272.05322,99.877353 267.71076,98.981613 C 261.13031,97.624233 252.10785,95.091173 246.79116,90.982943 C 244.27824,89.041193 241.81004,85.320643 240.63833,82.368993 C 239.12617,78.559713 238.73786,73.100633 240.51103,69.405623 C 241.908,66.494553 244.88725,64.070473 248.02172,63.295233 C 251.25204,62.496293 256.31577,62.083203 259.09681,63.910513 C 260.47659,64.817113 261.88474,67.214463 261.55794,68.832773 C 261.22108,70.500893 258.89745,72.094193 257.25096,72.524473 C 255.42972,73.000423 251.09813,71.293903 251.09813,71.293903 C 251.09813,71.293903 250.26768,74.679513 251.71342,76.603573 C 253.6082,79.125213 258.42773,80.683463 261.55794,80.295273 C 264.45429,79.936073 268.61166,77.296793 270.50139,75.072663 C 273.28768,71.793303 275.70943,64.489343 275.70943,64.489343 C 275.70943,64.489343 290.84728,66.026323 297.24432,65.104623 C 305.50624,63.914233 314.14296,62.490003 321.55027,58.641873 C 325.64527,56.514503 332.09337,52.976963 334.66262,49.143733 C 337.52915,44.866973 338.76428,38.089853 337.62509,33.068908 C 336.6106,28.597561 332.80171,25.182009 328.38847,23.938838 C 325.01742,22.989241 318.85669,25.876937 318.85669,25.876937 C 318.85669,25.876937 324.38786,26.387781 326.24008,27.722784 C 328.19249,29.130001 330.41198,31.104577 331.08486,33.415291 C 331.39451,34.478633 330.5746,37.768043 330.00926,38.720383 C 328.82864,40.709193 326.40437,41.954353 324.31675,42.949883 C 321.25366,44.410593 316.44367,44.537953 313.05025,44.567853 C 308.49152,44.608013 301.44271,40.659843 297.01645,39.568113 C 293.77075,38.767563 284.86576,39.682053 284.86576,39.682053 C 284.86576,39.682053 290.66764,31.821188 290.70866,28.839412 C 290.76008,25.102209 290.46527,19.971438 288.01508,17.149045 C 286.22845,15.091006 282.70219,13.304886 280.01641,12.842068 C 277.62384,12.429776 275.89688,12.354224 274.31604,14.196865 C 273.35453,15.317613 271.76153,17.540611 272.01774,18.994893 C 272.39259,21.122634 273.36078,22.34661 273.36078,22.34661 C 273.36078,22.34661 274.65219,20.272365 276.32472,18.994893 C 277.20486,18.322643 279.11795,18.347323 280.01641,18.994893 C 280.96347,19.677493 282.71602,22.797797 282.50669,23.946294 C 281.82437,27.689935 275.61083,31.908761 272.30352,33.790813 C 267.25423,36.664153 259.68622,33.794041 254.08968,35.352923 C 248.11232,37.017873 239.88562,39.506223 235.01592,43.351593 C 230.35091,47.035313 225.2408,53.721853 223.32556,59.348943 C 221.27816,65.364313 221.33132,74.339793 222.79514,80.523143 C 224.2409,86.630223 228.42474,94.331763 232.63966,98.981613 C 237.55638,104.40567 246.27232,109.50395 252.94398,112.51783 C 258.16684,114.87722 265.68917,116.41633 271.40246,116.86724 C 276.7673,117.29065 283.88991,116.12035 289.24565,115.59424 C 297.17887,114.81493 315.70279,113.13311 315.70279,113.13311 C 315.70279,113.13311 302.33834,117.34323 297.8596,121.13178 C 294.81087,123.71069 291.00624,128.24902 290.47621,132.20687 C 290.08882,135.09959 291.44457,139.4177 293.55263,141.4361 C 295.49388,143.29478 302.16658,143.89723 302.16658,143.89723 C 302.16658,143.89723 297.59699,139.52145 297.8596,137.12913 C 297.94505,136.35068 298.95592,135.51022 299.70545,135.28328 C 301.50708,134.73779 303.98554,136.70443 305.85827,136.51384 C 311.04254,135.98623 318.24804,133.50611 321.85562,129.74574 C 324.03924,127.46963 325.54731,119.90122 325.54731,119.90122 C 325.54731,119.90122 322.91885,131.49041 325.54731,135.28328 C 327.34392,137.87579 332.56297,140.66038 335.65067,141.30456 C 339.08862,142.02181 343.80336,140.84847 347.0822,139.59026 C 349.27563,138.74856 352.41482,136.39314 352.61974,134.05271 C 352.81627,131.80816 348.31277,127.89989 348.31277,127.89989 C 348.31277,127.89989 349.22642,131.29322 348.31277,132.20687 C 347.13808,133.38156 344.33033,132.79118 342.77522,132.20687 C 340.93843,131.51672 338.66376,129.6867 337.85296,127.89989 C 337.1665,126.38709 337.17709,123.87991 337.85296,122.36235 C 338.86328,120.09382 341.72465,117.8063 344.00579,116.8248 C 348.25823,114.99512 354.99053,114.14698 359.38785,115.59424 C 364.7319,117.35309 370.83945,122.964 373.53935,127.89989 C 376.58349,133.46511 378.03845,142.63771 376.61576,148.81949 C 375.51344,153.60923 371.25243,159.32068 367.38652,162.35571 C 363.66507,165.27732 352.61974,167.89325 352.61974,167.89325 C 352.61974,167.89325 332.29466,167.80508 327.1243,166.70687 C 313.1012,163.72829 303.7884,157.69933 289.55625,155.97732 C 284.05575,155.31179 275.01616,154.58277 269.47748,154.43616 C 260.06514,154.18702 245.38609,155.19701 236.01485,154.28382 C 220.15782,152.73863 184.20207,149.05287 184.20207,149.05287 L 163.72802,143.89723 L 153.26822,154.35704 z"
         style="fill:#f8de00;fill-opacity:1;fill-rule:evenodd;stroke:#000000;stroke-width:3;stroke-linecap:butt;stroke-linejoin:miter;stroke-miterlimit:4;stroke-dasharray:none;stroke-opacity:1" />
      <path
         sodipodi:nodetypes="csssc"
         id="path7898"
         d="M 246.61784,53.707103 C 246.61784,53.707103 254.10135,52.693283 257.32534,52.762323 C 260.94562,52.839843 264.80488,53.640793 268.03284,55.281733 C 270.47523,56.523323 274.45768,60.016183 275.24267,62.641183 C 275.54531,63.653193 274.61282,66.105373 274.61282,66.105373"
         style="fill:none;fill-rule:evenodd;stroke:#000000;stroke-width:2.5;stroke-linecap:butt;stroke-linejoin:miter;stroke-miterlimit:4;stroke-dasharray:none;stroke-opacity:1" />
      <path
         sodipodi:nodetypes="csc"
         id="path7900"
         d="M 279.3702,53.707103 C 279.3702,53.707103 288.08952,58.668523 292.04992,60.271373 C 295.41908,61.634953 307.08372,63.469813 307.08372,63.469813"
         style="fill:none;fill-rule:evenodd;stroke:#000000;stroke-width:2.5;stroke-linecap:butt;stroke-linejoin:miter;stroke-miterlimit:4;stroke-dasharray:none;stroke-opacity:1" />
      <path
         sodipodi:nodetypes="csc"
         id="path7902"
         d="M 301.41505,52.762323 C 301.41505,52.762323 307.60045,56.417113 310.54792,57.171293 C 314.12225,58.085863 322.83005,57.801143 322.83005,57.801143"
         style="fill:none;fill-rule:evenodd;stroke:#000000;stroke-width:2.5;stroke-linecap:butt;stroke-linejoin:miter;stroke-miterlimit:4;stroke-dasharray:none;stroke-opacity:1" />
      <path
         sodipodi:nodetypes="cssc"
         id="path7904"
         d="M 285.98365,39.535413 C 285.98365,39.535413 280.42475,43.011143 277.79557,43.944383 C 275.89221,44.619983 273.15301,45.645413 271.18211,45.204083 C 269.92813,44.923293 267.71792,42.684673 267.71792,42.684673"
         style="fill:none;fill-rule:evenodd;stroke:#000000;stroke-width:2.5;stroke-linecap:butt;stroke-linejoin:miter;stroke-miterlimit:4;stroke-dasharray:none;stroke-opacity:1" />
      <path
         sodipodi:nodetypes="cscssss"
         id="path7906"
         d="M 339.94492,96.397433 C 339.94492,96.397433 343.60091,96.055723 345.1133,96.397433 C 350.13863,97.532863 360.61842,103.78082 360.61842,103.78082 C 360.61842,103.78082 358.19286,96.087513 358.4034,92.705733 C 358.59926,89.559803 359.66071,85.119363 361.72592,82.738153 C 363.3485,80.867303 366.69909,79.615433 369.10931,79.046463 C 369.75604,78.893793 371.32433,79.046463 371.32433,79.046463"
         style="fill:none;fill-rule:evenodd;stroke:#000000;stroke-width:2.5;stroke-linecap:butt;stroke-linejoin:miter;stroke-miterlimit:4;stroke-dasharray:none;stroke-opacity:1" />
      <path
         sodipodi:nodetypes="cssss"
         id="path7908"
         d="M 297.9834,136.20768 C 297.9834,136.20768 299.89447,131.61765 301.57947,130.13788 C 303.45691,128.4891 308.51299,126.98051 310.78053,125.93098 C 312.28814,125.23318 314.3866,124.05098 315.21057,122.60846 C 315.708,121.73762 315.57974,119.28593 315.57974,119.28593"
         style="fill:none;fill-rule:evenodd;stroke:#000000;stroke-width:2.5;stroke-linecap:butt;stroke-linejoin:miter;stroke-miterlimit:4;stroke-dasharray:none;stroke-opacity:1" />
      <path
         sodipodi:nodetypes="cc"
         id="path7910"
         d="M 327.71141,113.1416 L 324.77079,122.29021"
         style="fill:none;fill-rule:evenodd;stroke:#000000;stroke-width:2.5;stroke-linecap:butt;stroke-linejoin:miter;stroke-miterlimit:4;stroke-dasharray:none;stroke-opacity:1" />
      <path
         sodipodi:nodetypes="cssc"
         id="path7912"
         d="M 355.81072,181.7562 C 355.81072,181.7562 349.12837,178.69401 345.6819,177.83537 C 342.63827,177.07709 338.2791,178.55603 335.22634,177.83537 C 332.66653,177.23108 327.38468,173.91453 327.38468,173.91453"
         style="fill:none;fill-rule:evenodd;stroke:#000000;stroke-width:2.5;stroke-linecap:butt;stroke-linejoin:miter;stroke-miterlimit:4;stroke-dasharray:none;stroke-opacity:1" />
      <path
         sodipodi:nodetypes="cc"
         id="path7926"
         d="M 207.64511,161.098 L 212.83325,171.96136"
         style="fill:none;fill-rule:evenodd;stroke:#000000;stroke-width:2.5;stroke-linecap:butt;stroke-linejoin:miter;stroke-miterlimit:4;stroke-dasharray:none;stroke-opacity:1" />
      <path
         sodipodi:nodetypes="cc"
         id="path7928"
         d="M 214.19367,159.43632 L 217.59833,168.23387"
         style="fill:none;fill-rule:evenodd;stroke:#000000;stroke-width:2.5;stroke-linecap:butt;stroke-linejoin:miter;stroke-miterlimit:4;stroke-dasharray:none;stroke-opacity:1" />
      <path
         sodipodi:nodetypes="cc"
         id="path7930"
         d="M 220.41626,159.01266 L 223.781,164.57139"
         style="fill:none;fill-rule:evenodd;stroke:#000000;stroke-width:2.5;stroke-linecap:butt;stroke-linejoin:miter;stroke-miterlimit:4;stroke-dasharray:none;stroke-opacity:1" />
      <path
         sodipodi:nodetypes="cc"
         id="path7932"
         d="M 225.85655,157.81236 L 228.85479,163.41946"
         style="fill:none;fill-rule:evenodd;stroke:#000000;stroke-width:2.5;stroke-linecap:butt;stroke-linejoin:miter;stroke-miterlimit:4;stroke-dasharray:none;stroke-opacity:1" />
      <path
         sodipodi:nodetypes="csss"
         id="path7942"
         d="M 198.12232,230.54286 C 198.12232,230.54286 189.50328,229.10292 186.22209,227.41122 C 183.61334,226.06621 180.36076,223.57217 178.70615,221.14794 C 176.86384,218.4487 175.26134,210.81352 175.26134,210.81352"
         style="fill:none;fill-rule:evenodd;stroke:#000000;stroke-width:2.5;stroke-linecap:butt;stroke-linejoin:miter;stroke-miterlimit:4;stroke-dasharray:none;stroke-opacity:1" />
      <path
         sodipodi:nodetypes="csss"
         id="path7944"
         d="M 207.83041,225.21907 C 207.83041,225.21907 197.71032,224.49028 194.14201,222.53211 C 192.0325,221.37448 189.43491,219.35682 187.87873,217.52148 C 186.13781,215.46826 183.49443,209.69238 183.49443,209.69238"
         style="fill:none;fill-rule:evenodd;stroke:#000000;stroke-width:2.5;stroke-linecap:butt;stroke-linejoin:miter;stroke-miterlimit:4;stroke-dasharray:none;stroke-opacity:1" />
      <path
         sodipodi:nodetypes="css"
         id="path7946"
         d="M 218.16483,220.83478 C 218.16483,220.83478 204.68871,217.7275 199.37498,215.19782 C 196.81045,213.97694 191.12155,208.1767 191.12155,208.1767"
         style="fill:none;fill-rule:evenodd;stroke:#000000;stroke-width:2.5;stroke-linecap:butt;stroke-linejoin:miter;stroke-miterlimit:4;stroke-dasharray:none;stroke-opacity:1" />
      <path
         sodipodi:nodetypes="csss"
         id="path7948"
         d="M 197.40517,204.84306 C 197.40517,204.84306 201.02982,208.82786 203.13295,209.56087 C 205.02947,210.22187 207.49157,210.98214 209.47845,211.27542 C 211.25411,211.53752 214.73571,211.6708 214.73571,211.6708"
         style="fill:none;fill-rule:evenodd;stroke:#000000;stroke-width:2.5;stroke-linecap:butt;stroke-linejoin:miter;stroke-miterlimit:4;stroke-dasharray:none;stroke-opacity:1" />
      <path
         sodipodi:nodetypes="csss"
         id="path7950"
         d="M 205.95143,202.98442 C 205.95143,202.98442 207.96575,205.30967 209.08307,205.8029 C 210.50576,206.43092 212.88864,206.40557 214.40686,206.74239 C 215.87437,207.06796 219.41748,206.74239 219.41748,206.74239"
         style="fill:none;fill-rule:evenodd;stroke:#000000;stroke-width:2.5;stroke-linecap:butt;stroke-linejoin:miter;stroke-miterlimit:4;stroke-dasharray:none;stroke-opacity:1" />
      <path
         sodipodi:nodetypes="css"
         id="path7952"
         d="M 214.72002,201.10544 C 214.72002,201.10544 219.97696,202.00853 222.23596,202.35809 C 223.54898,202.56127 226.62026,202.98442 226.62026,202.98442"
         style="fill:none;fill-rule:evenodd;stroke:#000000;stroke-width:2.5;stroke-linecap:butt;stroke-linejoin:miter;stroke-miterlimit:4;stroke-dasharray:none;stroke-opacity:1" />
      <path
         sodipodi:nodetypes="css"
         id="path7954"
         d="M 225.68077,197.97379 C 225.68077,197.97379 232.94227,198.41463 236.01518,198.91329 C 237.63475,199.17611 241.33897,200.16594 241.33897,200.16594"
         style="fill:none;fill-rule:evenodd;stroke:#000000;stroke-width:2.5;stroke-linecap:butt;stroke-linejoin:miter;stroke-miterlimit:4;stroke-dasharray:none;stroke-opacity:1" />
      <path
         sodipodi:nodetypes="csss"
         id="path7956"
         d="M 234.76253,193.90266 C 234.76253,193.90266 241.83345,194.97444 244.78378,195.78164 C 246.90511,196.36203 251.67339,198.28696 251.67339,198.28696 C 251.67339,198.28696 251.67339,198.28696 251.67339,198.28696"
         style="fill:none;fill-rule:evenodd;stroke:#000000;stroke-width:2.5;stroke-linecap:butt;stroke-linejoin:miter;stroke-miterlimit:4;stroke-dasharray:none;stroke-opacity:1" />
      <path
         sodipodi:nodetypes="csss"
         id="path7958"
         d="M 247.91542,191.08418 C 247.91542,191.08418 252.7905,191.74112 254.80503,192.33684 C 256.68659,192.89324 259.23507,193.72781 260.84128,194.85473 C 262.40267,195.95021 265.13945,199.53961 265.13945,199.53961"
         style="fill:none;fill-rule:evenodd;stroke:#000000;stroke-width:2.5;stroke-linecap:butt;stroke-linejoin:miter;stroke-miterlimit:4;stroke-dasharray:none;stroke-opacity:1" />
      <g
         transform="matrix(0.8148211,0.5797125,-0.5797125,0.8148211,-291.71928,-327.4133)"
         id="g2935">
        <path
           style="fill:#f8de00;fill-opacity:1;fill-rule:evenodd;stroke:#000000;stroke-width:3;stroke-linecap:butt;stroke-linejoin:miter;stroke-miterlimit:4;stroke-dasharray:none;stroke-opacity:1"
           d="M 565.14551,294.08588 C 565.9351,293.04064 567.37329,291.85349 568.61407,291.43345 C 569.59969,291.09978 571.0858,291.13495 572.08263,291.43345 C 574.74983,292.23214 577.24253,295.5212 579.83589,296.53428 C 584.05377,298.18197 594.7303,298.98267 594.7303,298.98267 L 583.40647,312.24482 L 565.45156,313.87708 L 562.18703,308.26618 C 562.18703,308.26618 561.7397,303.73632 562.08501,301.83914 C 562.53281,299.37893 563.63823,296.08119 565.14551,294.08588 z"
           id="path2565"
           sodipodi:nodetypes="csssccccss" />
        <path
           style="fill:#f8c300;fill-opacity:1;fill-rule:evenodd;stroke:#000000;stroke-width:1px;stroke-linecap:butt;stroke-linejoin:miter;stroke-opacity:1"
           d="M 565.24753,294.1879 L 565.24753,294.1879 z"
           id="path2567" />
        <path
           style="fill:#f8de00;fill-opacity:1;fill-rule:evenodd;stroke:#000000;stroke-width:3;stroke-linecap:butt;stroke-linejoin:miter;stroke-miterlimit:4;stroke-dasharray:none;stroke-opacity:1"
           d="M 658.90373,164.1964 L 589.37681,288.48346 L 581.37814,308.1725 L 575.22531,309.40306 C 575.22531,309.40306 567.43533,306.81297 564.15022,307.55721 C 561.95276,308.05504 557.9974,311.86419 557.9974,311.86419 L 564.76551,327.24625 C 564.76551,327.24625 568.04094,329.59034 569.68777,329.70738 C 571.43448,329.83152 575.22531,327.86154 575.22531,327.86154 L 577.68644,322.32399 C 577.68644,321.34239 589.91321,311.46536 592.85744,310.63184 C 593.56786,310.43072 593.54861,308.4304 592.85744,308.17071 C 592.10349,307.88742 591.08885,310.41277 589.57686,311.84551 C 587.60394,313.71503 587.13016,315.353 586.16661,316.13536 C 582.47161,319.1355 582.78831,319.6036 581.99342,323.55456 C 581.64803,325.27128 583.83927,329.0921 583.83927,329.0921 L 603.52831,331.55323 C 603.52831,331.55323 609.72362,328.08401 610.29641,325.40041 C 610.96931,322.24779 606.64947,318.71123 605.98944,315.55589 C 605.49813,313.20712 603.62307,307.95519 605.98944,307.55721 C 608.23692,307.17923 604.85154,312.00757 605.65199,315.63146 C 606.63526,320.083 611.52698,323.55456 611.52698,323.55456 L 619.52565,324.16984 C 619.52565,324.16984 628.30587,316.87555 629.98545,312.47947 C 630.24896,311.78976 630.43224,310.60615 629.98545,310.01834 C 627.89878,307.27303 618.91037,306.94193 618.91037,306.94193 C 618.91037,306.94193 618.56236,305.5114 619.11963,304.68828 C 620.36144,302.8541 625.06319,303.86552 625.06319,303.86552 L 626.90904,290.94459 L 629.98545,298.94326 C 629.98545,298.94326 634.25517,293.09643 635.31373,289.51191 C 636.0979,286.85651 636.18929,282.90936 635.31373,280.28267 C 634.73002,278.53155 634.5017,276.59456 634.5017,276.59456 C 634.5017,276.59456 638.79839,280.28592 640.23778,283.35908 C 641.10255,285.2054 640.44168,291.15565 640.44168,291.15565 C 640.44168,291.15565 643.05295,287.99988 643.71871,286.40038 C 645.13427,282.99953 646.49355,277.98007 645.9828,274.33196 C 645.58221,271.47066 643.45388,267.99529 641.67582,265.718 C 639.58122,263.03529 638.82121,262.24274 638.82121,262.24274 C 638.82121,262.24274 640.10554,262.37986 641.9953,263.71636 C 644.07701,265.1886 646.84948,267.98454 648.44393,270.64026 C 649.99062,273.21644 650.28977,280.48478 650.28977,280.48478 L 653.50442,274.17217 L 654.59675,266.94857 L 652.13562,250.95123 C 652.13562,250.95123 664.33346,240.16166 665.03063,234.3166 L 667.14243,216.61108 L 653.65917,186.85351 L 669.36353,153.73659 L 658.90373,164.1964 z"
           id="path2571"
           sodipodi:nodetypes="ccccsccsccsssssccssssccsscscccsscscssscssccccscccc" />
        <path
           style="fill:#ffffff;fill-rule:evenodd;stroke:#000000;stroke-width:2.5;stroke-linecap:butt;stroke-linejoin:miter;stroke-miterlimit:4;stroke-dasharray:none;stroke-opacity:1"
           d="M 570.7388,296.27542 C 568.84752,294.11166 565.87373,292.86057 563.00163,292.95949 C 560.53154,293.04456 557.55756,295.0933 555.63289,296.64386 C 553.64341,298.24664 550.98894,300.81823 550.29056,303.27572 C 549.92517,304.5615 549.99824,305.6139 550.659,306.77586 C 551.28197,307.87137 553.05384,309.90757 553.05384,309.90757 C 553.05384,309.90757 553.43806,307.23964 554.15915,306.40743 C 555.24365,305.15579 557.53807,304.45848 559.13304,304.01259 C 560.79072,303.54917 563.15271,303.78058 564.84381,303.45993 C 566.0297,303.23507 567.70091,303.01324 568.7124,302.35462 C 569.79754,301.64804 571.19679,300.30321 571.47567,299.03869 C 571.66045,298.20087 571.30342,296.92139 570.7388,296.27542 z"
           id="path2633"
           sodipodi:nodetypes="csssscssssss" />
        <path
           style="fill:#ffffff;fill-rule:evenodd;stroke:#000000;stroke-width:2.5;stroke-linecap:butt;stroke-linejoin:miter;stroke-miterlimit:4;stroke-dasharray:none;stroke-opacity:1"
           d="M 568.7124,313.40772 C 569.48162,314.75156 569.52461,317.15048 568.89661,318.56584 C 568.33986,319.82064 566.67852,321.0226 565.39647,321.51333 C 563.74402,322.14584 561.12538,320.995 559.50148,321.69755 C 557.56472,322.53546 555.60274,324.85563 554.52758,326.67144 C 553.82365,327.8603 553.23891,329.71104 553.23806,331.09268 C 553.23695,332.87665 554.89602,336.80345 554.89602,336.80345 C 554.89602,336.80345 548.80729,332.1795 547.7115,329.2505 C 546.83923,326.91892 547.32205,323.33191 548.07994,320.96068 C 548.76132,318.82884 550.5378,316.26734 552.13274,314.69725 C 553.61895,313.23421 556.03123,311.61559 558.02773,311.01288 C 559.93313,310.43767 562.7411,310.29879 564.65959,310.82867 C 566.04873,311.21235 567.99647,312.15698 568.7124,313.40772 z"
           id="path2635"
           sodipodi:nodetypes="cssssscssssss" />
        <path
           style="fill:#ffffff;fill-rule:evenodd;stroke:#000000;stroke-width:2.5;stroke-linecap:butt;stroke-linejoin:miter;stroke-miterlimit:4;stroke-dasharray:none;stroke-opacity:1"
           d="M 597.45047,327.40832 C 597.23531,325.36287 595.57174,323.87574 593.58188,323.35552 C 591.38902,322.78222 587.76892,322.82413 586.02893,324.27661 C 584.77251,325.32542 585.224,328.0101 584.92362,329.61894 C 584.55343,331.60168 583.8494,334.23404 583.81831,336.2508 C 583.78651,338.31397 584.03415,341.12773 584.7394,343.06688 C 585.16388,344.23403 585.91203,345.88513 586.95002,346.56703 C 588.44603,347.54982 592.84501,347.48812 592.84501,347.48812 C 592.84501,347.48812 589.48523,345.03729 588.97642,343.43531 C 588.5198,341.99763 589.12299,339.84957 589.71329,338.46142 C 590.66929,336.21328 593.03772,333.81581 594.68719,332.01378 C 596.00753,330.57133 597.65504,329.35309 597.45047,327.40832 z"
           id="path2637"
           sodipodi:nodetypes="csssssscssss" />
        <path
           style="fill:#ffffff;fill-rule:evenodd;stroke:#000000;stroke-width:2.5;stroke-linecap:butt;stroke-linejoin:miter;stroke-miterlimit:4;stroke-dasharray:none;stroke-opacity:1"
           d="M 625.08321,315.43412 C 627.20144,316.51278 629.33784,317.74176 630.42554,319.85536 C 631.6141,322.16496 631.47636,326.1382 630.42554,328.51363 C 629.76079,330.01632 628.83353,331.45342 627.47805,332.38221 C 626.05086,333.36013 622.31993,334.96127 622.31993,334.96127 C 622.31993,334.96127 623.2816,331.89966 623.42524,330.54003 C 623.59372,328.94525 623.92147,326.64983 623.24102,325.1977 C 622.36079,323.31923 618.80616,322.53656 618.08291,320.59224 C 617.636,319.3908 617.84583,317.36493 618.63556,316.35522 C 619.47648,315.28006 621.50808,314.73222 622.87259,314.69725 C 623.57142,314.67934 624.46027,315.1169 625.08321,315.43412 z"
           id="path2639"
           sodipodi:nodetypes="cssscssssss" />
      </g>
      <g
         transform="matrix(0.85467,-0.5191716,0.5191716,0.85467,-641.43387,663.7243)"
         id="g3187">
        <path
           style="opacity:1;fill:#f8de00;fill-opacity:1;fill-rule:evenodd;stroke:#000000;stroke-width:3;stroke-linecap:butt;stroke-linejoin:miter;stroke-miterlimit:4;stroke-dasharray:none;stroke-opacity:1"
           d="M 1139.6407,205.17739 C 1139.6407,205.17739 1131.6343,209.3968 1127.9835,208.96111 C 1125.4801,208.66236 1123.3324,204.82212 1120.8251,204.55843 C 1118.4132,204.30476 1114.9171,205.54679 1113.2089,207.26826 C 1111.9283,208.55878 1111.2217,212.99334 1111.2217,212.99334 L 1119.3578,222.4651 L 1125.0725,221.23664 L 1134.1739,217.50426 L 1139.6407,205.17739 z"
           id="path3077"
           sodipodi:nodetypes="csssccccc" />
        <path
           style="opacity:1;fill:#f8de00;fill-opacity:1;fill-rule:evenodd;stroke:#000000;stroke-width:3;stroke-linecap:butt;stroke-linejoin:miter;stroke-miterlimit:4;stroke-dasharray:none;stroke-opacity:1"
           d="M 1061.2491,149.28518 C 1067.4777,154.5495 1068.9735,166.08014 1072.0169,173.64619 C 1072.5243,174.90767 1070.9282,177.45368 1072.7332,181.36368 C 1074.6119,185.43329 1079.871,190.87659 1079.1921,192.47414 C 1078.0014,195.27589 1072.6179,198.66103 1072.6179,198.66103 C 1072.6179,198.66103 1076.3971,199.99026 1080.0119,199.14975 C 1082.893,198.47984 1085.7081,195.7485 1086.143,194.8262 C 1087.2268,192.52759 1087.3939,188.77114 1087.4811,187.94206 C 1087.9256,183.71993 1082.3585,174.75026 1082.3585,174.75026 C 1082.3585,174.75026 1088.2058,189.23208 1093.7232,192.11855 C 1096.1547,193.39057 1099.1679,192.23493 1101.4048,193.82422 C 1103.8171,195.5381 1106.2833,197.62706 1105.2406,200.39637 C 1103.7221,204.42913 1099.7074,208.79495 1099.7074,208.79495 C 1099.7074,208.79495 1104.8068,208.49855 1108.5593,205.81279 C 1110.8943,204.14157 1112.4661,201.45358 1112.7393,198.59515 C 1113.343,192.28056 1111.237,183.45625 1108.0345,177.98062 C 1106.1592,174.77408 1098.8635,169.66112 1098.8635,169.66112 C 1098.8635,169.66112 1107.9741,181.13221 1113.7031,182.37984 C 1117.6873,183.24751 1124.3,180.1403 1124.3,180.1403 C 1124.3,180.1403 1123.4135,187.65946 1123.8931,191.62373 C 1124.6498,197.87839 1133.1864,210.45648 1133.1864,210.45648 C 1133.1864,210.45648 1126.8789,216.41508 1123.6252,218.12956 C 1121.496,219.25147 1117.556,218.66233 1115.9462,220.45141 C 1114.7815,221.74591 1114.8602,226.15348 1114.8602,226.15348 L 1128.4581,237.37425 C 1128.4581,237.37425 1133.7633,237.54053 1135.2127,236.07141 C 1137.6501,233.60072 1135.9582,228.12683 1137.2497,224.68325 C 1138.5266,221.27892 1142.9645,215.24003 1142.9645,215.24003 L 1144.2949,230.56445 L 1148.7218,233.46573 L 1161.9136,228.34309 C 1161.9136,228.34309 1164.1209,221.82665 1163.0331,219.3278 C 1161.5413,215.90087 1152.9377,212.02729 1152.9377,212.02729 C 1152.9377,212.02729 1156.4888,211.02059 1158.5319,211.3116 C 1161.0771,211.67415 1164.5645,214.77284 1164.5645,214.77284 L 1170.8736,212.32288 L 1176.1026,203.69192 C 1176.1026,203.69192 1175.3599,198.4819 1173.6527,197.3828 C 1170.6378,195.4418 1161.7194,198.05646 1161.7194,198.05646 L 1165.1833,187.47073 L 1158.4957,182.14712 C 1158.4957,182.14712 1169.6382,183.9639 1173.4693,181.61294 C 1175.9268,180.10489 1177.8197,176.07181 1178.1248,173.20469 C 1178.3794,170.81151 1175.8029,165.52574 1175.8029,165.52574 C 1175.8029,165.52574 1175.3836,170.08339 1174.1434,171.45052 C 1173.0272,172.68095 1170.4813,174.16921 1168.9814,173.45504 C 1166.1433,172.10372 1165.7686,163.48186 1165.7686,163.48186 C 1165.7686,163.48186 1171.9849,159.18072 1173.6092,156.47694 C 1174.7695,154.54554 1176.166,151.3001 1175.3968,149.18232 C 1174.5752,146.92022 1168.932,144.43226 1168.932,144.43226 C 1168.932,144.43226 1170.8142,147.53666 1170.1501,149.26876 C 1169.4761,151.02639 1167.1777,153.79343 1165.2956,153.76489 C 1161.712,153.71056 1155.4229,147.03795 1155.4229,147.03795 C 1155.4229,147.03795 1160.3242,141.6478 1160.325,138.16507 C 1160.3253,136.78716 1159.1042,133.78893 1157.2734,132.59847 C 1154.5225,130.80971 1152.8243,130.67233 1152.8243,130.67233 C 1152.8243,130.67233 1155.6209,134.1484 1154.5043,136.17388 C 1153.3772,138.21862 1150.7505,140.4753 1148.5126,141.14078 C 1144.7138,142.2704 1138.9393,141.39587 1135.3878,139.63697 C 1131.0871,137.50704 1128.0806,133.26382 1124.7389,129.81921 C 1123.76,128.81024 1122.1511,126.77734 1122.1511,126.77734 C 1122.1511,126.77734 1128.1716,123.94861 1130.1906,121.76179 C 1131.6072,120.22742 1132.8996,115.73258 1132.5652,113.67119 C 1132.0655,110.59057 1128.6373,106.57399 1125.5763,105.96554 C 1123.0352,105.46046 1119.5015,108.04047 1119.5015,108.04047 C 1119.5015,108.04047 1123.2922,109.49515 1124.7751,110.52384 C 1125.8278,111.25408 1125.093,114.55168 1124.8666,115.81268 C 1124.6816,116.84247 1122.923,117.46718 1121.8893,117.62888 C 1116.7797,118.42816 1110.7755,115.38015 1106.4102,112.60695 C 1103.3059,110.6348 1098.7371,103.04572 1098.7371,103.04572 C 1098.7371,103.04572 1098.4173,96.150821 1093.2,96.998687 C 1084.1002,98.477495 1060.8363,91.88299 1054.3017,106.72618 C 1050.6748,114.96439 1059.7795,148.04313 1061.2491,149.28518 z"
           id="path3079"
           sodipodi:nodetypes="cssscssscssscssscscscssccssccccscscccscccsscsscsscsscsscsssscssscsssscsss" />
        <path
           style="opacity:1;fill:none;fill-rule:evenodd;stroke:#000000;stroke-width:2.5;stroke-linecap:butt;stroke-linejoin:miter;stroke-miterlimit:4;stroke-dasharray:none;stroke-opacity:1"
           d="M 1099.5358,103.08611 C 1099.5358,103.08611 1092.1981,102.6505 1088.6746,103.09766 C 1085.5629,103.49255 1082.0347,106.44915 1078.9281,106.88242 C 1076.3231,107.24572 1070.1989,106.06604 1070.1989,106.06604"
           id="path3095"
           sodipodi:nodetypes="cssc" />
        <path
           style="opacity:1;fill:none;fill-rule:evenodd;stroke:#000000;stroke-width:2.5;stroke-linecap:butt;stroke-linejoin:miter;stroke-miterlimit:4;stroke-dasharray:none;stroke-opacity:1"
           d="M 1075.471,118.74005 C 1075.471,118.74005 1082.276,117.43471 1085.0636,118.16959 C 1089.2727,119.27919 1092.4867,124.46319 1096.3901,126.38953 C 1098.9452,127.65051 1102.1795,128.29971 1104.0153,129.69667 C 1105.5818,130.88877 1108.548,134.44137 1108.548,134.44137 C 1108.548,134.44137 1108.4991,129.39003 1107.5339,127.10581 C 1107.1612,126.22371 1104.9408,120.61558 1104.9408,120.61558 C 1104.9408,120.61558 1113.6651,126.42416 1117.9812,127.11844 C 1119.2723,127.32613 1122.2955,126.49462 1122.2955,126.49462"
           id="path3097"
           sodipodi:nodetypes="cssscscss" />
        <path
           style="opacity:1;fill:none;fill-rule:evenodd;stroke:#000000;stroke-width:2.5;stroke-linecap:butt;stroke-linejoin:miter;stroke-miterlimit:4;stroke-dasharray:none;stroke-opacity:1"
           d="M 1141.7316,149.05156 C 1141.7316,149.05156 1146.912,149.95419 1149.1318,149.74364 C 1151.0142,149.56509 1155.1851,147.98733 1155.1851,147.98733"
           id="path3099"
           sodipodi:nodetypes="css" />
        <path
           style="opacity:1;fill:none;fill-rule:evenodd;stroke:#000000;stroke-width:2.5;stroke-linecap:butt;stroke-linejoin:miter;stroke-miterlimit:4;stroke-dasharray:none;stroke-opacity:1"
           d="M 1166.3434,167.02961 C 1166.3434,167.02961 1162.6693,162.37073 1160.6095,160.93616 C 1158.3271,159.34646 1154.823,157.73541 1152.073,157.31773 C 1151.0498,157.16232 1148.6403,157.66025 1148.6403,157.66025"
           id="path3101"
           sodipodi:nodetypes="cssc" />
        <path
           style="opacity:1;fill:none;fill-rule:evenodd;stroke:#000000;stroke-width:2.5;stroke-linecap:butt;stroke-linejoin:miter;stroke-miterlimit:4;stroke-dasharray:none;stroke-opacity:1"
           d="M 1147.039,166.80016 C 1147.039,166.80016 1153.0271,166.70879 1155.223,167.98026 C 1158.465,169.85743 1161.192,174.38543 1164.0151,176.84803 C 1165.44,178.09099 1167.3064,179.91012 1169.0521,180.63684 C 1170.4033,181.19934 1173.8803,181.33721 1173.8803,181.33721"
           id="path3103"
           sodipodi:nodetypes="csssc" />
        <path
           style="opacity:1;fill:none;fill-rule:evenodd;stroke:#000000;stroke-width:2.5;stroke-linecap:butt;stroke-linejoin:miter;stroke-miterlimit:4;stroke-dasharray:none;stroke-opacity:1"
           d="M 1159.5277,183.14678 C 1159.5277,183.14678 1151.9728,177.61016 1150.1991,176.46831 C 1148.7136,175.51202 1145.2088,174.8404 1145.2088,174.8404"
           id="path3105"
           sodipodi:nodetypes="csc" />
        <path
           style="opacity:1;fill:none;fill-rule:evenodd;stroke:#000000;stroke-width:2.5;stroke-linecap:butt;stroke-linejoin:miter;stroke-miterlimit:4;stroke-dasharray:none;stroke-opacity:1"
           d="M 1131.696,166.02074 L 1130.3245,171.80588 L 1125.0323,179.27092 C 1125.0323,179.27092 1126.7632,180.56434 1128.1526,180.81087 C 1129.0416,180.9686 1130.84,180.64849 1131.5341,180.071 C 1132.8275,178.99481 1134.4761,177.24775 1134.9728,175.64012 C 1135.2212,174.83601 1134.8026,172.83993 1134.8026,172.83993"
           id="path3115"
           sodipodi:nodetypes="cccsssc" />
        <path
           style="opacity:1;fill:none;fill-rule:evenodd;stroke:#000000;stroke-width:2.5;stroke-linecap:butt;stroke-linejoin:miter;stroke-miterlimit:4;stroke-dasharray:none;stroke-opacity:1"
           d="M 1100.0524,157.76203 C 1100.0524,157.76203 1103.3465,163.33667 1105.6643,164.65515 C 1107.8285,165.8862 1111.3888,166.01743 1113.8742,165.86984 C 1116.0089,165.74307 1117.9831,165.48559 1119.5741,164.05669 C 1120.9689,162.80396 1123.0286,158.17908 1123.0286,158.17908 C 1123.0286,158.17908 1123.6108,163.30742 1122.8641,165.31404 C 1121.8795,167.95984 1119.2625,171.06352 1116.8781,172.57491 C 1115.3225,173.561 1112.7676,174.01058 1110.9272,174.08527 C 1108.453,174.18568 1102.7883,172.70962 1102.7883,172.70962"
           id="path3117"
           sodipodi:nodetypes="cssscsssc" />
        <path
           style="opacity:1;fill:none;fill-rule:evenodd;stroke:#000000;stroke-width:2.5;stroke-linecap:butt;stroke-linejoin:miter;stroke-miterlimit:4;stroke-dasharray:none;stroke-opacity:1"
           d="M 1092.2259,175.74387 C 1092.2259,175.74387 1094.7962,181.6286 1097.0004,183.22902 C 1098.7215,184.47874 1101.7118,184.7677 1103.5094,185.90466 C 1105.1961,186.97141 1106.8361,188.3197 1108.1118,189.85438 C 1109.478,191.49785 1112.9476,197.20215 1112.9476,197.20215"
           id="path3119"
           sodipodi:nodetypes="csssc" />
        <path
           style="opacity:1;fill:none;fill-rule:evenodd;stroke:#000000;stroke-width:2.5;stroke-linecap:butt;stroke-linejoin:miter;stroke-miterlimit:4;stroke-dasharray:none;stroke-opacity:1"
           d="M 1089.794,109.67307 C 1089.794,109.67307 1096.2285,112.16546 1098.5769,113.90992 C 1101.0955,115.78084 1105.6478,121.61561 1105.6478,121.61561"
           id="path3121"
           sodipodi:nodetypes="csc" />
        <path
           style="opacity:1;fill:#ffffff;fill-rule:evenodd;stroke:#000000;stroke-width:2.5;stroke-linecap:butt;stroke-linejoin:miter;stroke-miterlimit:4;stroke-dasharray:none;stroke-opacity:1"
           d="M 1116.2258,211.56328 C 1114.3855,210.74304 1111.4149,211.95902 1109.6506,212.9321 C 1107.5742,214.07735 1106.7655,214.80502 1105.4247,216.76089 C 1104.2547,218.46769 1102.5907,220.95126 1102.525,223.01954 C 1102.455,225.22668 1105.1896,229.88121 1105.1896,229.88121 C 1105.1896,229.88121 1107.0517,223.52891 1108.7955,221.37424 C 1110.6907,219.03241 1113.5651,219.53848 1115.756,217.47058 C 1116.5478,216.7232 1117.929,215.70885 1118.0061,214.62274 C 1118.0812,213.56349 1117.1957,211.99559 1116.2258,211.56328 z"
           id="path3141"
           sodipodi:nodetypes="cssscssss" />
        <path
           style="opacity:1;fill:#ffffff;fill-rule:evenodd;stroke:#000000;stroke-width:2.5;stroke-linecap:butt;stroke-linejoin:miter;stroke-miterlimit:4;stroke-dasharray:none;stroke-opacity:1"
           d="M 1119.1175,226.34707 C 1121.0514,225.68954 1121.7851,224.90965 1123.6341,225.77761 C 1125.2473,226.53484 1127.1942,228.71449 1127.243,230.49589 C 1127.2724,231.56741 1125.9174,232.62524 1125.2311,233.44866 C 1124.0755,234.83523 1121.8154,236.09262 1120.9508,237.6771 C 1120.2247,239.0078 1119.7865,241.11087 1119.9098,242.62176 C 1120.0086,243.83227 1120.6969,245.38823 1121.3753,246.39567 C 1122.0924,247.4608 1123.3996,247.76755 1124.3947,248.57914 C 1124.7032,248.83076 1121.4568,249.7141 1119.8397,249.55831 C 1118.1684,249.3973 1115.9343,248.52272 1114.6669,247.42142 C 1112.8514,245.84388 1112.6139,243.68369 1111.9257,241.37913 C 1111.2763,239.20453 1112.4411,237.07438 1112.9485,234.8623 C 1113.4652,232.60936 1115.1022,229.82534 1116.6392,228.09905 C 1117.2447,227.41905 1118.2554,226.64016 1119.1175,226.34707 z"
           id="path3143"
           sodipodi:nodetypes="csssssscssssss" />
        <path
           style="opacity:1;fill:#ffffff;fill-rule:evenodd;stroke:#000000;stroke-width:2.5;stroke-linecap:butt;stroke-linejoin:miter;stroke-miterlimit:4;stroke-dasharray:none;stroke-opacity:1"
           d="M 1149.6632,230.27829 C 1149.6632,230.27829 1152.1508,227.36677 1153.562,226.59278 C 1154.3425,226.16471 1154.8812,225.96015 1155.7538,226.1365 C 1157.6007,226.5098 1160.0197,228.18515 1160.7733,229.91219 C 1161.7904,232.24303 1160.3299,235.83744 1159.9021,238.34428 C 1159.6083,240.06518 1159.2324,243.73695 1159.2324,243.73695 C 1159.2324,243.73695 1151.7482,236.27832 1150.8137,234.512 C 1149.6932,232.39399 1149.6423,230.50169 1149.6632,230.27829 z"
           id="path3145"
           sodipodi:nodetypes="csssscss" />
        <path
           style="opacity:1;fill:#ffffff;fill-rule:evenodd;stroke:#000000;stroke-width:2.5;stroke-linecap:butt;stroke-linejoin:miter;stroke-miterlimit:4;stroke-dasharray:none;stroke-opacity:1"
           d="M 1171.6776,202.58096 C 1172.7005,201.73701 1174.5364,201.09661 1175.8612,201.15378 C 1177.4993,201.22446 1179.7882,202.1187 1180.8625,203.35728 C 1182.3526,205.07532 1182.8616,208.3832 1182.9075,210.65695 C 1182.9683,213.67305 1180.5873,220.44134 1180.5873,220.44134 C 1180.5873,220.44134 1178.9611,215.9372 1177.951,214.16091 C 1177.3288,213.06656 1176.5322,211.44028 1175.4563,210.78666 C 1174.1453,209.99026 1171.6004,210.94715 1170.4067,209.98379 C 1169.6334,209.3597 1169.1335,207.88698 1169.2077,206.89604 C 1169.319,205.40861 1170.5271,203.53022 1171.6776,202.58096 z"
           id="path3147"
           sodipodi:nodetypes="cssscsssss" />
      </g>
      <path
         sodipodi:nodetypes="cccccc"
         id="path3245"
         d="M 333.7986,179.19165 L 346.71545,179.0217 L 317.82249,207.40477 L 310.17436,202.81589 L 321.39163,184.12045 L 333.7986,179.19165 z"
         style="fill:#f8de00;fill-opacity:1;fill-rule:evenodd;stroke:none;stroke-width:1px;stroke-linecap:butt;stroke-linejoin:miter;stroke-opacity:1" />
    </g>
    <g
       id="g2674"
       transform="matrix(0.9999189,-1.2733297e-2,1.2733297e-2,0.9999189,213.99522,-2.4650216e-2)">
      <g
         transform="translate(-176.76768,-4.2424243)"
         id="g6176">
        <path
           style="fill:#ff2a2a;fill-opacity:1;fill-rule:evenodd;stroke:#000000;stroke-width:2.5;stroke-linecap:butt;stroke-linejoin:miter;stroke-miterlimit:4;stroke-dasharray:none;stroke-opacity:1"
           d="M 134.43287,106.73789 C 134.43287,106.73789 124.88537,101.01476 120.17727,100.44602 C 116.83138,100.04184 112.22665,100.03865 108.9213,100.64743 C 104.17441,101.52171 97.200259,106.80176 92.405339,107.44368 C 90.147959,107.74589 88.259066,108.02125 86.635751,106.61309 C 83.730477,104.09287 85.923737,99.07968 84.125625,95.86181 C 83.246343,94.288261 81.062291,92.662713 79.301637,91.833633 C 77.121917,90.807215 73.718227,89.963812 71.261666,90.222363 C 69.731687,90.383391 66.667396,92.236451 66.667396,92.236451 C 66.667396,92.236451 70.724339,94.225698 71.721093,95.660402 C 73.907992,98.808169 72.294218,104.4814 74.247941,107.74494 C 75.017954,109.03117 76.854274,110.26697 78.153069,111.16888 C 79.48733,112.09542 81.339958,113.37887 82.977056,113.78719 C 86.622682,114.6965 91.908419,114.49673 95.611299,113.78719 C 100.13011,112.9213 105.10502,107.88179 109.62382,107.0159 C 113.05739,106.35798 117.88001,107.60268 121.33921,108.14775 C 123.87163,108.54679 129.37917,110.76606 129.37917,110.76606 L 134.43287,106.73789 z"
           id="path6066"
           sodipodi:nodetypes="cssssssscssssssscc" />
        <path
           style="fill:#ffffff;fill-rule:evenodd;stroke:#000000;stroke-width:2.5;stroke-linecap:butt;stroke-linejoin:miter;stroke-miterlimit:4;stroke-dasharray:none;stroke-opacity:1"
           d="M 101.32901,87.929025 C 101.78121,86.468636 102.19672,86.950396 103.63785,86.440139 C 105.08929,85.926231 105.06144,85.650321 106.21624,86.668763 C 107.26275,87.591698 107.55351,87.241967 107.71782,88.627602 C 108.14178,92.202789 107.69561,95.787299 106.32772,99.117554 C 105.74687,100.53171 104.15578,102.35641 104.15578,102.35641 C 104.15578,102.35641 102.98993,100.97867 102.45378,99.282672 C 101.32065,95.698207 100.21706,91.520121 101.32901,87.929025 z"
           id="path6139"
           sodipodi:nodetypes="csssscss" />
        <path
           style="opacity:1;fill:#ffffff;fill-rule:evenodd;stroke:#000000;stroke-width:2.5;stroke-linecap:butt;stroke-linejoin:miter;stroke-miterlimit:4;stroke-dasharray:none;stroke-opacity:1"
           d="M 103.2283,115.38629 C 103.18621,116.91451 103.73471,116.59218 104.93482,117.53927 C 106.1435,118.49314 106.0283,118.74539 107.44951,118.153 C 108.73745,117.61616 108.90013,118.04089 109.50183,116.78194 C 111.05433,113.53363 111.78603,109.99635 111.56324,106.40302 C 111.46864,104.87714 110.54978,102.63732 110.54978,102.63732 C 110.54978,102.63732 109.00242,103.56632 107.94875,104.99938 C 105.72186,108.02813 103.3318,111.6284 103.2283,115.38629 z"
           id="path6141"
           sodipodi:nodetypes="csssscss" />
        <g
           style="opacity:1"
           id="g6049"
           transform="translate(-537.30128,8.114194)">
          <path
             sodipodi:nodetypes="cssssssssscsssscssscssscsssssscsssscsssscssssscscsssssssssccccc"
             id="path5995"
             d="M 688.4389,102.204 C 688.4389,102.204 673.8908,117.3264 666.38925,122.15367 C 659.27057,126.73456 647.59341,128.74946 640.48967,133.35349 C 633.31795,138.00158 624.63652,145.7803 619.49001,152.60318 C 615.95537,157.28915 612.91924,164.6528 610.74015,170.1029 C 608.7426,175.09895 608.8751,183.07011 605.49023,187.25262 C 604.13011,188.93325 601.25778,190.12001 599.19034,190.75257 C 594.55434,192.17102 587.39767,189.92686 583.0906,192.15255 C 579.05362,194.23868 574.49945,199.32193 573.29075,203.70236 C 572.61122,206.16504 573.08888,210.11208 574.69073,212.10222 C 576.46341,214.3046 583.44059,215.60217 583.44059,215.60217 C 583.44059,215.60217 580.32758,210.23392 580.99063,207.90229 C 581.5202,206.04005 584.01228,204.17193 585.89055,203.70236 C 588.70795,202.99801 592.4586,205.44304 595.3404,205.80233 C 598.88445,206.24419 603.68131,206.45196 607.24021,206.15232 C 609.90771,205.92773 615.99006,204.40235 615.99006,204.40235 C 615.99006,204.40235 613.33852,212.80827 614.24009,216.30216 C 614.9327,218.98627 614.70967,219.7483 615.64854,222.3565 C 616.53831,224.82829 616.72592,228.58201 615.99854,231.10636 C 614.76477,235.38809 607.59867,243.35616 607.59867,243.35616 C 607.59867,243.35616 618.69797,239.94108 622.29844,236.70627 C 625.37939,233.93822 628.48075,228.86675 629.29832,224.80646 C 630.07216,220.96335 630.51379,216.87581 631.73981,213.15221 C 633.29568,208.42679 643.28962,201.2524 643.28962,201.2524 C 643.28962,201.2524 643.7707,209.91929 644.6896,213.5022 C 645.30962,215.91974 648.41296,218.77306 647.83955,221.20208 C 647.07024,224.46095 644.23709,228.15544 642.75899,231.15998 C 641.27291,234.18073 640.53697,235.72323 641.11063,239.0405 C 641.51941,241.40434 642.66068,244.48432 644.26058,246.27183 C 646.6752,248.96959 648.88857,252.12858 652.38948,253.05156 C 653.60783,253.37277 656.58941,253.05156 656.58941,253.05156 C 656.58941,253.05156 654.81329,247.56942 653.52414,244.40332 C 652.81031,242.65019 653.07375,239.81876 653.87413,238.10342 C 654.84783,236.01661 660.8025,229.70453 662.88931,227.15198 C 665.0294,224.53424 666.93877,220.27465 667.78923,217.00215 C 668.68872,213.54101 668.48922,205.10234 668.48922,205.10234 C 668.48922,205.10234 668.21667,211.54967 669.92306,214.56348 C 670.94731,216.3725 675.0447,219.46656 676.18909,221.20208 C 677.12289,222.61822 678.45317,224.76365 678.28906,226.45199 C 678.08337,228.56807 675.5383,230.58203 674.43912,232.4019 C 673.44259,234.05182 671.28917,238.00181 671.28917,238.00181 C 671.28917,238.00181 680.69223,233.64034 683.88897,230.65192 C 686.76095,227.9671 690.57742,223.67754 691.23885,219.8021 C 691.58591,217.76862 690.1226,215.11535 689.48888,213.15221 C 689.03961,211.76047 688.16688,210.00072 687.73891,208.60228 C 687.32896,207.26275 686.2609,205.38621 686.68892,204.05235 C 687.41626,201.78571 692.63883,198.80244 692.63883,198.80244 C 692.63883,198.80244 691.35972,203.20005 691.58885,205.10234 C 691.97135,208.27796 695.78878,214.90218 695.78878,214.90218 C 695.78878,214.90218 696.22957,208.92856 697.88874,207.2023 C 700.78818,204.18562 707.53123,205.03494 711.18853,203.00237 C 715.41925,200.65112 720.45962,196.3176 723.43833,192.50254 C 726.76157,188.24622 729.98727,181.59003 731.4882,176.4028 C 732.36809,173.36188 731.06483,168.70487 732.53818,165.90297 C 734.20256,162.73778 739.59806,161.14028 741.63804,158.20309 C 743.22951,155.91167 743.02865,151.61843 744.78799,149.45323 C 746.80941,146.96549 752.50111,146.74329 753.88784,143.85332 C 755.35272,140.80049 753.48409,135.88973 752.48786,132.65351 C 750.99575,127.80644 744.78799,117.60375 744.78799,117.60375 L 743.03802,94.854115 L 731.4882,81.204335 L 682.139,94.854115 L 688.4389,102.204 z"
             style="opacity:1;fill:#f8de00;fill-opacity:1;fill-rule:evenodd;stroke:#000000;stroke-width:3;stroke-linecap:butt;stroke-linejoin:miter;stroke-miterlimit:4;stroke-dasharray:none;stroke-opacity:1" />
          <path
             sodipodi:nodetypes="csscscscssscssssssssscssssssscscssscsssssssscccscscsscscscsscssssscssssscsscsc"
             id="path5193"
             d="M 729.60318,47.735499 C 729.60318,47.735499 732.24825,44.269376 733.04677,41.322563 C 733.53356,39.526117 733.18283,34.258858 732.87163,31.642389 C 732.58006,29.191036 731.75403,28.225806 731.75403,28.225806 C 731.75403,28.225806 731.26886,31.223122 730.57986,32.770179 C 729.42117,35.371868 724.69758,40.221774 724.69758,40.221774 C 724.69758,40.221774 725.50524,36.775678 725.40323,35.282258 C 725.08815,30.669549 721.16935,20.46371 721.16935,20.46371 C 721.16935,20.46371 719.41438,30.458301 716.93548,33.870968 C 714.79501,36.817726 711.95439,35.852058 708.51279,37.043843 C 699.90181,40.025721 684.22043,37.753376 674.38912,41.700717 C 670.3392,43.326792 662.02526,49.084862 662.02526,49.084862 C 662.02526,49.084862 651.67677,52.636266 645.92038,51.588613 C 643.80577,51.203757 641.33659,49.273281 639.22525,49.675719 C 635.48312,50.389002 632.47141,50.314048 629.34196,51.269797 C 625.40434,52.472365 625.18829,60.748331 626.47262,64.660051 C 626.90292,65.970626 628.67863,67.150147 629.02315,68.485839 C 629.59845,70.716268 627.70196,73.937746 628.38552,76.137413 C 629.19232,78.733675 631.66736,81.987112 634.1242,83.151355 C 637.49502,84.748715 642.70602,83.391005 646.23919,82.194908 C 650.11679,80.882211 654.31442,81.229401 656.44129,77.73149 C 657.29909,76.320727 659.94826,71.036363 659.94826,71.036363 C 659.94826,71.036363 666.15995,75.52935 667.59983,79.325568 C 668.85531,82.635615 668.78452,87.916731 667.28102,91.121745 C 665.0647,95.84628 659.07408,100.70967 654.20958,102.59911 C 649.84005,104.2963 642.88295,101.04086 638.58762,102.91792 C 635.1786,104.40767 631.80126,105.76737 630.61723,109.29424 C 629.85077,111.57729 629.37363,116.38841 630.93604,118.22107 C 632.743,120.34058 636.55699,118.35975 637.94999,120.77159 C 638.73892,122.13754 638.58762,127.46672 638.58762,127.46672 C 638.58762,127.46672 644.77572,123.44772 646.23919,120.77159 C 647.16727,119.07448 647.19564,114.39528 647.19564,114.39528 C 647.19564,114.39528 662.36525,115.41571 668.8751,115.35173 C 673.37933,115.30746 681.1044,116.40695 685.13469,114.39528 C 688.2906,112.82005 690.79276,108.92175 691.511,105.46845 C 691.7759,104.1948 690.23574,101.32384 690.23574,101.32384 C 690.23574,101.32384 692.55274,99.89701 693.74272,101.00502 C 696.69016,103.74944 697.79814,107.1808 697.88731,111.20713 C 698.04408,118.28568 697.15769,128.75086 694.06153,135.11829 C 692.24519,138.85369 688.99499,143.75995 685.42525,147.28986 C 683.9747,148.72422 682.47139,149.93132 680.99009,150.74026 C 677.37955,152.71197 671.40758,152.70518 667.91865,154.88486 C 665.56629,156.35448 662.84168,159.12946 661.54234,161.57999 C 660.48776,163.56891 659.8032,166.66622 659.94826,168.91275 C 660.1315,171.75056 663.13642,177.83958 663.13642,177.83958 L 665.6008,170.56846 L 678.13094,164.55399 C 678.13094,164.55399 694.66931,160.86719 700.68518,157.03591 C 707.32387,152.80798 707.4836,150.40644 707.4836,150.40644 C 707.4836,150.40644 706.00382,159.47115 698.17915,166.55882 C 695.73253,168.77499 688.65625,172.07208 688.65625,172.07208 C 688.65625,172.07208 702.13338,171.08946 707.20085,168.56364 C 713.2025,165.57219 719.84121,158.98302 723.74063,153.52747 C 727.26523,148.59632 732.75345,131.75389 732.75345,131.75389 C 732.75345,131.75389 728.47675,115.96083 725.24425,108.41899 C 723.48606,104.31692 717.22496,95.888851 717.22496,95.888851 C 717.22496,95.888851 723.33249,104.56779 725.22814,108.67765 C 729.42713,117.78126 735.26835,140.55149 735.26835,140.55149 C 735.26835,140.55149 740.04931,125.94866 740.78161,119.44551 C 741.32029,114.66182 741.53579,108.05428 740.28041,103.40693 C 739.21015,99.444866 733.76474,91.378002 733.76474,91.378002 C 733.76474,91.378002 738.90131,99.790013 740.22505,103.76723 C 741.7301,108.28919 740.1751,115.45877 742.78644,119.44551 C 745.82585,124.0858 752.77702,129.4105 758.3238,129.46961 C 760.61884,129.49407 763.34543,127.20228 764.83947,125.45997 C 766.85727,123.10685 769.20523,119.01633 768.84912,115.93707 C 768.61417,113.90547 764.83947,110.42381 764.83947,110.42381 C 764.83947,110.42381 762.99203,115.28375 761.67523,116.75933 C 760.53375,118.03845 758.34092,117.54288 756.88258,116.64157 C 755.5782,115.83542 755.76176,111.88264 755.51987,110.36845 C 754.32538,102.89124 758.90482,94.082934 756.29583,88.010465 C 755.40749,85.942815 752.49435,80.42972 749.91596,78.778481 C 748.22899,77.698129 741.78403,74.838223 741.78403,74.838223 C 741.78403,74.838223 746.07556,72.080751 747.29728,70.327374 C 749.93417,66.542993 751.54705,60.341442 752.30934,55.792417 C 752.85604,52.52995 752.30934,44.765898 752.30934,44.765898 C 752.30934,44.765898 742.09446,45.104104 737.77438,45.768309 C 735.28226,46.151468 729.60318,47.735499 729.60318,47.735499 z"
             style="opacity:1;fill:#f8de00;fill-opacity:1;fill-rule:evenodd;stroke:#000000;stroke-width:3;stroke-linecap:butt;stroke-linejoin:miter;stroke-miterlimit:4;stroke-dasharray:none;stroke-opacity:1" />
          <g
             transform="translate(149.02369,7.1978252)"
             id="g5187"
             style="opacity:1">
            <path
               sodipodi:type="arc"
               style="fill:#ffffff;fill-opacity:1;fill-rule:evenodd;stroke:#000000;stroke-width:2.5;stroke-linecap:butt;stroke-linejoin:miter;marker:none;marker-start:none;marker-mid:none;marker-end:none;stroke-miterlimit:4;stroke-dasharray:none;stroke-dashoffset:0;stroke-opacity:1;visibility:visible;display:inline;overflow:visible;enable-background:accumulate"
               id="path3163"
               sodipodi:cx="136.84087"
               sodipodi:cy="142.89806"
               sodipodi:rx="12.504578"
               sodipodi:ry="7.3608503"
               d="M 149.34544,142.89806 A 12.504578,7.3608503 0 1 1 124.33629,142.89806 A 12.504578,7.3608503 0 1 1 149.34544,142.89806 z"
               transform="matrix(-0.9158702,-0.4014745,-0.4014745,0.9158702,719.27797,-20.238666)" />
            <path
               sodipodi:type="arc"
               style="fill:#ffffff;fill-opacity:1;fill-rule:evenodd;stroke:#000000;stroke-width:2.5;stroke-linecap:butt;stroke-linejoin:miter;marker:none;marker-start:none;marker-mid:none;marker-end:none;stroke-miterlimit:4;stroke-dasharray:none;stroke-dashoffset:0;stroke-opacity:1;visibility:visible;display:inline;overflow:visible;enable-background:accumulate"
               id="path3179"
               sodipodi:cx="141.94682"
               sodipodi:cy="141.35471"
               sodipodi:rx="8.0072575"
               sodipodi:ry="8.0072575"
               d="M 149.95408,141.35471 A 8.0072575,8.0072575 0 1 1 133.93957,141.35471 A 8.0072575,8.0072575 0 1 1 149.95408,141.35471 z"
               transform="translate(391.31753,-88.325583)" />
            <path
               style="fill:#000000;fill-opacity:1;fill-rule:evenodd;stroke:none;stroke-width:3.5;stroke-linecap:butt;stroke-linejoin:miter;stroke-miterlimit:4;stroke-dasharray:none;stroke-opacity:1"
               d="M 533.92275,46.139841 C 533.31906,46.138131 532.77751,46.232281 532.23525,46.296091 C 531.15073,46.423711 530.23525,46.608591 530.23525,46.608591 L 531.0165,50.014841 C 531.0165,50.014841 531.76269,49.868251 532.6415,49.764841 C 533.52031,49.661431 534.62239,49.809301 534.454,49.733591 C 534.37759,49.699231 535.08646,50.492851 535.1415,50.671091 C 535.31812,51.243091 535.21539,53.377731 534.92867,53.956641 C 534.82818,54.159541 534.01078,54.877491 533.95992,54.894141 C 534.22007,54.808951 533.35632,54.883991 532.70992,54.769141 C 532.06353,54.654291 531.52242,54.519141 531.52242,54.519141 C 531.52242,54.519141 529.75144,54.308521 529.5004,54.887361 C 529.16761,55.654701 530.5165,57.483591 530.5165,57.483591 C 530.5165,57.483591 531.21311,57.647801 532.04775,57.796091 C 532.88239,57.944381 533.73386,58.205891 534.98525,57.796091 C 536.47701,57.307571 537.39657,56.360291 538.0165,55.108591 C 538.84857,53.428551 539.05237,51.476461 538.48525,49.639841 C 538.08242,48.335281 537.38331,47.216851 535.8915,46.546091 C 535.18438,46.228151 534.52644,46.141551 533.92275,46.139841 z"
               id="path3183"
               sodipodi:nodetypes="csccsssssscscsssssc" />
            <path
               style="fill:#f8de00;fill-opacity:1;fill-rule:evenodd;stroke:#000000;stroke-width:2.5;stroke-linecap:butt;stroke-linejoin:miter;stroke-miterlimit:4;stroke-dasharray:none;stroke-opacity:1"
               d="M 532.47164,40.771801 C 532.47164,40.771801 529.7101,41.202371 528.56951,41.658651 C 526.32936,42.554801 524.06991,44.584411 523.78052,46.979741 C 523.62922,48.232081 524.11404,49.296811 525.02211,50.172401 C 525.99869,51.114051 527.56902,50.997911 528.92425,51.059251 C 530.90892,51.149091 533.37186,49.586261 535.30956,49.817661 C 538.09936,50.150821 541.71683,51.860581 543.82332,53.719801 C 544.80864,54.589461 545.02696,56.728741 546.12912,57.444571 C 547.11996,58.088101 548.97587,58.507761 550.03126,57.976681 C 551.1162,57.430731 551.68017,55.605661 551.98233,54.429281 C 552.12795,53.862361 552.14727,53.039811 551.98233,52.478211 C 551.73277,51.628491 550.99851,50.634671 550.386,49.995031 C 549.6202,49.195311 547.37071,47.866591 547.37071,47.866591"
               id="path3167"
               sodipodi:nodetypes="csssssssssssc" />
          </g>
          <path
             sodipodi:nodetypes="csssc"
             id="path6013"
             d="M 631.00411,65.781399 C 631.00411,65.781399 635.53134,59.267881 637.76028,58.344623 C 639.98922,57.421365 640.82474,57.55126 641.26446,58.344623 C 641.70418,59.137986 641.56838,60.389031 639.91669,62.02259 C 638.265,63.656149 631.00411,65.781399 631.00411,65.781399 z"
             style="opacity:1;fill:none;fill-rule:evenodd;stroke:#000000;stroke-width:2.5;stroke-linecap:butt;stroke-linejoin:miter;stroke-miterlimit:4;stroke-dasharray:none;stroke-opacity:1" />
          <path
             sodipodi:nodetypes="cscssscsc"
             id="path6022"
             d="M 729.18784,59.26477 C 729.18784,59.26477 731.91427,54.879424 733.76034,53.803164 C 736.67227,52.105508 744.81057,51.770939 744.81057,51.770939 C 744.81057,51.770939 746.19035,58.845105 744.30251,60.788939 C 743.36995,61.749157 740.80409,60.224076 739.85702,61.169981 C 738.61216,62.413303 740.60685,65.782495 739.34896,67.012629 C 738.50268,67.840231 735.41153,67.266657 735.41153,67.266657 C 735.41153,67.266657 735.46636,62.260708 734.14138,60.788939 C 733.10109,59.633403 729.18784,59.26477 729.18784,59.26477 z"
             style="opacity:1;fill:#000000;fill-rule:evenodd;stroke:#000000;stroke-width:2.5;stroke-linecap:butt;stroke-linejoin:miter;stroke-miterlimit:4;stroke-dasharray:none;stroke-opacity:1" />
          <path
             sodipodi:nodetypes="cssccsssc"
             id="path6018"
             d="M 721.78715,61.84739 C 721.78715,61.84739 716.30988,72.901406 712.6506,76.606426 C 710.71883,78.562341 707.54322,80.704897 704.91968,81.526104 C 699.88525,83.101956 686.7598,83.997718 686.7598,83.997718 L 685.94378,85.040161 C 685.94378,85.040161 700.69876,81.220282 704.91968,85.040161 C 706.49078,86.461988 706.49702,90.138212 705.62249,92.068273 C 704.87392,93.720335 702.84625,96.022524 701.29241,96.958064 C 698.869,98.417156 692.46561,100.19226 692.46561,100.19226"
             style="opacity:1;fill:none;fill-rule:evenodd;stroke:#000000;stroke-width:2.5;stroke-linecap:butt;stroke-linejoin:miter;stroke-miterlimit:4;stroke-dasharray:none;stroke-opacity:1" />
          <path
             sodipodi:nodetypes="csss"
             id="path6020"
             d="M 717.57028,118.07229 C 717.57028,118.07229 718.39379,126.53163 717.57028,130.02008 C 716.27045,135.52626 713.83908,140.28667 710.99942,145.17992 C 709.85472,147.15245 706.78255,151.50522 706.78255,151.50522"
             style="opacity:1;fill:none;fill-rule:evenodd;stroke:#000000;stroke-width:2.5;stroke-linecap:butt;stroke-linejoin:miter;stroke-miterlimit:4;stroke-dasharray:none;stroke-opacity:1" />
          <path
             sodipodi:nodetypes="css"
             id="path6039"
             d="M 629.01606,189.75904 C 629.01606,189.75904 622.68178,194.0192 620.38193,196.56699 C 618.68071,198.45162 615.66265,204.51807 615.66265,204.51807"
             style="fill:none;fill-rule:evenodd;stroke:#000000;stroke-width:2.5;stroke-linecap:butt;stroke-linejoin:miter;stroke-miterlimit:4;stroke-dasharray:none;stroke-opacity:1" />
          <path
             sodipodi:nodetypes="cssc"
             id="path6041"
             d="M 694.37751,179.21687 C 694.37751,179.21687 682.14701,183.09808 677.08243,186.54981 C 674.73845,188.14734 672.62873,191.5314 671.41337,194.09445 C 669.51414,198.0997 668.37349,205.54265 668.37349,205.54265"
             style="fill:none;fill-rule:evenodd;stroke:#000000;stroke-width:2.5;stroke-linecap:butt;stroke-linejoin:miter;stroke-miterlimit:4;stroke-dasharray:none;stroke-opacity:1" />
          <path
             sodipodi:nodetypes="csss"
             id="path6043"
             d="M 693.01423,198.29015 C 693.01423,198.29015 699.96033,191.46178 702.81124,189.05622 C 706.6551,185.81282 714.04467,184.08221 716.86747,179.91968 C 718.6777,177.25031 718.9759,169.37751 718.9759,169.37751"
             style="fill:none;fill-rule:evenodd;stroke:#000000;stroke-width:2.5;stroke-linecap:butt;stroke-linejoin:miter;stroke-miterlimit:4;stroke-dasharray:none;stroke-opacity:1" />
          <path
             sodipodi:nodetypes="cssss"
             id="path6037"
             d="M 627.61044,153.91566 C 627.61044,153.91566 627.06848,163.52816 625.50201,167.26908 C 623.17286,172.83138 618.17043,179.55369 613.55422,183.43373 C 611.02788,185.55718 603.71486,188.35341 603.71486,188.35341 C 603.71486,188.35341 603.71486,188.35341 603.71486,188.35341"
             style="opacity:1;fill:none;fill-rule:evenodd;stroke:#000000;stroke-width:2.5;stroke-linecap:butt;stroke-linejoin:miter;stroke-miterlimit:4;stroke-dasharray:none;stroke-opacity:1" />
        </g>
      </g>
      <path
         sodipodi:nodetypes="css"
         id="path6197"
         d="M -71.217589,207.30666 C -71.217589,207.30666 -68.994759,198.3666 -67.133379,194.66594 C -65.920099,192.25377 -61.510889,187.63783 -61.510889,187.63783"
         style="opacity:1;fill:none;fill-rule:evenodd;stroke:#000000;stroke-width:2.5;stroke-linecap:butt;stroke-linejoin:miter;stroke-miterlimit:4;stroke-dasharray:none;stroke-opacity:1" />
    </g>
  </g>
</svg>
