<svg xmlns="http://www.w3.org/2000/svg" version="1.0" height="420" width="380"><g opacity="1"><g stroke="#000" stroke-linecap="butt" stroke-linejoin="miter" stroke-miterlimit="4" stroke-dasharray="none" stroke-opacity="1"><g fill="#214263" fill-opacity="1" fill-rule="evenodd" stroke-width="3.335"><path d="M161.91 155.544s42.361 28.714 57.93 44.01c8.634 8.482 17.814 21.926 24.97 31.687 6.61 9.017 16 20.793 20.975 30.807 3.346 6.736 4.2 17.268 7.99 23.765 4.293 7.359 12.09 15.11 14.76 22.812 2.25 6.488 2.38 13.387 2.598 21.361.11 4.062 1.493 9.653.62 13.04-1.594 6.187-6.338 14.617-11.985 17.604-2.12 1.12-7.99 0-7.99 0l-1 4.401-101.114 5.933-15.074-13.717 1.3-12.29 12.35-2.52s-7.29.097 12.685 4.498c19.976 4.401 30.668.613 30.668.613s-12.304-9.09-16.69-14.923c-5.164-6.868-7.827-18.64-9.23-27.118-.95-5.731-.668-13.594 0-19.365.634-5.489 1.365-13.191 4.203-17.933 2.667-4.455 8.128-9.608 12.985-11.442 2.522-.953 6.598-1.78 9.264-1.378 6.201.935 19.7 7.539 19.7 7.539s-17.166-8.853-24.97-7.922c-5.565.664-11.96 6.419-11.96 6.419s-15.854-12.275-26.272-16.795c-4.114-1.785-18.003-2.018-18.003-2.018s5.356 8.098 8.989 9.682c1.648.719 5.993 0 5.993 0s-7.547 3.903-10.987 3.521c-2.412-.268-6.451-3.609-9.093-5.52-1.898-1.371-2.893-1.522-2.893-1.522s6.37 9.87 10.455 12.595c2.58 1.721 9.878 3.04 9.878 3.04s-8.321 4.572-12.158 4.18c-1.709-.175-5.766-3.333-7.833-4.75-2.24-1.534-2.426-1.33-2.426-1.33s5.544 6.058 7.22 9.119c1.678 3.067 2.924 7.395 2.924 7.395s-3.075-1.57-5.584-2.456c-1.402-.494-4.94.38-4.94.38s2.695 3.689 4.18 4.94c1.72 1.448 6.459 3.799 6.459 3.799-10.712-29.46-11.938-17.917-6.84 2.28.42 1.66-5.698-.38-5.698-.38s1.476 4.23 2.66 5.699c1.887 2.343 7.978 6.079 7.978 6.079s-7.24 1.827-10.258 1.14c-3.146-.717-8.37-7.824-8.37-7.824l-1.129-.155s3.526 7.994 6.08 10.638c1.955 2.026 7.978 4.94 7.978 4.94s-5.314.926-7.599.76c-1.406-.103-4.56-1.14-4.56-1.14s2.504 2.841 3.8 3.8c1.764 1.302 6.46 3.419 6.46 3.419s-5.329 3.757-7.98 3.799c-1.99.032-6.079-2.66-6.079-2.66s.275 1.574 1.564 3.418c1.092 1.562 3.124 3.354 4.136 4.181 2.051 1.68 7.978 3.8 7.978 3.8s-8.834 2.767-12.538 1.9c-1.354-.318-3.8-2.66-3.8-2.66 1.726 5.422 4.18 9.878 4.18 9.878l-5.699 3.8 4.508 23.037-29.723 12.113-12.538-1.14-3.712-2.615-10.457 1.235-8.16-1.615-.38-4.179-4.18 3.42-7.219-4.94s1.86-7.365 3.8-9.878c3.345-4.331 9.688-8.731 14.818-10.639 7.186-2.672 25.456-2.28 25.456-2.28l-1.52-47.492 3.8-16.718.76-46.733-.76-54.712 64.35-21.717z"/><path d="M176.334 151.301s44.907 38.048 60.476 53.343c8.633 8.482 17.814 21.926 24.97 31.688 6.61 9.017 16 20.793 20.974 30.807 3.347 6.736 4.2 17.268 7.99 23.765 4.293 7.358 12.09 15.11 14.76 22.812 2.25 6.488 2.38 13.386 2.598 21.361.111 4.062 1.494 9.653.62 13.04-1.594 6.187-6.337 14.617-11.985 17.604-2.119 1.12-7.99 0-7.99 0s4.374 4.638 3.666 6.862c-.521 1.637-5.121 2.562-5.121 2.562l-106.415 5.54-12.919 2.767-17.044-18.611 2.996-11.443 16.98-3.52s-9.988 0 9.987 4.4c19.976 4.401 50.939-2.64 50.939-2.64s-15.558-8.09-19.943-13.922c-5.165-6.869-7.827-18.64-9.231-27.118-.949-5.732-.667-13.594 0-19.365.635-5.489 1.366-13.192 4.204-17.933 2.667-4.455 8.127-9.608 12.984-11.443 2.523-.953 6.598-1.779 9.265-1.377 6.201.935 19.7 7.539 19.7 7.539s-17.166-8.853-24.97-7.922c-5.565.664-15.98 9.682-15.98 9.682s-9.067-6.335-19.485-10.856c-4.113-1.784-13.983-5.28-13.983-5.28s5.356 8.097 8.99 9.681c1.647.72 5.992 0 5.992 0s-7.547 3.903-10.987 3.521c-2.412-.267-6.45-3.608-9.093-5.519-1.897-1.372-2.892-1.522-2.892-1.522s6.37 9.87 10.454 12.595c2.58 1.72 9.879 3.04 9.879 3.04s-8.322 4.571-12.158 4.179c-1.71-.175-5.766-3.333-7.834-4.75-2.239-1.534-2.425-1.33-2.425-1.33s5.544 6.059 7.219 9.12c1.679 3.066 2.925 7.394 2.925 7.394s-3.075-1.57-5.585-2.455c-1.401-.495-4.939.38-4.939.38s2.695 3.688 4.18 4.939c1.719 1.448 6.459 3.8 6.459 3.8s-4.694 2.004-6.84 2.279c-1.7.218-5.699-.38-5.699-.38s1.476 4.23 2.66 5.699c1.888 2.343 7.979 6.08 7.979 6.08s-7.24 1.827-10.259 1.139c-3.145-.717-8.369-7.823-8.369-7.823l-1.13-.156s3.527 7.994 6.08 10.639c1.955 2.025 7.979 4.939 7.979 4.939s-5.314.926-7.6.76c-1.405-.103-4.559-1.14-4.559-1.14s2.503 2.842 3.8 3.8c1.763 1.302 6.459 3.419 6.459 3.419s-5.328 3.757-7.979 3.8c-1.99.031-6.079-2.66-6.079-2.66s.274 1.573 1.564 3.417c1.092 1.562 3.124 3.354 4.135 4.182 2.052 1.679 7.979 3.799 7.979 3.799s-8.834 2.768-12.538 1.9c-1.355-.318-3.8-2.66-3.8-2.66 1.726 5.422 4.18 9.879 4.18 9.879l-5.7 3.8-2.28 17.097-31.534 17.097-12.539-1.14-1.9-7.599-5.698 4.18-12.919-4.56-.38-4.179-4.179 3.42-7.219-4.94s1.859-7.365 3.8-9.878c3.345-4.331 9.688-8.731 14.817-10.639 7.187-2.672 25.457-2.28 25.457-2.28l-1.52-47.492 3.8-16.718.76-46.733-3.306-64.045 64.35-21.718z" opacity="1"/></g><path d="M186.509 367.426l-10.821.733s-4.318-2.448-6.236-2.017c-2.507.563-5.168 3.532-6.236 5.869-.55 1.202-1.1 4.585-1.1 4.585M156.246 369.26s1.778-6.822 3.669-8.62c1.376-1.31 3.968-2.352 5.869-2.385 1.758-.03 5.502 2.018 5.502 2.018h11.188M62.512 367.416s2.633-7.87 4.757-10.649c1.174-1.535 4.985-4.078 4.985-4.078M79.504 371.947s2.084-6.704 4.078-8.836c2.327-2.488 15.86-6.117 15.86-6.117M98.308 378.97s3.517-11.48 7.477-14.953c1.463-1.283 14.5-4.078 14.5-4.078" fill="none" stroke-width="2.5"/><path d="M51.863 363.79c.91-.761 2.928-.294 4.078 0 .886.228 1.843 1.229 2.266 2.04.507.971.857 2.606.453 3.625-.943 2.378-6.368 4.16-7.703 6.343a1122.52 1122.52 0 01-3.398 5.438s-1.752-6.064-1.586-8.383c.158-2.217 4.185-7.637 5.89-9.062z" fill="#848401" fill-rule="evenodd" stroke-width="2.5"/><path d="M103.643 378.356c.91-.762 2.928-.295 4.078 0 .886.227 1.842 1.228 2.265 2.039.508.972.858 2.606.454 3.625-.944 2.378-6.368 4.161-7.704 6.344-.654 1.069-3.398 5.437-3.398 5.437s-1.752-6.064-1.586-8.383c.158-2.216 4.186-7.636 5.89-9.062zM84.158 374.278c.91-.762 2.929-.295 4.078 0 .886.227 1.843 1.228 2.266 2.039.507.971.857 2.606.453 3.625-.943 2.378-6.368 4.161-7.703 6.344-.654 1.069-3.398 5.437-3.398 5.437s-1.752-6.064-1.586-8.383c.158-2.216 4.186-7.637 5.89-9.062zM71.018 367.934c.91-.761 2.928-.295 4.078 0 .886.227 1.842 1.229 2.265 2.04.508.97.858 2.605.454 3.624-.944 2.378-6.368 4.161-7.703 6.344-.655 1.069-3.399 5.437-3.399 5.437s-1.752-6.063-1.586-8.382c.159-2.217 4.186-7.637 5.89-9.063zM148.728 361.364c.911-.762 2.929-.295 4.079 0 .885.227 1.842 1.228 2.265 2.039.507.971.857 2.606.453 3.625-.943 2.378-6.368 4.161-7.703 6.344-.654 1.069-3.398 5.437-3.398 5.437s-1.752-6.064-1.586-8.383c.158-2.216 4.186-7.637 5.89-9.062zM154.619 369.067c.91-.762 2.928-.295 4.078 0 .886.227 1.843 1.228 2.266 2.039.507.971.857 2.606.453 3.625-.943 2.378-6.368 4.161-7.703 6.344-.654 1.069-3.399 5.437-3.399 5.437s-1.751-6.064-1.586-8.383c.159-2.216 4.186-7.636 5.891-9.062zM161.416 376.543c.91-.761 2.928-.294 4.078 0 .886.227 1.842 1.229 2.266 2.04.507.971.857 2.606.453 3.624-.943 2.379-6.368 4.162-7.703 6.344-.654 1.07-3.399 5.438-3.399 5.438s-1.751-6.064-1.586-8.383c.159-2.217 4.186-7.637 5.89-9.063z" opacity="1" fill="#848401" fill-rule="evenodd" stroke-width="2.5"/><path d="M285.903 364.043s.993-4.317 1.044-6.638c.099-4.407 3.632-9.776 3.853-14.179.057-1.123-.616-3.698-.616-3.698" fill="none" stroke-width="2.5"/></g><g stroke="#000" stroke-linecap="butt" stroke-linejoin="miter" stroke-miterlimit="4" stroke-dasharray="none" stroke-opacity="1"><path d="M219.198 261.34s-1.185-9.684.525-14.761c1.73-5.136 6.997-10.565 10.5-14.7 4.32-5.098 10.04-12.278 15.75-15.75 5.788-3.519 14.768-7.31 21.524-6.824 5.41.389 12.892 3.635 16.275 7.874 1.31 1.643 1.869 4.745 1.575 6.825-.226 1.606-1.275 3.827-2.625 4.725-1.187.79-3.54 1.32-4.725.525-1.904-1.277-2.1-7.35-2.1-7.35s-4.205 5.198-4.2 7.875c.005 2.326 1.609 5.759 3.675 6.825 3.386 1.746 10.71 1.583 14.175 0 3.855-1.761 7.2-7.153 8.925-11.025 1.345-3.021 1.17-7.93 0-11.025-1.263-3.34-4.943-6.886-7.875-8.924-1.801-1.253-6.825-2.625-6.825-2.625s7.755-1.693 11.025-2.625c3.832-1.093 9.492-1.707 12.6-4.2 2.149-1.724 4.283-5.156 4.725-7.875.465-2.867.065-7.515-2.1-9.45-3.307-2.956-10.808-3.702-14.7-1.575-1.545.845-2.625 5.25-2.625 5.25s5.108-1.116 6.825 0c1.3.845 2.49 3.224 2.1 4.725-.397 1.524-2.673 2.764-4.2 3.15-3.088.78-7.32-1.748-10.5-1.575-3.09.168-9.975 2.625-9.975 2.625s8.29-8.387 11.025-12.6c2.455-3.783 4.492-9.518 6.3-13.65 1.981-4.528 3.728-11.004 6.3-15.225 1.396-2.29 3.29-5.813 5.775-6.824 3.077-1.254 8.52-1.134 11.025 1.05 2.072 1.808 2.275 6.18 2.1 8.924-.086 1.343-.502 3.389-1.575 4.2-1.513 1.144-6.3.525-6.3.525s1.227 3.903 2.625 4.725c2.036 1.198 5.738 1.009 7.874 0 3.137-1.48 5.695-5.876 7.35-8.925 1.498-2.757 3.398-6.846 3.15-9.974-.388-4.916-4.19-10.915-7.35-14.7-1.513-1.814-4.074-3.933-6.3-4.725-3.712-1.32-9.343-1.634-13.124-.525-1.845.541-5.25 3.675-5.25 3.675s1.667-10.688 1.05-15.225c-.383-2.813-2.732-6.116-3.15-8.925-1.069-7.172-1.469-17.35 1.05-24.15 1.948-5.259 6.351-12.595 11.55-14.7 3.241-1.311 8.706-.46 11.55 1.576 1.718 1.23 3.15 4.187 3.15 6.3 0 1.76-1.352 4.033-2.626 5.25-1.121 1.071-3.241 2.554-4.724 2.1-1.421-.435-2.625-4.2-2.625-4.2s-3.472 4.593-3.15 6.825c.478 3.314 4.046 7.852 7.35 8.4 4.663.773 10.63-4.237 13.65-7.875 3.944-4.754 7.595-13.297 6.824-19.425-.567-4.508-4.506-10.26-8.4-12.6-5.426-3.262-10.46-5.808-16.782-5.473-3.856.204-10.615 3.757-13.759 5.998-1.252.893-4.339 3.657-5.683 4.403-2.754 1.53-5.004-.35-7.926.827-2.066.832-8.185 8.414-8.796 10.103-3.268 9.04-3.753 30.866-3.753 30.866s-10.45-9.502-12.202-13.516c-.766-1.756-.348-4.571.48-6.3.865-1.805 5.817-2.18 5.817-2.18s-3.241-3.583-5.358-4.336c-1.89-.672-4.932 0-6.586 1.133-2.274 1.556-3.774 5.29-4.725 7.875-1.324 3.596-1.008 8.832-.016 12.533.898 3.35 3.088 6.291 5.266 8.991 2.393 2.968 5.34 7.126 7.874 9.975 1.777 1.997 4.281 4.549 6.3 6.3 1.785 1.548 6.3 4.725 6.3 4.725s-11.08-2.434-15.75-1.575c-3.81.701-9.182 2.708-11.55 5.775-1.868 2.42-2.879 7.018-2.1 9.975.91 3.452 4.55 7.625 7.876 8.925 4.277 1.67 15.224-1.575 15.224-1.575s-5.35-3.42-7.35-5.25c-1.07-.98-3.285-2.23-3.15-3.675.19-2.008 3.234-4.15 5.25-4.2 3.496-.086 7.342 4.035 9.45 6.825 2.223 2.941 3.481 6.41 3.474 10.096-.007 3.19-1.614 8.532-2.949 11.428-1.888 4.099-4.686 9.482-7.35 13.125-3.945 5.397-10.547 11.498-15.224 16.275-6.312 6.446-15.107 14.66-21.525 21-5.546 5.478-13.531 12.266-18.375 18.374-3.34 4.212-7.336 10.282-9.45 15.225-1.982 4.636-3.446 11.289-4.2 16.275a27.337 27.337 0 00.248 9.673c.795 3.936 3.458 9.372 3.458 9.372" fill="#214263" fill-opacity="1" fill-rule="evenodd" stroke-width="3"/><path d="M296.41 55.878s-4.487 5.672-6.116 8.302c-1.436 2.317-3.416 5.458-4.151 8.083-.496 1.772-.437 6.117-.437 6.117M274.783 97.168s5.038 5.772 6.335 8.739c.804 1.837 1.311 6.554 1.311 6.554" fill="none" stroke-width="2.5"/></g><path d="M138.169 102.609s-9.548-5.723-14.256-6.292c-3.346-.404-7.95-.407-11.256.201-4.747.875-11.72 6.155-16.516 6.797-2.257.302-4.146.577-5.77-.831-2.905-2.52-.711-7.533-2.51-10.751-.879-1.574-3.063-3.2-4.823-4.028-2.18-1.027-5.584-1.87-8.04-1.612-1.53.161-4.595 2.014-4.595 2.014s4.057 1.99 5.054 3.424c2.187 3.148.573 8.821 2.527 12.085.77 1.286 2.606 2.522 3.905 3.424 1.334.926 3.187 2.21 4.824 2.618 3.646.91 8.931.71 12.634 0 4.519-.866 9.494-5.905 14.013-6.771 3.433-.658 8.256.587 11.715 1.132 2.533.399 8.04 2.618 8.04 2.618l5.054-4.028z" fill="#840101" fill-opacity="1" fill-rule="evenodd" stroke="#000" stroke-width="2.5" stroke-linecap="butt" stroke-linejoin="miter" stroke-miterlimit="4" stroke-dasharray="none" stroke-opacity="1"/><path d="M105.065 83.8c.452-1.46.868-.979 2.309-1.489 1.451-.514 1.423-.79 2.578.229 1.047.923 1.337.573 1.502 1.959.424 3.575-.023 7.16-1.39 10.49-.581 1.414-2.172 3.238-2.172 3.238s-1.166-1.377-1.702-3.073c-1.133-3.585-2.237-7.763-1.125-11.354z" fill="#848484" fill-rule="evenodd" stroke="#000" stroke-width="2.5" stroke-linecap="butt" stroke-linejoin="miter" stroke-miterlimit="4" stroke-dasharray="none" stroke-opacity="1" fill-opacity="1"/><path d="M106.964 111.257c-.042 1.528.507 1.206 1.707 2.153 1.208.954 1.093 1.206 2.514.614 1.288-.537 1.451-.112 2.053-1.371 1.552-3.248 2.284-6.786 2.061-10.38-.094-1.525-1.013-3.765-1.013-3.765s-1.548.93-2.601 2.362c-2.227 3.029-4.617 6.63-4.72 10.387z" opacity="1" fill="#848484" fill-rule="evenodd" stroke="#000" stroke-width="2.5" stroke-linecap="butt" stroke-linejoin="miter" stroke-miterlimit="4" stroke-dasharray="none" stroke-opacity="1" fill-opacity="1"/><g opacity="1"><path d="M154.873 106.19s-14.548 15.121-22.05 19.949c-7.118 4.58-18.795 6.596-25.899 11.2-7.171 4.648-15.853 12.426-21 19.25-3.534 4.685-6.57 12.049-8.75 17.499-1.997 4.996-1.864 12.967-5.25 17.15-1.36 1.68-4.232 2.867-6.3 3.5-4.635 1.418-11.792-.826-16.099 1.4-4.037 2.086-8.591 7.169-9.8 11.55-.68 2.462-.202 6.41 1.4 8.4 1.773 2.202 8.75 3.5 8.75 3.5s-3.113-5.369-2.45-7.7c.53-1.863 3.022-3.731 4.9-4.2 2.818-.705 6.568 1.74 9.45 2.1 3.544.441 8.34.65 11.9.35 2.667-.225 8.75-1.75 8.75-1.75s-2.652 8.405-1.75 11.9c.692 2.683 4.66 4.74 5.6 7.35.89 2.47 1.077 6.225.35 8.749-1.234 4.282-8.4 12.25-8.4 12.25s11.099-3.415 14.7-6.65c3.08-2.768 6.182-7.84 7-11.9.773-3.843-2.977-9.226-1.75-12.95 1.555-4.725 11.55-11.9 11.55-11.9s.48 8.667 1.4 12.25c.62 2.418 3.723 5.271 3.15 7.7-.77 3.259-6.923 4.346-8.4 7.35-1.487 3.02-1.274 7.883-.7 11.2.408 2.364 1.55 5.562 3.15 7.35 2.414 2.698 6.998 5.027 10.5 5.95 1.217.32 4.199 0 4.199 0s-7.11-4.534-8.4-7.7c-.714-1.753-.45-4.585.35-6.3.974-2.087 3.841-3.764 5.6-5.25 2.519-2.128 6.663-4.097 8.75-6.65 2.14-2.618 4.05-6.877 4.9-10.15.9-3.46.7-11.9.7-11.9s-.273 6.448 1.434 9.462c1.024 1.809 5.121 4.903 6.266 6.638.933 1.416 2.264 3.562 2.1 5.25-.206 2.116-2.751 4.13-3.85 5.95-.997 1.65-3.15 5.6-3.15 5.6s9.403-4.362 12.6-7.35c2.872-2.685 6.688-6.974 7.35-10.85.347-2.033-1.117-4.687-1.75-6.65-.45-1.391-1.323-3.151-1.75-4.55-.41-1.34-1.479-3.216-1.05-4.55.727-2.266 5.95-5.25 5.95-5.25s-1.28 4.398-1.05 6.3c.382 3.176 4.2 9.8 4.2 9.8s.44-5.973 2.1-7.7c2.899-3.016 9.642-2.167 13.3-4.2 4.23-2.35 9.27-6.684 12.249-10.5 3.323-4.256 6.549-10.912 8.05-16.1.88-3.04-.424-7.697 1.05-10.499 1.664-3.165 7.06-4.763 9.1-7.7 1.591-2.291 1.39-6.584 3.15-8.75 2.021-2.487 7.713-2.71 9.1-5.6 1.464-3.052-.404-7.963-1.4-11.2-1.493-4.846-7.7-15.05-7.7-15.05l-1.75-22.749-11.55-13.65-49.35 13.65 6.3 7.35z" opacity="1" fill="#214263" fill-opacity="1" fill-rule="evenodd" stroke="#000" stroke-width="3" stroke-linecap="butt" stroke-linejoin="miter" stroke-miterlimit="4" stroke-dasharray="none" stroke-opacity="1"/><path d="M196.038 51.72s2.645-3.466 3.443-6.412c.487-1.797.136-7.064-.175-9.68-.291-2.452-1.117-3.417-1.117-3.417s-.486 2.997-1.175 4.544c-1.158 2.602-5.882 7.452-5.882 7.452s.808-3.446.706-4.94c-.315-4.612-4.234-14.818-4.234-14.818s-1.755 9.994-4.234 13.407c-2.14 2.947-4.981 1.981-8.423 3.173-8.61 2.982-24.292.71-34.123 4.657-4.05 1.626-12.364 7.384-12.364 7.384s-10.349 3.551-16.105 2.504c-2.115-.385-4.584-2.316-6.695-1.913-3.742.713-6.754.638-9.883 1.594-3.938 1.202-4.154 9.478-2.87 13.39.43 1.31 2.206 2.49 2.55 3.826.576 2.23-1.32 5.452-.637 7.652.807 2.596 3.282 5.85 5.739 7.013 3.37 1.598 8.582.24 12.115-.956 3.877-1.313 8.075-.966 10.202-4.463.858-1.411 3.507-6.696 3.507-6.696s6.212 4.493 7.651 8.29c1.256 3.31 1.185 8.59-.318 11.796-2.217 4.724-8.207 9.588-13.072 11.477-4.37 1.697-11.326-1.558-15.622.319-3.409 1.49-6.786 2.85-7.97 6.376-.767 2.283-1.244 7.095.319 8.927 1.807 2.12 5.62.139 7.014 2.55.789 1.367.637 6.696.637 6.696s6.188-4.02 7.652-6.695c.928-1.697.956-6.377.956-6.377s15.17 1.02 21.68.957c4.504-.044 12.229 1.055 16.26-.957 3.155-1.575 5.657-5.473 6.376-8.926.264-1.274-1.276-4.145-1.276-4.145s2.317-1.427 3.507-.319c2.948 2.745 4.056 6.176 4.145 10.202.157 7.079-.73 17.544-3.826 23.911-1.816 3.736-5.066 8.642-8.636 12.172-1.45 1.434-2.954 2.641-4.435 3.45-3.61 1.972-9.583 1.965-13.072 4.145-2.352 1.47-5.077 4.245-6.376 6.695-1.055 1.989-1.74 5.086-1.594 7.333.183 2.838 3.188 8.927 3.188 8.927l2.464-7.271 12.53-6.015s16.539-3.687 22.555-7.518c6.638-4.228 6.798-6.63 6.798-6.63s-1.48 9.065-9.304 16.153c-2.447 2.216-9.523 5.513-9.523 5.513s13.477-.982 18.544-3.508c6.002-2.992 12.64-9.58 16.54-15.036 3.525-4.932 9.013-21.774 9.013-21.774s-4.277-15.793-7.51-23.335c-1.757-4.102-8.018-12.53-8.018-12.53s6.107 8.679 8.003 12.789c4.199 9.103 10.04 31.874 10.04 31.874s4.78-14.603 5.513-21.106c.539-4.784.754-11.392-.501-16.039-1.07-3.962-6.516-12.029-6.516-12.029s5.137 8.412 6.46 12.39c1.506 4.521-.05 11.69 2.562 15.678 3.04 4.64 9.99 9.965 15.537 10.024 2.295.024 5.022-2.268 6.516-4.01 2.018-2.353 4.366-6.444 4.01-9.523-.235-2.031-4.01-5.513-4.01-5.513s-1.847 4.86-3.164 6.335c-1.142 1.28-3.334.784-4.793-.117-1.304-.806-1.12-4.76-1.363-6.273-1.194-7.478 3.385-16.286.776-22.358-.888-2.068-3.801-7.581-6.38-9.232-1.686-1.08-8.131-3.94-8.131-3.94s4.291-2.758 5.513-4.512c2.637-3.784 4.25-9.985 5.012-14.534.547-3.263 0-11.027 0-11.027s-10.215.338-14.535 1.002c-2.492.384-8.171 1.968-8.171 1.968z" opacity="1" fill="#214263" fill-opacity="1" fill-rule="evenodd" stroke="#000" stroke-width="3" stroke-linecap="butt" stroke-linejoin="miter" stroke-miterlimit="4" stroke-dasharray="none" stroke-opacity="1"/><g opacity="1" fill-opacity="1" fill-rule="evenodd"><path d="M140.585 61.862a7.36 12.505-66.33 1022.905 10.04 7.36 12.505-66.33 10-22.905-10.04z" style="marker:none" fill="#848484" stroke="#000" stroke-width="2.5" stroke-linecap="butt" stroke-linejoin="miter" marker-start="none" marker-mid="none" marker-end="none" stroke-miterlimit="4" stroke-dasharray="none" stroke-dashoffset="0" stroke-opacity="1" visibility="visible" display="inline" overflow="visible"/><path d="M156.73 64.212a8.007 8.007 0 11-16.015 0 8.007 8.007 0 1116.015 0z" style="marker:none" fill="#848484" stroke="#000" stroke-width="2.5" stroke-linecap="butt" stroke-linejoin="miter" marker-start="none" marker-mid="none" marker-end="none" stroke-miterlimit="4" stroke-dasharray="none" stroke-dashoffset="0" stroke-opacity="1" visibility="visible" display="inline" overflow="visible"/><path d="M149.381 57.323c-.604-.002-1.145.092-1.687.156-1.085.128-2 .313-2 .313l.78 3.406s.747-.147 1.626-.25c.879-.104 1.98.044 1.812-.031-.076-.035.633.759.688.937.176.572.074 2.707-.213 3.286-.1.202-.918.92-.969.937.26-.085-.603-.01-1.25-.125-.646-.115-1.187-.25-1.187-.25s-1.771-.21-2.022.368c-.333.768 1.016 2.597 1.016 2.597s.696.164 1.531.312 1.686.41 2.938 0c1.491-.489 2.41-1.436 3.03-2.687.833-1.68 1.037-3.633.47-5.47-.403-1.304-1.102-2.422-2.594-3.093a4.7 4.7 0 00-1.969-.406z" fill="#000"/><path d="M147.93 51.955s-2.762.43-3.902.887c-2.24.896-4.5 2.925-4.79 5.32-.15 1.253.334 2.318 1.242 3.193.977.942 2.547.826 3.903.887 1.984.09 4.447-1.473 6.385-1.241 2.79.333 6.407 2.043 8.514 3.902.985.87 1.203 3.009 2.305 3.724.991.644 2.847 1.064 3.903.533 1.084-.546 1.648-2.371 1.95-3.548.146-.567.166-1.39 0-1.95-.249-.85-.983-1.844-1.596-2.484-.766-.8-3.015-2.128-3.015-2.128" fill="#214263" stroke="#000" stroke-width="2.5" stroke-linecap="butt" stroke-linejoin="miter" stroke-miterlimit="4" stroke-dasharray="none" stroke-opacity="1"/></g><path d="M97.2 70.016s4.766-6.763 6.995-7.686c2.229-.924 3.064-.794 3.504 0 .44.793.304 2.044-1.348 3.678-1.651 1.633-9.151 4.008-9.151 4.008z" opacity="1" fill="none" stroke="#000" stroke-width="2.5" stroke-linecap="butt" stroke-linejoin="miter" stroke-miterlimit="4" stroke-dasharray="none" stroke-opacity="1"/><path d="M195.622 63.25s2.727-4.385 4.573-5.462c2.912-1.697 11.05-2.032 11.05-2.032s1.38 7.074-.508 9.018c-.932.96-3.498-.565-4.445.381-1.245 1.243.75 4.613-.508 5.843-.847.827-3.938.254-3.938.254s.055-5.006-1.27-6.478c-1.04-1.156-4.954-1.524-4.954-1.524z" opacity="1" fill="#000" fill-rule="evenodd" stroke="#000" stroke-width="2.5" stroke-linecap="butt" stroke-linejoin="miter" stroke-miterlimit="4" stroke-dasharray="none" stroke-opacity="1"/><path d="M188.222 65.832s-5.478 11.055-9.137 14.76c-1.932 1.955-5.107 4.098-7.73 4.92-5.035 1.575-18.16 2.47-18.16 2.47l-.817 1.043s14.755-3.82 18.976 0c1.571 1.422 1.578 5.098.703 7.028-.748 1.652-2.776 3.955-4.33 4.89-2.423 1.46-8.827 3.234-8.827 3.234M184.005 122.057s.823 8.46 0 11.948c-1.3 5.506-3.731 10.267-6.571 15.16-1.145 1.973-4.217 6.325-4.217 6.325" opacity="1" fill="none" stroke="#000" stroke-width="2.5" stroke-linecap="butt" stroke-linejoin="miter" stroke-miterlimit="4" stroke-dasharray="none" stroke-opacity="1"/><path d="M95.45 193.744s-6.334 4.26-8.633 6.808c-1.702 1.885-4.72 7.951-4.72 7.951M160.812 183.202s-12.23 3.881-17.295 7.333c-2.344 1.597-4.454 4.981-5.669 7.545-1.9 4.005-3.04 11.448-3.04 11.448M159.449 202.275s6.946-6.828 9.797-9.234c3.844-3.243 11.233-4.974 14.056-9.136 1.81-2.67 2.108-10.542 2.108-10.542" fill="none" stroke="#000" stroke-width="2.5" stroke-linecap="butt" stroke-linejoin="miter" stroke-miterlimit="4" stroke-dasharray="none" stroke-opacity="1"/><path d="M94.045 157.9s-.542 9.613-2.108 13.354c-2.33 5.562-7.332 12.285-11.948 16.165-2.527 2.123-9.84 4.92-9.84 4.92s0 0 0 0" opacity="1" fill="none" stroke="#000" stroke-width="2.5" stroke-linecap="butt" stroke-linejoin="miter" stroke-miterlimit="4" stroke-dasharray="none" stroke-opacity="1"/></g><path d="M109.286 207.42s2.223-8.94 4.084-12.64c1.213-2.413 5.623-7.029 5.623-7.029" opacity="1" fill="none" stroke="#000" stroke-width="2.5" stroke-linecap="butt" stroke-linejoin="miter" stroke-miterlimit="4" stroke-dasharray="none" stroke-opacity="1"/><path d="M225.816 260.076c-13.173 2.179-18.53 11.35-22.009 22.202" fill="none" stroke="#000" stroke-width="3" stroke-linecap="butt" stroke-linejoin="miter" stroke-miterlimit="4" stroke-dasharray="none" stroke-opacity="1"/></g></svg>