<svg xmlns="http://www.w3.org/2000/svg" version="1.0" height="420" width="380"><g opacity="1"><g stroke="#000" stroke-linecap="butt" stroke-linejoin="miter" stroke-miterlimit="4" stroke-dasharray="none" stroke-opacity="1"><path d="M63.895 84.852s.046-12.303 3.265-15.992c.98-1.123 2.987-.457 4.689-1.644 1.83-1.276 6.007-3.795 5.936-6.025-.072-2.282-4.326-6.26-4.326-6.26s-7.97-3.433-11.47-2.86c-3.814.625-10.85 6.94-10.85 6.94l.663 10.585 12.093 15.256z" opacity="1" fill="#214263" fill-opacity="1" fill-rule="evenodd" stroke-width="3"/><path d="M156.653 189.639c-8.522 2.339-21.021 1.23-29.416-1.528-4.235-1.39-12.404-8.18-12.404-8.18s-6.008 5.733-6.396 9.03c-.285 2.421 1.605 5.56 3.029 7.54 1.541 2.141 6.698 5.701 6.698 5.701s-8.12.069-11.062-1.534c-3.104-1.69-5.981-5.832-7.692-8.926-1.567-2.834-2.054-5.83-1.359-8.994.507-2.305 2.641-7.31 2.641-7.31s-6.843-5.782-9.67-8.786c-2.479-2.632-7.25-9.627-7.25-9.627s-2.628 1.518-3.47 2.482c-.754.862-1.607 2.242-1.785 3.373-.254 1.612-.274 4.271.944 5.357 1.29 1.151 5.754.345 5.754.345s-1.238 3.063-2.43 3.573c-2.496 1.068-6.797.198-8.928-1.485-3.193-2.522-5.087-8.434-5.263-12.499-.107-2.468 1.252-5.722 2.527-7.838 1.309-2.172 5.901-6.054 5.901-6.054s-5.096-3.024-6.5-5.057c-1.035-1.5-.806-4.269-1.788-5.803-1.272-1.989-5.06-3.034-5.855-5.256-2.349-6.563 3.514-22.968 3.514-22.968s-2.474 13.558-6.79 16.917c-1.943 1.513-8.135 1.095-8.135 1.095l-8.287-10.86s-.79-4.45.345-5.755c2.67-3.07 13.293-2.683 13.293-2.683l-9.177.003-2.98-9.672 6.1-5.409s-6.832 6.768-10.613 6.8c-2.152.018-6.103-3.768-6.103-3.768l-1.045-10.268s.726-5.063 2.478-5.705c4.705-1.726 14.983 7.386 14.983 7.386l-9.675-6.198 1.387-4.663 9.278 4.908-9.476-5.553-1.54-7.29 2.579-.795s-5.23.253-6.664-1.007c-1.68-1.475-2.93-3.94-2.35-6.1.895-3.341 8.777-7.41 8.777-7.41s7.62-2.682 10.201-1.261c2.194 1.207 3.503 3.383 3.921 5.852.348 2.054-1.932 6.714-1.932 6.714s5.902 10.966 9.33 15.01c3.997 4.713 10.352 10.142 15.482 13.586 4.874 3.272 12.652 5.434 17.514 8.724 7.446 5.039 16.112 13.485 22.378 19.933 7.965 8.196 25.322 22.407 25.322 22.407l54.915-25.478s3.112 62.258-43.256 74.984z" opacity="1" fill="#214263" fill-opacity="1" fill-rule="evenodd" stroke-width="3"/><path d="M100.81 176.357s2.662-4.803 3.578-6.764c.746-1.595 1.845-3.71 2.969-5.066.68-.82 2.677-2.334 2.677-2.334M83.567 157.137s2.73-2.121 4.057-2.76c1.95-.937 5.187-.792 6.894-2.123 2.055-1.602 3.532-5.01 4.505-7.427.652-1.618 1.27-5.675 1.27-5.675M76.324 144.65s5.073-1.524 6.675-3.967" opacity="1" fill="none" stroke-width="2.5"/><path d="M63.508 57.03c.583 1.43 2.049 3.173 3.452 3.815 1.073.491 2.914.687 3.931.09 1.365-.8 2.604-1.742 2.77-3.316.448-4.267-.426-9.284-2.953-12.751-1.913-2.625-5.809-5.439-9.006-6.007-1.472-.262-2.845-.454-4.137.298-1.3.757-4.203 3.247-4.203 3.247s3.484.166 4.799.798c1.47.707 3.136 2.278 4.046 3.632 1.146 1.705.726 3.356 1.117 5.372.275 1.421-.362 3.481.184 4.822z" opacity="1" fill="#848401" fill-rule="evenodd" stroke-width="2.5"/><path d="M23.908 53.432s-.77-5.321.865-7.748c1.649-2.445 5.155-4.931 7.997-5.716 1.936-.535 4.842-.279 6.673.546 3.502 1.577 6.85 4.335 8.573 7.767.722 1.439 1.514 3.272 1.167 4.844-.398 1.808-1.962 3.18-3.723 3.75-1.261.408-3.538-.82-4.686-1.484-2.956-1.709-3.954-6.483-7.201-7.54-1.011-.328-2.516-.161-3.543.116-.917.249-1.95 1.057-2.787 1.51-1.254.679-3.335 3.955-3.335 3.955zM35.576 89.193c.862-.453 2.34-.9 2.696-1.807.512-1.305-.182-3.467-1.076-4.547-1.264-1.527-2.479-2.735-4.458-2.855-1.116-.068-5.365 2.232-6.26 2.904-2.225 1.67-3.431 3.375-3.975 6.104-.494 2.484.144 6.208 1.58 8.295 1.125 1.633 3.744 2.84 5.623 3.471 1.15.387 4.023.387 4.023.387s-3.14-4.294-3.293-6.466c-.09-1.265.493-3.083 1.37-4 .84-.879 2.693-.922 3.77-1.486zM45.273 112.225c.931-1.256 3.835-.721 5.211.021 1.454.785 2.901 2.946 3.041 4.593.157 1.844-1.273 4.25-2.489 5.645-1.709 1.961-4.805 4.185-7.38 4.55-2.74.39-6.679-.8-8.89-2.464-2.386-1.795-4.5-5.578-5.214-8.477-.31-1.261.295-4.32.295-4.32s2.399 3.76 4.024 4.615c2.254 1.187 5.936 1.479 8.433.98 1.31-.261 2.414-4.394 2.97-5.143z" opacity="1" fill="#848401" fill-opacity="1" fill-rule="evenodd" stroke-width="2.5"/></g><g opacity="1" stroke="#000" stroke-linecap="butt" stroke-linejoin="miter" stroke-miterlimit="4" stroke-dasharray="none" stroke-opacity="1"><path d="M44.336 114.635s.046-12.302 3.265-15.991c.98-1.123 2.987-.458 4.689-1.644 1.83-1.277 6.007-3.795 5.936-6.025-.073-2.282-4.326-6.26-4.326-6.26s-7.971-3.433-11.471-2.86c-3.813.625-10.85 6.94-10.85 6.94l.664 10.584 12.093 15.256z" opacity="1" fill="#214263" fill-opacity="1" fill-rule="evenodd" stroke-width="3"/><path d="M137.093 219.422c-8.521 2.34-21.02 1.231-29.415-1.527-4.235-1.391-12.404-8.18-12.404-8.18s-6.008 5.733-6.396 9.03c-.285 2.42 1.605 5.56 3.028 7.539 1.542 2.142 6.699 5.702 6.699 5.702s-8.12.068-11.062-1.534c-3.105-1.69-5.982-5.832-7.692-8.926-1.567-2.834-2.054-5.831-1.36-8.994.508-2.306 2.642-7.31 2.642-7.31s-6.843-5.782-9.67-8.786c-2.479-2.632-7.25-9.627-7.25-9.627s-2.629 1.517-3.471 2.481c-.754.862-1.607 2.243-1.785 3.374-.253 1.612-.273 4.27.945 5.357 1.29 1.15 5.754.345 5.754.345s-1.238 3.062-2.43 3.572c-2.496 1.069-6.798.199-8.929-1.485-3.192-2.521-5.086-8.433-5.262-12.498-.107-2.468 1.252-5.722 2.527-7.838 1.309-2.173 5.9-6.054 5.9-6.054s-5.096-3.024-6.5-5.057c-1.034-1.5-.806-4.269-1.787-5.804-1.272-1.988-5.06-3.033-5.855-5.255-2.35-6.563 3.513-22.968 3.513-22.968s-2.474 13.558-6.79 16.917c-1.942 1.512-8.134 1.094-8.134 1.094l-8.288-10.86s-.79-4.45.345-5.754c2.67-3.07 13.293-2.684 13.293-2.684l-9.176.004-2.98-9.672 6.1-5.41s-6.832 6.769-10.614 6.8c-2.151.018-6.102-3.767-6.102-3.767l-1.045-10.268s.726-5.063 2.478-5.706c4.705-1.725 14.983 7.386 14.983 7.386l-9.675-6.197 1.387-4.663 9.278 4.907-9.477-5.552-1.54-7.291 2.58-.795s-5.23.254-6.665-1.006c-1.68-1.475-2.928-3.941-2.35-6.1.896-3.341 8.778-7.411 8.778-7.411s7.62-2.682 10.201-1.26c2.193 1.207 3.503 3.383 3.92 5.851.349 2.055-1.931 6.714-1.931 6.714s5.901 10.967 9.33 15.01c3.997 4.713 10.352 10.142 15.482 13.586 4.873 3.272 12.652 5.435 17.513 8.725 7.446 5.038 16.113 13.485 22.379 19.933 7.965 8.195 25.322 22.407 25.322 22.407l87.922 13.984s-29.895 22.795-76.264 35.521z" opacity="1" fill="#214263" fill-opacity="1" fill-rule="evenodd" stroke-width="3"/><path d="M81.252 206.14s2.66-4.803 3.577-6.763c.746-1.596 1.845-3.71 2.968-5.066.68-.82 2.678-2.335 2.678-2.335M64.008 186.92s2.73-2.12 4.056-2.759c1.95-.937 5.187-.793 6.894-2.123 2.055-1.603 3.532-5.01 4.506-7.427.651-1.618 1.27-5.675 1.27-5.675M56.764 174.433s5.073-1.524 6.676-3.966M50.728 145.846s7.39 14.4 13.966 17.367c4.642 2.093 13.302 1.097 13.302 1.097" opacity="1" fill="none" stroke-width="2.5"/><path d="M43.949 86.814c.582 1.43 2.048 3.173 3.452 3.815 1.073.49 2.913.687 3.93.09 1.366-.801 2.605-1.743 2.77-3.317.449-4.267-.425-9.283-2.952-12.75-1.913-2.625-5.809-5.44-9.007-6.008-1.472-.261-2.844-.453-4.136.299-1.3.756-4.204 3.247-4.204 3.247s3.484.165 4.8.798c1.47.706 3.136 2.278 4.046 3.632 1.146 1.704.726 3.356 1.116 5.372.275 1.421-.361 3.481.185 4.822z" opacity="1" fill="#848401" fill-rule="evenodd" stroke-width="2.5"/><path d="M4.348 83.215s-.77-5.32.866-7.747c1.648-2.446 5.154-4.931 7.997-5.716 1.936-.535 4.842-.28 6.673.546 3.501 1.577 6.85 4.334 8.573 7.767.722 1.438 1.513 3.272 1.167 4.844-.398 1.808-1.963 3.18-3.724 3.75-1.26.407-3.538-.821-4.685-1.484-2.957-1.71-3.954-6.484-7.202-7.54-1.01-.328-2.516-.162-3.542.116-.918.249-1.951 1.057-2.787 1.51-1.255.679-3.336 3.954-3.336 3.954zM16.016 118.976c.862-.452 2.34-.9 2.696-1.806.513-1.305-.181-3.468-1.075-4.548-1.265-1.527-2.479-2.735-4.458-2.855-1.117-.067-5.366 2.233-6.26 2.905-2.225 1.67-3.431 3.375-3.975 6.103-.495 2.485.143 6.209 1.58 8.295 1.124 1.633 3.744 2.84 5.623 3.472 1.149.387 4.022.387 4.022.387s-3.14-4.295-3.293-6.466c-.09-1.265.494-3.083 1.37-4 .84-.88 2.693-.922 3.77-1.487zM25.714 142.009c.931-1.256 3.835-.722 5.21.02 1.455.786 2.902 2.947 3.042 4.593.157 1.844-1.273 4.25-2.49 5.646-1.708 1.96-4.804 4.185-7.38 4.55-2.74.39-6.678-.801-8.89-2.465-2.386-1.795-4.5-5.578-5.213-8.476-.311-1.262.295-4.32.295-4.32s2.399 3.76 4.024 4.615c2.253 1.187 5.935 1.479 8.433.98 1.31-.262 2.414-4.394 2.97-5.143z" opacity="1" fill="#848401" fill-opacity="1" fill-rule="evenodd" stroke-width="2.5"/></g><g stroke="#000" stroke-linecap="butt" stroke-linejoin="miter" stroke-miterlimit="4" stroke-dasharray="none" stroke-opacity="1"><path d="M162.376 343.41s-14.158-1.659-16.456-5.777c-.714-1.28.438-2.64.22-4.089-.26-1.715-.917-3.297-2.528-3.94-2.555-1.02-6.021 1.68-8.016 3.574-2.663 2.528-5.004 10.354-5.004 10.354l3.436 8.519 16.774 3.36 11.574-12.002z" fill="#214263" fill-opacity="1" fill-rule="evenodd" stroke-width="3"/><path d="M287.885 297.628s-35.57 13.822-49.368 22.44c-3.294 2.056-8.024 4.884-9.983 8.236-1.717 2.938-2.264 7.773-1.997 11.165.296 3.762 1 9.766 4.124 11.882 2.854 1.934 11.479-.527 11.479-.527s-5.783 6.424-9.19 7.338c-2.516.675-6.245-.152-8.586-1.295-1.76-.859-4.736-4.488-4.736-4.488s-1.164 4.46-2.691 5.866c-2.033 1.871-7.636 3.94-7.636 3.94s1.057-3.3 1.385-4.652c.56-2.303.694-5.136.009-7.405-.415-1.372-3.414-3.342-3.414-3.342s.788 2.826.808 4.07c.044 2.66-.387 6.304-1.436 8.747-.592 1.378-2.773 2.505-3.017 3.984-.328 1.98-.764 3.067.628 4.514 1.066 1.107 2.503 2.516 4.016 2.243.988-.178 3.285-.44 3.82-1.289.444-.706 1.704-2.198 1.704-2.198s.541 3.064-.297 5.556c-.455 1.354-1.967 2.36-2.705 3.022-.382.343-1.691 1.968-4.015 1.957-2.26-.01-4.727-.984-5.176-1.203 0 0-4.118-1.395-5.43-2.644-2.011-1.915-3.724-5.435-4.458-8.113-.41-1.493.31-3.686-.168-5.158-.396-1.221-2.063-2.305-2.396-3.544-.367-1.371-.39-1.284-.39-1.284s1.182.563 1.14 2.933c-.047 2.626-.44 9.5-.44 9.5l-5.697-2.624-3.083-4.25s-1.067-1.412-.81-2.01c.274-.639 1.76-.28 2.157-.851.985-1.412-.808-4.07-.808-4.07s1.594 2.718.588 4.146c-.367.521-1.762.227-1.954.834-.693 2.197 1.664 3.785 4.05 6.523 1.732 1.99 4.14 3.558 4.25 5.312.1 1.584-2.692 4.554-2.692 4.554l-12.21 2.424s-4.754-1.105-6.02-2.613c-2.041-2.434-4.602-10.403-4.602-10.403l-.795.263-1.84 6.712s3.865 6.136 2.51 8.386c-.963 1.6-6.105 1.212-6.105 1.212l-14.116-2.91s-2.493-2.99-2.597-4.56c-.159-2.378 2.98-7.362 2.98-7.362l-5.86.318s-3.882 6.217-6.683 6.826c-1.366.298-3.212-.863-4.351-1.674-2.202-1.568-5.81-6.886-5.81-6.886l.637-18.106s2.965-2.284 4.438-2.15c3.115.281 8.415 6.156 8.415 6.156s10.886-.23 15.018-2.136c4.382-2.02 8.091-7.898 12.06-10.643 2.672-1.85 6.455-4.146 9.57-5.073 1.14-.34 2.77-.531 3.947-.36 2.495.36 5.633 1.83 7.808 3.103 2.099 1.227 4.08 4.107 6.3 5.095 1.152.513 4.15.657 4.15.657s-7.734-3.929-10.897-5.875c-3.9-2.399-8.283-6.992-12.52-8.726-1.295-.53-3.466.044-4.598-.78-2.15-1.564-3.815-5.215-4.098-7.859-.045-.415.575-.98.368-1.342-.758-1.33-3.612-.556-4.922-1.35-2.94-1.782-6.205-5.349-7.8-8.393-1.388-2.647-2.942-6.849-2.143-9.729.632-2.28 3.381-4.529 5.42-5.73 2.9-1.708 10.868-2.792 10.868-2.792s-4.433 3.58-5.42 5.73c-.706 1.54-1.187 4.035-.577 5.615.336.87 1.504 1.617 2.316 2.078 3.512 1.996 12.853 4.006 12.853 4.006s6.074-6.343 9.086-8.573c3.798-2.81 9.299-6.035 13.684-7.793 2.371-.95 5.736-1.683 8.263-2.063 3.047-.459 7.477.776 10.255-.555 1.684-.807 3.044-3.134 4.157-4.633 1.208-1.627 3.004-3.81 3.508-5.773 1.018-3.965-.869-37.914-.869-37.914l33.802 7.34 31.682 24.78 3.153 26.24z" fill="#214263" fill-opacity="1" fill-rule="evenodd" stroke-width="3"/><path d="M160.496 316.321s3.675-.106 5.188-.5c1.388-.363 4.376-1.927 4.376-1.927M177.704 316.712s-3.406-.203-4.679.4c-1.435.68-3.14 2.308-3.687 3.799-.584 1.59.378 5.635.378 5.635M180.507 319.645s-3.36.856-4.152 1.988c-1.174 1.677-.907 4.76-.661 6.793.132 1.092 1.216 3.46 1.216 3.46M186.463 322.481s-3.405 1.815-4.235 3.167c-.769 1.251-1 3.361-.841 4.82.21 1.923 2.452 5.964 2.452 5.964M161.586 364.959s1.443-3.705 2.082-4.96c.871-1.71 5.476-3.308 5.476-3.308M143.909 365.402s.622-2.677 1.429-3.456c1.11-1.074 4.823-1.804 4.823-1.804" fill="none" stroke-width="2.5"/><path d="M133.129 342.217c-1.921-.323-3.885-2.47-5.759-3.002-2.825-.804-9.764-.721-9.764-.721s4.043-3.236 6.085-4.024c2.471-.954 6.154-1.968 8.729-1.342 1.978.481 4.592 2.166 5.486 3.995.581 1.19.739 3.421-.142 4.409-.935 1.05-3.249.919-4.635.685z" fill="#848401" fill-rule="evenodd" stroke-width="2.5"/><path d="M122.055 353.42c1.444.347 3.238 1.407 4.318 2.449 1.104 1.064 2.754 2.8 2.729 4.384-.017 1.009-1.057 2.19-1.831 2.817-.553.448-1.5.734-2.191.821-1.458.185-3.423-.946-4.842-.537-1.242.357-2.66 1.626-3.459 2.687-1.128 1.5-1.83 2.133-2.153 3.993-.247 1.424.296 6.087.296 6.087s-4.155-3.464-5.04-5.333c-1.29-2.731-1.722-5.818-.775-8.748.598-1.851 2.48-3.865 3.963-5.078 1.83-1.497 4.748-2.875 6.996-3.455.582-.15 1.41-.226 1.989-.087zM146.51 375.051c.706-.501 2.003-.688 2.844-.485 2.076.502 5.004 2.252 5.696 4.273.524 1.533-.68 3.773-1.43 5.21-1.113 2.138-3.208 4.729-5.129 6.184-1.777 1.346-6.791 3.016-6.791 3.016s2.428-4.644 2.776-6.828c.323-2.025-.92-4.816-.48-6.818.337-1.523 1.243-3.649 2.514-4.552zM177.53 371.992c1.48-1.253 4.646-.529 6.465.147 1.557.58 2.417 1.537 3.144 3.031.955 1.964.947 5.235.173 7.277-.48 1.268-1.923 2.6-3.077 3.312-1.358.839-2.384 1.878-3.977 1.982-1.838.12-6.067-.942-6.067-.942s3.435-2.087 4.224-3.54c.857-1.579 1.214-4.215.727-5.945-.264-.936-1.76-1.601-2.014-2.54-.22-.814-.242-2.237.401-2.782z" fill="#848401" fill-opacity="1" fill-rule="evenodd" stroke-width="2.5"/></g><path d="M234.231 246.041c-4.367-1.14-10.615-.113-15.019.874-2.393.536-7.583 3.052-7.583 3.052s5.696 3.258 8.251 4.422c5.065 2.307 12.685 3.538 17.342 6.584 4.126 2.699 8.493 7.832 11.5 11.739 3.42 4.443 9.556 16.06 9.556 16.06s1.988-21.508-2.531-28.971c-3.97-6.554-14.103-11.824-21.516-13.76zM249.6 373.987s-7.858-4.49-9.45-7.805c-1.092-2.272.995-6.146-.128-8.403-1.08-2.171-4.005-4.454-6.374-4.971-1.776-.388-5.897 1.396-5.897 1.396l-3.625 11.949 4.104 4.162 8.034 5.676 13.335-2.004z" fill="#214263" fill-opacity="1" fill-rule="evenodd" stroke="#000" stroke-width="3" stroke-linecap="butt" stroke-linejoin="miter" stroke-miterlimit="4" stroke-dasharray="none" stroke-opacity="1"/><path d="M167.235 143.323s-42.74 62.026-37.281 64.23c6.312 2.548 9.315 13.24 14.933 17.084 5.399 3.694 14.183 5.731 20.5 7.431 10.124 2.725 24.178 3.835 34.394 6.19 7.684 1.77 18.072 3.981 25.297 7.139 7.979 3.486 19.508 8.198 24.76 15.143 3.25 4.3 5.57 11.963 4.843 17.305-1.098 8.08-10.024 15.532-14.775 22.16-.792 1.106-3.796 1.126-6.127 4.747-2.425 3.77-4.195 11.129-5.907 11.413-3.003.5-8.75-2.226-8.75-2.226s.908 3.902 3.557 6.501c2.112 2.072 5.927 2.98 6.939 2.853 2.521-.32 5.78-2.195 6.527-2.566 3.8-1.892 8.38-11.403 8.38-11.403s-9.08 12.707-8.554 18.911c.232 2.734 2.825 4.656 2.684 7.397-.151 2.955-.59 6.157-3.486 6.764-4.218.883-10.056-.16-10.056-.16s2.987 4.143 7.267 5.867c2.664 1.073 5.775.957 8.334-.347 5.651-2.88 11.967-9.393 14.868-15.034 1.699-3.304 2.097-12.204 2.097-12.204s-4.789 13.844-2.767 19.348c1.407 3.827 7.578 7.739 7.578 7.739s-6.82 3.288-9.908 5.82c-4.87 3.996-10.901 17.95-10.901 17.95s-8.413-2.124-11.606-3.949c-2.09-1.194-3.708-4.835-6.081-5.233-1.718-.288-5.394 2.144-5.394 2.144l-2.169 17.496s2.707 4.566 4.725 5c3.393.73 7.103-3.635 10.702-4.394 3.558-.75 11.035-.247 11.035-.247l-12.216 9.348-.072 5.293 11.403 8.38s6.683-1.635 8.208-3.894c2.09-3.098.74-12.436.74-12.436s2.756 2.456 3.607 4.336c1.06 2.342.318 6.948.318 6.948l5.453 4.008 10.09-.22s3.997-3.424 4.008-5.454c.02-3.586-6.974-9.708-6.974-9.708l10.79-2.759.903-8.5s4.448 10.377 8.488 12.347c2.591 1.264 7.01.697 9.593-.585 2.156-1.07 5.233-6.08 5.233-6.08s-4.07 2.092-5.89 1.78c-1.637-.282-4.26-1.631-4.462-3.28-.383-3.12 6.69-8.064 6.69-8.064s6.966 2.936 10.12 2.856c2.252-.058 5.74-.622 7.114-2.407 1.467-1.908.537-8.005.537-8.005s-1.609 3.255-3.427 3.624c-1.844.375-5.413-.08-6.399-1.683-1.877-3.052.377-11.94.377-11.94s7.179 1.242 10.118-.627c1.162-.739 3.037-3.379 3.058-5.562.033-3.281-.763-4.788-.763-4.788s-1.431 4.225-3.74 4.37c-2.33.147-5.644-.858-7.407-2.39-2.992-2.598-5.353-7.94-5.775-11.88-.512-4.772 1.455-9.586 2.567-14.255.326-1.367 1.178-3.816 1.178-3.816s5.618 3.562 8.547 4.091c2.055.372 6.541-.95 8.101-2.339 2.331-2.075 3.88-7.123 2.75-10.033-.937-2.415-5.011-4.011-5.011-4.011s.807 3.979.735 5.782c-.05 1.28-3.228 2.43-4.413 2.916-.968.397-2.44-.752-3.13-1.537-3.417-3.882-4.068-10.584-4.072-15.756-.002-3.678 3.95-11.606 3.95-11.606s8.319 5.213 12.364 6.033c6.555 1.33-6.332-18.398-6.332-18.398s-16.325-12.108-19.84-16.055c-9.536-10.705-13.47-21.078-23.917-30.894-4.038-3.794-10.89-9.735-15.266-13.133-7.437-5.775-19.863-13.655-26.873-19.94-11.862-10.637-38.652-34.9-38.652-34.9l-13.444-16.28-14.623 2.234z" fill="#214263" fill-opacity="1" fill-rule="evenodd" stroke="#000" stroke-width="3" stroke-linecap="butt" stroke-linejoin="miter" stroke-miterlimit="4" stroke-dasharray="none" stroke-opacity="1"/><path d="M314.212 285.351s-3.571-6.425-5.84-9.157c-2.003-2.414-6.392-3.804-8.425-6.193-1.704-2.002-3.996-7.803-3.996-7.803M288.087 273.45s4.754 5.04 5.63 7.787c1.323 4.147-1.326 9.64-.856 13.968.308 2.833 1.496 5.91 1.303 8.21-.165 1.96-1.57 6.37-1.57 6.37s4.235-2.752 5.644-4.793c.544-.788 4.084-5.671 4.084-5.671s-.218 10.479 1.513 14.493c.518 1.2 2.842 3.305 2.842 3.305M298.077 345.626s2.02 4.855 3.388 6.615c1.161 1.492 4.731 4.165 4.731 4.165M296.119 376.041s1.958-5.6 2.063-8.108c.116-2.78-.405-6.6-1.529-9.145-.418-.947-2.131-2.712-2.131-2.712M285.95 359.63s3.292 5.004 3.398 7.539c.156 3.743-2.2 8.474-2.763 12.178-.284 1.87-.817 4.42-.493 6.283.25 1.442 2 4.45 2 4.45M278.862 378.942s.616-9.347.627-11.456c.01-1.767-1.305-5.084-1.305-5.084M202.944 177.062l-2.253 11.826M209.205 179.601l-2.467 9.105M214.47 182.945l-.58 6.472M278.373 346.266l-5.617 1.948-9.14-.458s-.162 2.155.376 3.46c.344.834 1.58 2.18 2.44 2.455 1.602.514 3.96.967 5.583.523.812-.222 2.272-1.646 2.272-1.646M268.357 315.134s-2.936 5.772-2.804 8.435c.123 2.487 1.923 5.562 3.381 7.58 1.253 1.732 2.53 3.26 4.59 3.835 1.805.505 6.813-.24 6.813-.24s-4.014 3.244-6.108 3.691c-2.761.59-6.784.047-9.34-1.153-1.667-.783-3.417-2.698-4.468-4.21-1.413-2.034-3.208-7.606-3.208-7.606M248.984 318.183s-3.586 5.327-3.753 8.046c-.13 2.123 1.23 4.8 1.236 6.928.005 1.996-.252 4.103-.862 6.003-.654 2.035-3.604 8.024-3.604 8.024" fill="none" stroke="#000" stroke-width="2.5" stroke-linecap="butt" stroke-linejoin="miter" stroke-miterlimit="4" stroke-dasharray="none" stroke-opacity="1"/><path d="M303.425 280.667s1.35 6.767 1.14 9.685c-.227 3.13-2.707 10.102-2.707 10.102M169.234 232.734s-7.723-6.58-9.439-10.271c-1.014-2.182-1.912-5.347-2.08-7.747-.186-2.686 1.105-8.905 1.105-8.905M180.157 235.322s-9.018-10.485-11.802-15.67c-1.343-2.503-2.492-10.545-2.492-10.545M180.888 213.706s.246 3.066.854 4.125c.774 1.349 2.71 2.74 3.733 3.91.99 1.132 4.037 2.968 4.037 2.968M189.066 217.385s3.7 3.84 5.314 5.46a401.83 401.83 0 003.162 3.101M199.752 221.352s5.59 4.656 7.771 6.878c1.15 1.17 3.548 4.162 3.548 4.162M209.481 223.45s5.063 5.052 6.962 7.45c1.366 1.723 4.068 6.098 4.068 6.098s0 0 0 0M221.749 228.969s3.539 3.416 4.81 5.09c1.186 1.562 2.745 3.744 3.372 5.603.61 1.808.689 6.32.689 6.32" fill="none" stroke="#000" stroke-width="2.5" stroke-linecap="butt" stroke-linejoin="miter" stroke-miterlimit="4" stroke-dasharray="none" stroke-opacity="1"/><path d="M231.643 357.658c-.296-1.993-2.916-3.846-4.684-4.813-2.08-1.137-3.129-1.429-5.499-1.51-2.068-.071-5.056-.142-6.837.913-1.9 1.125-4.36 5.93-4.36 5.93s6.36-1.838 9.114-1.523c2.993.342 4.109 3.04 7.03 3.778 1.055.267 2.653.888 3.61.37.934-.505 1.782-2.094 1.626-3.145zM220.722 368.033c1.592 1.28 2.644 1.48 2.904 3.506.227 1.767-.567 4.58-2.044 5.577-.888.6-2.508.025-3.57-.113-1.791-.23-4.065-1.462-5.866-1.341-1.513.101-3.522.86-4.73 1.775-.97.733-1.913 2.15-2.398 3.262-.514 1.177-.071 2.445-.222 3.72-.047.395-2.535-1.87-3.271-3.318-.761-1.496-1.223-3.85-.974-5.511.357-2.379 2.052-3.739 3.627-5.556 1.486-1.715 3.909-1.876 6.048-2.635 2.178-.773 5.406-.887 7.687-.516.899.146 2.099.58 2.809 1.15zM233.8 395.916s3.792.536 5.202 1.312c.78.428 1.242.773 1.562 1.604.676 1.759.56 4.699-.492 6.262-1.42 2.109-5.237 2.806-7.582 3.79-1.61.676-4.91 2.33-4.91 2.33s2.277-10.318 3.265-12.055c1.186-2.082 2.755-3.14 2.955-3.243zM268.986 399.624c1.26.41 2.786 1.616 3.45 2.764.819 1.42 1.293 3.831.825 5.403-.65 2.179-3.168 4.384-5.062 5.643-2.512 1.67-9.5 3.294-9.5 3.294s2.927-3.79 3.883-5.595c.59-1.113 1.534-2.658 1.508-3.916-.031-1.534-2.205-3.167-2.033-4.692.112-.987 1.086-2.2 1.962-2.669 1.315-.704 3.548-.693 4.967-.232z" fill="#848401" fill-rule="evenodd" stroke="#000" stroke-width="2.5" stroke-linecap="butt" stroke-linejoin="miter" stroke-miterlimit="4" stroke-dasharray="none" stroke-opacity="1"/><path d="M313.112 283.268l2.13 2.073" fill="none" stroke="#000" stroke-width="2.2" stroke-linecap="butt" stroke-linejoin="miter" stroke-miterlimit="4" stroke-dasharray="none" stroke-opacity="1"/><g opacity="1" fill="#214263" fill-opacity="1" stroke="#000" stroke-linecap="butt" stroke-linejoin="miter" stroke-miterlimit="4" stroke-dasharray="none" stroke-opacity="1"><path d="M316.29 269.65s8.309 7.742 12.779 7.667c3.88-.066 8.732-3.784 10.862-7.029 1.28-1.949 2.754-14.933 1.916-17.89-1.087-3.837-4.9-9.148-7.667-10.86-2.767-1.714-5.87-1.93-8.306-1.279-1.185.317-2.308 1.707-3.194 2.556-.668.64-1.977 1.4-2.029 2.325-.03.54.644 1.102 1.028 1.484 1.413 1.409 5.48 3.768 5.48 3.768s-5.063 2.448-7.307 2.055c-2.032-.355-4.651-2.162-5.595-3.996-1.223-2.376-.946-6.408 0-8.906.843-2.224 3.236-4.677 5.253-5.938 2.17-1.357 8.22-2.284 8.22-2.284s-9.296 1.251-13.13.343c-3.251-.77-7.334-3.021-9.82-5.253-1.266-1.136-2.804-3.027-3.197-4.681-.48-2.017-.093-5.038.913-6.851.992-1.788 3.268-3.85 5.253-4.34 1.937-.476 4.79.358 6.508 1.371 1.444.85 3.654 4.225 3.654 4.225s-3.289-.609-4.567-.114c-1.017.393-2.598 1.422-2.627 2.512-.042 1.599 2.307 3.02 3.654 3.882 1.552.992 5.824 1.941 5.824 1.941l7.193-.228 5.71.799s-6.725-14.368-9.537-19.803c-1.605-3.102-4.025-11.137-5.024-14.484-1.323-4.439-.99-4.937-2.453-9.331-1.687-5.064-4.702-11.97-8.678-15.53-2.299-2.058-7.374-4.278-10.351-5.088-2.501-.681-5.142-.526-7.69-.05-1.96.366-4.695 1.555-5.823 3.197-1.293 1.88-1.791 5.386-1.028 7.537.251.708 1.184 1.323 1.827 1.712 1.334.808 3.358 1.549 4.91 1.713 2.197.233 5.304.017 7.308-.913.55-.256 1.484-1.37 1.484-1.37s-1.38 5.34-2.969 6.965c-1.683 1.72-4.914 3.06-7.308 3.311-2.686.28-6.51-.496-8.792-1.941-2.93-1.855-6.156-5.793-7.08-9.135-1.065-3.858-.326-9.736 1.6-13.245 1.662-3.03 5.71-5.99 8.906-7.308 2.004-.826 7.193-.685 7.193-.685l3.083 1.027s-3.796-1.089-5.366-1.712c-1.695-.673-4.107-1.428-5.481-2.627-2.72-2.373-5.793-6.534-6.623-10.048-.531-2.25.146-5.47.914-7.65.966-2.743 2.863-6.41 5.138-8.221 2.296-1.83 6.316-3.075 9.249-3.198 1.801-.075 4.34.46 5.823 1.485 1.963 1.355 4.258 4.143 4.568 6.508.142 1.086-1.256 3.426-1.256 3.426s-2.535-3.256-4.111-3.882c-1.624-.646-4.233-.722-5.824 0-.994.451-1.964 1.737-2.397 2.74-.834 1.927-1.537 5.046-.686 6.965.934 2.104 4.102 3.55 6.166 4.568 2.014.992 7.194 2.055 7.194 2.055l7.536 5.595s-1.21-9.898-1.142-14.159c.06-3.654.571-8.538 1.37-12.103 1.07-4.768 3.136-11.013 5.253-15.415 3.118-6.483 9.98-13.638 12.903-20.21.996-2.241 1.936-5.44 2.17-7.88.294-3.078.175-7.342-.8-10.276-.626-1.885-2.334-4.017-3.54-5.595-1.325-1.734-2.903-4.51-4.91-5.367-1.386-.592-3.653-.39-5.024.114-1.37.504-2.916 1.843-3.654 2.969-.737 1.126-1.473 3.084-1.141 4.11.331 1.027 2.844 3.395 3.67 3.14.827-.257 6.72-1.54 6.72-1.54s-1.646 4.944-3.54 6.394c-1.892 1.449-7.187 1.707-10.723 1.259-3.535-.448-8.033-4.077-10.971-6.398-2.938-2.32-5.513-4.796-6.509-7.308-.996-2.51-.818-6.074-.228-8.22.59-2.148 1.976-4.371 3.54-5.596 1.194-.935 4.795-1.598 4.795-1.598s-5.619-2.212-7.536-3.883c-2.02-1.76-4.359-4.743-5.138-7.307-.887-2.918-1.058-7.398.228-10.163 1.791-3.851 5.382-8.378 9.027-10.557 2.54-1.518 7.883-2.175 10.841-2.232 2.09-.04 5.125.711 6.623 2.17 1.46 1.421 2.651 4.39 2.284 6.394-.277 1.506-3.312 3.883-3.312 3.883s.806-3.973 0-5.367c-.653-1.13-2.465-2.233-3.768-2.17-1.766.087-4.091 1.804-4.796 3.426-.523 1.204.031 3.142.571 4.339 1.308 2.9 6.966 7.993 6.966 7.993l11.875 3.425 7.65 5.024 2.17 3.083 3.882-9.02s7.322-7.422 11.304-9.249c2.15-.987 5.437-1.789 7.765-1.37 2.266.407 5.003 2.245 6.622 3.882 1.166 1.178 2.971 3.155 2.74 4.796-.259 1.847-4.452 4.339-4.452 4.339s.968-3.782.114-5.024c-.866-1.26-3.271-1.805-4.796-1.713-1.53.092-3.379 1.317-4.567 2.284-1.457 1.184-3.06 3.221-3.883 4.91-.894 1.837-1.696 4.58-1.598 6.622.145 3.04 2.224 6.748 3.311 9.592 1.579 4.13 4.735 9.275 5.71 13.588.483 2.14.6 5.128.342 7.307-.159 1.346-1.256 4.34-1.256 4.34s0 0 0 0l-2.591 5.147s6.6-6.12 10.17-7.265c2.698-.865 6.905-1.256 9.444 0 3.112 1.54 5.763 5.966 7.022 9.202.583 1.495.853 3.765.485 5.327-.413 1.746-1.922 3.776-3.148 5.085-.854.913-3.39 2.422-3.39 2.422s2.311-5.382 1.937-7.749c-.321-2.03-1.794-4.89-3.632-5.812-2.347-1.175-6.534-.728-8.718.727-1.839 1.225-2.867 4.391-3.39 6.538-.602 2.47.71 6.034 0 8.475-.795 2.729-3.209 5.858-5.085 7.991-2.623 2.983-7.516 5.522-10.17 8.476-2.102 2.338-9.236 12.738-10.171 14.771-1.157 2.513-2.526 6.215-2.18 8.96.155 1.225 1.938 3.632 1.938 3.632s1.432-4.032 2.663-5.327c2.645-2.783 7.601-4.808 11.14-6.296 2.648-1.114 7.34-.475 9.201-2.664 1.565-1.84 1.926-5.774.969-7.991-.68-1.574-3.414-3.203-4.601-3.39-1.187-.188-2.18.726-2.18.726s2.97-3.762 4.844-4.116c2.415-.457 6.103.837 7.748 2.663 1.298 1.44 2.757 3.981 3.045 5.898.303 2.017-.35 5.285-1.107 7.179-.803 2.005-3.897 3.224-5.328 4.843-1 1.132-3.299 2.657-2.906 4.116.5 1.852 4.17 1.672 5.812 2.664 2.749 1.66 6.372 4.111 8.476 6.538 1.257 1.45 2.698 3.704 3.148 5.57.817 3.393.517 8.28-.485 11.623-.608 2.029-1.952 4.765-3.632 6.054-.84.644-2.335.896-3.39.968-2.05.14-5.069.168-6.78-.968-1.412-.937-2.906-4.843-2.906-4.843l-.727-1.695s4.972 3.027 7.265 2.663c1.277-.202 2.977-1.438 3.39-2.663.551-1.637-.24-4.34-1.453-5.57-1.534-1.556-4.87-1.561-7.022-1.937-1.749-.305-4.035-1.109-5.898-.45-2.214.781-5.268 1.671-7.265 2.905-1.488.92-3.11 2.65-4.359 3.875-.917.9-2.448 1.947-2.906 3.148-1.474 3.87-.632 12.076-.155 16.19.316 2.732 1.03 6.364 1.937 8.96 2.486 7.115 4.739 11.152 7.557 18.142 2.336 5.796 8.02 18.268 9.878 24.235.813 2.61 2.198 6.022 2.663 8.717.545 3.153.39 7.457.485 10.655.152 5.083 1.128 10.04-.156 14.96-.805 3.087-3.116 8.568-4.93 11.192-2.024 2.932-4.567 7.189-7.506 9.202-2.71 1.857-7.136 3.152-10.413 3.39-2.573.187-6.071-.517-8.475-1.453-3.624-1.41-10.667-6.1-10.667-6.1" fill="#214263" fill-opacity="1" fill-rule="evenodd" stroke-width="3"/><path d="M290.537 13.469s-.468 6.615 0 9.394c.565 3.351 1.763 7.92 3.714 10.704 1.55 2.213 4.619 4.386 6.99 5.68 3.876 2.116 13.983 4.588 13.983 4.588M307.577 50.826s-5.762 3.028-7.646 5.025c-1.35 1.43-2.884 3.752-3.277 5.68-.436 2.134.874 7.209.874 7.209M349.086 80.974s-4.892 9.906-7.865 13.545c-.999 1.222-2.677 2.538-3.933 3.495-1.243.948-4.369 2.84-4.369 2.84M343.405 111.34s-4.418-1.301-6.335-1.092c-1.549.17-3.552 1.042-4.806 1.966-1.162.857-3.059 3.714-3.059 3.714" fill="#214263" fill-opacity="1" fill-rule="evenodd" stroke-width="2.5"/><path d="M370.058 160.932s-5.54-6.368-8.52-8.52c-3.029-2.188-7.85-4.355-11.579-4.588-4.188-.261-9.883 1.444-13.544 3.495-2.467 1.383-4.936 4.405-6.773 6.554-1.925 2.254-5.68 8.084-5.68 8.084" fill="none" stroke-width="2.5"/><path d="M332.92 224.505s3.948 4.965 5.024 6.99c.846 1.593 1.966 5.68 1.966 5.68" fill="#214263" fill-opacity="1" fill-rule="evenodd" stroke-width="2.5"/></g><g opacity="1"><path d="M176.929 105.88s-8.49-7.2-13.043-8.526c-3.235-.943-7.778-1.695-11.138-1.632-4.826.09-12.566 4.166-17.402 4.02-2.276-.07-4.185-.105-5.557-1.758-2.457-2.96.522-7.55-.729-11.017-.611-1.695-2.502-3.654-4.104-4.759-1.984-1.367-5.205-2.753-7.671-2.897-1.536-.09-4.86 1.24-4.86 1.24s3.679 2.622 4.429 4.2c1.646 3.462-.87 8.797.528 12.335.55 1.394 2.161 2.912 3.296 4.013 1.166 1.131 2.785 2.7 4.334 3.368 3.449 1.49 8.697 2.153 12.466 2.055 4.6-.12 10.328-4.283 14.927-4.402 3.495-.09 8.05 1.922 11.375 3.022 2.434.805 7.507 3.89 7.507 3.89l5.642-3.152z" fill="#840101" fill-opacity="1" fill-rule="evenodd" stroke="#000" stroke-width="2.5" stroke-linecap="butt" stroke-linejoin="miter" stroke-miterlimit="4" stroke-dasharray="none" stroke-opacity="1"/><path d="M147.325 81.938c.684-1.367 1.015-.824 2.52-1.094 1.516-.27 1.533-.547 2.507.645.882 1.081 1.226.783 1.163 2.177-.163 3.597-1.186 7.061-3.078 10.125-.803 1.3-2.67 2.842-2.67 2.842s-.926-1.549-1.179-3.31c-.535-3.72-.944-8.023.737-11.385z" fill="#848484" fill-rule="evenodd" stroke="#000" stroke-width="2.5" stroke-linecap="butt" stroke-linejoin="miter" stroke-miterlimit="4" stroke-dasharray="none" stroke-opacity="1" fill-opacity="1"/><path d="M144.733 109.339c-.29 1.5.304 1.272 1.334 2.401 1.037 1.138.883 1.368 2.381 1.015 1.358-.32 1.45.125 2.248-1.019 2.06-2.953 3.358-6.324 3.722-9.906.155-1.52-.387-3.88-.387-3.88s-1.678.665-2.95 1.908c-2.69 2.626-5.634 5.79-6.348 9.48z" opacity="1" fill="#848484" fill-rule="evenodd" stroke="#000" stroke-width="2.5" stroke-linecap="butt" stroke-linejoin="miter" stroke-miterlimit="4" stroke-dasharray="none" stroke-opacity="1" fill-opacity="1"/><g opacity="1"><path d="M192.829 112.13s-16.814 12.555-25 16.098c-7.77 3.362-19.619 3.45-27.377 6.838-7.832 3.42-17.663 9.683-23.85 15.578-4.25 4.05-8.444 10.821-11.48 15.844-2.783 4.605-3.95 12.491-7.97 16.068-1.614 1.437-4.642 2.14-6.784 2.428-4.805.646-11.502-2.732-16.113-1.237-4.323 1.402-9.643 5.677-11.548 9.803-1.071 2.32-1.242 6.291.015 8.515 1.39 2.462 8.064 4.877 8.064 4.877s-2.198-5.803-1.165-7.996c.825-1.751 3.588-3.19 5.518-3.347 2.894-.237 6.197 2.786 8.982 3.609 3.425 1.012 8.125 1.997 11.685 2.28 2.668.213 8.918-.303 8.918-.303s-3.984 7.863-3.662 11.457c.247 2.76 3.828 5.436 4.33 8.162.476 2.584.05 6.318-1.078 8.69-1.914 4.025-10.28 10.721-10.28 10.721s11.507-1.564 15.585-4.17c3.49-2.23 7.375-6.73 8.842-10.603 1.389-3.667-1.435-9.588.38-13.062 2.303-4.41 13.331-9.863 13.331-9.863s-.935 8.63-.61 12.314c.218 2.486 2.816 5.806 1.855 8.11-1.29 3.09-7.536 3.161-9.483 5.886-1.958 2.738-2.54 7.57-2.513 10.936.02 2.4.625 5.74 1.913 7.765 1.944 3.054 6.088 6.098 9.393 7.578 1.15.515 4.144.683 4.144.683s-6.28-5.63-7.036-8.963c-.42-1.846.301-4.597 1.37-6.16 1.3-1.9 4.402-3.088 6.379-4.269 2.83-1.69 7.24-2.959 9.715-5.138 2.537-2.235 5.114-6.127 6.485-9.218 1.45-3.269 2.626-11.627 2.626-11.627s-1.317 6.317-.124 9.568c.717 1.951 4.256 5.67 5.103 7.57.691 1.548 1.655 3.882 1.218 5.52-.547 2.055-3.386 3.628-4.766 5.245-1.252 1.466-4.019 5.013-4.019 5.013s9.987-2.774 13.628-5.202c3.27-2.182 7.733-5.794 9.016-9.51.673-1.95-.339-4.806-.645-6.846-.217-1.447-.792-3.325-.987-4.774-.186-1.389-.935-3.414-.296-4.66 1.087-2.119 6.725-4.213 6.725-4.213s-1.977 4.131-2.06 6.045c-.14 3.196 2.55 10.353 2.55 10.353s1.406-5.823 3.324-7.256c3.351-2.505 9.866-.57 13.805-1.981 4.557-1.632 10.235-5.088 13.795-8.368 3.971-3.659 8.236-9.702 10.56-14.576 1.364-2.857.835-7.664 2.745-10.19 2.157-2.852 7.74-3.55 10.23-6.117 1.943-2.002 2.444-6.27 4.532-8.12 2.399-2.127 8.05-1.42 9.889-4.046 1.942-2.774.897-7.923.44-11.279-.684-5.025-5.15-16.101-5.15-16.101l1.974-22.732-9.177-15.346-50.912 5.442 5.021 8.277z" opacity="1" fill="#214263" fill-opacity="1" fill-rule="evenodd" stroke="#000" stroke-width="3" stroke-linecap="butt" stroke-linejoin="miter" stroke-miterlimit="4" stroke-dasharray="none" stroke-opacity="1"/><path d="M242.304 65.081s3.173-2.99 4.44-5.767c.773-1.694 1.284-6.948 1.402-9.58.111-2.466-.547-3.553-.547-3.553s-.966 2.878-1.898 4.293c-1.566 2.379-7.016 6.396-7.016 6.396s1.358-3.27 1.5-4.76c.44-4.602-1.767-15.31-1.767-15.31s-3.358 9.577-6.358 12.541c-2.592 2.56-5.237 1.145-8.827 1.76-8.981 1.543-24.084-3.25-34.427-.954-4.26.946-13.4 5.275-13.4 5.275s-10.788 1.821-16.298-.149c-2.023-.723-4.146-3.03-6.294-2.976-3.809.095-6.768-.469-10.011-.035-4.081.547-5.64 8.677-5.01 12.746.212 1.363 1.772 2.815 1.895 4.19.205 2.294-2.19 5.164-1.873 7.445.373 2.693 2.286 6.306 4.521 7.854 3.066 2.125 8.429 1.632 12.11 1.027 4.039-.665 8.124.36 10.792-2.745 1.075-1.252 4.549-6.036 4.549-6.036s5.398 5.444 6.201 9.424c.7 3.47-.228 8.67-2.233 11.587-2.955 4.301-9.657 8.126-14.764 9.199-4.587.964-10.922-3.38-15.466-2.226-3.606.915-7.16 1.707-8.9 4.995-1.128 2.128-2.382 6.797-1.138 8.86 1.438 2.385 5.523 1.05 6.506 3.657.556 1.476-.46 6.71-.46 6.71s6.76-2.96 8.638-5.362c1.192-1.524 1.981-6.136 1.981-6.136s14.802 3.474 21.235 4.47c4.452.689 11.895 3.03 16.2 1.7 3.37-1.04 6.472-4.48 7.742-7.77.469-1.214-.584-4.297-.584-4.297s2.518-1.032 3.512.255c2.462 3.188 2.997 6.753 2.43 10.74-.996 7.01-3.573 17.192-7.663 22.971-2.4 3.39-6.405 7.703-10.501 10.605-1.665 1.18-3.344 2.126-4.937 2.683-3.883 1.359-9.775.38-13.572 1.964-2.56 1.067-5.7 3.362-7.38 5.569-1.364 1.79-2.543 4.736-2.765 6.976-.281 2.83 1.693 9.326 1.693 9.326l3.615-6.773 13.341-3.897s16.918-.948 23.477-3.75c7.238-3.092 7.786-5.435 7.786-5.435s-2.935 8.703-11.808 14.424c-2.774 1.789-10.292 3.891-10.292 3.891s13.457 1.222 18.868-.446c6.408-1.975 14.03-7.397 18.765-12.146 4.28-4.292 12.434-20.018 12.434-20.018s-1.651-16.278-3.614-24.245c-1.068-4.334-5.875-13.668-5.875-13.668s4.615 9.557 5.817 13.92c2.662 9.666 4.722 33.083 4.722 33.083s7.093-13.631 8.873-19.929c1.31-4.632 2.597-11.116 2.114-15.906-.412-4.084-4.473-12.929-4.473-12.929s3.7 9.136 4.36 13.275c.75 4.707-1.951 11.528-.023 15.886 2.244 5.073 8.237 11.458 13.7 12.418 2.26.397 5.324-1.42 7.081-2.897 2.374-1.993 5.356-5.647 5.505-8.744.099-2.042-3.06-6.092-3.06-6.092s-2.613 4.495-4.152 5.737c-1.334 1.076-3.417.23-4.71-.896-1.155-1.007-.331-4.877-.324-6.41.038-7.573 5.989-15.519 4.402-21.935-.54-2.185-2.518-8.098-4.794-10.147-1.488-1.34-7.382-5.21-7.382-5.21s4.682-2.023 6.173-3.554c3.217-3.305 5.817-9.162 7.31-13.526 1.07-3.13 1.793-10.88 1.793-10.88s-10.134-1.328-14.505-1.375c-2.521-.027-8.382.612-8.382.612z" opacity="1" fill="#214263" fill-opacity="1" fill-rule="evenodd" stroke="#000" stroke-width="3" stroke-linecap="butt" stroke-linejoin="miter" stroke-miterlimit="4" stroke-dasharray="none" stroke-opacity="1"/><g opacity="1" fill-opacity="1" fill-rule="evenodd"><path d="M185.94 66.069a7.36 12.505-56.97 1020.967 13.632 7.36 12.505-56.97 10-20.967-13.632z" style="marker:none" fill="#848484" stroke="#000" stroke-width="2.5" stroke-linecap="butt" stroke-linejoin="miter" marker-start="none" marker-mid="none" marker-end="none" stroke-miterlimit="4" stroke-dasharray="none" stroke-dashoffset="0" stroke-opacity="1" visibility="visible" display="inline" overflow="visible"/><path d="M201.488 71.013a8.007 8.007 0 11-15.802-2.604 8.007 8.007 0 1115.802 2.604z" style="marker:none" fill="#848484" stroke="#000" stroke-width="2.5" stroke-linecap="butt" stroke-linejoin="miter" marker-start="none" marker-mid="none" marker-end="none" stroke-miterlimit="4" stroke-dasharray="none" stroke-dashoffset="0" stroke-opacity="1" visibility="visible" display="inline" overflow="visible"/><path d="M195.357 63.02c-.595-.1-1.145-.094-1.69-.12-1.091-.05-2.025-.017-2.025-.017l.217 3.488s.76-.023 1.644.018c.884.041 1.948.366 1.794.264-.07-.046.5.852.526 1.037.08.593-.368 2.682-.745 3.207-.132.184-1.055.76-1.108.767.27-.041-.594-.108-1.213-.326-.62-.219-1.131-.44-1.131-.44s-1.713-.496-2.055.035c-.453.703.58 2.726.58 2.726s.66.276 1.46.558c.8.282 1.597.678 2.899.478 1.551-.24 2.612-1.025 3.428-2.16 1.094-1.522 1.612-3.414 1.352-5.319-.186-1.353-.694-2.57-2.056-3.474a4.7 4.7 0 00-1.877-.721z" fill="#000"/><path d="M194.798 57.488s-2.794-.024-3.994.24c-2.356.52-4.916 2.156-5.59 4.472-.354 1.211-.048 2.34.705 3.352.81 1.088 2.379 1.229 3.706 1.51 1.944.411 4.628-.73 6.502-.187 2.699.783 5.99 3.058 7.766 5.235.83 1.018.698 3.165 1.67 4.05.872.796 2.635 1.512 3.763 1.16 1.16-.362 2.013-2.072 2.502-3.183.236-.536.389-1.344.317-1.925-.108-.88-.67-1.98-1.17-2.71-.626-.914-2.63-2.59-2.63-2.59" fill="#214263" stroke="#000" stroke-width="2.5" stroke-linecap="butt" stroke-linejoin="miter" stroke-miterlimit="4" stroke-dasharray="none" stroke-opacity="1"/></g><path d="M141.806 67.058s5.803-5.897 8.152-6.446c2.35-.548 3.153-.284 3.458.57.305.854-.033 2.067-1.928 3.41-1.896 1.343-9.682 2.466-9.682 2.466z" opacity="1" fill="none" stroke="#000" stroke-width="2.5" stroke-linecap="butt" stroke-linejoin="miter" stroke-miterlimit="4" stroke-dasharray="none" stroke-opacity="1"/><path d="M240.019 76.39s3.403-3.884 5.4-4.646c3.149-1.201 11.233-.208 11.233-.208s.211 7.204-1.968 8.815c-1.076.796-3.36-1.126-4.448-.347-1.43 1.025-.01 4.673-1.451 5.683-.97.679-3.927-.39-3.927-.39s.869-4.93-.2-6.598c-.838-1.31-4.64-2.31-4.64-2.31z" opacity="1" fill="#000" fill-rule="evenodd" stroke="#000" stroke-width="2.5" stroke-linecap="butt" stroke-linejoin="miter" stroke-miterlimit="4" stroke-dasharray="none" stroke-opacity="1"/><path d="M232.297 77.734s-7.202 10.016-11.416 13.077c-2.224 1.615-5.705 3.213-8.428 3.596-5.223.737-18.32-.514-18.32-.514l-.974.896s15.18-1.37 18.723 3.086c1.319 1.658.727 5.286-.45 7.049-1.007 1.508-3.382 3.45-5.067 4.12-2.629 1.046-9.236 1.756-9.236 1.756M218.992 132.525s-.563 8.48-1.943 11.788c-2.178 5.222-5.352 9.523-8.95 13.89-1.45 1.76-5.189 5.555-5.189 5.555" opacity="1" fill="none" stroke="#000" stroke-width="2.5" stroke-linecap="butt" stroke-linejoin="miter" stroke-miterlimit="4" stroke-dasharray="none" stroke-opacity="1"/><path d="M119.958 188.855s-6.943 3.173-9.627 5.313c-1.985 1.583-5.95 7.078-5.95 7.078M186.164 189.083s-12.7 1.84-18.258 4.423c-2.572 1.195-5.204 4.19-6.82 6.522-2.526 3.643-4.862 10.801-4.862 10.801M181.717 207.68s7.964-5.607 11.168-7.517c4.32-2.575 11.893-3.08 15.355-6.729 2.22-2.34 3.795-10.059 3.795-10.059" fill="none" stroke="#000" stroke-width="2.5" stroke-linecap="butt" stroke-linejoin="miter" stroke-miterlimit="4" stroke-dasharray="none" stroke-opacity="1"/><path d="M124.4 153.26s-2.098 9.396-4.252 12.833c-3.203 5.11-9.232 10.929-14.417 14.006-2.838 1.684-10.509 3.254-10.509 3.254s0 0 0 0" opacity="1" fill="none" stroke="#000" stroke-width="2.5" stroke-linecap="butt" stroke-linejoin="miter" stroke-miterlimit="4" stroke-dasharray="none" stroke-opacity="1"/></g><path d="M131.385 204.599s3.647-8.46 6.085-11.808c1.59-2.183 6.691-6.02 6.691-6.02" opacity="1" fill="none" stroke="#000" stroke-width="2.5" stroke-linecap="butt" stroke-linejoin="miter" stroke-miterlimit="4" stroke-dasharray="none" stroke-opacity="1"/></g></g></svg>