<?xml version="1.0" encoding="UTF-8" standalone="no"?>
<!-- Created with Inkscape (http://www.inkscape.org/) -->
<svg
   xmlns:dc="http://purl.org/dc/elements/1.1/"
   xmlns:cc="http://creativecommons.org/ns#"
   xmlns:rdf="http://www.w3.org/1999/02/22-rdf-syntax-ns#"
   xmlns:svg="http://www.w3.org/2000/svg"
   xmlns="http://www.w3.org/2000/svg"
   xmlns:sodipodi="http://sodipodi.sourceforge.net/DTD/sodipodi-0.dtd"
   xmlns:inkscape="http://www.inkscape.org/namespaces/inkscape"
   width="420"
   height="350"
   id="svg2"
   sodipodi:version="0.32"
   inkscape:version="0.46"
   sodipodi:docname="Lion_Passant_Guardant.svg"
   inkscape:output_extension="org.inkscape.output.svg.inkscape"
   version="1.0">
  <defs
     id="defs4">
    <inkscape:perspective
       sodipodi:type="inkscape:persp3d"
       inkscape:vp_x="0 : 526.18109 : 1"
       inkscape:vp_y="0 : 1000 : 0"
       inkscape:vp_z="744.09448 : 526.18109 : 1"
       inkscape:persp3d-origin="372.04724 : 350.78739 : 1"
       id="perspective10" />
    <inkscape:perspective
       id="perspective2498"
       inkscape:persp3d-origin="372.04724 : 350.78739 : 1"
       inkscape:vp_z="744.09448 : 526.18109 : 1"
       inkscape:vp_y="0 : 1000 : 0"
       inkscape:vp_x="0 : 526.18109 : 1"
       sodipodi:type="inkscape:persp3d" />
  </defs>
  <sodipodi:namedview
     id="base"
     pagecolor="#ffffff"
     bordercolor="#666666"
     borderopacity="1.0"
     gridtolerance="10000"
     guidetolerance="10"
     objecttolerance="10"
     inkscape:pageopacity="0.0"
     inkscape:pageshadow="2"
     inkscape:zoom="1.4228571"
     inkscape:cx="67.680707"
     inkscape:cy="174.99998"
     inkscape:document-units="px"
     inkscape:current-layer="layer3"
     showgrid="false"
     inkscape:window-width="1280"
     inkscape:window-height="713"
     inkscape:window-x="0"
     inkscape:window-y="0"
     showguides="true"
     inkscape:guide-bbox="true" />
  <metadata
     id="metadata7">
    <rdf:RDF>
      <cc:Work
         rdf:about="">
        <dc:format>image/svg+xml</dc:format>
        <dc:type
           rdf:resource="http://purl.org/dc/dcmitype/StillImage" />
      </cc:Work>
    </rdf:RDF>
  </metadata>
  <g
     inkscape:groupmode="layer"
     id="layer3"
     inkscape:label="Main"
     style="opacity:1">
    <g
       id="g8735"
       transform="translate(4.4207746,6.3200732)">
      <g
         id="g8632">
        <g
           id="g8301"
           transform="translate(-29.584479,-71.84802)">
          <g
             id="g8182">
            <path
               style="fill:#f8de00;fill-opacity:1;fill-rule:evenodd;stroke:#000000;stroke-width:3;stroke-linecap:butt;stroke-linejoin:miter;stroke-miterlimit:4;stroke-dasharray:none;stroke-opacity:1"
               d="M 77.143693,175.33005 C 77.143693,175.33005 80.809805,163.5868 84.972632,161.00882 C 86.239825,160.22407 87.961362,161.4511 89.937326,160.81787 C 92.062062,160.13697 96.795684,158.96003 97.384365,156.80792 C 97.986664,154.60602 95.092968,149.55183 95.092968,149.55183 C 95.092968,149.55183 88.486214,143.92411 84.972632,143.44144 C 81.144925,142.91562 72.5609,146.87854 72.5609,146.87854 L 70.078553,157.18982 L 77.143693,175.33005 z"
               id="path8115"
               sodipodi:nodetypes="cssscsccc" />
            <path
               style="fill:#f8de00;fill-opacity:1;fill-rule:evenodd;stroke:#000000;stroke-width:3;stroke-linecap:butt;stroke-linejoin:miter;stroke-miterlimit:4;stroke-dasharray:none;stroke-opacity:1"
               d="M 254.58692,349.27677 C 254.58692,349.27677 240.49486,351.42236 237.18928,348.05893 C 236.16231,347.01398 236.91376,345.39662 236.3194,344.05747 C 235.61557,342.47167 234.56398,341.11975 232.83987,340.9259 C 230.10667,340.61859 227.47798,344.13957 226.05479,346.49315 C 224.15487,349.6351 223.96707,357.80162 223.96707,357.80162 L 229.53432,365.10862 L 246.59969,363.91235 L 254.58692,349.27677 z"
               id="path8117"
               sodipodi:nodetypes="csssscccc" />
            <path
               style="fill:#f8de00;fill-opacity:1;fill-rule:evenodd;stroke:#000000;stroke-width:3;stroke-linecap:butt;stroke-linejoin:miter;stroke-miterlimit:4;stroke-dasharray:none;stroke-opacity:1"
               d="M 363.51738,271.9294 C 363.51738,271.9294 332.87055,294.66696 321.84248,306.62722 C 319.21049,309.48169 315.39692,313.4604 314.39391,317.21132 C 313.5149,320.49852 314.2661,325.30627 315.42079,328.50706 C 316.7012,332.05636 318.96856,337.66036 322.54094,338.87489 C 325.80481,339.98453 333.4717,335.33028 333.4717,335.33028 C 333.4717,335.33028 329.59422,343.05545 326.54951,344.83825 C 324.30163,346.15447 320.48662,346.34285 317.9269,345.85994 C 316.00358,345.49709 312.17311,342.78448 312.17311,342.78448 C 312.17311,342.78448 312.23003,347.39244 311.12878,349.15298 C 309.66365,351.49526 304.80671,354.97198 304.80671,354.97198 C 304.80671,354.97198 304.9538,351.51129 304.91292,350.12003 C 304.8433,347.75079 304.22359,344.98292 302.96208,342.97625 C 302.1994,341.76306 298.78649,340.65648 298.78649,340.65648 C 298.78649,340.65648 300.29317,343.17315 300.64231,344.36811 C 301.38807,346.92054 301.93552,350.5493 301.57021,353.18324 C 301.36427,354.66811 299.55915,356.33176 299.7144,357.82278 C 299.92229,359.81936 299.78921,360.98313 301.51432,362.00955 C 302.83551,362.79564 304.59365,363.77399 305.98058,363.11074 C 306.88605,362.67773 309.03243,361.81867 309.32328,360.85805 C 309.56528,360.05876 310.38534,358.28673 310.38534,358.28673 C 310.38534,358.28673 311.71786,361.09932 311.56874,363.72365 C 311.48771,365.14963 310.29558,366.52003 309.75929,367.35341 C 309.48127,367.78543 308.6489,369.69835 306.40465,370.30319 C 304.22251,370.8913 301.58605,370.60378 301.09508,370.51165 C 301.09508,370.51165 296.75511,370.25532 295.15903,369.3977 C 292.71267,368.0832 290.12997,365.14184 288.71365,362.75299 C 287.92404,361.42118 288.03766,359.11688 287.18764,357.82278 C 286.48314,356.75023 284.58844,356.14638 283.93996,355.03905 C 283.22266,353.8142 283.22446,353.90432 283.22446,353.90432 C 283.22446,353.90432 284.51305,354.1347 285.09928,356.43132 C 285.7488,358.97589 287.18764,365.71 287.18764,365.71 L 280.99894,364.68576 L 276.902,361.40272 C 276.902,361.40272 275.49922,360.32259 275.58878,359.6786 C 275.68464,358.9893 277.21176,358.94256 277.4446,358.28673 C 278.02062,356.66431 275.58889,354.57469 275.58889,354.57469 C 275.58889,354.57469 277.84458,356.77482 277.25195,358.41843 C 277.03581,359.01787 275.6131,359.10282 275.58878,359.73957 C 275.50089,362.04114 278.19456,362.94972 281.21874,364.9595 C 283.41647,366.42006 286.15335,367.29543 286.72368,368.95768 C 287.23871,370.45875 285.33182,374.06118 285.33182,374.06118 L 274.19692,379.62863 C 274.19692,379.62863 269.32065,379.82015 267.70156,378.70072 C 265.08835,376.89397 260.51073,369.88548 260.51073,369.88548 L 259.81434,370.34954 L 259.81434,377.30886 C 259.81434,377.30886 265.16517,382.20412 264.45388,384.73212 C 263.9481,386.5297 258.88643,387.51585 258.88643,387.51585 L 244.50385,388.44376 C 244.50385,388.44376 241.30866,386.21974 240.79222,384.73212 C 240.01086,382.48141 241.72013,376.8449 241.72013,376.8449 L 236.15268,378.70072 C 236.15268,378.70072 234.0526,385.7233 231.51313,387.05189 C 230.2737,387.70033 228.18712,387.06887 226.87359,386.58794 C 224.33584,385.65877 219.45033,381.48444 219.45033,381.48444 L 215.27474,363.85418 C 215.27474,363.85418 217.53003,360.86765 218.98637,360.60651 C 222.06509,360.05446 228.72941,364.31814 228.72941,364.31814 C 228.72941,364.31814 239.16697,361.2179 242.64803,358.28673 C 246.33929,355.17856 248.36239,348.52954 251.46316,344.83206 C 253.55108,342.34233 256.59209,339.12636 259.35038,337.4088 C 260.35987,336.7802 261.88195,336.16408 263.06202,336.01693 C 265.56342,335.70501 268.97814,336.29306 271.41319,336.94484 C 273.76131,337.57335 276.43329,339.82716 278.83646,340.19252 C 280.08253,340.38196 283.01205,339.72857 283.01205,339.72857 C 283.01205,339.72857 274.51454,337.98508 270.94924,336.94484 C 266.55414,335.66248 261.11174,332.39241 256.56666,331.84135 C 255.17803,331.67299 253.23558,332.79986 251.92712,332.3053 C 249.43972,331.36513 246.86768,328.28509 245.89571,325.80994 C 245.74309,325.42128 246.19097,324.71334 245.89571,324.41808 C 244.8131,323.33547 242.26484,324.837 240.79222,324.41808 C 237.48576,323.47747 233.39363,320.90083 231.04918,318.38667 C 229.01108,316.20104 226.40145,312.55999 226.40964,309.57155 C 226.41612,307.20539 228.47273,304.3096 230.12127,302.61223 C 232.46673,300.19729 239.86431,297.04478 239.86431,297.04478 C 239.86431,297.04478 236.53527,301.66907 236.15268,304.0041 C 235.87889,305.67509 236.0746,308.2095 237.08058,309.57155 C 237.63529,310.3226 238.95943,310.73326 239.86431,310.96341 C 243.77849,311.95894 253.31898,311.42736 253.31898,311.42736 C 253.31898,311.42736 257.49856,303.70302 259.81434,300.75642 C 262.73348,297.04211 267.18527,292.47634 270.94924,289.62152 C 272.98504,288.07745 276.03641,286.48097 278.37251,285.44593 C 281.18942,284.19786 285.78797,284.21694 288.11554,282.19825 C 289.52626,280.97474 290.2223,278.37115 290.89927,276.6308 C 291.63395,274.74208 292.78822,272.16175 292.75509,270.13544 C 292.68817,266.0424 288.5795,257.14472 288.5795,257.14472 C 288.5795,257.14472 182.9977,304.27268 134.93781,302.78263 C 126.10543,302.50879 114.48645,297.77003 107.27556,292.66229 C 103.6381,290.08574 97.829915,281.19258 97.829915,281.19258 C 97.829915,281.19258 90.400409,284.90286 89.058957,287.93947 C 88.074077,290.16892 88.955544,293.72598 89.733646,296.03574 C 90.576159,298.5367 94.456469,303.45732 94.456469,303.45732 C 94.456469,303.45732 86.676384,301.13212 84.336133,298.7345 C 81.867041,296.20488 80.337066,291.39947 79.61331,287.93947 C 78.950236,284.76957 79.367081,281.76177 80.962688,278.94362 C 82.125677,276.88956 85.638834,272.73563 85.638834,272.73563 C 85.638834,272.73563 80.801601,265.19467 78.983602,261.49166 C 77.3903,258.24633 74.890486,250.15688 74.890486,250.15688 C 74.890486,250.15688 71.931297,250.83325 70.842352,251.50626 C 69.868369,252.10822 68.646647,253.17646 68.143596,254.20502 C 67.426639,255.67094 66.62455,258.2061 67.468907,259.60253 C 68.363717,261.0824 72.866419,261.6266 72.866419,261.6266 C 72.866419,261.6266 70.781796,264.18881 69.492974,264.32535 C 66.792515,264.61144 62.937663,262.51324 61.396705,260.27722 C 59.088123,256.92734 59.01903,250.71967 60.047327,246.78344 C 60.671811,244.39298 62.928576,241.68364 64.77015,240.03655 C 66.660516,238.34582 72.19173,235.98841 72.19173,235.98841 C 72.19173,235.98841 68.211693,231.59791 67.468907,229.24152 C 66.921244,227.50413 67.955169,224.92488 67.468907,223.16932 C 66.838824,220.89452 63.526671,218.7805 63.420772,216.42243 C 63.108045,209.4589 73.541108,195.50707 73.541108,195.50707 C 73.541108,195.50707 67.184605,207.73594 62.071394,209.67554 C 59.769087,210.54888 53.975125,208.32616 53.975125,208.32616 L 49.252302,195.50707 C 49.252302,195.50707 49.807658,191.02257 51.276369,190.10956 C 54.73151,187.96171 64.77015,191.45893 64.77015,191.45893 L 55.999192,188.76018 L 55.999192,178.63984 L 63.420772,175.2664 C 63.420772,175.2664 54.899195,179.72295 51.276369,178.63984 C 49.214914,178.02353 46.553546,173.24233 46.553546,173.24233 L 48.577613,163.12199 C 48.577613,163.12199 50.762238,158.49741 52.625747,158.39917 C 57.630152,158.13536 64.77015,169.86888 64.77015,169.86888 L 57.348571,161.09793 L 60.047327,157.04979 L 67.468907,164.47137 L 60.047327,156.3751 L 60.722016,148.95352 L 63.420772,148.95352 C 63.420772,148.95352 58.348967,147.65634 57.348571,146.02987 C 56.1773,144.12559 55.709936,141.40124 56.898778,139.50788 C 58.738007,136.57871 67.468907,135.00995 67.468907,135.00995 C 67.468907,135.00995 75.540345,134.69079 77.589243,136.80912 C 79.32984,138.6087 79.940498,141.07385 79.61331,143.55601 C 79.340975,145.62204 75.790071,149.40332 75.790071,149.40332 C 75.790071,149.40332 78.201316,161.62109 80.287999,166.49544 C 82.719823,172.17601 87.194125,179.23537 91.083024,184.03736 C 94.777191,188.5989 101.57417,192.95601 105.25149,197.53114 C 110.88394,204.53873 116.67951,215.16282 120.76934,223.16932 C 125.96811,233.34676 135.6125,258.25315 135.6125,258.25315 L 261.77936,229.91621 L 316.42917,231.94028 L 353.53707,247.45813 L 363.51738,271.9294 z"
               id="path8042"
               sodipodi:nodetypes="csssscsscscsscsssssscsssssssscscccsscssssccscccsccsccssccscsssssscssssssssscssscsssssscsscsscssscscssscsssscssscsccsccccsccscccccccsscsscssssccccc" />
            <path
               style="fill:none;fill-rule:evenodd;stroke:#000000;stroke-width:2.5;stroke-linecap:butt;stroke-linejoin:miter;stroke-miterlimit:4;stroke-dasharray:none;stroke-opacity:1"
               d="M 245.6096,323.6508 C 245.6096,323.6508 249.1256,322.57657 250.48004,321.7954 C 251.72258,321.07877 254.19086,318.78036 254.19086,318.78036"
               id="path8120"
               sodipodi:nodetypes="css" />
            <path
               style="fill:none;fill-rule:evenodd;stroke:#000000;stroke-width:2.5;stroke-linecap:butt;stroke-linejoin:miter;stroke-miterlimit:4;stroke-dasharray:none;stroke-opacity:1"
               d="M 262.30827,319.47614 C 262.30827,319.47614 258.96965,320.18078 257.90167,321.09962 C 256.69777,322.13539 255.48382,324.1556 255.35049,325.73814 C 255.20824,327.42649 257.20589,331.07243 257.20589,331.07243"
               id="path8122"
               sodipodi:nodetypes="csss" />
            <path
               style="fill:none;fill-rule:evenodd;stroke:#000000;stroke-width:2.5;stroke-linecap:butt;stroke-linejoin:miter;stroke-miterlimit:4;stroke-dasharray:none;stroke-opacity:1"
               d="M 265.78715,321.56347 C 265.78715,321.56347 262.77273,323.27787 262.30827,324.57851 C 261.61969,326.50678 262.69298,329.40914 263.4679,331.30436 C 263.88426,332.32265 265.55523,334.3194 265.55523,334.3194"
               id="path8124"
               sodipodi:nodetypes="csss" />
            <path
               style="fill:none;fill-rule:evenodd;stroke:#000000;stroke-width:2.5;stroke-linecap:butt;stroke-linejoin:miter;stroke-miterlimit:4;stroke-dasharray:none;stroke-opacity:1"
               d="M 272.28108,322.7231 C 272.28108,322.7231 269.47723,325.37428 269.03412,326.89777 C 268.62421,328.30711 268.95844,330.40323 269.49797,331.76821 C 270.20907,333.56723 273.44071,336.87058 273.44071,336.87058"
               id="path8126"
               sodipodi:nodetypes="csss" />
            <path
               style="fill:none;fill-rule:evenodd;stroke:#000000;stroke-width:2.5;stroke-linecap:butt;stroke-linejoin:miter;stroke-miterlimit:4;stroke-dasharray:none;stroke-opacity:1"
               d="M 259.52515,370.26792 C 259.52515,370.26792 259.93636,366.31343 260.22093,364.93363 C 260.60862,363.0538 264.62752,360.29511 264.62752,360.29511"
               id="path8128"
               sodipodi:nodetypes="css" />
            <path
               style="fill:none;fill-rule:evenodd;stroke:#000000;stroke-width:2.5;stroke-linecap:butt;stroke-linejoin:miter;stroke-miterlimit:4;stroke-dasharray:none;stroke-opacity:1"
               d="M 242.59456,375.37029 C 242.59456,375.37029 242.48658,372.62472 243.05841,371.65948 C 243.84583,370.33034 247.23308,368.64444 247.23308,368.64444"
               id="path8130"
               sodipodi:nodetypes="csc" />
            <path
               style="fill:none;fill-rule:evenodd;stroke:#000000;stroke-width:2.5;stroke-linecap:butt;stroke-linejoin:miter;stroke-miterlimit:4;stroke-dasharray:none;stroke-opacity:1"
               d="M 85.481831,273.64795 C 85.481831,273.64795 89.438972,269.84139 90.892074,268.2377 C 92.074812,266.93239 93.746966,265.23563 95.220268,264.27019 C 96.111631,263.68609 98.466414,262.82746 98.466414,262.82746"
               id="path8132"
               sodipodi:nodetypes="csss" />
            <path
               style="fill:none;fill-rule:evenodd;stroke:#000000;stroke-width:2.5;stroke-linecap:butt;stroke-linejoin:miter;stroke-miterlimit:4;stroke-dasharray:none;stroke-opacity:1"
               d="M 74.661347,250.20356 C 74.661347,250.20356 77.89484,248.97967 79.350223,248.76083 C 81.490262,248.43904 84.541052,249.52991 86.56388,248.76083 C 88.999689,247.83474 91.414247,245.01349 93.056171,242.9899 C 94.155495,241.63504 95.941634,237.94034 95.941634,237.94034"
               id="path8134"
               sodipodi:nodetypes="cssss" />
            <path
               style="fill:none;fill-rule:evenodd;stroke:#000000;stroke-width:2.5;stroke-linecap:butt;stroke-linejoin:miter;stroke-miterlimit:4;stroke-dasharray:none;stroke-opacity:1"
               d="M 71.415201,236.13693 C 71.415201,236.13693 76.712236,236.17401 78.963059,234.31145"
               id="path8136"
               sodipodi:nodetypes="cs" />
            <path
               style="fill:none;fill-rule:evenodd;stroke:#000000;stroke-width:2.5;stroke-linecap:butt;stroke-linejoin:miter;stroke-miterlimit:4;stroke-dasharray:none;stroke-opacity:1"
               d="M 74.063329,207.03967 C 74.063329,207.03967 76.885055,222.9776 82.297389,227.74881 C 86.116897,231.11587 94.686082,232.71304 94.686082,232.71304"
               id="path8152"
               sodipodi:nodetypes="css" />
            <path
               style="fill:#ffffff;fill-rule:evenodd;stroke:#000000;stroke-width:2.5;stroke-linecap:butt;stroke-linejoin:miter;stroke-miterlimit:4;stroke-dasharray:none;stroke-opacity:1"
               d="M 84.965287,148.62778 C 85.100965,150.16538 85.98881,152.26331 87.141142,153.29033 C 88.021709,154.07514 89.723193,154.80468 90.871181,154.53368 C 92.411369,154.17009 93.872843,153.63502 94.494301,152.17963 C 96.179208,148.23375 96.82114,143.18218 95.42681,139.1245 C 94.371365,136.05302 91.476983,132.21652 88.588407,130.73191 C 87.258811,130.04855 86.003648,129.46097 84.547533,129.7994 C 83.082944,130.1398 79.574148,131.66442 79.574148,131.66442 C 79.574148,131.66442 82.854913,132.84854 83.92586,133.84027 C 85.122727,134.94861 86.252371,136.94108 86.723388,138.50282 C 87.316377,140.46899 86.429158,141.92347 86.208633,143.96524 C 86.053182,145.40451 84.838042,147.18574 84.965287,148.62778 z"
               id="path8154"
               sodipodi:nodetypes="csssssscssss" />
            <path
               style="fill:#ffffff;fill-opacity:1;fill-rule:evenodd;stroke:#000000;stroke-width:2.5;stroke-linecap:butt;stroke-linejoin:miter;stroke-miterlimit:4;stroke-dasharray:none;stroke-opacity:1"
               d="M 48.179661,133.52944 C 48.179661,133.52944 49.010123,128.21771 51.288025,126.38019 C 53.583204,124.52873 57.665539,123.18521 60.61312,123.27183 C 62.62094,123.33083 65.322496,124.43085 66.829851,125.75852 C 69.711689,128.29683 72.10037,131.91791 72.735745,135.7053 C 73.002078,137.29288 73.218738,139.27826 72.424909,140.67868 C 71.512128,142.28894 69.613153,143.13912 67.762361,143.16537 C 66.437149,143.18416 64.622851,141.33948 63.721486,140.36784 C 61.399075,137.86437 61.851689,133.00783 59.058938,131.04275 C 58.189398,130.43091 56.702331,130.14684 55.639737,130.11024 C 54.689324,130.07751 53.463881,130.54541 52.531371,130.73191 C 51.132607,131.01166 48.179661,133.52944 48.179661,133.52944 z"
               id="path8156"
               sodipodi:nodetypes="cssssssssssc" />
            <path
               style="fill:#ffffff;fill-opacity:1;fill-rule:evenodd;stroke:#000000;stroke-width:2.5;stroke-linecap:butt;stroke-linejoin:miter;stroke-miterlimit:4;stroke-dasharray:none;stroke-opacity:1"
               d="M 48.801333,171.14066 C 49.758447,170.96242 51.302874,170.96946 51.909698,170.20815 C 52.783481,169.11191 52.757007,166.84076 52.220535,165.5456 C 51.461849,163.71397 50.657197,162.20204 48.801334,161.50473 C 47.753824,161.11114 43.015919,162.05856 41.962929,162.43724 C 39.345121,163.37867 37.690617,164.65242 36.367873,167.09978 C 35.163366,169.32837 34.676846,173.07532 35.435363,175.49237 C 36.028979,177.38395 38.177427,179.30838 39.787074,180.46575 C 40.771323,181.17345 43.517112,182.01993 43.517112,182.01993 C 43.517112,182.01993 41.781065,176.99117 42.273766,174.87069 C 42.560825,173.63525 43.653132,172.06999 44.760458,171.45149 C 45.821944,170.8586 47.606038,171.36325 48.801333,171.14066 z"
               id="path8158"
               sodipodi:nodetypes="cssssssscsss" />
            <path
               style="fill:#ffffff;fill-opacity:1;fill-rule:evenodd;stroke:#000000;stroke-width:2.5;stroke-linecap:butt;stroke-linejoin:miter;stroke-miterlimit:4;stroke-dasharray:none;stroke-opacity:1"
               d="M 51.288025,196.00758 C 52.547457,195.08166 55.165423,196.44717 56.26141,197.56176 C 57.419966,198.73998 58.166547,201.23127 57.815592,202.84598 C 57.422464,204.65473 55.34768,206.53287 53.774717,207.50853 C 51.564373,208.87954 47.950823,210.09317 45.382132,209.68438 C 42.648689,209.24937 39.235204,206.95234 37.611219,204.711 C 35.859534,202.29341 34.953523,198.05566 35.124526,195.07507 C 35.198921,193.77837 36.678709,191.03419 36.678709,191.03419 C 36.678709,191.03419 37.864153,195.33283 39.165401,196.62925 C 40.96972,198.42687 44.402513,199.78985 46.936314,200.04845 C 48.264565,200.18401 50.536712,196.55994 51.288025,196.00758 z"
               id="path8160"
               sodipodi:nodetypes="csssssscsss" />
            <path
               style="fill:#ffffff;fill-rule:evenodd;stroke:#000000;stroke-width:2.5;stroke-linecap:butt;stroke-linejoin:miter;stroke-miterlimit:4;stroke-dasharray:none;stroke-opacity:1"
               d="M 226.06652,355.86293 C 224.12809,356.05896 221.66705,354.50895 219.71882,354.49046 C 216.78168,354.46259 210.11149,356.37761 210.11149,356.37761 C 210.11149,356.37761 213.1547,352.18775 214.91515,350.88771 C 217.04646,349.3138 220.33011,347.3624 222.97845,347.28496 C 225.01365,347.22545 227.98007,348.15916 229.32615,349.68679 C 230.20096,350.67959 230.9434,352.79031 230.35551,353.97578 C 229.73096,355.23517 227.46513,355.72149 226.06652,355.86293 z"
               id="path8162"
               sodipodi:nodetypes="cscsssss" />
            <path
               style="fill:#ffffff;fill-opacity:1;fill-rule:evenodd;stroke:#000000;stroke-width:2.5;stroke-linecap:butt;stroke-linejoin:miter;stroke-miterlimit:4;stroke-dasharray:none;stroke-opacity:1"
               d="M 218.34996,369.5956 C 219.83464,369.54851 221.845,370.09658 223.16179,370.81508 C 224.50796,371.54959 226.55906,372.78796 226.95295,374.32106 C 227.20413,375.2987 226.51324,376.71236 225.93226,377.52218 C 225.51726,378.10063 224.67951,378.62726 224.03668,378.89409 C 222.6797,379.45734 220.48562,378.88655 219.22482,379.65626 C 218.12158,380.3298 217.0891,381.92831 216.60019,383.16225 C 215.90876,384.9073 215.39876,385.70348 215.57949,387.58284 C 215.71787,389.0217 217.47507,393.37534 217.47507,393.37534 C 217.47507,393.37534 212.5521,391.13324 211.20508,389.56449 C 209.23685,387.27225 208.00456,384.40989 208.143,381.33303 C 208.23045,379.38963 209.51239,376.95015 210.62184,375.3881 C 211.99084,373.46061 214.44069,371.35946 216.45437,370.20534 C 216.97609,369.90632 217.75524,369.61446 218.34996,369.5956 z"
               id="path8164"
               sodipodi:nodetypes="cssssssscsssss" />
            <path
               style="fill:#ffffff;fill-opacity:1;fill-rule:evenodd;stroke:#000000;stroke-width:2.5;stroke-linecap:butt;stroke-linejoin:miter;stroke-miterlimit:4;stroke-dasharray:none;stroke-opacity:1"
               d="M 247.65564,383.98824 C 248.20354,383.31828 249.40481,382.79451 250.26988,382.76826 C 252.40491,382.70348 255.69109,383.61647 256.89262,385.3825 C 257.80435,386.72259 257.23433,389.20086 256.89262,390.78526 C 256.38449,393.1413 255.04936,396.19364 253.58125,398.10513 C 252.22333,399.87316 247.82992,402.81076 247.82992,402.81076 C 247.82992,402.81076 248.94343,397.68907 248.70133,395.49089 C 248.47686,393.45274 246.53919,391.09029 246.43566,389.04243 C 246.3569,387.48462 246.66818,385.19568 247.65564,383.98824 z"
               id="path8166"
               sodipodi:nodetypes="csssscsss" />
            <path
               style="fill:#ffffff;fill-opacity:1;fill-rule:evenodd;stroke:#000000;stroke-width:2.5;stroke-linecap:butt;stroke-linejoin:miter;stroke-miterlimit:4;stroke-dasharray:none;stroke-opacity:1"
               d="M 276.76084,372.83415 C 277.85752,371.23365 281.10238,371.09467 283.03502,371.26561 C 284.69019,371.41201 285.77305,372.10823 286.86923,373.357 C 288.30967,374.99795 289.16712,378.15462 288.96062,380.32831 C 288.83234,381.67861 287.79381,383.34437 286.86923,384.33681 C 285.78119,385.5047 285.0665,386.77827 283.55786,387.29961 C 281.817,387.9012 277.45797,387.99674 277.45797,387.99674 C 277.45797,387.99674 280.2185,385.07533 280.59506,383.46539 C 281.00428,381.71581 280.65058,379.07903 279.72365,377.53978 C 279.22193,376.70663 277.60208,376.4612 277.10941,375.62267 C 276.68234,374.89578 276.2843,373.52961 276.76084,372.83415 z"
               id="path8168"
               sodipodi:nodetypes="cssssscssss" />
          </g>
        </g>
        <g
           id="g7971"
           transform="translate(-29.584479,-71.84802)">
          <g
             style="fill:#f8c300;fill-opacity:1"
             id="g3339">
            <path
               style="fill:#f8de00;fill-opacity:1;fill-rule:evenodd;stroke:#000000;stroke-width:3;stroke-linecap:butt;stroke-linejoin:miter;stroke-miterlimit:4;stroke-dasharray:none;stroke-opacity:1"
               d="M 293.24787,262.97598 C 289.05389,264.64325 284.62796,269.17118 281.66359,272.57438 C 280.05282,274.42359 277.36086,279.52495 277.36086,279.52495 C 277.36086,279.52495 283.87945,278.77665 286.62828,278.20103 C 292.07503,277.06046 298.94457,273.53978 304.50118,273.23634 C 309.42366,272.96753 315.98277,274.51687 320.71918,275.88418 C 326.1056,277.43913 337.93011,283.16573 337.93011,283.16573 C 337.93011,283.16573 326.79421,264.65805 318.7333,261.32108 C 311.65417,258.39054 300.36764,260.1456 293.24787,262.97598 z"
               id="path3303"
               sodipodi:nodetypes="cscssscss" />
          </g>
          <path
             sodipodi:nodetypes="csssccccss"
             id="path7806"
             d="M 84.673704,349.77447 C 85.463289,348.72923 86.901488,347.54208 88.142266,347.12204 C 89.127887,346.78837 90.613993,346.82354 91.610827,347.12204 C 94.27802,347.92073 96.770726,351.20979 99.364082,352.22287 C 103.58196,353.87056 114.25849,354.67126 114.25849,354.67126 L 102.93466,367.93341 L 84.979754,369.56567 L 81.715225,363.95477 C 81.715225,363.95477 81.267892,359.42491 81.613209,357.52773 C 82.061006,355.06752 83.166423,351.76978 84.673704,349.77447 z"
             style="fill:#f8de00;fill-opacity:1;fill-rule:evenodd;stroke:#000000;stroke-width:3;stroke-linecap:butt;stroke-linejoin:miter;stroke-miterlimit:4;stroke-dasharray:none;stroke-opacity:1" />
          <path
             id="path7808"
             d="M 84.775721,349.87649 L 84.775721,349.87649 z"
             style="fill:#f8c300;fill-opacity:1;fill-rule:evenodd;stroke:#000000;stroke-width:1px;stroke-linecap:butt;stroke-linejoin:miter;stroke-opacity:1" />
          <path
             sodipodi:nodetypes="csssccccc"
             id="path7851"
             d="M 381.40402,356.96939 C 381.40402,356.96939 372.41326,358.00447 369.16769,356.27677 C 366.94219,355.09208 366.33032,350.73486 364.08846,349.58142 C 361.93198,348.4719 358.22338,348.36416 356.00787,349.35054 C 354.34699,350.08999 352.08301,353.96802 352.08301,353.96802 L 356.23874,365.7426 L 362.01059,366.6661 L 371.84583,366.4814 L 381.40402,356.96939 z"
             style="fill:#f8de00;fill-opacity:1;fill-rule:evenodd;stroke:#000000;stroke-width:3;stroke-linecap:butt;stroke-linejoin:miter;stroke-miterlimit:4;stroke-dasharray:none;stroke-opacity:1" />
          <path
             sodipodi:nodetypes="ccccsccsccsssssccssssccsscscccsscscssscssccccsssssssssscssscssscssscscscssccssccccscscccscccsscsscsscsscsscsssscssscsssscssssscssscsssssscsssssssssscssscssssscsssssscssssscsssssssssssscssscsssscsssscssssssssscssssccc"
             id="path3268"
             d="M 178.43192,219.88499 L 108.905,344.17205 L 100.90633,363.86109 L 94.753502,365.09165 C 94.753502,365.09165 86.963524,362.50156 83.678417,363.2458 C 81.480959,363.74363 77.525593,367.55278 77.525593,367.55278 L 84.2937,382.93484 C 84.2937,382.93484 87.569137,385.27893 89.21596,385.39597 C 90.962678,385.52011 94.753502,383.55013 94.753502,383.55013 L 97.214632,378.01258 C 97.214632,377.03098 109.4414,367.15395 112.38563,366.32043 C 113.09605,366.11931 113.0768,364.11899 112.38563,363.8593 C 111.63168,363.57601 110.61704,366.10136 109.10505,367.5341 C 107.13213,369.40362 106.65835,371.04159 105.6948,371.82395 C 101.9998,374.82409 102.3165,375.29219 101.52161,379.24315 C 101.17622,380.95987 103.36746,384.78069 103.36746,384.78069 L 123.0565,387.24182 C 123.0565,387.24182 129.25181,383.7726 129.8246,381.089 C 130.4975,377.93638 126.17766,374.39982 125.51763,371.24448 C 125.02632,368.89571 123.15126,363.64378 125.51763,363.2458 C 127.76511,362.86782 124.37973,367.69616 125.18018,371.32005 C 126.16345,375.77159 131.05517,379.24315 131.05517,379.24315 L 139.05384,379.85843 C 139.05384,379.85843 147.83406,372.56414 149.51364,368.16806 C 149.77715,367.47835 149.96043,366.29474 149.51364,365.70693 C 147.42697,362.96162 138.43856,362.63052 138.43856,362.63052 C 138.43856,362.63052 138.09055,361.19999 138.64782,360.37687 C 139.88963,358.54269 144.59138,359.55411 144.59138,359.55411 L 146.43723,346.63318 L 149.51364,354.63185 C 149.51364,354.63185 153.78336,348.78502 154.84192,345.2005 C 155.62609,342.5451 155.71748,338.59795 154.84192,335.97126 C 154.25821,334.22014 154.02989,332.28315 154.02989,332.28315 C 154.02989,332.28315 158.32658,335.97451 159.76597,339.04767 C 160.63074,340.89399 159.96987,346.84424 159.96987,346.84424 C 159.96987,346.84424 162.58114,343.68847 163.2469,342.08897 C 164.66246,338.68812 166.02174,333.66866 165.51099,330.02055 C 165.1104,327.15925 162.98207,323.68388 161.20401,321.40659 C 159.10941,318.72388 158.3494,317.93133 158.3494,317.93133 C 158.3494,317.93133 159.63373,318.06845 161.52349,319.40495 C 163.6052,320.87719 166.37767,323.67313 167.97212,326.32885 C 169.51881,328.90503 169.81796,336.17337 169.81796,336.17337 L 173.03261,329.86076 L 174.12494,322.63716 L 171.66381,306.63982 C 171.66381,306.63982 180.72721,295.17568 186.43059,293.71888 C 193.02599,292.03423 201.77747,298.87044 208.58076,298.64114 C 215.11875,298.42078 223.40352,294.85946 229.50037,292.48832 C 239.27145,288.68822 251.25329,281.25905 260.87977,277.10626 C 268.12024,273.98278 277.79884,269.61199 285.49107,267.87702 C 293.98456,265.96133 306.065,262.92972 314.40935,265.41589 C 319.57591,266.95525 325.98238,271.75657 328.56084,276.49097 C 332.46139,283.65291 329.68181,294.94305 329.78005,303.09768 C 329.79643,304.45729 327.38694,306.25287 327.65415,310.55109 C 327.93227,315.02476 330.86435,322.00265 329.65319,323.2461 C 327.52908,325.42684 321.28529,326.63366 321.28529,326.63366 C 321.28529,326.63366 324.32702,329.24076 328.00092,329.76575 C 330.92911,330.18418 334.54201,328.6571 335.28127,327.95477 C 337.1237,326.20439 338.63918,322.76315 339.02065,322.02188 C 340.96329,318.24696 339.02065,307.87038 339.02065,307.87038 C 339.02065,307.87038 339.22925,323.48676 343.32762,328.1747 C 345.1337,330.24059 348.36089,330.25406 349.87084,332.54532 C 351.49912,335.01617 353.04193,337.85621 351.06746,340.06026 C 348.19216,343.26987 342.86935,345.88635 342.86935,345.88635 C 342.86935,345.88635 347.73018,347.45594 352.20042,346.31068 C 354.98205,345.59804 357.42025,343.6613 358.70969,341.09563 C 361.5582,335.42779 362.78931,326.43958 361.7861,320.17603 C 361.19862,316.50808 356.24856,309.10095 356.24856,309.10095 C 356.24856,309.10095 360.58893,323.09201 365.47779,326.32885 C 368.87774,328.57991 376.16674,328.07711 376.16674,328.07711 C 376.16674,328.07711 372.61854,334.76546 371.63062,338.6345 C 370.07192,344.73891 373.47647,359.55411 373.47647,359.55411 C 373.47647,359.55411 365.43982,362.82541 361.7861,363.2458 C 359.39518,363.52089 355.93565,361.54548 353.78743,362.63052 C 352.23308,363.41561 350.71101,367.55278 350.71101,367.55278 L 359.32497,382.93484 C 359.32497,382.93484 364.21021,385.01025 366.09308,384.16541 C 369.25961,382.7446 369.66385,377.02946 372.11436,374.28694 C 374.53693,371.57568 380.85986,367.55278 380.85986,367.55278 L 376.55288,382.31956 L 379.62929,386.62654 L 393.78079,386.62654 C 393.78079,386.62654 398.19725,381.35103 398.08777,378.62787 C 397.93763,374.89333 391.31966,368.16806 391.31966,368.16806 C 391.31966,368.16806 394.99436,368.51508 396.79356,369.52593 C 399.03498,370.78524 401.16418,374.93617 401.16418,374.93617 L 407.93229,374.93617 L 415.93096,368.78335 C 415.93096,368.78335 417.12455,363.6578 415.93096,362.01524 C 413.82312,359.11452 404.56309,358.32354 404.56309,358.32354 L 411.62398,349.70959 L 407.317,342.3262 C 407.317,342.3262 417.04619,348.05319 421.4685,347.24846 C 424.30522,346.73226 427.52962,343.65787 428.85189,341.09563 C 429.95559,338.95694 429.46717,333.09696 429.46717,333.09696 C 429.46717,333.09696 427.42646,337.19373 425.77548,338.01922 C 424.2896,338.76216 421.37761,339.22791 420.23793,338.01922 C 418.08148,335.7322 420.85322,327.55942 420.85322,327.55942 C 420.85322,327.55942 428.20484,325.80016 430.69774,323.86772 C 432.4785,322.48731 434.95515,319.9675 435.00471,317.7149 C 435.05765,315.30879 430.69774,310.94679 430.69774,310.94679 C 430.69774,310.94679 431.32854,314.52199 430.08245,315.89622 C 428.81799,317.2907 425.67384,319.0381 423.92963,318.33018 C 420.60875,316.98233 417.16152,308.48566 417.16152,308.48566 C 417.16152,308.48566 423.68163,305.23527 424.94307,301.98901 C 425.44215,300.70466 425.38918,297.46774 424.11348,295.69529 C 422.19664,293.03205 420.66326,292.28924 420.66326,292.28924 C 420.66326,292.28924 422.01194,296.54191 420.23793,298.02586 C 418.44705,299.52392 415.18165,300.67675 412.85454,300.48699 C 408.90445,300.16489 403.83814,297.25939 401.16418,294.33417 C 397.92617,290.79191 396.65953,285.74813 394.79134,281.32747 C 394.24412,280.0326 393.48016,277.55515 393.48016,277.55515 C 393.48016,277.55515 400.11633,277.09758 402.79002,275.78992 C 404.66601,274.87241 407.49784,271.15023 407.93229,269.10758 C 408.58155,266.05496 406.83982,261.06983 404.20664,259.3946 C 402.02074,258.00394 397.79278,259.12985 397.79278,259.12985 C 397.79278,259.12985 400.79976,261.85803 401.80976,263.35376 C 402.52672,264.41553 400.6481,267.22353 399.98055,268.31704 C 399.43539,269.21005 397.56983,269.15577 396.5477,268.93232 C 391.49535,267.82782 387.00164,262.81307 383.93627,258.64778 C 381.75633,255.68564 380.24457,246.95741 380.24457,246.95741 C 380.24457,246.95741 390.03559,246.23099 393.78079,244.49628 C 399.84987,241.68519 407.12836,235.79262 411.0087,230.34479 C 414.09199,226.01598 416.30323,218.97703 417.16152,213.73216 C 418.14569,207.71806 417.67716,199.41608 416.54624,193.42784 C 415.52778,188.03507 413.20524,180.91298 410.39341,176.19993 C 407.84874,171.93467 399.31833,163.89428 399.31833,163.89428 C 399.31833,163.89428 394.69133,160.99965 393.78079,158.97202 C 392.94901,157.11978 392.55807,153.8249 393.78079,152.20391 C 394.59002,151.13109 397.01495,150.16412 398.08777,150.97335 C 399.11931,151.75144 401.15994,158.35674 401.15994,158.35674 C 401.15994,158.35674 404.03115,156.74457 405.47116,154.04976 C 406.61539,151.90847 405.18173,148.28909 404.24059,146.05109 C 403.52506,144.34957 402.17634,141.99981 400.5489,141.12883 C 397.615,139.55865 392.36957,139.13218 389.10464,139.77521 C 384.89223,140.60484 380.47398,143.42347 377.66039,146.66637 C 375.63264,149.00353 373.77341,153.43097 373.47647,156.51089 C 373.31606,158.17466 373.72258,162.4176 373.72258,162.4176 C 373.72258,162.4176 352.71444,160.40255 342.71234,160.81787 C 332.71024,161.23319 318.23302,164.69801 307.64124,165.12484 C 303.21096,165.30337 297.21692,165.4053 292.87446,164.50956 C 286.29401,163.15218 277.27155,160.61912 271.95486,156.51089 C 269.44194,154.56914 266.97374,150.84859 265.80203,147.89694 C 264.28987,144.08766 263.90156,138.62858 265.67473,134.93357 C 267.0717,132.0225 270.05095,129.59842 273.18542,128.82318 C 276.41574,128.02424 281.47947,127.61115 284.26051,129.43846 C 285.64029,130.34506 287.04844,132.74241 286.72164,134.36072 C 286.38478,136.02884 284.06115,137.62214 282.41466,138.05242 C 280.59342,138.52837 276.26183,136.82185 276.26183,136.82185 C 276.26183,136.82185 275.43138,140.20746 276.87712,142.13152 C 278.7719,144.65316 283.59143,146.21141 286.72164,145.82322 C 289.61799,145.46402 293.77536,142.82474 295.66509,140.60061 C 298.45138,137.32125 300.87313,130.01729 300.87313,130.01729 C 300.87313,130.01729 316.01098,131.55427 322.40802,130.63257 C 330.66994,129.44218 339.30666,128.01795 346.71397,124.16982 C 350.80897,122.04245 357.25707,118.50491 359.82632,114.67168 C 362.69285,110.39492 363.92798,103.6178 362.78879,98.596855 C 361.7743,94.125508 357.96541,90.709956 353.55217,89.466785 C 350.18112,88.517188 344.02039,91.404884 344.02039,91.404884 C 344.02039,91.404884 349.55156,91.915728 351.40378,93.250731 C 353.35619,94.657948 355.57568,96.632524 356.24856,98.943238 C 356.55821,100.00658 355.7383,103.29599 355.17296,104.24833 C 353.99234,106.23714 351.56807,107.4823 349.48045,108.47783 C 346.41736,109.93854 341.60737,110.0659 338.21395,110.0958 C 333.65522,110.13596 326.60641,106.18779 322.18015,105.09606 C 318.93445,104.29551 310.02946,105.21 310.02946,105.21 C 310.02946,105.21 315.83134,97.349135 315.87236,94.367359 C 315.92378,90.630156 315.62897,85.499385 313.17878,82.676992 C 311.39215,80.618953 307.86589,78.832833 305.18011,78.370015 C 302.78754,77.957723 301.06058,77.882171 299.47974,79.724812 C 298.51823,80.84556 296.92523,83.068558 297.18144,84.52284 C 297.55629,86.650581 298.52448,87.874557 298.52448,87.874557 C 298.52448,87.874557 299.81589,85.800312 301.48842,84.52284 C 302.36856,83.85059 304.28165,83.87527 305.18011,84.52284 C 306.12717,85.20544 307.87972,88.325744 307.67039,89.474241 C 306.98807,93.217882 300.77453,97.436708 297.46722,99.31876 C 292.41793,102.1921 284.84992,99.321988 279.25338,100.88087 C 273.27602,102.54582 265.04932,105.03417 260.17962,108.87954 C 255.51461,112.56326 250.4045,119.2498 248.48926,124.87689 C 246.44186,130.89226 246.49502,139.86774 247.95884,146.05109 C 249.4046,152.15817 253.58844,159.85971 257.80336,164.50956 C 262.72008,169.93362 271.43602,175.0319 278.10768,178.04578 C 283.33054,180.40517 290.85287,181.94428 296.56616,182.39519 C 301.931,182.8186 309.05361,181.6483 314.40935,181.12219 C 322.34257,180.34288 340.86649,178.66106 340.86649,178.66106 C 340.86649,178.66106 327.50204,182.87118 323.0233,186.65973 C 319.97457,189.23864 316.16994,193.77697 315.63991,197.73482 C 315.25252,200.62754 316.60827,204.94565 318.71633,206.96405 C 320.65758,208.82273 327.33028,209.42518 327.33028,209.42518 C 327.33028,209.42518 322.76069,205.0494 323.0233,202.65708 C 323.10875,201.87863 324.11962,201.03817 324.86915,200.81123 C 326.67078,200.26574 329.14924,202.23238 331.02197,202.04179 C 336.20624,201.51418 343.41174,199.03406 347.01932,195.27369 C 349.20294,192.99758 350.71101,185.42917 350.71101,185.42917 C 350.71101,185.42917 348.08255,197.01836 350.71101,200.81123 C 352.50762,203.40374 357.72667,206.18833 360.81437,206.83251 C 364.25232,207.54976 368.96706,206.37642 372.2459,205.11821 C 374.43933,204.27651 377.57852,201.92109 377.78344,199.58066 C 377.97997,197.33611 373.47647,193.42784 373.47647,193.42784 C 373.47647,193.42784 374.39012,196.82117 373.47647,197.73482 C 372.30178,198.90951 369.49403,198.31913 367.93892,197.73482 C 366.10213,197.04467 363.82746,195.21465 363.01666,193.42784 C 362.3302,191.91504 362.34079,189.40786 363.01666,187.8903 C 364.02698,185.62177 366.88835,183.33425 369.16949,182.35275 C 373.42193,180.52307 380.15423,179.67493 384.55155,181.12219 C 389.8956,182.88104 396.00315,188.49195 398.70305,193.42784 C 401.74719,198.99306 403.20215,208.16566 401.77946,214.34744 C 400.67714,219.13718 396.41613,224.84863 392.55022,227.88366 C 388.82877,230.80527 377.78344,233.4212 377.78344,233.4212 C 377.78344,233.4212 357.45836,233.33303 352.288,232.23482 C 338.2649,229.25624 328.9521,223.22728 314.71995,221.50527 C 309.21945,220.83974 300.17986,220.11072 294.64118,219.96411 C 285.22884,219.71497 270.54979,220.72496 261.17855,219.81177 C 245.32152,218.26658 209.36577,214.58082 209.36577,214.58082 L 188.89172,209.42518 L 178.43192,219.88499 z"
             style="fill:#f8de00;fill-opacity:1;fill-rule:evenodd;stroke:#000000;stroke-width:3;stroke-linecap:butt;stroke-linejoin:miter;stroke-miterlimit:4;stroke-dasharray:none;stroke-opacity:1" />
          <path
             sodipodi:nodetypes="csssc"
             id="path7898"
             d="M 271.78154,119.23505 C 271.78154,119.23505 279.26505,118.22123 282.48904,118.29027 C 286.10932,118.36779 289.96858,119.16874 293.19654,120.80968 C 295.63893,122.05127 299.62138,125.54413 300.40637,128.16913 C 300.70901,129.18114 299.77652,131.63332 299.77652,131.63332"
             style="fill:none;fill-rule:evenodd;stroke:#000000;stroke-width:2.5;stroke-linecap:butt;stroke-linejoin:miter;stroke-miterlimit:4;stroke-dasharray:none;stroke-opacity:1" />
          <path
             sodipodi:nodetypes="csc"
             id="path7900"
             d="M 304.5339,119.23505 C 304.5339,119.23505 313.25322,124.19647 317.21362,125.79932 C 320.58278,127.1629 332.24742,128.99776 332.24742,128.99776"
             style="fill:none;fill-rule:evenodd;stroke:#000000;stroke-width:2.5;stroke-linecap:butt;stroke-linejoin:miter;stroke-miterlimit:4;stroke-dasharray:none;stroke-opacity:1" />
          <path
             sodipodi:nodetypes="csc"
             id="path7902"
             d="M 326.57875,118.29027 C 326.57875,118.29027 332.76415,121.94506 335.71162,122.69924 C 339.28595,123.61381 347.99375,123.32909 347.99375,123.32909"
             style="fill:none;fill-rule:evenodd;stroke:#000000;stroke-width:2.5;stroke-linecap:butt;stroke-linejoin:miter;stroke-miterlimit:4;stroke-dasharray:none;stroke-opacity:1" />
          <path
             sodipodi:nodetypes="cssc"
             id="path7904"
             d="M 311.14735,105.06336 C 311.14735,105.06336 305.58845,108.53909 302.95927,109.47233 C 301.05591,110.14793 298.31671,111.17336 296.34581,110.73203 C 295.09183,110.45124 292.88162,108.21262 292.88162,108.21262"
             style="fill:none;fill-rule:evenodd;stroke:#000000;stroke-width:2.5;stroke-linecap:butt;stroke-linejoin:miter;stroke-miterlimit:4;stroke-dasharray:none;stroke-opacity:1" />
          <path
             sodipodi:nodetypes="cscssss"
             id="path7906"
             d="M 365.10862,161.92538 C 365.10862,161.92538 368.76461,161.58367 370.277,161.92538 C 375.30233,163.06081 385.78212,169.30877 385.78212,169.30877 C 385.78212,169.30877 383.35656,161.61546 383.5671,158.23368 C 383.76296,155.08775 384.82441,150.64731 386.88962,148.2661 C 388.5122,146.39525 391.86279,145.14338 394.27301,144.57441 C 394.91974,144.42174 396.48803,144.57441 396.48803,144.57441"
             style="fill:none;fill-rule:evenodd;stroke:#000000;stroke-width:2.5;stroke-linecap:butt;stroke-linejoin:miter;stroke-miterlimit:4;stroke-dasharray:none;stroke-opacity:1" />
          <path
             sodipodi:nodetypes="cssss"
             id="path7908"
             d="M 323.1471,201.73563 C 323.1471,201.73563 325.05817,197.1456 326.74317,195.66583 C 328.62061,194.01705 333.67669,192.50846 335.94423,191.45893 C 337.45184,190.76113 339.5503,189.57893 340.37427,188.13641 C 340.8717,187.26557 340.74344,184.81388 340.74344,184.81388"
             style="fill:none;fill-rule:evenodd;stroke:#000000;stroke-width:2.5;stroke-linecap:butt;stroke-linejoin:miter;stroke-miterlimit:4;stroke-dasharray:none;stroke-opacity:1" />
          <path
             sodipodi:nodetypes="cc"
             id="path7910"
             d="M 352.87511,178.66955 L 349.93449,187.81816"
             style="fill:none;fill-rule:evenodd;stroke:#000000;stroke-width:2.5;stroke-linecap:butt;stroke-linejoin:miter;stroke-miterlimit:4;stroke-dasharray:none;stroke-opacity:1" />
          <path
             sodipodi:nodetypes="cssc"
             id="path7912"
             d="M 380.97442,247.28415 C 380.97442,247.28415 374.29207,244.22196 370.8456,243.36332 C 367.80197,242.60504 363.4428,244.08398 360.39004,243.36332 C 357.83023,242.75903 352.54838,239.44248 352.54838,239.44248"
             style="fill:none;fill-rule:evenodd;stroke:#000000;stroke-width:2.5;stroke-linecap:butt;stroke-linejoin:miter;stroke-miterlimit:4;stroke-dasharray:none;stroke-opacity:1" />
          <path
             sodipodi:nodetypes="cssscscss"
             id="path7914"
             d="M 352.87511,253.1654 C 352.87511,253.1654 359.69115,254.4119 362.02373,256.10603 C 365.54566,258.66398 366.66519,264.65986 369.60655,267.86853 C 371.53196,269.96892 374.31192,271.74486 375.5175,273.7116 C 376.54629,275.38993 378.02531,279.77531 378.02531,279.77531 C 378.02531,279.77531 379.80821,275.04882 379.73537,272.57014 C 379.70724,271.61294 379.66748,265.58138 379.66748,265.58138 C 379.66748,265.58138 385.69752,274.15412 389.46957,276.36367 C 390.59799,277.02466 393.71714,277.34388 393.71714,277.34388"
             style="fill:none;fill-rule:evenodd;stroke:#000000;stroke-width:2.5;stroke-linecap:butt;stroke-linejoin:miter;stroke-miterlimit:4;stroke-dasharray:none;stroke-opacity:1" />
          <path
             sodipodi:nodetypes="css"
             id="path7916"
             d="M 403.66989,305.40669 C 403.66989,305.40669 408.17224,308.12334 410.3177,308.7306 C 412.13709,309.24556 416.59619,309.28458 416.59619,309.28458"
             style="fill:none;fill-rule:evenodd;stroke:#000000;stroke-width:2.5;stroke-linecap:butt;stroke-linejoin:miter;stroke-miterlimit:4;stroke-dasharray:none;stroke-opacity:1" />
          <path
             sodipodi:nodetypes="cssc"
             id="path7918"
             d="M 420.10476,331.07463 C 420.10476,331.07463 418.36629,325.40174 416.96551,323.31885 C 415.41326,321.01073 412.73,318.24051 410.3177,316.8557 C 409.42015,316.34045 406.99379,315.9324 406.99379,315.9324"
             style="fill:none;fill-rule:evenodd;stroke:#000000;stroke-width:2.5;stroke-linecap:butt;stroke-linejoin:miter;stroke-miterlimit:4;stroke-dasharray:none;stroke-opacity:1" />
          <path
             sodipodi:nodetypes="csssc"
             id="path7920"
             d="M 402.1926,323.87284 C 402.1926,323.87284 407.80763,325.95525 409.39439,327.93539 C 411.73704,330.85882 412.63999,336.06687 414.38025,339.3844 C 415.25862,341.05887 416.33996,343.43025 417.70416,344.73958 C 418.76011,345.75305 421.95137,347.14018 421.95137,347.14018"
             style="fill:none;fill-rule:evenodd;stroke:#000000;stroke-width:2.5;stroke-linecap:butt;stroke-linejoin:miter;stroke-miterlimit:4;stroke-dasharray:none;stroke-opacity:1" />
          <path
             sodipodi:nodetypes="csc"
             id="path7922"
             d="M 407.91709,343.63161 C 407.91709,343.63161 402.87875,335.73571 401.63862,334.02922 C 400.60003,332.60006 397.57606,330.70531 397.57606,330.70531"
             style="fill:none;fill-rule:evenodd;stroke:#000000;stroke-width:2.5;stroke-linecap:butt;stroke-linejoin:miter;stroke-miterlimit:4;stroke-dasharray:none;stroke-opacity:1" />
          <path
             sodipodi:nodetypes="cc"
             id="path7926"
             d="M 227.18632,225.92314 L 232.37446,236.7865"
             style="fill:none;fill-rule:evenodd;stroke:#000000;stroke-width:2.5;stroke-linecap:butt;stroke-linejoin:miter;stroke-miterlimit:4;stroke-dasharray:none;stroke-opacity:1" />
          <path
             sodipodi:nodetypes="cc"
             id="path7928"
             d="M 233.73488,224.26146 L 237.13954,233.05901"
             style="fill:none;fill-rule:evenodd;stroke:#000000;stroke-width:2.5;stroke-linecap:butt;stroke-linejoin:miter;stroke-miterlimit:4;stroke-dasharray:none;stroke-opacity:1" />
          <path
             sodipodi:nodetypes="cc"
             id="path7930"
             d="M 239.95747,223.8378 L 243.32221,229.39653"
             style="fill:none;fill-rule:evenodd;stroke:#000000;stroke-width:2.5;stroke-linecap:butt;stroke-linejoin:miter;stroke-miterlimit:4;stroke-dasharray:none;stroke-opacity:1" />
          <path
             sodipodi:nodetypes="cc"
             id="path7932"
             d="M 245.39776,222.6375 L 248.396,228.2446"
             style="fill:none;fill-rule:evenodd;stroke:#000000;stroke-width:2.5;stroke-linecap:butt;stroke-linejoin:miter;stroke-miterlimit:4;stroke-dasharray:none;stroke-opacity:1" />
          <path
             sodipodi:nodetypes="cccsssc"
             id="path7934"
             d="M 388.17223,317.59233 L 384.79957,322.48867 L 377.16404,327.53176 C 377.16404,327.53176 378.30935,329.36402 379.51531,330.09678 C 380.28693,330.56562 382.07929,330.91824 382.93533,330.63115 C 384.53061,330.09615 386.6998,329.06433 387.74473,327.74551 C 388.26738,327.08586 388.59974,325.07362 388.59974,325.07362"
             style="fill:none;fill-rule:evenodd;stroke:#000000;stroke-width:2.5;stroke-linecap:butt;stroke-linejoin:miter;stroke-miterlimit:4;stroke-dasharray:none;stroke-opacity:1" />
          <path
             sodipodi:nodetypes="cssscsssc"
             id="path7936"
             d="M 361.66415,298.43918 C 361.66415,298.43918 362.71688,304.82817 364.40026,306.89626 C 365.97201,308.82721 369.24338,310.23833 371.61365,311.00042 C 373.64946,311.65498 375.58301,312.1296 377.58334,311.37352 C 379.33708,310.71066 382.9312,307.14499 382.9312,307.14499 C 382.9312,307.14499 381.61753,312.13629 380.19508,313.73653 C 378.31953,315.8465 374.75655,317.79239 371.98675,318.33817 C 370.17963,318.69426 367.63528,318.18852 365.89269,317.59196 C 363.54986,316.78991 358.80367,313.36343 358.80367,313.36343"
             style="fill:none;fill-rule:evenodd;stroke:#000000;stroke-width:2.5;stroke-linecap:butt;stroke-linejoin:miter;stroke-miterlimit:4;stroke-dasharray:none;stroke-opacity:1" />
          <path
             sodipodi:nodetypes="csssc"
             id="path7938"
             d="M 347.85922,312.36847 C 347.85922,312.36847 348.125,318.78452 349.60038,321.07429 C 350.75246,322.8623 353.43531,324.21409 354.6995,325.92467 C 355.88562,327.52962 356.9263,329.38012 357.55998,331.27252 C 358.23859,333.29907 359.40805,339.87248 359.40805,339.87248"
             style="fill:none;fill-rule:evenodd;stroke:#000000;stroke-width:2.5;stroke-linecap:butt;stroke-linejoin:miter;stroke-miterlimit:4;stroke-dasharray:none;stroke-opacity:1" />
          <path
             sodipodi:nodetypes="csc"
             id="path7940"
             d="M 369.50895,249.89804 C 369.50895,249.89804 374.60484,254.55059 376.16249,257.02683 C 377.83306,259.68257 379.96451,266.76951 379.96451,266.76951"
             style="fill:none;fill-rule:evenodd;stroke:#000000;stroke-width:2.5;stroke-linecap:butt;stroke-linejoin:miter;stroke-miterlimit:4;stroke-dasharray:none;stroke-opacity:1" />
          <path
             sodipodi:nodetypes="csss"
             id="path7942"
             d="M 223.28602,296.07081 C 223.28602,296.07081 214.66698,294.63087 211.38579,292.93917 C 208.77704,291.59416 205.52446,289.10012 203.86985,286.67589 C 202.02754,283.97665 200.42504,276.34147 200.42504,276.34147"
             style="fill:none;fill-rule:evenodd;stroke:#000000;stroke-width:2.5;stroke-linecap:butt;stroke-linejoin:miter;stroke-miterlimit:4;stroke-dasharray:none;stroke-opacity:1" />
          <path
             sodipodi:nodetypes="csss"
             id="path7944"
             d="M 232.99411,290.74702 C 232.99411,290.74702 222.87402,290.01823 219.30571,288.06006 C 217.1962,286.90243 214.59861,284.88477 213.04243,283.04943 C 211.30151,280.99621 208.65813,275.22033 208.65813,275.22033"
             style="fill:none;fill-rule:evenodd;stroke:#000000;stroke-width:2.5;stroke-linecap:butt;stroke-linejoin:miter;stroke-miterlimit:4;stroke-dasharray:none;stroke-opacity:1" />
          <path
             sodipodi:nodetypes="css"
             id="path7946"
             d="M 243.32853,286.36273 C 243.32853,286.36273 229.85241,283.25545 224.53868,280.72577 C 221.97415,279.50489 216.28525,273.70465 216.28525,273.70465"
             style="fill:none;fill-rule:evenodd;stroke:#000000;stroke-width:2.5;stroke-linecap:butt;stroke-linejoin:miter;stroke-miterlimit:4;stroke-dasharray:none;stroke-opacity:1" />
          <path
             sodipodi:nodetypes="csss"
             id="path7948"
             d="M 222.56887,270.37101 C 222.56887,270.37101 226.19352,274.35581 228.29665,275.08882 C 230.19317,275.74982 232.65527,276.51009 234.64215,276.80337 C 236.41781,277.06547 239.89941,277.19875 239.89941,277.19875"
             style="fill:none;fill-rule:evenodd;stroke:#000000;stroke-width:2.5;stroke-linecap:butt;stroke-linejoin:miter;stroke-miterlimit:4;stroke-dasharray:none;stroke-opacity:1" />
          <path
             sodipodi:nodetypes="csss"
             id="path7950"
             d="M 231.11513,268.51237 C 231.11513,268.51237 233.12945,270.83762 234.24677,271.33085 C 235.66946,271.95887 238.05234,271.93352 239.57056,272.27034 C 241.03807,272.59591 244.58118,272.27034 244.58118,272.27034"
             style="fill:none;fill-rule:evenodd;stroke:#000000;stroke-width:2.5;stroke-linecap:butt;stroke-linejoin:miter;stroke-miterlimit:4;stroke-dasharray:none;stroke-opacity:1" />
          <path
             sodipodi:nodetypes="css"
             id="path7952"
             d="M 239.88372,266.63339 C 239.88372,266.63339 245.14066,267.53648 247.39966,267.88604 C 248.71268,268.08922 251.78396,268.51237 251.78396,268.51237"
             style="fill:none;fill-rule:evenodd;stroke:#000000;stroke-width:2.5;stroke-linecap:butt;stroke-linejoin:miter;stroke-miterlimit:4;stroke-dasharray:none;stroke-opacity:1" />
          <path
             sodipodi:nodetypes="css"
             id="path7954"
             d="M 250.84447,263.50174 C 250.84447,263.50174 258.10597,263.94258 261.17888,264.44124 C 262.79845,264.70406 266.50267,265.69389 266.50267,265.69389"
             style="fill:none;fill-rule:evenodd;stroke:#000000;stroke-width:2.5;stroke-linecap:butt;stroke-linejoin:miter;stroke-miterlimit:4;stroke-dasharray:none;stroke-opacity:1" />
          <path
             sodipodi:nodetypes="csss"
             id="path7956"
             d="M 259.92623,259.43061 C 259.92623,259.43061 266.99715,260.50239 269.94748,261.30959 C 272.06881,261.88998 276.83709,263.81491 276.83709,263.81491 C 276.83709,263.81491 276.83709,263.81491 276.83709,263.81491"
             style="fill:none;fill-rule:evenodd;stroke:#000000;stroke-width:2.5;stroke-linecap:butt;stroke-linejoin:miter;stroke-miterlimit:4;stroke-dasharray:none;stroke-opacity:1" />
          <path
             sodipodi:nodetypes="csss"
             id="path7958"
             d="M 273.07912,256.61213 C 273.07912,256.61213 277.9542,257.26907 279.96873,257.86479 C 281.85029,258.42119 284.39877,259.25576 286.00498,260.38268 C 287.56637,261.47816 290.30315,265.06756 290.30315,265.06756"
             style="fill:none;fill-rule:evenodd;stroke:#000000;stroke-width:2.5;stroke-linecap:butt;stroke-linejoin:miter;stroke-miterlimit:4;stroke-dasharray:none;stroke-opacity:1" />
        </g>
        <path
           style="fill:#ffffff;fill-rule:evenodd;stroke:#000000;stroke-width:2.5;stroke-linecap:butt;stroke-linejoin:miter;stroke-miterlimit:4;stroke-dasharray:none;stroke-opacity:1"
           d="M 60.682514,280.11599 C 58.791237,277.95223 55.817447,276.70114 52.945343,276.80006 C 50.475259,276.88513 47.501271,278.93387 45.576609,280.48443 C 43.58712,282.08721 40.932651,284.6588 40.234277,287.11629 C 39.868881,288.40207 39.941956,289.45447 40.602714,290.61643 C 41.225681,291.71194 42.997552,293.74814 42.997552,293.74814 C 42.997552,293.74814 43.381777,291.08021 44.102862,290.248 C 45.187364,288.99636 47.481789,288.29905 49.076758,287.85316 C 50.734435,287.38974 53.096424,287.62115 54.787527,287.3005 C 55.973414,287.07564 57.644625,286.85381 58.656112,286.19519 C 59.741255,285.48861 61.140505,284.14378 61.419387,282.87926 C 61.604161,282.04144 61.247138,280.76196 60.682514,280.11599 z"
           id="path8205"
           sodipodi:nodetypes="csssscssssss" />
        <path
           style="fill:#ffffff;fill-rule:evenodd;stroke:#000000;stroke-width:2.5;stroke-linecap:butt;stroke-linejoin:miter;stroke-miterlimit:4;stroke-dasharray:none;stroke-opacity:1"
           d="M 58.656112,297.24829 C 59.425336,298.59213 59.468324,300.99105 58.84033,302.40641 C 58.283577,303.66121 56.622238,304.86317 55.340182,305.3539 C 53.687739,305.98641 51.069094,304.83557 49.445194,305.53812 C 47.508434,306.37603 45.546455,308.6962 44.471299,310.51201 C 43.767363,311.70087 43.182626,313.55161 43.18177,314.93325 C 43.180664,316.71722 44.839735,320.64402 44.839735,320.64402 C 44.839735,320.64402 38.751002,316.02007 37.65522,313.09107 C 36.782943,310.75949 37.265761,307.17248 38.023656,304.80125 C 38.705038,302.66941 40.481518,300.10791 42.07646,298.53782 C 43.562662,297.07478 45.974943,295.45616 47.971447,294.85345 C 49.876842,294.27824 52.684814,294.13936 54.603308,294.66924 C 55.992444,295.05292 57.94018,295.99755 58.656112,297.24829 z"
           id="path8207"
           sodipodi:nodetypes="cssssscssssss" />
        <path
           style="fill:#ffffff;fill-rule:evenodd;stroke:#000000;stroke-width:2.5;stroke-linecap:butt;stroke-linejoin:miter;stroke-miterlimit:4;stroke-dasharray:none;stroke-opacity:1"
           d="M 87.394181,311.24889 C 87.179021,309.20344 85.515451,307.71631 83.525591,307.19609 C 81.332731,306.62279 77.712631,306.6647 75.972641,308.11718 C 74.716221,309.16599 75.167711,311.85067 74.867331,313.45951 C 74.497141,315.44225 73.793111,318.07461 73.762021,320.09137 C 73.730221,322.15454 73.977861,324.9683 74.683111,326.90745 C 75.107591,328.0746 75.855741,329.7257 76.893731,330.4076 C 78.389741,331.39039 82.788721,331.32869 82.788721,331.32869 C 82.788721,331.32869 79.428941,328.87786 78.920131,327.27588 C 78.463511,325.8382 79.066701,323.69014 79.657001,322.30199 C 80.613001,320.05385 82.981431,317.65638 84.630901,315.85435 C 85.951241,314.4119 87.598751,313.19366 87.394181,311.24889 z"
           id="path8209"
           sodipodi:nodetypes="csssssscssss" />
        <path
           style="fill:#ffffff;fill-rule:evenodd;stroke:#000000;stroke-width:2.5;stroke-linecap:butt;stroke-linejoin:miter;stroke-miterlimit:4;stroke-dasharray:none;stroke-opacity:1"
           d="M 115.02693,299.27469 C 117.14516,300.35335 119.28156,301.58233 120.36926,303.69593 C 121.55782,306.00553 121.42008,309.97877 120.36926,312.3542 C 119.70451,313.85689 118.77725,315.29399 117.42177,316.22278 C 115.99458,317.2007 112.26365,318.80184 112.26365,318.80184 C 112.26365,318.80184 113.22532,315.74023 113.36896,314.3806 C 113.53744,312.78582 113.86519,310.4904 113.18474,309.03827 C 112.30451,307.1598 108.74988,306.37713 108.02663,304.43281 C 107.57972,303.23137 107.78955,301.2055 108.57928,300.19579 C 109.4202,299.12063 111.4518,298.57279 112.81631,298.53782 C 113.51514,298.51991 114.40399,298.95747 115.02693,299.27469 z"
           id="path8211"
           sodipodi:nodetypes="cssscssssss" />
        <path
           style="fill:#ffffff;fill-rule:evenodd;stroke:#000000;stroke-width:2.5;stroke-linecap:butt;stroke-linejoin:miter;stroke-miterlimit:4;stroke-dasharray:none;stroke-opacity:1"
           d="M 327.68096,282.59834 C 326.26235,281.16755 323.05307,281.22577 321.05618,281.49421 C 318.70601,281.81015 317.68875,282.19574 315.73092,283.53364 C 314.02242,284.70116 311.57223,286.41395 310.76234,288.3182 C 309.89807,290.3503 310.76234,295.67906 310.76234,295.67906 C 310.76234,295.67906 314.7976,290.4316 317.20309,289.05428 C 319.81753,287.55732 322.31379,289.06955 325.10465,287.93496 C 326.11332,287.5249 327.76802,287.07931 328.23302,286.09475 C 328.68652,285.13454 328.42863,283.35243 327.68096,282.59834 z"
           id="path8213"
           sodipodi:nodetypes="cssscssss" />
        <path
           style="fill:#ffffff;fill-rule:evenodd;stroke:#000000;stroke-width:2.5;stroke-linecap:butt;stroke-linejoin:miter;stroke-miterlimit:4;stroke-dasharray:none;stroke-opacity:1"
           d="M 325.02499,297.42628 C 327.06577,297.51339 328.03202,297.05198 329.4415,298.53041 C 330.67118,299.82024 331.69699,302.5568 331.0977,304.23508 C 330.73722,305.24457 329.09115,305.74016 328.15335,306.25932 C 326.57418,307.13354 324.01221,307.48754 322.63271,308.6516 C 321.47415,309.62922 320.30434,311.43102 319.87238,312.88409 C 319.5263,314.04828 319.60471,315.74788 319.87238,316.93256 C 320.15537,318.18506 321.26282,318.94418 321.89662,320.06093 C 322.09312,320.40716 318.74714,320.05545 317.29608,319.32485 C 315.79641,318.56977 314.03041,316.94579 313.24761,315.4604 C 312.12629,313.33266 312.68691,311.23302 312.87957,308.83562 C 313.06136,306.5734 314.91829,305.00937 316.19196,303.13095 C 317.48916,301.21784 320.02291,299.21519 322.08065,298.16237 C 322.89121,297.74766 324.11533,297.38745 325.02499,297.42628 z"
           id="path8215"
           sodipodi:nodetypes="csssssscssssss" />
        <path
           style="fill:#ffffff;fill-rule:evenodd;stroke:#000000;stroke-width:2.5;stroke-linecap:butt;stroke-linejoin:miter;stroke-miterlimit:4;stroke-dasharray:none;stroke-opacity:1"
           d="M 352.07615,312.148 C 352.07615,312.148 355.44905,310.33443 357.04473,310.12377 C 357.92725,310.00726 358.50347,310.01157 359.25299,310.49181 C 360.83957,311.50837 362.48801,313.94572 362.56537,315.82844 C 362.66978,318.36939 360.00722,321.19137 358.70092,323.37332 C 357.80417,324.87119 356.12462,328.15788 356.12462,328.15788 C 356.12462,328.15788 351.84784,318.49588 351.61616,316.51109 C 351.33835,314.13112 351.97581,312.34869 352.07615,312.148 z"
           id="path8217"
           sodipodi:nodetypes="csssscss" />
        <path
           style="fill:#ffffff;fill-rule:evenodd;stroke:#000000;stroke-width:2.5;stroke-linecap:butt;stroke-linejoin:miter;stroke-miterlimit:4;stroke-dasharray:none;stroke-opacity:1"
           d="M 382.62372,294.29792 C 383.88274,293.88148 385.82591,293.94906 387.04024,294.48194 C 388.54159,295.14077 390.35163,296.80294 390.90469,298.34639 C 391.67184,300.48731 390.94895,303.75513 390.16861,305.89127 C 389.1335,308.72484 384.46394,314.17224 384.46394,314.17224 C 384.46394,314.17224 384.57848,309.3849 384.27992,307.36345 C 384.09598,306.11806 383.94215,304.31373 383.17579,303.31497 C 382.24202,302.09803 379.52325,302.06878 378.75927,300.73867 C 378.26434,299.87698 378.33139,298.32316 378.75927,297.42628 C 379.40152,296.08004 381.20758,294.76633 382.62372,294.29792 z"
           id="path8219"
           sodipodi:nodetypes="cssscsssss" />
      </g>
      <g
         transform="translate(-29.584479,-71.84802)"
         id="g3228">
        <path
           style="fill:#f8de00;fill-opacity:1;fill-rule:evenodd;stroke:#000000;stroke-width:3;stroke-linecap:butt;stroke-linejoin:miter;stroke-miterlimit:4;stroke-dasharray:none;stroke-opacity:1"
           d="M 107.14112,146.48399 C 107.14112,146.48399 105.6694,141.5954 106.06971,139.51982 C 106.84745,135.48733 111.95092,131.69574 113.03388,127.7343 C 113.75433,125.0989 113.03388,118.6273 113.03388,118.6273 C 113.03388,118.6273 120.79619,119.34486 123.748,120.77012 C 126.21257,121.96012 129.18358,124.47919 129.18358,124.47919 C 129.18358,124.47919 129.43418,121.29308 130.17646,119.16301 C 131.03738,116.69252 133.76744,114.57876 134.54064,112.07943 C 135.21235,109.90815 134.99781,105.23466 134.99781,105.23466 C 134.99781,105.23466 141.74083,107.74051 143.5691,110.05601 C 144.29414,110.97428 144.64052,113.80595 144.64052,113.80595 C 144.64052,113.80595 149.70802,107.85543 149.99757,104.69896 C 150.16941,102.82574 147.85475,98.806194 147.85475,98.806194 C 147.85475,98.806194 155.55939,100.58879 157.49745,103.09184 C 159.2929,105.41071 159.10457,112.73454 159.10457,112.73454 C 159.10457,112.73454 160.85613,107.54671 162.3188,105.77037 C 164.58706,103.01568 171.9615,98.806194 171.9615,98.806194 L 170.89009,109.52031 C 170.89009,109.52031 175.40941,107.35924 177.31856,107.91319 C 181.79459,109.21194 185.88378,115.02734 188.03267,119.16301 C 188.78834,120.61735 189.10408,124.52006 189.10408,124.52006 C 189.10408,124.52006 193.33851,118.68658 196.06825,117.55589 C 197.99847,116.75637 203.03243,117.55589 203.03243,117.55589 C 203.03243,117.55589 201.56024,123.19271 201.96102,125.59147 C 202.73088,130.19931 208.41543,134.876 208.92519,139.51982 C 209.1421,141.49584 207.31807,145.94829 207.31807,145.94829 C 207.31807,145.94829 214.81188,157.49533 216.42507,163.09087 C 218.25526,169.43911 215.73722,177.72874 218.90566,183.52621 C 219.67639,184.93646 221.58633,186.65765 223.19131,186.74044 C 225.06303,186.837 227.67489,185.0548 227.67489,185.0548 C 227.67489,185.0548 227.34014,189.95591 226.06777,191.48326 C 224.82485,192.97526 220.17501,194.16179 220.17501,194.16179 C 220.17501,194.16179 221.10543,198.08778 221.24642,200.59026 C 221.38741,203.09274 220.41513,208.60325 222.02093,211.20541 C 223.4949,213.59393 226.32022,215.32971 229.06363,214.73698 C 229.74485,214.5898 231.60239,214.83169 232.32731,214.04327 C 233.85135,212.38574 234.10335,209.16155 234.10335,209.16155 C 234.10335,209.16155 235.34401,213.78776 234.63906,215.59002 C 233.68605,218.02646 232.13249,219.59204 229.95755,221.04604 C 227.74599,222.52452 221.44137,222.89322 220.17501,225.23272 C 218.01116,229.23026 223.14326,235.76244 222.31783,240.23248 C 221.71691,243.48672 217.41601,246.59739 216.96077,249.87518 C 216.57466,252.6552 217.11338,255.7711 218.66686,258.10869 C 219.87674,259.92925 221.54602,262.16759 223.68614,262.61271 C 225.13678,262.91443 227.87189,262.56379 228.94423,261.5413 C 230.27039,260.27679 231.08154,258.10359 231.42482,256.30364 C 231.69746,254.8741 231.96053,251.48229 231.96053,251.48229 C 231.96053,251.48229 234.513,256.14544 234.51965,258.44647 C 234.52526,260.38835 233.7302,262.83981 232.49624,264.33923 C 230.73924,266.4742 227.5816,268.71562 224.99636,269.69628 C 222.12557,270.78526 217.83161,271.35522 214.81795,270.76769 C 212.13634,270.2449 206.78237,266.48205 206.78237,266.48205 C 206.78237,266.48205 206.61011,270.6373 206.24666,272.37481 C 205.72638,274.86205 205.46156,278.7157 203.56813,280.4104 C 201.85356,281.94501 196.06825,282.01751 196.06825,282.01751 C 196.06825,282.01751 198.40026,291.24707 200.8896,294.33874 C 201.97982,295.69275 204.06955,296.98052 205.71095,297.55298 C 207.53823,298.19027 210.30695,298.7109 212.13942,298.08868 C 214.40171,297.32051 216.80592,294.78207 218.03218,292.73163 C 218.71239,291.59425 219.1036,288.44598 219.1036,288.44598 C 219.1036,288.44598 220.35959,295.84114 219.1036,298.62439 C 217.6049,301.94548 213.4457,305.48548 209.9966,306.65997 C 207.70954,307.43876 204.27834,306.8078 201.96102,306.12427 C 200.37399,305.65615 198.72767,303.91057 197.13967,303.44574 C 194.66702,302.72196 188.56838,302.91003 188.56838,302.91003 C 188.56838,302.91003 189.31726,308.16431 189.10408,310.40991 C 188.86829,312.89366 187.72161,316.06926 186.96126,318.44549 C 186.54279,319.75329 185.79523,321.42787 186.22762,322.73114 C 187.06989,325.26984 190.17956,327.51114 192.85402,327.55249 C 194.728,327.58146 197.34638,326.00107 198.21108,324.33826 C 199.25178,322.33698 197.67537,316.83838 197.67537,316.83838 C 197.67537,316.83838 201.60483,322.60871 201.42531,325.40967 C 201.30543,327.28003 199.71696,329.65095 198.21108,330.76672 C 196.08144,332.34466 192.28749,332.78723 189.63979,332.90955 C 187.52821,333.0071 184.62416,332.65755 182.67561,331.83813 C 180.45343,330.90364 177.92359,328.74909 176.24715,327.01678 C 173.51867,324.19738 170.55817,319.78323 168.74727,316.30267 C 167.87905,314.63394 165.41632,311.76777 165.41632,311.76777 C 165.41632,311.76777 162.12678,311.61158 160.17598,311.48132 C 157.99492,311.33568 154.92434,310.69697 153.2118,309.3385 C 151.46263,307.95097 150.40385,304.93426 149.46187,302.91003 C 148.45387,300.74393 146.78334,295.41015 146.78334,295.41015 C 146.78334,295.41015 138.57431,300.80537 137.14064,304.51715 C 136.38565,306.47183 136.95235,309.51494 137.67634,311.48132 C 138.4316,313.53261 140.48744,315.76041 141.96199,317.37408 C 143.11442,318.63523 146.24763,321.12402 146.24763,321.12402 C 146.24763,321.12402 139.02807,321.87851 136.06923,321.12402 C 132.16668,320.1289 125.85925,316.0787 123.00646,313.23586 C 120.40804,310.64651 118.28853,306.65957 116.93124,303.25159 C 115.5178,299.70263 115.17671,291.66021 115.17671,291.66021 L 116.07734,284.1837 C 116.07734,284.1837 112.54256,287.75222 111.96247,290.0531 C 111.45172,292.07896 111.96247,297.01727 111.96247,297.01727 C 111.96247,297.01727 107.98502,288.57458 107.14112,284.69604 C 106.52514,281.86501 106.01826,277.89049 106.60542,275.05334 C 107.04239,272.94191 109.81965,268.62487 109.81965,268.62487 C 109.81965,268.62487 104.74426,259.86251 103.39118,255.76794 C 101.65019,250.49952 99.833636,243.09195 100.17695,237.55395 C 100.44745,233.1905 104.46259,223.6256 104.46259,223.6256 L 98.569833,225.23272 C 98.569833,225.23272 91.768843,218.37933 91.069954,214.51861 C 90.153423,209.45561 93.419187,202.67873 95.355599,197.91173 C 96.330864,195.51085 98.619466,192.7933 99.641244,190.41185 C 100.96441,187.32796 102.85548,179.69774 102.85548,179.69774 C 102.85548,179.69774 97.211233,177.47989 95.891305,175.4121 C 94.411153,173.0933 94.819893,166.3051 94.819893,166.3051 C 94.819893,166.3051 98.7008,169.46919 100.71266,170.05504 C 102.25568,170.50437 104.75949,168.30808 104.75949,168.30808 C 104.75949,168.30808 101.69746,162.0631 101.24836,158.26952 C 100.99985,156.17034 101.36428,153.1909 102.31977,151.30534 C 103.24438,149.48071 107.14112,146.48399 107.14112,146.48399 z"
           id="path2504"
           sodipodi:nodetypes="csscscsscscscscsccsscscsscssscsczssscssssssssscsssscsscsssscsssscssssscsssssscssscssscsssccscsscssccssscscscssc" />
        <path
           style="fill:#ffffff;fill-rule:evenodd;stroke:#000000;stroke-width:2.5;stroke-linecap:butt;stroke-linejoin:miter;stroke-miterlimit:4;stroke-dasharray:none;stroke-opacity:1"
           d="M 143.53762,175.88027 C 143.53762,175.88027 143.19571,185.65082 143.59205,188.55499 C 143.90427,190.84273 146.21375,193.88328 146.21375,193.88328 C 146.21375,193.88328 148.78521,191.30626 149.10695,188.98393 C 149.51637,186.02877 149.37644,176.12355 149.37644,176.12355 L 143.53762,175.88027 z"
           id="path4593"
           sodipodi:nodetypes="cscscc" />
        <path
           style="fill:#ffffff;fill-rule:evenodd;stroke:#000000;stroke-width:2.5;stroke-linecap:butt;stroke-linejoin:miter;stroke-miterlimit:4;stroke-dasharray:none;stroke-opacity:1"
           d="M 174.85661,175.80955 C 174.85661,175.80955 174.5147,185.5801 174.91104,188.48427 C 175.22326,190.77201 177.53274,193.81256 177.53274,193.81256 C 177.53274,193.81256 180.1042,191.23554 180.42594,188.91321 C 180.83536,185.95805 180.69543,176.05283 180.69543,176.05283 L 174.85661,175.80955 z"
           id="path4595"
           sodipodi:nodetypes="cscscc" />
        <path
           sodipodi:type="arc"
           style="opacity:1;fill:#ffffff;fill-opacity:1;fill-rule:evenodd;stroke:#000000;stroke-width:2.5;stroke-linecap:butt;stroke-linejoin:miter;marker:none;marker-start:none;marker-mid:none;marker-end:none;stroke-miterlimit:4;stroke-dasharray:none;stroke-dashoffset:0;stroke-opacity:1;visibility:visible;display:inline;overflow:visible;enable-background:accumulate"
           id="path3161"
           sodipodi:cx="136.84087"
           sodipodi:cy="142.89806"
           sodipodi:rx="12.504578"
           sodipodi:ry="7.3608503"
           d="M 149.34544,142.89806 A 12.504578,7.3608503 0 1 1 124.33629,142.89806 A 12.504578,7.3608503 0 1 1 149.34544,142.89806 z"
           transform="matrix(0.9158702,-0.4014745,0.4014745,0.9158702,-43.729092,67.891117)" />
        <path
           sodipodi:type="arc"
           style="opacity:1;fill:#ffffff;fill-opacity:1;fill-rule:evenodd;stroke:#000000;stroke-width:2.5;stroke-linecap:butt;stroke-linejoin:miter;marker:none;marker-start:none;marker-mid:none;marker-end:none;stroke-miterlimit:4;stroke-dasharray:none;stroke-dashoffset:0;stroke-opacity:1;visibility:visible;display:inline;overflow:visible;enable-background:accumulate"
           id="path3163"
           sodipodi:cx="136.84087"
           sodipodi:cy="142.89806"
           sodipodi:rx="12.504578"
           sodipodi:ry="7.3608503"
           d="M 149.34544,142.89806 A 12.504578,7.3608503 0 1 1 124.33629,142.89806 A 12.504578,7.3608503 0 1 1 149.34544,142.89806 z"
           transform="matrix(-0.9158702,-0.4014745,-0.4014745,0.9158702,361.93067,66.605363)" />
        <path
           style="fill:none;fill-rule:evenodd;stroke:#000000;stroke-width:2.5;stroke-linecap:butt;stroke-linejoin:miter;stroke-miterlimit:4;stroke-dasharray:none;stroke-opacity:1"
           d="M 161.45059,136.42672 C 161.45059,136.42672 165.4155,137.63433 166.32779,138.5728 C 168.08672,140.38222 168.32378,144.21157 170.28681,145.79724 C 171.22069,146.5516 173.11978,147.70814 174.13165,148.35414 C 174.69571,148.71425 175.46371,149.96656 177.17688,150.56002 C 179.251,151.27851 182.44471,150.66663 183.54981,151.12453 C 187.13431,152.60978 192.68195,158.6249 193.86529,162.32007 C 194.24726,163.51284 193.42128,165.22804 192.97844,166.39957 C 191.85824,169.3631 189.05755,172.70013 187.83472,175.62281 C 187.32127,176.85 186.74465,178.55807 186.59313,179.87969 C 186.48387,180.83272 186.62692,182.12387 186.7705,183.07234 C 186.86901,183.72311 186.93622,184.65401 187.30261,185.20078 C 188.00169,186.24403 189.86084,186.24323 190.49441,187.32752"
           id="path3157"
           sodipodi:nodetypes="cssssssssssss" />
        <path
           style="fill:none;fill-rule:evenodd;stroke:#000000;stroke-width:2.5;stroke-linecap:butt;stroke-linejoin:miter;stroke-miterlimit:4;stroke-dasharray:none;stroke-opacity:1"
           d="M 150.40967,139.26198 C 150.40967,139.26198 151.35963,140.8802 150.35548,143.3935 C 149.55188,145.40487 146.90077,148.34007 145.9281,148.8788 C 142.81042,150.60558 138.38732,151.89879 135.94284,152.9057 C 133.45557,153.93024 130.90559,155.35822 130.53416,155.57971 C 129.56926,156.15509 127.80305,156.05893 127.01486,156.85946 C 125.1621,158.74122 123.79996,162.55842 124.13543,165.17781 C 124.7509,169.98346 132.3353,173.82997 133.09365,178.61515 C 133.98308,184.22748 127.89722,191.1697 127.97467,196.85154 C 128.01439,199.76568 131.33543,200.69582 130.8541,203.57021 C 130.55924,205.33104 127.33479,210.92875 127.33479,210.92875 C 127.33479,210.92875 133.98081,207.06608 135.97308,204.53002 C 137.19543,202.97403 138.53258,198.45122 138.53258,198.45122 C 138.53258,198.45122 136.39506,207.93101 137.25283,211.88856 C 138.19093,216.21673 142.06229,221.62713 142.06229,221.62713 C 142.06229,221.62713 142.43405,217.62605 143.27181,215.4781 C 143.86368,213.96059 148.13068,213.16831 148.13068,213.16831 C 148.13068,213.16831 146.70099,217.36906 146.53099,219.24711 C 146.41817,220.49345 146.39967,222.23904 146.85093,223.40628 C 147.64017,225.44773 149.70519,227.69876 151.33004,229.16514 C 152.00226,229.77179 153.88954,230.76483 153.88954,230.76483 C 153.88954,230.76483 152.34379,226.53056 152.60979,224.68603 C 152.81206,223.2834 154.84935,220.52685 154.84935,220.52685 C 154.84935,220.52685 155.80065,226.69334 156.76897,229.16514 C 157.25534,230.40668 158.26268,231.98918 158.66864,233.25929 C 159.63694,236.28874 158.8772,237.77815 158.43888,240.92824 C 158.25464,242.25234 156.8392,246.10705 156.8392,246.10705 C 156.8392,246.10705 162.83503,243.07178 164.25756,240.59789 C 165.21086,238.94003 165.5068,235.83523 165.5824,233.92432 C 165.63302,232.64477 165.64222,232.56913 165.64222,232.56913 C 165.64222,232.56913 167.83555,235.07342 168.20172,236.40837 C 168.68478,238.16948 168.37184,238.58226 167.96675,240.36293 C 167.41318,242.79626 166.07174,244.44148 166.04192,246.93681 C 166.01977,248.79038 167.07162,251.29123 168.28148,252.69567 C 170.73623,255.5452 177.88999,258.15453 177.88999,258.15453 C 177.88999,258.15453 175.05233,252.71505 174.69063,250.15612 C 174.42062,248.24591 175.92908,246.329 176.60504,244.5221 C 177.59414,241.87817 180.99926,239.46608 182.04396,236.84362 C 182.79747,234.95212 183.0868,232.15932 183.00377,230.12495 C 182.91547,227.96132 182.22514,225.09008 181.40409,223.08635 C 180.50526,220.8928 177.24491,216.36768 177.24491,216.36768 C 177.24491,216.36768 176.60549,215.92913 178.34835,217.385 C 179.68818,218.50422 183.40902,221.40333 183.96358,222.44647 C 184.91934,224.24427 186.02799,228.48538 186.02799,228.48538 C 186.02799,228.48538 188.01133,223.51819 188.12276,220.84679 C 188.22277,218.44935 185.54332,213.7631 185.54332,213.7631 L 184.28352,210.60882 C 184.28352,210.60882 188.64328,213.51828 189.72244,215.40787 C 190.98271,217.61458 192.17182,222.87653 192.17182,222.87653 C 192.17182,222.87653 195.68441,216.43189 195.41628,213.48825 C 195.26826,211.8633 194.64933,209.99882 193.96138,208.51926 C 193.30761,207.1132 190.68225,203.89015 190.68225,203.89015 C 190.68225,203.89015 194.95334,204.8065 195.9401,206.03306 C 197.07046,207.43813 199.35522,212.01862 199.35522,212.01862 C 199.35522,212.01862 201.66947,207.90983 202.04523,203.56437 C 202.33649,200.1961 199.9068,194.02433 198.57861,193.05547 L 189.77009,186.63003"
           id="path4598"
           sodipodi:nodetypes="csssscscscscssscscssscsscsssscssssscsscsccscsscscscsssssc" />
        <path
           style="fill:#ff2a2a;fill-rule:evenodd;stroke:#000000;stroke-width:2.5;stroke-linecap:butt;stroke-linejoin:miter;stroke-miterlimit:4;stroke-dasharray:none;stroke-opacity:1"
           d="M 149.15195,179.71237 C 149.15195,179.71237 149.67266,193.59169 152.91537,199.39924 C 154.7723,202.72493 161.6967,209.60724 161.6967,209.60724 C 161.6967,209.60724 169.74971,201.7131 171.73251,198.42705 C 175.13877,192.78195 174.49235,178.25408 174.49235,178.25408 L 169.22356,170.96266 L 153.66805,171.2057 L 149.15195,179.71237 z"
           id="path4590"
           sodipodi:nodetypes="cscscccc" />
        <path
           style="fill:#f8de00;fill-opacity:1;fill-rule:evenodd;stroke:#000000;stroke-width:2.5;stroke-linecap:butt;stroke-linejoin:miter;stroke-miterlimit:4;stroke-dasharray:none;stroke-opacity:1"
           d="M 136.52707,165.24794 C 136.52707,165.24794 134.50769,166.64826 135.75973,169.26514 C 136.65451,171.1353 141.07956,173.55041 141.59666,174.85758 C 142.12557,176.19462 142.79323,179.97903 142.79323,179.97903 C 142.79323,179.97903 147.37316,181.28253 148.99529,180.83322 C 151.0972,180.25102 153.23432,177.974 155.22941,177.09275 C 157.01551,176.30381 161.46352,175.22252 161.46352,175.22252 L 160.84011,162.13088 C 160.69199,162.30016 154.28203,155.58708 152.21705,152.97848 C 151.47377,152.03953 149.31817,153.92051 149.62565,155.07789 C 150.69637,159.10826 161.09856,162.00185 160.80645,162.19659 C 160.80645,162.19659 171.0625,158.59351 171.19482,154.61954 C 171.22123,153.82651 169.97712,152.29787 169.32459,152.74931 C 166.73204,154.5429 161.21242,162.57375 160.80645,162.13088 L 161.42986,175.22252 C 161.42986,175.22252 166.1027,176.35065 167.66558,177.02865 C 169.24741,177.71487 171.02845,180.09882 172.68653,180.572 C 175.052,181.24705 180.98772,178.76313 180.98772,178.76313 C 180.98772,178.76313 180.64354,175.64186 180.99583,174.47118 C 181.53781,172.67016 185.20749,170.30731 186.44878,167.99884 C 187.57029,165.91315 185.6788,164.52517 185.6788,164.52517"
           id="path2382"
           sodipodi:nodetypes="csscssccsscssccsscsss" />
        <path
           style="fill:#000000;fill-opacity:1;fill-rule:evenodd;stroke:#000000;stroke-width:2.5;stroke-linecap:butt;stroke-linejoin:miter;stroke-miterlimit:4;stroke-dasharray:none;stroke-opacity:1"
           d="M 117.28348,125.13276 C 117.28348,125.13276 120.1702,127.52975 120.31906,128.99622 C 120.48732,130.65379 117.46252,132.3397 117.83541,133.96352 C 118.13931,135.2869 121.36096,135.36671 121.4229,136.72313 C 121.56186,139.7663 113.97195,143.62216 113.97195,143.62216 C 113.97195,143.62216 117.76468,134.91854 118.11137,130.92795 C 118.26337,129.17833 117.28348,125.13276 117.28348,125.13276 z"
           id="path3173"
           sodipodi:nodetypes="cssscsc" />
        <path
           style="fill:#000000;fill-opacity:1;fill-rule:evenodd;stroke:#000000;stroke-width:2.5;stroke-linecap:butt;stroke-linejoin:miter;stroke-miterlimit:4;stroke-dasharray:none;stroke-opacity:1"
           d="M 197.84472,123.06782 C 197.84472,123.06782 196.40958,131.04545 198.45009,133.89296 C 199.92732,135.95443 202.14844,139.64623 202.14844,139.64623 C 202.14844,139.64623 200.18338,139.65656 199.49983,139.23289 C 197.81889,138.19101 197.72148,136.75299 196.75461,134.61956 C 196.08026,133.13158 194.52501,130.53619 194.21508,128.30427 C 193.95206,126.41023 197.84472,123.06782 197.84472,123.06782 z"
           id="path3175"
           sodipodi:nodetypes="cscsssc" />
        <path
           sodipodi:type="arc"
           style="opacity:1;fill:#ffffff;fill-opacity:1;fill-rule:evenodd;stroke:#000000;stroke-width:2.5;stroke-linecap:butt;stroke-linejoin:miter;marker:none;marker-start:none;marker-mid:none;marker-end:none;stroke-miterlimit:4;stroke-dasharray:none;stroke-dashoffset:0;stroke-opacity:1;visibility:visible;display:inline;overflow:visible;enable-background:accumulate"
           id="path3177"
           sodipodi:cx="141.94682"
           sodipodi:cy="141.35471"
           sodipodi:rx="8.0072575"
           sodipodi:ry="8.0072575"
           d="M 149.95408,141.35471 A 8.0072575,8.0072575 0 1 1 133.93957,141.35471 A 8.0072575,8.0072575 0 1 1 149.95408,141.35471 z" />
        <path
           sodipodi:type="arc"
           style="opacity:1;fill:#ffffff;fill-opacity:1;fill-rule:evenodd;stroke:#000000;stroke-width:2.5;stroke-linecap:butt;stroke-linejoin:miter;marker:none;marker-start:none;marker-mid:none;marker-end:none;stroke-miterlimit:4;stroke-dasharray:none;stroke-dashoffset:0;stroke-opacity:1;visibility:visible;display:inline;overflow:visible;enable-background:accumulate"
           id="path3179"
           sodipodi:cx="141.94682"
           sodipodi:cy="141.35471"
           sodipodi:rx="8.0072575"
           sodipodi:ry="8.0072575"
           d="M 149.95408,141.35471 A 8.0072575,8.0072575 0 1 1 133.93957,141.35471 A 8.0072575,8.0072575 0 1 1 149.95408,141.35471 z"
           transform="translate(33.970233,-1.4815536)" />
        <path
           style="fill:#000000;fill-opacity:1;fill-rule:evenodd;stroke:none;stroke-width:3.5;stroke-linecap:butt;stroke-linejoin:miter;stroke-miterlimit:4;stroke-dasharray:none;stroke-opacity:1"
           d="M 176.57545,132.98387 C 175.97176,132.98216 175.43021,133.07631 174.88795,133.14012 C 173.80343,133.26774 172.88795,133.45262 172.88795,133.45262 L 173.6692,136.85887 C 173.6692,136.85887 174.41539,136.71228 175.2942,136.60887 C 176.17301,136.50546 177.27509,136.65333 177.1067,136.57762 C 177.03029,136.54326 177.73916,137.33688 177.7942,137.51512 C 177.97082,138.08712 177.86809,140.22176 177.58137,140.80067 C 177.48088,141.00357 176.66348,141.72152 176.61262,141.73817 C 176.87277,141.65298 176.00902,141.72802 175.36262,141.61317 C 174.71623,141.49832 174.17512,141.36317 174.17512,141.36317 C 174.17512,141.36317 172.40414,141.15255 172.1531,141.73139 C 171.82031,142.49873 173.1692,144.32762 173.1692,144.32762 C 173.1692,144.32762 173.86581,144.49183 174.70045,144.64012 C 175.53509,144.78841 176.38656,145.04992 177.63795,144.64012 C 179.12971,144.1516 180.04927,143.20432 180.6692,141.95262 C 181.50127,140.27258 181.70507,138.32049 181.13795,136.48387 C 180.73512,135.17931 180.03601,134.06088 178.5442,133.39012 C 177.83708,133.07218 177.17914,132.98558 176.57545,132.98387 z"
           id="path3183"
           sodipodi:nodetypes="csccsssssscscsssssc" />
        <path
           style="fill:#f8de00;fill-opacity:1;fill-rule:evenodd;stroke:#000000;stroke-width:2.5;stroke-linecap:butt;stroke-linejoin:miter;stroke-miterlimit:4;stroke-dasharray:none;stroke-opacity:1"
           d="M 175.12434,127.61583 C 175.12434,127.61583 172.3628,128.0464 171.22221,128.50268 C 168.98206,129.39883 166.72261,131.42844 166.43322,133.82377 C 166.28192,135.07611 166.76674,136.14084 167.67481,137.01643 C 168.65139,137.95808 170.22172,137.84194 171.57695,137.90328 C 173.56162,137.99312 176.02456,136.43029 177.96226,136.66169 C 180.75206,136.99485 184.36953,138.70461 186.47602,140.56383 C 187.46134,141.43349 187.67966,143.57277 188.78182,144.2886 C 189.77266,144.93213 191.62857,145.35179 192.68396,144.82071 C 193.7689,144.27476 194.33287,142.44969 194.63503,141.27331 C 194.78065,140.70639 194.79997,139.88384 194.63503,139.32224 C 194.38547,138.47252 193.65121,137.4787 193.0387,136.83906 C 192.2729,136.03934 190.02341,134.71062 190.02341,134.71062"
           id="path3167"
           sodipodi:nodetypes="csssssssssssc" />
        <path
           style="fill:#000000;fill-opacity:1;fill-rule:evenodd;stroke:none;stroke-width:3.5;stroke-linecap:butt;stroke-linejoin:miter;stroke-miterlimit:4;stroke-dasharray:none;stroke-opacity:1"
           d="M 142.54423,134.10752 C 141.94054,134.10581 141.39899,134.19996 140.85673,134.26377 C 139.77221,134.39139 138.85673,134.57627 138.85673,134.57627 L 139.63798,137.98252 C 139.63798,137.98252 140.38417,137.83593 141.26298,137.73252 C 142.14179,137.62911 143.24387,137.77698 143.07548,137.70127 C 142.99907,137.66691 143.70794,138.46053 143.76298,138.63877 C 143.9396,139.21077 143.83687,141.34541 143.55015,141.92432 C 143.44966,142.12722 142.63226,142.84517 142.5814,142.86182 C 142.84155,142.77663 141.9778,142.85167 141.3314,142.73682 C 140.68501,142.62197 140.1439,142.48682 140.1439,142.48682 C 140.1439,142.48682 138.37292,142.2762 138.12188,142.85504 C 137.78909,143.62238 139.13798,145.45127 139.13798,145.45127 C 139.13798,145.45127 139.83459,145.61548 140.66923,145.76377 C 141.50387,145.91206 142.35534,146.17357 143.60673,145.76377 C 145.09849,145.27525 146.01805,144.32797 146.63798,143.07627 C 147.47005,141.39623 147.67385,139.44414 147.10673,137.60752 C 146.7039,136.30296 146.00479,135.18453 144.51298,134.51377 C 143.80586,134.19583 143.14792,134.10923 142.54423,134.10752 z"
           id="path3195"
           sodipodi:nodetypes="csccsssssscscsssssc" />
        <path
           style="fill:#f8de00;fill-opacity:1;fill-rule:evenodd;stroke:#000000;stroke-width:2.5;stroke-linecap:butt;stroke-linejoin:miter;stroke-miterlimit:4;stroke-dasharray:none;stroke-opacity:1"
           d="M 126.6421,135.89195 C 126.6421,135.89195 124.32059,140.75327 123.80418,142.98675 C 123.47965,144.39035 122.91413,146.43825 123.44944,147.77573 C 124.00938,149.17475 125.68041,151.34411 127.17421,151.14576 C 128.05211,151.02919 128.37083,149.45285 128.77054,148.66258 C 129.64475,146.93418 129.83471,144.11859 131.07635,142.63201 C 132.59149,140.81798 135.51541,139.09265 137.81641,138.5525 C 140.31156,137.96678 143.76873,139.35104 146.33016,139.26198 C 147.72908,139.21334 149.69318,139.18521 150.94178,138.5525 C 152.15004,137.94023 154.13444,135.35984 154.13444,135.35984 C 154.13444,135.35984 152.99707,132.45613 152.006,131.63507 C 150.74904,130.59373 148.48148,130.06754 146.86227,129.86138 C 144.8502,129.60521 142.13545,130.14672 140.12221,130.39349 C 139.15842,130.51163 136.92956,130.9256 136.92956,130.9256"
           id="path3165"
           sodipodi:nodetypes="csssssssscsssc" />
        <path
           style="fill:none;fill-rule:evenodd;stroke:#000000;stroke-width:2.5;stroke-linecap:butt;stroke-linejoin:miter;stroke-miterlimit:4;stroke-dasharray:none;stroke-opacity:1"
           d="M 102.68249,179.18294 C 102.68249,179.18294 106.66552,179.96113 108.27786,179.48539 C 111.61138,178.5018 115.62617,175.50302 117.65387,172.68022 C 118.09756,172.06256 118.41,170.2606 118.41,170.2606"
           id="path3198"
           sodipodi:nodetypes="cssc" />
        <path
           style="fill:none;fill-rule:evenodd;stroke:#000000;stroke-width:2.5;stroke-linecap:butt;stroke-linejoin:miter;stroke-miterlimit:4;stroke-dasharray:none;stroke-opacity:1"
           d="M 98.90184,225.15566 C 98.90184,225.15566 97.782248,217.99244 98.448162,215.02351 C 99.043326,212.37002 100.87625,209.04145 102.68249,207.00853 C 106.34353,202.88804 117.8051,196.57393 117.8051,196.57393"
           id="path3200"
           sodipodi:nodetypes="cssc" />
        <path
           style="fill:none;fill-rule:evenodd;stroke:#000000;stroke-width:2.5;stroke-linecap:butt;stroke-linejoin:miter;stroke-miterlimit:4;stroke-dasharray:none;stroke-opacity:1"
           d="M 118.41,206.85731 C 118.41,206.85731 110.29185,213.64277 107.67295,217.2919 C 106.38328,219.0889 104.4972,223.94585 104.4972,223.94585"
           id="path3202"
           sodipodi:nodetypes="csc" />
        <path
           style="fill:none;fill-rule:evenodd;stroke:#000000;stroke-width:2.5;stroke-linecap:butt;stroke-linejoin:miter;stroke-miterlimit:4;stroke-dasharray:none;stroke-opacity:1"
           d="M 119.16613,224.70198 C 119.16613,224.70198 114.93967,230.34173 113.57077,233.01941 C 111.89816,236.29117 110.17798,240.93574 109.33644,244.51259 C 108.57341,247.75572 108.04012,252.22154 108.12663,255.5521 C 108.22211,259.22789 109.94134,268.70876 109.94134,268.70876"
           id="path3204"
           sodipodi:nodetypes="csssc" />
        <path
           style="fill:none;fill-rule:evenodd;stroke:#000000;stroke-width:2.5;stroke-linecap:butt;stroke-linejoin:miter;stroke-miterlimit:4;stroke-dasharray:none;stroke-opacity:1"
           d="M 116.05841,284.02886 C 116.05841,284.02886 121.43929,278.73922 121.47119,274.05311 C 121.49444,270.63883 117.28277,266.07066 116.66045,262.7135 C 116.04398,259.38786 117.17302,253.5215 118.7222,250.51484 C 119.30672,249.38041 121.81482,247.59403 121.81482,247.59403"
           id="path3206"
           sodipodi:nodetypes="csssc" />
        <path
           style="fill:none;fill-rule:evenodd;stroke:#000000;stroke-width:2.5;stroke-linecap:butt;stroke-linejoin:miter;stroke-miterlimit:4;stroke-dasharray:none;stroke-opacity:1"
           d="M 145.86852,296.38869 C 145.86852,296.38869 150.56868,290.60003 150.50745,287.62627 C 150.37478,281.18303 143.46171,275.26013 144.49402,268.89874 C 144.70349,267.60795 146.81628,265.36681 147.28855,262.95685 C 147.63408,261.19363 146.97815,258.06964 146.72759,257.38733 C 145.99715,255.39827 140.88597,253.77927 140.88597,253.77927"
           id="path3208"
           sodipodi:nodetypes="cssssc" />
        <path
           style="fill:none;fill-rule:evenodd;stroke:#000000;stroke-width:2.5;stroke-linecap:butt;stroke-linejoin:miter;stroke-miterlimit:4;stroke-dasharray:none;stroke-opacity:1"
           d="M 138.93927,321.19867 C 138.93927,321.19867 132.79625,315.96835 130.36877,312.72626 C 128.14096,309.75086 126.69883,306.45222 126.56148,304.74305 C 126.30801,301.58892 126.33309,299.13046 126.95187,296.02725 C 128.19831,289.77637 134.52976,282.97006 135.46399,276.66495 C 135.73918,274.80772 134.32293,272.13968 135.0736,270.41877 C 135.73912,268.89308 138.48942,268.31916 139.36785,266.9053 C 140.19245,265.57808 140.72362,263.38186 140.53901,261.83028 C 140.41525,260.7901 138.97746,258.70719 138.97746,258.70719"
           id="path3210"
           sodipodi:nodetypes="cssssssss" />
        <path
           style="fill:none;fill-rule:evenodd;stroke:#000000;stroke-width:2.5;stroke-linecap:butt;stroke-linejoin:miter;stroke-miterlimit:4;stroke-dasharray:none;stroke-opacity:1"
           d="M 130.38897,240.74943 C 130.38897,240.74943 128.07504,244.99359 127.65626,246.9956 C 127.24861,248.94439 126.75631,251.8562 127.65626,253.63217 C 128.64097,255.5754 132.52735,255.98319 133.51206,257.92642 C 134.46495,259.80685 134.45483,263.06784 133.51206,264.95337 C 132.72642,266.52464 128.82742,268.46684 128.82742,268.46684 C 128.82742,268.46684 126.68447,260.86167 126.87549,257.53603 C 126.9456,256.31532 128.04665,253.63217 128.04665,253.63217"
           id="path3212"
           sodipodi:nodetypes="csssscss" />
        <path
           style="fill:none;fill-rule:evenodd;stroke:#000000;stroke-width:2.5;stroke-linecap:butt;stroke-linejoin:miter;stroke-miterlimit:4;stroke-dasharray:none;stroke-opacity:1"
           d="M 177.2353,264.17259 C 177.2353,264.17259 180.65934,271.69356 180.06678,275.07048 C 179.63218,277.54722 176.06974,279.97496 176.16291,282.48782 C 176.20385,283.59193 178.11485,285.61091 178.11485,285.61091 C 178.11485,285.61091 175.32351,286.82614 174.21098,286.39168 C 172.72716,285.81223 171.64056,283.59143 171.08789,282.09743 C 170.06882,279.34263 171.36128,276.17447 169.81326,273.67826 C 169.09344,272.51755 165.13333,270.41877 165.13333,270.41877 C 165.13333,270.41877 169.29414,284.39648 167.80489,289.25138 C 166.84188,292.39074 161.07297,291.52814 160.05831,295.40348 C 159.4584,297.69477 159.68846,301.41254 161.22947,303.2112 C 162.50678,304.70208 165.38858,305.37871 167.13618,304.4842 C 168.78456,303.64048 170.25927,301.14046 170.25927,301.14046 C 170.25927,301.14046 171.46015,305.90415 170.42901,307.60729 C 169.59268,308.98866 166.6779,311.62997 166.6779,311.62997"
           id="path3214"
           sodipodi:nodetypes="csscssscsssscsc" />
        <path
           style="fill:none;fill-rule:evenodd;stroke:#000000;stroke-width:2.5;stroke-linecap:butt;stroke-linejoin:miter;stroke-miterlimit:4;stroke-dasharray:none;stroke-opacity:1"
           d="M 184.80964,289.66226 C 184.80964,289.66226 183.31755,293.38587 183.57483,295.0131 C 184.13704,298.56898 189.74887,305.30317 189.74887,305.30317"
           id="path3216"
           sodipodi:nodetypes="csc" />
        <path
           style="fill:none;fill-rule:evenodd;stroke:#000000;stroke-width:2.5;stroke-linecap:butt;stroke-linejoin:miter;stroke-miterlimit:4;stroke-dasharray:none;stroke-opacity:1"
           d="M 196.33452,283.07662 L 194.68811,275.25617 L 193.8649,262.49648"
           id="path3218" />
        <path
           style="fill:none;fill-rule:evenodd;stroke:#000000;stroke-width:2.5;stroke-linecap:butt;stroke-linejoin:miter;stroke-miterlimit:4;stroke-dasharray:none;stroke-opacity:1"
           d="M 198.80413,245.20916 C 198.80413,245.20916 196.83492,251.90767 197.56933,254.67603 C 198.88019,259.61727 207.8594,268.25892 207.8594,268.25892"
           id="path3220"
           sodipodi:nodetypes="csc" />
        <path
           style="fill:none;fill-rule:evenodd;stroke:#000000;stroke-width:2.5;stroke-linecap:butt;stroke-linejoin:miter;stroke-miterlimit:4;stroke-dasharray:none;stroke-opacity:1"
           d="M 208.271,209.39972 C 208.271,209.39972 208.516,215.53917 209.91741,217.63178 C 211.8993,220.59118 221.03069,223.39421 221.03069,223.39421"
           id="path3222"
           sodipodi:nodetypes="csc" />
        <path
           style="fill:none;fill-rule:evenodd;stroke:#000000;stroke-width:2.5;stroke-linecap:butt;stroke-linejoin:miter;stroke-miterlimit:4;stroke-dasharray:none;stroke-opacity:1"
           d="M 200.45055,220.513 C 200.45055,220.513 209.90545,230.49456 212.38703,235.7423 C 214.82042,240.88813 216.50305,254.26442 216.50305,254.26442"
           id="path3224"
           sodipodi:nodetypes="csc" />
        <path
           style="fill:#000000;fill-opacity:1;fill-rule:evenodd;stroke:none;stroke-width:2.33100319;stroke-linecap:butt;stroke-linejoin:miter;stroke-miterlimit:4;stroke-dasharray:none;stroke-opacity:1"
           d="M 160.3125,176 C 159.85666,192.56862 160.46875,198.78125 160.46875,198.78125 L 161.53327,202.15771 L 162.78125,198.5625 C 162.78125,198.5625 162.20237,192.55984 162.65625,176.0625 L 160.3125,176 z"
           id="path3226"
           sodipodi:nodetypes="cccccc" />
      </g>
    </g>
  </g>
</svg>
