<?xml version="1.0" encoding="UTF-8" standalone="no"?>
<svg
   xmlns:dc="http://purl.org/dc/elements/1.1/"
   xmlns:cc="http://creativecommons.org/ns#"
   xmlns:rdf="http://www.w3.org/1999/02/22-rdf-syntax-ns#"
   xmlns:svg="http://www.w3.org/2000/svg"
   xmlns="http://www.w3.org/2000/svg"
   xmlns:sodipodi="http://sodipodi.sourceforge.net/DTD/sodipodi-0.dtd"
   xmlns:inkscape="http://www.inkscape.org/namespaces/inkscape"
   version="1.0"
   inkscape:output_extension="org.inkscape.output.svg.inkscape"
   sodipodi:docname="variant-lion-statant-guardant-1.svg"
   inkscape:version="1.0rc1 (09960d6, 2020-04-09)"
   sodipodi:version="0.32"
   id="svg2"
   height="350"
   width="420">
  <defs
     id="defs4">
    <inkscape:perspective
       id="perspective10"
       inkscape:persp3d-origin="372.04724 : 350.78739 : 1"
       inkscape:vp_z="744.09448 : 526.18109 : 1"
       inkscape:vp_y="0 : 1000 : 0"
       inkscape:vp_x="0 : 526.18109 : 1"
       sodipodi:type="inkscape:persp3d" />
    <inkscape:perspective
       sodipodi:type="inkscape:persp3d"
       inkscape:vp_x="0 : 526.18109 : 1"
       inkscape:vp_y="0 : 1000 : 0"
       inkscape:vp_z="744.09448 : 526.18109 : 1"
       inkscape:persp3d-origin="372.04724 : 350.78739 : 1"
       id="perspective2498" />
    <inkscape:perspective
       sodipodi:type="inkscape:persp3d"
       inkscape:vp_x="0 : 526.18109 : 1"
       inkscape:vp_y="0 : 1000 : 0"
       inkscape:vp_z="744.09448 : 526.18109 : 1"
       inkscape:persp3d-origin="372.04724 : 350.78739 : 1"
       id="perspective5147" />
  </defs>
  <sodipodi:namedview
     inkscape:window-maximized="0"
     inkscape:document-rotation="0"
     inkscape:guide-bbox="true"
     showguides="true"
     inkscape:window-y="25"
     inkscape:window-x="0"
     inkscape:window-height="710"
     inkscape:window-width="1280"
     showgrid="false"
     inkscape:current-layer="layer3"
     inkscape:document-units="px"
     inkscape:cy="88.445188"
     inkscape:cx="123.03866"
     inkscape:zoom="8.7324084"
     inkscape:pageshadow="2"
     inkscape:pageopacity="0.0"
     objecttolerance="10"
     guidetolerance="10"
     gridtolerance="10000"
     borderopacity="1.0"
     bordercolor="#666666"
     pagecolor="#ffffff"
     id="base" />
  <metadata
     id="metadata7">
    <rdf:RDF>
      <cc:Work
         rdf:about="">
        <dc:format>image/svg+xml</dc:format>
        <dc:type
           rdf:resource="http://purl.org/dc/dcmitype/StillImage" />
      </cc:Work>
    </rdf:RDF>
  </metadata>
  <g
     inkscape:label="Bottom"
     id="layer1"
     inkscape:groupmode="layer" />
  <g
     style="opacity:1"
     inkscape:label="Main"
     id="layer3"
     inkscape:groupmode="layer">
    <g
       id="g3014">
      <g
         id="g2924"
         transform="translate(-458.526,25.677456)">
        <path
           sodipodi:nodetypes="csssccccss"
           id="path2785"
           d="M 482.75049,248.89298 C 483.54008,247.84774 484.97827,246.66059 486.21905,246.24055 C 487.20467,245.90688 488.69078,245.94205 489.68761,246.24055 C 492.35481,247.03924 494.84751,250.3283 497.44087,251.34138 C 501.65875,252.98907 512.33528,253.78977 512.33528,253.78977 L 501.01145,267.05192 L 483.05654,268.68418 L 479.79201,263.07328 C 479.79201,263.07328 479.34468,258.54342 479.69,256.64624 C 480.13779,254.18603 481.24321,250.88829 482.75049,248.89298 z"
           style="opacity:1;fill:#214263;fill-opacity:1;fill-rule:evenodd;stroke:#000000;stroke-width:3;stroke-linecap:butt;stroke-linejoin:miter;stroke-miterlimit:4;stroke-dasharray:none;stroke-opacity:1" />
        <path
           id="path2787"
           d="M 482.85251,248.995 L 482.85251,248.995 z"
           style="opacity:1;fill:#f8c300;fill-opacity:1;fill-rule:evenodd;stroke:#000000;stroke-width:1px;stroke-linecap:butt;stroke-linejoin:miter;stroke-opacity:1" />
        <path
           sodipodi:nodetypes="ccccsccsccsssssccssssccsscscccsscscssscssccccssccc"
           id="path2791"
           d="M 576.50871,119.0035 L 506.98179,243.29056 L 498.98312,262.9796 L 492.83029,264.21016 C 492.83029,264.21016 485.04031,261.62007 481.7552,262.36431 C 479.55775,262.86214 475.60238,266.67129 475.60238,266.67129 L 482.37049,282.05335 C 482.37049,282.05335 485.64592,284.39744 487.29275,284.51448 C 489.03946,284.63862 492.83029,282.66864 492.83029,282.66864 L 495.29142,277.13109 C 495.29142,276.14949 507.51819,266.27246 510.46242,265.43894 C 511.17284,265.23782 511.15359,263.2375 510.46242,262.97781 C 509.70847,262.69452 508.69383,265.21987 507.18184,266.65261 C 505.20892,268.52213 504.73514,270.1601 503.77159,270.94246 C 500.07659,273.9426 500.39329,274.4107 499.5984,278.36166 C 499.25301,280.07838 501.44425,283.8992 501.44425,283.8992 L 521.13329,286.36033 C 521.13329,286.36033 527.3286,282.89111 527.90139,280.20751 C 528.57429,277.05489 524.25445,273.51833 523.59442,270.36299 C 523.10311,268.01422 521.22805,262.76229 523.59442,262.36431 C 525.8419,261.98633 522.45652,266.81467 523.25697,270.43856 C 524.24024,274.8901 529.13196,278.36166 529.13196,278.36166 L 537.13063,278.97694 C 537.13063,278.97694 545.91085,271.68265 547.59043,267.28657 C 547.85394,266.59686 548.03722,265.41325 547.59043,264.82544 C 545.50376,262.08013 536.51535,261.74903 536.51535,261.74903 C 536.51535,261.74903 536.16734,260.3185 536.72461,259.49538 C 537.96642,257.6612 542.66817,258.67262 542.66817,258.67262 L 544.51402,245.75169 L 547.59043,253.75036 C 547.59043,253.75036 551.86015,247.90353 552.91871,244.31901 C 553.70288,241.66361 553.79427,237.71646 552.91871,235.08977 C 552.335,233.33865 552.10668,231.40166 552.10668,231.40166 C 552.10668,231.40166 556.40337,235.09302 557.84276,238.16618 C 558.70753,240.0125 558.04666,245.96275 558.04666,245.96275 C 558.04666,245.96275 560.65793,242.80698 561.32369,241.20748 C 562.73925,237.80663 564.09853,232.78717 563.58778,229.13906 C 563.18719,226.27776 561.05886,222.80239 559.2808,220.5251 C 557.1862,217.84239 556.42619,217.04984 556.42619,217.04984 C 556.42619,217.04984 557.71052,217.18696 559.60028,218.52346 C 561.68199,219.9957 564.45446,222.79164 566.04891,225.44736 C 567.5956,228.02354 567.89475,235.29188 567.89475,235.29188 L 571.1094,228.97927 L 572.20173,221.75567 L 569.7406,205.75833 C 569.7406,205.75833 578.804,194.29419 584.50738,192.83739 C 591.10278,191.15274 599.85426,197.98895 606.65755,197.75965 C 613.19554,197.53929 607.44256,113.69933 607.44256,113.69933 L 586.96851,108.54369 L 576.50871,119.0035 z"
           style="opacity:1;fill:#214263;fill-opacity:1;fill-rule:evenodd;stroke:#000000;stroke-width:3;stroke-linecap:butt;stroke-linejoin:miter;stroke-miterlimit:4;stroke-dasharray:none;stroke-opacity:1" />
        <path
           sodipodi:nodetypes="csssscssssss"
           id="path2853"
           d="M 488.34378,251.08252 C 486.4525,248.91876 483.47871,247.66767 480.60661,247.76659 C 478.13652,247.85166 475.16254,249.9004 473.23787,251.45096 C 471.24839,253.05374 468.59392,255.62533 467.89554,258.08282 C 467.53015,259.3686 467.60322,260.421 468.26398,261.58296 C 468.88695,262.67847 470.65882,264.71467 470.65882,264.71467 C 470.65882,264.71467 471.04304,262.04674 471.76413,261.21453 C 472.84863,259.96289 475.14305,259.26558 476.73802,258.81969 C 478.3957,258.35627 480.75769,258.58768 482.44879,258.26703 C 483.63468,258.04217 485.30589,257.82034 486.31738,257.16172 C 487.40252,256.45514 488.80177,255.11031 489.08065,253.84579 C 489.26543,253.00797 488.9084,251.72849 488.34378,251.08252 z"
           style="opacity:1;fill:#848401;fill-rule:evenodd;stroke:#000000;stroke-width:2.5;stroke-linecap:butt;stroke-linejoin:miter;stroke-miterlimit:4;stroke-dasharray:none;stroke-opacity:1" />
        <path
           sodipodi:nodetypes="cssssscssssss"
           id="path2855"
           d="M 486.31738,268.21482 C 487.0866,269.55866 487.12959,271.95758 486.5016,273.37294 C 485.94484,274.62774 484.2835,275.8297 483.00145,276.32043 C 481.349,276.95294 478.73036,275.8021 477.10646,276.50465 C 475.1697,277.34256 473.20772,279.66273 472.13256,281.47854 C 471.42863,282.6674 470.84389,284.51814 470.84304,285.89978 C 470.84193,287.68375 472.501,291.61055 472.501,291.61055 C 472.501,291.61055 466.41227,286.9866 465.31649,284.0576 C 464.44421,281.72602 464.92703,278.13901 465.68492,275.76778 C 466.3663,273.63594 468.14278,271.07444 469.73773,269.50435 C 471.22393,268.04131 473.63621,266.42269 475.63271,265.81998 C 477.53811,265.24477 480.34608,265.10589 482.26457,265.63577 C 483.65371,266.01945 485.60145,266.96408 486.31738,268.21482 z"
           style="opacity:1;fill:#848401;fill-rule:evenodd;stroke:#000000;stroke-width:2.5;stroke-linecap:butt;stroke-linejoin:miter;stroke-miterlimit:4;stroke-dasharray:none;stroke-opacity:1" />
        <path
           sodipodi:nodetypes="csssssscssss"
           id="path2857"
           d="M 515.05545,282.21542 C 514.84029,280.16997 513.17672,278.68284 511.18686,278.16262 C 508.994,277.58932 505.3739,277.63123 503.63391,279.08371 C 502.37749,280.13252 502.82898,282.8172 502.5286,284.42604 C 502.15841,286.40878 501.45438,289.04114 501.42329,291.0579 C 501.39149,293.12107 501.63913,295.93483 502.34438,297.87398 C 502.76886,299.04113 503.51701,300.69223 504.555,301.37413 C 506.05101,302.35692 510.44999,302.29522 510.44999,302.29522 C 510.44999,302.29522 507.09021,299.84439 506.5814,298.24241 C 506.12478,296.80473 506.72797,294.65667 507.31827,293.26852 C 508.27427,291.02038 510.6427,288.62291 512.29217,286.82088 C 513.61251,285.37843 515.26002,284.16019 515.05545,282.21542 z"
           style="opacity:1;fill:#848401;fill-rule:evenodd;stroke:#000000;stroke-width:2.5;stroke-linecap:butt;stroke-linejoin:miter;stroke-miterlimit:4;stroke-dasharray:none;stroke-opacity:1" />
        <path
           sodipodi:nodetypes="cssscssssss"
           id="path2859"
           d="M 542.68819,270.24122 C 544.80642,271.31988 546.94282,272.54886 548.03052,274.66246 C 549.21908,276.97206 549.08134,280.9453 548.03052,283.32073 C 547.36577,284.82342 546.43851,286.26052 545.08303,287.18931 C 543.65584,288.16723 539.92491,289.76837 539.92491,289.76837 C 539.92491,289.76837 540.88658,286.70676 541.03022,285.34713 C 541.1987,283.75235 541.52645,281.45693 540.846,280.0048 C 539.96577,278.12633 536.41114,277.34366 535.68789,275.39934 C 535.24098,274.1979 535.45081,272.17203 536.24054,271.16232 C 537.08146,270.08716 539.11306,269.53932 540.47757,269.50435 C 541.1764,269.48644 542.06525,269.924 542.68819,270.24122 z"
           style="opacity:1;fill:#848401;fill-rule:evenodd;stroke:#000000;stroke-width:2.5;stroke-linecap:butt;stroke-linejoin:miter;stroke-miterlimit:4;stroke-dasharray:none;stroke-opacity:1" />
      </g>
      <g
         style="opacity:1"
         id="g2697">
        <path
           sodipodi:nodetypes="csssscccc"
           id="path8117"
           d="M 229.42322,283.74882 C 229.42322,283.74882 215.33116,285.89441 212.02558,282.53098 C 210.99861,281.48603 211.75006,279.86867 211.1557,278.52952 C 210.45187,276.94372 209.40028,275.5918 207.67617,275.39795 C 204.94297,275.09064 202.31428,278.61162 200.89109,280.9652 C 198.99117,284.10715 198.80337,292.27367 198.80337,292.27367 L 204.37062,299.58067 L 221.43599,298.3844 L 229.42322,283.74882 z"
           style="fill:#214263;fill-opacity:1;fill-rule:evenodd;stroke:#000000;stroke-width:3;stroke-linecap:butt;stroke-linejoin:miter;stroke-miterlimit:4;stroke-dasharray:none;stroke-opacity:1" />
        <path
           sodipodi:nodetypes="csssscsscscsscsssssscsssssssscscccsscssssccscccsccsccssccscsssssscssssssssscssscsssssscsccccc"
           id="path8042"
           d="M 338.35368,206.40145 C 338.35368,206.40145 307.70685,229.13901 296.67878,241.09927 C 294.04679,243.95374 290.23322,247.93245 289.23021,251.68337 C 288.3512,254.97057 289.1024,259.77832 290.25709,262.97911 C 291.5375,266.52841 293.80486,272.13241 297.37724,273.34694 C 300.64111,274.45658 308.308,269.80233 308.308,269.80233 C 308.308,269.80233 304.43052,277.5275 301.38581,279.3103 C 299.13793,280.62652 295.32292,280.8149 292.7632,280.33199 C 290.83988,279.96914 287.00941,277.25653 287.00941,277.25653 C 287.00941,277.25653 287.06633,281.86449 285.96508,283.62503 C 284.49995,285.96731 279.64301,289.44403 279.64301,289.44403 C 279.64301,289.44403 279.7901,285.98334 279.74922,284.59208 C 279.6796,282.22284 279.05989,279.45497 277.79838,277.4483 C 277.0357,276.23511 273.62279,275.12853 273.62279,275.12853 C 273.62279,275.12853 275.12947,277.6452 275.47861,278.84016 C 276.22437,281.39259 276.77182,285.02135 276.40651,287.65529 C 276.20057,289.14016 274.39545,290.80381 274.5507,292.29483 C 274.75859,294.29141 274.62551,295.45518 276.35062,296.4816 C 277.67181,297.26769 279.42995,298.24604 280.81688,297.58279 C 281.72235,297.14978 283.86873,296.29072 284.15958,295.3301 C 284.40158,294.53081 285.22164,292.75878 285.22164,292.75878 C 285.22164,292.75878 286.55416,295.57137 286.40504,298.1957 C 286.32401,299.62168 285.13188,300.99208 284.59559,301.82546 C 284.31757,302.25748 283.4852,304.1704 281.24095,304.77524 C 279.05881,305.36335 276.42235,305.07583 275.93138,304.9837 C 275.93138,304.9837 271.59141,304.72737 269.99533,303.86975 C 267.54897,302.55525 264.96627,299.61389 263.54995,297.22504 C 262.76034,295.89323 262.87396,293.58893 262.02394,292.29483 C 261.31944,291.22228 259.42474,290.61843 258.77626,289.5111 C 258.05896,288.28625 258.06076,288.37637 258.06076,288.37637 C 258.06076,288.37637 259.34935,288.60675 259.93558,290.90337 C 260.5851,293.44794 262.02394,300.18205 262.02394,300.18205 L 255.83524,299.15781 L 251.7383,295.87477 C 251.7383,295.87477 250.33552,294.79464 250.42508,294.15065 C 250.52094,293.46135 252.04806,293.41461 252.2809,292.75878 C 252.85692,291.13636 250.42519,289.04674 250.42519,289.04674 C 250.42519,289.04674 252.68088,291.24687 252.08825,292.89048 C 251.87211,293.48992 250.4494,293.57487 250.42508,294.21162 C 250.33719,296.51319 253.03086,297.42177 256.05504,299.43155 C 258.25277,300.89211 260.98965,301.76748 261.55998,303.42973 C 262.07501,304.9308 260.16812,308.53323 260.16812,308.53323 L 249.03322,314.10068 C 249.03322,314.10068 244.15695,314.2922 242.53786,313.17277 C 239.92465,311.36602 235.34703,304.35753 235.34703,304.35753 L 234.65064,304.82159 L 234.65064,311.78091 C 234.65064,311.78091 240.00147,316.67617 239.29018,319.20417 C 238.7844,321.00175 233.72273,321.9879 233.72273,321.9879 L 219.34015,322.91581 C 219.34015,322.91581 216.14496,320.69179 215.62852,319.20417 C 214.84716,316.95346 216.55643,311.31695 216.55643,311.31695 L 210.98898,313.17277 C 210.98898,313.17277 208.8889,320.19535 206.34943,321.52394 C 205.11,322.17238 203.02342,321.54092 201.70989,321.05999 C 199.17214,320.13082 194.28663,315.95649 194.28663,315.95649 L 190.11104,298.32623 C 190.11104,298.32623 192.36633,295.3397 193.82267,295.07856 C 196.90139,294.52651 203.56571,298.79019 203.56571,298.79019 C 203.56571,298.79019 214.00327,295.68995 217.48433,292.75878 C 221.17559,289.65061 223.19869,283.00159 226.29946,279.30411 C 228.38738,276.81438 231.42839,273.59841 234.18668,271.88085 C 235.19617,271.25225 236.71825,270.63613 237.89832,270.48898 C 240.39972,270.17706 243.81444,270.76511 246.24949,271.41689 C 248.59761,272.0454 251.26959,274.29921 253.67276,274.66457 C 254.91883,274.85401 257.84835,274.20062 257.84835,274.20062 C 257.84835,274.20062 249.35084,272.45713 245.78554,271.41689 C 241.39044,270.13453 235.94804,266.86446 231.40296,266.3134 C 230.01433,266.14504 228.07188,267.27191 226.76342,266.77735 C 224.27602,265.83718 221.70398,262.75714 220.73201,260.28199 C 220.57939,259.89333 221.02727,259.18539 220.73201,258.89013 C 219.6494,257.80752 217.10114,259.30905 215.62852,258.89013 C 212.32206,257.94952 208.22993,255.37288 205.88548,252.85872 C 203.84738,250.67309 201.23775,247.03204 201.24594,244.0436 C 201.25242,241.67744 203.30903,238.78165 204.95757,237.08428 C 207.30303,234.66934 214.70061,231.51683 214.70061,231.51683 C 214.70061,231.51683 211.37157,236.14112 210.98898,238.47615 C 210.71519,240.14714 210.9109,242.68155 211.91688,244.0436 C 212.47159,244.79465 213.79573,245.20531 214.70061,245.43546 C 218.61479,246.43099 228.15528,245.89941 228.15528,245.89941 C 228.15528,245.89941 232.33486,238.17507 234.65064,235.22847 C 237.56978,231.51416 242.02157,226.94839 245.78554,224.09357 C 247.82134,222.5495 250.87271,220.95302 253.20881,219.91798 C 256.02572,218.66991 260.62427,218.68899 262.95184,216.6703 C 264.36256,215.44679 265.0586,212.8432 265.73557,211.10285 C 266.47025,209.21413 267.62452,206.6338 267.59139,204.60749 C 267.52447,200.51445 263.4158,191.61677 263.4158,191.61677 C 263.4158,191.61677 157.834,238.74473 109.77411,237.25468 C 100.94173,236.98084 145.6636,152.37491 145.6636,152.37491 L 236.61566,164.38826 L 291.26547,166.41233 L 328.37337,181.93018 L 338.35368,206.40145 z"
           style="fill:#214263;fill-opacity:1;fill-rule:evenodd;stroke:#000000;stroke-width:3;stroke-linecap:butt;stroke-linejoin:miter;stroke-miterlimit:4;stroke-dasharray:none;stroke-opacity:1" />
        <path
           sodipodi:nodetypes="css"
           id="path8120"
           d="M 220.4459,258.12285 C 220.4459,258.12285 223.9619,257.04862 225.31634,256.26745 C 226.55888,255.55082 229.02716,253.25241 229.02716,253.25241"
           style="fill:none;fill-rule:evenodd;stroke:#000000;stroke-width:2.5;stroke-linecap:butt;stroke-linejoin:miter;stroke-miterlimit:4;stroke-dasharray:none;stroke-opacity:1" />
        <path
           sodipodi:nodetypes="csss"
           id="path8122"
           d="M 237.14457,253.94819 C 237.14457,253.94819 233.80595,254.65283 232.73797,255.57167 C 231.53407,256.60744 230.32012,258.62765 230.18679,260.21019 C 230.04454,261.89854 232.04219,265.54448 232.04219,265.54448"
           style="fill:none;fill-rule:evenodd;stroke:#000000;stroke-width:2.5;stroke-linecap:butt;stroke-linejoin:miter;stroke-miterlimit:4;stroke-dasharray:none;stroke-opacity:1" />
        <path
           sodipodi:nodetypes="csss"
           id="path8124"
           d="M 240.62345,256.03552 C 240.62345,256.03552 237.60903,257.74992 237.14457,259.05056 C 236.45599,260.97883 237.52928,263.88119 238.3042,265.77641 C 238.72056,266.7947 240.39153,268.79145 240.39153,268.79145"
           style="fill:none;fill-rule:evenodd;stroke:#000000;stroke-width:2.5;stroke-linecap:butt;stroke-linejoin:miter;stroke-miterlimit:4;stroke-dasharray:none;stroke-opacity:1" />
        <path
           sodipodi:nodetypes="csss"
           id="path8126"
           d="M 247.11738,257.19515 C 247.11738,257.19515 244.31353,259.84633 243.87042,261.36982 C 243.46051,262.77916 243.79474,264.87528 244.33427,266.24026 C 245.04537,268.03928 248.27701,271.34263 248.27701,271.34263"
           style="fill:none;fill-rule:evenodd;stroke:#000000;stroke-width:2.5;stroke-linecap:butt;stroke-linejoin:miter;stroke-miterlimit:4;stroke-dasharray:none;stroke-opacity:1" />
        <path
           sodipodi:nodetypes="css"
           id="path8128"
           d="M 234.36145,304.73997 C 234.36145,304.73997 234.77266,300.78548 235.05723,299.40568 C 235.44492,297.52585 239.46382,294.76716 239.46382,294.76716"
           style="fill:none;fill-rule:evenodd;stroke:#000000;stroke-width:2.5;stroke-linecap:butt;stroke-linejoin:miter;stroke-miterlimit:4;stroke-dasharray:none;stroke-opacity:1" />
        <path
           sodipodi:nodetypes="csc"
           id="path8130"
           d="M 217.43086,309.84234 C 217.43086,309.84234 217.32288,307.09677 217.89471,306.13153 C 218.68213,304.80239 222.06938,303.11649 222.06938,303.11649"
           style="fill:none;fill-rule:evenodd;stroke:#000000;stroke-width:2.5;stroke-linecap:butt;stroke-linejoin:miter;stroke-miterlimit:4;stroke-dasharray:none;stroke-opacity:1" />
        <path
           sodipodi:nodetypes="cscsssss"
           id="path8162"
           d="M 200.90282,290.33498 C 198.96439,290.53101 196.50335,288.981 194.55512,288.96251 C 191.61798,288.93464 184.94779,290.84966 184.94779,290.84966 C 184.94779,290.84966 187.991,286.6598 189.75145,285.35976 C 191.88276,283.78585 195.16641,281.83445 197.81475,281.75701 C 199.84995,281.6975 202.81637,282.63121 204.16245,284.15884 C 205.03726,285.15164 205.7797,287.26236 205.19181,288.44783 C 204.56726,289.70722 202.30143,290.19354 200.90282,290.33498 z"
           style="fill:#848401;fill-rule:evenodd;stroke:#000000;stroke-width:2.5;stroke-linecap:butt;stroke-linejoin:miter;stroke-miterlimit:4;stroke-dasharray:none;stroke-opacity:1" />
        <path
           sodipodi:nodetypes="cssssssscsssss"
           id="path8164"
           d="M 193.18626,304.06765 C 194.67094,304.02056 196.6813,304.56863 197.99809,305.28713 C 199.34426,306.02164 201.39536,307.26001 201.78925,308.79311 C 202.04043,309.77075 201.34954,311.18441 200.76856,311.99423 C 200.35356,312.57268 199.51581,313.09931 198.87298,313.36614 C 197.516,313.92939 195.32192,313.3586 194.06112,314.12831 C 192.95788,314.80185 191.9254,316.40036 191.43649,317.6343 C 190.74506,319.37935 190.23506,320.17553 190.41579,322.05489 C 190.55417,323.49375 192.31137,327.84739 192.31137,327.84739 C 192.31137,327.84739 187.3884,325.60529 186.04138,324.03654 C 184.07315,321.7443 182.84086,318.88194 182.9793,315.80508 C 183.06675,313.86168 184.34869,311.4222 185.45814,309.86015 C 186.82714,307.93266 189.27699,305.83151 191.29067,304.67739 C 191.81239,304.37837 192.59154,304.08651 193.18626,304.06765 z"
           style="fill:#848401;fill-opacity:1;fill-rule:evenodd;stroke:#000000;stroke-width:2.5;stroke-linecap:butt;stroke-linejoin:miter;stroke-miterlimit:4;stroke-dasharray:none;stroke-opacity:1" />
        <path
           sodipodi:nodetypes="csssscsss"
           id="path8166"
           d="M 222.49194,318.46029 C 223.03984,317.79033 224.24111,317.26656 225.10618,317.24031 C 227.24121,317.17553 230.52739,318.08852 231.72892,319.85455 C 232.64065,321.19464 232.07063,323.67291 231.72892,325.25731 C 231.22079,327.61335 229.88566,330.66569 228.41755,332.57718 C 227.05963,334.34521 222.66622,337.28281 222.66622,337.28281 C 222.66622,337.28281 223.77973,332.16112 223.53763,329.96294 C 223.31316,327.92479 221.37549,325.56234 221.27196,323.51448 C 221.1932,321.95667 221.50448,319.66773 222.49194,318.46029 z"
           style="fill:#848401;fill-opacity:1;fill-rule:evenodd;stroke:#000000;stroke-width:2.5;stroke-linecap:butt;stroke-linejoin:miter;stroke-miterlimit:4;stroke-dasharray:none;stroke-opacity:1" />
        <path
           sodipodi:nodetypes="cssssscssss"
           id="path8168"
           d="M 251.59714,307.3062 C 252.69382,305.7057 255.93868,305.56672 257.87132,305.73766 C 259.52649,305.88406 260.60935,306.58028 261.70553,307.82905 C 263.14597,309.47 264.00342,312.62667 263.79692,314.80036 C 263.66864,316.15066 262.63011,317.81642 261.70553,318.80886 C 260.61749,319.97675 259.9028,321.25032 258.39416,321.77166 C 256.6533,322.37325 252.29427,322.46879 252.29427,322.46879 C 252.29427,322.46879 255.0548,319.54738 255.43136,317.93744 C 255.84058,316.18786 255.48688,313.55108 254.55995,312.01183 C 254.05823,311.17868 252.43838,310.93325 251.94571,310.09472 C 251.51864,309.36783 251.1206,308.00166 251.59714,307.3062 z"
           style="fill:#848401;fill-opacity:1;fill-rule:evenodd;stroke:#000000;stroke-width:2.5;stroke-linecap:butt;stroke-linejoin:miter;stroke-miterlimit:4;stroke-dasharray:none;stroke-opacity:1" />
        <g
           transform="translate(-25.163704,-65.527947)"
           style="fill:#f8c300;fill-opacity:1"
           id="g3339">
          <path
             style="fill:#214263;fill-opacity:1;fill-rule:evenodd;stroke:#000000;stroke-width:3;stroke-linecap:butt;stroke-linejoin:miter;stroke-miterlimit:4;stroke-dasharray:none;stroke-opacity:1"
             d="M 293.24787,262.97598 C 289.05389,264.64325 284.62796,269.17118 281.66359,272.57438 C 280.05282,274.42359 277.36086,279.52495 277.36086,279.52495 C 277.36086,279.52495 283.87945,278.77665 286.62828,278.20103 C 292.07503,277.06046 298.94457,273.53978 304.50118,273.23634 C 309.42366,272.96753 315.98277,274.51687 320.71918,275.88418 C 326.1056,277.43913 337.93011,283.16573 337.93011,283.16573 C 337.93011,283.16573 326.79421,264.65805 318.7333,261.32108 C 311.65417,258.39054 300.36764,260.1456 293.24787,262.97598 z"
             id="path3303"
             sodipodi:nodetypes="cscssscss" />
        </g>
        <path
           sodipodi:nodetypes="csssccccss"
           id="path7806"
           d="M 59.51,284.24652 C 60.299585,283.20128 61.737784,282.01413 62.978562,281.59409 C 63.964183,281.26042 65.450289,281.29559 66.447123,281.59409 C 69.114316,282.39278 71.607022,285.68184 74.200378,286.69492 C 78.418256,288.34261 89.094786,289.14331 89.094786,289.14331 L 77.770956,302.40546 L 59.81605,304.03772 L 56.551521,298.42682 C 56.551521,298.42682 56.104188,293.89696 56.449505,291.99978 C 56.897302,289.53957 58.002719,286.24183 59.51,284.24652 z"
           style="fill:#214263;fill-opacity:1;fill-rule:evenodd;stroke:#000000;stroke-width:3;stroke-linecap:butt;stroke-linejoin:miter;stroke-miterlimit:4;stroke-dasharray:none;stroke-opacity:1" />
        <path
           id="path7808"
           d="M 59.612017,284.34854 L 59.612017,284.34854 z"
           style="fill:#f8c300;fill-opacity:1;fill-rule:evenodd;stroke:#000000;stroke-width:1px;stroke-linecap:butt;stroke-linejoin:miter;stroke-opacity:1" />
        <path
           sodipodi:nodetypes="csssccccc"
           id="path7851"
           d="M 356.24032,291.44144 C 356.24032,291.44144 347.24956,292.47652 344.00399,290.74882 C 341.77849,289.56413 341.16662,285.20691 338.92476,284.05347 C 336.76828,282.94395 333.05968,282.83621 330.84417,283.82259 C 329.18329,284.56204 326.91931,288.44007 326.91931,288.44007 L 331.07504,300.21465 L 336.84689,301.13815 L 346.68213,300.95345 L 356.24032,291.44144 z"
           style="fill:#214263;fill-opacity:1;fill-rule:evenodd;stroke:#000000;stroke-width:3;stroke-linecap:butt;stroke-linejoin:miter;stroke-miterlimit:4;stroke-dasharray:none;stroke-opacity:1" />
        <path
           sodipodi:nodetypes="ccccsccsccsssssccssssccsscscccsscscssscssccccsssssssssscssscssscssscscscssccssccccscscccscccsscsscsscsscsscsssscssscsssscssssscssscsssssscsssssssssscssscssssscsssssscssssscsssssssssssscssscsssscsssscssssssssscssssccc"
           id="path3268"
           d="M 153.26822,154.35704 L 83.741296,278.6441 L 75.742626,298.33314 L 69.589798,299.5637 C 69.589798,299.5637 61.79982,296.97361 58.514713,297.71785 C 56.317255,298.21568 52.361889,302.02483 52.361889,302.02483 L 59.129996,317.40689 C 59.129996,317.40689 62.405433,319.75098 64.052256,319.86802 C 65.798974,319.99216 69.589798,318.02218 69.589798,318.02218 L 72.050928,312.48463 C 72.050928,311.50303 84.277696,301.626 87.221926,300.79248 C 87.932346,300.59136 87.913096,298.59104 87.221926,298.33135 C 86.467976,298.04806 85.453336,300.57341 83.941346,302.00615 C 81.968426,303.87567 81.494646,305.51364 80.531096,306.296 C 76.836096,309.29614 77.152796,309.76424 76.357906,313.7152 C 76.012516,315.43192 78.203756,319.25274 78.203756,319.25274 L 97.892796,321.71387 C 97.892796,321.71387 104.08811,318.24465 104.6609,315.56105 C 105.3338,312.40843 101.01396,308.87187 100.35393,305.71653 C 99.862616,303.36776 97.987556,298.11583 100.35393,297.71785 C 102.60141,297.33987 99.216026,302.16821 100.01648,305.7921 C 100.99975,310.24364 105.89147,313.7152 105.89147,313.7152 L 113.89014,314.33048 C 113.89014,314.33048 122.67036,307.03619 124.34994,302.64011 C 124.61345,301.9504 124.79673,300.76679 124.34994,300.17898 C 122.26327,297.43367 113.27486,297.10257 113.27486,297.10257 C 113.27486,297.10257 112.92685,295.67204 113.48412,294.84892 C 114.72593,293.01474 119.42768,294.02616 119.42768,294.02616 L 121.27353,281.10523 L 124.34994,289.1039 C 124.34994,289.1039 128.61966,283.25707 129.67822,279.67255 C 130.46239,277.01715 130.55378,273.07 129.67822,270.44331 C 129.09451,268.69219 128.86619,266.7552 128.86619,266.7552 C 128.86619,266.7552 133.16288,270.44656 134.60227,273.51972 C 135.46704,275.36604 134.80617,281.31629 134.80617,281.31629 C 134.80617,281.31629 137.41744,278.16052 138.0832,276.56102 C 139.49876,273.16017 140.85804,268.14071 140.34729,264.4926 C 139.9467,261.6313 137.81837,258.15593 136.04031,255.87864 C 133.94571,253.19593 133.1857,252.40338 133.1857,252.40338 C 133.1857,252.40338 134.47003,252.5405 136.35979,253.877 C 138.4415,255.34924 141.21397,258.14518 142.80842,260.8009 C 144.35511,263.37708 144.65426,270.64542 144.65426,270.64542 L 147.86891,264.33281 L 148.96124,257.10921 L 146.50011,241.11187 C 146.50011,241.11187 155.56351,229.64773 161.26689,228.19093 C 167.86229,226.50628 176.61377,233.34249 183.41706,233.11319 C 189.95505,232.89283 198.23982,229.33151 204.33667,226.96037 C 214.10775,223.16027 226.08959,215.7311 235.71607,211.57831 C 242.95654,208.45483 252.63514,204.08404 260.32737,202.34907 C 268.82086,200.43338 280.9013,197.40177 289.24565,199.88794 C 294.41221,201.4273 300.81868,206.22862 303.39714,210.96302 C 307.29769,218.12496 304.51811,229.4151 304.61635,237.56973 C 304.63273,238.92934 302.22324,240.72492 302.49045,245.02314 C 302.76857,249.49681 305.70065,256.4747 304.48949,257.71815 C 302.36538,259.89889 296.12159,261.10571 296.12159,261.10571 C 296.12159,261.10571 299.16332,263.71281 302.83722,264.2378 C 305.76541,264.65623 309.37831,263.12915 310.11757,262.42682 C 311.96,260.67644 313.47548,257.2352 313.85695,256.49393 C 315.79959,252.71901 313.85695,242.34243 313.85695,242.34243 C 313.85695,242.34243 314.06555,257.95881 318.16392,262.64675 C 319.97,264.71264 323.19719,264.72611 324.70714,267.01737 C 326.33542,269.48822 327.87823,272.32826 325.90376,274.53231 C 323.02846,277.74192 317.70565,280.3584 317.70565,280.3584 C 317.70565,280.3584 322.56648,281.92799 327.03672,280.78273 C 329.81835,280.07009 332.25655,278.13335 333.54599,275.56768 C 336.3945,269.89984 337.62561,260.91163 336.6224,254.64808 C 336.03492,250.98013 331.08486,243.573 331.08486,243.573 C 331.08486,243.573 335.42523,257.56406 340.31409,260.8009 C 343.71404,263.05196 351.00304,262.54916 351.00304,262.54916 C 351.00304,262.54916 347.45484,269.23751 346.46692,273.10655 C 344.90822,279.21096 348.31277,294.02616 348.31277,294.02616 C 348.31277,294.02616 340.27612,297.29746 336.6224,297.71785 C 334.23148,297.99294 330.77195,296.01753 328.62373,297.10257 C 327.06938,297.88766 325.54731,302.02483 325.54731,302.02483 L 334.16127,317.40689 C 334.16127,317.40689 339.04651,319.4823 340.92938,318.63746 C 344.09591,317.21665 344.50015,311.50151 346.95066,308.75899 C 349.37323,306.04773 355.69616,302.02483 355.69616,302.02483 L 351.38918,316.79161 L 354.46559,321.09859 L 368.61709,321.09859 C 368.61709,321.09859 373.03355,315.82308 372.92407,313.09992 C 372.77393,309.36538 366.15596,302.64011 366.15596,302.64011 C 366.15596,302.64011 369.83066,302.98713 371.62986,303.99798 C 373.87128,305.25729 376.00048,309.40822 376.00048,309.40822 L 382.76859,309.40822 L 390.76726,303.2554 C 390.76726,303.2554 391.96085,298.12985 390.76726,296.48729 C 388.65942,293.58657 379.39939,292.79559 379.39939,292.79559 L 386.46028,284.18164 L 382.1533,276.79825 C 382.1533,276.79825 391.88249,282.52524 396.3048,281.72051 C 399.14152,281.20431 402.36592,278.12992 403.68819,275.56768 C 404.79189,273.42899 404.30347,267.56901 404.30347,267.56901 C 404.30347,267.56901 402.26276,271.66578 400.61178,272.49127 C 399.1259,273.23421 396.21391,273.69996 395.07423,272.49127 C 392.91778,270.20425 395.68952,262.03147 395.68952,262.03147 C 395.68952,262.03147 403.04114,260.27221 405.53404,258.33977 C 407.3148,256.95936 409.79145,254.43955 409.84101,252.18695 C 409.89395,249.78084 405.53404,245.41884 405.53404,245.41884 C 405.53404,245.41884 406.16484,248.99404 404.91875,250.36827 C 403.65429,251.76275 400.51014,253.51015 398.76593,252.80223 C 395.44505,251.45438 391.99782,242.95771 391.99782,242.95771 C 391.99782,242.95771 398.51793,239.70732 399.77937,236.46106 C 400.27845,235.17671 400.22548,231.93979 398.94978,230.16734 C 397.03294,227.5041 395.49956,226.76129 395.49956,226.76129 C 395.49956,226.76129 396.84824,231.01396 395.07423,232.49791 C 393.28335,233.99597 390.01795,235.1488 387.69084,234.95904 C 383.74075,234.63694 378.67444,231.73144 376.00048,228.80622 C 372.76247,225.26396 371.49583,220.22018 369.62764,215.79952 C 369.08042,214.50465 368.31646,212.0272 368.31646,212.0272 C 368.31646,212.0272 374.95263,211.56963 377.62632,210.26197 C 379.50231,209.34446 382.33414,205.62228 382.76859,203.57963 C 383.41785,200.52701 381.67612,195.54188 379.04294,193.86665 C 376.85704,192.47599 372.62908,193.6019 372.62908,193.6019 C 372.62908,193.6019 375.63606,196.33008 376.64606,197.82581 C 377.36302,198.88758 375.4844,201.69558 374.81685,202.78909 C 374.27169,203.6821 372.40613,203.62782 371.384,203.40437 C 366.33165,202.29987 361.83794,197.28512 358.77257,193.11983 C 356.59263,190.15769 355.08087,181.42946 355.08087,181.42946 C 355.08087,181.42946 364.87189,180.70304 368.61709,178.96833 C 374.68617,176.15724 381.96466,170.26467 385.845,164.81684 C 388.92829,160.48803 391.13953,153.44908 391.99782,148.20421 C 392.98199,142.19011 392.51346,133.88813 391.38254,127.89989 C 390.36408,122.50712 388.04154,115.38503 385.22971,110.67198 C 382.68504,106.40672 374.15463,98.366333 374.15463,98.366333 C 374.15463,98.366333 369.52763,95.471703 368.61709,93.444073 C 367.78531,91.591833 367.39437,88.296953 368.61709,86.675963 C 369.42632,85.603143 371.85125,84.636173 372.92407,85.445403 C 373.95561,86.223493 375.99624,92.828793 375.99624,92.828793 C 375.99624,92.828793 378.86745,91.216623 380.30746,88.521813 C 381.45169,86.380523 380.01803,82.761143 379.07689,80.523143 C 378.36136,78.821623 377.01264,76.471863 375.3852,75.600883 C 372.4513,74.030703 367.20587,73.604233 363.94094,74.247263 C 359.72853,75.076893 355.31028,77.895523 352.49669,81.138423 C 350.46894,83.475583 348.60971,87.903023 348.31277,90.982943 C 348.15236,92.646713 348.55888,96.889653 348.55888,96.889653 C 348.55888,96.889653 327.55074,94.874603 317.54864,95.289923 C 307.54654,95.705243 293.06932,99.170063 282.47754,99.596893 C 278.04726,99.775423 272.05322,99.877353 267.71076,98.981613 C 261.13031,97.624233 252.10785,95.091173 246.79116,90.982943 C 244.27824,89.041193 241.81004,85.320643 240.63833,82.368993 C 239.12617,78.559713 238.73786,73.100633 240.51103,69.405623 C 241.908,66.494553 244.88725,64.070473 248.02172,63.295233 C 251.25204,62.496293 256.31577,62.083203 259.09681,63.910513 C 260.47659,64.817113 261.88474,67.214463 261.55794,68.832773 C 261.22108,70.500893 258.89745,72.094193 257.25096,72.524473 C 255.42972,73.000423 251.09813,71.293903 251.09813,71.293903 C 251.09813,71.293903 250.26768,74.679513 251.71342,76.603573 C 253.6082,79.125213 258.42773,80.683463 261.55794,80.295273 C 264.45429,79.936073 268.61166,77.296793 270.50139,75.072663 C 273.28768,71.793303 275.70943,64.489343 275.70943,64.489343 C 275.70943,64.489343 290.84728,66.026323 297.24432,65.104623 C 305.50624,63.914233 314.14296,62.490003 321.55027,58.641873 C 325.64527,56.514503 332.09337,52.976963 334.66262,49.143733 C 337.52915,44.866973 338.76428,38.089853 337.62509,33.068908 C 336.6106,28.597561 332.80171,25.182009 328.38847,23.938838 C 325.01742,22.989241 318.85669,25.876937 318.85669,25.876937 C 318.85669,25.876937 324.38786,26.387781 326.24008,27.722784 C 328.19249,29.130001 330.41198,31.104577 331.08486,33.415291 C 331.39451,34.478633 330.5746,37.768043 330.00926,38.720383 C 328.82864,40.709193 326.40437,41.954353 324.31675,42.949883 C 321.25366,44.410593 316.44367,44.537953 313.05025,44.567853 C 308.49152,44.608013 301.44271,40.659843 297.01645,39.568113 C 293.77075,38.767563 284.86576,39.682053 284.86576,39.682053 C 284.86576,39.682053 290.66764,31.821188 290.70866,28.839412 C 290.76008,25.102209 290.46527,19.971438 288.01508,17.149045 C 286.22845,15.091006 282.70219,13.304886 280.01641,12.842068 C 277.62384,12.429776 275.89688,12.354224 274.31604,14.196865 C 273.35453,15.317613 271.76153,17.540611 272.01774,18.994893 C 272.39259,21.122634 273.36078,22.34661 273.36078,22.34661 C 273.36078,22.34661 274.65219,20.272365 276.32472,18.994893 C 277.20486,18.322643 279.11795,18.347323 280.01641,18.994893 C 280.96347,19.677493 282.71602,22.797797 282.50669,23.946294 C 281.82437,27.689935 275.61083,31.908761 272.30352,33.790813 C 267.25423,36.664153 259.68622,33.794041 254.08968,35.352923 C 248.11232,37.017873 239.88562,39.506223 235.01592,43.351593 C 230.35091,47.035313 225.2408,53.721853 223.32556,59.348943 C 221.27816,65.364313 221.33132,74.339793 222.79514,80.523143 C 224.2409,86.630223 228.42474,94.331763 232.63966,98.981613 C 237.55638,104.40567 246.27232,109.50395 252.94398,112.51783 C 258.16684,114.87722 265.68917,116.41633 271.40246,116.86724 C 276.7673,117.29065 283.88991,116.12035 289.24565,115.59424 C 297.17887,114.81493 315.70279,113.13311 315.70279,113.13311 C 315.70279,113.13311 302.33834,117.34323 297.8596,121.13178 C 294.81087,123.71069 291.00624,128.24902 290.47621,132.20687 C 290.08882,135.09959 291.44457,139.4177 293.55263,141.4361 C 295.49388,143.29478 302.16658,143.89723 302.16658,143.89723 C 302.16658,143.89723 297.59699,139.52145 297.8596,137.12913 C 297.94505,136.35068 298.95592,135.51022 299.70545,135.28328 C 301.50708,134.73779 303.98554,136.70443 305.85827,136.51384 C 311.04254,135.98623 318.24804,133.50611 321.85562,129.74574 C 324.03924,127.46963 325.54731,119.90122 325.54731,119.90122 C 325.54731,119.90122 322.91885,131.49041 325.54731,135.28328 C 327.34392,137.87579 332.56297,140.66038 335.65067,141.30456 C 339.08862,142.02181 343.80336,140.84847 347.0822,139.59026 C 349.27563,138.74856 352.41482,136.39314 352.61974,134.05271 C 352.81627,131.80816 348.31277,127.89989 348.31277,127.89989 C 348.31277,127.89989 349.22642,131.29322 348.31277,132.20687 C 347.13808,133.38156 344.33033,132.79118 342.77522,132.20687 C 340.93843,131.51672 338.66376,129.6867 337.85296,127.89989 C 337.1665,126.38709 337.17709,123.87991 337.85296,122.36235 C 338.86328,120.09382 341.72465,117.8063 344.00579,116.8248 C 348.25823,114.99512 354.99053,114.14698 359.38785,115.59424 C 364.7319,117.35309 370.83945,122.964 373.53935,127.89989 C 376.58349,133.46511 378.03845,142.63771 376.61576,148.81949 C 375.51344,153.60923 371.25243,159.32068 367.38652,162.35571 C 363.66507,165.27732 352.61974,167.89325 352.61974,167.89325 C 352.61974,167.89325 332.29466,167.80508 327.1243,166.70687 C 313.1012,163.72829 303.7884,157.69933 289.55625,155.97732 C 284.05575,155.31179 275.01616,154.58277 269.47748,154.43616 C 260.06514,154.18702 245.38609,155.19701 236.01485,154.28382 C 220.15782,152.73863 184.20207,149.05287 184.20207,149.05287 L 163.72802,143.89723 L 153.26822,154.35704 z"
           style="fill:#214263;fill-opacity:1;fill-rule:evenodd;stroke:#000000;stroke-width:3;stroke-linecap:butt;stroke-linejoin:miter;stroke-miterlimit:4;stroke-dasharray:none;stroke-opacity:1" />
        <path
           sodipodi:nodetypes="csssc"
           id="path7898"
           d="M 246.61784,53.707103 C 246.61784,53.707103 254.10135,52.693283 257.32534,52.762323 C 260.94562,52.839843 264.80488,53.640793 268.03284,55.281733 C 270.47523,56.523323 274.45768,60.016183 275.24267,62.641183 C 275.54531,63.653193 274.61282,66.105373 274.61282,66.105373"
           style="fill:none;fill-rule:evenodd;stroke:#000000;stroke-width:2.5;stroke-linecap:butt;stroke-linejoin:miter;stroke-miterlimit:4;stroke-dasharray:none;stroke-opacity:1" />
        <path
           sodipodi:nodetypes="csc"
           id="path7900"
           d="M 279.3702,53.707103 C 279.3702,53.707103 288.08952,58.668523 292.04992,60.271373 C 295.41908,61.634953 307.08372,63.469813 307.08372,63.469813"
           style="fill:none;fill-rule:evenodd;stroke:#000000;stroke-width:2.5;stroke-linecap:butt;stroke-linejoin:miter;stroke-miterlimit:4;stroke-dasharray:none;stroke-opacity:1" />
        <path
           sodipodi:nodetypes="csc"
           id="path7902"
           d="M 301.41505,52.762323 C 301.41505,52.762323 307.60045,56.417113 310.54792,57.171293 C 314.12225,58.085863 322.83005,57.801143 322.83005,57.801143"
           style="fill:none;fill-rule:evenodd;stroke:#000000;stroke-width:2.5;stroke-linecap:butt;stroke-linejoin:miter;stroke-miterlimit:4;stroke-dasharray:none;stroke-opacity:1" />
        <path
           sodipodi:nodetypes="cssc"
           id="path7904"
           d="M 285.98365,39.535413 C 285.98365,39.535413 280.42475,43.011143 277.79557,43.944383 C 275.89221,44.619983 273.15301,45.645413 271.18211,45.204083 C 269.92813,44.923293 267.71792,42.684673 267.71792,42.684673"
           style="fill:none;fill-rule:evenodd;stroke:#000000;stroke-width:2.5;stroke-linecap:butt;stroke-linejoin:miter;stroke-miterlimit:4;stroke-dasharray:none;stroke-opacity:1" />
        <path
           sodipodi:nodetypes="cscssss"
           id="path7906"
           d="M 339.94492,96.397433 C 339.94492,96.397433 343.60091,96.055723 345.1133,96.397433 C 350.13863,97.532863 360.61842,103.78082 360.61842,103.78082 C 360.61842,103.78082 358.19286,96.087513 358.4034,92.705733 C 358.59926,89.559803 359.66071,85.119363 361.72592,82.738153 C 363.3485,80.867303 366.69909,79.615433 369.10931,79.046463 C 369.75604,78.893793 371.32433,79.046463 371.32433,79.046463"
           style="fill:none;fill-rule:evenodd;stroke:#000000;stroke-width:2.5;stroke-linecap:butt;stroke-linejoin:miter;stroke-miterlimit:4;stroke-dasharray:none;stroke-opacity:1" />
        <path
           sodipodi:nodetypes="cssss"
           id="path7908"
           d="M 297.9834,136.20768 C 297.9834,136.20768 299.89447,131.61765 301.57947,130.13788 C 303.45691,128.4891 308.51299,126.98051 310.78053,125.93098 C 312.28814,125.23318 314.3866,124.05098 315.21057,122.60846 C 315.708,121.73762 315.57974,119.28593 315.57974,119.28593"
           style="fill:none;fill-rule:evenodd;stroke:#000000;stroke-width:2.5;stroke-linecap:butt;stroke-linejoin:miter;stroke-miterlimit:4;stroke-dasharray:none;stroke-opacity:1" />
        <path
           sodipodi:nodetypes="cc"
           id="path7910"
           d="M 327.71141,113.1416 L 324.77079,122.29021"
           style="fill:none;fill-rule:evenodd;stroke:#000000;stroke-width:2.5;stroke-linecap:butt;stroke-linejoin:miter;stroke-miterlimit:4;stroke-dasharray:none;stroke-opacity:1" />
        <path
           sodipodi:nodetypes="cssc"
           id="path7912"
           d="M 355.81072,181.7562 C 355.81072,181.7562 349.12837,178.69401 345.6819,177.83537 C 342.63827,177.07709 338.2791,178.55603 335.22634,177.83537 C 332.66653,177.23108 327.38468,173.91453 327.38468,173.91453"
           style="fill:none;fill-rule:evenodd;stroke:#000000;stroke-width:2.5;stroke-linecap:butt;stroke-linejoin:miter;stroke-miterlimit:4;stroke-dasharray:none;stroke-opacity:1" />
        <path
           sodipodi:nodetypes="cssscscss"
           id="path7914"
           d="M 327.71141,187.63745 C 327.71141,187.63745 334.52745,188.88395 336.86003,190.57808 C 340.38196,193.13603 341.50149,199.13191 344.44285,202.34058 C 346.36826,204.44097 349.14822,206.21691 350.3538,208.18365 C 351.38259,209.86198 352.86161,214.24736 352.86161,214.24736 C 352.86161,214.24736 354.64451,209.52087 354.57167,207.04219 C 354.54354,206.08499 354.50378,200.05343 354.50378,200.05343 C 354.50378,200.05343 360.53382,208.62617 364.30587,210.83572 C 365.43429,211.49671 368.55344,211.81593 368.55344,211.81593"
           style="fill:none;fill-rule:evenodd;stroke:#000000;stroke-width:2.5;stroke-linecap:butt;stroke-linejoin:miter;stroke-miterlimit:4;stroke-dasharray:none;stroke-opacity:1" />
        <path
           sodipodi:nodetypes="css"
           id="path7916"
           d="M 378.50619,239.87874 C 378.50619,239.87874 383.00854,242.59539 385.154,243.20265 C 386.97339,243.71761 391.43249,243.75663 391.43249,243.75663"
           style="fill:none;fill-rule:evenodd;stroke:#000000;stroke-width:2.5;stroke-linecap:butt;stroke-linejoin:miter;stroke-miterlimit:4;stroke-dasharray:none;stroke-opacity:1" />
        <path
           sodipodi:nodetypes="cssc"
           id="path7918"
           d="M 394.94106,265.54668 C 394.94106,265.54668 393.20259,259.87379 391.80181,257.7909 C 390.24956,255.48278 387.5663,252.71256 385.154,251.32775 C 384.25645,250.8125 381.83009,250.40445 381.83009,250.40445"
           style="fill:none;fill-rule:evenodd;stroke:#000000;stroke-width:2.5;stroke-linecap:butt;stroke-linejoin:miter;stroke-miterlimit:4;stroke-dasharray:none;stroke-opacity:1" />
        <path
           sodipodi:nodetypes="csssc"
           id="path7920"
           d="M 377.0289,258.34489 C 377.0289,258.34489 382.64393,260.4273 384.23069,262.40744 C 386.57334,265.33087 387.47629,270.53892 389.21655,273.85645 C 390.09492,275.53092 391.17626,277.9023 392.54046,279.21163 C 393.59641,280.2251 396.78767,281.61223 396.78767,281.61223"
           style="fill:none;fill-rule:evenodd;stroke:#000000;stroke-width:2.5;stroke-linecap:butt;stroke-linejoin:miter;stroke-miterlimit:4;stroke-dasharray:none;stroke-opacity:1" />
        <path
           sodipodi:nodetypes="csc"
           id="path7922"
           d="M 382.75339,278.10366 C 382.75339,278.10366 377.71505,270.20776 376.47492,268.50127 C 375.43633,267.07211 372.41236,265.17736 372.41236,265.17736"
           style="fill:none;fill-rule:evenodd;stroke:#000000;stroke-width:2.5;stroke-linecap:butt;stroke-linejoin:miter;stroke-miterlimit:4;stroke-dasharray:none;stroke-opacity:1" />
        <path
           sodipodi:nodetypes="cc"
           id="path7926"
           d="M 207.64511,161.098 L 212.83325,171.96136"
           style="fill:none;fill-rule:evenodd;stroke:#000000;stroke-width:2.5;stroke-linecap:butt;stroke-linejoin:miter;stroke-miterlimit:4;stroke-dasharray:none;stroke-opacity:1" />
        <path
           sodipodi:nodetypes="cc"
           id="path7928"
           d="M 214.19367,159.43632 L 217.59833,168.23387"
           style="fill:none;fill-rule:evenodd;stroke:#000000;stroke-width:2.5;stroke-linecap:butt;stroke-linejoin:miter;stroke-miterlimit:4;stroke-dasharray:none;stroke-opacity:1" />
        <path
           sodipodi:nodetypes="cc"
           id="path7930"
           d="M 220.41626,159.01266 L 223.781,164.57139"
           style="fill:none;fill-rule:evenodd;stroke:#000000;stroke-width:2.5;stroke-linecap:butt;stroke-linejoin:miter;stroke-miterlimit:4;stroke-dasharray:none;stroke-opacity:1" />
        <path
           sodipodi:nodetypes="cc"
           id="path7932"
           d="M 225.85655,157.81236 L 228.85479,163.41946"
           style="fill:none;fill-rule:evenodd;stroke:#000000;stroke-width:2.5;stroke-linecap:butt;stroke-linejoin:miter;stroke-miterlimit:4;stroke-dasharray:none;stroke-opacity:1" />
        <path
           sodipodi:nodetypes="cccsssc"
           id="path7934"
           d="M 363.00853,252.06438 L 359.63587,256.96072 L 352.00034,262.00381 C 352.00034,262.00381 353.14565,263.83607 354.35161,264.56883 C 355.12323,265.03767 356.91559,265.39029 357.77163,265.1032 C 359.36691,264.5682 361.5361,263.53638 362.58103,262.21756 C 363.10368,261.55791 363.43604,259.54567 363.43604,259.54567"
           style="fill:none;fill-rule:evenodd;stroke:#000000;stroke-width:2.5;stroke-linecap:butt;stroke-linejoin:miter;stroke-miterlimit:4;stroke-dasharray:none;stroke-opacity:1" />
        <path
           sodipodi:nodetypes="cssscsssc"
           id="path7936"
           d="M 336.50045,232.91123 C 336.50045,232.91123 337.55318,239.30022 339.23656,241.36831 C 340.80831,243.29926 344.07968,244.71038 346.44995,245.47247 C 348.48576,246.12703 350.41931,246.60165 352.41964,245.84557 C 354.17338,245.18271 357.7675,241.61704 357.7675,241.61704 C 357.7675,241.61704 356.45383,246.60834 355.03138,248.20858 C 353.15583,250.31855 349.59285,252.26444 346.82305,252.81022 C 345.01593,253.16631 342.47158,252.66057 340.72899,252.06401 C 338.38616,251.26196 333.63997,247.83548 333.63997,247.83548"
           style="fill:none;fill-rule:evenodd;stroke:#000000;stroke-width:2.5;stroke-linecap:butt;stroke-linejoin:miter;stroke-miterlimit:4;stroke-dasharray:none;stroke-opacity:1" />
        <path
           sodipodi:nodetypes="csssc"
           id="path7938"
           d="M 322.69552,246.84052 C 322.69552,246.84052 322.9613,253.25657 324.43668,255.54634 C 325.58876,257.33435 328.27161,258.68614 329.5358,260.39672 C 330.72192,262.00167 331.7626,263.85217 332.39628,265.74457 C 333.07489,267.77112 334.24435,274.34453 334.24435,274.34453"
           style="fill:none;fill-rule:evenodd;stroke:#000000;stroke-width:2.5;stroke-linecap:butt;stroke-linejoin:miter;stroke-miterlimit:4;stroke-dasharray:none;stroke-opacity:1" />
        <path
           sodipodi:nodetypes="csc"
           id="path7940"
           d="M 344.34525,184.37009 C 344.34525,184.37009 349.44114,189.02264 350.99879,191.49888 C 352.66936,194.15462 354.80081,201.24156 354.80081,201.24156"
           style="fill:none;fill-rule:evenodd;stroke:#000000;stroke-width:2.5;stroke-linecap:butt;stroke-linejoin:miter;stroke-miterlimit:4;stroke-dasharray:none;stroke-opacity:1" />
        <path
           sodipodi:nodetypes="csss"
           id="path7942"
           d="M 198.12232,230.54286 C 198.12232,230.54286 189.50328,229.10292 186.22209,227.41122 C 183.61334,226.06621 180.36076,223.57217 178.70615,221.14794 C 176.86384,218.4487 175.26134,210.81352 175.26134,210.81352"
           style="fill:none;fill-rule:evenodd;stroke:#000000;stroke-width:2.5;stroke-linecap:butt;stroke-linejoin:miter;stroke-miterlimit:4;stroke-dasharray:none;stroke-opacity:1" />
        <path
           sodipodi:nodetypes="csss"
           id="path7944"
           d="M 207.83041,225.21907 C 207.83041,225.21907 197.71032,224.49028 194.14201,222.53211 C 192.0325,221.37448 189.43491,219.35682 187.87873,217.52148 C 186.13781,215.46826 183.49443,209.69238 183.49443,209.69238"
           style="fill:none;fill-rule:evenodd;stroke:#000000;stroke-width:2.5;stroke-linecap:butt;stroke-linejoin:miter;stroke-miterlimit:4;stroke-dasharray:none;stroke-opacity:1" />
        <path
           sodipodi:nodetypes="css"
           id="path7946"
           d="M 218.16483,220.83478 C 218.16483,220.83478 204.68871,217.7275 199.37498,215.19782 C 196.81045,213.97694 191.12155,208.1767 191.12155,208.1767"
           style="fill:none;fill-rule:evenodd;stroke:#000000;stroke-width:2.5;stroke-linecap:butt;stroke-linejoin:miter;stroke-miterlimit:4;stroke-dasharray:none;stroke-opacity:1" />
        <path
           sodipodi:nodetypes="csss"
           id="path7948"
           d="M 197.40517,204.84306 C 197.40517,204.84306 201.02982,208.82786 203.13295,209.56087 C 205.02947,210.22187 207.49157,210.98214 209.47845,211.27542 C 211.25411,211.53752 214.73571,211.6708 214.73571,211.6708"
           style="fill:none;fill-rule:evenodd;stroke:#000000;stroke-width:2.5;stroke-linecap:butt;stroke-linejoin:miter;stroke-miterlimit:4;stroke-dasharray:none;stroke-opacity:1" />
        <path
           sodipodi:nodetypes="csss"
           id="path7950"
           d="M 205.95143,202.98442 C 205.95143,202.98442 207.96575,205.30967 209.08307,205.8029 C 210.50576,206.43092 212.88864,206.40557 214.40686,206.74239 C 215.87437,207.06796 219.41748,206.74239 219.41748,206.74239"
           style="fill:none;fill-rule:evenodd;stroke:#000000;stroke-width:2.5;stroke-linecap:butt;stroke-linejoin:miter;stroke-miterlimit:4;stroke-dasharray:none;stroke-opacity:1" />
        <path
           sodipodi:nodetypes="css"
           id="path7952"
           d="M 214.72002,201.10544 C 214.72002,201.10544 219.97696,202.00853 222.23596,202.35809 C 223.54898,202.56127 226.62026,202.98442 226.62026,202.98442"
           style="fill:none;fill-rule:evenodd;stroke:#000000;stroke-width:2.5;stroke-linecap:butt;stroke-linejoin:miter;stroke-miterlimit:4;stroke-dasharray:none;stroke-opacity:1" />
        <path
           sodipodi:nodetypes="css"
           id="path7954"
           d="M 225.68077,197.97379 C 225.68077,197.97379 232.94227,198.41463 236.01518,198.91329 C 237.63475,199.17611 241.33897,200.16594 241.33897,200.16594"
           style="fill:none;fill-rule:evenodd;stroke:#000000;stroke-width:2.5;stroke-linecap:butt;stroke-linejoin:miter;stroke-miterlimit:4;stroke-dasharray:none;stroke-opacity:1" />
        <path
           sodipodi:nodetypes="csss"
           id="path7956"
           d="M 234.76253,193.90266 C 234.76253,193.90266 241.83345,194.97444 244.78378,195.78164 C 246.90511,196.36203 251.67339,198.28696 251.67339,198.28696 C 251.67339,198.28696 251.67339,198.28696 251.67339,198.28696"
           style="fill:none;fill-rule:evenodd;stroke:#000000;stroke-width:2.5;stroke-linecap:butt;stroke-linejoin:miter;stroke-miterlimit:4;stroke-dasharray:none;stroke-opacity:1" />
        <path
           sodipodi:nodetypes="csss"
           id="path7958"
           d="M 247.91542,191.08418 C 247.91542,191.08418 252.7905,191.74112 254.80503,192.33684 C 256.68659,192.89324 259.23507,193.72781 260.84128,194.85473 C 262.40267,195.95021 265.13945,199.53961 265.13945,199.53961"
           style="fill:none;fill-rule:evenodd;stroke:#000000;stroke-width:2.5;stroke-linecap:butt;stroke-linejoin:miter;stroke-miterlimit:4;stroke-dasharray:none;stroke-opacity:1" />
        <path
           sodipodi:nodetypes="csssscssssss"
           id="path8205"
           d="M 65.103289,286.43606 C 63.212012,284.2723 60.238222,283.02121 57.366118,283.12013 C 54.896034,283.2052 51.922046,285.25394 49.997384,286.8045 C 48.007895,288.40728 45.353426,290.97887 44.655052,293.43636 C 44.289656,294.72214 44.362731,295.77454 45.023489,296.9365 C 45.646456,298.03201 47.418327,300.06821 47.418327,300.06821 C 47.418327,300.06821 47.802552,297.40028 48.523637,296.56807 C 49.608139,295.31643 51.902564,294.61912 53.497533,294.17323 C 55.15521,293.70981 57.517199,293.94122 59.208302,293.62057 C 60.394189,293.39571 62.0654,293.17388 63.076887,292.51526 C 64.16203,291.80868 65.56128,290.46385 65.840162,289.19933 C 66.024936,288.36151 65.667913,287.08203 65.103289,286.43606 z"
           style="fill:#848401;fill-rule:evenodd;stroke:#000000;stroke-width:2.5;stroke-linecap:butt;stroke-linejoin:miter;stroke-miterlimit:4;stroke-dasharray:none;stroke-opacity:1" />
        <path
           sodipodi:nodetypes="cssssscssssss"
           id="path8207"
           d="M 63.076887,303.56836 C 63.846111,304.9122 63.889099,307.31112 63.261105,308.72648 C 62.704352,309.98128 61.043013,311.18324 59.760957,311.67397 C 58.108514,312.30648 55.489869,311.15564 53.865969,311.85819 C 51.929209,312.6961 49.96723,315.01627 48.892074,316.83208 C 48.188138,318.02094 47.603401,319.87168 47.602545,321.25332 C 47.601439,323.03729 49.26051,326.96409 49.26051,326.96409 C 49.26051,326.96409 43.171777,322.34014 42.075995,319.41114 C 41.203718,317.07956 41.686536,313.49255 42.444431,311.12132 C 43.125813,308.98948 44.902293,306.42798 46.497235,304.85789 C 47.983437,303.39485 50.395718,301.77623 52.392222,301.17352 C 54.297617,300.59831 57.105589,300.45943 59.024083,300.98931 C 60.413219,301.37299 62.360955,302.31762 63.076887,303.56836 z"
           style="fill:#848401;fill-rule:evenodd;stroke:#000000;stroke-width:2.5;stroke-linecap:butt;stroke-linejoin:miter;stroke-miterlimit:4;stroke-dasharray:none;stroke-opacity:1" />
        <path
           sodipodi:nodetypes="csssssscssss"
           id="path8209"
           d="M 91.814956,317.56896 C 91.599796,315.52351 89.936226,314.03638 87.946366,313.51616 C 85.753506,312.94286 82.133406,312.98477 80.393416,314.43725 C 79.136996,315.48606 79.588486,318.17074 79.288106,319.77958 C 78.917916,321.76232 78.213886,324.39468 78.182796,326.41144 C 78.150996,328.47461 78.398636,331.28837 79.103886,333.22752 C 79.528366,334.39467 80.276516,336.04577 81.314506,336.72767 C 82.810516,337.71046 87.209496,337.64876 87.209496,337.64876 C 87.209496,337.64876 83.849716,335.19793 83.340906,333.59595 C 82.884286,332.15827 83.487476,330.01021 84.077776,328.62206 C 85.033776,326.37392 87.402206,323.97645 89.051676,322.17442 C 90.372016,320.73197 92.019526,319.51373 91.814956,317.56896 z"
           style="fill:#848401;fill-rule:evenodd;stroke:#000000;stroke-width:2.5;stroke-linecap:butt;stroke-linejoin:miter;stroke-miterlimit:4;stroke-dasharray:none;stroke-opacity:1" />
        <path
           sodipodi:nodetypes="cssscssssss"
           id="path8211"
           d="M 119.4477,305.59476 C 121.56593,306.67342 123.70233,307.9024 124.79003,310.016 C 125.97859,312.3256 125.84085,316.29884 124.79003,318.67427 C 124.12528,320.17696 123.19802,321.61406 121.84254,322.54285 C 120.41535,323.52077 116.68442,325.12191 116.68442,325.12191 C 116.68442,325.12191 117.64609,322.0603 117.78973,320.70067 C 117.95821,319.10589 118.28596,316.81047 117.60551,315.35834 C 116.72528,313.47987 113.17065,312.6972 112.4474,310.75288 C 112.00049,309.55144 112.21032,307.52557 113.00005,306.51586 C 113.84097,305.4407 115.87257,304.89286 117.23708,304.85789 C 117.93591,304.83998 118.82476,305.27754 119.4477,305.59476 z"
           style="fill:#848401;fill-rule:evenodd;stroke:#000000;stroke-width:2.5;stroke-linecap:butt;stroke-linejoin:miter;stroke-miterlimit:4;stroke-dasharray:none;stroke-opacity:1" />
        <path
           sodipodi:nodetypes="cssscssss"
           id="path8213"
           d="M 332.10173,288.91841 C 330.68312,287.48762 327.47384,287.54584 325.47695,287.81428 C 323.12678,288.13022 322.10952,288.51581 320.15169,289.85371 C 318.44319,291.02123 315.993,292.73402 315.18311,294.63827 C 314.31884,296.67037 315.18311,301.99913 315.18311,301.99913 C 315.18311,301.99913 319.21837,296.75167 321.62386,295.37435 C 324.2383,293.87739 326.73456,295.38962 329.52542,294.25503 C 330.53409,293.84497 332.18879,293.39938 332.65379,292.41482 C 333.10729,291.45461 332.8494,289.6725 332.10173,288.91841 z"
           style="fill:#848401;fill-rule:evenodd;stroke:#000000;stroke-width:2.5;stroke-linecap:butt;stroke-linejoin:miter;stroke-miterlimit:4;stroke-dasharray:none;stroke-opacity:1" />
        <path
           sodipodi:nodetypes="csssssscssssss"
           id="path8215"
           d="M 329.44576,303.74635 C 331.48654,303.83346 332.45279,303.37205 333.86227,304.85048 C 335.09195,306.14031 336.11776,308.87687 335.51847,310.55515 C 335.15799,311.56464 333.51192,312.06023 332.57412,312.57939 C 330.99495,313.45361 328.43298,313.80761 327.05348,314.97167 C 325.89492,315.94929 324.72511,317.75109 324.29315,319.20416 C 323.94707,320.36835 324.02548,322.06795 324.29315,323.25263 C 324.57614,324.50513 325.68359,325.26425 326.31739,326.381 C 326.51389,326.72723 323.16791,326.37552 321.71685,325.64492 C 320.21718,324.88984 318.45118,323.26586 317.66838,321.78047 C 316.54706,319.65273 317.10768,317.55309 317.30034,315.15569 C 317.48213,312.89347 319.33906,311.32944 320.61273,309.45102 C 321.90993,307.53791 324.44368,305.53526 326.50142,304.48244 C 327.31198,304.06773 328.5361,303.70752 329.44576,303.74635 z"
           style="fill:#848401;fill-rule:evenodd;stroke:#000000;stroke-width:2.5;stroke-linecap:butt;stroke-linejoin:miter;stroke-miterlimit:4;stroke-dasharray:none;stroke-opacity:1" />
        <path
           sodipodi:nodetypes="csssscss"
           id="path8217"
           d="M 356.49692,318.46807 C 356.49692,318.46807 359.86982,316.6545 361.4655,316.44384 C 362.34802,316.32733 362.92424,316.33164 363.67376,316.81188 C 365.26034,317.82844 366.90878,320.26579 366.98614,322.14851 C 367.09055,324.68946 364.42799,327.51144 363.12169,329.69339 C 362.22494,331.19126 360.54539,334.47795 360.54539,334.47795 C 360.54539,334.47795 356.26861,324.81595 356.03693,322.83116 C 355.75912,320.45119 356.39658,318.66876 356.49692,318.46807 z"
           style="fill:#848401;fill-rule:evenodd;stroke:#000000;stroke-width:2.5;stroke-linecap:butt;stroke-linejoin:miter;stroke-miterlimit:4;stroke-dasharray:none;stroke-opacity:1" />
        <path
           sodipodi:nodetypes="cssscsssss"
           id="path8219"
           d="M 387.04449,300.61799 C 388.30351,300.20155 390.24668,300.26913 391.46101,300.80201 C 392.96236,301.46084 394.7724,303.12301 395.32546,304.66646 C 396.09261,306.80738 395.36972,310.0752 394.58938,312.21134 C 393.55427,315.04491 388.88471,320.49231 388.88471,320.49231 C 388.88471,320.49231 388.99925,315.70497 388.70069,313.68352 C 388.51675,312.43813 388.36292,310.6338 387.59656,309.63504 C 386.66279,308.4181 383.94402,308.38885 383.18004,307.05874 C 382.68511,306.19705 382.75216,304.64323 383.18004,303.74635 C 383.82229,302.40011 385.62835,301.0864 387.04449,300.61799 z"
           style="fill:#848401;fill-rule:evenodd;stroke:#000000;stroke-width:2.5;stroke-linecap:butt;stroke-linejoin:miter;stroke-miterlimit:4;stroke-dasharray:none;stroke-opacity:1" />
      </g>
    </g>
    <g
       transform="matrix(0.9985477,5.3874256e-2,-5.3874256e-2,0.9985477,-21.036934,-81.305012)"
       id="g3228"
       style="opacity:1">
      <path
         style="fill:#214263;fill-opacity:1;fill-rule:evenodd;stroke:#000000;stroke-width:3;stroke-linecap:butt;stroke-linejoin:miter;stroke-miterlimit:4;stroke-dasharray:none;stroke-opacity:1"
         d="M 107.14112,146.48399 C 107.14112,146.48399 105.6694,141.5954 106.06971,139.51982 C 106.84745,135.48733 111.95092,131.69574 113.03388,127.7343 C 113.75433,125.0989 113.03388,118.6273 113.03388,118.6273 C 113.03388,118.6273 120.79619,119.34486 123.748,120.77012 C 126.21257,121.96012 129.18358,124.47919 129.18358,124.47919 C 129.18358,124.47919 129.43418,121.29308 130.17646,119.16301 C 131.03738,116.69252 133.76744,114.57876 134.54064,112.07943 C 135.21235,109.90815 134.99781,105.23466 134.99781,105.23466 C 134.99781,105.23466 141.74083,107.74051 143.5691,110.05601 C 144.29414,110.97428 144.64052,113.80595 144.64052,113.80595 C 144.64052,113.80595 149.70802,107.85543 149.99757,104.69896 C 150.16941,102.82574 147.85475,98.806194 147.85475,98.806194 C 147.85475,98.806194 155.55939,100.58879 157.49745,103.09184 C 159.2929,105.41071 159.10457,112.73454 159.10457,112.73454 C 159.10457,112.73454 160.85613,107.54671 162.3188,105.77037 C 164.58706,103.01568 171.9615,98.806194 171.9615,98.806194 L 170.89009,109.52031 C 170.89009,109.52031 175.40941,107.35924 177.31856,107.91319 C 181.79459,109.21194 185.88378,115.02734 188.03267,119.16301 C 188.78834,120.61735 189.10408,124.52006 189.10408,124.52006 C 189.10408,124.52006 193.33851,118.68658 196.06825,117.55589 C 197.99847,116.75637 203.03243,117.55589 203.03243,117.55589 C 203.03243,117.55589 201.56024,123.19271 201.96102,125.59147 C 202.73088,130.19931 208.41543,134.876 208.92519,139.51982 C 209.1421,141.49584 207.31807,145.94829 207.31807,145.94829 C 207.31807,145.94829 214.81188,157.49533 216.42507,163.09087 C 218.25526,169.43911 215.73722,177.72874 218.90566,183.52621 C 219.67639,184.93646 221.58633,186.65765 223.19131,186.74044 C 225.06303,186.837 227.67489,185.0548 227.67489,185.0548 C 227.67489,185.0548 227.34014,189.95591 226.06777,191.48326 C 224.82485,192.97526 220.17501,194.16179 220.17501,194.16179 C 220.17501,194.16179 221.10543,198.08778 221.24642,200.59026 C 221.38741,203.09274 220.41513,208.60325 222.02093,211.20541 C 223.4949,213.59393 226.32022,215.32971 229.06363,214.73698 C 229.74485,214.5898 231.60239,214.83169 232.32731,214.04327 C 233.85135,212.38574 234.10335,209.16155 234.10335,209.16155 C 234.10335,209.16155 235.34401,213.78776 234.63906,215.59002 C 233.68605,218.02646 232.13249,219.59204 229.95755,221.04604 C 227.74599,222.52452 221.44137,222.89322 220.17501,225.23272 C 218.01116,229.23026 223.14326,235.76244 222.31783,240.23248 C 221.71691,243.48672 217.41601,246.59739 216.96077,249.87518 C 216.57466,252.6552 217.11338,255.7711 218.66686,258.10869 C 219.87674,259.92925 221.54602,262.16759 223.68614,262.61271 C 225.13678,262.91443 227.87189,262.56379 228.94423,261.5413 C 230.27039,260.27679 231.08154,258.10359 231.42482,256.30364 C 231.69746,254.8741 231.96053,251.48229 231.96053,251.48229 C 231.96053,251.48229 234.513,256.14544 234.51965,258.44647 C 234.52526,260.38835 233.7302,262.83981 232.49624,264.33923 C 230.73924,266.4742 227.5816,268.71562 224.99636,269.69628 C 222.12557,270.78526 217.83161,271.35522 214.81795,270.76769 C 212.13634,270.2449 206.78237,266.48205 206.78237,266.48205 C 206.78237,266.48205 206.61011,270.6373 206.24666,272.37481 C 205.72638,274.86205 205.46156,278.7157 203.56813,280.4104 C 201.85356,281.94501 196.06825,282.01751 196.06825,282.01751 C 196.06825,282.01751 198.40026,291.24707 200.8896,294.33874 C 201.97982,295.69275 204.06955,296.98052 205.71095,297.55298 C 207.53823,298.19027 210.30695,298.7109 212.13942,298.08868 C 214.40171,297.32051 216.80592,294.78207 218.03218,292.73163 C 218.71239,291.59425 219.1036,288.44598 219.1036,288.44598 C 219.1036,288.44598 220.35959,295.84114 219.1036,298.62439 C 217.6049,301.94548 213.4457,305.48548 209.9966,306.65997 C 207.70954,307.43876 204.27834,306.8078 201.96102,306.12427 C 200.37399,305.65615 198.72767,303.91057 197.13967,303.44574 C 194.66702,302.72196 188.56838,302.91003 188.56838,302.91003 C 188.56838,302.91003 189.31726,308.16431 189.10408,310.40991 C 188.86829,312.89366 187.72161,316.06926 186.96126,318.44549 C 186.54279,319.75329 185.79523,321.42787 186.22762,322.73114 C 187.06989,325.26984 190.17956,327.51114 192.85402,327.55249 C 194.728,327.58146 197.34638,326.00107 198.21108,324.33826 C 199.25178,322.33698 197.67537,316.83838 197.67537,316.83838 C 197.67537,316.83838 201.60483,322.60871 201.42531,325.40967 C 201.30543,327.28003 199.71696,329.65095 198.21108,330.76672 C 196.08144,332.34466 192.28749,332.78723 189.63979,332.90955 C 187.52821,333.0071 184.62416,332.65755 182.67561,331.83813 C 180.45343,330.90364 177.92359,328.74909 176.24715,327.01678 C 173.51867,324.19738 170.55817,319.78323 168.74727,316.30267 C 167.87905,314.63394 165.41632,311.76777 165.41632,311.76777 C 165.41632,311.76777 162.12678,311.61158 160.17598,311.48132 C 157.99492,311.33568 154.92434,310.69697 153.2118,309.3385 C 151.46263,307.95097 150.40385,304.93426 149.46187,302.91003 C 148.45387,300.74393 146.78334,295.41015 146.78334,295.41015 C 146.78334,295.41015 138.57431,300.80537 137.14064,304.51715 C 136.38565,306.47183 136.95235,309.51494 137.67634,311.48132 C 138.4316,313.53261 140.48744,315.76041 141.96199,317.37408 C 143.11442,318.63523 146.24763,321.12402 146.24763,321.12402 C 146.24763,321.12402 139.02807,321.87851 136.06923,321.12402 C 132.16668,320.1289 125.85925,316.0787 123.00646,313.23586 C 120.40804,310.64651 118.28853,306.65957 116.93124,303.25159 C 115.5178,299.70263 115.17671,291.66021 115.17671,291.66021 L 116.07734,284.1837 C 116.07734,284.1837 112.54256,287.75222 111.96247,290.0531 C 111.45172,292.07896 111.96247,297.01727 111.96247,297.01727 C 111.96247,297.01727 107.98502,288.57458 107.14112,284.69604 C 106.52514,281.86501 106.01826,277.89049 106.60542,275.05334 C 107.04239,272.94191 109.81965,268.62487 109.81965,268.62487 C 109.81965,268.62487 104.74426,259.86251 103.39118,255.76794 C 101.65019,250.49952 99.833636,243.09195 100.17695,237.55395 C 100.44745,233.1905 104.46259,223.6256 104.46259,223.6256 L 98.569833,225.23272 C 98.569833,225.23272 91.768843,218.37933 91.069954,214.51861 C 90.153423,209.45561 93.419187,202.67873 95.355599,197.91173 C 96.330864,195.51085 98.619466,192.7933 99.641244,190.41185 C 100.96441,187.32796 102.85548,179.69774 102.85548,179.69774 C 102.85548,179.69774 97.211233,177.47989 95.891305,175.4121 C 94.411153,173.0933 94.819893,166.3051 94.819893,166.3051 C 94.819893,166.3051 98.7008,169.46919 100.71266,170.05504 C 102.25568,170.50437 104.75949,168.30808 104.75949,168.30808 C 104.75949,168.30808 101.69746,162.0631 101.24836,158.26952 C 100.99985,156.17034 101.36428,153.1909 102.31977,151.30534 C 103.24438,149.48071 107.14112,146.48399 107.14112,146.48399 z"
         id="path2504"
         sodipodi:nodetypes="csscscsscscscscsccsscscsscssscsczssscssssssssscsssscsscsssscsssscssssscsssssscssscssscsssccscsscssccssscscscssc" />
      <path
         style="fill:#848484;fill-rule:evenodd;stroke:#000000;stroke-width:2.5;stroke-linecap:butt;stroke-linejoin:miter;stroke-miterlimit:4;stroke-dasharray:none;stroke-opacity:1;fill-opacity:1"
         d="M 143.53762,175.88027 C 143.53762,175.88027 143.19571,185.65082 143.59205,188.55499 C 143.90427,190.84273 146.21375,193.88328 146.21375,193.88328 C 146.21375,193.88328 148.78521,191.30626 149.10695,188.98393 C 149.51637,186.02877 149.37644,176.12355 149.37644,176.12355 L 143.53762,175.88027 z"
         id="path4593"
         sodipodi:nodetypes="cscscc" />
      <path
         style="fill:#848484;fill-rule:evenodd;stroke:#000000;stroke-width:2.5;stroke-linecap:butt;stroke-linejoin:miter;stroke-miterlimit:4;stroke-dasharray:none;stroke-opacity:1;fill-opacity:1"
         d="M 174.85661,175.80955 C 174.85661,175.80955 174.5147,185.5801 174.91104,188.48427 C 175.22326,190.77201 177.53274,193.81256 177.53274,193.81256 C 177.53274,193.81256 180.1042,191.23554 180.42594,188.91321 C 180.83536,185.95805 180.69543,176.05283 180.69543,176.05283 L 174.85661,175.80955 z"
         id="path4595"
         sodipodi:nodetypes="cscscc" />
      <path
         sodipodi:type="arc"
         style="opacity:1;fill:#848484;fill-opacity:1;fill-rule:evenodd;stroke:#000000;stroke-width:2.5;stroke-linecap:butt;stroke-linejoin:miter;marker:none;marker-start:none;marker-mid:none;marker-end:none;stroke-miterlimit:4;stroke-dasharray:none;stroke-dashoffset:0;stroke-opacity:1;visibility:visible;display:inline;overflow:visible;enable-background:accumulate"
         id="path3161"
         sodipodi:cx="136.84087"
         sodipodi:cy="142.89806"
         sodipodi:rx="12.504578"
         sodipodi:ry="7.3608503"
         d="M 149.34544,142.89806 A 12.504578,7.3608503 0 1 1 124.33629,142.89806 A 12.504578,7.3608503 0 1 1 149.34544,142.89806 z"
         transform="matrix(0.9158702,-0.4014745,0.4014745,0.9158702,-43.729092,67.891117)" />
      <path
         sodipodi:type="arc"
         style="opacity:1;fill:#848484;fill-opacity:1;fill-rule:evenodd;stroke:#000000;stroke-width:2.5;stroke-linecap:butt;stroke-linejoin:miter;marker:none;marker-start:none;marker-mid:none;marker-end:none;stroke-miterlimit:4;stroke-dasharray:none;stroke-dashoffset:0;stroke-opacity:1;visibility:visible;display:inline;overflow:visible;enable-background:accumulate"
         id="path3163"
         sodipodi:cx="136.84087"
         sodipodi:cy="142.89806"
         sodipodi:rx="12.504578"
         sodipodi:ry="7.3608503"
         d="M 149.34544,142.89806 A 12.504578,7.3608503 0 1 1 124.33629,142.89806 A 12.504578,7.3608503 0 1 1 149.34544,142.89806 z"
         transform="matrix(-0.9158702,-0.4014745,-0.4014745,0.9158702,361.93067,66.605363)" />
      <path
         style="fill:none;fill-rule:evenodd;stroke:#000000;stroke-width:2.5;stroke-linecap:butt;stroke-linejoin:miter;stroke-miterlimit:4;stroke-dasharray:none;stroke-opacity:1"
         d="M 161.45059,136.42672 C 161.45059,136.42672 165.4155,137.63433 166.32779,138.5728 C 168.08672,140.38222 168.32378,144.21157 170.28681,145.79724 C 171.22069,146.5516 173.11978,147.70814 174.13165,148.35414 C 174.69571,148.71425 175.46371,149.96656 177.17688,150.56002 C 179.251,151.27851 182.44471,150.66663 183.54981,151.12453 C 187.13431,152.60978 192.68195,158.6249 193.86529,162.32007 C 194.24726,163.51284 193.42128,165.22804 192.97844,166.39957 C 191.85824,169.3631 189.05755,172.70013 187.83472,175.62281 C 187.32127,176.85 186.74465,178.55807 186.59313,179.87969 C 186.48387,180.83272 186.62692,182.12387 186.7705,183.07234 C 186.86901,183.72311 186.93622,184.65401 187.30261,185.20078 C 188.00169,186.24403 189.86084,186.24323 190.49441,187.32752"
         id="path3157"
         sodipodi:nodetypes="cssssssssssss" />
      <path
         style="fill:none;fill-rule:evenodd;stroke:#000000;stroke-width:2.5;stroke-linecap:butt;stroke-linejoin:miter;stroke-miterlimit:4;stroke-dasharray:none;stroke-opacity:1"
         d="M 150.40967,139.26198 C 150.40967,139.26198 151.35963,140.8802 150.35548,143.3935 C 149.55188,145.40487 146.90077,148.34007 145.9281,148.8788 C 142.81042,150.60558 138.38732,151.89879 135.94284,152.9057 C 133.45557,153.93024 130.90559,155.35822 130.53416,155.57971 C 129.56926,156.15509 127.80305,156.05893 127.01486,156.85946 C 125.1621,158.74122 123.79996,162.55842 124.13543,165.17781 C 124.7509,169.98346 132.3353,173.82997 133.09365,178.61515 C 133.98308,184.22748 127.89722,191.1697 127.97467,196.85154 C 128.01439,199.76568 131.33543,200.69582 130.8541,203.57021 C 130.55924,205.33104 127.33479,210.92875 127.33479,210.92875 C 127.33479,210.92875 133.98081,207.06608 135.97308,204.53002 C 137.19543,202.97403 138.53258,198.45122 138.53258,198.45122 C 138.53258,198.45122 136.39506,207.93101 137.25283,211.88856 C 138.19093,216.21673 142.06229,221.62713 142.06229,221.62713 C 142.06229,221.62713 142.43405,217.62605 143.27181,215.4781 C 143.86368,213.96059 148.13068,213.16831 148.13068,213.16831 C 148.13068,213.16831 146.70099,217.36906 146.53099,219.24711 C 146.41817,220.49345 146.39967,222.23904 146.85093,223.40628 C 147.64017,225.44773 149.70519,227.69876 151.33004,229.16514 C 152.00226,229.77179 153.88954,230.76483 153.88954,230.76483 C 153.88954,230.76483 152.34379,226.53056 152.60979,224.68603 C 152.81206,223.2834 154.84935,220.52685 154.84935,220.52685 C 154.84935,220.52685 155.80065,226.69334 156.76897,229.16514 C 157.25534,230.40668 158.26268,231.98918 158.66864,233.25929 C 159.63694,236.28874 158.8772,237.77815 158.43888,240.92824 C 158.25464,242.25234 156.8392,246.10705 156.8392,246.10705 C 156.8392,246.10705 162.83503,243.07178 164.25756,240.59789 C 165.21086,238.94003 165.5068,235.83523 165.5824,233.92432 C 165.63302,232.64477 165.64222,232.56913 165.64222,232.56913 C 165.64222,232.56913 167.83555,235.07342 168.20172,236.40837 C 168.68478,238.16948 168.37184,238.58226 167.96675,240.36293 C 167.41318,242.79626 166.07174,244.44148 166.04192,246.93681 C 166.01977,248.79038 167.07162,251.29123 168.28148,252.69567 C 170.73623,255.5452 177.88999,258.15453 177.88999,258.15453 C 177.88999,258.15453 175.05233,252.71505 174.69063,250.15612 C 174.42062,248.24591 175.92908,246.329 176.60504,244.5221 C 177.59414,241.87817 180.99926,239.46608 182.04396,236.84362 C 182.79747,234.95212 183.0868,232.15932 183.00377,230.12495 C 182.91547,227.96132 182.22514,225.09008 181.40409,223.08635 C 180.50526,220.8928 177.24491,216.36768 177.24491,216.36768 C 177.24491,216.36768 176.60549,215.92913 178.34835,217.385 C 179.68818,218.50422 183.40902,221.40333 183.96358,222.44647 C 184.91934,224.24427 186.02799,228.48538 186.02799,228.48538 C 186.02799,228.48538 188.01133,223.51819 188.12276,220.84679 C 188.22277,218.44935 185.54332,213.7631 185.54332,213.7631 L 184.28352,210.60882 C 184.28352,210.60882 188.64328,213.51828 189.72244,215.40787 C 190.98271,217.61458 192.17182,222.87653 192.17182,222.87653 C 192.17182,222.87653 195.68441,216.43189 195.41628,213.48825 C 195.26826,211.8633 194.64933,209.99882 193.96138,208.51926 C 193.30761,207.1132 190.68225,203.89015 190.68225,203.89015 C 190.68225,203.89015 194.95334,204.8065 195.9401,206.03306 C 197.07046,207.43813 199.35522,212.01862 199.35522,212.01862 C 199.35522,212.01862 201.66947,207.90983 202.04523,203.56437 C 202.33649,200.1961 199.9068,194.02433 198.57861,193.05547 L 189.77009,186.63003"
         id="path4598"
         sodipodi:nodetypes="csssscscscscssscscssscsscsssscssssscsscsccscsscscscsssssc" />
      <path
         style="fill:#840101;fill-rule:evenodd;stroke:#000000;stroke-width:2.5;stroke-linecap:butt;stroke-linejoin:miter;stroke-miterlimit:4;stroke-dasharray:none;stroke-opacity:1"
         d="M 149.15195,179.71237 C 149.15195,179.71237 149.67266,193.59169 152.91537,199.39924 C 154.7723,202.72493 161.6967,209.60724 161.6967,209.60724 C 161.6967,209.60724 169.74971,201.7131 171.73251,198.42705 C 175.13877,192.78195 174.49235,178.25408 174.49235,178.25408 L 169.22356,170.96266 L 153.66805,171.2057 L 149.15195,179.71237 z"
         id="path4590"
         sodipodi:nodetypes="cscscccc" />
      <path
         style="fill:#214263;fill-opacity:1;fill-rule:evenodd;stroke:#000000;stroke-width:2.5;stroke-linecap:butt;stroke-linejoin:miter;stroke-miterlimit:4;stroke-dasharray:none;stroke-opacity:1"
         d="M 136.52707,165.24794 C 136.52707,165.24794 134.50769,166.64826 135.75973,169.26514 C 136.65451,171.1353 141.07956,173.55041 141.59666,174.85758 C 142.12557,176.19462 142.79323,179.97903 142.79323,179.97903 C 142.79323,179.97903 147.37316,181.28253 148.99529,180.83322 C 151.0972,180.25102 153.23432,177.974 155.22941,177.09275 C 157.01551,176.30381 161.46352,175.22252 161.46352,175.22252 L 160.84011,162.13088 C 160.69199,162.30016 154.28203,155.58708 152.21705,152.97848 C 151.47377,152.03953 149.31817,153.92051 149.62565,155.07789 C 150.69637,159.10826 161.09856,162.00185 160.80645,162.19659 C 160.80645,162.19659 171.0625,158.59351 171.19482,154.61954 C 171.22123,153.82651 169.97712,152.29787 169.32459,152.74931 C 166.73204,154.5429 161.21242,162.57375 160.80645,162.13088 L 161.42986,175.22252 C 161.42986,175.22252 166.1027,176.35065 167.66558,177.02865 C 169.24741,177.71487 171.02845,180.09882 172.68653,180.572 C 175.052,181.24705 180.98772,178.76313 180.98772,178.76313 C 180.98772,178.76313 180.64354,175.64186 180.99583,174.47118 C 181.53781,172.67016 185.20749,170.30731 186.44878,167.99884 C 187.57029,165.91315 185.6788,164.52517 185.6788,164.52517"
         id="path2382"
         sodipodi:nodetypes="csscssccsscssccsscsss" />
      <path
         style="fill:#000000;fill-opacity:1;fill-rule:evenodd;stroke:#000000;stroke-width:2.5;stroke-linecap:butt;stroke-linejoin:miter;stroke-miterlimit:4;stroke-dasharray:none;stroke-opacity:1"
         d="M 117.28348,125.13276 C 117.28348,125.13276 120.1702,127.52975 120.31906,128.99622 C 120.48732,130.65379 117.46252,132.3397 117.83541,133.96352 C 118.13931,135.2869 121.36096,135.36671 121.4229,136.72313 C 121.56186,139.7663 113.97195,143.62216 113.97195,143.62216 C 113.97195,143.62216 117.76468,134.91854 118.11137,130.92795 C 118.26337,129.17833 117.28348,125.13276 117.28348,125.13276 z"
         id="path3173"
         sodipodi:nodetypes="cssscsc" />
      <path
         style="fill:#000000;fill-opacity:1;fill-rule:evenodd;stroke:#000000;stroke-width:2.5;stroke-linecap:butt;stroke-linejoin:miter;stroke-miterlimit:4;stroke-dasharray:none;stroke-opacity:1"
         d="M 197.84472,123.06782 C 197.84472,123.06782 196.40958,131.04545 198.45009,133.89296 C 199.92732,135.95443 202.14844,139.64623 202.14844,139.64623 C 202.14844,139.64623 200.18338,139.65656 199.49983,139.23289 C 197.81889,138.19101 197.72148,136.75299 196.75461,134.61956 C 196.08026,133.13158 194.52501,130.53619 194.21508,128.30427 C 193.95206,126.41023 197.84472,123.06782 197.84472,123.06782 z"
         id="path3175"
         sodipodi:nodetypes="cscsssc" />
      <path
         sodipodi:type="arc"
         style="opacity:1;fill:#848484;fill-opacity:1;fill-rule:evenodd;stroke:#000000;stroke-width:2.5;stroke-linecap:butt;stroke-linejoin:miter;marker:none;marker-start:none;marker-mid:none;marker-end:none;stroke-miterlimit:4;stroke-dasharray:none;stroke-dashoffset:0;stroke-opacity:1;visibility:visible;display:inline;overflow:visible;enable-background:accumulate"
         id="path3177"
         sodipodi:cx="141.94682"
         sodipodi:cy="141.35471"
         sodipodi:rx="8.0072575"
         sodipodi:ry="8.0072575"
         d="M 149.95408,141.35471 A 8.0072575,8.0072575 0 1 1 133.93957,141.35471 A 8.0072575,8.0072575 0 1 1 149.95408,141.35471 z" />
      <path
         sodipodi:type="arc"
         style="opacity:1;fill:#848484;fill-opacity:1;fill-rule:evenodd;stroke:#000000;stroke-width:2.5;stroke-linecap:butt;stroke-linejoin:miter;marker:none;marker-start:none;marker-mid:none;marker-end:none;stroke-miterlimit:4;stroke-dasharray:none;stroke-dashoffset:0;stroke-opacity:1;visibility:visible;display:inline;overflow:visible;enable-background:accumulate"
         id="path3179"
         sodipodi:cx="141.94682"
         sodipodi:cy="141.35471"
         sodipodi:rx="8.0072575"
         sodipodi:ry="8.0072575"
         d="M 149.95408,141.35471 A 8.0072575,8.0072575 0 1 1 133.93957,141.35471 A 8.0072575,8.0072575 0 1 1 149.95408,141.35471 z"
         transform="translate(33.970233,-1.4815536)" />
      <path
         style="fill:#000000;fill-opacity:1;fill-rule:evenodd;stroke:none;stroke-width:3.5;stroke-linecap:butt;stroke-linejoin:miter;stroke-miterlimit:4;stroke-dasharray:none;stroke-opacity:1"
         d="M 176.57545,132.98387 C 175.97176,132.98216 175.43021,133.07631 174.88795,133.14012 C 173.80343,133.26774 172.88795,133.45262 172.88795,133.45262 L 173.6692,136.85887 C 173.6692,136.85887 174.41539,136.71228 175.2942,136.60887 C 176.17301,136.50546 177.27509,136.65333 177.1067,136.57762 C 177.03029,136.54326 177.73916,137.33688 177.7942,137.51512 C 177.97082,138.08712 177.86809,140.22176 177.58137,140.80067 C 177.48088,141.00357 176.66348,141.72152 176.61262,141.73817 C 176.87277,141.65298 176.00902,141.72802 175.36262,141.61317 C 174.71623,141.49832 174.17512,141.36317 174.17512,141.36317 C 174.17512,141.36317 172.40414,141.15255 172.1531,141.73139 C 171.82031,142.49873 173.1692,144.32762 173.1692,144.32762 C 173.1692,144.32762 173.86581,144.49183 174.70045,144.64012 C 175.53509,144.78841 176.38656,145.04992 177.63795,144.64012 C 179.12971,144.1516 180.04927,143.20432 180.6692,141.95262 C 181.50127,140.27258 181.70507,138.32049 181.13795,136.48387 C 180.73512,135.17931 180.03601,134.06088 178.5442,133.39012 C 177.83708,133.07218 177.17914,132.98558 176.57545,132.98387 z"
         id="path3183"
         sodipodi:nodetypes="csccsssssscscsssssc" />
      <path
         style="fill:#214263;fill-opacity:1;fill-rule:evenodd;stroke:#000000;stroke-width:2.5;stroke-linecap:butt;stroke-linejoin:miter;stroke-miterlimit:4;stroke-dasharray:none;stroke-opacity:1"
         d="M 175.12434,127.61583 C 175.12434,127.61583 172.3628,128.0464 171.22221,128.50268 C 168.98206,129.39883 166.72261,131.42844 166.43322,133.82377 C 166.28192,135.07611 166.76674,136.14084 167.67481,137.01643 C 168.65139,137.95808 170.22172,137.84194 171.57695,137.90328 C 173.56162,137.99312 176.02456,136.43029 177.96226,136.66169 C 180.75206,136.99485 184.36953,138.70461 186.47602,140.56383 C 187.46134,141.43349 187.67966,143.57277 188.78182,144.2886 C 189.77266,144.93213 191.62857,145.35179 192.68396,144.82071 C 193.7689,144.27476 194.33287,142.44969 194.63503,141.27331 C 194.78065,140.70639 194.79997,139.88384 194.63503,139.32224 C 194.38547,138.47252 193.65121,137.4787 193.0387,136.83906 C 192.2729,136.03934 190.02341,134.71062 190.02341,134.71062"
         id="path3167"
         sodipodi:nodetypes="csssssssssssc" />
      <path
         style="fill:#000000;fill-opacity:1;fill-rule:evenodd;stroke:none;stroke-width:3.5;stroke-linecap:butt;stroke-linejoin:miter;stroke-miterlimit:4;stroke-dasharray:none;stroke-opacity:1"
         d="M 142.54423,134.10752 C 141.94054,134.10581 141.39899,134.19996 140.85673,134.26377 C 139.77221,134.39139 138.85673,134.57627 138.85673,134.57627 L 139.63798,137.98252 C 139.63798,137.98252 140.38417,137.83593 141.26298,137.73252 C 142.14179,137.62911 143.24387,137.77698 143.07548,137.70127 C 142.99907,137.66691 143.70794,138.46053 143.76298,138.63877 C 143.9396,139.21077 143.83687,141.34541 143.55015,141.92432 C 143.44966,142.12722 142.63226,142.84517 142.5814,142.86182 C 142.84155,142.77663 141.9778,142.85167 141.3314,142.73682 C 140.68501,142.62197 140.1439,142.48682 140.1439,142.48682 C 140.1439,142.48682 138.37292,142.2762 138.12188,142.85504 C 137.78909,143.62238 139.13798,145.45127 139.13798,145.45127 C 139.13798,145.45127 139.83459,145.61548 140.66923,145.76377 C 141.50387,145.91206 142.35534,146.17357 143.60673,145.76377 C 145.09849,145.27525 146.01805,144.32797 146.63798,143.07627 C 147.47005,141.39623 147.67385,139.44414 147.10673,137.60752 C 146.7039,136.30296 146.00479,135.18453 144.51298,134.51377 C 143.80586,134.19583 143.14792,134.10923 142.54423,134.10752 z"
         id="path3195"
         sodipodi:nodetypes="csccsssssscscsssssc" />
      <path
         style="fill:#214263;fill-opacity:1;fill-rule:evenodd;stroke:#000000;stroke-width:2.5;stroke-linecap:butt;stroke-linejoin:miter;stroke-miterlimit:4;stroke-dasharray:none;stroke-opacity:1"
         d="M 126.6421,135.89195 C 126.6421,135.89195 124.32059,140.75327 123.80418,142.98675 C 123.47965,144.39035 122.91413,146.43825 123.44944,147.77573 C 124.00938,149.17475 125.68041,151.34411 127.17421,151.14576 C 128.05211,151.02919 128.37083,149.45285 128.77054,148.66258 C 129.64475,146.93418 129.83471,144.11859 131.07635,142.63201 C 132.59149,140.81798 135.51541,139.09265 137.81641,138.5525 C 140.31156,137.96678 143.76873,139.35104 146.33016,139.26198 C 147.72908,139.21334 149.69318,139.18521 150.94178,138.5525 C 152.15004,137.94023 154.13444,135.35984 154.13444,135.35984 C 154.13444,135.35984 152.99707,132.45613 152.006,131.63507 C 150.74904,130.59373 148.48148,130.06754 146.86227,129.86138 C 144.8502,129.60521 142.13545,130.14672 140.12221,130.39349 C 139.15842,130.51163 136.92956,130.9256 136.92956,130.9256"
         id="path3165"
         sodipodi:nodetypes="csssssssscsssc" />
      <path
         style="fill:none;fill-rule:evenodd;stroke:#000000;stroke-width:2.5;stroke-linecap:butt;stroke-linejoin:miter;stroke-miterlimit:4;stroke-dasharray:none;stroke-opacity:1"
         d="M 102.68249,179.18294 C 102.68249,179.18294 106.66552,179.96113 108.27786,179.48539 C 111.61138,178.5018 115.62617,175.50302 117.65387,172.68022 C 118.09756,172.06256 118.41,170.2606 118.41,170.2606"
         id="path3198"
         sodipodi:nodetypes="cssc" />
      <path
         style="fill:none;fill-rule:evenodd;stroke:#000000;stroke-width:2.5;stroke-linecap:butt;stroke-linejoin:miter;stroke-miterlimit:4;stroke-dasharray:none;stroke-opacity:1"
         d="M 98.90184,225.15566 C 98.90184,225.15566 97.782248,217.99244 98.448162,215.02351 C 99.043326,212.37002 100.87625,209.04145 102.68249,207.00853 C 106.34353,202.88804 117.8051,196.57393 117.8051,196.57393"
         id="path3200"
         sodipodi:nodetypes="cssc" />
      <path
         style="fill:none;fill-rule:evenodd;stroke:#000000;stroke-width:2.5;stroke-linecap:butt;stroke-linejoin:miter;stroke-miterlimit:4;stroke-dasharray:none;stroke-opacity:1"
         d="M 118.41,206.85731 C 118.41,206.85731 110.29185,213.64277 107.67295,217.2919 C 106.38328,219.0889 104.4972,223.94585 104.4972,223.94585"
         id="path3202"
         sodipodi:nodetypes="csc" />
      <path
         style="fill:none;fill-rule:evenodd;stroke:#000000;stroke-width:2.5;stroke-linecap:butt;stroke-linejoin:miter;stroke-miterlimit:4;stroke-dasharray:none;stroke-opacity:1"
         d="M 119.16613,224.70198 C 119.16613,224.70198 114.93967,230.34173 113.57077,233.01941 C 111.89816,236.29117 110.17798,240.93574 109.33644,244.51259 C 108.57341,247.75572 108.04012,252.22154 108.12663,255.5521 C 108.22211,259.22789 109.94134,268.70876 109.94134,268.70876"
         id="path3204"
         sodipodi:nodetypes="csssc" />
      <path
         style="fill:none;fill-rule:evenodd;stroke:#000000;stroke-width:2.5;stroke-linecap:butt;stroke-linejoin:miter;stroke-miterlimit:4;stroke-dasharray:none;stroke-opacity:1"
         d="M 116.05841,284.02886 C 116.05841,284.02886 121.43929,278.73922 121.47119,274.05311 C 121.49444,270.63883 117.28277,266.07066 116.66045,262.7135 C 116.04398,259.38786 117.17302,253.5215 118.7222,250.51484 C 119.30672,249.38041 121.81482,247.59403 121.81482,247.59403"
         id="path3206"
         sodipodi:nodetypes="csssc" />
      <path
         style="fill:none;fill-rule:evenodd;stroke:#000000;stroke-width:2.5;stroke-linecap:butt;stroke-linejoin:miter;stroke-miterlimit:4;stroke-dasharray:none;stroke-opacity:1"
         d="M 145.86852,296.38869 C 145.86852,296.38869 150.56868,290.60003 150.50745,287.62627 C 150.37478,281.18303 143.46171,275.26013 144.49402,268.89874 C 144.70349,267.60795 146.81628,265.36681 147.28855,262.95685 C 147.63408,261.19363 146.97815,258.06964 146.72759,257.38733 C 145.99715,255.39827 140.88597,253.77927 140.88597,253.77927"
         id="path3208"
         sodipodi:nodetypes="cssssc" />
      <path
         style="fill:none;fill-rule:evenodd;stroke:#000000;stroke-width:2.5;stroke-linecap:butt;stroke-linejoin:miter;stroke-miterlimit:4;stroke-dasharray:none;stroke-opacity:1"
         d="M 138.93927,321.19867 C 138.93927,321.19867 132.79625,315.96835 130.36877,312.72626 C 128.14096,309.75086 126.69883,306.45222 126.56148,304.74305 C 126.30801,301.58892 126.33309,299.13046 126.95187,296.02725 C 128.19831,289.77637 134.52976,282.97006 135.46399,276.66495 C 135.73918,274.80772 134.32293,272.13968 135.0736,270.41877 C 135.73912,268.89308 138.48942,268.31916 139.36785,266.9053 C 140.19245,265.57808 140.72362,263.38186 140.53901,261.83028 C 140.41525,260.7901 138.97746,258.70719 138.97746,258.70719"
         id="path3210"
         sodipodi:nodetypes="cssssssss" />
      <path
         style="fill:none;fill-rule:evenodd;stroke:#000000;stroke-width:2.5;stroke-linecap:butt;stroke-linejoin:miter;stroke-miterlimit:4;stroke-dasharray:none;stroke-opacity:1"
         d="M 130.38897,240.74943 C 130.38897,240.74943 128.07504,244.99359 127.65626,246.9956 C 127.24861,248.94439 126.75631,251.8562 127.65626,253.63217 C 128.64097,255.5754 132.52735,255.98319 133.51206,257.92642 C 134.46495,259.80685 134.45483,263.06784 133.51206,264.95337 C 132.72642,266.52464 128.82742,268.46684 128.82742,268.46684 C 128.82742,268.46684 126.68447,260.86167 126.87549,257.53603 C 126.9456,256.31532 128.04665,253.63217 128.04665,253.63217"
         id="path3212"
         sodipodi:nodetypes="csssscss" />
      <path
         style="fill:none;fill-rule:evenodd;stroke:#000000;stroke-width:2.5;stroke-linecap:butt;stroke-linejoin:miter;stroke-miterlimit:4;stroke-dasharray:none;stroke-opacity:1"
         d="M 177.2353,264.17259 C 177.2353,264.17259 180.65934,271.69356 180.06678,275.07048 C 179.63218,277.54722 176.06974,279.97496 176.16291,282.48782 C 176.20385,283.59193 178.11485,285.61091 178.11485,285.61091 C 178.11485,285.61091 175.32351,286.82614 174.21098,286.39168 C 172.72716,285.81223 171.64056,283.59143 171.08789,282.09743 C 170.06882,279.34263 171.36128,276.17447 169.81326,273.67826 C 169.09344,272.51755 165.13333,270.41877 165.13333,270.41877 C 165.13333,270.41877 169.29414,284.39648 167.80489,289.25138 C 166.84188,292.39074 161.07297,291.52814 160.05831,295.40348 C 159.4584,297.69477 159.68846,301.41254 161.22947,303.2112 C 162.50678,304.70208 165.38858,305.37871 167.13618,304.4842 C 168.78456,303.64048 170.25927,301.14046 170.25927,301.14046 C 170.25927,301.14046 171.46015,305.90415 170.42901,307.60729 C 169.59268,308.98866 166.6779,311.62997 166.6779,311.62997"
         id="path3214"
         sodipodi:nodetypes="csscssscsssscsc" />
      <path
         style="fill:none;fill-rule:evenodd;stroke:#000000;stroke-width:2.5;stroke-linecap:butt;stroke-linejoin:miter;stroke-miterlimit:4;stroke-dasharray:none;stroke-opacity:1"
         d="M 184.80964,289.66226 C 184.80964,289.66226 183.31755,293.38587 183.57483,295.0131 C 184.13704,298.56898 189.74887,305.30317 189.74887,305.30317"
         id="path3216"
         sodipodi:nodetypes="csc" />
      <path
         style="fill:none;fill-rule:evenodd;stroke:#000000;stroke-width:2.5;stroke-linecap:butt;stroke-linejoin:miter;stroke-miterlimit:4;stroke-dasharray:none;stroke-opacity:1"
         d="M 196.33452,283.07662 L 194.68811,275.25617 L 193.8649,262.49648"
         id="path3218" />
      <path
         style="fill:none;fill-rule:evenodd;stroke:#000000;stroke-width:2.5;stroke-linecap:butt;stroke-linejoin:miter;stroke-miterlimit:4;stroke-dasharray:none;stroke-opacity:1"
         d="M 198.80413,245.20916 C 198.80413,245.20916 196.83492,251.90767 197.56933,254.67603 C 198.88019,259.61727 207.8594,268.25892 207.8594,268.25892"
         id="path3220"
         sodipodi:nodetypes="csc" />
      <path
         style="fill:none;fill-rule:evenodd;stroke:#000000;stroke-width:2.5;stroke-linecap:butt;stroke-linejoin:miter;stroke-miterlimit:4;stroke-dasharray:none;stroke-opacity:1"
         d="M 208.271,209.39972 C 208.271,209.39972 208.516,215.53917 209.91741,217.63178 C 211.8993,220.59118 221.03069,223.39421 221.03069,223.39421"
         id="path3222"
         sodipodi:nodetypes="csc" />
      <path
         style="fill:none;fill-rule:evenodd;stroke:#000000;stroke-width:2.5;stroke-linecap:butt;stroke-linejoin:miter;stroke-miterlimit:4;stroke-dasharray:none;stroke-opacity:1"
         d="M 200.45055,220.513 C 200.45055,220.513 209.90545,230.49456 212.38703,235.7423 C 214.82042,240.88813 216.50305,254.26442 216.50305,254.26442"
         id="path3224"
         sodipodi:nodetypes="csc" />
      <path
         style="fill:#000000;fill-opacity:1;fill-rule:evenodd;stroke:none;stroke-width:2.33100319;stroke-linecap:butt;stroke-linejoin:miter;stroke-miterlimit:4;stroke-dasharray:none;stroke-opacity:1"
         d="M 160.3125,176 C 159.85666,192.56862 160.46875,198.78125 160.46875,198.78125 L 161.53327,202.15771 L 162.78125,198.5625 C 162.78125,198.5625 162.20237,192.55984 162.65625,176.0625 L 160.3125,176 z"
         id="path3226"
         sodipodi:nodetypes="cccccc" />
    </g>
  </g>
</svg>
